<svg xmlns="http://www.w3.org/2000/svg" xmlns:svg="http://www.w3.org/2000/svg" xmlns:xlink="http://www.w3.org/1999/xlink" id="svg4379" width="128" height="128" version="1.1"><defs id="defs4381"><linearGradient id="linearGradient3149" x1="76.523" x2="76.523" y1="-9.023" y2="3.451" gradientTransform="matrix(1,0,0,-1,-6e-7,6.031954)" gradientUnits="userSpaceOnUse" xlink:href="#linearGradient4113"/><linearGradient id="linearGradient4113"><stop id="stop4115" offset="0" style="stop-color:#000;stop-opacity:1"/><stop id="stop4117" offset="1" style="stop-color:#000;stop-opacity:0"/></linearGradient><linearGradient id="linearGradient3159" x1="24" x2="24" y1="5" y2="43" gradientTransform="matrix(2.7297298,0,0,2.7297298,-1.5135124,-62.513486)" gradientUnits="userSpaceOnUse" xlink:href="#linearGradient3924-776"/><linearGradient id="linearGradient3924-776"><stop id="stop3124" offset="0" style="stop-color:#fff;stop-opacity:1"/><stop id="stop3126" offset=".063" style="stop-color:#fff;stop-opacity:.23529412"/><stop id="stop3128" offset=".951" style="stop-color:#fff;stop-opacity:.15686275"/><stop id="stop3130" offset="1" style="stop-color:#fff;stop-opacity:.39215687"/></linearGradient><radialGradient id="radialGradient3395" cx="6.73" cy="9.957" r="12.672" fx="6.2" fy="9.957" gradientTransform="matrix(0,25.083279,-30.794253,0,372.81658,-272.0918)" gradientUnits="userSpaceOnUse" xlink:href="#linearGradient2867-449-88-871-390-598-476-591-434-148-57-177-8-3-3-6-4-8-8-8-5"/><linearGradient id="linearGradient2867-449-88-871-390-598-476-591-434-148-57-177-8-3-3-6-4-8-8-8-5"><stop id="stop3750-1-0-7-6-6-1-3-9-3" offset="0" style="stop-color:#919caf;stop-opacity:1"/><stop id="stop3752-3-7-4-0-32-8-923-0-7" offset=".262" style="stop-color:#68758e;stop-opacity:1"/><stop id="stop3754-1-8-5-2-7-6-7-1-9" offset=".705" style="stop-color:#485a6c;stop-opacity:1"/><stop id="stop3756-1-6-2-6-6-1-96-6-0" offset="1" style="stop-color:#444c5c;stop-opacity:1"/></linearGradient><radialGradient id="radialGradient2455-1" cx="4.993" cy="43.5" r="2.5" fx="4.993" fy="43.5" gradientTransform="matrix(2.003784,0,0,1.4,27.98813,-17.4)" gradientUnits="userSpaceOnUse" xlink:href="#linearGradient3688-166-749-5"/><linearGradient id="linearGradient3688-166-749-5"><stop id="stop2883-0" offset="0" style="stop-color:#181818;stop-opacity:1"/><stop id="stop2885-5" offset="1" style="stop-color:#181818;stop-opacity:0"/></linearGradient><radialGradient id="radialGradient2457-5" cx="4.993" cy="43.5" r="2.5" fx="4.993" fy="43.5" gradientTransform="matrix(2.003784,0,0,1.4,-20.01187,-104.4)" gradientUnits="userSpaceOnUse" xlink:href="#linearGradient3688-464-309-8"/><linearGradient id="linearGradient3688-464-309-8"><stop id="stop2889-9" offset="0" style="stop-color:#181818;stop-opacity:1"/><stop id="stop2891-4" offset="1" style="stop-color:#181818;stop-opacity:0"/></linearGradient><linearGradient id="linearGradient2459-7" x1="25.058" x2="25.058" y1="47.028" y2="39.999" gradientUnits="userSpaceOnUse" xlink:href="#linearGradient3702-501-757-0"/><linearGradient id="linearGradient3702-501-757-0"><stop id="stop2895-0" offset="0" style="stop-color:#181818;stop-opacity:0"/><stop id="stop2897-2" offset=".5" style="stop-color:#181818;stop-opacity:1"/><stop id="stop2899-6" offset="1" style="stop-color:#181818;stop-opacity:0"/></linearGradient><linearGradient id="linearGradient3811"><stop id="stop3813" offset="0" style="stop-color:#000;stop-opacity:1"/><stop id="stop3815" offset="1" style="stop-color:#000;stop-opacity:0"/></linearGradient><radialGradient id="radialGradient4377" cx="-4.029" cy="93.468" r="35.338" fx="-4.029" fy="93.468" gradientTransform="matrix(1.5563924,0,0,0.16978827,70.270358,38.13029)" gradientUnits="userSpaceOnUse" xlink:href="#linearGradient3811"/></defs><metadata id="metadata4384"/><g id="layer1" transform="translate(0,64)"><path id="path3041" d="M 119,54 A 55,6 0 0 1 9.0000016,54 55,6 0 1 1 119,54 z" style="opacity:.2;color:#000;fill:url(#radialGradient4377);fill-opacity:1;fill-rule:nonzero;stroke:none;stroke-width:1;marker:none;visibility:visible;display:inline;overflow:visible;enable-background:accumulate"/><g id="g2036" transform="matrix(2.6999989,0,0,0.55555607,-0.8000019,30.888882)" style="display:inline"><g id="g3712" transform="matrix(1.052632,0,0,1.285713,-1.263158,-13.42854)" style="opacity:.4"><rect id="rect2801" width="5" height="7" x="38" y="40" style="fill:url(#radialGradient2455-1);fill-opacity:1;stroke:none"/><rect id="rect3696" width="5" height="7" x="-10" y="-47" transform="scale(-1,-1)" style="fill:url(#radialGradient2457-5);fill-opacity:1;stroke:none"/><rect id="rect3700" width="28" height="7" x="10" y="40" style="fill:url(#linearGradient2459-7);fill-opacity:1;stroke:none"/></g></g><rect id="rect5505-21-3" width="103" height="103" x="12.5" y="-48.5" rx="6.055" ry="6.055" style="color:#000;fill:url(#radialGradient3395);fill-opacity:1;fill-rule:nonzero;stroke:none;stroke-width:.99999994;marker:none;visibility:visible;display:inline;overflow:visible;enable-background:accumulate"/><rect id="rect6741-7" width="101" height="101" x="13.5" y="-47.5" rx="5" ry="5" style="opacity:.3;fill:none;stroke:url(#linearGradient3159);stroke-width:.99999994;stroke-linecap:round;stroke-linejoin:round;stroke-miterlimit:4;stroke-opacity:1;stroke-dasharray:none;stroke-dashoffset:0"/><path id="path2502" d="m 60.000002,-27.999989 c -0.554,0 -1,0.446 -1,1 l 0,7.53125 c -2.917284,0.61801 -5.610077,1.770601 -8.03125,3.34375 l -5.34375,-5.34375 c -0.195869,-0.195869 -0.463131,-0.28125 -0.71875,-0.28125 -0.255619,0 -0.522881,0.08538 -0.71875,0.28125 l -5.65625,5.65625 c -0.391737,0.391737 -0.391739,1.045762 0,1.4375 l 5.34375,5.343751 c -1.573149,2.421173 -2.72574,5.113966 -3.34375,8.03125 l -7.53125,0 c -0.554,0 -1,0.446 -1,1 l 0,8 c 0,0.554 0.446,1 1,1 l 7.53125,0 c 0.61801,2.917283 1.770601,5.610076 3.34375,8.031249 l -5.34375,5.34375 c -0.391737,0.391737 -0.391739,1.04576 0,1.4375 l 5.65625,5.65625 c 0.391737,0.391737 1.045761,0.391736 1.4375,0 l 5.34375,-5.34375 c 2.421173,1.573149 5.113966,2.72574 8.03125,3.34375 l 0,7.53125 c 0,0.554 0.446,0.999999 1,0.999999 l 8,0 c 0.554,0 1,-0.445999 1,-0.999999 l 0,-7.53125 c 2.917284,-0.61801 5.610077,-1.770601 8.03125,-3.34375 l 5.34375,5.34375 c 0.391737,0.391737 1.04576,0.391736 1.4375,0 l 5.65625,-5.65625 c 0.391737,-0.391737 0.391736,-1.045765 0,-1.4375 l -5.34375,-5.34375 c 1.573149,-2.421173 2.72574,-5.113966 3.34375,-8.031249 l 7.53125,0 c 0.554,0 1,-0.446 1,-1 l 0,-8 c 0,-0.554 -0.446,-1 -1,-1 l -7.53125,0 c -0.61801,-2.917284 -1.770601,-5.610077 -3.34375,-8.03125 l 5.34375,-5.343751 c 0.391737,-0.391737 0.391735,-1.045762 0,-1.4375 l -5.65625,-5.65625 c -0.391737,-0.391737 -1.045765,-0.391738 -1.4375,0 l -5.34375,5.34375 c -2.421173,-1.573149 -5.113966,-2.72574 -8.03125,-3.34375 l 0,-7.53125 c 0,-0.554 -0.446,-1 -1,-1 l -8,0 z m 4,21.000001 c 6.072,0 11,4.928 11,11 0,6.072 -4.928,10.999999 -11,10.999999 -6.072,0 -11,-4.927999 -11,-10.999999 0,-6.072 4.928,-11 11,-11 z" style="opacity:.1;fill:#fff;fill-opacity:1;fill-rule:nonzero;stroke:none;stroke-width:1.70000005;marker:none;visibility:visible;display:inline;overflow:visible;enable-background:accumulate"/><path id="rect2484" d="m 60.000002,-28.999989 c -0.554,0 -1,0.446 -1,1 l 0,7.53125 c -2.917284,0.61801 -5.610077,1.770601 -8.03125,3.34375 l -5.34375,-5.34375 c -0.195869,-0.195869 -0.463131,-0.28125 -0.71875,-0.28125 -0.255619,0 -0.522881,0.08538 -0.71875,0.28125 l -5.65625,5.65625 c -0.391737,0.391737 -0.391739,1.045762 0,1.4375 l 5.34375,5.34375 c -1.573149,2.421174 -2.72574,5.113967 -3.34375,8.031251 l -7.53125,0 c -0.554,0 -1,0.446 -1,1 l 0,8 c 0,0.554 0.446,1 1,1 l 7.53125,0 c 0.61801,2.917283 1.770601,5.610076 3.34375,8.031249 l -5.34375,5.34375 c -0.391737,0.391737 -0.391739,1.04576 0,1.4375 l 5.65625,5.65625 c 0.391737,0.391737 1.045761,0.391736 1.4375,0 l 5.34375,-5.34375 c 2.421173,1.573149 5.113966,2.72574 8.03125,3.34375 l 0,7.53125 c 0,0.554 0.446,1 1,1 l 8,0 c 0.554,0 1,-0.446 1,-1 l 0,-7.53125 c 2.917284,-0.61801 5.610077,-1.770601 8.03125,-3.34375 l 5.34375,5.34375 c 0.391737,0.391737 1.04576,0.391736 1.4375,0 l 5.65625,-5.65625 c 0.391737,-0.391737 0.391736,-1.045765 0,-1.4375 l -5.34375,-5.34375 c 1.573149,-2.421173 2.72574,-5.113966 3.34375,-8.031249 l 7.53125,0 c 0.554,0 1,-0.446 1,-1 l 0,-8 c 0,-0.554 -0.446,-1 -1,-1 l -7.53125,0 c -0.61801,-2.917284 -1.770601,-5.610077 -3.34375,-8.031251 l 5.34375,-5.34375 c 0.391737,-0.391737 0.391735,-1.045762 0,-1.4375 l -5.65625,-5.65625 c -0.391737,-0.391737 -1.045765,-0.391738 -1.4375,0 l -5.34375,5.34375 c -2.421173,-1.573149 -5.113966,-2.72574 -8.03125,-3.34375 l 0,-7.53125 c 0,-0.554 -0.446,-1 -1,-1 l -8,0 z m 4,21.000001 c 6.072,0 11,4.928 11,11 0,6.072 -4.928,10.999999 -11,10.999999 -6.072,0 -11,-4.927999 -11,-10.999999 0,-6.072 4.928,-11 11,-11 z" style="color:#000;fill:#455365;fill-opacity:1;fill-rule:nonzero;stroke:none;stroke-width:1;marker:none;visibility:visible;display:inline;overflow:visible;enable-background:accumulate"/><path id="path4110" d="M 64,14.719454 C 70.90718,14.939715 76.822128,8.048783 75.552696,1.253392 74.727538,-5.370638 67.498552,-10.147689 61.081031,-8.287237 54.578165,-6.804703 50.541724,0.847955 53.02234,7.048204 54.62178,11.56752 59.199227,14.786665 64,14.719454 z" style="opacity:.05;fill:none;stroke:url(#linearGradient3149);stroke-width:1;stroke-miterlimit:4;stroke-opacity:1;stroke-dasharray:none;marker:none;visibility:visible;display:inline;overflow:visible;enable-background:accumulate"/><rect id="rect5505-21-6" width="103" height="103" x="12.5" y="-48.5" rx="6" ry="6" style="opacity:.5;color:#000;fill:none;stroke:#1c2c38;stroke-width:1;stroke-linecap:round;stroke-linejoin:round;stroke-miterlimit:4;stroke-opacity:1;stroke-dasharray:none;stroke-dashoffset:0;marker:none;visibility:visible;display:inline;overflow:visible;enable-background:accumulate"/><path id="path4241" d="m 60,-28.4375 c -0.256627,0 -0.4375,0.180873 -0.4375,0.4375 l 0,7.53125 a 0.55412934,0.55412934 0 0 1 -0.4375,0.53125 c -2.848272,0.60339 -5.476284,1.742997 -7.84375,3.28125 a 0.55412934,0.55412934 0 0 1 -0.71875,-0.0625 l -5.34375,-5.34375 c -0.0746,-0.0746 -0.180261,-0.125 -0.3125,-0.125 -0.132241,0 -0.237902,0.0504 -0.3125,0.125 l -5.65625,5.65625 c -0.1737,0.1737 -0.173701,0.451299 0,0.625 l 5.34375,5.34375 a 0.55412934,0.55412934 0 0 1 0.0625,0.71875 c -1.538253,2.367467 -2.67786,4.995478 -3.28125,7.84375 a 0.55412934,0.55412934 0 0 1 -0.53125,0.4375 l -7.53125,0 c -0.256627,0 -0.4375,0.180873 -0.4375,0.4375 l 0,8 c 0,0.256627 0.180873,0.4375 0.4375,0.4375 l 7.53125,0 A 0.55412934,0.55412934 0 0 1 41.0625,7.875 c 0.60339,2.848271 1.742997,5.476284 3.28125,7.84375 a 0.55412934,0.55412934 0 0 1 -0.0625,0.71875 l -5.34375,5.34375 c -0.173701,0.173701 -0.173703,0.451296 0,0.625 l 5.65625,5.65625 c 0.173699,0.173699 0.451298,0.173701 0.625,0 l 5.34375,-5.34375 a 0.55412934,0.55412934 0 0 1 0.71875,-0.0625 c 2.367466,1.538253 4.995478,2.67786 7.84375,3.28125 a 0.55412934,0.55412934 0 0 1 0.4375,0.53125 l 0,7.53125 c 0,0.256627 0.180873,0.4375 0.4375,0.4375 l 8,0 c 0.256627,0 0.4375,-0.180873 0.4375,-0.4375 l 0,-7.53125 A 0.55412934,0.55412934 0 0 1 68.875,25.9375 c 2.848272,-0.60339 5.476284,-1.742997 7.84375,-3.28125 a 0.55412934,0.55412934 0 0 1 0.71875,0.0625 l 5.34375,5.34375 c 0.1737,0.1737 0.451296,0.173702 0.625,0 l 5.65625,-5.65625 c 0.173698,-0.173698 0.173696,-0.451304 0,-0.625 L 83.71875,16.4375 a 0.55412934,0.55412934 0 0 1 -0.0625,-0.71875 C 85.194503,13.351284 86.33411,10.723271 86.9375,7.875 a 0.55412934,0.55412934 0 0 1 0.53125,-0.4375 l 7.53125,0 c 0.256627,0 0.4375,-0.180873 0.4375,-0.4375 l 0,-8 c 0,-0.256627 -0.180873,-0.4375 -0.4375,-0.4375 l -7.53125,0 A 0.55412934,0.55412934 0 0 1 86.9375,-1.875 c -0.60339,-2.848272 -1.742997,-5.476283 -3.28125,-7.84375 a 0.55412934,0.55412934 0 0 1 0.0625,-0.71875 l 5.34375,-5.34375 c 0.173699,-0.173699 0.1737,-0.451299 0,-0.625 l -5.65625,-5.65625 c -0.173699,-0.173699 -0.451304,-0.173697 -0.625,0 l -5.34375,5.34375 a 0.55412934,0.55412934 0 0 1 -0.71875,0.0625 c -2.367466,-1.538253 -4.995478,-2.67786 -7.84375,-3.28125 a 0.55412934,0.55412934 0 0 1 -0.4375,-0.53125 l 0,-7.53125 c 0,-0.256627 -0.180873,-0.4375 -0.4375,-0.4375 l -8,0 z" style="opacity:.05;color:#000;fill:none;stroke:#000;stroke-width:1;stroke-linecap:butt;stroke-linejoin:miter;stroke-miterlimit:4;stroke-opacity:1;stroke-dasharray:none;stroke-dashoffset:0;marker:none;visibility:visible;display:inline;overflow:visible;enable-background:accumulate"/></g></svg>