<svg xmlns="http://www.w3.org/2000/svg" xmlns:svg="http://www.w3.org/2000/svg" xmlns:xlink="http://www.w3.org/1999/xlink" id="svg3049" width="128" height="128" version="1.1"><defs id="defs3051"><linearGradient id="linearGradient4040"><stop id="stop4042" offset="0" style="stop-color:#ff7a35;stop-opacity:1"/><stop id="stop4044" offset="1" style="stop-color:#f0431a;stop-opacity:1"/></linearGradient><linearGradient id="linearGradient3924"><stop style="stop-color:#fff;stop-opacity:1" id="stop3926" offset="0"/><stop style="stop-color:#fff;stop-opacity:.23529412" id="stop3928" offset=".063"/><stop style="stop-color:#fff;stop-opacity:.15686275" id="stop3930" offset=".951"/><stop style="stop-color:#fff;stop-opacity:.39215687" id="stop3932" offset="1"/></linearGradient><linearGradient id="linearGradient3688-166-749-5"><stop style="stop-color:#181818;stop-opacity:1" id="stop2883-0" offset="0"/><stop style="stop-color:#181818;stop-opacity:0" id="stop2885-5" offset="1"/></linearGradient><linearGradient id="linearGradient3688-464-309-8"><stop style="stop-color:#181818;stop-opacity:1" id="stop2889-9" offset="0"/><stop style="stop-color:#181818;stop-opacity:0" id="stop2891-4" offset="1"/></linearGradient><linearGradient id="linearGradient3702-501-757-0"><stop style="stop-color:#181818;stop-opacity:0" id="stop2895-0" offset="0"/><stop style="stop-color:#181818;stop-opacity:1" id="stop2897-2" offset=".5"/><stop style="stop-color:#181818;stop-opacity:0" id="stop2899-6" offset="1"/></linearGradient><linearGradient id="linearGradient3811"><stop style="stop-color:#000;stop-opacity:1" id="stop3813" offset="0"/><stop style="stop-color:#000;stop-opacity:0" id="stop3815" offset="1"/></linearGradient><radialGradient id="radialGradient3946" cx="4.993" cy="43.5" r="2.5" fx="4.993" fy="43.5" gradientTransform="matrix(2.003784,0,0,1.4,27.98813,-17.4)" gradientUnits="userSpaceOnUse" xlink:href="#linearGradient3688-166-749-5"/><radialGradient id="radialGradient3948" cx="4.993" cy="43.5" r="2.5" fx="4.993" fy="43.5" gradientTransform="matrix(2.003784,0,0,1.4,-20.01187,-104.4)" gradientUnits="userSpaceOnUse" xlink:href="#linearGradient3688-464-309-8"/><linearGradient id="linearGradient3950" x1="25.058" x2="25.058" y1="47.028" y2="39.999" gradientUnits="userSpaceOnUse" xlink:href="#linearGradient3702-501-757-0"/><linearGradient id="linearGradient3965" x1="24" x2="24" y1="5" y2="43" gradientTransform="matrix(2.7297298,0,0,2.7297298,-1.5135175,1.488319)" gradientUnits="userSpaceOnUse" xlink:href="#linearGradient3924"/><radialGradient id="radialGradient3968" cx="6.73" cy="9.957" r="12.672" fx="6.2" fy="9.957" gradientTransform="matrix(0,25.083279,-30.794253,0,372.81656,-208.08999)" gradientUnits="userSpaceOnUse" xlink:href="#linearGradient4040"/><radialGradient id="radialGradient3976" cx="-4.029" cy="93.468" r="35.338" fx="-4.029" fy="93.468" gradientTransform="matrix(1.5563924,0,0,0.16978827,70.270355,102.1321)" gradientUnits="userSpaceOnUse" xlink:href="#linearGradient3811"/><linearGradient id="linearGradient4067-0-2"><stop style="stop-color:#ffe452;stop-opacity:1" id="stop4069-2-9" offset="0"/><stop style="stop-color:#ffeb41;stop-opacity:0" id="stop4071-8-9" offset="1"/></linearGradient><radialGradient id="radialGradient4048" cx="9.014" cy="9.996" r="12.672" fx="8.483" fy="9.996" gradientTransform="matrix(4.5520195e-7,7.1023431,-8.2860677,5.300723e-7,147.82677,-46.017502)" gradientUnits="userSpaceOnUse" xlink:href="#linearGradient4067-0-2"/></defs><metadata id="metadata3054"/><path id="path3041" d="m 119,118.00181 a 55,6 0 0 1 -109.9999975,0 55,6 0 1 1 109.9999975,0 z" style="opacity:.2;color:#000;fill:url(#radialGradient3976);fill-opacity:1;fill-rule:nonzero;stroke:none;stroke-width:1;marker:none;visibility:visible;display:inline;overflow:visible;enable-background:accumulate"/><g id="g2036" transform="matrix(2.6999989,0,0,0.55555607,-0.8000075,94.890689)" style="display:inline"><g id="g3712" transform="matrix(1.052632,0,0,1.285713,-1.263158,-13.42854)" style="opacity:.4"><rect id="rect2801" width="5" height="7" x="38" y="40" style="fill:url(#radialGradient3946);fill-opacity:1;stroke:none"/><rect id="rect3696" width="5" height="7" x="-10" y="-47" transform="scale(-1,-1)" style="fill:url(#radialGradient3948);fill-opacity:1;stroke:none"/><rect id="rect3700" width="28" height="7" x="10" y="40" style="fill:url(#linearGradient3950);fill-opacity:1;stroke:none"/></g></g><rect id="rect5505-21-3" width="103" height="103" x="12.5" y="15.502" rx="6.055" ry="6.055" style="color:#000;fill:url(#radialGradient3968);fill-opacity:1;fill-rule:nonzero;stroke:none;stroke-width:.99999994000000003;marker:none;visibility:visible;display:inline;overflow:visible;enable-background:accumulate"/><rect id="rect6741-7" width="101" height="101" x="13.5" y="16.502" rx="5" ry="5" style="opacity:.5;fill:none;stroke:url(#linearGradient3965);stroke-width:.99999994;stroke-linecap:round;stroke-linejoin:round;stroke-miterlimit:4;stroke-opacity:1;stroke-dasharray:none;stroke-dashoffset:0"/><rect style="color:#000;fill:url(#radialGradient4048);fill-opacity:1;fill-rule:nonzero;stroke:none;stroke-width:.99999994000000003;marker:none;visibility:visible;display:inline;overflow:visible;enable-background:accumulate;opacity:.40000000000000002" id="rect4046" width="103" height="103" x="12.5" y="15.502" rx="6.055" ry="6.055"/><rect id="rect5505-21-3-1" width="103" height="103" x="12.5" y="15.502" rx="6.055" ry="6.055" style="opacity:.40000000000000002;color:#000;fill:none;stroke:#ba3d12;stroke-width:1;stroke-linecap:round;stroke-linejoin:round;stroke-miterlimit:4;stroke-opacity:1;stroke-dasharray:none;stroke-dashoffset:0;marker:none;visibility:visible;display:inline;overflow:visible;enable-background:accumulate"/><path style="font-size:13.58991336999999966px;font-style:normal;font-variant:normal;font-weight:700;font-stretch:normal;text-align:start;line-height:125%;writing-mode:lr-tb;text-anchor:start;fill:#ba3d12;fill-opacity:1;stroke:none;font-family:Bitstream Vera Serif;opacity:.3" id="path4050" d="m 22.303752,105.72962 c 0,-1.47342 0.508889,-2.71039 1.526562,-3.71092 1.017737,-1.01865 2.262621,-1.528 3.734659,-1.52804 1.435674,4e-5 2.653299,0.50939 3.652842,1.52804 1.017702,1.00053 1.52655,2.2375 1.52655,3.71092 0,1.43711 -0.508848,2.66499 -1.52655,3.68364 -0.999543,1.00053 -2.217168,1.50078 -3.652842,1.50075 -1.472038,3e-5 -2.716922,-0.50022 -3.734659,-1.50075 -1.017673,-1.00046 -1.526562,-2.22833 -1.526562,-3.68364 m -0.303775,-23.659227 0,8.715391 c 11.136886,0 20.182432,9.05979 20.182432,20.214216 l 8.74723,0 c 0,-15.977965 -12.976831,-28.929607 -28.929662,-28.929607 z m 0.01504,-19.070369 0,9.633847 c 21.145334,0 38.314292,17.185406 38.314292,38.351019 l 9.670672,0 C 70.000049,84.489803 48.484794,63.000024 22.015085,63.000024 z"/><path id="path4052" d="m 22.303752,105.72962 c 0,-1.47342 0.508889,-2.71039 1.526562,-3.71092 1.017737,-1.01865 2.262621,-1.528 3.734659,-1.52804 1.435674,4e-5 2.653299,0.50939 3.652842,1.52804 1.017702,1.00053 1.52655,2.2375 1.52655,3.71092 0,1.43711 -0.508848,2.66499 -1.52655,3.68364 -0.999543,1.00053 -2.217168,1.50078 -3.652842,1.50075 -1.472038,3e-5 -2.716922,-0.50022 -3.734659,-1.50075 -1.017673,-1.00046 -1.526562,-2.22833 -1.526562,-3.68364 m -0.303775,-23.659227 0,8.715391 c 11.136886,0 20.182432,9.05979 20.182432,20.214216 l 8.74723,0 c 0,-15.977965 -12.976831,-28.929607 -28.929662,-28.929607 z m 0.01504,-19.070369 0,9.633847 c 21.145334,0 38.314292,17.185406 38.314292,38.351019 l 9.670672,0 C 70.000049,84.489803 48.484794,63.000024 22.015085,63.000024 z" style="font-size:13.58991336999999966px;font-style:normal;font-variant:normal;font-weight:700;font-stretch:normal;text-align:start;line-height:125%;writing-mode:lr-tb;text-anchor:start;fill:#ba3d12;fill-opacity:1;stroke:#ba3d12;font-family:Bitstream Vera Serif;opacity:.29999999999999999;stroke-opacity:1;stroke-linejoin:round;stroke-width:2;stroke-miterlimit:4;stroke-dasharray:none"/><path id="path4311" d="m 22.303752,104.72962 c 0,-1.47342 0.508889,-2.71039 1.526562,-3.71092 1.017737,-1.01865 2.262621,-1.528 3.734659,-1.52804 1.435674,4e-5 2.653299,0.50939 3.652842,1.52804 1.017702,1.00053 1.52655,2.2375 1.52655,3.71092 0,1.43711 -0.508848,2.66499 -1.52655,3.68364 -0.999543,1.00053 -2.217168,1.50078 -3.652842,1.50075 -1.472038,3e-5 -2.716922,-0.50022 -3.734659,-1.50075 -1.017673,-1.00046 -1.526562,-2.22833 -1.526562,-3.68364 m -0.303775,-23.659227 0,8.715391 c 11.136886,0 20.182432,9.05979 20.182432,20.214216 l 8.74723,0 c 0,-15.977965 -12.976831,-28.929607 -28.929662,-28.929607 z m 0.01504,-19.070369 0,9.633847 c 21.145334,0 38.314292,17.185406 38.314292,38.351019 l 9.670672,0 C 70.000049,83.489803 48.484794,62.000024 22.015085,62.000024 z" style="font-size:13.58991337px;font-style:normal;font-variant:normal;font-weight:700;font-stretch:normal;text-align:start;line-height:125%;writing-mode:lr-tb;text-anchor:start;fill:#fff;fill-opacity:1;stroke:none;font-family:Bitstream Vera Serif"/></svg>