<svg xmlns="http://www.w3.org/2000/svg" xmlns:svg="http://www.w3.org/2000/svg" xmlns:xlink="http://www.w3.org/1999/xlink" id="svg3049" width="128" height="128" version="1.1"><defs id="defs3051"><linearGradient id="linearGradient3924"><stop style="stop-color:#fff;stop-opacity:1" id="stop3926" offset="0"/><stop style="stop-color:#fff;stop-opacity:.23529412" id="stop3928" offset=".063"/><stop style="stop-color:#fff;stop-opacity:.15686275" id="stop3930" offset=".951"/><stop style="stop-color:#fff;stop-opacity:.39215687" id="stop3932" offset="1"/></linearGradient><radialGradient id="radialGradient4093" cx="4.993" cy="43.5" r="2.5" fx="4.993" fy="43.5" gradientTransform="matrix(2.003784,0,0,1.4,27.98813,-17.4)" gradientUnits="userSpaceOnUse" xlink:href="#linearGradient3688-166-749-5"/><linearGradient id="linearGradient3688-166-749-5"><stop style="stop-color:#181818;stop-opacity:1" id="stop2883-0" offset="0"/><stop style="stop-color:#181818;stop-opacity:0" id="stop2885-5" offset="1"/></linearGradient><radialGradient id="radialGradient4095" cx="4.993" cy="43.5" r="2.5" fx="4.993" fy="43.5" gradientTransform="matrix(2.003784,0,0,1.4,-20.01187,-104.4)" gradientUnits="userSpaceOnUse" xlink:href="#linearGradient3688-464-309-8"/><linearGradient id="linearGradient3688-464-309-8"><stop style="stop-color:#181818;stop-opacity:1" id="stop2889-9" offset="0"/><stop style="stop-color:#181818;stop-opacity:0" id="stop2891-4" offset="1"/></linearGradient><linearGradient id="linearGradient4097" x1="25.058" x2="25.058" y1="47.028" y2="39.999" gradientUnits="userSpaceOnUse" xlink:href="#linearGradient3702-501-757-0"/><linearGradient id="linearGradient3702-501-757-0"><stop style="stop-color:#181818;stop-opacity:0" id="stop2895-0" offset="0"/><stop style="stop-color:#181818;stop-opacity:1" id="stop2897-2" offset=".5"/><stop style="stop-color:#181818;stop-opacity:0" id="stop2899-6" offset="1"/></linearGradient><linearGradient id="linearGradient3811"><stop style="stop-color:#000;stop-opacity:1" id="stop3813" offset="0"/><stop style="stop-color:#000;stop-opacity:0" id="stop3815" offset="1"/></linearGradient><linearGradient id="linearGradient3242-7-3-8-0-4-58-06"><stop style="stop-color:#cdf87e;stop-opacity:1" id="stop3244-5-8-5-6-4-3-8" offset="0"/><stop style="stop-color:#a2e34f;stop-opacity:1" id="stop3246-9-5-1-5-3-0-7" offset=".262"/><stop style="stop-color:#68b723;stop-opacity:1" id="stop3248-7-2-0-7-5-35-9" offset=".661"/><stop style="stop-color:#1d7e0d;stop-opacity:1" id="stop3250-8-2-8-5-6-40-4" offset="1"/></linearGradient><linearGradient id="linearGradient3510-2"><stop style="stop-color:#000;stop-opacity:1" id="stop3512-7" offset="0"/><stop style="stop-color:#000;stop-opacity:0" id="stop3514-6" offset="1"/></linearGradient><linearGradient id="linearGradient3202" x1="24" x2="24" y1="5" y2="43" gradientTransform="matrix(2.7297298,0,0,2.7297298,-1.5135175,1.488319)" gradientUnits="userSpaceOnUse" xlink:href="#linearGradient3924"/><radialGradient id="radialGradient3213" cx="-4.029" cy="93.468" r="35.338" fx="-4.029" fy="93.468" gradientTransform="matrix(1.5563924,0,0,0.16978827,70.270355,102.1321)" gradientUnits="userSpaceOnUse" xlink:href="#linearGradient3811"/><linearGradient id="linearGradient3278" x1="24.17" x2="24.17" y1="-12.242" y2="48.934" gradientTransform="matrix(1.8727272,0,0,1.9230769,4.0727278,6.8461539)" gradientUnits="userSpaceOnUse" xlink:href="#linearGradient3242-7-3-8-0-4-58-06"/><linearGradient id="linearGradient3285" x1="23.954" x2="23.954" y1="15.999" y2="19.963" gradientTransform="matrix(2.6000001,0,0,0.75,1.6000032,29.000002)" gradientUnits="userSpaceOnUse" xlink:href="#linearGradient3510-2"/><linearGradient id="linearGradient3288-4" x1="25.132" x2="25.132" y1="15.5" y2="48.396" gradientTransform="matrix(2.3698469,0,0,2.2723986,7.1236823,6.2711497)" gradientUnits="userSpaceOnUse" xlink:href="#linearGradient4658-2"/><linearGradient id="linearGradient4658-2"><stop style="stop-color:#fafafa;stop-opacity:1" id="stop4660-2" offset="0"/><stop style="stop-color:#e2e1de;stop-opacity:1" id="stop4662-0" offset="1"/></linearGradient><linearGradient id="linearGradient3924-7"><stop style="stop-color:#fff;stop-opacity:1" id="stop3926-3" offset="0"/><stop style="stop-color:#fff;stop-opacity:.23529412" id="stop3928-2" offset=".063"/><stop style="stop-color:#fff;stop-opacity:.15686275" id="stop3930-0" offset=".951"/><stop style="stop-color:#fff;stop-opacity:.39215687" id="stop3932-9" offset="1"/></linearGradient><linearGradient id="linearGradient4148" x1="24" x2="24" y1="5" y2="43" gradientTransform="matrix(2.7297298,0,0,2.7297298,-1.513517,1.488321)" gradientUnits="userSpaceOnUse" xlink:href="#linearGradient3924-7"/></defs><metadata id="metadata3054"/><path style="opacity:.2;color:#000;fill:url(#radialGradient3213);fill-opacity:1;fill-rule:nonzero;stroke:none;stroke-width:1;marker:none;visibility:visible;display:inline;overflow:visible;enable-background:accumulate" id="path3041" d="m 119,118.00181 a 55,6 0 0 1 -109.9999975,0 55,6 0 1 1 109.9999975,0 z"/><g style="display:inline" id="g2036" transform="matrix(2.6999989,0,0,0.55555607,-0.8000075,94.890689)"><g style="opacity:.4" id="g3712" transform="matrix(1.052632,0,0,1.285713,-1.263158,-13.42854)"><rect style="fill:url(#radialGradient4093);fill-opacity:1;stroke:none" id="rect2801" width="5" height="7" x="38" y="40"/><rect style="fill:url(#radialGradient4095);fill-opacity:1;stroke:none" id="rect3696" width="5" height="7" x="-10" y="-47" transform="scale(-1,-1)"/><rect style="fill:url(#linearGradient4097);fill-opacity:1;stroke:none" id="rect3700" width="28" height="7" x="10" y="40"/></g></g><rect style="color:#000;fill:url(#linearGradient3288-4);fill-opacity:1;fill-rule:nonzero;stroke:none;stroke-width:.99999994;marker:none;visibility:visible;display:inline;overflow:visible;enable-background:accumulate" id="rect5505-21-3" width="102" height="102" x="13" y="16" rx="5" ry="5"/><rect style="opacity:.15;fill:url(#linearGradient3285);fill-opacity:1;fill-rule:nonzero;stroke:none;stroke-width:1;marker:none;visibility:visible;display:inline;overflow:visible;enable-background:accumulate" id="rect3508" width="104" height="3" x="12" y="41" rx="0" ry="0"/><path style="opacity:.3;fill:none;stroke:#000;stroke-width:.99999994;stroke-miterlimit:4;stroke-dasharray:none" id="rect4567" d="m 12.5,40.237863 0,72.643787 c 0,3.11257 2.505709,5.61835 5.618181,5.61835 l 91.763629,0 c 3.11248,0 5.61819,-2.50578 5.61819,-5.61835 l 0,-72.643787"/><path style="opacity:.2;color:#000;fill:none;stroke:#fff;stroke-width:.99999994;stroke-linecap:butt;stroke-linejoin:miter;stroke-miterlimit:4;stroke-opacity:1;stroke-dasharray:none;stroke-dashoffset:0;marker:none;visibility:visible;display:inline;overflow:visible;enable-background:accumulate" id="rect4188-6-4-0" d="m 102.5,91.5 -76.999991,0 z m -0.0567,-35.923473 -76.943289,-0.05745 0,48.980923 76.999989,0 z M 102.5,80.5 25.500009,80.5 M 102.5,68.5 25.500009,68.5 M 40.552163,55.627642 40.447837,104.5 M 55.51002,55.840378 55.489979,104.5 M 70.48923,55.670188 70.51077,104.5 m 14.950335,-49 0.07779,49"/><rect style="fill:none;stroke:url(#linearGradient3202);stroke-width:.99999994;stroke-linecap:round;stroke-linejoin:round;stroke-miterlimit:4;stroke-opacity:1;stroke-dasharray:none;stroke-dashoffset:0" id="rect6741-7" width="101" height="101" x="13.5" y="16.502" rx="5" ry="5"/><path style="color:#000;fill:url(#linearGradient3278);fill-opacity:1;fill-rule:nonzero;stroke:none;stroke-width:.99999994;marker:none;visibility:visible;display:inline;overflow:visible;enable-background:accumulate" id="rect5505-21-3-8-5-2-6-1" d="M 18.118181,15.5 C 15.005709,15.5 12.5,18.073077 12.5,21.269231 l 0,19.230769 103,0 0,-19.230769 C 115.5,18.073077 112.99429,15.5 109.88181,15.5 z"/><path style="opacity:.4;color:#000;fill:none;stroke:#126400;stroke-width:.99999994;stroke-linecap:round;stroke-linejoin:miter;stroke-miterlimit:4;stroke-opacity:1;stroke-dasharray:none;stroke-dashoffset:0;marker:none;visibility:visible;display:inline;overflow:visible;enable-background:accumulate" id="rect5505-21-3-8-9-1-1-7-8" d="m 18.118181,15.500001 c -3.112472,0 -5.618181,2.573078 -5.618181,5.769232 l 0,19.230769 103,0 0,-19.230769 c 0,-3.196154 -2.50571,-5.769232 -5.61819,-5.769232 z"/><path style="opacity:.3;color:#000;fill:#fff;fill-opacity:1;fill-rule:nonzero;stroke:none;stroke-width:1.07444978;marker:none;visibility:visible;display:inline;overflow:visible;enable-background:accumulate" id="path4682-6" d="m 11.464567,11.472441 a 1.1023622,1.0472441 0 1 1 -2.2047246,0 1.1023622,1.0472441 0 1 1 2.2047246,0 z" transform="matrix(2.2678572,0,0,2.387218,3.9999998,1.6127831)"/><path style="opacity:.4;color:#000;fill:#126400;fill-opacity:1;fill-rule:nonzero;stroke:none;stroke-width:1.07444978;marker:none;visibility:visible;display:inline;overflow:visible;enable-background:accumulate" id="path4682-6-1" d="m 11.464567,11.472441 a 1.1023622,1.0472441 0 1 1 -2.2047246,0 1.1023622,1.0472441 0 1 1 2.2047246,0 z" transform="matrix(2.2678572,0,0,2.387218,3.9999998,0.61278301)"/><path style="opacity:.5;fill:none;stroke:url(#linearGradient4148);stroke-width:.99999994;stroke-linecap:round;stroke-linejoin:round;stroke-miterlimit:4;stroke-opacity:1;stroke-dasharray:none;stroke-dashoffset:0" id="rect6741-7-0" d="m 18.5,16.5 c -2.77,0 -5,2.23 -5,5 l 0,18 101,0 0,-18 c 0,-2.77 -2.23,-5 -5,-5 z"/><path style="opacity:.3;color:#000;fill:#fff;fill-opacity:1;fill-rule:nonzero;stroke:none;stroke-width:1.07444978;marker:none;visibility:visible;display:inline;overflow:visible;enable-background:accumulate" id="path4682-6-4" d="m 11.464567,11.472441 a 1.1023622,1.0472441 0 1 1 -2.2047246,0 1.1023622,1.0472441 0 1 1 2.2047246,0 z" transform="matrix(2.2678572,0,0,2.387218,77,1.6127829)"/><path style="opacity:.4;color:#000;fill:#126400;fill-opacity:1;fill-rule:nonzero;stroke:none;stroke-width:1.07444978;marker:none;visibility:visible;display:inline;overflow:visible;enable-background:accumulate" id="path4682-6-1-0" d="m 11.464567,11.472441 a 1.1023622,1.0472441 0 1 1 -2.2047246,0 1.1023622,1.0472441 0 1 1 2.2047246,0 z" transform="matrix(2.2678572,0,0,2.387218,77,0.61278291)"/><path style="opacity:.25;fill:none;stroke:#5e553c;stroke-width:.99999994;stroke-miterlimit:4;stroke-opacity:1;stroke-dasharray:none" id="rect4188-6-4-0-1" d="m 102.5,90.5 -76.999991,0 z m -0.0567,-35.923473 -76.943289,-0.05745 0,48.980923 76.999989,0 z M 102.5,79.5 25.500009,79.5 M 102.5,67.5 25.500009,67.5 M 40.552163,54.627642 40.447837,103.5 M 55.51002,54.840378 55.489979,103.5 M 70.48923,54.670188 70.51077,103.5 m 14.950335,-49 0.07779,49"/></svg>