<svg xmlns="http://www.w3.org/2000/svg" xmlns:svg="http://www.w3.org/2000/svg" id="svg7384" width="16" height="16" version="1.1"><metadata id="metadata90"/><title id="title9167">elementary Symbolic Icon Theme</title><g style="display:inline" id="layer12" transform="translate(-453.00035,52)"><path style="font-size:medium;font-style:normal;font-variant:normal;font-weight:400;font-stretch:normal;text-indent:0;text-align:start;text-decoration:none;line-height:normal;letter-spacing:normal;word-spacing:normal;text-transform:none;direction:ltr;block-progression:tb;writing-mode:lr-tb;text-anchor:start;baseline-shift:baseline;color:#000;fill:#bebebe;fill-opacity:1;stroke:none;stroke-width:1.97519779;marker:none;visibility:visible;display:inline;overflow:visible;enable-background:accumulate;font-family:Sans;-inkscape-font-specification:Sans" id="path4222" d="m 461.0004,-50.96875 c -3.86004,0 -7,3.15573 -7,7 0,3.84428 3.13996,6.96875 7,6.96875 3.86004,0 7,-3.12447 7,-6.96875 0,-3.84427 -3.13996,-7 -7,-7 z m 0,2 c 1.07321,0 2.06181,0.37031 2.875,0.9375 l -6.9375,6.9375 c -0.58423,-0.81026 -0.9375,-1.79114 -0.9375,-2.875 0,-2.7656 2.22305,-5 5,-5 z m 4.25,2.375 c 0.47818,0.76504 0.78125,1.65313 0.78125,2.625 0,2.76561 -2.25431,4.96875 -5.03125,4.96875 -0.95706,0 -1.83509,-0.29551 -2.59375,-0.75 l 6.84375,-6.84375 z"/></g></svg>