<svg xmlns="http://www.w3.org/2000/svg" xmlns:svg="http://www.w3.org/2000/svg" id="svg7384" width="16" height="16" version="1.1"><metadata id="metadata90"/><title id="title9167">elementary Symbolic Icon Theme</title><g style="display:inline" id="layer12" transform="translate(-373.00061,-168)"><path style="fill:#bebebe;stroke:none" id="rect12294-3" d="m 385.0002,177 0,2 -2,0 0,2 2,0 0,2 2,0 0,-2 2,0 0,-2 -2,0 0,-2 z"/><path style="font-size:medium;font-style:normal;font-variant:normal;font-weight:400;font-stretch:normal;text-indent:0;text-align:start;text-decoration:none;line-height:normal;letter-spacing:normal;word-spacing:normal;text-transform:none;direction:ltr;block-progression:tb;writing-mode:lr-tb;text-anchor:start;baseline-shift:baseline;color:#000;fill:#bebebe;fill-opacity:1;stroke:none;stroke-width:2;marker:none;visibility:visible;display:inline;overflow:visible;enable-background:new;font-family:Sans;-inkscape-font-specification:Sans" id="rect6099-9" d="m 375.0002,170 c -1,0 -1.00005,1 -1,1 l 0,10 c 5e-5,0.52358 0.47642,0.99995 1,1 l 7,0 0,-1 -7,0 0,-8 12,0 0,3 1,0 0,-5 c -5e-5,-0.52358 -0.47642,-0.99995 -1,-1 z"/></g></svg>