<svg xmlns="http://www.w3.org/2000/svg" xmlns:svg="http://www.w3.org/2000/svg" id="svg7384" width="16" height="16" version="1.1"><metadata id="metadata90"/><title id="title9167">elementary Symbolic Icon Theme</title><g style="display:inline" id="layer12" transform="translate(-493.00031,1.99673)"><path style="fill:#bebebe;fill-opacity:1;stroke:none;display:inline" id="path26815" d="m 505.0002,8.00327 0,1.99673 -2,0 0,1.99673 2,0 0,1.99673 2,0 0,-1.99673 2,0 0,-1.99673 -2,0 0,-1.99673 -2,0 z"/><path style="font-size:medium;font-style:normal;font-variant:normal;font-weight:400;font-stretch:normal;text-indent:0;text-align:start;text-decoration:none;line-height:normal;letter-spacing:normal;word-spacing:normal;text-transform:none;direction:ltr;block-progression:tb;writing-mode:lr-tb;text-anchor:start;baseline-shift:baseline;color:#000;fill:#bebebe;fill-opacity:1;stroke:none;stroke-width:1;marker:none;visibility:visible;display:inline;overflow:visible;enable-background:accumulate;font-family:Sans;-inkscape-font-specification:Sans" id="path26788" d="M 499.40625,2 A 0.50005,0.50005 0 0 0 499,2.5 l 0,2.5 -1.5,0 a 0.50005,0.50005 0 1 0 0,1 l 2,0 A 0.50005,0.50005 0 0 0 500,5.5 l 0,-3 A 0.50005,0.50005 0 0 0 499.40625,2 z"/><path style="font-size:xx-small;font-style:normal;font-variant:normal;font-weight:400;font-stretch:normal;text-indent:0;text-align:start;text-decoration:none;line-height:normal;letter-spacing:normal;word-spacing:normal;text-transform:none;direction:ltr;block-progression:tb;writing-mode:lr-tb;text-anchor:start;baseline-shift:baseline;color:#000;fill:#bebebe;fill-opacity:1;stroke:none;stroke-width:2.54545426;marker:none;visibility:visible;display:inline;overflow:visible;enable-background:accumulate;font-family:Sans;-inkscape-font-specification:Sans" id="path26792" d="m 499.50041,12.00327 c -3.57802,0 -6.5,-2.92199 -6.5,-6.5 0,-3.57801 2.92198,-6.5 6.5,-6.5 3.57798,0 6.5,2.92199 6.5,6.5 0,0.51565 -0.0727,1.01814 -0.1875,1.5 l -2.09375,0 c 0.1673,-0.47279 0.28124,-0.96704 0.28124,-1.5 0,-2.49712 -2.00288,-4.5 -4.49999,-4.5 -2.49714,0 -4.50001,2.00288 -4.50001,4.5 0,2.49713 2.00287,4.5 4.50001,4.5 0.9323,0 1.78949,-0.26937 2.5,-0.75 l 0,2.25 c -0.76791,0.32274 -1.61416,0.5 -2.5,0.5 z"/></g></svg>