<svg xmlns="http://www.w3.org/2000/svg" xmlns:svg="http://www.w3.org/2000/svg" id="svg7384" width="16" height="16" version="1.1"><metadata id="metadata90"/><title id="title9167">elementary Symbolic Icon Theme</title><g style="display:inline" id="layer12" transform="translate(-413.0004,-128)"><path style="text-indent:0;text-transform:none;block-progression:tb;color:#000;fill:#bebebe;stroke:none" id="path3869" d="m 420.487,128 c -4.1303,0 -7.4866,3.3563 -7.4866,7.4866 0,4.1303 3.3563,7.4866 7.4866,7.4866 4.1303,0 7.4866,-3.3563 7.4866,-7.4866 0,-4.1303 -3.3563,-7.4866 -7.4866,-7.4866 z m 0,1.9732 c 3.0494,0 5.5134,2.464 5.5134,5.5134 0,3.0494 -2.464,5.5134 -5.5134,5.5134 -3.0494,0 -5.5134,-2.464 -5.5134,-5.5134 0,-3.0494 2.464,-5.5134 5.5134,-5.5134 z"/><path style="text-indent:0;text-transform:none;block-progression:tb;color:#000;fill:#bebebe;stroke:none" id="path4639" d="m 423.393,131.99 a 0.50005,0.50005 0 0 0 -0.25,0.15625 l -2.656,2.65 -1.656,-1.65 a 0.50005,0.50005 0 1 0 -0.6875,0.6875 l 2,2 a 0.50005,0.50005 0 0 0 0.6875,0 l 3,-3 a 0.50005,0.50005 0 0 0 -0.438,-0.85 z"/></g></svg>