<svg xmlns="http://www.w3.org/2000/svg" xmlns:svg="http://www.w3.org/2000/svg" id="svg7384" width="16" height="16" version="1.1"><metadata id="metadata90"/><title id="title9167">elementary Symbolic Icon Theme</title><g style="display:inline" id="layer12" transform="translate(-353.0006,-108)"><path style="fill:#bebebe;fill-opacity:1;stroke:none;display:inline;enable-background:new" id="path44084" d="m 365.30126,110.00133 c -0.77129,0.0431 -1.33311,0.68465 -1.8161,1.22222 -0.46673,0.60189 -0.94251,1.25915 -1.07387,2.02556 -6.5e-4,0.22907 0.28412,0.34038 0.40842,0.51848 0.47078,0.42342 0.95555,1.06752 0.65625,1.72633 -0.42174,0.83704 -1.21802,1.39221 -1.83246,2.07888 -0.49766,0.49947 -1.13476,1.1788 -1.9118,0.89084 -0.57631,-0.21885 -0.91548,-0.75054 -1.36481,-1.1129 -0.62168,0.0481 -1.17016,0.43406 -1.69021,0.75268 -0.66645,0.4833 -1.35672,1.077 -1.59848,1.89323 -0.14214,0.64969 0.54025,0.99854 0.96225,1.34049 1.05421,0.76368 2.47037,0.86461 3.67521,0.42739 1.94049,-0.68924 3.50421,-2.12348 4.88129,-3.60911 1.17699,-1.33851 2.30086,-2.90797 2.45173,-4.7397 0.10335,-1.28818 -0.55312,-2.56534 -1.54569,-3.35675 l -0.0998,-0.0394 -0.1019,-0.0182 z"/></g></svg>