<svg xmlns="http://www.w3.org/2000/svg" xmlns:svg="http://www.w3.org/2000/svg" id="svg7384" width="16" height="16" version="1.1"><metadata id="metadata90"/><title id="title9167">elementary Symbolic Icon Theme</title><g style="display:inline" id="layer12" transform="translate(-273.0004,-208)"><path style="color:#bebebe;fill:#bebebe;fill-opacity:1;fill-rule:nonzero;stroke:none;stroke-width:1;marker:none;visibility:visible;display:inline;overflow:visible;enable-background:accumulate" id="path3039" d="m 277.88188,212.00829 c -0.22524,0 -0.45186,0.0776 -0.62371,0.24948 -0.34369,0.3437 -0.34369,0.90371 0,1.24741 l 2.49482,2.49482 -2.49482,2.49482 c -0.34369,0.3437 -0.34369,0.90371 0,1.24741 0.3437,0.34369 0.90371,0.34369 1.24741,0 l 2.49482,-2.49482 2.49482,2.49482 c 0.3437,0.34369 0.90371,0.34369 1.24741,0 0.34369,-0.3437 0.34369,-0.90371 0,-1.24741 L 282.24781,216 l 2.49482,-2.49482 c 0.34369,-0.3437 0.34369,-0.90371 0,-1.24741 -0.3437,-0.34369 -0.90371,-0.34369 -1.24741,0 l -2.49482,2.49482 -2.49482,-2.49482 c -0.17185,-0.17185 -0.39847,-0.24948 -0.6237,-0.24948 z"/></g></svg>