<svg xmlns="http://www.w3.org/2000/svg" xmlns:svg="http://www.w3.org/2000/svg" id="svg7384" width="16" height="16" version="1.1"><metadata id="metadata90"/><title id="title9167">elementary Symbolic Icon Theme</title><g style="display:inline" id="layer12" transform="translate(-273.0004,-28)"><path style="color:#bebebe;fill:#bebebe;fill-opacity:1;fill-rule:nonzero;stroke:none;stroke-width:2.81263018;marker:none;visibility:visible;display:inline;overflow:visible;enable-background:accumulate" id="path2504-1-8" d="m 281.88519,29.000001 c -3.70511,0 -6.75428,2.439951 -7.08756,5.999999 l -1.79723,0 2.65438,3.333333 L 278.30915,35 l -1.73271,0 c 0.32781,-2.595507 2.58321,-4.260869 5.30875,-4.260869 2.95078,0 5.34562,2.35687 5.34562,5.260869 0,2.904 -2.39484,5.26087 -5.34562,5.26087 -1.60094,0 -3.03846,-0.694972 -4.01843,-1.793479 l -1.29954,1.184783 c 1.30362,1.442402 3.20325,2.347825 5.31797,2.347826 3.9276,0 7.11521,-3.136 7.11521,-7 0,-3.864 -3.18762,-6.999999 -7.11521,-6.999999 z"/><path style="color:#bebebe;fill:#bebebe;fill-opacity:1;fill-rule:nonzero;stroke:none;stroke-width:2.81263018;marker:none;visibility:visible;display:inline;overflow:visible;enable-background:accumulate" id="path3288-4-3" d="m 282.33373,31.666667 -0.66667,0 -0.66666,4.666666 3.33333,2.666667 0,-0.666667 -2,-2.666666 0,-4 z"/></g></svg>