<svg xmlns="http://www.w3.org/2000/svg" xmlns:svg="http://www.w3.org/2000/svg" id="svg7384" width="16" height="16" version="1.1"><metadata id="metadata90"/><title id="title9167">elementary Symbolic Icon Theme</title><g style="display:inline" id="layer12" transform="translate(-433.0004,-28)"><path style="color:#bebebe;fill:#bebebe;fill-opacity:1;fill-rule:nonzero;stroke:none;stroke-width:1;marker:none;visibility:visible;display:inline;overflow:visible;enable-background:accumulate" id="path24365" d="m 435.0004,29 0,14 12,0 0,-14 z m 1,1 10,0 0,12 -10,0 z"/><path style="font-size:medium;font-style:normal;font-variant:normal;font-weight:400;font-stretch:normal;text-indent:0;text-align:start;text-decoration:none;line-height:normal;letter-spacing:normal;word-spacing:normal;text-transform:none;direction:ltr;block-progression:tb;writing-mode:lr-tb;text-anchor:start;baseline-shift:baseline;color:#000;fill:#bebebe;fill-opacity:1;fill-rule:nonzero;stroke:none;stroke-width:1;marker:none;visibility:visible;display:inline;overflow:visible;enable-background:accumulate;font-family:Sans;-inkscape-font-specification:Sans" id="path24369" d="m 440.40665,39.969293 c -0.2292,-0.04373 -0.41036,-0.2667 -0.40625,-0.5 l 0,-2.5 -1.5,0 c -0.36917,-0.01125 -0.60595,-0.524269 -0.375,-0.8125 l 2.5,-3 c 0.187,-0.211987 0.563,-0.211987 0.75,0 l 2.5,3 c 0.23095,0.288231 -0.006,0.80125 -0.375,0.8125 l -1.5,0 0,2.5 c -3e-5,0.261792 -0.23821,0.499974 -0.5,0.5 l -1,0 c -0.0312,0.0029 -0.0626,0.0029 -0.0937,0 z"/></g></svg>