<svg xmlns="http://www.w3.org/2000/svg" xmlns:svg="http://www.w3.org/2000/svg" id="svg7384" width="16" height="16" version="1.1"><metadata id="metadata90"/><title id="title9167">elementary Symbolic Icon Theme</title><g style="display:inline" id="layer12" transform="translate(-353.0004,-168)"><path style="color:#bebebe;fill:#bebebe;fill-opacity:1;fill-rule:nonzero;stroke:none;stroke-width:1;marker:none;visibility:visible;display:inline;overflow:visible;enable-background:accumulate" id="rect2990-8" d="m 355.5002,169 c -0.831,0 -1.5,0.669 -1.5,1.5 l 0,11 c 0,0.831 0.669,1.5 1.5,1.5 l 11,0 c 0.831,0 1.5,-0.669 1.5,-1.5 l 0,-3.5 -1,0 0,3 c 0,0.554 -0.446,1 -1,1 l -10,0 c -0.554,0 -1,-0.446 -1,-1 l 0,-10 c 0,-0.554 0.446,-1 1,-1 l 10,0 c 0.554,0 1,0.446 1,1 l 0,3 1,0 0,-3.5 c 0,-0.831 -0.669,-1.5 -1.5,-1.5 l -11,0 z m 8.5,3 -5,4 5,4 0,-3 4,0 0,-2 -4,0 0,-3 z"/></g></svg>