<svg xmlns="http://www.w3.org/2000/svg" xmlns:svg="http://www.w3.org/2000/svg" id="svg7384" width="16" height="16" version="1.1"><metadata id="metadata90"/><title id="title9167">elementary Symbolic Icon Theme</title><g style="display:inline" id="layer12" transform="translate(-435.00039,-168)"><path style="color:#bebebe;fill:#bebebe;fill-opacity:1;fill-rule:nonzero;stroke:none;stroke-width:1;marker:none;visibility:visible;display:inline;overflow:visible;enable-background:accumulate" id="path23536" d="m 440.00059,172 5,3.5 -5,3.5 0,-2 0,-0.0312 c -2.82477,-0.1089 -3.9667,2.8943 -1.53125,4.625 0.21034,0.1494 0.41983,0.30561 0.6875,0.4375 0,0 4.42166,1.89308 -0.5625,0.0625 -0.48612,-0.20985 -0.8851,-0.42215 -1.25,-0.6875 -3.55412,-2.58451 -1.70432,-7.44583 2.65625,-7.4063 l 0,-2 z"/><path style="color:#bebebe;fill:#bebebe;fill-opacity:1;fill-rule:nonzero;stroke:none;stroke-width:1;marker:none;visibility:visible;display:inline;overflow:visible;enable-background:accumulate" id="path23540" d="m 448.50059,169 c 0.831,0 1.5,0.669 1.5,1.5 l 0,11 c 0,0.831 -0.669,1.5 -1.5,1.5 l -7.50039,0 0,-1 7.00039,0 c 0.554,0 1,-0.446 1,-1 l 0,-10 c 0,-0.554 -0.446,-1 -1,-1 l -10,0 c -0.554,0 -1,0.446 -1,1 l 0,3 -1,0 0,-3.5 c 0,-0.831 0.669,-1.5 1.5,-1.5 z"/></g></svg>