<svg xmlns="http://www.w3.org/2000/svg" xmlns:svg="http://www.w3.org/2000/svg" id="svg7384" width="16" height="16" version="1.1"><metadata id="metadata90"/><title id="title9167">elementary Symbolic Icon Theme</title><g style="display:inline" id="layer12" transform="translate(-373.0006,12)"><path style="color:#bebebe;fill:#bebebe;fill-opacity:1;fill-rule:nonzero;stroke:none;stroke-width:1;marker:none;visibility:visible;display:inline;overflow:visible;enable-background:accumulate" id="path2986-0-7" d="m 379.25019,-11.00354 c -2.89949,0 -5.25,2.35051 -5.25,5.25 0,2.89949 2.35051,5.25 5.25,5.25 1.12797,0 2.17551,-0.36336 3.03125,-0.96875 l 4.21875,4.21875 c 0.34277,0.34277 0.90723,0.34277 1.25,0 0.34277,-0.34277 0.34277,-0.90723 0,-1.25 l -4.21875,-4.21875 c 0.60539,-0.85574 0.96875,-1.90328 0.96875,-3.03125 0,-2.89949 -2.35051,-5.25 -5.25,-5.25 z m 0,1.375 c 2.1401,0 3.875,1.7349 3.875,3.875 0,2.1401 -1.7349,3.875 -3.875,3.875 -2.1401,0 -3.875,-1.7349 -3.875,-3.875 0,-2.1401 1.7349,-3.875 3.875,-3.875 z"/></g></svg>