<svg xmlns="http://www.w3.org/2000/svg" xmlns:svg="http://www.w3.org/2000/svg" id="svg7384" width="16" height="16" version="1.1"><metadata id="metadata90"/><title id="title9167">elementary Symbolic Icon Theme</title><g style="display:inline" id="layer12" transform="translate(-513.0004,12)"><path style="color:#bebebe;fill:#bebebe;fill-opacity:1;fill-rule:nonzero;stroke:none;stroke-width:1;marker:none;visibility:visible;display:inline;overflow:visible;enable-background:accumulate" id="path4387-5" d="m 515.93316,-10.99926 c -0.50766,0.0395 -0.94152,0.51729 -0.93263,1.02692 l 0,12.94533 c -0.008,0.5398 0.48663,1.03477 1.02589,1.02691 l 9.948,0 c 0.53926,0.008 1.03373,-0.48711 1.02589,-1.02691 l 0,-9.95795 c -0.004,-0.26704 -0.1184,-0.53079 -0.31088,-0.71573 l -2.9844,-2.98738 c -0.18475,-0.19267 -0.44824,-0.30734 -0.71501,-0.31119 l -6.9636,0 c -0.0311,-9.9e-4 -0.0622,-9.9e-4 -0.0933,0 z m 1.08806,2.05393 5.9688,0 0,1.99159 -5.9688,0 z m 0,3.98318 7.9584,0 0,1.99159 -7.9584,0 z m 0,3.98317 7.9584,0 0,1.99159 -7.9584,0 z"/></g></svg>