<svg xmlns="http://www.w3.org/2000/svg" xmlns:svg="http://www.w3.org/2000/svg" id="svg7384" width="16" height="16" version="1.1"><metadata id="metadata90"/><title id="title9167">elementary Symbolic Icon Theme</title><g style="display:inline" id="layer12" transform="translate(-453.0006,-48)"><path style="font-size:medium;font-style:normal;font-variant:normal;font-weight:400;font-stretch:normal;text-indent:0;text-align:start;text-decoration:none;line-height:normal;letter-spacing:normal;word-spacing:normal;text-transform:none;direction:ltr;block-progression:tb;writing-mode:lr-tb;text-anchor:start;baseline-shift:baseline;color:#000;fill:#bebebe;fill-opacity:1;stroke:none;stroke-width:2;marker:none;visibility:visible;display:inline;overflow:visible;enable-background:accumulate;font-family:Sans;-inkscape-font-specification:Sans" id="path11643-3-5" d="m 457.5,51 0,2 6,0 c 0.42816,0 0.59383,0.267329 0.46875,0.71875 L 463.625,55 l -5.25,0 c -1.83854,0 -3.12514,1.352373 -3.5,2.75 -0.18743,0.698813 -0.16219,1.478825 0.25,2.15625 C 455.53719,60.583675 456.37297,61 457.28125,61 l 6,0 0.75,0 0.21875,-0.71875 1.65625,-6 C 466.34093,52.712471 465.1802,51 463.5,51 l -6,0 z m 0.875,6 4.6875,0 -0.5625,2 -5.21875,0 c -0.39787,0 -0.42459,-0.08367 -0.46875,-0.15625 -0.0442,-0.07258 -0.0808,-0.292563 0,-0.59375 0.16157,-0.602373 0.71778,-1.25 1.5625,-1.25 z"/></g></svg>