<svg xmlns="http://www.w3.org/2000/svg" xmlns:svg="http://www.w3.org/2000/svg" id="svg7384" width="16" height="16" version="1.1"><metadata id="metadata90"/><title id="title9167">elementary Symbolic Icon Theme</title><g style="display:inline" id="layer12" transform="translate(-413.0006,-48)"><path style="font-size:medium;font-style:normal;font-variant:normal;font-weight:400;font-stretch:normal;text-indent:0;text-align:start;text-decoration:none;line-height:normal;letter-spacing:normal;word-spacing:normal;text-transform:none;direction:ltr;block-progression:tb;writing-mode:lr-tb;text-anchor:start;baseline-shift:baseline;color:#000;fill:#bebebe;fill-opacity:1;stroke:none;stroke-width:2;marker:none;visibility:visible;display:inline;overflow:visible;enable-background:accumulate;font-family:Sans;-inkscape-font-specification:Sans" id="path11643-3-2" d="m 417,50 0,2 6,0 c 0.42816,0 1,0.614142 1,1 l 0,1 -5,0 c -0.91927,0 -1.7356,0.383964 -2.25,0.96875 -0.5144,0.584786 -0.75639,1.310628 -0.75,2.03125 0.006,0.720622 0.26893,1.452713 0.78125,2.03125 C 417.29357,59.609787 418.09172,60 419,60 l 6,0 1,0 0,-1 0,-6 c 0,-1.634342 -1.3198,-3 -3,-3 l -6,0 z m 2,6 5,0 0,2 -5,0 c -0.39787,0 -0.56691,-0.109787 -0.71875,-0.28125 C 418.12941,57.547287 418.00248,57.279378 418,57 c -0.002,-0.279378 0.10467,-0.553536 0.25,-0.71875 C 418.39533,56.116036 418.57764,56 419,56 z"/><path style="font-size:medium;font-style:normal;font-variant:normal;font-weight:400;font-stretch:normal;text-indent:0;text-align:start;text-decoration:none;line-height:normal;letter-spacing:normal;word-spacing:normal;text-transform:none;direction:ltr;block-progression:tb;writing-mode:lr-tb;text-anchor:start;baseline-shift:baseline;color:#000;fill:#bebebe;fill-opacity:1;stroke:none;stroke-width:2;marker:none;visibility:visible;display:inline;overflow:visible;enable-background:accumulate;font-family:Sans;-inkscape-font-specification:Sans" id="path5100" d="m 415,61 0,2 12,0 0,-2 -12,0 z"/></g></svg>