<svg xmlns="http://www.w3.org/2000/svg" xmlns:svg="http://www.w3.org/2000/svg" id="svg7384" width="16" height="16" version="1.1"><metadata id="metadata90"/><title id="title9167">elementary Symbolic Icon Theme</title><g style="display:inline" id="layer12" transform="translate(-415.0004,-148)"><path style="color:#bebebe;fill:#bebebe;stroke:none" id="rect31984-0" d="m 418.0004,148 0,2 2,0 0,-2 -2,0 z m -3,3 0,2 11,0 0,11 2,0 0,-11 0,-2 -2,0 -11,0 z m 3,3 0,5 0,2 2,0 5,0 0,-2 -5,0 0,-5 -2,0 z m 11,5 0,2 2,0 0,-2 -2,0 z"/></g></svg>