<svg xmlns="http://www.w3.org/2000/svg" xmlns:svg="http://www.w3.org/2000/svg" id="svg7384" width="16" height="16" version="1.1"><metadata id="metadata90"/><title id="title9167">elementary Symbolic Icon Theme</title><g style="display:inline" id="layer12" transform="translate(-393.00035,-28)"><path style="color:#000;fill:#bebebe;fill-opacity:1;fill-rule:nonzero;stroke:none;stroke-width:1;marker:none;visibility:visible;display:inline;overflow:visible;enable-background:new" id="path45579" d="m 401.0004,28 c -2.76142,0 -5,2.23858 -5,5 0,0.34518 0.0272,0.67451 0.0937,1 0.37506,2.83961 3.93256,4.92586 4.9375,8.96875 0.98541,-3.98539 4.99777,-6.918 5,-9.96875 l -0.0312,0 c 0,-2.76142 -2.23858,-5 -5,-5 z m 0,2 c 1.65686,0 3,1.34314 3,3 0,1.65686 -1.34314,3 -3,3 -1.65686,0 -3,-1.34314 -3,-3 0,-1.65686 1.34314,-3 3,-3 z"/></g></svg>