<svg xmlns="http://www.w3.org/2000/svg" xmlns:svg="http://www.w3.org/2000/svg" id="svg7384" width="16" height="16" version="1.1"><metadata id="metadata90"/><title id="title9167">elementary Symbolic Icon Theme</title><g style="display:inline" id="layer12" transform="translate(-493.0004,32)"><path style="color:#bebebe;fill:#bebebe;fill-opacity:1;fill-rule:nonzero;stroke:none;stroke-width:1;marker:none;visibility:visible;display:inline;overflow:visible;enable-background:accumulate" id="path30422" d="m 497.88188,-27.991707 c -0.22524,0 -0.45186,0.07763 -0.62371,0.249481 -0.34369,0.343699 -0.34369,0.90371 0,1.247409 L 499.75299,-24 l -2.49482,2.494817 c -0.34369,0.3437 -0.34369,0.903709 0,1.247409 0.3437,0.343698 0.90371,0.343698 1.24741,0 l 2.49482,-2.494817 2.49482,2.494817 c 0.3437,0.343698 0.90371,0.343698 1.24741,0 0.34369,-0.3437 0.34369,-0.903709 0,-1.247409 L 502.24781,-24 l 2.49482,-2.494817 c 0.34369,-0.343699 0.34369,-0.90371 0,-1.247409 -0.3437,-0.343699 -0.90371,-0.343699 -1.24741,0 l -2.49482,2.494817 -2.49482,-2.494817 c -0.17185,-0.171849 -0.39847,-0.249481 -0.6237,-0.249481 z"/></g></svg>