<svg xmlns="http://www.w3.org/2000/svg" xmlns:svg="http://www.w3.org/2000/svg" id="svg7384" width="16" height="16" version="1.1"><metadata id="metadata90"/><title id="title9167">elementary Symbolic Icon Theme</title><g style="display:inline" id="layer12" transform="translate(-593.0004,-48)"><path style="color:#bebebe;fill:#bebebe;fill-opacity:1;fill-rule:nonzero;stroke:none;stroke-width:1;marker:none;visibility:visible;display:inline;overflow:visible;enable-background:accumulate" id="path28064" d="m 601.0002,48.5 -2,5.5 -5.5,0 4.25,3.5 -2,5.75 5.25,-2.5 1,0.46875 0,-1.21875 0,-1 1,0 1,0 0,-1 0,-1 0.84375,0 3.65625,-3 -5.5,0 -2,-5.5 z"/><path style="fill:#bebebe;fill-opacity:1;stroke:none" id="rect28070" d="m 605.0002,58 0,2 -2,0 0,2 2,0 0,2 2,0 0,-2 2,0 0,-2 -2,0 0,-2 -2,0 z"/></g></svg>