<svg xmlns="http://www.w3.org/2000/svg" xmlns:svg="http://www.w3.org/2000/svg" id="svg7384" width="16" height="16" version="1.1"><metadata id="metadata90"/><title id="title9167">elementary Symbolic Icon Theme</title><g style="display:inline" id="layer12" transform="translate(-353.00061,-88)"><path style="color:#bebebe;fill:#bebebe;fill-opacity:1;fill-rule:nonzero;stroke:none;stroke-width:1;marker:none;visibility:visible;display:inline;overflow:visible;enable-background:accumulate" id="path25740" d="m 359.00102,97 0,4 -4,0 0,-4 4,0 z m -1,1 -2,0 0,2 2,0 0,-2 z m 1,-7 0,4 -4,0 0,-4 4,0 z m -1,1 -2,0 0,2 2,0 0,-2 z m 6,5 0,1 4,0 0,-1 z m 0,3 0,1 4,0 0,-1 z m 0,-6 0,1 4,0 0,-1 z m 0,-3 0,1 4,0 0,-1 z m -2,-1 -1,0 0,12 1,0 z"/></g></svg>