<svg xmlns="http://www.w3.org/2000/svg" xmlns:svg="http://www.w3.org/2000/svg" id="svg7384" width="16" height="16" version="1.1"><metadata id="metadata90"/><title id="title9167">elementary Symbolic Icon Theme</title><g style="display:inline" id="layer12" transform="translate(-293.0004,12)"><path style="color:#bebebe;fill:#bebebe;fill-opacity:1;fill-rule:nonzero;stroke:none;stroke-width:1;marker:none;visibility:visible;display:inline;overflow:visible;enable-background:accumulate" id="path25384" d="m 307.0004,-4 -2.25,-2.223214 1.71429,-1.714286 c 0.0129,-0.01287 0.0147,-0.01344 0.0268,-0.02679 0.38059,-0.420576 0.37876,-1.067669 -0.0268,-1.473214 -0.40535,-0.405343 -1.05263,-0.433584 -1.47322,-0.05357 l -0.21428,0.214288 -1.55358,1.526786 -2.22321,-2.25 0,6 z"/><path style="color:#bebebe;fill:#bebebe;fill-opacity:1;fill-rule:nonzero;stroke:none;stroke-width:1;marker:none;visibility:visible;display:inline;overflow:visible;enable-background:accumulate" id="path25386" d="m 301.0004,2 0,-6 -6,0 2.25,2.25 -1.71429,1.714286 c -0.0129,0.01287 -0.0147,0.01344 -0.0268,0.02679 -0.38058,0.420572 -0.37875,1.067665 0.0268,1.47321 0.40535,0.405343 1.07941,0.433581 1.5,0.05357 l 0.1875,-0.214285 1.55358,-1.553571 z"/></g></svg>