<svg xmlns="http://www.w3.org/2000/svg" xmlns:svg="http://www.w3.org/2000/svg" id="svg7384" width="16" height="16" version="1.1"><metadata id="metadata90"/><title id="title9167">elementary Symbolic Icon Theme</title><g style="display:inline" id="layer12" transform="translate(-453.0002,-108.00012)"><path style="font-size:medium;font-style:normal;font-variant:normal;font-weight:400;font-stretch:normal;text-indent:0;text-align:start;text-decoration:none;line-height:normal;letter-spacing:normal;word-spacing:normal;text-transform:none;direction:ltr;block-progression:tb;writing-mode:lr-tb;text-anchor:start;baseline-shift:baseline;color:#bebebe;fill:#bebebe;fill-opacity:1;stroke:none;stroke-width:2;marker:none;visibility:visible;display:inline;overflow:visible;enable-background:accumulate;font-family:Sans;-inkscape-font-specification:Sans" id="path30431" d="m 453.0002,109 0,1 0,11 0,1 1,0 5,0 c 0.1754,0 0.52538,0.15166 0.8125,0.34375 0.28712,0.19209 0.46875,0.375 0.46875,0.375 l 0.71875,0.71875 0.71875,-0.75 c 0,0 0.8963,-0.6875 1.28125,-0.6875 l 5,0 1,0 0,-1 0,-11 0,-1 -1,0 -5,0 c -0.87652,0 -1.56017,0.34756 -2.03125,0.6875 -0.0301,-0.0207 -0.031,-0.0105 -0.0625,-0.0312 C 460.44577,109.35249 459.82831,109 459.0002,109 l -5,0 -1,0 z m 1,1 5,0 c 0.96632,0 2,1 2,1 0,0 0.97077,-1 2,-1 l 5,0 0,11 -5,0 c -1.03135,0 -2,1 -2,1 0,0 -0.98948,-1 -2,-1 l -5,0 0,-11 z"/><path style="opacity:.35;fill:#bebebe;fill-opacity:1;stroke:none" id="rect30443" d="m 455.0002,112 0,1 4,0 0,-1 z m 0,2 0,1 4,0 0,-1 z m 0,2 0,1 4,0 0,-1 z m 0,2 0,1 4,0 0,-1 z"/><path style="opacity:.35;fill:#bebebe;fill-opacity:1;stroke:none" id="path30455" d="m 463.0002,112 0,1 4,0 0,-1 z m 0,2 0,1 4,0 0,-1 z m 0,2 0,1 4,0 0,-1 z"/></g></svg>