<svg xmlns="http://www.w3.org/2000/svg" xmlns:svg="http://www.w3.org/2000/svg" id="svg7384" width="16" height="16" version="1.1"><metadata id="metadata90"/><title id="title9167">elementary Symbolic Icon Theme</title><g style="display:inline" id="layer12" transform="translate(-353.00039,-188)"><path style="color:#bebebe;fill:#bebebe;fill-opacity:1;fill-rule:nonzero;stroke:none;stroke-width:1;marker:none;visibility:visible;display:inline;overflow:visible;enable-background:accumulate" id="path25178" d="m 355.00039,196 2.25,-2.22321 -1.71429,-1.71429 c -0.0129,-0.0129 -0.0147,-0.0134 -0.0268,-0.0268 -0.38059,-0.42058 -0.37876,-1.06767 0.0268,-1.47321 0.40535,-0.40535 1.05263,-0.43359 1.47322,-0.0536 l 0.21428,0.21428 1.55358,1.52679 2.22321,-2.25 0,6 z"/><path style="color:#bebebe;fill:#bebebe;fill-opacity:1;fill-rule:nonzero;stroke:none;stroke-width:1;marker:none;visibility:visible;display:inline;overflow:visible;enable-background:accumulate" id="path25180" d="m 361.00039,202 0,-6 6,0 -2.25,2.25 1.71429,1.71429 c 0.0129,0.0129 0.0147,0.0134 0.0268,0.0268 0.38058,0.42057 0.37875,1.06766 -0.0268,1.47321 -0.40535,0.40534 -1.07941,0.43358 -1.5,0.0536 l -0.1875,-0.21429 -1.55358,-1.55357 z"/></g></svg>