<svg xmlns="http://www.w3.org/2000/svg" xmlns:svg="http://www.w3.org/2000/svg" id="svg7384" width="15.982" height="16" version="1.1"><metadata id="metadata90"/><title id="title9167">elementary Symbolic Icon Theme</title><g style="display:inline" id="layer12" transform="translate(-393.0004,-8)"><path style="color:#bebebe;fill:#bebebe;fill-opacity:1;stroke:none;stroke-width:2;marker:none;visibility:visible;display:inline;overflow:visible" id="rect11749-5-0-1" d="m 396.1879,10 c -0.6627,0 -1.1875,0.54899 -1.1875,1.21875 l 0,9.5625 c 0,0.66976 0.5248,1.21875 1.1875,1.21875 l 9.625,0 c 0.6627,0 1.1875,-0.54899 1.1875,-1.21875 l 0,-9.5625 C 407.0004,10.54899 406.4756,10 405.8129,10 z m 0.8125,2 3,0 0,2 -1,0 0,1 -2,0 z m 5,0 3,0 0,3 -2,0 0,-1 -1,0 z m -5,5 2,0 0,1 1,0 0,2 -3,0 z m 6,0 2,0 0,3 -3,0 0,-2 1,0 z"/></g></svg>