<svg xmlns="http://www.w3.org/2000/svg" xmlns:svg="http://www.w3.org/2000/svg" xmlns:xlink="http://www.w3.org/1999/xlink" id="svg4876" width="16" height="16" version="1.0"><defs id="defs4878"><linearGradient id="linearGradient7442"><stop style="stop-color:#fff;stop-opacity:1" id="stop7444" offset="0"/><stop style="stop-color:#fff;stop-opacity:0" id="stop7446" offset="1"/></linearGradient><linearGradient id="linearGradient7430"><stop style="stop-color:#d3d7cf;stop-opacity:1" id="stop7432" offset="0"/><stop style="stop-color:#fafbfa;stop-opacity:1" id="stop7434" offset="1"/></linearGradient><linearGradient id="linearGradient4989" x1="12.198" x2="15.699" y1="401.096" y2="404.598" gradientTransform="matrix(0.933332,0,0,0.933329,-21.09995,49.83527)" gradientUnits="userSpaceOnUse" xlink:href="#linearGradient7430"/><linearGradient id="linearGradient4991" x1="12.816" x2="12.816" y1="400.389" y2="406.511" gradientTransform="matrix(0.699998,0,0,0.699999,-17.94997,143.7502)" gradientUnits="userSpaceOnUse" xlink:href="#linearGradient7442"/><linearGradient id="linearGradient1938" x1="12.198" x2="15.699" y1="401.096" y2="404.598" gradientTransform="matrix(0.933332,0,0,0.933329,-21.09995,49.83527)" gradientUnits="userSpaceOnUse" xlink:href="#linearGradient7430"/><linearGradient id="linearGradient1940" x1="12.816" x2="12.816" y1="400.389" y2="406.511" gradientTransform="matrix(0.699998,0,0,0.699999,-17.94997,143.7502)" gradientUnits="userSpaceOnUse" xlink:href="#linearGradient7442"/><linearGradient id="linearGradient2862" x1="12.198" x2="15.699" y1="401.096" y2="404.598" gradientTransform="matrix(0.777775,0,0,0.777775,-19.58328,111.8623)" gradientUnits="userSpaceOnUse" xlink:href="#linearGradient7430"/><linearGradient id="linearGradient2864" x1="12.816" x2="12.816" y1="400.389" y2="406.511" gradientTransform="matrix(0.583327,0,0,0.583397,-16.95824,190.0994)" gradientUnits="userSpaceOnUse" xlink:href="#linearGradient7442"/></defs><metadata id="metadata4881"/><g id="layer1"><g style="opacity:.5" id="g2866"><rect style="fill:#d3d7cf;fill-opacity:1;stroke:#555753;stroke-width:.99999988;stroke-linecap:round;stroke-linejoin:round;stroke-miterlimit:4;stroke-opacity:1;stroke-dasharray:none;stroke-dashoffset:0" id="rect2834" width="19" height="2" x="-1.5" y="2.5"/><g id="g17524" transform="matrix(0.857143,0,0,0.857143,15.2857,-360.7143)"><path style="fill:url(#linearGradient2862);fill-opacity:1;stroke:#888a85;stroke-width:1.16666722;stroke-linecap:round;stroke-linejoin:round;stroke-miterlimit:4;stroke-opacity:1" id="path17526" d="m -11.416653,422.58351 4.6666437,0 0,4.66665 -4.6666437,0 0,-4.66665 z"/><path style="fill:none;stroke:url(#linearGradient2864);stroke-width:1.16666698;stroke-linecap:round;stroke-linejoin:miter;stroke-miterlimit:4;stroke-opacity:1" id="path17528" d="m -10.249984,423.75 2.3333077,0 0,2.3335 -2.3333077,0 0,-2.3335 z"/></g></g><rect style="fill:#d3d7cf;fill-opacity:1;stroke:#555753;stroke-width:.99999982;stroke-linecap:round;stroke-linejoin:round;stroke-miterlimit:4;stroke-opacity:1;stroke-dasharray:none;stroke-dashoffset:0" id="rect5932" width="5" height="2" x="-1.5" y="11.5"/><g id="g17538" transform="matrix(0.714287,0,0,0.714285,10.57143,-291.4282)"><path style="fill:url(#linearGradient4989);fill-opacity:1;stroke:#888a85;stroke-width:1.39999926;stroke-linecap:round;stroke-linejoin:round;stroke-miterlimit:4;stroke-opacity:1" id="path17540" d="m -11.299976,422.69982 5.5999843,0 0,5.59997 -5.5999843,0 0,-5.59997 z"/><path style="fill:none;stroke:url(#linearGradient4991);stroke-width:1.39999926;stroke-linecap:round;stroke-linejoin:miter;stroke-miterlimit:4;stroke-opacity:1" id="path17542" d="m -9.8999854,424.09971 2.7999967,0 0,2.79989 -2.7999967,0 0,-2.79989 z"/></g><rect style="fill:#d3d7cf;fill-opacity:1;stroke:#555753;stroke-width:.99999982;stroke-linecap:round;stroke-linejoin:round;stroke-miterlimit:4;stroke-opacity:1;stroke-dasharray:none;stroke-dashoffset:0" id="rect5964" width="5" height="2" x="-17.5" y="11.5" transform="scale(-1,1)"/><g id="g1932" transform="matrix(0.714287,0,0,0.714285,17.57143,-291.4282)"><path style="fill:url(#linearGradient1938);fill-opacity:1;stroke:#888a85;stroke-width:1.39999926;stroke-linecap:round;stroke-linejoin:round;stroke-miterlimit:4;stroke-opacity:1" id="path1934" d="m -11.299976,422.69982 5.5999843,0 0,5.59997 -5.5999843,0 0,-5.59997 z"/><path style="fill:none;stroke:url(#linearGradient1940);stroke-width:1.39999926;stroke-linecap:round;stroke-linejoin:miter;stroke-miterlimit:4;stroke-opacity:1" id="path1936" d="m -9.8999854,424.09971 2.7999967,0 0,2.79989 -2.7999967,0 0,-2.79989 z"/></g></g></svg>