<svg xmlns="http://www.w3.org/2000/svg" xmlns:svg="http://www.w3.org/2000/svg" xmlns:xlink="http://www.w3.org/1999/xlink" id="svg8472" width="16" height="16" version="1.0"><defs id="defs8474"><linearGradient id="linearGradient7653"><stop style="stop-color:#babdb6;stop-opacity:1" id="stop7655" offset="0"/><stop style="stop-color:#eeeeec;stop-opacity:0" id="stop7657" offset="1"/></linearGradient><linearGradient id="linearGradient7669"><stop style="stop-color:#555753;stop-opacity:1" id="stop7671" offset="0"/><stop style="stop-color:#555753;stop-opacity:0" id="stop7673" offset="1"/></linearGradient><linearGradient id="linearGradient10014" x1="336.386" x2="336.386" y1="426.564" y2="424.161" gradientTransform="matrix(0.6619286,0,0,0.5541422,-220.7756,-231.45665)" gradientUnits="userSpaceOnUse" xlink:href="#linearGradient7653"/><linearGradient id="linearGradient10017" x1="336.386" x2="336.386" y1="427.767" y2="424.161" gradientTransform="matrix(0.6626178,0,0,0.5383127,-221.02566,-224.64401)" gradientUnits="userSpaceOnUse" xlink:href="#linearGradient7669"/></defs><metadata id="metadata8477"/><g id="layer1"><path style="fill:none;stroke:url(#linearGradient10017);stroke-width:2.99999952;stroke-linecap:square;stroke-linejoin:miter;stroke-miterlimit:4;stroke-opacity:1;stroke-dasharray:none;stroke-dashoffset:0" id="path7726" d="M 13.375382,3.5 C 14.110469,7.331631 11.522115,10.565002 7.494647,10.565002 3.421506,10.565002 0.924766,7.377961 1.613912,3.5"/><path style="fill:none;stroke:url(#linearGradient10014);stroke-width:.99999994;stroke-linecap:square;stroke-linejoin:miter;stroke-miterlimit:4;stroke-opacity:1;stroke-dashoffset:0" id="path7728" d="m 13.381626,3.396124 c 0.711376,3.985287 -1.851338,7.272754 -5.87462,7.272754 -4.068908,0 -6.63189,-3.239775 -5.874613,-7.272754"/><g style="stroke:#204a87" id="g7630" transform="translate(-333.99999,-423)"><path style="fill:#729fcf;fill-rule:evenodd;stroke:#3465a4;stroke-width:3;stroke-linecap:butt;stroke-linejoin:miter;stroke-miterlimit:4;stroke-opacity:1;stroke-dasharray:none" id="path7621" d="m 338.5,433.5 6,0"/><path style="fill:none;stroke:#3465a4;stroke-width:3.1149838;stroke-linecap:square;stroke-linejoin:round;stroke-miterlimit:4;stroke-opacity:1;stroke-dasharray:none;stroke-dashoffset:0" id="path7623" d="m 352.53691,433.53482 a 1.016466,1.0606601 0 1 1 -2.03293,0 1.016466,1.0606601 0 1 1 2.03293,0 z" transform="matrix(0.9838007,0,0,0.9428091,0.673922,24.759433)"/><path style="fill:none;stroke:#3465a4;stroke-width:3.1149838;stroke-linecap:square;stroke-linejoin:round;stroke-miterlimit:4;stroke-opacity:1;stroke-dasharray:none;stroke-dashoffset:0" id="path7625" d="m 352.53691,433.53482 a 1.016466,1.0606601 0 1 1 -2.03293,0 1.016466,1.0606601 0 1 1 2.03293,0 z" transform="matrix(0.9838007,0,0,0.9428091,-9.326078,24.759433)"/></g><g style="stroke:#e5edf7;stroke-opacity:1" id="g7611" transform="translate(-333.99999,-423)"><path style="fill:#729fcf;fill-rule:evenodd;stroke:#e5edf7;stroke-width:1px;stroke-linecap:butt;stroke-linejoin:miter;stroke-opacity:1" id="path6634" d="m 337.5,433.5 8,0"/><path style="fill:none;stroke:#e5edf7;stroke-width:1.03832793;stroke-linecap:square;stroke-linejoin:round;stroke-miterlimit:4;stroke-opacity:1;stroke-dasharray:none;stroke-dashoffset:0" id="path6636" d="m 352.53691,433.53482 a 1.016466,1.0606601 0 1 1 -2.03293,0 1.016466,1.0606601 0 1 1 2.03293,0 z" transform="matrix(0.9838007,0,0,0.9428091,0.673922,24.759433)"/><path style="fill:none;stroke:#e5edf7;stroke-width:1.03832793;stroke-linecap:square;stroke-linejoin:round;stroke-miterlimit:4;stroke-opacity:1;stroke-dasharray:none;stroke-dashoffset:0" id="path6640" d="m 352.53691,433.53482 a 1.016466,1.0606601 0 1 1 -2.03293,0 1.016466,1.0606601 0 1 1 2.03293,0 z" transform="matrix(0.9838007,0,0,0.9428091,-9.326078,24.759433)"/></g><g id="g10019"><path style="fill:#d3d7cf;fill-opacity:1;stroke:#888a85;stroke-width:1.00000024;stroke-linecap:round;stroke-linejoin:round;stroke-miterlimit:4;stroke-opacity:1" id="path7747" d="m 5.500005,8.578001 4,0 0,3.99994 -4,0 0,-3.99994 z"/><path style="fill:none;stroke:#fff;stroke-width:1.00000048;stroke-linecap:round;stroke-linejoin:miter;stroke-miterlimit:4;stroke-opacity:1" id="path7749" d="m 6.500005,9.578011 2,0 0,2.00008 -2,0 0,-2.00008 z"/></g></g></svg>