<svg xmlns="http://www.w3.org/2000/svg" xmlns:svg="http://www.w3.org/2000/svg" id="svg8472" width="16" height="16" version="1.1"><metadata id="metadata8477"/><g id="layer1"><path style="fill:none;stroke:#204a87;stroke-width:4.3665204;stroke-linecap:square;stroke-linejoin:miter;stroke-miterlimit:4;stroke-opacity:1;stroke-dasharray:none;stroke-dashoffset:0" id="path6811" d="m 392.6875,430.53125 a 8.125,8.03125 0 1 1 -16.25,0 8.125,8.03125 0 1 1 16.25,0 z" transform="matrix(0.6816567,0,0,0.6924777,-254.17807,-290.07183)"/><path style="fill:none;stroke:#91b6dd;stroke-width:1.74672115;stroke-linecap:square;stroke-linejoin:miter;stroke-miterlimit:4;stroke-opacity:1;stroke-dasharray:none;stroke-dashoffset:0" id="path6813" d="m 392.6875,430.53125 a 8.125,8.03125 0 1 1 -16.25,0 8.125,8.03125 0 1 1 16.25,0 z" transform="matrix(0.6816565,0,0,0.6923884,-254.17796,-290.03394)"/><g id="g6773" transform="translate(-384,-423.99995)"><path style="fill:#babdb6;fill-opacity:1;stroke:#888a85;stroke-width:1.00000024;stroke-linecap:round;stroke-linejoin:round;stroke-miterlimit:4;stroke-opacity:1" id="path6769" d="m 389.5,435.50001 4,0 0,3.99994 -4,0 0,-3.99994 z"/><path style="fill:none;stroke:#fff;stroke-width:1.00000048;stroke-linecap:round;stroke-linejoin:miter;stroke-miterlimit:4;stroke-opacity:1" id="path6771" d="m 390.5,436.50002 2,0 0,2.00008 -2,0 0,-2.00008 z"/></g><g id="g6777" transform="translate(-383,-434.99995)"><path style="fill:#babdb6;fill-opacity:1;stroke:#888a85;stroke-width:1.00000024;stroke-linecap:round;stroke-linejoin:round;stroke-miterlimit:4;stroke-opacity:1" id="path6779" d="m 389.5,435.50001 4,0 0,3.99994 -4,0 0,-3.99994 z"/><path style="fill:none;stroke:#fff;stroke-width:1.00000048;stroke-linecap:round;stroke-linejoin:miter;stroke-miterlimit:4;stroke-opacity:1" id="path6781" d="m 390.5,436.50002 2,0 0,2.00008 -2,0 0,-2.00008 z"/></g><g id="g6789" transform="matrix(0,1,-1,0,439.99995,-383.99997)"><path style="fill:#babdb6;fill-opacity:1;stroke:#888a85;stroke-width:1.00000024;stroke-linecap:round;stroke-linejoin:round;stroke-miterlimit:4;stroke-opacity:1" id="path6792" d="m 389.5,435.50001 4,0 0,3.99994 -4,0 0,-3.99994 z"/><path style="fill:none;stroke:#fff;stroke-width:1.00000048;stroke-linecap:round;stroke-linejoin:miter;stroke-miterlimit:4;stroke-opacity:1" id="path6794" d="m 390.5,436.50002 2,0 0,2.00008 -2,0 0,-2.00008 z"/></g><g id="g9548" transform="translate(-5,0)"><path style="fill:#babdb6;fill-opacity:1;stroke:#888a85;stroke-width:1.00000024;stroke-linecap:round;stroke-linejoin:round;stroke-miterlimit:4;stroke-opacity:1" id="path6798" d="m 20.49994,6.50003 0,4 -3.99994,0 0,-4 3.99994,0 z"/><path style="fill:none;stroke:#fff;stroke-width:1.00000048;stroke-linecap:round;stroke-linejoin:miter;stroke-miterlimit:4;stroke-opacity:1" id="path6800" d="m 19.49993,7.50003 0,2 -2.00008,0 0,-2 2.00008,0 z"/></g></g></svg>