<svg xmlns="http://www.w3.org/2000/svg" xmlns:svg="http://www.w3.org/2000/svg" id="svg7404" width="16" height="16" version="1.1"><metadata id="metadata7409"/><g id="layer1"><g id="selection_ungroup" transform="translate(-4.560529e-6,0)"><rect style="fill:#eeeeec;fill-opacity:1;stroke:#888a85;stroke-width:.9999997;stroke-linecap:butt;stroke-linejoin:round;stroke-miterlimit:0;stroke-opacity:1;stroke-dasharray:none;stroke-dashoffset:0" id="rect10980" width="10" height="9" x="1.5" y="5.5"/><rect style="fill:none;stroke:#fff;stroke-width:.99999988;stroke-linecap:butt;stroke-linejoin:miter;stroke-miterlimit:0;stroke-opacity:1;stroke-dasharray:none;stroke-dashoffset:0" id="rect10073" width="8" height="7" x="2.5" y="6.5"/><path style="fill:#729fcf;fill-opacity:1;stroke:#204a87;stroke-width:.9730258;stroke-linecap:butt;stroke-linejoin:round;stroke-miterlimit:0;stroke-opacity:1;stroke-dasharray:none;stroke-dashoffset:0" id="path10031" d="m 15.136634,5.4358912 a 4.2346536,4.5274755 0 1 1 -8.4693071,0 4.2346536,4.5274755 0 1 1 8.4693071,0 z" transform="matrix(1.062661,0,0,0.993932,-0.585106,-0.402903)"/><rect style="fill:#555753;fill-opacity:1;stroke:none" id="rect10059" width="1" height="1" x="15" y="9"/><rect style="fill:#555753;fill-opacity:1;stroke:none" id="rect10061" width="1" height="1" x="15" y="0"/><rect style="fill:#555753;fill-opacity:1;stroke:none" id="rect10063" width="1" height="1" x="6" y="9"/><rect style="fill:#555753;fill-opacity:1;stroke:none" id="rect10065" width="1" height="1" x="6" y="0"/><rect style="fill:#555753;fill-opacity:1;stroke:none" id="rect10067" width="1" height="1" x="0" y="15"/><rect style="fill:#555753;fill-opacity:1;stroke:none" id="rect10069" width="1" height="1" x="0" y="4"/><rect style="fill:#555753;fill-opacity:1;stroke:none" id="rect10071" width="1" height="1" x="12" y="15"/><path style="opacity:.4;fill:none;stroke:#fff;stroke-width:1.25103331;stroke-linecap:butt;stroke-linejoin:round;stroke-miterlimit:0;stroke-opacity:1;stroke-dasharray:none;stroke-dashoffset:0" id="path10075" d="m 15.136634,5.4358912 a 4.2346536,4.5274755 0 1 1 -8.4693071,0 4.2346536,4.5274755 0 1 1 8.4693071,0 z" transform="matrix(0.826514,0,0,0.773058,1.989357,0.797742)"/></g></g></svg>