<svg xmlns="http://www.w3.org/2000/svg" xmlns:svg="http://www.w3.org/2000/svg" xmlns:xlink="http://www.w3.org/1999/xlink" id="svg2" width="16" height="16" version="1.2"><defs id="defs4"><linearGradient id="linearGradient4011-0-8-3-39"><stop id="stop4013-2-3-6-7" offset="0" style="stop-color:#fff;stop-opacity:1"/><stop id="stop4015-7-1-68-2" offset=".508" style="stop-color:#fff;stop-opacity:.23529412"/><stop id="stop4017-13-5-6-7" offset=".835" style="stop-color:#fff;stop-opacity:.15686275"/><stop id="stop4019-92-5-3-24" offset="1" style="stop-color:#fff;stop-opacity:.39215687"/></linearGradient><linearGradient id="linearGradient27416-1-5"><stop id="stop27420-2-2" offset="0" style="stop-color:#55c1ec;stop-opacity:1"/><stop id="stop27422-3-2" offset="1" style="stop-color:#3689e6;stop-opacity:1"/></linearGradient><linearGradient id="linearGradient3094" x1="71.204" x2="71.204" y1="6.238" y2="44.341" gradientTransform="matrix(0.35135153,0,0,0.35135153,-17.203685,-0.90930494)" gradientUnits="userSpaceOnUse" xlink:href="#linearGradient4011-0-8-3-39"/><linearGradient id="linearGradient3100" x1="2035.165" x2="2035.165" y1="3208.074" y2="3241.997" gradientTransform="matrix(0.57484957,0,0,0.42975531,-1164.0142,-1377.7717)" gradientUnits="userSpaceOnUse" xlink:href="#linearGradient27416-1-5"/></defs><metadata id="metadata7"/><path style="opacity:.98999999;color:#000;fill:url(#linearGradient3100);fill-opacity:1;fill-rule:nonzero;stroke:none;stroke-width:.99999982;marker:none;visibility:visible;display:inline;overflow:visible;enable-background:accumulate" id="path2555-7-8-5-0-3" d="m 7.9999999,0.50000006 c -4.138243,0 -7.49999996,3.36175704 -7.49999996,7.50000004 C 0.49999994,12.138243 3.8617569,15.5 7.9999999,15.5 12.138243,15.5 15.500007,12.138243 15.5,8.0000001 15.5,3.8617571 12.138243,0.50000006 7.9999999,0.50000006 z"/><path style="opacity:.5;color:#000;fill:none;stroke:#005485;stroke-width:.99999988;stroke-linecap:round;stroke-linejoin:round;stroke-miterlimit:4;stroke-opacity:1;stroke-dasharray:none;stroke-dashoffset:0;marker:none;visibility:visible;display:inline;overflow:visible;enable-background:accumulate" id="path2555-7-8-5-3" d="m 7.9999999,0.50000006 c -4.138243,0 -7.49999996,3.36175704 -7.49999996,7.50000004 C 0.49999994,12.138243 3.8617569,15.5 7.9999999,15.5 12.138243,15.5 15.500007,12.138243 15.5,8.0000001 15.5,3.8617571 12.138243,0.50000006 7.9999999,0.50000006 z"/><path style="opacity:.5;color:#000;fill:none;stroke:url(#linearGradient3094);stroke-width:.99999982;stroke-linecap:round;stroke-linejoin:round;stroke-miterlimit:4;stroke-opacity:1;stroke-dasharray:none;stroke-dashoffset:0;marker:none;visibility:visible;display:inline;overflow:visible;enable-background:accumulate" id="path8655-6-0-9-5-6" d="M 14.5,7.9997641 C 14.5,11.589737 11.589633,14.5 8.0000789,14.5 c -3.589884,0 -6.500079,-2.910298 -6.500079,-6.5002359 0,-3.589801 2.910195,-6.499771 6.500079,-6.499771 3.5895541,0 6.4999211,2.90997 6.4999211,6.499771 l 0,0 z"/><path style="color:#000;fill:#69baee;fill-opacity:1;fill-rule:nonzero;stroke:none;stroke-width:.84323650999999999;marker:none;visibility:visible;display:inline;overflow:visible;enable-background:accumulate" id="path2922-6-6-0-9-4-2" d="M 10.847541,4.820228 12.285698,6.114578 7.4534747,12.5 3.7142658,9.278528 4.9510807,7.639021 7.1370817,9.537392 10.847541,4.820228 z"/><path style="color:#000;fill:#2174b6;fill-opacity:1;fill-rule:nonzero;stroke:none;stroke-width:.84323650999999999;marker:none;visibility:visible;display:inline;overflow:visible;enable-background:accumulate" id="path2922-6-6-0-9-1" d="M 10.847541,3.820228 12.285698,5.114578 7.4534747,11.5 3.7142658,8.278528 4.9510807,6.639021 7.1370817,8.537393 10.847541,3.820228 z"/></svg>