<svg xmlns="http://www.w3.org/2000/svg" xmlns:svg="http://www.w3.org/2000/svg" xmlns:xlink="http://www.w3.org/1999/xlink" id="svg2473" width="16" height="16" version="1.1"><defs id="defs2475"><linearGradient id="linearGradient8838"><stop style="stop-color:#000;stop-opacity:1" id="stop8840" offset="0"/><stop style="stop-color:#000;stop-opacity:0" id="stop8842" offset="1"/></linearGradient><radialGradient id="radialGradient2484" cx="62.625" cy="4.625" r="10.625" fx="62.625" fy="4.625" gradientTransform="matrix(1,0,0,0.341176,0,3.047059)" gradientUnits="userSpaceOnUse" xlink:href="#linearGradient8838"/><linearGradient id="linearGradient3533"><stop style="stop-color:#b0cce6;stop-opacity:1" id="stop3535" offset="0"/><stop style="stop-color:#83acd5;stop-opacity:1" id="stop3545" offset="1"/></linearGradient><linearGradient id="linearGradient2510" x1="15.373" x2="15.373" y1="5.047" y2="22.6" gradientTransform="matrix(0.3167426,0,0,0.310739,0.1976422,0.982695)" gradientUnits="userSpaceOnUse" xlink:href="#linearGradient3533"/><linearGradient id="linearGradient3266"><stop style="stop-color:#538ec6;stop-opacity:1" id="stop3268" offset="0"/><stop style="stop-color:#3f84c5;stop-opacity:0" id="stop3270" offset="1"/></linearGradient><linearGradient id="linearGradient2507" x1="33.687" x2="37.04" y1="35.774" y2="29.857" gradientTransform="matrix(0.331888,0,0,0.3255973,0.1027236,0.04020965)" gradientUnits="userSpaceOnUse" xlink:href="#linearGradient3266"/><linearGradient id="linearGradient3276"><stop style="stop-color:#83acd5;stop-opacity:1" id="stop3278" offset="0"/><stop style="stop-color:#83acd5;stop-opacity:0" id="stop3280" offset="1"/></linearGradient><linearGradient id="linearGradient2505" x1="31.226" x2="34.966" y1="34.601" y2="26.843" gradientTransform="matrix(0.331888,0,0,0.3255973,0.1027236,0.04020965)" gradientUnits="userSpaceOnUse" xlink:href="#linearGradient3276"/><linearGradient id="linearGradient4873"><stop style="stop-color:#fff;stop-opacity:1" id="stop4875" offset="0"/><stop style="stop-color:#fff;stop-opacity:0" id="stop4877" offset="1"/></linearGradient><linearGradient id="linearGradient2471" x1="21.629" x2="21.629" y1="2.11" y2="32.628" gradientTransform="matrix(0.3167426,0,0,0.310739,0.1976422,0.982695)" gradientUnits="userSpaceOnUse" xlink:href="#linearGradient4873"/></defs><metadata id="metadata2478"/><g id="layer1"><path style="opacity:.56043958;fill:url(#radialGradient2484);fill-opacity:1;fill-rule:evenodd;stroke:none;stroke-width:.99999988;marker:none;visibility:visible;display:inline;overflow:visible" id="path8836" d="m 73.25,4.625 a 10.625,3.625 0 1 1 -21.25,0 10.625,3.625 0 1 1 21.25,0 z" transform="matrix(0.7058824,0,0,0.8417457,-36.205885,9.055598)"/><path style="fill:url(#linearGradient2510);fill-opacity:1;stroke:#538ec6;stroke-width:1.00424838;stroke-linecap:butt;stroke-linejoin:round;stroke-miterlimit:4;stroke-opacity:1;stroke-dasharray:none" id="path3372" d="M 8.0642198,10.925163 C 6.4396439,10.907622 5.0748421,9.517962 5.0748421,7.9311387 c 0,-1.3656113 1.5327086,-2.8547587 3.0188745,-2.8547587 0.7845985,0 1.5447049,0.1765746 2.1081774,0.7098357 L 8.5,7.5 l 5.997881,0 c 0,0 0,-5.9978758 0,-5.9978758 l -1.842623,1.829721 C 11.42454,2.1453703 10.001896,1.5236803 8.1855145,1.5040666 4.4904197,1.4641663 1.543402,4.4171805 1.5025495,8.026174 c -0.040853,3.608995 2.8665744,6.431802 6.5616703,6.471702"/><path style="fill:url(#linearGradient2505);fill-opacity:1;stroke:url(#linearGradient2507);stroke-width:1.00424838;stroke-linecap:butt;stroke-linejoin:miter;stroke-miterlimit:4;stroke-opacity:1;stroke-dasharray:none" id="path3453" d="M 7.9342469,14.497271 C 11.024165,14.530636 14.570695,12.18843 14.565135,8.1397305 L 11.293007,8.1147422 C 11.232767,9.7663234 9.4013315,10.986664 7.9342469,10.925163"/><path style="opacity:.4;fill:none;stroke:url(#linearGradient2471);stroke-width:1.00424838;stroke-linecap:butt;stroke-linejoin:miter;stroke-miterlimit:4;stroke-opacity:1;stroke-dasharray:none" id="path3370" d="M 7.932103,12 C 6.1322227,11.974185 4.001893,10.005595 4,7.960344 3.9983843,6.2032966 6.312046,3.9741847 8.1119264,4 8.9990879,4.0127247 10.534992,4.5900861 11.646591,5.6361429 L 10.876843,6.5 13.5,6.5 c 0,0 0,-2.6790505 0,-2.6790505 L 12.701255,4.6539329 C 11.5257,3.3675302 9.9692528,2.5 8.1303702,2.5 4.9171141,2.5 2.5,5.1084506 2.5,8.0609425 2.5,11.480029 5.3108847,13.5 8.0969801,13.5"/></g></svg>