<svg xmlns="http://www.w3.org/2000/svg" xmlns:svg="http://www.w3.org/2000/svg" xmlns:xlink="http://www.w3.org/1999/xlink" id="svg3767" width="128" height="128" version="1.1"><defs id="defs3769"><linearGradient id="linearGradient3242"><stop id="stop3244" offset="0" style="stop-color:#f8b17e;stop-opacity:1"/><stop id="stop3246" offset=".262" style="stop-color:#e35d4f;stop-opacity:1"/><stop id="stop3248" offset=".661" style="stop-color:#c6262e;stop-opacity:1"/><stop id="stop3250" offset="1" style="stop-color:#690b54;stop-opacity:1"/></linearGradient><linearGradient id="linearGradient4011"><stop id="stop4013" offset="0" style="stop-color:#fff;stop-opacity:1"/><stop id="stop4015" offset=".508" style="stop-color:#fff;stop-opacity:.23529412"/><stop id="stop4017" offset=".835" style="stop-color:#fff;stop-opacity:.15686275"/><stop id="stop4019" offset="1" style="stop-color:#fff;stop-opacity:.39215687"/></linearGradient><linearGradient id="linearGradient3318" x1="71.204" x2="71.204" y1="6.238" y2="44.341" gradientTransform="matrix(2.7567564,0,0,2.7567564,-133.25186,-3.415487)" gradientUnits="userSpaceOnUse" xlink:href="#linearGradient4011"/><radialGradient id="radialGradient3022" cx="21.995" cy="4.038" r="20.397" fx="21.995" fy="4.038" gradientTransform="matrix(0,7.3851889,-9.7483178,0,103.41483,-164.094)" gradientUnits="userSpaceOnUse" xlink:href="#linearGradient3242"/><linearGradient id="linearGradient3124-5" x1="90.944" x2="90.944" y1="27.823" y2="56.572" gradientTransform="matrix(1.5941229,0,0,1.5820942,-78.621535,16.025762)" gradientUnits="userSpaceOnUse" xlink:href="#linearGradient5803-2-7-6"/><linearGradient id="linearGradient5803-2-7-6"><stop id="stop5805-3-6-9" offset="0" style="stop-color:#fffdf3;stop-opacity:1"/><stop id="stop5807-0-0-0" offset="1" style="stop-color:#fbebeb;stop-opacity:1"/></linearGradient><radialGradient id="radialGradient3163" cx="99.157" cy="186.171" r="62.769" fx="99.157" fy="186.171" gradientTransform="matrix(0.6869404,0,0,0.21461693,-4.02174,68.573331)" gradientUnits="userSpaceOnUse" xlink:href="#linearGradient3820-7-2-8-6"/><linearGradient id="linearGradient3820-7-2-8-6"><stop id="stop3822-2-6-5-0" offset="0" style="stop-color:#3d3d3d;stop-opacity:1"/><stop id="stop3864-8-7-4-1" offset=".5" style="stop-color:#686868;stop-opacity:.49803922"/><stop id="stop3824-1-2-6-7" offset="1" style="stop-color:#686868;stop-opacity:0"/></linearGradient></defs><metadata id="metadata3772"/><path style="fill:url(#radialGradient3163);fill-opacity:1;stroke:none" id="path3818-0-5-0" d="m 107.21186,108.52868 a 43.118644,13.471312 0 1 1 -86.237286,0 43.118644,13.471312 0 1 1 86.237286,0 z"/><path id="path2555-2" d="m 64.519016,14.486124 c -28.691803,0 -52.000005,23.308192 -52.000005,51.999998 0,28.691807 23.308202,52.000018 52.000005,52.000008 28.691794,0 52.000024,-23.308201 51.999994,-52.000008 0,-28.691806 -23.3082,-51.999998 -51.999994,-51.999998 z" style="fill:url(#radialGradient3022);fill-opacity:1;stroke:none;stroke-width:1.00365412;stroke-linecap:round;stroke-linejoin:round;stroke-miterlimit:4;stroke-dasharray:none;stroke-dashoffset:0;stroke-opacity:1"/><path style="color:#000;display:inline;overflow:visible;visibility:visible;opacity:.5;fill:none;stroke:url(#linearGradient3318);stroke-width:1;stroke-linecap:round;stroke-linejoin:round;stroke-miterlimit:4;stroke-dasharray:none;stroke-dashoffset:0;stroke-opacity:1;marker:none;enable-background:accumulate" id="path8655-6" d="M 115.5,66.486442 C 115.5,94.653871 92.664845,117.48825 64.50065,117.48825 36.33387,117.48825 13.5,94.653613 13.5,66.486442 c 0,-28.166127 22.83387,-50.998188 51.00065,-50.998188 28.164195,0 50.99935,22.832061 50.99935,50.998188 l 0,0 z"/><path style="color:#000;clip-rule:nonzero;display:inline;overflow:visible;visibility:visible;opacity:.5;isolation:auto;mix-blend-mode:normal;color-interpolation:sRGB;color-interpolation-filters:linearRGB;solid-color:#000;solid-opacity:1;fill:none;fill-opacity:1;fill-rule:nonzero;stroke:#6f0000;stroke-width:1;stroke-linecap:round;stroke-linejoin:round;stroke-miterlimit:4;stroke-dasharray:none;stroke-dashoffset:0;stroke-opacity:1;color-rendering:auto;image-rendering:auto;shape-rendering:auto;text-rendering:auto;enable-background:accumulate;marker:none;filter-blend-mode:normal;filter-gaussianBlur-deviation:0" id="path2555-21" d="m 64.519014,14.471826 c -28.701626,0 -52.017803,23.314603 -52.017803,52.014306 0,28.699691 23.316177,52.014288 52.017803,52.014288 28.701614,0 52.017836,-23.314597 52.017806,-52.014288 0,-28.699703 -23.316192,-52.014306 -52.017806,-52.014306 z"/><path id="path3490" d="M 37,59.804688 A 1.1963813,1.1963813 0 0 0 35.804688,61 l 0,13 A 1.1963813,1.1963813 0 0 0 37,75.195312 l 55,0 A 1.1963813,1.1963813 0 0 0 93.195312,74 l 0,-13 A 1.1963813,1.1963813 0 0 0 92,59.804688 l -55,0 z" transform="matrix(0.99319359,0,0,0.97461935,0.43901339,1.7131939)" style="color:#000;clip-rule:nonzero;display:inline;overflow:visible;visibility:visible;opacity:.3;isolation:auto;mix-blend-mode:normal;color-interpolation:sRGB;color-interpolation-filters:linearRGB;solid-color:#000;solid-opacity:1;fill:#661215;fill-opacity:1;fill-rule:evenodd;stroke:none;stroke-width:1;stroke-linecap:butt;stroke-linejoin:miter;stroke-miterlimit:4;stroke-dasharray:none;stroke-dashoffset:0;stroke-opacity:1;marker:none;color-rendering:auto;image-rendering:auto;shape-rendering:auto;text-rendering:auto;enable-background:accumulate"/><path id="rect3007-4" d="m 37,61 0,13 55,0 0,-13 z" style="color:#000;clip-rule:nonzero;display:inline;overflow:visible;visibility:visible;opacity:.3;isolation:auto;mix-blend-mode:normal;color-interpolation:sRGB;color-interpolation-filters:linearRGB;solid-color:#000;solid-opacity:1;fill:#661215;fill-opacity:1;fill-rule:evenodd;stroke:none;stroke-width:1;stroke-linecap:butt;stroke-linejoin:miter;stroke-miterlimit:4;stroke-dasharray:none;stroke-dashoffset:0;stroke-opacity:1;marker:none;color-rendering:auto;image-rendering:auto;shape-rendering:auto;text-rendering:auto;enable-background:accumulate;filter-blend-mode:normal;filter-gaussianBlur-deviation:0"/><path id="rect3007" d="m 37,60 0,13 55,0 0,-13 z" style="color:#000;display:inline;overflow:visible;visibility:visible;fill:url(#linearGradient3124-5);fill-opacity:1;fill-rule:nonzero;stroke:none;stroke-width:1;marker:none;enable-background:accumulate;clip-rule:nonzero;opacity:1;isolation:auto;mix-blend-mode:normal;color-interpolation:sRGB;color-interpolation-filters:linearRGB;solid-color:#000;solid-opacity:1;stroke-linecap:butt;stroke-linejoin:miter;stroke-miterlimit:4;stroke-dasharray:none;stroke-dashoffset:0;stroke-opacity:1;filter-blend-mode:normal;filter-gaussianBlur-deviation:0;color-rendering:auto;image-rendering:auto;shape-rendering:auto;text-rendering:auto"/></svg>