<svg xmlns="http://www.w3.org/2000/svg" xmlns:svg="http://www.w3.org/2000/svg" xmlns:xlink="http://www.w3.org/1999/xlink" id="svg3911" width="32" height="32" version="1.1"><defs id="defs3913"><linearGradient id="linearGradient3013" x1="24" x2="24" y1="5.564" y2="43" gradientTransform="matrix(0.56756757,0,0,0.72972971,2.378382,-2.5135063)" gradientUnits="userSpaceOnUse" xlink:href="#linearGradient3977"/><linearGradient id="linearGradient3977"><stop style="stop-color:#fff;stop-opacity:1" id="stop3979" offset="0"/><stop style="stop-color:#fff;stop-opacity:.23529412" id="stop3981" offset=".036"/><stop style="stop-color:#fff;stop-opacity:.15686275" id="stop3983" offset=".951"/><stop style="stop-color:#fff;stop-opacity:.39215687" id="stop3985" offset="1"/></linearGradient><radialGradient id="radialGradient3083" cx="7.806" cy="9.957" r="12.672" fx="7.276" fy="9.957" gradientTransform="matrix(-1.0624208e-7,4.3506752,-5.3177267,-1.3059556e-7,68.942119,-39.41615)" gradientUnits="userSpaceOnUse" xlink:href="#linearGradient2867-449-88-871-390-598-476-591-434-148-57-177-8-3"/><linearGradient id="linearGradient2867-449-88-871-390-598-476-591-434-148-57-177-8-3"><stop style="stop-color:#90dbec;stop-opacity:1" id="stop3750-1-0" offset="0"/><stop style="stop-color:#55c1ec;stop-opacity:1" id="stop3752-3-7" offset=".262"/><stop style="stop-color:#3689e6;stop-opacity:1" id="stop3754-1-8" offset=".705"/><stop style="stop-color:#2b63a0;stop-opacity:1" id="stop3756-1-6" offset="1"/></linearGradient><radialGradient id="radialGradient3021" cx="605.714" cy="486.648" r="117.143" fx="605.714" fy="486.648" gradientTransform="matrix(0.01566318,0,0,0.00823529,17.610433,25.980565)" gradientUnits="userSpaceOnUse" xlink:href="#linearGradient5060"/><linearGradient id="linearGradient5060"><stop style="stop-color:#000;stop-opacity:1" id="stop5062" offset="0"/><stop style="stop-color:#000;stop-opacity:0" id="stop5064" offset="1"/></linearGradient><radialGradient id="radialGradient3024" cx="605.714" cy="486.648" r="117.143" fx="605.714" fy="486.648" gradientTransform="matrix(-0.01566318,0,0,0.00823529,14.389566,25.980565)" gradientUnits="userSpaceOnUse" xlink:href="#linearGradient5060"/><linearGradient id="linearGradient5048"><stop style="stop-color:#000;stop-opacity:0" id="stop5050" offset="0"/><stop style="stop-color:#000;stop-opacity:1" id="stop5056" offset=".5"/><stop style="stop-color:#000;stop-opacity:0" id="stop5052" offset="1"/></linearGradient><linearGradient id="linearGradient3909" x1="302.857" x2="302.857" y1="366.648" y2="609.505" gradientTransform="matrix(0.04576928,0,0,0.00823529,-0.5423243,25.980548)" gradientUnits="userSpaceOnUse" xlink:href="#linearGradient5048"/></defs><metadata id="metadata3916"/><g id="layer1"><rect style="opacity:.15;fill:url(#linearGradient3909);fill-opacity:1;fill-rule:nonzero;stroke:none;stroke-width:1;marker:none;visibility:visible;display:inline;overflow:visible" id="rect2879" width="22.1" height="2" x="4.95" y="29"/><path style="opacity:.15;fill:url(#radialGradient3024);fill-opacity:1;fill-rule:nonzero;stroke:none;stroke-width:1;marker:none;visibility:visible;display:inline;overflow:visible" id="path2881" d="m 4.9499887,29.000086 c 0,0 0,1.99989 0,1.99989 -0.806615,0.0038 -1.950002,-0.448074 -1.950002,-1.000074 0,-0.552 0.900121,-0.999816 1.950002,-0.999816 z"/><path style="opacity:.15;fill:url(#radialGradient3021);fill-opacity:1;fill-rule:nonzero;stroke:none;stroke-width:1;marker:none;visibility:visible;display:inline;overflow:visible" id="path2883" d="m 27.050011,29.000086 c 0,0 0,1.99989 0,1.99989 0.806614,0.0038 1.950002,-0.448074 1.950002,-1.000074 0,-0.552 -0.900122,-0.999816 -1.950002,-0.999816 z"/><path style="color:#000;fill:url(#radialGradient3083);fill-opacity:1;fill-rule:nonzero;stroke:none;stroke-width:1;marker:none;visibility:visible;display:inline;overflow:visible;enable-background:accumulate" id="path4160" d="m 4.4999935,0.49999782 c 5.270467,0 22.9999725,0.00185 22.9999725,0.00185 l 2.8e-5,28.99815418 c 0,0 -15.333333,0 -23.0000005,0 0,-9.666667 0,-19.333334 0,-29.00000008 z"/><path style="opacity:.5;fill:none;stroke:url(#linearGradient3013);stroke-width:.99999994;stroke-linecap:round;stroke-linejoin:round;stroke-miterlimit:4;stroke-opacity:1;stroke-dasharray:none;stroke-dashoffset:0" id="rect6741-1" d="m 26.5,28.5 -21,0 0,-27 21,0 z"/><path style="opacity:.3;fill:none;stroke:#000;stroke-width:.99992186;stroke-linecap:butt;stroke-linejoin:round;stroke-miterlimit:4;stroke-opacity:1;stroke-dasharray:none;stroke-dashoffset:0;display:inline" id="path4160-3-4" d="m 4.499961,0.49996093 c 5.270482,0 23.000037,0.00185 23.000037,0.00185 l 2.8e-5,28.99822807 c 0,0 -15.333376,0 -23.000065,0 0,-9.666692 0,-19.333383 0,-29.00007387 z"/><g style="color:#000;fill:#fff;fill-opacity:1;fill-rule:nonzero;stroke:none;stroke-width:1.70000005;marker:none;visibility:visible;display:inline;overflow:visible;enable-background:accumulate" id="g12587-31-2" transform="translate(7.9999938,6.9999999)"><path style="color:#000;fill:#fff;fill-opacity:1;fill-rule:nonzero;stroke:none;stroke-width:1.70000005;marker:none;visibility:visible;display:inline;overflow:visible;enable-background:accumulate" id="path2991-3-3" d="M 8,0 C 3.5817219,0 0,3.5817221 0,8 c 0,4.418278 3.5817219,8 8,8 4.418278,0 8,-3.581722 8,-8 C 16,3.5817221 12.418278,0 8,0 z m 0,2 c 3.313708,0 6,2.6862915 6,6 0,3.313708 -2.686292,6 -6,6 C 4.6862915,14 2,11.313708 2,8 2,4.6862915 4.6862915,2 8,2 z"/><path style="color:#000;fill:#fff;fill-opacity:1;fill-rule:nonzero;stroke:none;stroke-width:1.70000005;marker:none;visibility:visible;display:inline;overflow:visible;enable-background:accumulate" id="rect3005-5-8-6" d="M 7,4 7,8 4,8 8,12 12,8 9,8 9,4 z"/></g></g></svg>