<svg xmlns="http://www.w3.org/2000/svg" xmlns:svg="http://www.w3.org/2000/svg" xmlns:xlink="http://www.w3.org/1999/xlink" id="svg4011" width="32" height="32" version="1.1"><defs id="defs4013"><linearGradient id="linearGradient3119" x1="24" x2="24" y1="5.564" y2="43" gradientTransform="matrix(0.56756757,0,0,0.72972971,2.378382,-2.5135061)" gradientUnits="userSpaceOnUse" xlink:href="#linearGradient3977"/><linearGradient id="linearGradient3977"><stop style="stop-color:#fff;stop-opacity:1" id="stop3979" offset="0"/><stop style="stop-color:#fff;stop-opacity:.23529412" id="stop3981" offset=".036"/><stop style="stop-color:#fff;stop-opacity:.15686275" id="stop3983" offset=".951"/><stop style="stop-color:#fff;stop-opacity:.39215687" id="stop3985" offset="1"/></linearGradient><radialGradient id="radialGradient3947" cx="7.806" cy="9.957" r="12.672" fx="7.276" fy="9.957" gradientTransform="matrix(-1.0624208e-7,4.3506752,-5.3177267,-1.3059556e-7,68.942118,-39.41615)" gradientUnits="userSpaceOnUse" xlink:href="#linearGradient2867-449-88-871-390-598-476-591-434-148-57-177-8-3-4"/><linearGradient id="linearGradient2867-449-88-871-390-598-476-591-434-148-57-177-8-3-4"><stop style="stop-color:#ffcd7d;stop-opacity:1" id="stop3750-1-0-7" offset="0"/><stop style="stop-color:#fc8f36;stop-opacity:1" id="stop3752-3-7-6" offset=".262"/><stop style="stop-color:#e23a0e;stop-opacity:1" id="stop3754-1-8-5" offset=".705"/><stop style="stop-color:#ac441f;stop-opacity:1" id="stop3756-1-6-6" offset="1"/></linearGradient><linearGradient id="linearGradient3949" x1="25" x2="25" y1="47.935" y2=".918" gradientTransform="matrix(0.65714134,0,0,0.65900698,0.2286005,0.1720367)" gradientUnits="userSpaceOnUse" xlink:href="#linearGradient4039"/><linearGradient id="linearGradient4039"><stop style="stop-color:#ba3d12;stop-opacity:1" id="stop4041" offset="0"/><stop style="stop-color:#db6737;stop-opacity:1" id="stop4043" offset="1"/></linearGradient><radialGradient id="radialGradient3045" cx="605.714" cy="486.648" r="117.143" fx="605.714" fy="486.648" gradientTransform="matrix(0.01566318,0,0,0.00823529,17.610433,25.980565)" gradientUnits="userSpaceOnUse" xlink:href="#linearGradient5060"/><linearGradient id="linearGradient5060"><stop style="stop-color:#000;stop-opacity:1" id="stop5062" offset="0"/><stop style="stop-color:#000;stop-opacity:0" id="stop5064" offset="1"/></linearGradient><radialGradient id="radialGradient3048" cx="605.714" cy="486.648" r="117.143" fx="605.714" fy="486.648" gradientTransform="matrix(-0.01566318,0,0,0.00823529,14.389566,25.980565)" gradientUnits="userSpaceOnUse" xlink:href="#linearGradient5060"/><linearGradient id="linearGradient5048"><stop style="stop-color:#000;stop-opacity:0" id="stop5050" offset="0"/><stop style="stop-color:#000;stop-opacity:1" id="stop5056" offset=".5"/><stop style="stop-color:#000;stop-opacity:0" id="stop5052" offset="1"/></linearGradient><linearGradient id="linearGradient4009" x1="302.857" x2="302.857" y1="366.648" y2="609.505" gradientTransform="matrix(0.04576928,0,0,0.00823529,-0.5423243,25.980548)" gradientUnits="userSpaceOnUse" xlink:href="#linearGradient5048"/></defs><metadata id="metadata4016"/><g id="layer1"><rect style="opacity:.15;fill:url(#linearGradient4009);fill-opacity:1;fill-rule:nonzero;stroke:none;stroke-width:1;marker:none;visibility:visible;display:inline;overflow:visible" id="rect2879" width="22.1" height="2" x="4.95" y="29"/><path style="opacity:.15;fill:url(#radialGradient3048);fill-opacity:1;fill-rule:nonzero;stroke:none;stroke-width:1;marker:none;visibility:visible;display:inline;overflow:visible" id="path2881" d="m 4.9499887,29.000086 c 0,0 0,1.99989 0,1.99989 -0.806615,0.0038 -1.950002,-0.448074 -1.950002,-1.000074 0,-0.552 0.900121,-0.999816 1.950002,-0.999816 z"/><path style="opacity:.15;fill:url(#radialGradient3045);fill-opacity:1;fill-rule:nonzero;stroke:none;stroke-width:1;marker:none;visibility:visible;display:inline;overflow:visible" id="path2883" d="m 27.050011,29.000086 c 0,0 0,1.99989 0,1.99989 0.806614,0.0038 1.950002,-0.448074 1.950002,-1.000074 0,-0.552 -0.900122,-0.999816 -1.950002,-0.999816 z"/><path style="color:#000;fill:url(#radialGradient3947);fill-opacity:1;fill-rule:nonzero;stroke:url(#linearGradient3949);stroke-width:1;stroke-linecap:butt;stroke-linejoin:round;stroke-miterlimit:4;stroke-opacity:1;stroke-dasharray:none;stroke-dashoffset:0;marker:none;visibility:visible;display:inline;overflow:visible;enable-background:accumulate" id="path4160" d="m 4.4999935,0.499998 c 5.270467,0 22.9999725,0.00185 22.9999725,0.00185 l 2.8e-5,28.998154 c 0,0 -15.333333,0 -23.0000005,0 0,-9.666667 0,-19.333334 0,-29 z"/><path style="opacity:.5;fill:none;stroke:url(#linearGradient3119);stroke-width:.99999994;stroke-linecap:round;stroke-linejoin:round;stroke-miterlimit:4;stroke-opacity:1;stroke-dasharray:none;stroke-dashoffset:0" id="rect6741-1" d="m 26.5,28.5 -21,0 0,-26.9999998 21,0 z"/><path style="font-size:13.58991337px;font-style:normal;font-variant:normal;font-weight:700;font-stretch:normal;text-align:start;line-height:125%;writing-mode:lr-tb;text-anchor:start;fill:#fff;fill-opacity:1;stroke:none;font-family:Bitstream Vera Serif" id="path4311" d="m 7.0632875,25.901592 c 0,-0.307077 0.1060126,-0.564877 0.3180327,-0.773399 0.2120289,-0.212298 0.4713803,-0.318452 0.7780543,-0.318459 0.2990989,7e-6 0.5527716,0.106162 0.7610092,0.318459 0.2120214,0.208522 0.3180327,0.466322 0.3180327,0.773399 0,0.299511 -0.1060126,0.555414 -0.3180327,0.767713 -0.2082376,0.208522 -0.4619103,0.312779 -0.7610092,0.312772 -0.306674,7e-6 -0.5660254,-0.10425 -0.7780543,-0.312772 C 7.1693064,26.460798 7.0632875,26.204895 7.0632875,25.901592 M 7,20.970736 7,22.787124 c 2.3201852,0 4.204678,1.888165 4.204678,4.212876 l 1.82234,0 c 0,-3.329992 -2.703511,-6.029264 -6.027018,-6.029264 z m 0.00312,-3.974485 0,2.007805 c 4.40528,0 7.98215,3.581636 7.98215,7.992795 l 2.014725,0 c 1.5e-5,-5.521882 -4.482334,-10.0006 -9.99686,-10.0006 z"/></g></svg>