<svg xmlns="http://www.w3.org/2000/svg" xmlns:svg="http://www.w3.org/2000/svg" xmlns:xlink="http://www.w3.org/1999/xlink" id="svg3182" width="32" height="32" version="1.1"><defs id="defs3184"><linearGradient id="linearGradient3119" x1="24" x2="24" y1="5.564" y2="43" gradientTransform="matrix(0.56756757,0,0,0.72972971,2.378382,-2.5135063)" gradientUnits="userSpaceOnUse" xlink:href="#linearGradient3977"/><linearGradient id="linearGradient3977"><stop style="stop-color:#fff;stop-opacity:1" id="stop3979" offset="0"/><stop style="stop-color:#fff;stop-opacity:.23529412" id="stop3981" offset=".036"/><stop style="stop-color:#fff;stop-opacity:.15686275" id="stop3983" offset=".951"/><stop style="stop-color:#fff;stop-opacity:.39215687" id="stop3985" offset="1"/></linearGradient><linearGradient id="linearGradient3122" x1="25.132" x2="25.132" y1=".985" y2="47.013" gradientTransform="matrix(0.65714319,0,0,0.63012397,0.228556,-1.0896478)" gradientUnits="userSpaceOnUse" xlink:href="#linearGradient3600-4"/><linearGradient id="linearGradient3600-4"><stop style="stop-color:#f4f4f4;stop-opacity:1" id="stop3602-7" offset="0"/><stop style="stop-color:#dbdbdb;stop-opacity:1" id="stop3604-6" offset="1"/></linearGradient><linearGradient id="linearGradient3124" x1="-51.786" x2="-51.786" y1="50.786" y2="2.906" gradientTransform="matrix(0.53064102,0,0,0.58970216,39.269585,-1.7919079)" gradientUnits="userSpaceOnUse" xlink:href="#linearGradient3104-5"/><linearGradient id="linearGradient3104-5"><stop style="stop-color:#a0a0a0;stop-opacity:1" id="stop3106-6" offset="0"/><stop style="stop-color:#bebebe;stop-opacity:1" id="stop3108-9" offset="1"/></linearGradient><radialGradient id="radialGradient3045" cx="605.714" cy="486.648" r="117.143" fx="605.714" fy="486.648" gradientTransform="matrix(0.01566318,0,0,0.00823529,17.610433,25.980565)" gradientUnits="userSpaceOnUse" xlink:href="#linearGradient5060"/><linearGradient id="linearGradient5060"><stop style="stop-color:#000;stop-opacity:1" id="stop5062" offset="0"/><stop style="stop-color:#000;stop-opacity:0" id="stop5064" offset="1"/></linearGradient><radialGradient id="radialGradient3048" cx="605.714" cy="486.648" r="117.143" fx="605.714" fy="486.648" gradientTransform="matrix(-0.01566318,0,0,0.00823529,14.389566,25.980565)" gradientUnits="userSpaceOnUse" xlink:href="#linearGradient5060"/><linearGradient id="linearGradient5048"><stop style="stop-color:#000;stop-opacity:0" id="stop5050" offset="0"/><stop style="stop-color:#000;stop-opacity:1" id="stop5056" offset=".5"/><stop style="stop-color:#000;stop-opacity:0" id="stop5052" offset="1"/></linearGradient><linearGradient id="linearGradient3180" x1="302.857" x2="302.857" y1="366.648" y2="609.505" gradientTransform="matrix(0.04576928,0,0,0.00823529,-0.5423243,25.980548)" gradientUnits="userSpaceOnUse" xlink:href="#linearGradient5048"/><linearGradient id="linearGradient23419"><stop style="stop-color:#000;stop-opacity:1" id="stop23421" offset="0"/><stop style="stop-color:#000;stop-opacity:0" id="stop23423" offset="1"/></linearGradient><linearGradient id="linearGradient3772"><stop style="stop-color:#b4b4b4;stop-opacity:1" id="stop3774" offset="0"/><stop style="stop-color:#969696;stop-opacity:1" id="stop3776" offset="1"/></linearGradient><linearGradient id="linearGradient3263" x1="12.274" x2="35.391" y1="32.416" y2="14.203" gradientUnits="userSpaceOnUse"><stop style="stop-color:#dedbde;stop-opacity:1" id="stop3265" offset="0"/><stop style="stop-color:#e6e6e6;stop-opacity:1" id="stop3267" offset=".5"/><stop style="stop-color:#d2d2d2;stop-opacity:1" id="stop3269" offset="1"/></linearGradient><linearGradient id="linearGradient2488" x1="10.609" x2="9.73" y1="17.886" y2="20.613" gradientUnits="userSpaceOnUse" spreadMethod="reflect" xlink:href="#linearGradient3519"/><linearGradient id="linearGradient2486" x1="12.372" x2="14.609" y1="16.188" y2="13.462" gradientUnits="userSpaceOnUse" spreadMethod="reflect" xlink:href="#linearGradient3511"/><linearGradient id="linearGradient2484" x1="14.085" x2="16.994" y1="13.046" y2="10.732" gradientUnits="userSpaceOnUse" spreadMethod="reflect" xlink:href="#linearGradient3503"/><linearGradient id="linearGradient2482" x1="17.495" x2="21.047" y1="11.2" y2="9.796" gradientUnits="userSpaceOnUse" spreadMethod="reflect" xlink:href="#linearGradient3495"/><linearGradient id="linearGradient2480" x1="20.58" x2="24.274" y1="10.775" y2="9.862" gradientUnits="userSpaceOnUse" spreadMethod="reflect" xlink:href="#linearGradient3487"/><linearGradient id="linearGradient3519"><stop style="stop-color:#fcd9cd;stop-opacity:1" id="stop3521" offset="0"/><stop style="stop-color:#fcd9cd;stop-opacity:0" id="stop3523" offset="1"/></linearGradient><linearGradient id="linearGradient2500" x1="10.609" x2="9.73" y1="17.886" y2="20.613" gradientUnits="userSpaceOnUse" spreadMethod="reflect" xlink:href="#linearGradient3519"/><linearGradient id="linearGradient3511"><stop style="stop-color:#ebeec7;stop-opacity:1" id="stop3513" offset="0"/><stop style="stop-color:#ebeec7;stop-opacity:0" id="stop3515" offset="1"/></linearGradient><linearGradient id="linearGradient2498" x1="12.372" x2="14.609" y1="16.188" y2="13.462" gradientUnits="userSpaceOnUse" spreadMethod="reflect" xlink:href="#linearGradient3511"/><linearGradient id="linearGradient3503"><stop style="stop-color:#c4ebdd;stop-opacity:1" id="stop3505" offset="0"/><stop style="stop-color:#c4ebdd;stop-opacity:0" id="stop3507" offset="1"/></linearGradient><linearGradient id="linearGradient2496" x1="14.085" x2="16.994" y1="13.046" y2="10.732" gradientUnits="userSpaceOnUse" spreadMethod="reflect" xlink:href="#linearGradient3503"/><linearGradient id="linearGradient3495"><stop style="stop-color:#c1cbe4;stop-opacity:1" id="stop3497" offset="0"/><stop style="stop-color:#c1cbe4;stop-opacity:0" id="stop3499" offset="1"/></linearGradient><linearGradient id="linearGradient2494" x1="17.495" x2="21.047" y1="11.2" y2="9.796" gradientUnits="userSpaceOnUse" spreadMethod="reflect" xlink:href="#linearGradient3495"/><linearGradient id="linearGradient3487"><stop style="stop-color:#e6cde2;stop-opacity:1" id="stop3489" offset="0"/><stop style="stop-color:#e6cde2;stop-opacity:0" id="stop3491" offset="1"/></linearGradient><linearGradient id="linearGradient2492" x1="20.58" x2="24.274" y1="10.775" y2="9.862" gradientUnits="userSpaceOnUse" spreadMethod="reflect" xlink:href="#linearGradient3487"/><linearGradient id="linearGradient4011"><stop style="stop-color:#fff;stop-opacity:1" id="stop4013" offset="0"/><stop style="stop-color:#fff;stop-opacity:.23529412" id="stop4015" offset=".508"/><stop style="stop-color:#fff;stop-opacity:.15686275" id="stop4017" offset=".835"/><stop style="stop-color:#fff;stop-opacity:.39215687" id="stop4019" offset="1"/></linearGradient><linearGradient id="linearGradient6036"><stop style="stop-color:#fff;stop-opacity:1" id="stop6038" offset="0"/><stop style="stop-color:#fff;stop-opacity:0" id="stop6040" offset="1"/></linearGradient><linearGradient id="linearGradient3428"><stop style="stop-color:#aaa;stop-opacity:1" id="stop3430" offset="0"/><stop style="stop-color:#d4d4d4;stop-opacity:1" id="stop3432" offset="1"/></linearGradient><linearGradient id="linearGradient3159" x1="21.448" x2="21.448" y1="15.5" y2="32.509" gradientTransform="matrix(0.4374999,0,0,0.4374999,5.5,4.4999996)" gradientUnits="userSpaceOnUse" xlink:href="#linearGradient3428"/><linearGradient id="linearGradient3162" x1="18.776" x2="18.203" y1="4.038" y2="45.962" gradientTransform="matrix(0.2272999,0,0,-0.2272999,10.465927,20.682498)" gradientUnits="userSpaceOnUse" xlink:href="#linearGradient6036"/><linearGradient id="linearGradient3165" x1="71.204" x2="71.204" y1="6.238" y2="44.341" gradientTransform="matrix(0.45945944,0,0,0.45945944,-16.958749,3.3493769)" gradientUnits="userSpaceOnUse" xlink:href="#linearGradient4011"/><linearGradient id="linearGradient3181" x1="12.274" x2="35.391" y1="32.416" y2="14.203" gradientTransform="matrix(0,0.54545936,-0.54545936,0,28.600113,1.908972)" gradientUnits="userSpaceOnUse" xlink:href="#linearGradient3263"/><linearGradient id="linearGradient3183" x1="-21.916" x2="-21.916" y1="3" y2="45.033" gradientTransform="matrix(0.4656319,0,0,0.4656319,28.22985,3.8248332)" gradientUnits="userSpaceOnUse" xlink:href="#linearGradient3772"/><radialGradient id="radialGradient3186" cx="23.335" cy="41.636" r="22.627" fx="23.335" fy="41.636" gradientTransform="matrix(0.48613589,0,0,0.1546652,4.6562496,16.060353)" gradientUnits="userSpaceOnUse" xlink:href="#linearGradient23419"/></defs><metadata id="metadata3187"/><g id="layer1"><rect style="opacity:.15;fill:url(#linearGradient3180);fill-opacity:1;fill-rule:nonzero;stroke:none;stroke-width:1;marker:none;visibility:visible;display:inline;overflow:visible" id="rect2879" width="22.1" height="2" x="4.95" y="29"/><path style="opacity:.15;fill:url(#radialGradient3048);fill-opacity:1;fill-rule:nonzero;stroke:none;stroke-width:1;marker:none;visibility:visible;display:inline;overflow:visible" id="path2881" d="m 4.9499887,29.000086 c 0,0 0,1.99989 0,1.99989 -0.806615,0.0038 -1.950002,-0.448074 -1.950002,-1.000074 0,-0.552 0.900121,-0.999816 1.950002,-0.999816 z"/><path style="opacity:.15;fill:url(#radialGradient3045);fill-opacity:1;fill-rule:nonzero;stroke:none;stroke-width:1;marker:none;visibility:visible;display:inline;overflow:visible" id="path2883" d="m 27.050011,29.000086 c 0,0 0,1.99989 0,1.99989 0.806614,0.0038 1.950002,-0.448074 1.950002,-1.000074 0,-0.552 -0.900122,-0.999816 -1.950002,-0.999816 z"/><path style="fill:url(#linearGradient3122);fill-opacity:1;stroke:url(#linearGradient3124);stroke-width:.99992186;stroke-linecap:butt;stroke-linejoin:round;stroke-miterlimit:4;stroke-opacity:1;stroke-dasharray:none;stroke-dashoffset:0;display:inline" id="path4160-3" d="m 4.499961,0.49996093 c 5.270482,0 23.000037,0.00185 23.000037,0.00185 l 2.8e-5,28.99822807 c 0,0 -15.333376,0 -23.000065,0 0,-9.666692 0,-19.333383 0,-29.00007387 z"/><path style="fill:none;stroke:url(#linearGradient3119);stroke-width:.99999994;stroke-linecap:round;stroke-linejoin:round;stroke-miterlimit:4;stroke-opacity:1;stroke-dasharray:none;stroke-dashoffset:0" id="rect6741-1" d="m 26.5,28.5 -21,0 0,-27 21,0 z"/><path style="opacity:.3;fill:url(#radialGradient3186);fill-opacity:1;fill-rule:evenodd;stroke:none;stroke-width:2;marker:none;visibility:visible;display:inline;overflow:visible" id="path23417" d="M 27,22.499999 C 27.000565,24.432943 22.075533,26 16,26 9.9244668,26 4.9994335,24.432943 5,22.499999 4.9994335,20.567056 9.9244668,19 16,19 c 6.075533,0 11.000565,1.567056 11,3.499999 z"/><path style="fill:url(#linearGradient3181);fill-rule:nonzero;stroke:url(#linearGradient3183);stroke-width:1.00000012;stroke-miterlimit:4;stroke-opacity:1" id="path2781" d="M 25.545454,15 C 25.545454,9.709042 21.290956,5.454545 16,5.454545 10.709042,5.454545 6.4545455,9.709043 6.4545455,15 6.4545444,20.290957 10.709042,24.545454 16,24.545454 21.290956,24.545453 25.545454,20.290957 25.545454,15 z M 19.5,15 c 0,1.791874 -1.745436,3.5 -3.5,3.5 -1.792116,0 -3.5,-1.822747 -3.5,-3.5 0,-1.714806 1.648901,-3.5 3.5,-3.5 1.888644,0 3.5,1.670604 3.5,3.5 z"/><path style="opacity:.5;fill:#fff;fill-opacity:1;fill-rule:nonzero;stroke:none;stroke-width:1;marker:none;visibility:visible;display:inline;overflow:visible;enable-background:accumulate" id="path2474" d="m 16,11.441 c -1.964568,0 -3.559,1.594432 -3.559,3.559 0,1.964568 1.594432,3.559 3.559,3.559 1.964568,0 3.559,-1.594432 3.559,-3.559 0,-1.964568 -1.594432,-3.559 -3.559,-3.559 z m 0,1.7795 c 0.982284,0 1.7795,0.797216 1.7795,1.7795 0,0.982284 -0.797216,1.7795 -1.7795,1.7795 -0.982284,0 -1.7795,-0.797216 -1.7795,-1.7795 0,-0.982284 0.797216,-1.7795 1.7795,-1.7795 z"/><g id="g3527" transform="matrix(0.444875,0,0,0.444875,5.323,4.3229999)"><path style="opacity:.8;fill:url(#linearGradient2480);fill-opacity:1;fill-rule:nonzero;stroke:none" id="path3296" d="M 15.856928,5.7307748 20.625,16.34375 C 21.660403,15.885186 22.795334,15.625 24,15.625 c 0.03206,0 0.06178,-3.6e-4 0.09375,0 L 24.10801,4.0047512 c -2.94215,-0.070687 -5.543041,0.6572865 -8.251083,1.7260236 z" transform="matrix(0.9996011,0.02824295,-0.02824295,0.9996011,0.6924114,-0.6708346)"/><path style="opacity:.8;fill:url(#linearGradient2482);fill-opacity:1;fill-rule:nonzero;stroke:none" id="path3308" d="m 12.121471,7.9060109 6.931026,9.3601041 c 0.913109,-0.669755 1.965938,-1.167064 3.142629,-1.425169 0.03132,-0.0069 0.06026,-0.01359 0.09157,-0.02009 L 19.857174,4.426276 c -2.888973,0.5613244 -5.31953,1.8556038 -7.735703,3.4797349 z"/><path style="opacity:.8;fill:url(#linearGradient2484);fill-opacity:1;fill-rule:nonzero;stroke:none" id="path3310" d="m 8.2523933,11.646535 9.2137237,7.155818 c 0.70865,-0.883264 1.596891,-1.636119 2.666685,-2.18998 0.02847,-0.01474 0.05469,-0.02872 0.08325,-0.0431 L 14.86585,6.2506132 C 12.220599,7.5405321 10.165881,9.452393 8.2523933,11.646535 z"/><path style="opacity:.8;fill:url(#linearGradient2486);fill-opacity:1;fill-rule:nonzero;stroke:none" id="path3312" d="m 5.6328855,16.073974 c 7.1748065,2.242248 7.8502625,7.031463 12.7767855,1.754127 L 10.499985,9.1321388 C 8.2787249,11.062747 6.9132871,13.459349 5.6328855,16.073974 z"/><path style="opacity:.8;fill:url(#linearGradient2488);fill-opacity:1;fill-rule:nonzero;stroke:none" id="path3314" d="M 7.155289,13.193173 C 5.9722117,14.945185 5.2475768,16.829547 4.6301929,18.837116 L 15.96875,21.8125 C 16.184264,21.049497 16.486796,20.297733 16.9375,19.59375 16.95479,19.56675 16.98246,19.52673 17,19.5 L 7.155289,13.193173 z"/></g><g id="g3297" transform="matrix(-0.444875,0,0,-0.444875,26.677,25.672922)"><path style="opacity:.8;fill:url(#linearGradient2492);fill-opacity:1;fill-rule:nonzero;stroke:none" id="path3299" d="M 15.856928,5.7307748 20.625,16.34375 C 21.660403,15.885186 22.795334,15.625 24,15.625 c 0.03206,0 0.06178,-3.6e-4 0.09375,0 L 24.10801,4.0047512 c -2.94215,-0.070687 -5.543041,0.6572865 -8.251083,1.7260236 z" transform="matrix(0.9996011,0.02824295,-0.02824295,0.9996011,0.6924114,-0.6708346)"/><path style="opacity:.8;fill:url(#linearGradient2494);fill-opacity:1;fill-rule:nonzero;stroke:none" id="path3301" d="m 12.121471,7.9060109 6.931026,9.3601041 c 0.913109,-0.669755 1.965938,-1.167064 3.142629,-1.425169 0.03132,-0.0069 0.06026,-0.01359 0.09157,-0.02009 L 19.857174,4.426276 c -2.888973,0.5613244 -5.31953,1.8556038 -7.735703,3.4797349 z"/><path style="opacity:.8;fill:url(#linearGradient2496);fill-opacity:1;fill-rule:nonzero;stroke:none" id="path3303" d="m 8.2523933,11.646535 9.2137237,7.155818 c 0.70865,-0.883264 1.596891,-1.636119 2.666685,-2.18998 0.02847,-0.01474 0.05469,-0.02872 0.08325,-0.0431 L 14.86585,6.2506132 C 12.220599,7.5405321 10.165881,9.452393 8.2523933,11.646535 z"/><path style="opacity:.8;fill:url(#linearGradient2498);fill-opacity:1;fill-rule:nonzero;stroke:none" id="path3305" d="m 5.6328855,16.073974 c 7.1748065,2.242248 7.8502625,7.031463 12.7767855,1.754127 L 10.499985,9.1321388 C 8.2787249,11.062747 6.9132871,13.459349 5.6328855,16.073974 z"/><path style="opacity:.8;fill:url(#linearGradient2500);fill-opacity:1;fill-rule:nonzero;stroke:none" id="path3307" d="M 7.155289,13.193173 C 5.9722117,14.945185 5.2475768,16.829547 4.6301929,18.837116 L 15.96875,21.8125 C 16.184264,21.049497 16.486796,20.297733 16.9375,19.59375 16.95479,19.56675 16.98246,19.52673 17,19.5 L 7.155289,13.193173 z"/></g><path style="opacity:.55;color:#000;fill:none;stroke:url(#linearGradient3165);stroke-width:1;stroke-linecap:round;stroke-linejoin:round;stroke-miterlimit:4;stroke-opacity:1;stroke-dasharray:none;stroke-dashoffset:0;marker:none;visibility:visible;display:inline;overflow:visible;enable-background:accumulate" id="path8655" d="M 24.499893,14.999699 C 24.499893,19.694271 20.694033,23.5 16,23.5 c -4.694462,0 -8.5001081,-3.805772 -8.5001081,-8.500301 0,-4.694354 3.8056461,-8.499698 8.5001081,-8.499698 4.694033,0 8.499893,3.805344 8.499893,8.499698 l 0,0 z"/><path style="opacity:.4;fill:none;stroke:url(#linearGradient3162);stroke-width:.99999976;stroke-miterlimit:4;stroke-opacity:1" id="path3281" d="m 16,19.5 c -2.494286,0 -4.5,-2.005714 -4.5,-4.500001 0,-2.494285 2.005714,-4.5 4.5,-4.5 2.494287,0 4.5,2.005715 4.5,4.5 C 20.5,17.494286 18.494287,19.5 16,19.5 l 0,0 0,0 z"/><path style="fill:none;stroke:url(#linearGradient3159);stroke-width:1.00000024;stroke-linecap:butt;stroke-linejoin:round;stroke-miterlimit:4;stroke-opacity:1;stroke-dasharray:none;stroke-dashoffset:0;marker:none;visibility:visible;display:inline;overflow:visible;enable-background:accumulate" id="path3418" d="m 15.999999,11.499999 c -1.932,0 -3.499999,1.568 -3.499999,3.500001 0,1.932 1.567999,3.499999 3.499999,3.499999 1.932001,0 3.5,-1.567999 3.5,-3.499999 0,-1.932001 -1.567999,-3.500001 -3.5,-3.500001 z m 0,1.750002 c 0.966001,0 1.75,0.783999 1.75,1.749999 0,0.966 -0.783999,1.75 -1.75,1.75 -0.965999,0 -1.749998,-0.784 -1.749998,-1.75 0,-0.965999 0.783999,-1.749999 1.749998,-1.749999 z"/></g></svg>