<svg xmlns="http://www.w3.org/2000/svg" xmlns:svg="http://www.w3.org/2000/svg" xmlns:xlink="http://www.w3.org/1999/xlink" id="svg3951" width="32" height="32" version="1.1"><defs id="defs3953"><linearGradient id="linearGradient3116" x1="-51.786" x2="-51.786" y1="50.786" y2="2.906" gradientTransform="matrix(0.53231992,0,0,0.58896333,39.343211,-0.77091136)" gradientUnits="userSpaceOnUse" xlink:href="#linearGradient3104-6-2"/><linearGradient id="linearGradient3104-6-2"><stop id="stop3106-3-4" offset="0" style="stop-color:#000;stop-opacity:.31782946"/><stop id="stop3108-9-9" offset="1" style="stop-color:#000;stop-opacity:.24031007"/></linearGradient><linearGradient id="linearGradient3154" x1="16.626" x2="20.055" y1="15.298" y2="24.628" gradientTransform="matrix(0.56446029,0,0,0.88104367,2.3718811,-1.9538595)" gradientUnits="userSpaceOnUse" xlink:href="#linearGradient8265-821-176-38-919-66-249-7-7"/><linearGradient id="linearGradient8265-821-176-38-919-66-249-7-7"><stop id="stop2687-1-9" offset="0" style="stop-color:#fff;stop-opacity:1"/><stop id="stop2689-5-4" offset="1" style="stop-color:#fff;stop-opacity:0"/></linearGradient><linearGradient id="linearGradient3157" x1="24" x2="24" y1="6.293" y2="41.852" gradientTransform="matrix(0.67567568,0,0,0.67567568,-0.2162134,-0.21620953)" gradientUnits="userSpaceOnUse" xlink:href="#linearGradient3924"/><linearGradient id="linearGradient3924"><stop id="stop3926" offset="0" style="stop-color:#fff;stop-opacity:1"/><stop id="stop3928" offset=".008" style="stop-color:#fff;stop-opacity:.23529412"/><stop id="stop3930" offset=".988" style="stop-color:#fff;stop-opacity:.15686275"/><stop id="stop3932" offset="1" style="stop-color:#fff;stop-opacity:.39215687"/></linearGradient><linearGradient id="linearGradient3124" x1="25.132" x2="25.132" y1=".985" y2="47.013" gradientTransform="matrix(0.61938547,0,0,0.59391629,1.1347482,0.83479223)" gradientUnits="userSpaceOnUse" xlink:href="#linearGradient3600-9-9"/><linearGradient id="linearGradient3600-9-9"><stop id="stop3602-3-7" offset="0" style="stop-color:#f4f4f4;stop-opacity:1"/><stop id="stop3604-7-3" offset="1" style="stop-color:#dbdbdb;stop-opacity:1"/></linearGradient><radialGradient id="radialGradient2976" cx="4.993" cy="43.5" r="2.5" fx="4.993" fy="43.5" gradientTransform="matrix(2.003784,0,0,1.4,27.98813,-17.4)" gradientUnits="userSpaceOnUse" xlink:href="#linearGradient3688-166-749"/><linearGradient id="linearGradient3688-166-749"><stop id="stop2883" offset="0" style="stop-color:#181818;stop-opacity:1"/><stop id="stop2885" offset="1" style="stop-color:#181818;stop-opacity:0"/></linearGradient><radialGradient id="radialGradient2978" cx="4.993" cy="43.5" r="2.5" fx="4.993" fy="43.5" gradientTransform="matrix(2.003784,0,0,1.4,-20.01187,-104.4)" gradientUnits="userSpaceOnUse" xlink:href="#linearGradient3688-464-309"/><linearGradient id="linearGradient3688-464-309"><stop id="stop2889" offset="0" style="stop-color:#181818;stop-opacity:1"/><stop id="stop2891" offset="1" style="stop-color:#181818;stop-opacity:0"/></linearGradient><linearGradient id="linearGradient2980" x1="25.058" x2="25.058" y1="47.028" y2="39.999" gradientUnits="userSpaceOnUse" xlink:href="#linearGradient3702-501-757"/><linearGradient id="linearGradient3702-501-757"><stop id="stop2895" offset="0" style="stop-color:#181818;stop-opacity:0"/><stop id="stop2897" offset=".5" style="stop-color:#181818;stop-opacity:1"/><stop id="stop2899" offset="1" style="stop-color:#181818;stop-opacity:0"/></linearGradient></defs><metadata id="metadata3956"/><g style="display:inline" id="g2036" transform="matrix(0.6999997,0,0,0.3333336,-0.8000003,15.33333)"><g style="opacity:.4" id="g3712" transform="matrix(1.052632,0,0,1.285713,-1.263158,-13.42854)"><rect style="fill:url(#radialGradient2976);fill-opacity:1;stroke:none" id="rect2801" width="5" height="7" x="38" y="40"/><rect style="fill:url(#radialGradient2978);fill-opacity:1;stroke:none" id="rect3696" width="5" height="7" x="-10" y="-47" transform="scale(-1,-1)"/><rect style="fill:url(#linearGradient2980);fill-opacity:1;stroke:none" id="rect3700" width="28" height="7" x="10" y="40"/></g></g><rect style="color:#000;display:inline;overflow:visible;visibility:visible;fill:url(#linearGradient3124);fill-opacity:1;fill-rule:nonzero;stroke:none;stroke-width:.99999994;marker:none;enable-background:accumulate" id="rect5505-21-8-5" width="25.92" height="25.92" x="3.04" y="3.04"/><rect style="fill:none;stroke:url(#linearGradient3157);stroke-width:1;stroke-linecap:round;stroke-linejoin:miter;stroke-miterlimit:4;stroke-dasharray:none;stroke-dashoffset:0;stroke-opacity:1" id="rect6741-7" width="25" height="25" x="3.5" y="3.5"/><path style="opacity:.4;fill:url(#linearGradient3154);fill-opacity:1;fill-rule:evenodd;stroke:none" id="path3333" d="m 2.9453323,3.0788478 0.00865,16.2500002 C 3.7019354,19.312476 28.377615,13.338754 28.945332,13.051412 l 0,-9.9725642 z"/><path style="color:#000;display:inline;overflow:visible;visibility:visible;opacity:.3;fill:#fff;fill-opacity:1;fill-rule:nonzero;stroke:none;stroke-width:1;marker:none;enable-background:accumulate" id="path7249-8-0-0" d="m 16.467121,7.0001419 c -0.539306,-0.077588 -0.453358,0.4219277 -0.444835,0.7731003 -0.0059,4.1691958 0.01172,8.3406718 -0.0088,12.5084438 -0.145,0.324522 -0.552117,0.0099 -0.801117,0.07215 -1.734176,-0.05405 -3.601662,1.194576 -3.847003,3.03023 -0.253255,1.378856 1.032041,2.593171 2.32157,2.614885 1.917831,0.05257 3.577865,-1.878734 3.334262,-3.814617 0.0065,-3.328297 -0.01298,-6.659269 0.0097,-9.985901 0.131388,-0.316182 0.485595,-0.01847 0.650972,0.09458 1.521163,0.920301 2.850472,2.446294 2.944681,4.327944 0.0815,1.08847 -0.146638,2.173024 -0.460318,3.207202 1.398377,-2.300702 1.322661,-5.50375 -0.405142,-7.605355 C 18.430598,10.834423 17.18144,9.177685 16.927563,7.191724 16.878603,7.0050567 16.621013,7.0074936 16.467121,7.0001419 Z"/><path style="color:#000;display:inline;overflow:visible;visibility:visible;opacity:.2;fill:#000;fill-opacity:1;fill-rule:nonzero;stroke:none;stroke-width:1;marker:none;enable-background:accumulate" id="path7249-8-0" d="m 16.467121,6.0001425 c -0.539306,-0.077588 -0.453358,0.4219277 -0.444835,0.7731003 -0.0059,4.1691952 0.01172,8.3406712 -0.0088,12.5084432 -0.145,0.324522 -0.552117,0.0099 -0.801117,0.07215 -1.734176,-0.05405 -3.601662,1.194576 -3.847003,3.03023 -0.253255,1.378856 1.032041,2.593171 2.32157,2.614885 1.917831,0.05257 3.577865,-1.878734 3.334262,-3.814617 0.0065,-3.328297 -0.01298,-6.659269 0.0097,-9.985901 0.131388,-0.316182 0.485595,-0.01847 0.650972,0.09458 1.521163,0.920301 2.850472,2.446294 2.944681,4.327944 0.0815,1.08847 -0.146638,2.173024 -0.460318,3.207202 1.398377,-2.300702 1.322661,-5.50375 -0.405142,-7.605355 C 18.430598,9.834423 17.18144,8.1776853 16.927563,6.1917246 16.878598,6.0050573 16.621013,6.0074942 16.467121,6.0001425 Z"/><rect style="color:#000;display:inline;overflow:visible;visibility:visible;fill:none;stroke:url(#linearGradient3116);stroke-width:.99992174;stroke-linecap:butt;stroke-linejoin:round;stroke-miterlimit:4;stroke-dasharray:none;stroke-dashoffset:0;stroke-opacity:1;marker:none;enable-background:accumulate" id="rect5505-21-8-6" width="27" height="27" x="2.5" y="2.5"/></svg>