<svg xmlns="http://www.w3.org/2000/svg" xmlns:svg="http://www.w3.org/2000/svg" xmlns:xlink="http://www.w3.org/1999/xlink" id="svg3911" width="32" height="32" version="1.1"><defs id="defs3913"><linearGradient id="linearGradient3977"><stop id="stop3979" offset="0" style="stop-color:#fff;stop-opacity:1"/><stop id="stop3981" offset=".036" style="stop-color:#fff;stop-opacity:.23529412"/><stop id="stop3983" offset=".951" style="stop-color:#fff;stop-opacity:.15686275"/><stop id="stop3985" offset="1" style="stop-color:#fff;stop-opacity:.39215687"/></linearGradient><linearGradient id="linearGradient2867-449-88-871-390-598-476-591-434-148-57-177-8-3"><stop id="stop3750-1-0" offset="0" style="stop-color:#90dbec;stop-opacity:1"/><stop id="stop3752-3-7" offset=".262" style="stop-color:#55c1ec;stop-opacity:1"/><stop id="stop3754-1-8" offset=".705" style="stop-color:#3689e6;stop-opacity:1"/><stop id="stop3756-1-6" offset="1" style="stop-color:#2b63a0;stop-opacity:1"/></linearGradient><linearGradient id="linearGradient5060"><stop id="stop5062" offset="0" style="stop-color:#000;stop-opacity:1"/><stop id="stop5064" offset="1" style="stop-color:#000;stop-opacity:0"/></linearGradient><linearGradient id="linearGradient5048"><stop id="stop5050" offset="0" style="stop-color:#000;stop-opacity:0"/><stop id="stop5056" offset=".5" style="stop-color:#000;stop-opacity:1"/><stop id="stop5052" offset="1" style="stop-color:#000;stop-opacity:0"/></linearGradient><linearGradient id="linearGradient3019" x1="24" x2="24" y1="5.564" y2="43" gradientTransform="matrix(0.56756757,0,0,0.72972971,2.378382,-2.5135063)" gradientUnits="userSpaceOnUse" xlink:href="#linearGradient3977"/><radialGradient id="radialGradient3022" cx="7.806" cy="9.957" r="12.672" fx="7.276" fy="9.957" gradientTransform="matrix(-1.0624208e-7,4.3506752,-5.3177267,-1.3059556e-7,68.942119,-39.41615)" gradientUnits="userSpaceOnUse" xlink:href="#linearGradient2867-449-88-871-390-598-476-591-434-148-57-177-8-3"/><radialGradient id="radialGradient3025" cx="605.714" cy="486.648" r="117.143" fx="605.714" fy="486.648" gradientTransform="matrix(0.01566318,0,0,0.00823529,17.610433,25.980565)" gradientUnits="userSpaceOnUse" xlink:href="#linearGradient5060"/><radialGradient id="radialGradient3028" cx="605.714" cy="486.648" r="117.143" fx="605.714" fy="486.648" gradientTransform="matrix(-0.01566318,0,0,0.00823529,14.389566,25.980565)" gradientUnits="userSpaceOnUse" xlink:href="#linearGradient5060"/><linearGradient id="linearGradient3031" x1="302.857" x2="302.857" y1="366.648" y2="609.505" gradientTransform="matrix(0.04576928,0,0,0.00823529,-0.5423243,25.980548)" gradientUnits="userSpaceOnUse" xlink:href="#linearGradient5048"/></defs><metadata id="metadata3916"/><rect id="rect2879" width="22.1" height="2" x="4.95" y="29" style="opacity:.15;fill:url(#linearGradient3031);fill-opacity:1;fill-rule:nonzero;stroke:none;stroke-width:1;marker:none;visibility:visible;display:inline;overflow:visible"/><path id="path2881" d="m 4.9499887,29.000086 c 0,0 0,1.99989 0,1.99989 -0.806615,0.0038 -1.950002,-0.448074 -1.950002,-1.000074 0,-0.552 0.900121,-0.999816 1.950002,-0.999816 z" style="opacity:.15;fill:url(#radialGradient3028);fill-opacity:1;fill-rule:nonzero;stroke:none;stroke-width:1;marker:none;visibility:visible;display:inline;overflow:visible"/><path id="path2883" d="m 27.050011,29.000086 c 0,0 0,1.99989 0,1.99989 0.806614,0.0038 1.950002,-0.448074 1.950002,-1.000074 0,-0.552 -0.900122,-0.999816 -1.950002,-0.999816 z" style="opacity:.15;fill:url(#radialGradient3025);fill-opacity:1;fill-rule:nonzero;stroke:none;stroke-width:1;marker:none;visibility:visible;display:inline;overflow:visible"/><path id="path4160" d="m 4.4999935,0.49999782 c 5.270467,0 22.9999725,0.00185 22.9999725,0.00185 l 2.8e-5,28.99815418 c 0,0 -15.333333,0 -23.0000005,0 0,-9.666667 0,-19.333334 0,-29.00000008 z" style="color:#000;fill:url(#radialGradient3022);fill-opacity:1;fill-rule:nonzero;stroke:none;stroke-width:1;marker:none;visibility:visible;display:inline;overflow:visible;enable-background:accumulate"/><path id="rect6741-1" d="m 26.5,28.5 -21,0 0,-27 21,0 z" style="opacity:.5;fill:none;stroke:url(#linearGradient3019);stroke-width:.99999994;stroke-linecap:round;stroke-linejoin:round;stroke-miterlimit:4;stroke-opacity:1;stroke-dasharray:none;stroke-dashoffset:0"/><path id="path4160-3-4" d="m 4.499961,0.49996093 c 5.270482,0 23.000037,0.00185 23.000037,0.00185 l 2.8e-5,28.99822807 c 0,0 -15.333376,0 -23.000065,0 0,-9.666692 0,-19.333383 0,-29.00007387 z" style="opacity:.3;fill:none;stroke:#000;stroke-width:.99992186;stroke-linecap:butt;stroke-linejoin:round;stroke-miterlimit:4;stroke-opacity:1;stroke-dasharray:none;stroke-dashoffset:0;display:inline"/><path id="path4323-0" d="m 22.579314,10.097903 c -0.06596,0.03243 -0.124513,0.137627 -0.181495,0.308615 -0.151952,0.455969 -1.221158,3.605865 -7.277925,3.757854 -2.890197,0.07189 -4.119923,-2.468927 -4.119923,-2.468927 l -0.0726,3.267698 c 0,0 0.310662,0.728214 -0.308541,1.488618 -0.03366,-0.05261 -0.05378,-0.112143 -0.09075,-0.163385 -0.222862,-0.308918 -0.484118,-0.568858 -0.7622763,-0.762463 -0.3196044,-0.222452 -0.6520458,-0.369325 -0.9800698,-0.417539 -0.3781774,-0.05558 -0.743961,0.02633 -1.0345181,0.236001 -0.2906455,0.209731 -0.459844,0.53105 -0.5263338,0.907693 -0.057641,0.326517 -0.037642,0.679488 0.072598,1.052925 0.095955,0.325047 0.2491221,0.653227 0.4718854,0.962156 0.2353341,0.326362 0.5285193,0.615364 0.8348743,0.816924 0.3455049,0.227319 0.7117972,0.360483 1.070817,0.381232 0.1110983,0.0064 0.2246087,-0.02083 0.3266893,-0.03631 2.325353,1.843903 6.940941,3.706474 10.000342,1.739371 0.06618,0.02253 0.133121,0.04962 0.199644,0.07261 0.0016,0.0315 -0.0083,0.06271 0,0.09077 l 0.145195,-0.05446 c 0.453439,0.239895 1.020375,0.401765 1.524554,0.580925 -0.05659,0.47907 0.180304,0.881109 0.780426,1.110788 1.080756,0.413626 2.087186,0.944001 2.087186,0.944001 -0.515533,-1.750398 -0.637834,-3.064649 -1.974517,-3.162617 -0.226995,-0.01664 -0.509507,0.210682 -0.580782,0.272308 l -1.216013,-0.780616 -0.05445,0 -0.01815,-0.01815 c 1.637521,-1.611954 2.518714,-4.510693 1.938218,-9.781099 -0.0336,-0.26338 -0.144153,-0.398972 -0.254092,-0.344924 z" style="opacity:.3;color:#000;fill:#10283f;fill-opacity:.63137255;fill-rule:nonzero;stroke:none;stroke-width:.99999994;marker:none;visibility:visible;display:inline;overflow:visible;enable-background:accumulate"/><path id="path4323" d="m 22.579314,9.0983217 c -0.06596,0.03243 -0.124513,0.137627 -0.181495,0.308615 -0.151952,0.455969 -1.221158,3.6058643 -7.277925,3.7578533 -2.890197,0.07189 -4.119923,-2.468927 -4.119923,-2.468927 l -0.0726,3.267698 c 0,0 0.310662,0.728214 -0.308541,1.488618 -0.03366,-0.05261 -0.05378,-0.112143 -0.09075,-0.163385 -0.222862,-0.308918 -0.484118,-0.568858 -0.7622763,-0.762463 -0.3196044,-0.222452 -0.6520458,-0.369325 -0.9800698,-0.417539 -0.3781774,-0.05558 -0.743961,0.02633 -1.0345181,0.236001 -0.2906455,0.209731 -0.459844,0.53105 -0.5263338,0.907693 -0.057641,0.326517 -0.037642,0.679488 0.072598,1.052925 0.095955,0.325047 0.2491221,0.653227 0.4718854,0.962156 0.2353341,0.326362 0.5285193,0.615364 0.8348743,0.816924 0.3455049,0.227319 0.7117972,0.360483 1.070817,0.381232 0.1110983,0.0064 0.2246087,-0.02083 0.3266893,-0.03631 2.325353,1.843903 6.940941,3.706474 10.000342,1.739371 0.06618,0.02253 0.133121,0.04962 0.199644,0.07261 0.0016,0.0315 -0.0083,0.06271 0,0.09077 l 0.145195,-0.05446 c 0.453439,0.239895 1.020375,0.401765 1.524554,0.580925 -0.05659,0.47907 0.180304,0.881109 0.780426,1.110788 1.080756,0.413626 2.087186,0.944001 2.087186,0.944001 -0.515533,-1.750398 -0.637834,-3.064649 -1.974517,-3.162617 -0.226995,-0.01664 -0.509507,0.210682 -0.580782,0.272308 l -1.216013,-0.780616 -0.05445,0 -0.01815,-0.01815 c 1.637521,-1.611954 2.518714,-4.510693 1.938218,-9.7810983 -0.0336,-0.26338 -0.144153,-0.398972 -0.254092,-0.344924 z" style="color:#000;fill:#fff;fill-opacity:1;fill-rule:nonzero;stroke:none;stroke-width:.99999994;marker:none;visibility:visible;display:inline;overflow:visible;enable-background:accumulate"/></svg>