<svg xmlns="http://www.w3.org/2000/svg" xmlns:svg="http://www.w3.org/2000/svg" xmlns:xlink="http://www.w3.org/1999/xlink" id="svg3182" width="32" height="32" version="1.1"><defs id="defs3184"><linearGradient id="linearGradient3977"><stop id="stop3979" offset="0" style="stop-color:#fff;stop-opacity:1"/><stop id="stop3981" offset=".036" style="stop-color:#fff;stop-opacity:.23529412"/><stop id="stop3983" offset=".951" style="stop-color:#fff;stop-opacity:.15686275"/><stop id="stop3985" offset="1" style="stop-color:#fff;stop-opacity:.39215687"/></linearGradient><linearGradient id="linearGradient3600-4"><stop id="stop3602-7" offset="0" style="stop-color:#f4f4f4;stop-opacity:1"/><stop id="stop3604-6" offset="1" style="stop-color:#dbdbdb;stop-opacity:1"/></linearGradient><linearGradient id="linearGradient3104-5"><stop id="stop3106-6" offset="0" style="stop-color:#a0a0a0;stop-opacity:1"/><stop id="stop3108-9" offset="1" style="stop-color:#bebebe;stop-opacity:1"/></linearGradient><linearGradient id="linearGradient5060"><stop id="stop5062" offset="0" style="stop-color:#000;stop-opacity:1"/><stop id="stop5064" offset="1" style="stop-color:#000;stop-opacity:0"/></linearGradient><linearGradient id="linearGradient5048"><stop id="stop5050" offset="0" style="stop-color:#000;stop-opacity:0"/><stop id="stop5056" offset=".5" style="stop-color:#000;stop-opacity:1"/><stop id="stop5052" offset="1" style="stop-color:#000;stop-opacity:0"/></linearGradient><linearGradient id="linearGradient3104"><stop id="stop3106" offset="0" style="stop-color:#aaa;stop-opacity:1"/><stop id="stop3108" offset="1" style="stop-color:#c8c8c8;stop-opacity:1"/></linearGradient><linearGradient id="linearGradient3707-319-631-407-324-3"><stop id="stop3760-4" offset="0" style="stop-color:#185f9a;stop-opacity:1"/><stop id="stop3762-0" offset="1" style="stop-color:#599ec9;stop-opacity:1"/></linearGradient><linearGradient id="linearGradient2867-449-88-871-390-598-476-591-434-148-57-177-8"><stop id="stop3750-1" offset="0" style="stop-color:#90dbec;stop-opacity:1"/><stop id="stop3752-3" offset=".262" style="stop-color:#55c1ec;stop-opacity:1"/><stop id="stop3754-1" offset=".705" style="stop-color:#3689e6;stop-opacity:1"/><stop id="stop3756-1" offset="1" style="stop-color:#2b63a0;stop-opacity:1"/></linearGradient><linearGradient id="linearGradient3977-6"><stop id="stop3979-9" offset="0" style="stop-color:#fff;stop-opacity:1"/><stop id="stop3981-3" offset=".036" style="stop-color:#fff;stop-opacity:.23529412"/><stop id="stop3983-7" offset=".951" style="stop-color:#fff;stop-opacity:.15686275"/><stop id="stop3985-4" offset="1" style="stop-color:#fff;stop-opacity:.39215687"/></linearGradient><linearGradient id="linearGradient3167" x1="24" x2="24" y1="5.564" y2="43" gradientTransform="matrix(0.66891894,0,0,0.72972973,1.8209495,-2.513506)" gradientUnits="userSpaceOnUse" xlink:href="#linearGradient3977-6"/><radialGradient id="radialGradient3170" cx="7.806" cy="9.957" r="12.672" fx="7.276" fy="9.957" gradientTransform="matrix(-1.1778817e-7,4.3521887,-5.895642,-1.3064099e-7,75.941947,-39.43508)" gradientUnits="userSpaceOnUse" xlink:href="#linearGradient2867-449-88-871-390-598-476-591-434-148-57-177-8"/><linearGradient id="linearGradient3172" x1="25" x2="25" y1="47.935" y2=".918" gradientTransform="matrix(0.72855758,0,0,0.65923624,-0.23915744,0.16688039)" gradientUnits="userSpaceOnUse" xlink:href="#linearGradient3707-319-631-407-324-3"/><linearGradient id="linearGradient3175" x1="21.982" x2="21.982" y1="36.042" y2="6.042" gradientTransform="translate(-2.9820961,-6.0420673)" gradientUnits="userSpaceOnUse" xlink:href="#linearGradient3104"/><linearGradient id="linearGradient3178" x1="24" x2="24" y1="5.564" y2="43" gradientTransform="matrix(0.56756757,0,0,0.72972971,2.378382,-2.5135063)" gradientUnits="userSpaceOnUse" xlink:href="#linearGradient3977"/><linearGradient id="linearGradient3181" x1="25.132" x2="25.132" y1=".985" y2="47.013" gradientTransform="matrix(0.65714319,0,0,0.63012397,0.228556,-1.0896478)" gradientUnits="userSpaceOnUse" xlink:href="#linearGradient3600-4"/><linearGradient id="linearGradient3183" x1="-51.786" x2="-51.786" y1="50.786" y2="2.906" gradientTransform="matrix(0.53064102,0,0,0.58970216,39.269585,-1.7919079)" gradientUnits="userSpaceOnUse" xlink:href="#linearGradient3104-5"/><radialGradient id="radialGradient3186" cx="605.714" cy="486.648" r="117.143" fx="605.714" fy="486.648" gradientTransform="matrix(0.01566318,0,0,0.00823529,17.610433,25.980565)" gradientUnits="userSpaceOnUse" xlink:href="#linearGradient5060"/><radialGradient id="radialGradient3189" cx="605.714" cy="486.648" r="117.143" fx="605.714" fy="486.648" gradientTransform="matrix(-0.01566318,0,0,0.00823529,14.389566,25.980565)" gradientUnits="userSpaceOnUse" xlink:href="#linearGradient5060"/><linearGradient id="linearGradient3192" x1="302.857" x2="302.857" y1="366.648" y2="609.505" gradientTransform="matrix(0.04576928,0,0,0.00823529,-0.5423243,25.980548)" gradientUnits="userSpaceOnUse" xlink:href="#linearGradient5048"/></defs><metadata id="metadata3187"/><rect id="rect2879" width="22.1" height="2" x="4.95" y="29" style="opacity:.15;fill:url(#linearGradient3192);fill-opacity:1;fill-rule:nonzero;stroke:none;stroke-width:1;marker:none;visibility:visible;display:inline;overflow:visible"/><path id="path2881" d="m 4.9499887,29.000086 c 0,0 0,1.99989 0,1.99989 -0.806615,0.0038 -1.950002,-0.448074 -1.950002,-1.000074 0,-0.552 0.900121,-0.999816 1.950002,-0.999816 z" style="opacity:.15;fill:url(#radialGradient3189);fill-opacity:1;fill-rule:nonzero;stroke:none;stroke-width:1;marker:none;visibility:visible;display:inline;overflow:visible"/><path id="path2883" d="m 27.050011,29.000086 c 0,0 0,1.99989 0,1.99989 0.806614,0.0038 1.950002,-0.448074 1.950002,-1.000074 0,-0.552 -0.900122,-0.999816 -1.950002,-0.999816 z" style="opacity:.15;fill:url(#radialGradient3186);fill-opacity:1;fill-rule:nonzero;stroke:none;stroke-width:1;marker:none;visibility:visible;display:inline;overflow:visible"/><path id="path4160-3" d="m 4.499961,0.49996093 c 5.270482,0 23.000037,0.00185 23.000037,0.00185 l 2.8e-5,28.99822807 c 0,0 -15.333376,0 -23.000065,0 0,-9.666692 0,-19.333383 0,-29.00007387 z" style="fill:url(#linearGradient3181);fill-opacity:1;stroke:url(#linearGradient3183);stroke-width:.99992186;stroke-linecap:butt;stroke-linejoin:round;stroke-miterlimit:4;stroke-opacity:1;stroke-dasharray:none;stroke-dashoffset:0;display:inline"/><path id="rect6741-1" d="m 26.5,28.5 -21,0 0,-27 21,0 z" style="fill:none;stroke:url(#linearGradient3178);stroke-width:.99999994;stroke-linecap:round;stroke-linejoin:round;stroke-miterlimit:4;stroke-opacity:1;stroke-dasharray:none;stroke-dashoffset:0"/><path id="path2609" d="m 11.000125,5.5050057 1.343625,0 z m 1.687375,0 2.1875,0 z m 2.53125,0 1.9375,0 z m 2.25,0 0.84375,0 z m 1.1875,0 1.875,0 z m 2.25,0 3.09375,0 z m -9.906125,2 2.656125,0 z m 3.062375,0 1.75,0 z m 2.0625,0 0.875,0 z m 1.21875,0 1.59375,0 z m 1.9375,0 1.625,0 z m 1.9375,0 2.59375,0 z m -10.218625,1.9949953 3.281125,0 z m 3.624875,0 4.625,0 z m 4.9375,0 1.84375,0 z M 11.000125,11.5 l 1.59375,0 z m 1.093625,0 5.90625,0 z m -1.093625,3.037243 2.093625,0 z m 2.406125,0 5.0625,0 z m 5.375,0 2.46875,0 z m 2.78125,0 2.3125,0 z M 11.000125,16.5 l 1.343625,0 z m 1.687375,0 2.15625,0 z m 2.53125,0 1.9375,0 z m 2.25,0 0.84375,0 z m 1.1875,0 1.875,0 z m 2.25,0 3.09375,0 z m -9.906125,2.075342 3.281125,0 z m 3.624875,0 4.625,0 z m 4.9375,0 1.84375,0 z M 11.000125,21.5 l 2.093625,0 z m 2.406125,0 5.0625,0 z m 5.375,0 2.46875,0 z m -7.781125,2 2.874875,0 z m 3.218625,0 1.21875,0 z m 1.53125,0 2.78125,0 z m 3.09375,0 4.09375,0 z m -7.843625,2 2.874875,0 z m 3.218625,0 1.75,0 z m 2.0625,0 2.75,0 z m 3.0625,0 2.96875,0 z" style="fill:none;stroke:url(#linearGradient3175);stroke-width:1px;stroke-linecap:butt;stroke-linejoin:miter;stroke-opacity:1"/><path id="path4530" d="m 8.5,29.5 c -1.278153,0 -2.5563067,0 -3.8344663,0 -0.3106671,-0.343376 -0.074432,-1.025114 -0.1482461,-1.511227 0,-9.107381 0,-18.2147618 0,-27.32213941 l 0.043327,-0.1179354 0.10492,-0.048698 0,0 c 1.3302995,0 2.4520282,0 3.7823213,0" style="color:#000;fill:url(#radialGradient3170);fill-opacity:1;fill-rule:nonzero;stroke:url(#linearGradient3172);stroke-width:1;stroke-linecap:butt;stroke-linejoin:round;stroke-miterlimit:4;stroke-opacity:1;stroke-dasharray:none;stroke-dashoffset:0;marker:none;visibility:visible;display:inline;overflow:visible;enable-background:accumulate"/><path id="rect6741-1-5" d="m 8.4999998,28.5 -3,0 0,-27.0000001 3,0" style="opacity:.5;fill:none;stroke:url(#linearGradient3167);stroke-width:.99999994;stroke-linecap:butt;stroke-linejoin:round;stroke-miterlimit:4;stroke-opacity:1;stroke-dasharray:none;stroke-dashoffset:0"/></svg>