<svg xmlns="http://www.w3.org/2000/svg" xmlns:svg="http://www.w3.org/2000/svg" xmlns:xlink="http://www.w3.org/1999/xlink" id="svg2985" width="32" height="32" version="1.1"><metadata id="metadata129341"/><defs id="defs2987"><linearGradient id="linearGradient2886" x1="44.995" x2="3.005" y1="17.5" y2="17.5" gradientTransform="matrix(0.70749164,0,0,0.69402746,-0.97979919,-1.6454802)" gradientUnits="userSpaceOnUse" spreadMethod="reflect" xlink:href="#linearGradient3275"/><linearGradient id="linearGradient3275"><stop id="stop3277" offset="0" style="stop-color:#fff;stop-opacity:0"/><stop id="stop3283" offset=".245" style="stop-color:#fff;stop-opacity:1"/><stop id="stop3285" offset=".774" style="stop-color:#fff;stop-opacity:1"/><stop id="stop3279" offset="1" style="stop-color:#fff;stop-opacity:0"/></linearGradient><linearGradient id="linearGradient2889" x1="26" x2="26" y1="22" y2="8" gradientTransform="matrix(0.99999976,0,0,0.71428568,-7.9999942,-1.7142862)" gradientUnits="userSpaceOnUse" xlink:href="#linearGradient2909"/><linearGradient id="linearGradient2909"><stop id="stop2911" offset="0" style="stop-color:#fff;stop-opacity:1"/><stop id="stop2913" offset=".302" style="stop-color:#fff;stop-opacity:1"/><stop id="stop2915" offset=".397" style="stop-color:#fff;stop-opacity:.6901961"/><stop id="stop2917" offset="1" style="stop-color:#fff;stop-opacity:0"/></linearGradient><linearGradient id="linearGradient2892" x1="23.452" x2="43.007" y1="30.555" y2="45.934" gradientTransform="matrix(0.90694933,0,0,0.81526518,-5.2693853,-5.0638302)" gradientUnits="userSpaceOnUse" xlink:href="#linearGradient4559"/><linearGradient id="linearGradient4559"><stop id="stop4561" offset="0" style="stop-color:#fff;stop-opacity:0"/><stop id="stop4563" offset="1" style="stop-color:#fff;stop-opacity:0"/></linearGradient><linearGradient id="linearGradient2895" x1="24.823" x2="24.997" y1="15.378" y2="37.277" gradientTransform="matrix(0.90694933,0,0,1.0807825,-5.2693853,-11.995491)" gradientUnits="userSpaceOnUse" xlink:href="#linearGradient3199"/><linearGradient id="linearGradient3199"><stop id="stop3201" offset="0" style="stop-color:#dac197;stop-opacity:1"/><stop id="stop3203" offset=".239" style="stop-color:#c1a581;stop-opacity:1"/><stop id="stop3205" offset=".276" style="stop-color:#dbc298;stop-opacity:1"/><stop id="stop3207" offset="1" style="stop-color:#a68b60;stop-opacity:1"/></linearGradient><linearGradient id="linearGradient2897" x1="15.464" x2="15.464" y1="7.976" y2="45.042" gradientTransform="matrix(0.70732457,0,0,0.69402746,-0.97578945,-1.3832872)" gradientUnits="userSpaceOnUse" xlink:href="#linearGradient3295"/><linearGradient id="linearGradient3295"><stop id="stop3297" offset="0" style="stop-color:#c9af8b;stop-opacity:1"/><stop id="stop3299" offset=".239" style="stop-color:#ad8757;stop-opacity:1"/><stop id="stop3301" offset=".276" style="stop-color:#c2a57f;stop-opacity:1"/><stop id="stop3303" offset="1" style="stop-color:#9d7d53;stop-opacity:1"/></linearGradient><radialGradient id="radialGradient2903" cx="5" cy="41.5" r="5" fx="5" fy="41.5" gradientTransform="matrix(0.5938225,0,0,1.5366531,-6.6594735,-103.93618)" gradientUnits="userSpaceOnUse" xlink:href="#linearGradient3681"/><linearGradient id="linearGradient3681"><stop id="stop3683" offset="0" style="stop-color:#000;stop-opacity:1"/><stop id="stop3685" offset="1" style="stop-color:#000;stop-opacity:0"/></linearGradient><linearGradient id="linearGradient2905" x1="17.554" x2="17.554" y1="46" y2="35" gradientTransform="matrix(1.7570316,0,0,1.3969574,-17.394014,-16.411698)" gradientUnits="userSpaceOnUse" xlink:href="#linearGradient3703"/><linearGradient id="linearGradient3703"><stop id="stop3705" offset="0" style="stop-color:#000;stop-opacity:0"/><stop id="stop3711" offset=".5" style="stop-color:#000;stop-opacity:1"/><stop id="stop3707" offset="1" style="stop-color:#000;stop-opacity:0"/></linearGradient><radialGradient id="radialGradient2983" cx="5" cy="41.5" r="5" fx="5" fy="41.5" gradientTransform="matrix(0.5938225,0,0,1.5366531,41.140892,-103.93618)" gradientUnits="userSpaceOnUse" xlink:href="#linearGradient3681"/></defs><g id="layer1"><g id="g3305" transform="matrix(0.6905424,0,0,0.6781532,-0.50408884,-0.4485072)" style="opacity:.4;display:inline"><rect id="rect2484" width="2.96" height="15.367" x="-3.69" y="-47.848" transform="scale(-1,-1)" style="fill:url(#radialGradient2903);fill-opacity:1;stroke:none"/><rect id="rect2486" width="40.412" height="15.367" x="3.69" y="32.482" style="fill:url(#linearGradient2905);fill-opacity:1;stroke:none"/><rect id="rect3444" width="2.96" height="15.367" x="44.11" y="-47.848" transform="scale(1,-1)" style="fill:url(#radialGradient2983);fill-opacity:1;stroke:none;display:inline"/></g><path id="path2488" d="m 5.3977176,4.5159458 20.8644634,0 c 1.218003,0 1.766136,-0.198873 2.116,0.694028 l 2.1232,5.2900262 0,18.080594 c 0,1.078035 0.0728,0.913323 -1.145203,0.913323 l -26.712355,0 c -1.2180076,0 -1.1452034,0.164712 -1.1452034,-0.913323 l 0,-18.080594 2.1232007,-5.2900262 c 0.3401041,-0.874865 0.5578898,-0.694028 1.7758973,-0.694028 z" style="fill:url(#linearGradient2895);fill-opacity:1;fill-rule:nonzero;stroke:url(#linearGradient2897);stroke-width:.99420077;stroke-linecap:round;stroke-linejoin:miter;stroke-miterlimit:4;stroke-opacity:1;stroke-dasharray:none;stroke-dashoffset:0;marker:none;visibility:visible;display:block;overflow:visible"/><path id="path2490" d="m 6.0608126,5.2189598 19.5595564,0 c 1.141828,0 1.848507,0.38625 2.326758,1.447759 l 1.647317,4.4554642 0,16.062958 c 0,1.013748 -0.579128,1.524144 -1.72096,1.524144 l -23.8603237,0 c -1.1418295,0 -1.6075904,-0.561349 -1.6075904,-1.575099 l 0,-16.012003 1.5941757,-4.5509892 c 0.3188353,-0.822694 0.919235,-1.352234 2.061067,-1.352234 z" style="opacity:.50549454;fill:none;stroke:url(#linearGradient2892);stroke-width:.74211526;stroke-linecap:butt;stroke-linejoin:miter;stroke-miterlimit:4;stroke-opacity:1;stroke-dasharray:none;stroke-dashoffset:0;marker:none;visibility:visible;display:block;overflow:visible"/><path id="rect3326" d="m 14,3.9999998 c 1.333332,0 2.666666,0 4,0 0,3.333333 0,6.6666662 0,10.0000002 -0.393729,0 -0.787459,0 -1.181187,0 -0.403125,0 -0.806249,0 -1.209374,0 -0.324531,0 -0.649058,0 -0.973587,0 -0.211951,0 -0.4239,0 -0.635852,0 0,-3.333334 0,-6.6666672 0,-10.0000002 z" style="opacity:.4;fill:url(#linearGradient2889);fill-opacity:1;fill-rule:nonzero;stroke:none;stroke-width:1;marker:none;visibility:visible;display:inline;overflow:visible;enable-background:accumulate"/><path id="path3273" d="m 1.5001181,10.5 28.9997639,0" style="opacity:.4;fill:none;stroke:url(#linearGradient2886);stroke-width:.99999994px;stroke-linecap:square;stroke-linejoin:miter;stroke-opacity:1;display:inline"/></g></svg>