<svg xmlns="http://www.w3.org/2000/svg" xmlns:svg="http://www.w3.org/2000/svg" xmlns:xlink="http://www.w3.org/1999/xlink" id="svg3155" width="32" height="32" version="1.1"><defs id="defs3157"><linearGradient id="linearGradient3084" x1="22.004" x2="22.004" y1="47.813" y2="3.364" gradientTransform="matrix(0.66858377,0,0,0.67036989,-0.6796189,-2.3082683)" gradientUnits="userSpaceOnUse" xlink:href="#linearGradient3104-5"/><linearGradient id="linearGradient3104-5"><stop style="stop-color:#aaa;stop-opacity:1" id="stop3106-2" offset="0"/><stop style="stop-color:#c8c8c8;stop-opacity:1" id="stop3108-5" offset="1"/></linearGradient><linearGradient id="linearGradient3013" x1="24" x2="24" y1="5.564" y2="43" gradientTransform="matrix(0.56756757,0,0,0.72972971,2.378382,-2.5135063)" gradientUnits="userSpaceOnUse" xlink:href="#linearGradient3977"/><linearGradient id="linearGradient3977"><stop style="stop-color:#fff;stop-opacity:1" id="stop3979" offset="0"/><stop style="stop-color:#fff;stop-opacity:.23529412" id="stop3981" offset=".036"/><stop style="stop-color:#fff;stop-opacity:.15686275" id="stop3983" offset=".951"/><stop style="stop-color:#fff;stop-opacity:.39215687" id="stop3985" offset="1"/></linearGradient><linearGradient id="linearGradient3016" x1="25.132" x2="25.132" y1=".985" y2="47.013" gradientTransform="matrix(0.65714319,0,0,0.63012397,0.228556,-1.0896478)" gradientUnits="userSpaceOnUse" xlink:href="#linearGradient3600-4"/><linearGradient id="linearGradient3600-4"><stop style="stop-color:#f4f4f4;stop-opacity:1" id="stop3602-7" offset="0"/><stop style="stop-color:#dbdbdb;stop-opacity:1" id="stop3604-6" offset="1"/></linearGradient><radialGradient id="radialGradient3021" cx="605.714" cy="486.648" r="117.143" fx="605.714" fy="486.648" gradientTransform="matrix(0.01566318,0,0,0.00823529,17.610433,25.980565)" gradientUnits="userSpaceOnUse" xlink:href="#linearGradient5060"/><linearGradient id="linearGradient5060"><stop style="stop-color:#000;stop-opacity:1" id="stop5062" offset="0"/><stop style="stop-color:#000;stop-opacity:0" id="stop5064" offset="1"/></linearGradient><radialGradient id="radialGradient3024" cx="605.714" cy="486.648" r="117.143" fx="605.714" fy="486.648" gradientTransform="matrix(-0.01566318,0,0,0.00823529,14.389566,25.980565)" gradientUnits="userSpaceOnUse" xlink:href="#linearGradient5060"/><linearGradient id="linearGradient5048"><stop style="stop-color:#000;stop-opacity:0" id="stop5050" offset="0"/><stop style="stop-color:#000;stop-opacity:1" id="stop5056" offset=".5"/><stop style="stop-color:#000;stop-opacity:0" id="stop5052" offset="1"/></linearGradient><linearGradient id="linearGradient3153" x1="302.857" x2="302.857" y1="366.648" y2="609.505" gradientTransform="matrix(0.04576928,0,0,0.00823529,-0.5423243,25.980548)" gradientUnits="userSpaceOnUse" xlink:href="#linearGradient5048"/><linearGradient id="linearGradient3273" x1="42.784" x2="38.972" y1="32.537" y2="18.124" gradientTransform="matrix(1,0,0,-1,-16.999999,48.999999)" gradientUnits="userSpaceOnUse" xlink:href="#linearGradient3412"/><linearGradient id="linearGradient3412"><stop style="stop-color:#fcfcfc;stop-opacity:1" id="stop3414" offset="0"/><stop style="stop-color:#cbcdd9;stop-opacity:1" id="stop3416" offset="1"/></linearGradient><linearGradient id="linearGradient3428"><stop style="stop-color:#fff;stop-opacity:1" id="stop3430" offset="0"/><stop style="stop-color:#fff;stop-opacity:0" id="stop3432" offset="1"/></linearGradient><linearGradient id="linearGradient3166" x1="40.106" x2="33.811" y1="31.657" y2="18.354" gradientTransform="matrix(0.99749995,0,0,-0.99749995,-16.923748,48.896056)" gradientUnits="userSpaceOnUse" xlink:href="#linearGradient3428"/></defs><metadata id="metadata3160"/><g id="layer1"><rect style="opacity:.15;fill:url(#linearGradient3153);fill-opacity:1;fill-rule:nonzero;stroke:none;stroke-width:1;marker:none;visibility:visible;display:inline;overflow:visible" id="rect2879" width="22.1" height="2" x="4.95" y="29"/><path style="opacity:.15;fill:url(#radialGradient3024);fill-opacity:1;fill-rule:nonzero;stroke:none;stroke-width:1;marker:none;visibility:visible;display:inline;overflow:visible" id="path2881" d="m 4.9499887,29.000086 c 0,0 0,1.99989 0,1.99989 -0.806615,0.0038 -1.950002,-0.448074 -1.950002,-1.000074 0,-0.552 0.900121,-0.999816 1.950002,-0.999816 z"/><path style="opacity:.15;fill:url(#radialGradient3021);fill-opacity:1;fill-rule:nonzero;stroke:none;stroke-width:1;marker:none;visibility:visible;display:inline;overflow:visible" id="path2883" d="m 27.050011,29.000086 c 0,0 0,1.99989 0,1.99989 0.806614,0.0038 1.950002,-0.448074 1.950002,-1.000074 0,-0.552 -0.900122,-0.999816 -1.950002,-0.999816 z"/><path style="fill:url(#linearGradient3016);fill-opacity:1;stroke:none;display:inline" id="path4160-3" d="m 4.499961,0.49996093 c 5.270482,0 23.000037,0.00185 23.000037,0.00185 l 2.8e-5,28.99822807 c 0,0 -15.333376,0 -23.000065,0 0,-9.666692 0,-19.333383 0,-29.00007387 z"/><path style="fill:none;stroke:url(#linearGradient3013);stroke-width:.99999994;stroke-linecap:round;stroke-linejoin:round;stroke-miterlimit:4;stroke-opacity:1;stroke-dasharray:none;stroke-dashoffset:0" id="rect6741-1" d="m 26.5,28.5 -21,0 0,-27 21,0 z"/><path style="opacity:.3;fill:none;stroke:#000;stroke-width:.99992186;stroke-linecap:butt;stroke-linejoin:round;stroke-miterlimit:4;stroke-opacity:1;stroke-dasharray:none;stroke-dashoffset:0;display:inline" id="path4160-3-4" d="m 4.499961,0.49996093 c 5.270482,0 23.000037,0.00185 23.000037,0.00185 l 2.8e-5,28.99822807 c 0,0 -15.333376,0 -23.000065,0 0,-9.666692 0,-19.333383 0,-29.00007387 z"/><path style="fill:none;stroke:url(#linearGradient3084);stroke-width:.99999994px;stroke-linecap:butt;stroke-linejoin:miter;stroke-opacity:1" id="path3475" d="m 8.0000001,5.567745 1.5669929,0 z m 1.7968186,0 1.4625273,0 z m 1.6923533,0 1.295381,0 z m 1.504313,0 0.564117,0 z m 0.793943,0 1.253595,0 z m 1.504313,0 3.301133,0 z m 3.510065,0 2.528083,0 z m 2.737015,0 0.77305,0 z m -13.5388209,1.9217775 2.0684299,0 z m 2.2773639,0 3.384705,0 z m 3.593637,0 1.650566,0 z m 1.859499,0 1.546099,0 z m 1.755032,0 1.316274,0 z m 1.525206,0 2.068432,0.020955 z m 2.25647,0.020955 3.363813,0 z M 8.0000001,9.5 l 2.8623739,0 z m 3.0921999,0 3.0922,0 z m 3.301132,0 1.232701,0 z m 1.441634,0 2.904161,0 z m 3.092199,0 1.984859,0 z m 2.214684,0 0.793944,0 z m 1.002876,0 0.438758,0 z m 0.668584,0 1.232701,0 z m -14.8133089,2 1.0655555,0 z m 1.3998467,0 3.9488232,0 z m -1.3998467,3 2.6325479,0 z m 2.8414809,0 2.820588,0 z m 3.02952,0 1.086449,0 z m 1.295381,0 2.653442,0 z m 2.862374,0 3.342919,0 z m 3.572745,0 1.232701,0 z m -13.6015009,2 2.8623739,0 z m 3.0921999,0 3.0922,0 z m 3.301132,0 1.232701,0 z m 1.441634,0 2.904161,0 z m 3.092199,0 1.984859,0 z m 2.214684,0 0.793944,0 z m 1.002876,0 0.438758,0 z m 0.668584,0 1.232701,0 z m -14.8133089,2 2.4445099,0 z m 2.7161219,0 1.170021,0 z m 1.378954,0 0.58501,0 z m 0.814836,0 1.065555,0 z m 1.295381,0 1.086448,0 z m 1.295381,0 1.734139,0 z m 1.963965,0 2.25647,0 z m 2.465402,0 1.504314,0 z m 1.713247,0 0.376078,0 z m -13.6432879,2.989525 2.0684299,0 z m 2.2773639,0 3.384705,0 z m 3.593637,0 1.650566,0 z m 1.859499,0 1.546099,0 z m 1.755032,0 1.316274,0 z m 1.525206,0 2.068432,0.02095 z m 2.25647,0.02095 3.363813,0 z M 8.0000001,23.5 l 2.5907619,0 z m 2.8205879,0 0.814836,0 z m 1.023769,0 1.859499,0 z m 2.06843,0 2.737016,0 z m 2.966842,0 1.859498,0 z m 2.047536,0 0.396972,0 z m 0.605905,0 2.360936,0 z m 2.611655,0 1.232702,0 z m -14.1447249,2 2.5907619,0 z m 2.8205879,0 1.170021,0 z m 1.378953,0 1.838606,0 z m 2.047538,0 1.984858,0 z m 2.214684,0 0.793943,0 z m 1.002876,0 0.438758,0 z m 0.668584,0 1.232701,0 z"/></g><g id="g3297"><path style="opacity:.8;fill:url(#linearGradient3273);fill-opacity:1;fill-rule:evenodd;stroke:#83899a;stroke-width:1;stroke-linecap:butt;stroke-linejoin:miter;stroke-miterlimit:4;stroke-opacity:1;stroke-dasharray:none" id="path3410" d="m 13.5,30.5 15,-15 0,15 -15,0 z m 6.999999,-3.000001 5,0 0,-4.999999 -5,4.999999 z"/><path style="opacity:.4;fill:none;stroke:url(#linearGradient3166);stroke-width:1;stroke-linecap:butt;stroke-linejoin:miter;stroke-miterlimit:4;stroke-opacity:1;stroke-dasharray:none" id="path3424" d="m 15.713203,29.538323 11.845312,-11.845312 0,11.845312 -11.845312,0 z"/></g></svg>