<svg xmlns="http://www.w3.org/2000/svg" xmlns:svg="http://www.w3.org/2000/svg" xmlns:xlink="http://www.w3.org/1999/xlink" id="svg3182" width="32" height="32" version="1.1"><defs id="defs3184"><linearGradient id="linearGradient3119" x1="24" x2="24" y1="5.564" y2="43" gradientTransform="matrix(0.56756757,0,0,0.72972971,2.378382,-2.5135063)" gradientUnits="userSpaceOnUse" xlink:href="#linearGradient3977"/><linearGradient id="linearGradient3977"><stop style="stop-color:#fff;stop-opacity:1" id="stop3979" offset="0"/><stop style="stop-color:#fff;stop-opacity:.23529412" id="stop3981" offset=".036"/><stop style="stop-color:#fff;stop-opacity:.15686275" id="stop3983" offset=".951"/><stop style="stop-color:#fff;stop-opacity:.39215687" id="stop3985" offset="1"/></linearGradient><linearGradient id="linearGradient3122" x1="25.132" x2="25.132" y1=".985" y2="47.013" gradientTransform="matrix(0.65714319,0,0,0.63012397,0.228556,-1.0896478)" gradientUnits="userSpaceOnUse" xlink:href="#linearGradient3600-4"/><linearGradient id="linearGradient3600-4"><stop style="stop-color:#f4f4f4;stop-opacity:1" id="stop3602-7" offset="0"/><stop style="stop-color:#dbdbdb;stop-opacity:1" id="stop3604-6" offset="1"/></linearGradient><linearGradient id="linearGradient3124" x1="-51.786" x2="-51.786" y1="50.786" y2="2.906" gradientTransform="matrix(0.53064102,0,0,0.58970216,39.269585,-1.7919079)" gradientUnits="userSpaceOnUse" xlink:href="#linearGradient3104-5"/><linearGradient id="linearGradient3104-5"><stop style="stop-color:#a0a0a0;stop-opacity:1" id="stop3106-6" offset="0"/><stop style="stop-color:#bebebe;stop-opacity:1" id="stop3108-9" offset="1"/></linearGradient><radialGradient id="radialGradient3045" cx="605.714" cy="486.648" r="117.143" fx="605.714" fy="486.648" gradientTransform="matrix(0.01566318,0,0,0.00823529,17.610433,25.980565)" gradientUnits="userSpaceOnUse" xlink:href="#linearGradient5060"/><linearGradient id="linearGradient5060"><stop style="stop-color:#000;stop-opacity:1" id="stop5062" offset="0"/><stop style="stop-color:#000;stop-opacity:0" id="stop5064" offset="1"/></linearGradient><radialGradient id="radialGradient3048" cx="605.714" cy="486.648" r="117.143" fx="605.714" fy="486.648" gradientTransform="matrix(-0.01566318,0,0,0.00823529,14.389566,25.980565)" gradientUnits="userSpaceOnUse" xlink:href="#linearGradient5060"/><linearGradient id="linearGradient5048"><stop style="stop-color:#000;stop-opacity:0" id="stop5050" offset="0"/><stop style="stop-color:#000;stop-opacity:1" id="stop5056" offset=".5"/><stop style="stop-color:#000;stop-opacity:0" id="stop5052" offset="1"/></linearGradient><linearGradient id="linearGradient3180" x1="302.857" x2="302.857" y1="366.648" y2="609.505" gradientTransform="matrix(0.04576928,0,0,0.00823529,-0.5423243,25.980548)" gradientUnits="userSpaceOnUse" xlink:href="#linearGradient5048"/><linearGradient id="linearGradient4102"><stop style="stop-color:#fda852;stop-opacity:1" id="stop4104" offset="0"/><stop style="stop-color:#fff;stop-opacity:0" id="stop4106" offset="1"/></linearGradient><linearGradient id="linearGradient3182" x1="28.534" x2="16.887" y1="24.24" y2="13.664" gradientTransform="matrix(0.6594275,0,0,0.6465221,-27.820701,1.2237333)" gradientUnits="userSpaceOnUse" xlink:href="#linearGradient4102"/><linearGradient id="linearGradient3273" x1="42.784" x2="38.972" y1="32.537" y2="18.124" gradientTransform="matrix(1,0,0,-1,-16.999999,48.999999)" gradientUnits="userSpaceOnUse" xlink:href="#linearGradient3412"/><linearGradient id="linearGradient3412"><stop style="stop-color:#fcfcfc;stop-opacity:1" id="stop3414" offset="0"/><stop style="stop-color:#cbcdd9;stop-opacity:1" id="stop3416" offset="1"/></linearGradient><linearGradient id="linearGradient3428"><stop style="stop-color:#fff;stop-opacity:1" id="stop3430" offset="0"/><stop style="stop-color:#fff;stop-opacity:0" id="stop3432" offset="1"/></linearGradient><linearGradient id="linearGradient3322" x1="40.106" x2="33.811" y1="31.657" y2="18.354" gradientTransform="matrix(0.99749995,0,0,-0.99749995,-16.923748,48.896056)" gradientUnits="userSpaceOnUse" xlink:href="#linearGradient3428"/></defs><metadata id="metadata3187"/><g id="layer1"><rect style="opacity:.15;fill:url(#linearGradient3180);fill-opacity:1;fill-rule:nonzero;stroke:none;stroke-width:1;marker:none;visibility:visible;display:inline;overflow:visible" id="rect2879" width="22.1" height="2" x="4.95" y="29"/><path style="opacity:.15;fill:url(#radialGradient3048);fill-opacity:1;fill-rule:nonzero;stroke:none;stroke-width:1;marker:none;visibility:visible;display:inline;overflow:visible" id="path2881" d="m 4.9499887,29.000086 c 0,0 0,1.99989 0,1.99989 -0.806615,0.0038 -1.950002,-0.448074 -1.950002,-1.000074 0,-0.552 0.900121,-0.999816 1.950002,-0.999816 z"/><path style="opacity:.15;fill:url(#radialGradient3045);fill-opacity:1;fill-rule:nonzero;stroke:none;stroke-width:1;marker:none;visibility:visible;display:inline;overflow:visible" id="path2883" d="m 27.050011,29.000086 c 0,0 0,1.99989 0,1.99989 0.806614,0.0038 1.950002,-0.448074 1.950002,-1.000074 0,-0.552 -0.900122,-0.999816 -1.950002,-0.999816 z"/><path style="fill:url(#linearGradient3122);fill-opacity:1;stroke:url(#linearGradient3124);stroke-width:.99992186;stroke-linecap:butt;stroke-linejoin:round;stroke-miterlimit:4;stroke-opacity:1;stroke-dasharray:none;stroke-dashoffset:0;display:inline" id="path4160-3" d="m 4.499961,0.49996093 c 5.270482,0 23.000037,0.00185 23.000037,0.00185 l 2.8e-5,28.99822807 c 0,0 -15.333376,0 -23.000065,0 0,-9.666692 0,-19.333383 0,-29.00007387 z"/><path style="fill:none;stroke:url(#linearGradient3119);stroke-width:.99999994;stroke-linecap:round;stroke-linejoin:round;stroke-miterlimit:4;stroke-opacity:1;stroke-dasharray:none;stroke-dashoffset:0" id="rect6741-1" d="m 26.5,28.5 -21,0 0,-27 21,0 z"/><g id="g3173" transform="translate(27.788033,-2.31845)"><path style="fill:url(#linearGradient3182);fill-opacity:1;fill-rule:evenodd;stroke:#ea541a;stroke-width:1px;stroke-linecap:butt;stroke-linejoin:miter;stroke-opacity:1" id="path2783" d="m -17.036553,24.22914 c 2.754134,1.831596 8.767223,-0.618817 3.768118,-7.176388 -4.95385,-6.498209 4.921913,-10.7602589 7.852511,-3.245276"/><rect style="fill:#ea541a;fill-opacity:1;stroke:none" id="rect3565" width="2" height="2" x="-18.788" y="22.818"/><rect style="fill:#ea541a;fill-opacity:1;stroke:none" id="rect3567" width="2" height="2" x="-6.788" y="12.818"/><path style="fill:none;stroke:#ea541a;stroke-width:1.00000012px;stroke-linecap:butt;stroke-linejoin:miter;stroke-opacity:1" id="path3571" d="m -17.698862,11.147278 9.500118,12.316379"/><path style="fill:#e6e6e6;fill-opacity:1;stroke:#ea541a;stroke-width:1.00000012;stroke-linecap:butt;stroke-miterlimit:4;stroke-opacity:1;stroke-dasharray:none" id="path3573" d="m -16.288038,11.318411 c 3.72e-4,0.552176 -0.447453,1 -1,1 -0.552547,0 -1.000372,-0.447824 -1,-1 -3.72e-4,-0.552177 0.447453,-1 1,-1 0.552547,0 1.000372,0.447823 1,1 l 0,0 z"/><path style="fill:#e6e6e6;fill-opacity:1;stroke:#ea541a;stroke-width:1.00000012;stroke-linecap:butt;stroke-miterlimit:4;stroke-opacity:1;stroke-dasharray:none" id="path3575" d="m -7.288029,23.318411 c 3.73e-4,0.552177 -0.447452,1 -1,1 -0.552546,0 -1.000371,-0.447823 -0.999999,-1 -3.72e-4,-0.552175 0.447453,-1 0.999999,-1 0.552548,0 1.000373,0.447825 1,1 l 0,0 z"/><rect style="fill:#ea541a;fill-opacity:1;stroke:none" id="rect3569" width="2" height="2" x="-14.788" y="15.818"/></g><g id="g3297"><path style="opacity:.8;fill:url(#linearGradient3273);fill-opacity:1;fill-rule:evenodd;stroke:#83899a;stroke-width:1;stroke-linecap:butt;stroke-linejoin:miter;stroke-miterlimit:4;stroke-opacity:1;stroke-dasharray:none" id="path3410" d="m 13.5,30.5 15,-15 0,15 -15,0 z m 6.999999,-3.000001 5,0 0,-4.999999 -5,4.999999 z"/><path style="opacity:.4;fill:none;stroke:url(#linearGradient3322);stroke-width:1;stroke-linecap:butt;stroke-linejoin:miter;stroke-miterlimit:4;stroke-opacity:1;stroke-dasharray:none" id="path3424" d="m 15.713203,29.538323 11.845312,-11.845312 0,11.845312 -11.845312,0 z"/></g></g></svg>