<svg xmlns="http://www.w3.org/2000/svg" xmlns:svg="http://www.w3.org/2000/svg" xmlns:xlink="http://www.w3.org/1999/xlink" id="svg4117" width="48" height="48" version="1.1"><defs id="defs4119"><linearGradient id="linearGradient3924"><stop style="stop-color:#fff;stop-opacity:1" id="stop3926" offset="0"/><stop style="stop-color:#fff;stop-opacity:.23529412" id="stop3928" offset=".063"/><stop style="stop-color:#fff;stop-opacity:.15686275" id="stop3930" offset=".951"/><stop style="stop-color:#fff;stop-opacity:.39215687" id="stop3932" offset="1"/></linearGradient><radialGradient id="radialGradient2873-966-168" cx="4.993" cy="43.5" r="2.5" fx="4.993" fy="43.5" gradientTransform="matrix(2.003784,0,0,1.4,27.98813,-17.4)" gradientUnits="userSpaceOnUse" xlink:href="#linearGradient3688-166-749"/><linearGradient id="linearGradient3688-166-749"><stop style="stop-color:#181818;stop-opacity:1" id="stop2883" offset="0"/><stop style="stop-color:#181818;stop-opacity:0" id="stop2885" offset="1"/></linearGradient><radialGradient id="radialGradient2875-742-326" cx="4.993" cy="43.5" r="2.5" fx="4.993" fy="43.5" gradientTransform="matrix(2.003784,0,0,1.4,-20.01187,-104.4)" gradientUnits="userSpaceOnUse" xlink:href="#linearGradient3688-464-309"/><linearGradient id="linearGradient3688-464-309"><stop style="stop-color:#181818;stop-opacity:1" id="stop2889" offset="0"/><stop style="stop-color:#181818;stop-opacity:0" id="stop2891" offset="1"/></linearGradient><linearGradient id="linearGradient2877-634-617" x1="25.058" x2="25.058" y1="47.028" y2="39.999" gradientUnits="userSpaceOnUse" xlink:href="#linearGradient3702-501-757"/><linearGradient id="linearGradient3702-501-757"><stop style="stop-color:#181818;stop-opacity:0" id="stop2895" offset="0"/><stop style="stop-color:#181818;stop-opacity:1" id="stop2897" offset=".5"/><stop style="stop-color:#181818;stop-opacity:0" id="stop2899" offset="1"/></linearGradient><filter id="filter3831" color-interpolation-filters="sRGB"><feGaussianBlur id="feGaussianBlur3833" stdDeviation=".637"/></filter><clipPath id="clipPath3823"><path style="fill:#fff;fill-opacity:1;stroke:none" id="path3825" d="M 108.8125,58 C 107.25437,58 106,59.254375 106,60.8125 l 0,24.375 C 106,86.745625 107.25437,88 108.8125,88 l 24.375,0 C 134.74562,88 136,86.745625 136,85.1875 l 0,-24.375 C 136,59.254375 134.74562,58 133.1875,58 l -24.375,0 z m 7.1875,4.5 10,0 0,8.75 5,0 -10,13.75 -10,-13.75 5,0 0,-8.75 z"/></clipPath><linearGradient id="linearGradient3812" x1="65.263" x2="65.263" y1="64.205" y2="50.069" gradientTransform="matrix(0.625,0,0,0.625,78.5,32.25)" gradientUnits="userSpaceOnUse" xlink:href="#linearGradient5010"/><filter id="filter3806" color-interpolation-filters="sRGB"><feGaussianBlur id="feGaussianBlur3808" stdDeviation="1.2"/></filter><linearGradient id="linearGradient3788" x1="70" x2="70" y1="54" y2="75.095" gradientTransform="translate(0,4)" gradientUnits="userSpaceOnUse" xlink:href="#linearGradient3737"/><linearGradient id="linearGradient3773" x1="56" x2="88" y1="72" y2="72" gradientTransform="matrix(0.9375,0,0,0.9375,-140.5,3.5)" gradientUnits="userSpaceOnUse" xlink:href="#linearGradient3778"/><linearGradient id="linearGradient3832" x1="65.263" x2="65.263" y1="64.205" y2="50.069" gradientTransform="matrix(0.625,0,0,0.625,28.5,31.25)" gradientUnits="userSpaceOnUse" xlink:href="#linearGradient3737"/><filter id="filter3174" color-interpolation-filters="sRGB"><feGaussianBlur id="feGaussianBlur3176" stdDeviation="1.71"/></filter><linearGradient id="linearGradient3737"><stop style="stop-color:#fff;stop-opacity:1" id="stop3739" offset="0"/><stop style="stop-color:#fff;stop-opacity:0" id="stop3741" offset="1"/></linearGradient><linearGradient id="ButtonShadow" x1="45.448" x2="45.448" y1="92.54" y2="7.017" gradientTransform="scale(1.0058652,0.994169)" gradientUnits="userSpaceOnUse"><stop style="stop-color:#000;stop-opacity:1" id="stop3750" offset="0"/><stop style="stop-color:#000;stop-opacity:.58823532" id="stop3752" offset="1"/></linearGradient><linearGradient id="linearGradient5010"><stop style="stop-color:#000;stop-opacity:1" id="stop5012" offset="0"/><stop style="stop-color:#000;stop-opacity:0" id="stop5014" offset="1"/></linearGradient><linearGradient id="linearGradient3778"><stop style="stop-color:#499119;stop-opacity:1" id="stop3780" offset="0"/><stop style="stop-color:#8fd625;stop-opacity:1" id="stop3782" offset="1"/></linearGradient><linearGradient id="linearGradient3600"><stop style="stop-color:#f4f4f4;stop-opacity:1" id="stop3602" offset="0"/><stop style="stop-color:#dbdbdb;stop-opacity:1" id="stop3604" offset="1"/></linearGradient><linearGradient id="linearGradient3104-5"><stop style="stop-color:#aaa;stop-opacity:1" id="stop3106-9" offset="0"/><stop style="stop-color:#c8c8c8;stop-opacity:1" id="stop3108-8" offset="1"/></linearGradient><linearGradient id="linearGradient3084" x1="24" x2="24" y1="5" y2="43" gradientTransform="translate(2.4e-6,0.9674489)" gradientUnits="userSpaceOnUse" xlink:href="#linearGradient3924"/><radialGradient id="radialGradient3093" cx="7.496" cy="8.45" r="20" fx="7.496" fy="8.45" gradientTransform="matrix(0,1.8895553,-1.9989241,-5.1430789e-8,40.890549,-7.595907)" gradientUnits="userSpaceOnUse" xlink:href="#linearGradient3600"/><linearGradient id="linearGradient3098" x1="20" x2="20" y1="43" y2="3" gradientUnits="userSpaceOnUse" xlink:href="#linearGradient3104-5"/><linearGradient id="linearGradient3149-7" x1="40.958" x2="18.681" y1="46.971" y2="46.971" gradientTransform="matrix(0,-0.89777469,0.96425314,0,-19.309635,51.771049)" gradientUnits="userSpaceOnUse" xlink:href="#linearGradient4297"/><linearGradient id="linearGradient4297"><stop style="stop-color:#fff;stop-opacity:1" id="stop4299" offset="0"/><stop style="stop-color:#fff;stop-opacity:.23529412" id="stop4301" offset=".45"/><stop style="stop-color:#fff;stop-opacity:.15686275" id="stop4303" offset=".65"/><stop style="stop-color:#fff;stop-opacity:.39215687" id="stop4305" offset="1"/></linearGradient><linearGradient id="linearGradient4453-5" x1="23.732" x2="23.732" y1="5.394" y2="39.735" gradientTransform="matrix(0.8227934,0,0,0.76606771,14.970639,10.56024)" gradientUnits="userSpaceOnUse" xlink:href="#linearGradient2867-449-88-871-390-598-476-591-434-148-57-177"/><linearGradient id="linearGradient8662-8"><stop style="stop-color:#000;stop-opacity:1" id="stop8664-1" offset="0"/><stop style="stop-color:#000;stop-opacity:0" id="stop8666-5" offset="1"/></linearGradient><radialGradient id="radialGradient3129" cx="24.837" cy="36.421" r="15.645" fx="24.837" fy="36.421" gradientTransform="matrix(-0.5654563,0,0,-0.60723273,49.21462,51.280532)" gradientUnits="userSpaceOnUse" xlink:href="#linearGradient8662-8"/><linearGradient id="linearGradient2867-449-88-871-390-598-476-591-434-148-57-177"><stop style="stop-color:#90dbec;stop-opacity:1" id="stop3750-1" offset="0"/><stop style="stop-color:#55c1ec;stop-opacity:1" id="stop3752-0" offset=".262"/><stop style="stop-color:#3689e6;stop-opacity:1" id="stop3754" offset=".705"/><stop style="stop-color:#2b63a0;stop-opacity:1" id="stop3756" offset="1"/></linearGradient></defs><metadata id="metadata4122"/><g style="display:inline" id="g2036" transform="matrix(1.1,0,0,0.4444449,-2.4000022,25.11107)"><g style="opacity:.4" id="g3712" transform="matrix(1.052632,0,0,1.285713,-1.263158,-13.42854)"><rect style="fill:url(#radialGradient2873-966-168);fill-opacity:1;stroke:none" id="rect2801" width="5" height="7" x="38" y="40"/><rect style="fill:url(#radialGradient2875-742-326);fill-opacity:1;stroke:none" id="rect3696" width="5" height="7" x="-10" y="-47" transform="scale(-1,-1)"/><rect style="fill:url(#linearGradient2877-634-617);fill-opacity:1;stroke:none" id="rect3700" width="28" height="7" x="10" y="40"/></g></g><path style="opacity:.05;color:#000;fill:url(#linearGradient3098);fill-opacity:1;fill-rule:nonzero;stroke:none;stroke-width:1;marker:none;visibility:visible;display:inline;overflow:visible;enable-background:accumulate" id="path4564-0" d="M 22.96875,8.1875 A 2.9359229,2.9359229 0 0 0 21.5625,8.59375 l -11.03125,6.375 A 2.9359229,2.9359229 0 0 0 9.125,17 2.9359229,2.9359229 0 0 0 9.09375,17 2.9359229,2.9359229 0 0 0 8.125,19.1875 L 8.0625,31.90625 a 2.9359229,2.9359229 0 0 0 1,2.1875 2.9359229,2.9359229 0 0 0 0,0.03125 2.9359229,2.9359229 0 0 0 1.4375,2.09375 l 11,6.3125 a 2.9359229,2.9359229 0 0 0 2.40625,0.21875 2.9359229,2.9359229 0 0 0 0.03125,0 2.9359229,2.9359229 0 0 0 2.5,-0.1875 l 11,-6.34375 a 2.9359229,2.9359229 0 0 0 1.40625,-2 2.9359229,2.9359229 0 0 0 1.09375,-2.25 l 0,-12.71875 a 2.9359229,2.9359229 0 0 0 -1,-2.1875 A 2.9359229,2.9359229 0 0 0 37.5,14.96875 L 26.46875,8.625 A 2.9359229,2.9359229 0 0 0 24.0625,8.375 2.9359229,2.9359229 0 0 0 22.96875,8.1875 z"/><rect style="color:#000;fill:url(#radialGradient3093);fill-opacity:1;fill-rule:nonzero;stroke:none;stroke-width:1;marker:none;visibility:visible;display:inline;overflow:visible;enable-background:accumulate" id="rect5505-21" width="38" height="38" x="5" y="6" rx="1.5" ry="1.5"/><rect style="fill:none;stroke:url(#linearGradient3084);stroke-width:1;stroke-linecap:round;stroke-linejoin:round;stroke-miterlimit:4;stroke-opacity:1;stroke-dasharray:none;stroke-dashoffset:0" id="rect6741-2" width="37" height="37" x="5.5" y="6.467" rx="1" ry="1"/><g style="display:none" id="layer2" transform="translate(-135.85714,-31.05041)"><path style="opacity:.9;fill:url(#ButtonShadow);fill-opacity:1;fill-rule:nonzero;stroke:none;filter:url(#filter3174)" id="rect3745" d="M 11,7 48,5 85,7 c 3.324,0 6,2.676 6,6 l 0,73 c 0,3.324 -2.676,6 -6,6 L 11,92 C 7.676,92 5,89.324 5,86 L 5,13 C 5,9.676 7.676,7 11,7 z"/></g><g style="display:none" id="layer4" transform="translate(-135.85714,-31.05041)"><rect style="opacity:.6;fill:#000;fill-opacity:1;stroke:none;filter:url(#filter3806)" id="rect3790" width="30" height="30" x="-86" y="56" rx="2.813" ry="2.813" transform="matrix(0,-1,1,0,0,4)"/><rect style="fill:url(#linearGradient3773);fill-opacity:1;stroke:none" id="rect2993" width="30" height="30" x="-88" y="56" rx="2.813" ry="2.813" transform="matrix(0,-1,1,0,0,0)"/><path style="opacity:.5;fill:url(#linearGradient3788);fill-opacity:1;stroke:none" id="rect3775" d="M 58.8125,58 C 57.254375,58 56,59.254375 56,60.8125 l 0,24.375 c 0,0.873066 0.410816,1.641163 1.03125,2.15625 C 57.02841,87.289908 57,87.242129 57,87.1875 l 0,-24.375 C 57,61.254375 58.17075,60 59.625,60 l 22.75,0 C 83.82925,60 85,61.254375 85,62.8125 l 0,24.375 c 0,0.05463 -0.02841,0.102408 -0.03125,0.15625 C 85.589184,86.828663 86,86.060566 86,85.1875 l 0,-24.375 C 86,59.254375 84.745625,58 83.1875,58 l -24.375,0 z"/><path style="opacity:.6;fill:url(#linearGradient3812);fill-opacity:1;fill-rule:nonzero;stroke:none;display:inline;filter:url(#filter3831)" id="path3810" d="m 116,63.5 0,8.75 -5,0 10,13.75 10,-13.75 -5,0 0,-8.75 -10,0 z" clip-path="url(#clipPath3823)" transform="translate(-50,0)"/><path style="fill:url(#linearGradient3832);fill-opacity:1;fill-rule:nonzero;stroke:none;display:inline" id="path4278" d="m 66,62.5 0,8.75 -5,0 10,13.75 10,-13.75 -5,0 0,-8.75 -10,0 z"/></g><rect style="opacity:.3;color:#000;fill:none;stroke:#000;stroke-width:1;stroke-linecap:round;stroke-linejoin:round;stroke-miterlimit:4;stroke-opacity:1;stroke-dasharray:none;stroke-dashoffset:0;marker:none;visibility:visible;display:inline;overflow:visible;enable-background:accumulate" id="rect5505-21-6" width="39" height="39" x="4.5" y="5.467" rx="2" ry="2"/><path style="opacity:.14117647;fill:url(#radialGradient3129);fill-opacity:1;fill-rule:evenodd;stroke:none;stroke-width:1;marker:none;visibility:visible;display:inline;overflow:visible" id="path3501" d="m 26.323896,29.164419 a 8.8464152,9.5000008 0 1 1 17.69283,0 8.8464152,9.5000008 0 0 1 -17.69283,0 z"/><path style="color:#000;fill:url(#linearGradient4453-5);fill-opacity:1;fill-rule:nonzero;stroke:none;stroke-width:.96392483;marker:none;visibility:visible;display:block;overflow:visible;enable-background:accumulate" id="path3288-2-2" d="m 35.481963,33.982735 10.999999,-9.491962 -10.999999,-9.508038 0,6.517265 -11.000001,0 0,6 11.000001,0 z"/><path style="opacity:.5;color:#000;fill:none;stroke:#004372;stroke-width:.96392483;stroke-linecap:butt;stroke-linejoin:round;stroke-miterlimit:7;stroke-opacity:1;stroke-dasharray:none;stroke-dashoffset:0;marker:none;visibility:visible;display:block;overflow:visible;enable-background:accumulate" id="path3288-2-2-7" d="m 35.481963,33.982735 10.999999,-9.491962 -10.999999,-9.508038 0,6.517265 -11.000001,0 0,6 11.000001,0 z"/><path style="opacity:.40100002;color:#000;fill:none;stroke:url(#linearGradient3149-7);stroke-width:.96392483;stroke-linecap:butt;stroke-linejoin:miter;stroke-miterlimit:7;stroke-opacity:1;stroke-dasharray:none;stroke-dashoffset:0;marker:none;visibility:visible;display:block;overflow:visible;enable-background:accumulate" id="path3288-2-2-8" d="m 36.481963,31.818583 8.5,-7.318583 -8.5,-7.389183 0,5.389183 -11,0 0,4 11,0 z"/></svg>