<svg xmlns="http://www.w3.org/2000/svg" xmlns:svg="http://www.w3.org/2000/svg" xmlns:xlink="http://www.w3.org/1999/xlink" id="svg2497" width="48" height="48" version="1.1"><defs id="defs2499"><linearGradient id="linearGradient4222"><stop style="stop-color:#fff;stop-opacity:1" id="stop4224" offset="0"/><stop style="stop-color:#fff;stop-opacity:0" id="stop4226" offset="1"/></linearGradient><linearGradient id="linearGradient3194" x1="28.622" x2="28.622" y1="18.219" y2="49.563" gradientTransform="matrix(-1.3106532,0,0,1.2884463,57.824782,-9.9439155)" gradientUnits="userSpaceOnUse" xlink:href="#linearGradient4222"/><linearGradient id="linearGradient2264"><stop style="stop-color:#d7e866;stop-opacity:1" id="stop2266" offset="0"/><stop style="stop-color:#8cab2a;stop-opacity:1" id="stop2268" offset="1"/></linearGradient><linearGradient id="linearGradient3192" x1="22.182" x2="22.182" y1="14.5" y2="44.051" gradientTransform="matrix(1.1300621,0,0,1.1160684,-0.5665555,-3.1639481)" gradientUnits="userSpaceOnUse" xlink:href="#linearGradient2264"/><linearGradient id="linearGradient5105-262-943-861"><stop style="stop-color:#0d0d0d;stop-opacity:1" id="stop2487" offset="0"/><stop style="stop-color:#0d0d0d;stop-opacity:0" id="stop2489" offset="1"/></linearGradient><radialGradient id="radialGradient2628" cx="11.25" cy="19.031" r="8.063" fx="11.25" fy="19.031" gradientTransform="matrix(1,0,0,0.282946,0,13.64644)" gradientUnits="userSpaceOnUse" xlink:href="#linearGradient5105-262-943-861"/></defs><metadata id="metadata2502"/><g id="layer1"><g style="display:inline" id="g2577" transform="matrix(-1,0,0,1,47.97086,0.05443139)"><path style="opacity:.16292138;fill:url(#radialGradient2628);fill-opacity:1;fill-rule:nonzero;stroke:none;stroke-width:1;marker:none;visibility:visible;display:inline;overflow:visible" id="path2621" d="m 19.3125,19.03125 a 8.0625,2.28125 0 1 1 -16.125,0 8.0625,2.28125 0 1 1 16.125,0 z" transform="matrix(-2.9695155,0,0,2.8861277,57.40705,-14.065028)"/><g id="g3188" transform="translate(-1,0)"><path style="fill:url(#linearGradient3192);fill-opacity:1;fill-rule:nonzero;stroke:#548820;stroke-width:1.00545704;stroke-linecap:round;stroke-linejoin:round;stroke-miterlimit:4;stroke-opacity:1;stroke-dasharray:none;stroke-dashoffset:0;marker:none;visibility:visible;display:inline;overflow:visible" id="path2624" d="M 27.5,1.5027285 1.5027285,23.555266 27.5,45.497271 27.5,34.5 l 19.997271,0 0,-22 -19.997271,0 0,-10.9972715 z"/><path style="opacity:.35400008;fill:none;stroke:url(#linearGradient3194);stroke-width:1.00545704;stroke-linecap:butt;stroke-linejoin:round;stroke-miterlimit:4;stroke-opacity:1;stroke-dasharray:none;stroke-dashoffset:0;marker:none;visibility:visible;display:inline;overflow:visible" id="path2626" d="M 26.5,3.5 2.9999995,23.580749 26.5,43.5 l 0,-10 20,0 0,-20 -20,0 0,-10 z"/></g></g></g></svg>