<svg xmlns="http://www.w3.org/2000/svg" xmlns:svg="http://www.w3.org/2000/svg" xmlns:xlink="http://www.w3.org/1999/xlink" id="svg4105" width="48" height="48" version="1.1"><defs id="defs4107"><linearGradient id="linearGradient4011"><stop id="stop4013" offset="0" style="stop-color:#fff;stop-opacity:1"/><stop id="stop4015" offset=".508" style="stop-color:#fff;stop-opacity:.23529412"/><stop id="stop4017" offset=".835" style="stop-color:#fff;stop-opacity:.15686275"/><stop id="stop4019" offset="1" style="stop-color:#fff;stop-opacity:.39215687"/></linearGradient><linearGradient id="linearGradient3086" x1="71.204" x2="71.204" y1="6.238" y2="44.341" gradientTransform="translate(-47.733515,-0.3572398)" gradientUnits="userSpaceOnUse" xlink:href="#linearGradient4011"/><linearGradient id="linearGradient3820-7-2-1"><stop id="stop3822-2-6-3" offset="0" style="stop-color:#3d3d3d;stop-opacity:1"/><stop id="stop3864-8-7-7" offset=".5" style="stop-color:#686868;stop-opacity:.49803922"/><stop id="stop3824-1-2-5" offset="1" style="stop-color:#686868;stop-opacity:0"/></linearGradient><radialGradient id="radialGradient3040" cx="99.157" cy="186.171" r="62.769" fx="99.157" fy="186.171" gradientTransform="matrix(1,0,0,0.1666667,0,155.14216)" gradientUnits="userSpaceOnUse" xlink:href="#linearGradient3820-7-2-1"/><linearGradient id="linearGradient3242-7-3-8-0-4-58-06"><stop style="stop-color:#cdf87e;stop-opacity:1" id="stop3244-5-8-5-6-4-3-8" offset="0"/><stop style="stop-color:#a2e34f;stop-opacity:1" id="stop3246-9-5-1-5-3-0-7" offset=".262"/><stop style="stop-color:#68b723;stop-opacity:1" id="stop3248-7-2-0-7-5-35-9" offset=".661"/><stop style="stop-color:#1d7e0d;stop-opacity:1" id="stop3250-8-2-8-5-6-40-4" offset="1"/></linearGradient><radialGradient id="radialGradient3022-7" cx="21.995" cy="4.038" r="20.397" fx="21.995" fy="4.038" gradientTransform="matrix(0,2.7694459,-3.6556192,0,38.585931,-61.467547)" gradientUnits="userSpaceOnUse" xlink:href="#linearGradient3242-7-3-8-0-4-58-06"/></defs><metadata id="metadata4110"/><path id="path3818-0-5" d="m 161.92613,186.17059 a 62.769119,10.461519 0 1 1 -125.538236,0 62.769119,10.461519 0 1 1 125.538236,0 z" transform="matrix(0.27083381,0,0,0.52573626,-2.855072,-56.376631)" style="fill:url(#radialGradient3040);fill-opacity:1;stroke:none"/><path id="path2555" d="M 24.000001,5.5000005 C 13.240575,5.5000005 4.5,14.240573 4.5,24.999999 4.5,35.759428 13.240575,44.500005 24.000001,44.5 34.759425,44.5 43.500011,35.759428 43.5,24.999999 43.5,14.240573 34.759425,5.5000005 24.000001,5.5000005 Z" style="fill:url(#radialGradient3022-7);fill-opacity:1;stroke:none;stroke-width:1.00365412;stroke-linecap:round;stroke-linejoin:round;stroke-miterlimit:4;stroke-dasharray:none;stroke-dashoffset:0;stroke-opacity:1"/><path id="path8655" d="M 42.500002,24.999344 C 42.500002,35.216942 34.21666,43.5 24.000235,43.5 13.782875,43.5 5.5000003,35.216848 5.5000003,24.999344 c 0,-10.217125 8.2828747,-18.4993438 18.5002347,-18.4993438 10.216425,0 18.499767,8.2822188 18.499767,18.4993438 l 0,0 z" style="opacity:.7;color:#000;fill:none;stroke:url(#linearGradient3086);stroke-width:1;stroke-linecap:round;stroke-linejoin:round;stroke-miterlimit:4;stroke-opacity:1;stroke-dasharray:none;stroke-dashoffset:0;marker:none;visibility:visible;display:inline;overflow:visible;enable-background:accumulate"/><path id="path2555-2" d="M 24.000002,5.501809 C 13.241573,5.501809 4.5018088,14.24157 4.5018088,25 c 0,10.75843 8.7397642,19.498195 19.4981932,19.498192 10.758425,0 19.498199,-8.739762 19.498189,-19.498192 0,-10.75843 -8.739764,-19.498191 -19.498189,-19.498191 z" style="opacity:.5;color:#000;fill:none;stroke:#0f5a00;stroke-width:1;stroke-linecap:round;stroke-linejoin:round;stroke-miterlimit:4;stroke-opacity:1;stroke-dasharray:none;stroke-dashoffset:0;marker:none;visibility:visible;display:inline;overflow:visible;enable-background:accumulate;clip-rule:nonzero;isolation:auto;mix-blend-mode:normal;color-interpolation:sRGB;color-interpolation-filters:linearRGB;solid-color:#000;solid-opacity:1;fill-opacity:1;fill-rule:nonzero;filter-blend-mode:normal;filter-gaussianBlur-deviation:0;color-rendering:auto;image-rendering:auto;shape-rendering:auto;text-rendering:auto"/><path style="color:#000;clip-rule:nonzero;display:inline;overflow:visible;visibility:visible;opacity:.15;isolation:auto;mix-blend-mode:normal;color-interpolation:sRGB;color-interpolation-filters:linearRGB;solid-color:#000;solid-opacity:1;fill:#206612;fill-opacity:1;fill-rule:evenodd;stroke:none;stroke-width:1;stroke-linecap:butt;stroke-linejoin:miter;stroke-miterlimit:4;stroke-dasharray:none;stroke-dashoffset:0;stroke-opacity:1;marker:none;color-rendering:auto;image-rendering:auto;shape-rendering:auto;text-rendering:auto;enable-background:accumulate;filter-blend-mode:normal;filter-gaussianBlur-deviation:0" id="path4350" d="M 21,13.953125 A 1.0468336,1.0468336 0 0 0 19.953125,15 l 0,6.953125 -6.953125,0 A 1.0468336,1.0468336 0 0 0 11.953125,23 l 0,6 A 1.0468336,1.0468336 0 0 0 13,30.046875 l 6.953125,0 0,6.953125 A 1.0468336,1.0468336 0 0 0 21,38.046875 l 6,0 A 1.0468336,1.0468336 0 0 0 28.046875,37 l 0,-6.953125 6.953125,0 A 1.0468336,1.0468336 0 0 0 36.046875,29 l 0,-6 A 1.0468336,1.0468336 0 0 0 35,21.953125 l -6.953125,0 0,-6.953125 A 1.0468336,1.0468336 0 0 0 27,13.953125 l -6,0 z"/><path style="color:#000;display:inline;overflow:visible;visibility:visible;fill:#206612;fill-opacity:1;fill-rule:evenodd;stroke:none;stroke-width:1;marker:none;enable-background:accumulate;clip-rule:nonzero;opacity:.3;isolation:auto;mix-blend-mode:normal;color-interpolation:sRGB;color-interpolation-filters:linearRGB;solid-color:#000;solid-opacity:1;stroke-linecap:butt;stroke-linejoin:miter;stroke-miterlimit:4;stroke-dasharray:none;stroke-dashoffset:0;stroke-opacity:1;filter-blend-mode:normal;filter-gaussianBlur-deviation:0;color-rendering:auto;image-rendering:auto;shape-rendering:auto;text-rendering:auto" id="rect3007-0" d="m 21,15 0,8 -8,0 0,6 8,0 0,8 6,0 0,-8 8,0 0,-6 -8,0 0,-8 z"/><path style="color:#000;display:inline;overflow:visible;visibility:visible;fill:#fff;fill-opacity:1;fill-rule:evenodd;stroke:none;stroke-width:1;marker:none;enable-background:accumulate" id="rect3007" d="m 21,14 0,8 -8,0 0,6 8,0 0,8 6,0 0,-8 8,0 0,-6 -8,0 0,-8 z"/></svg>