<svg xmlns="http://www.w3.org/2000/svg" xmlns:svg="http://www.w3.org/2000/svg" xmlns:xlink="http://www.w3.org/1999/xlink" id="svg4143" width="48" height="48" version="1.1"><defs id="defs4145"><linearGradient id="linearGradient3198" x1="38.941" x2="20.576" y1="15.991" y2="15.991" gradientTransform="matrix(0,-1.1363095,-1.2208188,0,54.815205,53.703806)" gradientUnits="userSpaceOnUse" xlink:href="#linearGradient4087-4"/><linearGradient id="linearGradient4087-4"><stop id="stop4089-0" offset="0" style="stop-color:#fff;stop-opacity:1"/><stop id="stop4091-5" offset=".512" style="stop-color:#fff;stop-opacity:.23529412"/><stop id="stop4093-9" offset=".585" style="stop-color:#fff;stop-opacity:.15686275"/><stop id="stop4095-4" offset="1" style="stop-color:#fff;stop-opacity:.39215687"/></linearGradient><linearGradient id="linearGradient3201" x1="23.732" x2="23.732" y1="4.418" y2="42.04" gradientTransform="matrix(-1.0417199,0,0,0.96960863,56.672383,1.2469198)" gradientUnits="userSpaceOnUse" xlink:href="#linearGradient2867-449-88-871-390-598-476-591-434-148-57-177-6"/><linearGradient id="linearGradient2867-449-88-871-390-598-476-591-434-148-57-177-6"><stop id="stop3750-9" offset="0" style="stop-color:#90dbec;stop-opacity:1"/><stop id="stop3752-2" offset=".262" style="stop-color:#55c1ec;stop-opacity:1"/><stop id="stop3754-2" offset=".705" style="stop-color:#3689e6;stop-opacity:1"/><stop id="stop3756-4" offset="1" style="stop-color:#2b63a0;stop-opacity:1"/></linearGradient><radialGradient id="radialGradient3140" cx="24.837" cy="36.421" r="15.645" fx="24.837" fy="36.421" gradientTransform="matrix(1,0,0,0.536723,0,16.87306)" gradientUnits="userSpaceOnUse" xlink:href="#linearGradient8662"/><linearGradient id="linearGradient8662"><stop id="stop8664" offset="0" style="stop-color:#000;stop-opacity:1"/><stop id="stop8666" offset="1" style="stop-color:#000;stop-opacity:0"/></linearGradient><radialGradient id="radialGradient4195" cx="24.837" cy="36.421" r="15.645" fx="24.837" fy="36.421" gradientTransform="matrix(1,0,0,0.536723,0,16.87306)" gradientUnits="userSpaceOnUse" xlink:href="#linearGradient8662-7"/><linearGradient id="linearGradient8662-7"><stop id="stop8664-0" offset="0" style="stop-color:#000;stop-opacity:1"/><stop id="stop8666-1" offset="1" style="stop-color:#000;stop-opacity:0"/></linearGradient><linearGradient id="linearGradient3198-5-6" x1="38.941" x2="20.576" y1="15.991" y2="15.991" gradientTransform="matrix(0,-1.1363095,-1.2208188,0,42.815155,53.703806)" gradientUnits="userSpaceOnUse" xlink:href="#linearGradient4087-4"/><linearGradient id="linearGradient3254-4" x1="23.732" x2="23.732" y1="4.418" y2="51.899" gradientTransform="matrix(-1.0417199,0,0,0.96960863,44.672333,1.2469199)" gradientUnits="userSpaceOnUse" xlink:href="#linearGradient4330"/><linearGradient id="linearGradient4330"><stop id="stop4332" offset="0" style="stop-color:#f0c1ff;stop-opacity:1"/><stop id="stop4334" offset=".262" style="stop-color:#c5a3f2;stop-opacity:1"/><stop id="stop4336" offset=".705" style="stop-color:#7a36b1;stop-opacity:1"/><stop id="stop4338" offset="1" style="stop-color:#4c2d81;stop-opacity:1"/></linearGradient></defs><metadata id="metadata4148"/><g id="layer1-1" transform="matrix(2,0,0,2,0,-16)"><path style="display:inline;overflow:visible;visibility:visible;opacity:.14117647;fill:url(#radialGradient3140);fill-opacity:1;fill-rule:evenodd;stroke:none;stroke-width:1;marker:none" id="path3501" d="m 40.481863,36.421127 a 15.644737,8.3968948 0 1 1 -31.2894745,0 15.644737,8.3968948 0 1 1 31.2894745,0 z" transform="matrix(0.52995454,0,0,-0.65783905,0.487385,48.935435)"/><g id="g4190" transform="translate(-2,0)"><path style="display:inline;overflow:visible;visibility:visible;opacity:.14117647;fill:url(#radialGradient4195);fill-opacity:1;fill-rule:evenodd;stroke:none;stroke-width:1;marker:none" id="path3501-0" d="m 40.481863,36.421127 a 15.644737,8.3968948 0 1 1 -31.2894745,0 15.644737,8.3968948 0 1 1 31.2894745,0 z" transform="matrix(0.52995454,0,0,-0.65783905,0.487385,48.935435)"/></g></g><path style="display:block;overflow:visible;visibility:visible;fill:url(#linearGradient3254-4);fill-opacity:1;fill-rule:nonzero;stroke:none;stroke-width:1;stroke-linecap:butt;stroke-linejoin:round;stroke-miterlimit:7;stroke-dasharray:none;stroke-dashoffset:0;stroke-opacity:1;marker:none" id="path3503-3-3-3" d="M 28.724972,38.761094 C 41.952111,29.831922 34.243353,13.433233 19.49995,13.567834 l 0,-8.3611479 L 1.4999674,18.893359 19.49995,32.580013 l 0,-8.343101 c 9.5089,-0.368785 14.694959,8.29364 7.897056,14.524182 z"/><path style="display:block;overflow:visible;visibility:visible;opacity:.52999998;fill:none;stroke:url(#linearGradient3198-5-6);stroke-width:.96392483;stroke-linecap:butt;stroke-linejoin:miter;stroke-miterlimit:7;stroke-dasharray:none;stroke-dashoffset:0;stroke-opacity:1;marker:none" id="path3505-6-2" d="M 30.246244,36.573401 C 39.931692,28.054733 32.253468,13.641931 18.581752,14.572435 L 18.499952,7.1766205 3.0510864,18.870328 18.499952,30.604604 l 0,-7.266198 c 14.184342,-0.323949 14.0029,10.792446 11.746294,13.234995 z"/><path style="color:#000;clip-rule:nonzero;display:inline;overflow:visible;visibility:visible;opacity:.5;isolation:auto;mix-blend-mode:normal;color-interpolation:sRGB;color-interpolation-filters:linearRGB;solid-color:#000;solid-opacity:1;fill:none;fill-opacity:1;fill-rule:nonzero;stroke:#6326b9;stroke-width:1;stroke-linecap:butt;stroke-linejoin:round;stroke-miterlimit:4;stroke-dasharray:none;stroke-dashoffset:0;stroke-opacity:1;marker:none;color-rendering:auto;image-rendering:auto;shape-rendering:auto;text-rendering:auto;enable-background:accumulate" id="path3503-3-3-0" d="M 28.724972,38.761094 C 41.952111,29.831922 34.243353,13.433233 19.49995,13.567834 l 0,-8.3611478 L 1.4999674,18.893359 19.49995,32.580013 l 0,-8.343101 c 9.5089,-0.368785 14.694959,8.29364 7.897056,14.524182 z"/><path style="display:block;overflow:visible;visibility:visible;fill:url(#linearGradient3201);fill-opacity:1;fill-rule:nonzero;stroke:none;stroke-width:1;stroke-linecap:butt;stroke-linejoin:round;stroke-miterlimit:7;stroke-dasharray:none;stroke-dashoffset:0;stroke-opacity:1;marker:none" id="path3503-3" d="M 40.725022,38.761094 C 53.952161,29.831922 46.243403,13.433233 31.5,13.567834 L 31.5,5.206686 13.500017,18.893359 31.5,32.580013 l 0,-8.343101 c 9.5089,-0.368785 14.694959,8.29364 7.897056,14.524182 z"/><path style="display:block;overflow:visible;visibility:visible;opacity:.52999998;fill:none;stroke:url(#linearGradient3198);stroke-width:.96392483;stroke-linecap:butt;stroke-linejoin:miter;stroke-miterlimit:7;stroke-dasharray:none;stroke-dashoffset:0;stroke-opacity:1;marker:none" id="path3505-6" d="m 42.246294,36.573401 c 9.685448,-8.518668 2.007224,-22.93147 -11.664492,-22.000966 l -0.0818,-7.3958146 -15.448866,11.6937076 15.448866,11.734276 0,-7.266198 c 14.184342,-0.323949 14.0029,10.792446 11.746294,13.234995 z"/><path style="display:inline;overflow:visible;visibility:visible;fill:#000;fill-opacity:0;fill-rule:nonzero;stroke:#00537d;stroke-width:1;stroke-linecap:round;stroke-linejoin:round;stroke-miterlimit:4;stroke-dasharray:none;stroke-dashoffset:0;stroke-opacity:1;marker:none;color:#000;clip-rule:nonzero;opacity:.5;isolation:auto;mix-blend-mode:normal;color-interpolation:sRGB;color-interpolation-filters:linearRGB;solid-color:#000;solid-opacity:1;filter-blend-mode:normal;filter-gaussianBlur-deviation:0;color-rendering:auto;image-rendering:auto;shape-rendering:auto;text-rendering:auto;enable-background:accumulate" id="path3503-3-4" d="M 40.725022,38.761094 C 53.952161,29.831922 46.243403,13.433233 31.5,13.567834 L 31.5,5.2066862 13.500017,18.893359 31.5,32.580013 l 0,-8.343101 c 9.5089,-0.368785 14.694959,8.29364 7.897056,14.524182 z"/></svg>