<svg xmlns="http://www.w3.org/2000/svg" xmlns:svg="http://www.w3.org/2000/svg" xmlns:xlink="http://www.w3.org/1999/xlink" id="svg2418" width="48" height="48" version="1.1"><defs id="defs2420"><linearGradient id="linearGradient5106"><stop style="stop-color:#729fcf;stop-opacity:1" id="stop5108" offset="0"/><stop style="stop-color:#386ea6;stop-opacity:1" id="stop5110" offset="1"/></linearGradient><linearGradient id="linearGradient3328" x1="16.081" x2="16.081" y1="29.954" y2="11.998" gradientTransform="matrix(1.003022,0,0,-0.9999358,-3.0186892,47.998688)" gradientUnits="userSpaceOnUse" xlink:href="#linearGradient5106"/><linearGradient id="linearGradient4222"><stop style="stop-color:#fff;stop-opacity:1" id="stop4224" offset="0"/><stop style="stop-color:#fff;stop-opacity:0" id="stop4226" offset="1"/></linearGradient><linearGradient id="linearGradient3305" x1="20.622" x2="20.622" y1="5.226" y2="44.056" gradientTransform="matrix(-1.003022,0,0,0.9999358,48.072527,0.00154191)" gradientUnits="userSpaceOnUse" xlink:href="#linearGradient4222"/></defs><metadata id="metadata2423"/><g id="layer1"><path style="fill:url(#linearGradient3328);fill-opacity:1;fill-rule:evenodd;stroke:#204a87;stroke-width:1.00147772;stroke-linecap:square;stroke-linejoin:round;stroke-miterlimit:4;stroke-opacity:1;stroke-dasharray:none;stroke-dashoffset:.69999992" id="path2339" d="m 43.935061,12.500739 c 0.30697,0 0.5642,0.256438 0.5642,0.562464 l 0,21.873594 c 0,0.306025 -0.25723,0.562464 -0.5642,0.562464 l -3.88671,0 c -0.30697,1e-6 -0.5642,-0.256438 -0.5642,-0.562464 l 0,-10.561821 -17.929017,10.624317 0,-10.686813 -18.0543952,10.686813 0,-21.998586 18.0543952,10.686813 0,-10.686813 17.929017,10.624317 0,-10.561821 c 0,-0.306026 0.25723,-0.562464 0.5642,-0.562464 l 3.88671,0 z"/><path style="opacity:.4;fill:none;stroke:url(#linearGradient3305);stroke-width:1.0014776;stroke-linecap:square;stroke-linejoin:miter;stroke-miterlimit:4;stroke-opacity:1;stroke-dashoffset:.69999992" id="path2343" d="m 22.558374,33.218386 0,-18.436316 15.578184,9.218158 -15.578184,9.218158 z m -18.0543962,0 0,-18.436316 15.5781852,9.218158 -15.5781852,9.218158 z m 35.9990812,-19.717712 3.018871,0 0,20.998652 -3.018871,0 0,-20.998652 z"/></g></svg>