<svg xmlns="http://www.w3.org/2000/svg" xmlns:svg="http://www.w3.org/2000/svg" xmlns:xlink="http://www.w3.org/1999/xlink" id="svg4332" width="64" height="64" version="1.1"><defs id="defs4334"><linearGradient id="linearGradient4225-5" x1="38.856" x2="38.856" y1="26.32" y2="32.522" gradientTransform="matrix(1,0,0,-1,-81.932439,92.086123)" gradientUnits="userSpaceOnUse" xlink:href="#linearGradient4213-9"/><linearGradient id="linearGradient4213-9"><stop style="stop-color:#000;stop-opacity:1" id="stop4215-4" offset="0"/><stop style="stop-color:#000;stop-opacity:0" id="stop4217-1" offset="1"/></linearGradient><linearGradient id="linearGradient3904" x1="24" x2="24" y1="5.909" y2="42.092" gradientTransform="matrix(1.4324324,0,0,1.4362832,-2.3783747,-2.4707827)" gradientUnits="userSpaceOnUse" xlink:href="#linearGradient4270"/><linearGradient id="linearGradient4270"><stop style="stop-color:#fff;stop-opacity:1" id="stop4272" offset="0"/><stop style="stop-color:#fff;stop-opacity:.23529412" id="stop4274" offset=".035"/><stop style="stop-color:#fff;stop-opacity:.15686275" id="stop4276" offset=".962"/><stop style="stop-color:#fff;stop-opacity:.39215687" id="stop4278" offset="1"/></linearGradient><radialGradient id="radialGradient4147" cx="6.73" cy="9.957" r="12.672" fx="6.2" fy="9.957" gradientTransform="matrix(0,13.393984,-16.443533,0,196.90205,-114.89368)" gradientUnits="userSpaceOnUse" xlink:href="#linearGradient2867-449-88-871-390-598-476-591-434-148-57-177-8-3-3-6-4-8-8-8-5"/><linearGradient id="linearGradient2867-449-88-871-390-598-476-591-434-148-57-177-8-3-3-6-4-8-8-8-5"><stop style="stop-color:#919caf;stop-opacity:1" id="stop3750-1-0-7-6-6-1-3-9-3" offset="0"/><stop style="stop-color:#68758e;stop-opacity:1" id="stop3752-3-7-4-0-32-8-923-0-7" offset=".262"/><stop style="stop-color:#485a6c;stop-opacity:1" id="stop3754-1-8-5-2-7-6-7-1-9" offset=".705"/><stop style="stop-color:#444c5c;stop-opacity:1" id="stop3756-1-6-2-6-6-1-96-6-0" offset="1"/></linearGradient><radialGradient id="radialGradient2873-966-168-714" cx="4.993" cy="43.5" r="2.5" fx="4.993" fy="43.5" gradientTransform="matrix(2.003784,0,0,1.4,27.98813,-17.4)" gradientUnits="userSpaceOnUse" xlink:href="#linearGradient3688-166-749-654"/><linearGradient id="linearGradient3688-166-749-654"><stop id="stop3088" offset="0" style="stop-color:#181818;stop-opacity:1"/><stop id="stop3090" offset="1" style="stop-color:#181818;stop-opacity:0"/></linearGradient><radialGradient id="radialGradient2875-742-326-419" cx="4.993" cy="43.5" r="2.5" fx="4.993" fy="43.5" gradientTransform="matrix(2.003784,0,0,1.4,-20.01187,-104.4)" gradientUnits="userSpaceOnUse" xlink:href="#linearGradient3688-464-309-604"/><linearGradient id="linearGradient3688-464-309-604"><stop id="stop3094" offset="0" style="stop-color:#181818;stop-opacity:1"/><stop id="stop3096" offset="1" style="stop-color:#181818;stop-opacity:0"/></linearGradient><linearGradient id="linearGradient2877-634-617-908" x1="25.058" x2="25.058" y1="47.028" y2="39.999" gradientUnits="userSpaceOnUse" xlink:href="#linearGradient3702-501-757-795"/><linearGradient id="linearGradient3702-501-757-795"><stop id="stop3100" offset="0" style="stop-color:#181818;stop-opacity:0"/><stop id="stop3102" offset=".5" style="stop-color:#181818;stop-opacity:1"/><stop id="stop3104" offset="1" style="stop-color:#181818;stop-opacity:0"/></linearGradient></defs><metadata id="metadata4337"/><g id="layer1"><g style="display:inline" id="g2036" transform="matrix(1.5000021,0,0,0.5555561,-4.0000114,35.888881)"><g style="opacity:.4" id="g3712" transform="matrix(1.052632,0,0,1.285713,-1.263158,-13.42854)"><rect style="fill:url(#radialGradient2873-966-168-714);fill-opacity:1;stroke:none" id="rect2801" width="5" height="7" x="38" y="40"/><rect style="fill:url(#radialGradient2875-742-326-419);fill-opacity:1;stroke:none" id="rect3696" width="5" height="7" x="-10" y="-47" transform="scale(-1,-1)"/><rect style="fill:url(#linearGradient2877-634-617-908);fill-opacity:1;stroke:none" id="rect3700" width="28" height="7" x="10" y="40"/></g></g><rect id="rect5505-21-3-8-5-2-9" width="55" height="55" x="4.5" y="4.5" rx="3" ry="3" style="color:#000;fill:url(#radialGradient4147);fill-opacity:1;fill-rule:nonzero;stroke:none;stroke-width:.99999994;marker:none;visibility:visible;display:inline;overflow:visible;enable-background:accumulate"/><path style="opacity:.1;color:#000;fill:#fff;fill-opacity:1;fill-rule:nonzero;stroke:none;stroke-width:1;marker:none;visibility:visible;display:inline;overflow:visible;enable-background:accumulate" id="rect2588-9" d="m 34,50 c 0.554,0 1,-0.446 1,-1 l 0,-3.34375 c 1.369766,-0.323396 2.647969,-0.874891 3.8125,-1.59375 l 2.375,2.375 c 0.391737,0.391737 1.014513,0.391738 1.40625,0 l 2.84375,-2.84375 c 0.391737,-0.391737 0.391738,-1.014513 0,-1.40625 l -2.375,-2.375 C 43.781359,38.647969 44.332854,37.369766 44.65625,36 L 48,36 c 0.554,0 1,-0.446 1,-1 l 0,-4 c 0,-0.554 -0.446,-1 -1,-1 l -3.34375,0 C 44.333179,28.631609 43.780113,27.35094 43.0625,26.1875 l 2.375,-2.375 c 0.391737,-0.391737 0.391738,-1.014513 0,-1.40625 L 42.59375,19.5625 c -0.391737,-0.391737 -1.014513,-0.391739 -1.40625,0 l -2.375,2.375 C 37.64906,21.219887 36.368391,20.666821 35,20.34375 L 35,17 c 0,-0.554 -0.446,-1 -1,-1 l -4,0 c -0.554,0 -1,0.446 -1,1 l 0,3.34375 c -1.369766,0.323396 -2.647969,0.874891 -3.8125,1.59375 l -2.375,-2.375 c -0.391737,-0.391737 -1.014513,-0.391739 -1.40625,0 l -2.84375,2.84375 c -0.391737,0.391737 -0.391739,1.014515 0,1.40625 l 2.375,2.375 C 20.218641,27.352031 19.667146,28.630234 19.34375,30 L 16,30 c -0.554,0 -1,0.446 -1,1 l 0,4 c 0,0.554 0.446,1 1,1 l 3.34375,0 c 0.323071,1.368391 0.876137,2.64906 1.59375,3.8125 l -2.375,2.375 c -0.391737,0.391737 -0.391739,1.014513 0,1.40625 l 2.84375,2.84375 c 0.391737,0.391737 1.014515,0.391738 1.40625,0 l 2.375,-2.375 c 1.16344,0.717613 2.444109,1.270679 3.8125,1.59375 L 29,49 c 0,0.554 0.446,1 1,1 l 4,0 z M 32,39 c -3.312001,0 -6,-2.688 -6,-6 -1e-6,-3.312001 2.688,-6 6,-6 3.311999,-1e-6 6,2.688 6,6 0,3.311999 -2.688,6 -6,6 z"/><rect style="opacity:.3;fill:none;stroke:url(#linearGradient3904);stroke-width:1;stroke-linecap:round;stroke-linejoin:round;stroke-miterlimit:4;stroke-opacity:1;stroke-dasharray:none;stroke-dashoffset:0" id="rect6741" width="53" height="53.142" x="5.5" y="5.429" rx="2" ry="2"/><path style="color:#000;fill:#455365;fill-opacity:1;fill-rule:nonzero;stroke:none;stroke-width:1;marker:none;visibility:visible;display:inline;overflow:visible;enable-background:accumulate" id="rect2588" d="m 34,48.999996 c 0.554,0 1,-0.446 1,-1 l 0,-3.34375 c 1.369766,-0.323396 2.647969,-0.874891 3.8125,-1.59375 l 2.375,2.375 c 0.391737,0.391737 1.014513,0.391738 1.40625,0 l 2.84375,-2.84375 c 0.391737,-0.391737 0.391738,-1.014513 0,-1.40625 l -2.375,-2.375 c 0.718859,-1.164531 1.270354,-2.442734 1.59375,-3.8125 l 3.34375,0 c 0.554,0 1,-0.446 1,-1 l 0,-4 c 0,-0.554 -0.446,-1 -1,-1 l -3.34375,0 c -0.323071,-1.368391 -0.876137,-2.64906 -1.59375,-3.8125 l 2.375,-2.375 c 0.391737,-0.391737 0.391738,-1.014513 0,-1.40625 l -2.84375,-2.84375 c -0.391737,-0.391737 -1.014513,-0.391739 -1.40625,0 l -2.375,2.375 C 37.64906,20.219883 36.368391,19.666817 35,19.343746 l 0,-3.34375 c 0,-0.554 -0.446,-1 -1,-1 l -4,0 c -0.554,0 -1,0.446 -1,1 l 0,3.34375 c -1.369766,0.323396 -2.647969,0.874891 -3.8125,1.59375 l -2.375,-2.375 c -0.391737,-0.391737 -1.014513,-0.391739 -1.40625,0 l -2.84375,2.84375 c -0.391737,0.391737 -0.391739,1.014515 0,1.40625 l 2.375,2.375 c -0.718859,1.164531 -1.270354,2.442734 -1.59375,3.8125 l -3.34375,0 c -0.554,0 -1,0.446 -1,1 l 0,4 c 0,0.554 0.446,1 1,1 l 3.34375,0 c 0.323071,1.368391 0.876137,2.64906 1.59375,3.8125 l -2.375,2.375 c -0.391737,0.391737 -0.391739,1.014513 0,1.40625 l 2.84375,2.84375 c 0.391737,0.391737 1.014515,0.391738 1.40625,0 l 2.375,-2.375 c 1.16344,0.717613 2.444109,1.270679 3.8125,1.59375 l 0,3.34375 c 0,0.554 0.446,1 1,1 l 4,0 z m -2,-11 c -3.312001,0 -6,-2.688 -6,-6 -1e-6,-3.312001 2.688,-6 6,-6 3.311999,-1e-6 6,2.688 6,6 0,3.311999 -2.688,6 -6,6 z"/><rect style="opacity:.5;color:#000;fill:none;stroke:#1c2c38;stroke-width:1;stroke-linecap:round;stroke-linejoin:round;stroke-miterlimit:4;stroke-opacity:1;stroke-dasharray:none;stroke-dashoffset:0;marker:none;visibility:visible;display:inline;overflow:visible;enable-background:accumulate" id="rect5505-21-9" width="55" height="55" x="4.5" y="4.5" rx="3" ry="3"/><g id="layer1-3" transform="translate(81.934012,-28.076924)"><path style="opacity:.05;fill:none;stroke:#000;stroke-width:1;stroke-miterlimit:4;stroke-opacity:1;stroke-dasharray:none;marker:none;visibility:visible;display:inline;overflow:visible;enable-background:accumulate" id="path4223" d="m -51.934014,43.60817 c -0.804703,0.222605 -0.348568,1.281314 -0.46875,1.908596 -0.08055,0.740159 0.162215,1.561065 -0.121682,2.253577 -0.946791,0.521873 -2.145879,0.608267 -3.081441,1.225548 -0.473765,0.255929 -1.200594,0.920472 -1.651377,0.257779 -0.804949,-0.773998 -1.553203,-1.616323 -2.395075,-2.345822 -0.704958,-0.03995 -1.059245,0.808936 -1.586425,1.192572 -0.613809,0.644191 -1.294904,1.23255 -1.864321,1.913575 -0.03996,0.704958 0.808935,1.059245 1.192571,1.586425 0.448811,0.560289 1.177928,0.952482 1.451028,1.621903 -0.291131,1.033677 -1.093555,1.926058 -1.327025,3.013355 -0.169622,0.515034 -0.196305,1.522037 -0.995733,1.372492 -1.111109,0.02298 -2.231177,-0.04667 -3.336505,0.03608 -0.534698,0.469535 -0.182122,1.322819 -0.284015,1.968508 0.02281,0.881923 -0.04646,1.772753 0.03608,2.648899 0.469535,0.534698 1.322819,0.182122 1.968508,0.284015 0.708318,0.07938 1.496867,-0.16062 2.157587,0.121682 0.521845,0.946927 0.60891,2.145889 1.225994,3.081642 0.255779,0.47375 0.919851,1.200553 0.257333,1.651176 -0.773998,0.804949 -1.616323,1.553203 -2.345822,2.395075 -0.03995,0.704958 0.808936,1.059245 1.192572,1.586425 0.644191,0.613809 1.23255,1.294904 1.913575,1.864321 0.704958,0.03995 1.059245,-0.808935 1.586425,-1.192571 0.560289,-0.448811 0.952482,-1.177928 1.621903,-1.451028 1.033895,0.291087 1.926638,1.093115 3.013917,1.327025 0.514909,0.169638 1.521482,0.196548 1.37193,0.995733 0.02298,1.111109 -0.04667,2.231177 0.03608,3.336505 0.469535,0.534698 1.322819,0.182122 1.968508,0.284015 0.881923,-0.02281 1.772753,0.04646 2.648899,-0.03608 0.534698,-0.469535 0.182122,-1.322819 0.284015,-1.968508 0.07938,-0.708318 -0.16062,-1.496867 0.121682,-2.157587 0.946791,-0.521873 2.145879,-0.608267 3.081441,-1.225548 0.473765,-0.255929 1.200594,-0.920472 1.651377,-0.257779 0.804949,0.773998 1.553203,1.616323 2.395075,2.345822 0.704958,0.03995 1.059245,-0.808936 1.586425,-1.192572 0.613809,-0.64419 1.294904,-1.232551 1.864322,-1.913575 0.03995,-0.704958 -0.808936,-1.059245 -1.192572,-1.586425 -0.448811,-0.560289 -1.177928,-0.952482 -1.451028,-1.621903 0.291131,-1.033677 1.093555,-1.926058 1.327025,-3.013355 0.169622,-0.515034 0.196305,-1.522037 0.995733,-1.372492 1.111109,-0.02298 2.231177,0.04666 3.336505,-0.03608 0.534698,-0.469535 0.182122,-1.322819 0.284015,-1.968508 -0.02281,-0.881923 0.04646,-1.772753 -0.03608,-2.648899 -0.469535,-0.534698 -1.322819,-0.182122 -1.968508,-0.284015 -0.708318,-0.07938 -1.496867,0.16062 -2.157587,-0.121682 -0.521845,-0.946927 -0.60891,-2.145889 -1.225994,-3.081642 -0.255779,-0.47375 -0.919851,-1.200553 -0.257333,-1.651176 0.773998,-0.804949 1.616323,-1.553203 2.345822,-2.395075 0.03995,-0.704958 -0.808936,-1.059245 -1.192572,-1.586425 -0.64419,-0.613809 -1.232551,-1.294904 -1.913575,-1.864322 -0.704958,-0.03995 -1.059245,0.808936 -1.586425,1.192572 -0.560289,0.448811 -0.952482,1.177928 -1.621903,1.451028 -1.033895,-0.291087 -1.926638,-1.093115 -3.013917,-1.327025 -0.514909,-0.169638 -1.521482,-0.196548 -1.37193,-0.995733 -0.02298,-1.111109 0.04666,-2.231177 -0.03608,-3.336505 -0.469535,-0.534698 -1.322819,-0.182122 -1.968508,-0.284015 -0.821388,0 -1.642776,0 -2.464164,0 z"/><path style="opacity:.05;fill:none;stroke:url(#linearGradient4225-5);stroke-width:1;stroke-miterlimit:4;stroke-opacity:1;stroke-dasharray:none;marker:none;visibility:visible;display:inline;overflow:visible;enable-background:accumulate" id="path4183" d="m -49.932439,66.617373 c 3.735852,0.112013 6.990959,-3.492835 6.497497,-7.198532 -0.272499,-3.722437 -4.178336,-6.592109 -7.8129,-5.731152 -3.672248,0.646417 -6.136746,4.809847 -4.921955,8.339501 0.799927,2.677335 3.439146,4.630411 6.237358,4.590183 z"/></g></g></svg>