<svg xmlns="http://www.w3.org/2000/svg" xmlns:svg="http://www.w3.org/2000/svg" xmlns:xlink="http://www.w3.org/1999/xlink" id="svg6333" width="64" height="64" version="1.1"><defs id="defs6335"><linearGradient id="linearGradient4658"><stop style="stop-color:#fafafa;stop-opacity:1" id="stop4660" offset="0"/><stop style="stop-color:#e2e1de;stop-opacity:1" id="stop4662" offset="1"/></linearGradient><radialGradient id="radialGradient3337-2-2-8" cx="4.993" cy="43.5" r="2.5" fx="4.993" fy="43.5" gradientTransform="matrix(2.003784,0,0,1.4,27.98813,-17.4)" gradientUnits="userSpaceOnUse" xlink:href="#linearGradient3688-166-749-4-0-3-8-1"/><linearGradient id="linearGradient3688-166-749-4-0-3-8-1"><stop style="stop-color:#181818;stop-opacity:1" id="stop2883-4-0-1-8-1" offset="0"/><stop style="stop-color:#181818;stop-opacity:0" id="stop2885-9-2-9-6-6" offset="1"/></linearGradient><radialGradient id="radialGradient3339-1-4-96" cx="4.993" cy="43.5" r="2.5" fx="4.993" fy="43.5" gradientTransform="matrix(2.003784,0,0,1.4,-20.01187,-104.4)" gradientUnits="userSpaceOnUse" xlink:href="#linearGradient3688-464-309-9-2-4-2-83"/><linearGradient id="linearGradient3688-464-309-9-2-4-2-83"><stop style="stop-color:#181818;stop-opacity:1" id="stop2889-7-9-6-9-4" offset="0"/><stop style="stop-color:#181818;stop-opacity:0" id="stop2891-6-6-1-7-4" offset="1"/></linearGradient><linearGradient id="linearGradient3702-501-757-8-4-1-1-4"><stop style="stop-color:#181818;stop-opacity:0" id="stop2895-8-9-9-1-7" offset="0"/><stop style="stop-color:#181818;stop-opacity:1" id="stop2897-7-8-7-7-6" offset=".5"/><stop style="stop-color:#181818;stop-opacity:0" id="stop2899-4-5-1-5-0" offset="1"/></linearGradient><linearGradient id="linearGradient5515" x1="25.058" x2="25.058" y1="47.028" y2="39.999" gradientUnits="userSpaceOnUse" xlink:href="#linearGradient3702-501-757-8-4-1-1-4"/><linearGradient id="linearGradient3510-2"><stop id="stop3512-7" offset="0" style="stop-color:#000;stop-opacity:1"/><stop id="stop3514-6" offset="1" style="stop-color:#000;stop-opacity:0"/></linearGradient><linearGradient id="linearGradient3924-2-2-5-8-0"><stop id="stop3926-9-4-9-6-6" offset="0" style="stop-color:#fff;stop-opacity:1"/><stop id="stop3928-9-8-6-5-1" offset=".063" style="stop-color:#fff;stop-opacity:.23529412"/><stop id="stop3930-3-5-1-7-98" offset=".951" style="stop-color:#fff;stop-opacity:.15686275"/><stop id="stop3932-8-0-4-8-60" offset="1" style="stop-color:#fff;stop-opacity:.39215687"/></linearGradient><linearGradient id="linearGradient3681" x1="24" x2="24" y1="5" y2="43" gradientTransform="matrix(1.4324324,0,0,1.4324324,-2.3783756,-2.3783737)" gradientUnits="userSpaceOnUse" xlink:href="#linearGradient3924-2-2-5-8-0"/><linearGradient id="linearGradient3681-6" x1="24" x2="24" y1="5" y2="43" gradientTransform="matrix(1.4324324,0,0,1.4324324,-2.3783756,-2.3783736)" gradientUnits="userSpaceOnUse" xlink:href="#linearGradient3924-2-2-5-8-0-2"/><linearGradient id="linearGradient3924-2-2-5-8-0-2"><stop id="stop3926-9-4-9-6-6-5" offset="0" style="stop-color:#fff;stop-opacity:1"/><stop id="stop3928-9-8-6-5-1-5" offset=".063" style="stop-color:#fff;stop-opacity:.23529412"/><stop id="stop3930-3-5-1-7-98-0" offset=".951" style="stop-color:#fff;stop-opacity:.15686275"/><stop id="stop3932-8-0-4-8-60-3" offset="1" style="stop-color:#fff;stop-opacity:.39215687"/></linearGradient><linearGradient id="linearGradient3242-7-3-8-0-4-58-06"><stop style="stop-color:#cdf87e;stop-opacity:1" id="stop3244-5-8-5-6-4-3-8" offset="0"/><stop style="stop-color:#a2e34f;stop-opacity:1" id="stop3246-9-5-1-5-3-0-7" offset=".262"/><stop style="stop-color:#68b723;stop-opacity:1" id="stop3248-7-2-0-7-5-35-9" offset=".661"/><stop style="stop-color:#1d7e0d;stop-opacity:1" id="stop3250-8-2-8-5-6-40-4" offset="1"/></linearGradient><linearGradient id="linearGradient4556-9" x1="25.132" x2="25.132" y1="15.5" y2="48.396" gradientTransform="matrix(1.2903867,0,0,1.2373259,1.0307217,-1.0669882)" gradientUnits="userSpaceOnUse" xlink:href="#linearGradient4658"/><linearGradient id="linearGradient4654" x1="24.17" x2="24.17" y1="-12.242" y2="48.934" gradientUnits="userSpaceOnUse" xlink:href="#linearGradient3242-7-3-8-0-4-58-06"/><linearGradient id="linearGradient4656" x1="23.954" x2="23.954" y1="15.999" y2="19.963" gradientTransform="matrix(1.4,0,0,0.5,-1.5999986,10.000001)" gradientUnits="userSpaceOnUse" xlink:href="#linearGradient3510-2"/></defs><metadata id="metadata6338"/><g style="opacity:.35" id="g3712-8-2-4-4-4" transform="matrix(1.5789502,0,0,0.7142857,-5.894751,27.928572)"><rect style="fill:url(#radialGradient3337-2-2-8);fill-opacity:1;stroke:none" id="rect2801-5-5-7-9-5" width="5" height="7" x="38" y="40"/><rect style="fill:url(#radialGradient3339-1-4-96);fill-opacity:1;stroke:none" id="rect3696-3-0-3-7-0" width="5" height="7" x="-10" y="-47" transform="scale(-1,-1)"/><rect style="fill:url(#linearGradient5515);fill-opacity:1;stroke:none" id="rect3700-5-6-8-4-5" width="28" height="7" x="10" y="40"/></g><rect style="color:#000;fill:url(#linearGradient4556-9);fill-opacity:1;fill-rule:nonzero;stroke:none;stroke-width:.99999994000000003;marker:none;visibility:visible;display:inline;overflow:visible;enable-background:accumulate" id="rect5505-21-3-8-5-2-6" width="54" height="54" x="5" y="5" rx="2.5" ry="2.5"/><rect style="opacity:.15;fill:url(#linearGradient4656);fill-opacity:1;fill-rule:nonzero;stroke:none;stroke-width:1;marker:none;visibility:visible;display:inline;overflow:visible;enable-background:accumulate" id="rect3508" width="56" height="2" x="4" y="18" rx="0" ry="0"/><rect style="opacity:1;fill:none;stroke:url(#linearGradient3681);stroke-width:1;stroke-linecap:round;stroke-linejoin:round;stroke-miterlimit:4;stroke-opacity:1;stroke-dasharray:none;stroke-dashoffset:0" id="rect6741-5-0-2-3" width="53" height="53" x="5.5" y="5.5" rx="2" ry="2"/><path id="rect4567" d="m 4.5,18 0,38.5 c 0,1.662 1.338,3 3,3 l 49,0 c 1.662,0 3,-1.338 3,-3 l 0,-38.5" style="opacity:.3;fill:none;stroke:#000;stroke-width:.99999994;stroke-miterlimit:4;stroke-dasharray:none"/><path id="rect5505-21-3-8-5-2-6-1" d="m 7.5,4.5 c -1.662,0 -3,1.338 -3,3 l 0,10 55,0 0,-10 c 0,-1.662 -1.338,-3 -3,-3 z" style="color:#000;fill:url(#linearGradient4654);fill-opacity:1;fill-rule:nonzero;stroke:none;stroke-width:.99999994000000003;marker:none;visibility:visible;display:inline;overflow:visible;enable-background:accumulate"/><path id="rect5505-21-3-8-9-1-1-7-8" d="m 7.5,4.5 c -1.662,0 -3,1.338 -3,3 l 0,10 55,0 0,-10 c 0,-1.662 -1.338,-3 -3,-3 z" style="opacity:.4;color:#000;fill:none;stroke:#126400;stroke-width:1;stroke-linecap:round;stroke-linejoin:miter;stroke-miterlimit:4;stroke-opacity:1;stroke-dasharray:none;stroke-dashoffset:0;marker:none;visibility:visible;display:inline;overflow:visible;enable-background:accumulate"/><path id="rect6741-5-0-2-3-4" d="m 7.5,5.5 c -1.108,0 -2,0.892 -2,2 l 0,9 53,0 0,-9 c 0,-1.108 -0.892,-2 -2,-2 z" style="opacity:.5;fill:none;stroke:url(#linearGradient3681-6);stroke-width:1;stroke-linecap:round;stroke-linejoin:round;stroke-miterlimit:4;stroke-opacity:1;stroke-dasharray:none;stroke-dashoffset:0"/><path style="opacity:.2;fill:none;stroke:#fff;stroke-width:1;stroke-miterlimit:4;stroke-opacity:1;stroke-dasharray:none" id="rect4188-6-4" d="m 52.5,45.5 -41,0 z M 52.469808,26.530497 11.5,26.5 l 0,26 41,0 z M 52.5,39.499592 l -41,0 M 52.5,33.5 l -41,0 M 19.527775,26.55763 19.472225,52.5 M 27.510671,26.670554 27.5,52.5 M 35.494267,26.580214 35.505737,52.5 M 43.458576,26.489875 43.5,52.5"/><path style="opacity:.25;fill:none;stroke:#5e553c;stroke-width:1;stroke-miterlimit:4;stroke-opacity:1;stroke-dasharray:none" id="rect4188-6-4-0" d="m 52.5,44.500408 -41,0 z M 52.469808,25.530905 11.5,25.500408 l 0,26 41,0 z M 52.5,38.5 l -41,0 m 41,-5.999592 -41,0 m 8.027775,-6.94237 -0.05555,25.94237 M 27.510671,25.670962 27.5,51.500408 m 7.994267,-25.919786 0.01147,25.919786 M 43.458576,25.490283 43.5,51.500408"/><path id="path4682-6" d="m 11.464567,11.472441 a 1.1023622,1.0472441 0 1 1 -2.2047246,0 1.1023622,1.0472441 0 1 1 2.2047246,0 z" transform="matrix(1.3607143,0,0,1.4323308,-1.6,-4.4323301)" style="opacity:.3;color:#000;fill:#fff;fill-opacity:1;fill-rule:nonzero;stroke:none;stroke-width:1.07444978;marker:none;visibility:visible;display:inline;overflow:visible;enable-background:accumulate"/><path id="path4682-6-1" d="m 11.464567,11.472441 a 1.1023622,1.0472441 0 1 1 -2.2047246,0 1.1023622,1.0472441 0 1 1 2.2047246,0 z" transform="matrix(1.3607143,0,0,1.4323308,-1.6,-5.4323303)" style="opacity:.4;color:#000;fill:#126400;fill-opacity:1;fill-rule:nonzero;stroke:none;stroke-width:1.07444978;marker:none;visibility:visible;display:inline;overflow:visible;enable-background:accumulate"/><path id="path4682-6-3" d="m 11.464567,11.472441 a 1.1023622,1.0472441 0 1 1 -2.2047246,0 1.1023622,1.0472441 0 1 1 2.2047246,0 z" transform="matrix(1.3607143,0,0,1.4323308,36.9,-4.4323303)" style="opacity:.3;color:#000;fill:#fff;fill-opacity:1;fill-rule:nonzero;stroke:none;stroke-width:1.07444978;marker:none;visibility:visible;display:inline;overflow:visible;enable-background:accumulate"/><path id="path4682-6-1-5" d="m 11.464567,11.472441 a 1.1023622,1.0472441 0 1 1 -2.2047246,0 1.1023622,1.0472441 0 1 1 2.2047246,0 z" transform="matrix(1.3607143,0,0,1.4323308,36.9,-5.4323303)" style="opacity:.4;color:#000;fill:#126400;fill-opacity:1;fill-rule:nonzero;stroke:none;stroke-width:1.07444978;marker:none;visibility:visible;display:inline;overflow:visible;enable-background:accumulate"/></svg>