<svg xmlns="http://www.w3.org/2000/svg" xmlns:svg="http://www.w3.org/2000/svg" xmlns:xlink="http://www.w3.org/1999/xlink" id="svg3876" width="64" height="64" version="1.1"><defs id="defs3878"><linearGradient id="linearGradient3878"><stop id="stop3880" offset="0" style="stop-color:#fff;stop-opacity:1"/><stop id="stop3882" offset=".084" style="stop-color:#fff;stop-opacity:.23529412"/><stop id="stop3884" offset=".951" style="stop-color:#fff;stop-opacity:.15686275"/><stop id="stop3886" offset="1" style="stop-color:#fff;stop-opacity:.39215687"/></linearGradient><linearGradient id="linearGradient3977"><stop id="stop3979" offset="0" style="stop-color:#fff;stop-opacity:1"/><stop id="stop3981" offset=".036" style="stop-color:#fff;stop-opacity:.23529412"/><stop id="stop3983" offset=".951" style="stop-color:#fff;stop-opacity:.15686275"/><stop id="stop3985" offset="1" style="stop-color:#fff;stop-opacity:.39215687"/></linearGradient><linearGradient id="linearGradient3827"><stop id="stop3829" offset="0" style="stop-color:#fff;stop-opacity:1"/><stop id="stop4295" offset=".302" style="stop-color:#fff;stop-opacity:1"/><stop id="stop4293" offset=".344" style="stop-color:#fff;stop-opacity:.64347827"/><stop id="stop3832" offset="1" style="stop-color:#fff;stop-opacity:.39130434"/></linearGradient><linearGradient id="linearGradient4559"><stop id="stop4561" offset="0" style="stop-color:#fff;stop-opacity:0"/><stop id="stop4563" offset="1" style="stop-color:#fff;stop-opacity:0"/></linearGradient><linearGradient id="linearGradient3199"><stop id="stop3201" offset="0" style="stop-color:#dac196;stop-opacity:1"/><stop id="stop3203" offset=".239" style="stop-color:#c7ae8e;stop-opacity:1"/><stop id="stop3205" offset=".276" style="stop-color:#dac197;stop-opacity:1"/><stop id="stop3207" offset="1" style="stop-color:#b19974;stop-opacity:1"/></linearGradient><linearGradient id="linearGradient3681"><stop id="stop3683" offset="0" style="stop-color:#000;stop-opacity:1"/><stop id="stop3685" offset="1" style="stop-color:#000;stop-opacity:0"/></linearGradient><linearGradient id="linearGradient3703"><stop id="stop3705" offset="0" style="stop-color:#000;stop-opacity:0"/><stop id="stop3711" offset=".5" style="stop-color:#000;stop-opacity:1"/><stop id="stop3707" offset="1" style="stop-color:#000;stop-opacity:0"/></linearGradient><radialGradient id="radialGradient3315" cx="99.157" cy="186.171" r="62.769" fx="99.157" fy="186.171" gradientTransform="matrix(0.17524541,0,0,0.05575992,-1.3768101,18.118568)" gradientUnits="userSpaceOnUse" xlink:href="#linearGradient3820-7-2-2"/><linearGradient id="linearGradient3820-7-2-2"><stop style="stop-color:#3d3d3d;stop-opacity:1" id="stop3822-2-6-36" offset="0"/><stop style="stop-color:#686868;stop-opacity:.49803922" id="stop3864-8-7-6" offset=".5"/><stop style="stop-color:#686868;stop-opacity:0" id="stop3824-1-2-4" offset="1"/></linearGradient><radialGradient id="radialGradient3092" cx="3.972" cy="8.45" r="20" fx="3.972" fy="8.45" gradientTransform="matrix(0,1.7674684,-1.8697707,-4.8107771e-8,31.79921,-9.5910622)" gradientUnits="userSpaceOnUse" xlink:href="#linearGradient2867-449-88-871-390-598-476-591-434-148-57-177-3-8-9"/><linearGradient id="linearGradient3089" x1="71.204" x2="71.204" y1="6.238" y2="44.341" gradientTransform="matrix(0.72972969,0,0,0.72972969,-36.346075,-2.5039314)" gradientUnits="userSpaceOnUse" xlink:href="#linearGradient4011-4"/><linearGradient id="linearGradient4011-4"><stop style="stop-color:#fff;stop-opacity:1" id="stop4013-8" offset="0"/><stop style="stop-color:#fff;stop-opacity:.23529412" id="stop4015-5" offset=".508"/><stop style="stop-color:#fff;stop-opacity:.15686275" id="stop4017-6" offset=".835"/><stop style="stop-color:#fff;stop-opacity:.39215687" id="stop4019-1" offset="1"/></linearGradient><linearGradient id="linearGradient2867-449-88-871-390-598-476-591-434-148-57-177-3-8-9"><stop style="stop-color:#90dbec;stop-opacity:1" id="stop3750-8-9-6" offset="0"/><stop style="stop-color:#42baea;stop-opacity:1" id="stop3752-3-2-0" offset=".262"/><stop style="stop-color:#3689e6;stop-opacity:1" id="stop3754-7-2-8" offset=".705"/><stop style="stop-color:#2b63a0;stop-opacity:1" id="stop3756-9-3-2" offset="1"/></linearGradient><linearGradient id="linearGradient3462" x1="24" x2="24" y1="7.347" y2="43" gradientTransform="matrix(1.4324324,0,0,0.29729727,-2.3783695,10.864868)" gradientUnits="userSpaceOnUse" xlink:href="#linearGradient3878"/><linearGradient id="linearGradient3465" x1="24" x2="24" y1="5.564" y2="43" gradientTransform="matrix(1.4324324,0,0,0.94594598,-2.3783695,18.297308)" gradientUnits="userSpaceOnUse" xlink:href="#linearGradient3977"/><linearGradient id="linearGradient3468" x1="24.537" x2="24.537" y1="21.915" y2="7.913" gradientTransform="matrix(1.5000002,0,0,1.3571428,-4.0000033,-0.367142)" gradientUnits="userSpaceOnUse" xlink:href="#linearGradient3827"/><linearGradient id="linearGradient3471" x1="23.452" x2="43.007" y1="30.555" y2="45.934" gradientTransform="matrix(1.7096354,0,0,1.5662514,-8.2500627,-6.914508)" gradientUnits="userSpaceOnUse" xlink:href="#linearGradient4559"/><linearGradient id="linearGradient3474" x1="24.823" x2="24.997" y1="15.378" y2="37.277" gradientTransform="matrix(1.7199954,0,0,2.0748651,-8.3273637,-20.164973)" gradientUnits="userSpaceOnUse" xlink:href="#linearGradient3199"/><radialGradient id="radialGradient3479" cx="5" cy="41.5" r="5" fx="5" fy="41.5" gradientTransform="matrix(0.53494061,0,0,1.6000016,55.835572,-121.40007)" gradientUnits="userSpaceOnUse" xlink:href="#linearGradient3681"/><linearGradient id="linearGradient3482" x1="17.554" x2="17.554" y1="46" y2="35" gradientTransform="matrix(2.3255213,0,0,1.454547,-22.729379,-3.909167)" gradientUnits="userSpaceOnUse" xlink:href="#linearGradient3703"/><radialGradient id="radialGradient3485" cx="5" cy="41.5" r="5" fx="5" fy="41.5" gradientTransform="matrix(0.53494061,0,0,1.6000016,-7.8515767,-121.40007)" gradientUnits="userSpaceOnUse" xlink:href="#linearGradient3681"/></defs><metadata id="metadata3881"/><rect style="opacity:.4;fill:url(#radialGradient3485);fill-opacity:1;stroke:none" id="rect2484" width="2.667" height="16" x="-5.177" y="-63" transform="scale(-1,-1)"/><rect style="opacity:.4;fill:url(#linearGradient3482);fill-opacity:1;stroke:none" id="rect2486" width="53.487" height="16" x="5.177" y="47"/><rect style="opacity:.4;fill:url(#radialGradient3479);fill-opacity:1;stroke:none;display:inline" id="rect3444" width="2.667" height="16" x="58.51" y="-63" transform="scale(1,-1)"/><path style="fill:url(#linearGradient3474);fill-opacity:1;fill-rule:nonzero;stroke:none;stroke-width:.99420076999999996;stroke-linecap:round;stroke-linejoin:miter;stroke-miterlimit:4;stroke-opacity:1;stroke-dasharray:none;stroke-dashoffset:0;marker:none;visibility:visible;display:block;overflow:visible" id="path2488" d="m 11.902398,11.533361 39.568675,0 c 2.309896,0 3.349408,-0.381794 4.012912,1.33238 l 4.026569,10.659042 0,34.207414 c 0,2.069592 0.138072,1.75338 -2.171834,1.75338 l -50.6589807,0 c -2.3099057,0 -2.1718353,0.316212 -2.1718353,-1.75338 l 0,-34.207414 4.0265707,-10.659042 c 0.6449944,-1.679548 1.0580172,-1.33238 3.3679233,-1.33238 z"/><path style="opacity:.50549454;fill:none;stroke:url(#linearGradient3471);stroke-width:.74211526;stroke-linecap:butt;stroke-linejoin:miter;stroke-miterlimit:4;stroke-opacity:1;stroke-dasharray:none;stroke-dashoffset:0;marker:none;visibility:visible;display:block;overflow:visible" id="path2490" d="m 13.107808,12.840333 36.870538,0 c 2.152394,0 3.484511,0.742049 4.386032,2.781374 l 3.105258,8.559638 0,30.859443 c 0,1.947571 -1.09168,2.928116 -3.244079,2.928116 l -44.9776537,0 c -2.1523936,0 -3.0303715,-1.078436 -3.0303715,-3.026008 l 0,-30.761551 3.0050845,-8.743157 c 0.601017,-1.580524 1.7327947,-2.597855 3.8851917,-2.597855 z"/><path style="opacity:.3;fill:url(#linearGradient3468);fill-opacity:1;fill-rule:nonzero;stroke:none;stroke-width:1;marker:none;visibility:visible;display:inline;overflow:visible;enable-background:accumulate" id="rect3326" d="m 29.5,11 c 0,0 3.000001,0 5,0 L 35,23.451264 35,29.49 c -0.590593,0 -1.181187,-1.046472 -1.771781,-1.046472 -0.604687,0 -1.209374,1.046472 -1.814062,1.046472 -0.486792,0 -0.973586,-0.915664 -1.460377,-0.915664 -0.317928,0 -0.635854,0.915664 -0.95378,0.915664 0,0 -0.137862,-2.60563 0,-6.038736 z"/><path style="opacity:.3;fill:none;stroke:url(#linearGradient3465);stroke-width:1;stroke-linecap:round;stroke-linejoin:round;stroke-miterlimit:4;stroke-opacity:1;stroke-dasharray:none;stroke-dashoffset:0" id="rect6741-1" d="m 58.5,58.500001 -53,0 0,-35.000001 53,0 z"/><path style="opacity:.2;fill:none;stroke:url(#linearGradient3462);stroke-width:.99999994;stroke-linecap:round;stroke-linejoin:round;stroke-miterlimit:4;stroke-opacity:1;stroke-dasharray:none;stroke-dashoffset:0" id="rect6741-1-1" d="m 5.5,23.5 4.4535071,-11 44.0929869,0 4.453506,11"/><path style="fill:none;fill-opacity:1;fill-rule:nonzero;stroke:#5a3700;stroke-width:.99420076999999996;stroke-linecap:round;stroke-linejoin:miter;stroke-miterlimit:4;stroke-opacity:1;stroke-dasharray:none;stroke-dashoffset:0;marker:none;visibility:visible;display:block;overflow:visible;opacity:.34999999999999998;color:#000;enable-background:accumulate" id="path2488-5" d="m 11.902398,11.533361 39.568675,0 c 2.309896,0 3.349408,-0.381794 4.012912,1.33238 l 4.026569,10.659042 0,34.207414 c 0,2.069592 0.138072,1.75338 -2.171834,1.75338 l -50.6589807,0 c -2.3099057,0 -2.1718353,0.316212 -2.1718353,-1.75338 l 0,-34.207414 4.0265707,-10.659042 c 0.6449944,-1.679548 1.0580172,-1.33238 3.3679233,-1.33238 z"/><g id="g3241" transform="translate(33,32)"><path style="fill:url(#radialGradient3315);fill-opacity:1;stroke:none" id="path3818-0-2" d="m 27.000001,28.499422 a 11,3.4999999 0 1 1 -21.9999997,0 11,3.4999999 0 1 1 21.9999997,0 z"/><path style="color:#000;fill:url(#radialGradient3092);fill-opacity:1;fill-rule:nonzero;stroke:none;stroke-width:1;marker:none;visibility:visible;display:inline;overflow:visible;enable-background:accumulate" id="path2555" d="M 16.000002,1.4999989 C 7.9994024,1.4999989 1.5,7.9993978 1.5,15.999998 1.5,24.0006 7.9994024,30.500002 16.000002,30.5 24.000599,30.5 30.500007,24.0006 30.5,15.999998 30.5,7.9993978 24.000599,1.4999989 16.000002,1.4999989 z"/><path style="opacity:.5;color:#000;fill:#000;fill-opacity:0;fill-rule:nonzero;stroke:#00537d;stroke-width:1;stroke-linecap:round;stroke-linejoin:round;stroke-miterlimit:4;stroke-opacity:1;stroke-dasharray:none;stroke-dashoffset:0;marker:none;visibility:visible;display:inline;overflow:visible;enable-background:accumulate" id="path2555-6" d="M 16.000002,1.4999989 C 7.999402,1.4999989 1.5,7.9993981 1.5,15.999999 1.5,24.000599 7.999402,30.500002 16.000002,30.5 24.000598,30.5 30.500008,24.000599 30.5,15.999999 30.5,7.9993981 24.000598,1.4999989 16.000002,1.4999989 z"/><path style="opacity:.5;color:#000;fill:none;stroke:url(#linearGradient3089);stroke-width:1;stroke-linecap:round;stroke-linejoin:round;stroke-miterlimit:4;stroke-opacity:1;stroke-dasharray:none;stroke-dashoffset:0;marker:none;visibility:visible;display:inline;overflow:visible;enable-background:accumulate" id="path8655" d="m 29.5,15.999521 c 0,7.456085 -6.044601,13.500478 -13.499829,13.500478 C 8.54426,29.499999 2.5,23.455537 2.5,15.999521 2.5,8.5437808 8.54426,2.5000002 16.000171,2.5000002 23.455399,2.5000002 29.5,8.5437808 29.5,15.999521 l 0,0 z"/><path style="font-size:40px;font-style:normal;font-variant:normal;font-weight:700;font-stretch:normal;text-align:start;line-height:100%;writing-mode:lr-tb;text-anchor:start;opacity:.05;color:#000;fill:#000;fill-opacity:1;fill-rule:nonzero;stroke:none;stroke-width:1;marker:none;visibility:visible;display:inline;overflow:visible;enable-background:accumulate;font-family:URW Palladio L;-inkscape-font-specification:URW Palladio L Bold" id="path3504" d="m 18.34375,6.03125 c -0.0255,-0.00135 -0.03725,0.031861 -0.0625,0.03125 -0.01054,1.579e-4 -0.02068,-2.953e-4 -0.03125,0 -1.35571,-0.016063 -2.350157,0.9942143 -2.6875,2.09375 -0.173133,0.5643104 -0.224753,1.2113961 -0.03125,1.8125 0.193503,0.601104 0.656639,1.164301 1.3125,1.46875 a 0.95737768,0.95737768 0 0 0 0.03125,0 c 2.084442,0.854849 4.273239,-1.115916 3.84375,-3.25 -0.0065,-0.03238 0.0077,-0.061309 0,-0.09375 l -0.03125,0 C 20.480929,6.9689355 19.539911,6.0755784 18.34375,6.0625 l 0,-0.03125 z m -0.75,6.3125 c -0.536723,-0.0441 -0.98401,0.248972 -1.40625,0.53125 l -0.03125,-0.0625 c -0.07106,0.03095 -0.117553,0.09285 -0.1875,0.125 C 14.157357,13.770089 12.682644,14.953612 11.25,16 a 0.95737768,0.95737768 0 0 0 -0.34375,1.125 c 0.102217,0.277874 0.100526,0.592509 0.625,1 0.262237,0.203746 0.803188,0.321312 1.15625,0.1875 0.224751,-0.08518 0.340742,-0.215831 0.46875,-0.34375 0.184676,-0.109877 0.381197,-0.206187 0.59375,-0.34375 -0.54875,2.308654 -1.156526,4.626997 -1.65625,7 l 0.03125,0 c -0.343604,1.018816 -0.11613,2.093879 0.59375,2.75 0.702454,0.649258 1.8484,0.707746 2.8125,0.15625 l 0.03125,0.03125 c 0.06013,-0.02479 0.09697,-0.06796 0.15625,-0.09375 1.58005,-0.687456 2.890007,-1.697155 4.125,-2.5625 A 0.95737768,0.95737768 0 0 0 20.15625,23.75 C 20.10246,23.618082 20.0994,23.353288 19.75,22.90625 c -0.174702,-0.223519 -0.667616,-0.517736 -1.125,-0.4375 -0.270477,0.04745 -0.353259,0.189468 -0.5,0.3125 L 18.09375,22.75 c -0.313004,0.142069 -0.458811,0.278293 -0.6875,0.4375 C 17.949399,20.834919 18.678634,18.482925 19.25,16 c 0.01518,-0.06598 0.04766,-0.121342 0.0625,-0.1875 l -0.0625,0 c 0.255508,-0.687803 0.302226,-1.435374 0.0625,-2.0625 -0.261501,-0.68409 -0.856298,-1.335389 -1.71875,-1.40625 z"/><path style="font-size:40px;font-style:normal;font-variant:normal;font-weight:700;font-stretch:normal;text-align:start;line-height:100%;writing-mode:lr-tb;text-anchor:start;opacity:.15;color:#000;fill:#000;fill-opacity:1;fill-rule:nonzero;stroke:none;stroke-width:1;marker:none;visibility:visible;display:inline;overflow:visible;enable-background:accumulate;font-family:URW Palladio L;-inkscape-font-specification:URW Palladio L Bold" id="path3536-1-5" d="m 11.8,16.787587 c 0.191223,0.519832 0.406458,0.941195 0.864931,0.365039 0.568405,-0.338187 2.472919,-1.820561 2.282349,-0.368542 -0.609824,2.686875 -1.352116,5.345494 -1.919681,8.040646 -0.593471,1.475717 0.754185,2.810565 2.161236,1.850899 1.495604,-0.616549 2.782567,-1.620801 4.097346,-2.542051 -0.179393,-0.43995 -0.298961,-1.071935 -0.794641,-0.496581 -0.650854,0.295414 -2.07239,1.688183 -2.336485,0.539461 0.546711,-2.9094 1.559643,-5.7111 2.207127,-8.597302 0.595853,-1.327069 -0.377292,-3.003869 -1.833979,-1.9061 -1.745148,0.760068 -3.20455,2.001671 -4.728203,3.114531 z m 6.476807,-9.7853063 c -1.780567,-0.09449 -2.711509,2.77583 -1.019448,3.5612803 1.372757,0.56298 2.867444,-0.8449573 2.532085,-2.2518113 -0.104074,-0.732561 -0.761774,-1.334112 -1.512636,-1.309469 l -10e-7,0 z"/><path style="font-size:40px;font-style:normal;font-variant:normal;font-weight:700;font-stretch:normal;text-align:start;line-height:100%;writing-mode:lr-tb;text-anchor:start;fill:#fff;fill-opacity:1;stroke:none;font-family:URW Palladio L;-inkscape-font-specification:URW Palladio L Bold" id="path3536-1" d="m 11.8,15.787587 c 0.191223,0.519832 0.406458,0.941195 0.864931,0.365039 0.568405,-0.338187 2.472919,-1.820561 2.282349,-0.368542 -0.609824,2.686875 -1.352116,5.345494 -1.919681,8.040646 -0.593471,1.475717 0.754185,2.810565 2.161236,1.850899 1.495604,-0.616549 2.782567,-1.620801 4.097346,-2.542051 -0.179393,-0.43995 -0.298961,-1.071935 -0.794641,-0.496581 -0.650854,0.295414 -2.07239,1.688183 -2.336485,0.539461 0.546711,-2.9094 1.559643,-5.7111 2.207127,-8.597302 0.595853,-1.327069 -0.377292,-3.003869 -1.833979,-1.9061 -1.745148,0.760068 -3.20455,2.001671 -4.728203,3.114531 z M 18.276807,6.00228 C 16.49624,5.90779 15.565298,8.77811 17.257359,9.56356 18.630116,10.126541 20.124803,8.718603 19.789444,7.311749 19.68537,6.579188 19.02767,5.977637 18.276808,6.00228 l -10e-7,0 z"/></g></svg>