<svg xmlns="http://www.w3.org/2000/svg" xmlns:svg="http://www.w3.org/2000/svg" xmlns:xlink="http://www.w3.org/1999/xlink" id="svg3883" width="32" height="32" version="1.1"><defs id="defs3885"><linearGradient id="linearGradient4336"><stop style="stop-color:#fff;stop-opacity:1" id="stop4338" offset="0"/><stop style="stop-color:#fff;stop-opacity:.23529412" id="stop4340" offset=".149"/><stop style="stop-color:#fff;stop-opacity:.15686275" id="stop4342" offset=".679"/><stop style="stop-color:#fff;stop-opacity:.39215687" id="stop4344" offset="1"/></linearGradient><linearGradient id="linearGradient8265-821-176-38-919-66-249"><stop id="stop2687" offset="0" style="stop-color:#fff;stop-opacity:.27450982"/><stop id="stop2689" offset="1" style="stop-color:#fff;stop-opacity:0"/></linearGradient><linearGradient id="linearGradient3846"><stop id="stop3848" offset="0" style="stop-color:#fff3cb;stop-opacity:1"/><stop id="stop3850" offset=".262" style="stop-color:#fdde76;stop-opacity:1"/><stop id="stop3852" offset=".661" style="stop-color:#f9c440;stop-opacity:1"/><stop id="stop3854" offset="1" style="stop-color:#e48b20;stop-opacity:1"/></linearGradient><linearGradient id="linearGradient8838"><stop id="stop8840" offset="0" style="stop-color:#000;stop-opacity:1"/><stop id="stop8842" offset="1" style="stop-color:#000;stop-opacity:0"/></linearGradient><linearGradient id="linearGradient3038" x1="11.566" x2="15.215" y1="22.292" y2="33.955" gradientTransform="matrix(0.64444615,0,0,0.64444615,2.4537238,-1.478483)" gradientUnits="userSpaceOnUse" xlink:href="#linearGradient8265-821-176-38-919-66-249"/><linearGradient id="linearGradient3041" x1="29.647" x2="29.647" y1="16.097" y2="34.817" gradientTransform="matrix(0.64444615,0,0,0.64444615,0.53333069,0.53325595)" gradientUnits="userSpaceOnUse" xlink:href="#linearGradient4336"/><radialGradient id="radialGradient3044" cx="13.139" cy="25.625" r="13.931" fx="13.139" fy="25.625" gradientTransform="matrix(0,1.7104018,-2.0382599,0,63.162289,-16.657885)" gradientUnits="userSpaceOnUse" xlink:href="#linearGradient3846"/><radialGradient id="radialGradient3049" cx="62.625" cy="4.625" r="10.625" fx="62.625" fy="4.625" gradientTransform="matrix(1.4117648,0,0,0.56470513,-72.411731,23.388235)" gradientUnits="userSpaceOnUse" xlink:href="#linearGradient8838"/><radialGradient id="radialGradient3343" cx="65.325" cy="48.709" r="31" fx="65.325" fy="48.709" gradientTransform="matrix(0,0.68597915,-0.7462606,0,60.288383,-27.737493)" gradientUnits="userSpaceOnUse" xlink:href="#linearGradient3242-7-3-8-0-4-58-06"/><linearGradient id="linearGradient3242-7-3-8-0-4-58-06"><stop style="stop-color:#cdf87e;stop-opacity:1" id="stop3244-5-8-5-6-4-3-8" offset="0"/><stop style="stop-color:#a2e34f;stop-opacity:1" id="stop3246-9-5-1-5-3-0-7" offset=".262"/><stop style="stop-color:#68b723;stop-opacity:1" id="stop3248-7-2-0-7-5-35-9" offset=".661"/><stop style="stop-color:#1d7e0d;stop-opacity:1" id="stop3250-8-2-8-5-6-40-4" offset="1"/></linearGradient><linearGradient id="linearGradient3030-2" x1="24.139" x2="24.139" y1="10.171" y2="36.136" gradientTransform="matrix(0.42269325,0,0,0.38513145,14.544843,15.082967)" gradientUnits="userSpaceOnUse" xlink:href="#linearGradient4154"/><linearGradient id="linearGradient4154"><stop id="stop4156" offset="0" style="stop-color:#fff;stop-opacity:1"/><stop id="stop4158" offset="0" style="stop-color:#fff;stop-opacity:.23529412"/><stop id="stop4160" offset="1" style="stop-color:#fff;stop-opacity:.15686275"/><stop id="stop4162" offset="1" style="stop-color:#fff;stop-opacity:.39215687"/></linearGradient><linearGradient id="linearGradient3030-1" x1="24.139" x2="24.139" y1="20.749" y2="25.528" gradientTransform="matrix(0.38833389,0,0,0.41842122,15.301011,14.318351)" gradientUnits="userSpaceOnUse" xlink:href="#linearGradient4333"/><linearGradient id="linearGradient4333"><stop style="stop-color:#fff;stop-opacity:1" id="stop4335" offset="0"/><stop style="stop-color:#fff;stop-opacity:.23529412" id="stop4337" offset="0"/><stop style="stop-color:#fff;stop-opacity:.15686275" id="stop4339" offset="1"/><stop style="stop-color:#fff;stop-opacity:.39215687" id="stop4341" offset="1"/></linearGradient></defs><metadata id="metadata3888"/><path id="path8836" d="m 31.000038,25.999999 c 0,3.313709 -6.715729,6.000001 -15,6.000001 C 7.7157681,32 1.0000383,29.313708 1.0000383,25.999999 1.0000383,22.686292 7.7157681,20 16.000038,20 c 8.284271,0 15,2.686292 15,5.999999 l 0,0 z" style="opacity:.3;fill:url(#radialGradient3049);fill-opacity:1;fill-rule:evenodd;stroke:none;stroke-width:.99999988;marker:none;visibility:visible;display:inline;overflow:visible"/><path id="path1307" d="m 16.000037,1.4974327 c 0.978784,0 4.13436,7.910881 4.926214,8.488271 0.791851,0.5773873 9.263652,1.1447403 9.566113,2.0789733 0.302461,0.934234 -6.219087,6.39078 -6.521548,7.325013 -0.30246,0.934233 1.777824,9.195756 0.985972,9.773145 -0.791853,0.577387 -7.977967,-3.961163 -8.956752,-3.961163 -0.978783,0 -8.1648972,4.53855 -8.9567501,3.961163 C 6.251434,28.585446 8.331718,20.323922 8.0292575,19.38969 7.7267971,18.455457 1.2052494,12.99891 1.5077102,12.064675 1.810171,11.130444 10.281971,10.563091 11.073825,9.9857037 c 0.791852,-0.57739 3.947429,-8.488271 4.926212,-8.488271 z" style="fill:url(#radialGradient3044);fill-opacity:1;fill-rule:nonzero;stroke:none;stroke-width:.9922713;stroke-linecap:butt;stroke-linejoin:round;stroke-miterlimit:4;stroke-opacity:1;stroke-dasharray:none;stroke-dashoffset:0;marker:none;visibility:visible;display:inline;overflow:visible"/><path id="path3849" d="m 16.008597,2.928904 c -1.412439,2.674148 -2.696301,5.432298 -4.168399,8.065176 -2.9741416,0.571623 -5.9951175,1.01272 -8.9878512,1.528574 2.068776,2.127369 4.1154729,4.286762 6.1689248,6.422463 -0.027883,1.120075 -0.3297428,2.255067 -0.4115096,3.383432 -0.2151051,1.763357 -0.4094732,3.879237 -0.6636652,5.637582 2.6703322,-1.317263 5.3192342,-2.753549 8.0028352,-4.033221 2.889137,1.162973 5.624472,2.788167 8.207491,4.091509 -0.404423,-2.843686 -0.92157,-6.105122 -1.297355,-8.947299 0.677523,-0.936651 1.653369,-1.671505 2.415879,-2.553298 1.294961,-1.335342 2.582496,-2.677954 3.8899,-4.001168 C 26.202411,11.826315 23.141566,11.581333 20.170798,10.994151 19.464002,9.967625 19.007366,8.751401 18.398572,7.654132 17.60478,6.077613 16.818147,4.497431 16.008597,2.928904 z" style="opacity:.8;fill:none;stroke:url(#linearGradient3041);stroke-width:1;stroke-linecap:butt;stroke-linejoin:round;stroke-miterlimit:4;stroke-opacity:1;stroke-dasharray:none;stroke-dashoffset:0;marker:none;visibility:visible;display:inline;overflow:visible"/><path id="path3853" d="m 16.008597,2.241404 c -0.254446,0.374093 -2.346828,3.472786 -4.375,8.25 a 0.20608164,0.20608164 0 0 1 -0.03125,0.03125 0.20608164,0.20608164 0 0 1 -0.09375,0.0625 0.20608164,0.20608164 0 0 1 -0.03125,0.03125 c -3.0053008,0.490049 -7.0029861,1.038743 -9.3125002,1.6875 1.5783275,2.00052 3.5604578,3.737007 5.34375,5.5625 l 20.2500002,-3.59375 c 0.582787,-0.584147 1.71282,-1.713072 2,-2 -2.871985,-0.776885 -6.239483,-1.134102 -9.25,-1.625 a 0.20608164,0.20608164 0 0 1 -0.03125,-0.03125 0.20608164,0.20608164 0 0 1 -0.09375,-0.0625 0.20608164,0.20608164 0 0 1 -0.03125,-0.03125 C 18.827185,6.981785 16.296053,2.721672 16.008597,2.241404 z" style="opacity:.8;fill:url(#linearGradient3038);fill-opacity:1;fill-rule:nonzero;stroke:none;stroke-width:1;marker:none;visibility:visible;display:inline;overflow:visible;enable-background:accumulate"/><path id="path1307-2" d="m 16.000037,1.4974327 c 0.978784,0 4.13436,7.910881 4.926214,8.488271 0.791851,0.5773873 9.263652,1.1447403 9.566113,2.0789733 0.302461,0.934234 -6.219087,6.39078 -6.521548,7.325013 -0.30246,0.934233 1.777824,9.195756 0.985972,9.773145 -0.791853,0.577387 -7.977967,-3.961163 -8.956752,-3.961163 -0.978783,0 -8.1648972,4.53855 -8.9567501,3.961163 C 6.251434,28.585446 8.331718,20.323922 8.0292575,19.38969 7.7267971,18.455457 1.2052494,12.99891 1.5077102,12.064675 1.810171,11.130444 10.281971,10.563091 11.073825,9.9857037 c 0.791852,-0.57739 3.947429,-8.488271 4.926212,-8.488271 z" style="display:inline;overflow:visible;visibility:visible;fill:none;fill-opacity:1;fill-rule:evenodd;stroke:#956500;stroke-width:1;stroke-linecap:butt;stroke-linejoin:round;stroke-miterlimit:4;stroke-dasharray:none;stroke-dashoffset:0;stroke-opacity:1;marker:none;color:#000;clip-rule:nonzero;opacity:.5;isolation:auto;mix-blend-mode:normal;color-interpolation:sRGB;color-interpolation-filters:linearRGB;solid-color:#000;solid-opacity:1;filter-blend-mode:normal;filter-gaussianBlur-deviation:0;color-rendering:auto;image-rendering:auto;shape-rendering:auto;text-rendering:auto;enable-background:accumulate"/><g id="g4374"><path id="path2262" d="m 21.5,21.5 0,-4.021022 5,0 0,4.021022 4.007287,0 0,5 -4.007287,0 0,4.007286 -5,0 0,-4.007286 -4.007286,0 0,-5 4.007286,0 z" style="color:#000;display:inline;overflow:visible;visibility:visible;fill:url(#radialGradient3343);fill-opacity:1;fill-rule:nonzero;stroke:none;stroke-width:.98542744;stroke-linecap:round;stroke-linejoin:round;stroke-miterlimit:4;stroke-dasharray:none;stroke-dashoffset:0;stroke-opacity:1;marker:none;enable-background:accumulate"/><path style="display:inline;opacity:.5;fill:none;stroke:url(#linearGradient3030-2);stroke-width:1;stroke-linecap:butt;stroke-linejoin:miter;stroke-miterlimit:4;stroke-dasharray:none;stroke-opacity:1" id="path2272-4" d="m 22.5,23.003028 0,-4.503028 3,0 0,4.496972 M 25.5,25 l 0,4.5 -3,0 0,-4.5"/><path style="display:inline;opacity:.5;fill:none;stroke:url(#linearGradient3030-1);stroke-width:.99999994;stroke-linecap:butt;stroke-linejoin:miter;stroke-miterlimit:4;stroke-dasharray:none;stroke-opacity:1" id="path2272-2" d="m 26,22.512298 3.499869,-0.01086 0,2.987703 L 26,25.500001 m -4,0 -3.500131,-0.01086 0,-2.987703 L 22,22.512298"/><path id="path2262-9" d="m 21.5,21.5 0,-4.021022 5,0 0,4.021022 4.007287,0 0,5 -4.007287,0 0,4.007286 -5,0 0,-4.007286 -4.007286,0 0,-5 4.007286,0 z" style="color:#000;clip-rule:nonzero;display:inline;overflow:visible;visibility:visible;opacity:.5;isolation:auto;mix-blend-mode:normal;color-interpolation:sRGB;color-interpolation-filters:linearRGB;solid-color:#000;solid-opacity:1;fill:none;fill-opacity:1;fill-rule:nonzero;stroke:#0f5a00;stroke-width:1;stroke-linecap:round;stroke-linejoin:round;stroke-miterlimit:4;stroke-dasharray:none;stroke-dashoffset:0;stroke-opacity:1;marker:none;color-rendering:auto;image-rendering:auto;shape-rendering:auto;text-rendering:auto;enable-background:accumulate"/></g></svg>