<svg xmlns="http://www.w3.org/2000/svg" xmlns:svg="http://www.w3.org/2000/svg" id="svg7384" width="16" height="16" version="1.1"><metadata id="metadata90"/><title id="title9167">elementary Symbolic Icon Theme</title><g style="display:inline" id="layer15" transform="translate(-693.00043,378)"><path style="font-size:medium;font-style:normal;font-variant:normal;font-weight:400;font-stretch:normal;text-indent:0;text-align:start;text-decoration:none;line-height:normal;letter-spacing:normal;word-spacing:normal;text-transform:none;direction:ltr;block-progression:tb;writing-mode:lr-tb;text-anchor:start;baseline-shift:baseline;color:#000;fill:#bebebe;fill-opacity:1;fill-rule:nonzero;stroke:none;stroke-width:.99999994;marker:none;visibility:visible;display:block;overflow:visible;enable-background:accumulate;font-family:Sans;-inkscape-font-specification:Sans" id="path2426" d="m 700.00043,-377 c 0,0.53125 0,1.0625 0,1.59375 -0.73915,0.21303 -1.45816,0.48865 -2.125,0.875 -0.38485,-0.35443 -0.75742,-0.72152 -1.125,-1.09375 -0.45833,0.45833 -0.91667,0.91667 -1.375,1.375 0.37225,0.36756 0.73934,0.74013 1.09375,1.125 -0.38654,0.66676 -0.66178,1.38589 -0.875,2.125 -0.53125,0 -1.0625,0 -1.59375,0 0,0.66667 0,1.33333 0,2 0.53125,0 1.0625,0 1.59375,0 0.21303,0.73915 0.48865,1.45816 0.875,2.125 -0.35443,0.38485 -0.72152,0.75742 -1.09375,1.125 0.45833,0.45833 0.91667,0.91667 1.375,1.375 0.36756,-0.37225 0.74013,-0.73934 1.125,-1.09375 0.66676,0.38654 1.38589,0.66178 2.125,0.875 0,0.53125 0,1.0625 0,1.59375 0.66667,0 1.33333,0 2,0 0,-0.53125 0,-1.0625 0,-1.59375 0.73915,-0.21303 1.45816,-0.48865 2.125,-0.875 0.38485,0.35443 0.75742,0.72152 1.125,1.09375 0.45833,-0.45833 0.91667,-0.91667 1.375,-1.375 -0.37225,-0.36756 -0.73934,-0.74013 -1.09375,-1.125 0.38654,-0.66676 0.66178,-1.38589 0.875,-2.125 0.53125,0 1.0625,0 1.59375,0 0,-0.66667 0,-1.33333 0,-2 -0.53125,0 -1.0625,0 -1.59375,0 -0.21303,-0.73915 -0.48865,-1.45816 -0.875,-2.125 0.35443,-0.38485 0.72152,-0.75742 1.09375,-1.125 -0.45833,-0.45833 -0.91667,-0.91667 -1.375,-1.375 -0.36756,0.37225 -0.74013,0.73934 -1.125,1.09375 -0.66676,-0.38654 -1.38589,-0.66178 -2.125,-0.875 0,-0.53125 0,-1.0625 0,-1.59375 -0.66667,0 -1.33333,0 -2,0 z m 1,4.5625 c 1.44226,-0.0478 2.67514,1.39104 2.40946,2.8091 -0.17311,1.42909 -1.77502,2.42691 -3.13494,1.95646 -1.38477,-0.38389 -2.13402,-2.11088 -1.47195,-3.38556 0.39086,-0.83168 1.27761,-1.39091 2.19743,-1.38 z"/></g></svg>