<svg xmlns="http://www.w3.org/2000/svg" xmlns:svg="http://www.w3.org/2000/svg" id="svg7384" width="16" height="16" version="1.1"><metadata id="metadata90"/><title id="title9167">elementary Symbolic Icon Theme</title><g style="display:inline" id="layer15" transform="translate(-753.00043,398)"><path style="color:#000;fill:#bebebe;fill-opacity:1;fill-rule:nonzero;stroke:none;stroke-width:1;marker:none;visibility:visible;display:block;overflow:visible;enable-background:new" id="path3809" d="m 761.00045,-396 c -2.97562,0 -5.43327,2.15859 -5.90625,5 l 2.0625,0 c 0.44467,-1.72431 1.98056,-3 3.84375,-3 1.10807,0 2.09664,0.45908 2.8125,1.1875 l -1.8125,1.8125 2.84375,0 2.0625,0 0.0937,0 0,-5 -1.75,1.75 c -1.08259,-1.0846 -2.59239,-1.75 -4.25,-1.75 z m -6,7 0,5 1.75,-1.75 c 1.08259,1.0846 2.59239,1.75 4.25,1.75 2.97562,0 5.43327,-2.15859 5.90625,-5 l -2.0625,0 c -0.44467,1.72431 -1.98056,3 -3.84375,3 -1.10807,0 -2.09664,-0.45908 -2.8125,-1.1875 l 1.8125,-1.8125 -2.84375,0 -2.0625,0 -0.0937,0 z"/></g></svg>