<svg xmlns="http://www.w3.org/2000/svg" xmlns:svg="http://www.w3.org/2000/svg" xmlns:xlink="http://www.w3.org/1999/xlink" id="svg3172" width="128" height="128" version="1.1"><defs id="defs3174"><linearGradient id="linearGradient3093" x1="24" x2="24" y1="5.564" y2="43" gradientTransform="matrix(2.4594595,0,0,3.1081081,4.9729852,-78.594559)" gradientUnits="userSpaceOnUse" xlink:href="#linearGradient3977"/><linearGradient id="linearGradient3977"><stop style="stop-color:#fff;stop-opacity:1" id="stop3979" offset="0"/><stop id="stop3981" offset=".036" style="stop-color:#fff;stop-opacity:.23529412"/><stop style="stop-color:#fff;stop-opacity:.15686275" id="stop3983" offset=".951"/><stop style="stop-color:#fff;stop-opacity:.39215687" id="stop3985" offset="1"/></linearGradient><linearGradient id="linearGradient3096" x1="25.132" x2="25.132" y1=".985" y2="47.013" gradientTransform="matrix(2.6571409,0,0,2.5422194,0.228619,-68.91283)" gradientUnits="userSpaceOnUse" xlink:href="#linearGradient3600"/><linearGradient id="linearGradient3600"><stop id="stop3602" offset="0" style="stop-color:#f4f4f4;stop-opacity:1"/><stop id="stop3604" offset="1" style="stop-color:#dbdbdb;stop-opacity:1"/></linearGradient><linearGradient id="linearGradient3098" x1="-51.786" x2="-51.786" y1="50.786" y2="2.906" gradientTransform="matrix(2.1456328,0,0,2.3791386,158.08997,-71.746077)" gradientUnits="userSpaceOnUse" xlink:href="#linearGradient3104"/><linearGradient id="linearGradient3104"><stop id="stop3106" offset="0" style="stop-color:#a0a0a0;stop-opacity:1"/><stop id="stop3108-4" offset="1" style="stop-color:#bebebe;stop-opacity:1"/></linearGradient><linearGradient id="linearGradient3120" x1="25.058" x2="25.058" y1="47.028" y2="39.999" gradientTransform="matrix(3.1428572,0,0,1.2857143,-11.428573,-2.428572)" gradientUnits="userSpaceOnUse" xlink:href="#linearGradient3702-501-757-486"/><linearGradient id="linearGradient3702-501-757-486"><stop id="stop3100" offset="0" style="stop-color:#181818;stop-opacity:0"/><stop id="stop3102" offset=".5" style="stop-color:#181818;stop-opacity:1"/><stop id="stop3104" offset="1" style="stop-color:#181818;stop-opacity:0"/></linearGradient><radialGradient id="radialGradient3123" cx="4.993" cy="43.5" r="2.5" fx="4.993" fy="43.5" gradientTransform="matrix(2.4045407,0,0,1.7999999,-32.014243,-131.8)" gradientUnits="userSpaceOnUse" xlink:href="#linearGradient3688-464-309-255"/><linearGradient id="linearGradient3688-464-309-255"><stop id="stop3094" offset="0" style="stop-color:#181818;stop-opacity:1"/><stop id="stop3096" offset="1" style="stop-color:#181818;stop-opacity:0"/></linearGradient><linearGradient id="linearGradient3688-166-749-737"><stop id="stop3088" offset="0" style="stop-color:#181818;stop-opacity:1"/><stop id="stop3090" offset="1" style="stop-color:#181818;stop-opacity:0"/></linearGradient><radialGradient id="radialGradient3170" cx="4.993" cy="43.5" r="2.5" fx="4.993" fy="43.5" gradientTransform="matrix(2.4045407,0,0,1.7999999,95.985757,-24.799999)" gradientUnits="userSpaceOnUse" xlink:href="#linearGradient3688-166-749-737"/></defs><metadata id="metadata3177"/><g id="layer1" transform="translate(0,64)"><rect id="rect2801" width="6" height="9" x="108" y="49" style="opacity:.4;fill:url(#radialGradient3170);fill-opacity:1;stroke:none"/><rect id="rect3696" width="6" height="9" x="-20" y="-58" transform="scale(-1,-1)" style="opacity:.4;fill:url(#radialGradient3123);fill-opacity:1;stroke:none"/><rect id="rect3700" width="88" height="9" x="20" y="49" style="opacity:.4;fill:url(#linearGradient3120);fill-opacity:1;stroke:none"/><path id="path4160" d="m 17.499929,-62.499588 c 21.311061,0 93.000031,0.007 93.000031,0.007 l 1.1e-4,116.992628 c 0,0 -62.0001,0 -93.00014,0 0,-39.000029 0,-78.000054 0,-117.000079 z" style="fill:url(#linearGradient3096);fill-opacity:1;stroke:url(#linearGradient3098);stroke-width:.99992186;stroke-linecap:butt;stroke-linejoin:round;stroke-miterlimit:4;stroke-opacity:1;stroke-dasharray:none;stroke-dashoffset:0;display:inline"/><path id="rect6741-1" d="m 109.5,53.5 -91,0 0,-115.000003 91,0 z" style="fill:none;stroke:url(#linearGradient3093);stroke-width:1;stroke-linecap:round;stroke-linejoin:round;stroke-miterlimit:4;stroke-opacity:1;stroke-dasharray:none;stroke-dashoffset:0"/><g id="g3039" transform="matrix(1.999968,0,0,1.999968,0.501024,-2044.691)"><path id="text3482" d="m 24.249876,1019.6668 c 0.368787,1.0025 0.783883,1.815 1.668083,0.704 1.096211,-0.6523 4.769204,-3.5111 4.401676,-0.7109 -1.176091,5.1819 -2.607653,10.3092 -3.702246,15.5071 -1.144551,2.846 1.454502,5.4202 4.168102,3.5696 2.884381,-1.1892 5.366385,-3.1259 7.902031,-4.9026 -0.345971,-0.8484 -0.576567,-2.0673 -1.532522,-0.9577 -1.25522,0.5696 -3.996755,3.2559 -4.506083,1.0405 1.054373,-5.6111 3.007887,-11.0143 4.256607,-16.5807 1.149144,-2.5593 -0.727637,-5.793 -3.536963,-3.676 -3.365645,1.4659 -6.180209,3.8605 -9.118685,6.0067 z m 12.490997,-18.8719 c -3.433955,-0.1823 -5.229345,5.3535 -1.966081,6.8683 2.647461,1.0857 5.530074,-1.6295 4.88331,-4.3428 -0.200713,-1.4129 -1.469136,-2.5731 -2.917228,-2.5255 l -10e-7,0 z" style="font-size:40px;font-style:normal;font-variant:normal;font-weight:700;font-stretch:normal;text-align:start;line-height:100%;writing-mode:lr-tb;text-anchor:start;opacity:.4;fill:#000;fill-opacity:1;stroke:none;font-family:URW Palladio L;-inkscape-font-specification:URW Palladio L Bold"/><path id="path3536" d="m 24.249876,1020.1667 c 0.368787,1.0025 0.783883,1.8152 1.668083,0.704 1.096211,-0.6521 4.769204,-3.5111 4.401676,-0.7107 -1.176091,5.1819 -2.607653,10.3091 -3.702246,15.507 -1.144551,2.846 1.454502,5.4203 4.168102,3.5696 2.884381,-1.1891 5.366385,-3.1259 7.902031,-4.9027 -0.345971,-0.8484 -0.576567,-2.0672 -1.532522,-0.9576 -1.25522,0.5697 -3.996755,3.2558 -4.506083,1.0403 1.054373,-5.6109 3.007887,-11.0142 4.256607,-16.5805 1.149144,-2.5593 -0.727637,-5.7932 -3.536963,-3.6761 -3.365645,1.466 -6.180209,3.8605 -9.118685,6.0067 z m 12.490997,-18.8717 c -3.433955,-0.1823 -5.229345,5.3534 -1.966081,6.8683 2.647461,1.0857 5.530074,-1.6296 4.88331,-4.3429 -0.200713,-1.4128 -1.469136,-2.573 -2.917228,-2.5254 l -10e-7,0 z" style="font-size:40px;font-style:normal;font-variant:normal;font-weight:700;font-stretch:normal;text-align:start;line-height:100%;writing-mode:lr-tb;text-anchor:start;opacity:.4;fill:#fff;fill-opacity:1;stroke:none;font-family:URW Palladio L;-inkscape-font-specification:URW Palladio L Bold"/></g></g></svg>