<svg xmlns="http://www.w3.org/2000/svg" xmlns:svg="http://www.w3.org/2000/svg" id="svg7384" width="16" height="16" version="1.1"><metadata id="metadata90"/><title id="title9167">elementary Symbolic Icon Theme</title><g id="layer14" transform="translate(-753.0004,478)"><path style="font-size:medium;font-style:normal;font-variant:normal;font-weight:400;font-stretch:normal;text-indent:0;text-align:start;text-decoration:none;line-height:normal;letter-spacing:normal;word-spacing:normal;text-transform:none;direction:ltr;block-progression:tb;writing-mode:lr-tb;text-anchor:start;baseline-shift:baseline;color:#000;fill:#bebebe;fill-opacity:1;stroke:none;stroke-width:1.99999988;marker:none;visibility:visible;display:inline;overflow:visible;enable-background:accumulate;font-family:Sans;-inkscape-font-specification:Sans" id="path1234-2" d="m 755.0002,-476 c -0.52358,5e-5 -0.99995,0.47642 -1,1 l 0,10 c 5e-5,0.52358 0.47642,0.99995 1,1 l 3,0 0,-1 -3,0 0,-10 13,0 0,10 -2,0 0,1 2,0 c 0.51929,0 1,-0.43513 1,-1 l 0,-10 c 7.5e-4,-0.46663 -0.43709,-1.00022 -1,-1 l -13,0 z"/><path style="fill:#bebebe;fill-opacity:1;fill-rule:nonzero;stroke:none" id="path4136-5" d="m 764.99959,-469.93709 a 3,3 0 0 1 -5.99868,0 3,3 0 1 1 5.99868,0 z"/><path style="fill:#bebebe;fill-opacity:1;fill-rule:evenodd;stroke:none" id="path3655-4-1" d="m 761.00057,-469 -2.00025,7 1,0 2.00018,-2 1.99983,2 0.99999,0 -1.99987,-7"/></g></svg>