<svg xmlns="http://www.w3.org/2000/svg" xmlns:svg="http://www.w3.org/2000/svg" id="svg7384" width="16" height="16" version="1.1"><metadata id="metadata90"/><title id="title9167">elementary Symbolic Icon Theme</title><g id="layer14" transform="translate(-713.00043,458)"><path style="color:#bebebe;fill:#bebebe;fill-opacity:1;fill-rule:nonzero;stroke:none;stroke-width:1;marker:none;visibility:visible;display:inline;overflow:visible;enable-background:accumulate" id="path13811" d="m 716.00043,-458 c -0.554,0 -1,0.446 -1,1 l 0,14 c 0,0.554 0.446,1 1,1 l 10,0 c 0.554,0 1,-0.446 1,-1 l 0,-10 c 0,-0.554 -4.446,-5 -5,-5 z m 0.5,1 5.5,0 0,4 4,0 0,9.5 c 0,0.277 -0.223,0.5 -0.5,0.5 l -9,0 c -0.277,0 -0.5,-0.223 -0.5,-0.5 l 0,-13 c 0,-0.277 0.223,-0.5 0.5,-0.5 z"/><path style="font-size:medium;font-style:normal;font-variant:normal;font-weight:400;font-stretch:normal;text-indent:0;text-align:start;text-decoration:none;line-height:normal;letter-spacing:normal;word-spacing:normal;text-transform:none;direction:ltr;block-progression:tb;writing-mode:lr-tb;text-anchor:start;baseline-shift:baseline;color:#000;fill:#bebebe;fill-opacity:1;stroke:none;stroke-width:1.18468678;marker:none;visibility:visible;display:inline;overflow:visible;enable-background:accumulate;font-family:Sans;-inkscape-font-specification:Sans" id="path35728" d="m 719.41889,-455.00118 c -0.86024,0 -1.55632,0.72246 -1.55632,1.58269 0,0.86024 0.69608,1.55632 1.55632,1.55632 0.86024,0 1.5827,-0.69608 1.5827,-1.55632 0,-0.86023 -0.72246,-1.58269 -1.5827,-1.58269 z m 0,1.00237 c 0.3198,0 0.58032,0.26053 0.58032,0.58032 0,0.3198 -0.26052,0.55395 -0.58032,0.55395 -0.3198,0 -0.55394,-0.23415 -0.55394,-0.55395 0,-0.31979 0.23414,-0.58032 0.55394,-0.58032 z"/><path style="color:#000;fill:#bebebe;fill-opacity:1;fill-rule:nonzero;stroke:none;stroke-width:1;marker:none;visibility:visible;display:inline;overflow:visible;enable-background:accumulate" id="rect35730" d="m 722.00037,-452 1.99983,0 0,1 -1.99983,0 z"/><path style="color:#000;fill:#bebebe;fill-opacity:1;fill-rule:nonzero;stroke:none;stroke-width:1;marker:none;visibility:visible;display:inline;overflow:visible;enable-background:accumulate" id="rect35732" d="m 718.00043,-450 5.99984,0 0,1 -5.99984,0 z"/><path style="color:#000;fill:#bebebe;fill-opacity:1;fill-rule:nonzero;stroke:none;stroke-width:1;marker:none;visibility:visible;display:inline;overflow:visible;enable-background:accumulate" id="rect35734" d="m 718.00043,-446 3.99984,0 0,1 -3.99984,0 z"/><path style="color:#000;fill:#bebebe;fill-opacity:1;fill-rule:nonzero;stroke:none;stroke-width:1;marker:none;visibility:visible;display:inline;overflow:visible;enable-background:accumulate" id="rect14066" d="m 718.00043,-448 5.99984,0 0,1 -5.99984,0 z"/></g></svg>