<svg xmlns="http://www.w3.org/2000/svg" xmlns:svg="http://www.w3.org/2000/svg" id="svg7384" width="16" height="16" version="1.1"><metadata id="metadata90"/><title id="title9167">elementary Symbolic Icon Theme</title><g id="layer14" transform="translate(-753.0002,457.99988)"><path style="color:#000;fill:#bebebe;fill-opacity:1;fill-rule:nonzero;stroke:none;stroke-width:1;marker:none;visibility:visible;display:inline;overflow:visible;enable-background:accumulate" id="rect35810" d="m 755.0004,-455 0,8 12,0 0,-8 z m 6,1 c 1.10457,0 2,0.89543 2,2 l -2,0 z m -1,1 0,2 2,0 c 0,1.10457 -0.89543,2 -2,2 -1.10457,0 -2,-0.89543 -2,-2 0,-1.10457 0.89543,-2 2,-2 z"/><path style="font-size:medium;font-style:normal;font-variant:normal;font-weight:400;font-stretch:normal;text-indent:0;text-align:start;text-decoration:none;line-height:normal;letter-spacing:normal;word-spacing:normal;text-transform:none;direction:ltr;block-progression:tb;writing-mode:lr-tb;text-anchor:start;baseline-shift:baseline;color:#000;fill:#bebebe;fill-opacity:1;stroke:none;stroke-width:2;marker:none;visibility:visible;display:inline;overflow:visible;enable-background:accumulate;font-family:Sans;-inkscape-font-specification:Sans" id="path35812" d="m 755,-456 a 1.001098,1.001098 0 1 0 0.0937,2 l 11.625,0 a 1.0001,1.0001 0 1 0 0,-2 l -11.625,0 A 1.0001,1.0001 0 0 0 755,-456 z"/><path style="font-size:medium;font-style:normal;font-variant:normal;font-weight:400;font-stretch:normal;text-indent:0;text-align:start;text-decoration:none;line-height:normal;letter-spacing:normal;word-spacing:normal;text-transform:none;direction:ltr;block-progression:tb;writing-mode:lr-tb;text-anchor:start;baseline-shift:baseline;color:#000;fill:#bebebe;fill-opacity:1;stroke:none;stroke-width:1;marker:none;visibility:visible;display:inline;overflow:visible;enable-background:accumulate;font-family:Sans;-inkscape-font-specification:Sans" id="path35814" d="M 760.40625,-447.5 A 0.50005,0.50005 0 0 0 760,-447 l 0,1.75 -1.8125,1.375 a 0.51253811,0.51253811 0 1 0 0.625,0.8125 l 2,-1.53125 0.1875,-0.15625 0,-0.25 0,-2 a 0.50005,0.50005 0 0 0 -0.59375,-0.5 z"/><path style="font-size:medium;font-style:normal;font-variant:normal;font-weight:400;font-stretch:normal;text-indent:0;text-align:start;text-decoration:none;line-height:normal;letter-spacing:normal;word-spacing:normal;text-transform:none;direction:ltr;block-progression:tb;writing-mode:lr-tb;text-anchor:start;baseline-shift:baseline;color:#000;fill:#bebebe;fill-opacity:1;stroke:none;stroke-width:1;marker:none;visibility:visible;display:inline;overflow:visible;enable-background:accumulate;font-family:Sans;-inkscape-font-specification:Sans" id="path35816" d="m 760.375,-445.5 a 0.50005,0.50005 0 0 0 -0.1875,0.90625 l 2,1.5625 a 0.51253811,0.51253811 0 1 0 0.625,-0.8125 l -2,-1.5625 A 0.50005,0.50005 0 0 0 760.375,-445.5 z"/></g></svg>