<svg xmlns="http://www.w3.org/2000/svg" xmlns:svg="http://www.w3.org/2000/svg" xmlns:xlink="http://www.w3.org/1999/xlink" id="svg3489" width="64" height="64" version="1.1"><defs id="defs3491"><linearGradient id="linearGradient4806"><stop style="stop-color:#fff;stop-opacity:1" id="stop4808" offset="0"/><stop style="stop-color:#fff;stop-opacity:.23529412" id="stop4810" offset=".424"/><stop style="stop-color:#fff;stop-opacity:.15686275" id="stop4812" offset=".821"/><stop style="stop-color:#fff;stop-opacity:.39215687" id="stop4814" offset="1"/></linearGradient><linearGradient id="linearGradient3820-7-2"><stop style="stop-color:#000;stop-opacity:1" id="stop3822-2-6" offset="0"/><stop style="stop-color:#000;stop-opacity:0" id="stop3824-1-2" offset="1"/></linearGradient><linearGradient id="linearGradient3293" x1="71.204" x2="71.204" y1="15.369" y2="40.496" gradientTransform="matrix(2.3268746,0,0,2.3268746,-135.94475,-32.842783)" gradientUnits="userSpaceOnUse" xlink:href="#linearGradient4806"/><radialGradient id="radialGradient3300" cx="99.189" cy="185.297" r="62.769" fx="99.189" fy="185.297" gradientTransform="matrix(0.3823536,7.5555777e-8,-1.8372241e-8,0.1115198,-5.9254271,36.335849)" gradientUnits="userSpaceOnUse" xlink:href="#linearGradient3820-7-2"/><radialGradient id="radialGradient4145" cx="5.202" cy="8.45" r="20" fx="5.202" fy="8.45" gradientTransform="matrix(-8.4508511e-6,3.8890437,-3.8040162,-8.371941e-6,64.143254,-21.229008)" gradientUnits="userSpaceOnUse" xlink:href="#radialGradient3092"/><radialGradient id="radialGradient4192" cx="99.189" cy="185.297" r="62.769" fx="99.189" fy="185.297" gradientTransform="matrix(0.2549024,5.3967361e-8,-1.2248161e-8,0.07965545,6.7163816,44.240666)" gradientUnits="userSpaceOnUse" xlink:href="#linearGradient3820-7-2"/><linearGradient id="linearGradient3173" x1="68.313" x2="68.313" y1="52.925" y2="65.922" gradientTransform="matrix(0.52519133,0,0,0.48142538,71.630267,-3.0922892)" gradientUnits="userSpaceOnUse" xlink:href="#linearGradient3990"/><linearGradient id="linearGradient3990"><stop style="stop-color:#fff;stop-opacity:1" id="stop3992" offset="0"/><stop style="stop-color:#fff;stop-opacity:0" id="stop3994" offset="1"/></linearGradient><linearGradient id="linearGradient3155" x1="71.204" x2="71.204" y1="6.238" y2="44.341" gradientTransform="matrix(0.53588046,0,0,0.53588046,68.331909,17.79948)" gradientUnits="userSpaceOnUse" xlink:href="#linearGradient3089-6"/><linearGradient id="linearGradient3089-6" x1="71.204" x2="71.204" y1="6.238" y2="44.341" gradientTransform="matrix(0.35135131,0,0,0.35135131,-1.204072,16.091108)" gradientUnits="userSpaceOnUse"><stop style="stop-color:#fff;stop-opacity:1" id="stop4013-3-3" offset="0"/><stop style="stop-color:#fff;stop-opacity:.23529412" id="stop4015-6-2" offset=".508"/><stop style="stop-color:#fff;stop-opacity:.15686275" id="stop4017-1-0" offset=".835"/><stop style="stop-color:#fff;stop-opacity:.39215687" id="stop4019-2-6" offset="1"/></linearGradient><linearGradient id="linearGradient3099" x1="71.204" x2="71.204" y1="6.238" y2="44.341" gradientTransform="matrix(0.6216216,0,0,-0.6216216,62.181471,47.14987)" gradientUnits="userSpaceOnUse" xlink:href="#linearGradient3081"/><linearGradient id="linearGradient3081" x1="71.204" x2="71.204" y1="6.238" y2="44.341" gradientTransform="matrix(0.45945944,0,0,-0.45945944,-8.9590483,36.651293)" gradientUnits="userSpaceOnUse"><stop style="stop-color:#fff;stop-opacity:1" id="stop4013-2" offset="0"/><stop style="stop-color:#fff;stop-opacity:.23529412" id="stop4015-4" offset=".508"/><stop style="stop-color:#fff;stop-opacity:.15686275" id="stop4017-9" offset=".835"/><stop style="stop-color:#fff;stop-opacity:.39215687" id="stop4019-0" offset="1"/></linearGradient><radialGradient id="radialGradient3102" cx="23.896" cy="3.99" r="20.397" gradientTransform="matrix(0,1.2559144,-1.6577848,0,113.38709,-10.137022)" gradientUnits="userSpaceOnUse" xlink:href="#radialGradient3084"/><radialGradient id="radialGradient3084" cx="23.896" cy="3.99" r="20.397" gradientTransform="matrix(0,0.87965498,-1.161129,0,28.632502,-4.0838548)" gradientUnits="userSpaceOnUse"><stop style="stop-color:#f8b17e;stop-opacity:1" id="stop3244-4" offset="0"/><stop style="stop-color:#e35d4f;stop-opacity:1" id="stop3246-5" offset=".262"/><stop style="stop-color:#c6262e;stop-opacity:1" id="stop3248-0" offset=".661"/><stop style="stop-color:#690b54;stop-opacity:1" id="stop3250-3" offset="1"/></radialGradient><linearGradient id="linearGradient3104" x1="7.078" x2="7.078" y1="3.082" y2="45.369" gradientTransform="matrix(0.52622315,0,0,0.52622324,94.143183,18.757855)" gradientUnits="userSpaceOnUse" xlink:href="#linearGradient3086"/><linearGradient id="linearGradient3086" x1="7.078" x2="7.078" y1="3.082" y2="45.369" gradientTransform="matrix(0.36857196,0,0,0.36857202,15.153867,16.154407)" gradientUnits="userSpaceOnUse"><stop style="stop-color:#791235;stop-opacity:1" id="stop2492-0" offset="0"/><stop style="stop-color:#c7321f;stop-opacity:1" id="stop2494-6" offset="1"/></linearGradient><radialGradient id="radialGradient3092" cx="23.896" cy="3.99" r="20.397" gradientTransform="matrix(0,2.2874387,-3.0193786,0,36.046923,-50.628782)" gradientUnits="userSpaceOnUse"><stop style="stop-color:#fff;stop-opacity:1" id="stop3244-3" offset="0"/><stop style="stop-color:#ddd;stop-opacity:1" id="stop3246-1" offset=".262"/><stop style="stop-color:#abacae;stop-opacity:1" id="stop3248-9" offset=".661"/><stop style="stop-color:#89898b;stop-opacity:1" id="stop3250-4" offset="1"/></radialGradient></defs><metadata id="metadata3494"/><g id="g4198"><path style="opacity:.2;fill:url(#radialGradient3300);fill-opacity:1;stroke:none" id="path3818-0" d="m 55.999998,57.0017 a 24,6.9985714 0 1 1 -47.9999991,0 24,6.9985714 0 1 1 47.9999991,0 z"/><path id="path4190" d="m 47.999998,59.0017 a 16,4.9988822 0 1 1 -31.999999,0 16,4.9988822 0 1 1 31.999999,0 z" style="opacity:.4;fill:url(#radialGradient4192);fill-opacity:1;stroke:none"/></g><path style="color:#000;fill:url(#radialGradient4145);fill-opacity:1;fill-rule:nonzero;stroke:none;stroke-width:1;marker:none;visibility:visible;display:inline;overflow:visible;enable-background:accumulate" id="path2555" d="M 32.000004,2.4999968 C 15.722922,2.4999968 2.5,15.722913 2.5,31.999997 2.5,48.277081 15.722922,61.500004 32.000004,61.5 48.27708,61.5 61.500016,48.277081 61.5,31.999997 61.5,15.722913 48.27708,2.4999968 32.000004,2.4999968 z"/><path id="path2555-7-1" d="m 32,2.499999 c -16.277082,0 -29.5,13.222915 -29.5,29.499998 0,16.277083 13.222918,29.500005 29.5,29.5 16.27708,0 29.50001,-13.222917 29.5,-29.5 C 61.5,15.722914 48.27708,2.499999 32,2.499999 z" style="opacity:.3;color:#000;fill:none;stroke:#000;stroke-width:1;stroke-linecap:round;stroke-linejoin:round;stroke-miterlimit:4;stroke-opacity:1;stroke-dasharray:none;stroke-dashoffset:0;marker:none;visibility:visible;display:inline;overflow:visible;enable-background:accumulate;fill-opacity:0;fill-rule:nonzero"/><path id="path3019" d="m 60.500008,31.999999 c 0,15.740115 -12.7599,28.499999 -28.50002,28.499999 -15.740099,0 -28.4999911,-12.759884 -28.4999911,-28.499999 0,-15.740116 12.7598921,-28.5000013 28.4999911,-28.5000013 15.74012,0 28.50002,12.7598853 28.50002,28.5000013 z" style="color:#000;display:inline;overflow:visible;visibility:visible;opacity:.5;fill:none;stroke:url(#linearGradient3293);stroke-width:1;stroke-linecap:round;stroke-linejoin:round;stroke-miterlimit:4;stroke-dasharray:none;stroke-dashoffset:0;stroke-opacity:1;marker:none;enable-background:accumulate"/><g id="g4302" transform="matrix(1.2608698,0,0,1.2608698,-102.627,-7.5753033)"><path style="fill:url(#radialGradient3102);stroke:url(#linearGradient3104);stroke-width:.79600137;stroke-linecap:round;stroke-linejoin:round;stroke-miterlimit:4;stroke-dasharray:none;stroke-dashoffset:0" id="path2555-3" d="m 106.77311,20.681863 c -5.90683,0 -10.705437,4.798617 -10.705437,10.705442 0,5.906827 4.798607,10.705444 10.705437,10.705444 5.90683,0 10.70545,-4.798617 10.70545,-10.705444 0,-5.906825 -4.79862,-10.705442 -10.70545,-10.705442 z"/><path style="color:#000;opacity:.5;fill:none;stroke:url(#linearGradient3099);stroke-width:.79310328;stroke-linecap:round;stroke-linejoin:round;stroke-miterlimit:4;stroke-dasharray:none;stroke-dashoffset:0;enable-background:accumulate" id="path8655-6-1" d="m 118.27312,31.387708 c 0,-6.351517 -5.14915,-11.500406 -11.49986,-11.500406 -6.35138,0 -11.500136,5.149024 -11.500136,11.500406 0,6.351248 5.148756,11.499594 11.500136,11.499594 6.35084,0 11.49986,-5.148482 11.49986,-11.499594 z"/><path style="color:#000;opacity:.5;fill:none;stroke:url(#linearGradient3155);stroke-width:.79310298;stroke-linecap:round;stroke-linejoin:round;stroke-miterlimit:4;stroke-dasharray:none;stroke-dashoffset:0;enable-background:accumulate" id="path8655-6-8-2" d="m 116.68691,31.387307 c 0,5.474852 -4.43894,9.913788 -9.91379,9.913788 -5.47516,0 -9.913793,-4.438935 -9.913793,-9.913788 0,-5.475462 4.438633,-9.913789 9.913793,-9.913789 5.47485,0 9.91379,4.438327 9.91379,9.913789 z"/><path style="color:#000;display:inline;overflow:visible;visibility:visible;opacity:.4;fill:url(#linearGradient3173);fill-opacity:1;stroke:none;stroke-width:1;marker:none;enable-background:accumulate" id="path3220" d="m 112.77313,27.887301 a 6,5.5 0 0 1 -12,0 6,5.5 0 1 1 12,0 z"/></g></svg>