<svg xmlns="http://www.w3.org/2000/svg" xmlns:svg="http://www.w3.org/2000/svg" xmlns:xlink="http://www.w3.org/1999/xlink" id="svg3489" width="64" height="64" version="1.1"><defs id="defs3491"><linearGradient id="linearGradient4806"><stop style="stop-color:#fff;stop-opacity:1" id="stop4808" offset="0"/><stop style="stop-color:#fff;stop-opacity:.23529412" id="stop4810" offset=".424"/><stop style="stop-color:#fff;stop-opacity:.15686275" id="stop4812" offset=".821"/><stop style="stop-color:#fff;stop-opacity:.39215687" id="stop4814" offset="1"/></linearGradient><linearGradient id="linearGradient3820-7-2"><stop style="stop-color:#000;stop-opacity:1" id="stop3822-2-6" offset="0"/><stop style="stop-color:#000;stop-opacity:0" id="stop3824-1-2" offset="1"/></linearGradient><linearGradient id="linearGradient3293" x1="71.204" x2="71.204" y1="15.369" y2="40.496" gradientTransform="matrix(2.3268746,0,0,2.3268746,-135.94475,-32.842783)" gradientUnits="userSpaceOnUse" xlink:href="#linearGradient4806"/><radialGradient id="radialGradient3300" cx="99.189" cy="185.297" r="62.769" fx="99.189" fy="185.297" gradientTransform="matrix(0.3823536,7.5555777e-8,-1.8372241e-8,0.1115198,-5.9254271,36.335849)" gradientUnits="userSpaceOnUse" xlink:href="#linearGradient3820-7-2"/><radialGradient id="radialGradient4145" cx="3.972" cy="8.45" r="20" fx="3.972" fy="8.45" gradientTransform="matrix(0,3.5958841,-3.8040162,-9.7874431e-8,64.14322,-20.064576)" gradientUnits="userSpaceOnUse" xlink:href="#linearGradient2867-449-88-871-390-598-476-591-434-148-57-177-641-289-620-227-114-444-680-744-4-8-69-5-4-8-426-2-9-1-4-965"/><radialGradient id="radialGradient4192" cx="99.189" cy="185.297" r="62.769" fx="99.189" fy="185.297" gradientTransform="matrix(0.2549024,5.3967361e-8,-1.2248161e-8,0.07965545,6.7163816,44.240666)" gradientUnits="userSpaceOnUse" xlink:href="#linearGradient3820-7-2"/><linearGradient id="linearGradient2867-449-88-871-390-598-476-591-434-148-57-177-641-289-620-227-114-444-680-744-4-8-69-5-4-8-426-2-9-1-4-965"><stop style="stop-color:#f4f4f4;stop-opacity:1" id="stop4036" offset="0"/><stop style="stop-color:#dadada;stop-opacity:1" id="stop4040" offset="1"/></linearGradient><linearGradient id="linearGradient3356-2-1-5"><stop style="stop-color:gray;stop-opacity:1" id="stop3358-8-5-6" offset="0"/><stop style="stop-color:#6d6d6d;stop-opacity:1" id="stop3360-9-9-6" offset=".546"/><stop style="stop-color:#4f5053;stop-opacity:1" id="stop3362-6-9-4" offset="1"/></linearGradient><radialGradient id="radialGradient4397" cx="3.972" cy="8.45" r="20" fx="3.972" fy="8.45" gradientTransform="matrix(0,3.5958841,-3.8040162,-9.7874431e-8,64.14322,-20.064576)" gradientUnits="userSpaceOnUse" xlink:href="#linearGradient3356-2-1-5"/></defs><metadata id="metadata3494"/><g id="g4198"><path style="opacity:.2;fill:url(#radialGradient3300);fill-opacity:1;stroke:none" id="path3818-0" d="m 55.999998,57.0017 a 24,6.9985714 0 1 1 -47.9999991,0 24,6.9985714 0 1 1 47.9999991,0 z"/><path id="path4190" d="m 47.999998,59.0017 a 16,4.9988822 0 1 1 -31.999999,0 16,4.9988822 0 1 1 31.999999,0 z" style="opacity:.4;fill:url(#radialGradient4192);fill-opacity:1;stroke:none"/></g><path id="path4393" d="M 32 2.5 C 15.722918 2.5 2.5 15.722916 2.5 32 C 2.5 48.277084 15.722918 61.500004 32 61.5 L 32 2.5 z" style="color:#000;display:inline;overflow:visible;visibility:visible;fill:url(#radialGradient4397);fill-opacity:1;fill-rule:nonzero;stroke:none;stroke-width:1;marker:none;enable-background:accumulate"/><path style="color:#000;display:inline;overflow:visible;visibility:visible;fill:none;fill-opacity:1;fill-rule:nonzero;stroke:#000;stroke-width:1;marker:none;enable-background:accumulate;stroke-opacity:1;opacity:.5" id="path4405" d="M 32 2.5 C 15.722918 2.5 2.5 15.722916 2.5 32 C 2.5 48.277084 15.722918 61.500004 32 61.5 L 32 2.5 z"/><path id="path2555" d="M 32 2.5 L 32 61.5 C 48.277076 61.5 61.500016 48.277084 61.5 32 C 61.5 15.722916 48.277076 2.5 32 2.5 z" style="color:#000;display:inline;overflow:visible;visibility:visible;fill:url(#radialGradient4145);fill-opacity:1;fill-rule:nonzero;stroke:none;stroke-width:1;marker:none;enable-background:accumulate"/><path id="path2555-7-1" d="m 32,2.499999 c -16.277082,0 -29.5,13.222915 -29.5,29.499998 0,16.277083 13.222918,29.500005 29.5,29.5 16.27708,0 29.50001,-13.222917 29.5,-29.5 C 61.5,15.722914 48.27708,2.499999 32,2.499999 Z" style="color:#000;display:inline;overflow:visible;visibility:visible;opacity:.3;fill:#000;fill-opacity:0;fill-rule:nonzero;stroke:#000;stroke-width:1;stroke-linecap:round;stroke-linejoin:round;stroke-miterlimit:4;stroke-dasharray:none;stroke-dashoffset:0;stroke-opacity:1;marker:none;enable-background:accumulate"/><path id="path3019" d="m 60.50001,31.999999 c 0,15.740115 -12.7599,28.499999 -28.50002,28.499999 -15.740099,0 -28.499991,-12.759884 -28.499991,-28.499999 0,-15.740116 12.759892,-28.5000013 28.499991,-28.5000013 15.74012,0 28.50002,12.7598853 28.50002,28.5000013 z" style="color:#000;display:inline;overflow:visible;visibility:visible;opacity:.4;fill:none;stroke:url(#linearGradient3293);stroke-width:1;stroke-linecap:round;stroke-linejoin:round;stroke-miterlimit:4;stroke-dasharray:none;stroke-dashoffset:0;stroke-opacity:1;marker:none;enable-background:accumulate"/><path id="path4400" d="m 31.5,2.5 0,59" style="fill:none;fill-rule:evenodd;stroke:#000;stroke-width:1px;stroke-linecap:butt;stroke-linejoin:miter;stroke-opacity:1;opacity:.4"/></svg>