<svg xmlns="http://www.w3.org/2000/svg" xmlns:svg="http://www.w3.org/2000/svg" xmlns:xlink="http://www.w3.org/1999/xlink" id="svg3440" width="24" height="24" version="1.1"><defs id="defs3442"><linearGradient id="linearGradient3260" x1="40.958" x2="18.681" y1="46.971" y2="46.971" gradientTransform="matrix(0,-0.5372019,-0.57681717,0,49.997188,27.865617)" gradientUnits="userSpaceOnUse" xlink:href="#linearGradient4297"/><linearGradient id="linearGradient4297"><stop style="stop-color:#fff;stop-opacity:1" id="stop4299" offset="0"/><stop style="stop-color:#fff;stop-opacity:.23529412" id="stop4301" offset=".45"/><stop style="stop-color:#fff;stop-opacity:.15686275" id="stop4303" offset=".65"/><stop style="stop-color:#fff;stop-opacity:.39215687" id="stop4305" offset="1"/></linearGradient><linearGradient id="linearGradient3270-1" x1="23.732" x2="23.732" y1="5.394" y2="40.784" gradientTransform="matrix(-0.4766877,0,0,0.44382351,28.94314,3.441469)" gradientUnits="userSpaceOnUse" xlink:href="#linearGradient4330"/><radialGradient id="radialGradient3232" cx="24.837" cy="36.421" r="15.645" fx="24.837" fy="36.421" gradientTransform="matrix(-0.27598143,0,0,-0.29583148,24.323798,24.819207)" gradientUnits="userSpaceOnUse" xlink:href="#linearGradient8662-8"/><linearGradient id="linearGradient8662-8"><stop style="stop-color:#000;stop-opacity:1" id="stop8664-1" offset="0"/><stop style="stop-color:#000;stop-opacity:0" id="stop8666-5" offset="1"/></linearGradient><linearGradient id="linearGradient3235" x1="20" x2="20" y1="43" y2="3" gradientTransform="matrix(0.48806853,0,0,0.48717974,0.303692,-0.163629)" gradientUnits="userSpaceOnUse" xlink:href="#linearGradient3104-5"/><linearGradient id="linearGradient3104-5"><stop style="stop-color:#aaa;stop-opacity:1" id="stop3106-9" offset="0"/><stop style="stop-color:#c8c8c8;stop-opacity:1" id="stop3108-8" offset="1"/></linearGradient><linearGradient id="linearGradient3238" x1="24" x2="24" y1="6.584" y2="41.416" gradientTransform="matrix(0.45945947,0,0,0.45945947,0.9742203,0.9717328)" gradientUnits="userSpaceOnUse" xlink:href="#linearGradient4094"/><linearGradient id="linearGradient4094"><stop style="stop-color:#fff;stop-opacity:1" id="stop4096" offset="0"/><stop style="stop-color:#fff;stop-opacity:.23529412" id="stop4098" offset=".02"/><stop style="stop-color:#fff;stop-opacity:.15686275" id="stop4100" offset=".991"/><stop style="stop-color:#fff;stop-opacity:.39215687" id="stop4102" offset="1"/></linearGradient><radialGradient id="radialGradient3242" cx="7.496" cy="8.45" r="20" fx="7.496" fy="8.45" gradientTransform="matrix(0,0.8950525,-0.94685877,-2.4361953e-8,20.000788,-3.440166)" gradientUnits="userSpaceOnUse" xlink:href="#linearGradient3600-7-9"/><linearGradient id="linearGradient3600-7-9"><stop style="stop-color:#f4f4f4;stop-opacity:1" id="stop3602-4-6" offset="0"/><stop style="stop-color:#dbdbdb;stop-opacity:1" id="stop3604-5-4" offset="1"/></linearGradient><radialGradient id="radialGradient3082-993" cx="4.993" cy="43.5" r="2.5" fx="4.993" fy="43.5" gradientTransform="matrix(2.003784,0,0,1.4,27.98813,-17.4)" gradientUnits="userSpaceOnUse" xlink:href="#linearGradient3688-166-749-49"/><linearGradient id="linearGradient3688-166-749-49"><stop style="stop-color:#181818;stop-opacity:1" id="stop3079" offset="0"/><stop style="stop-color:#181818;stop-opacity:0" id="stop3081" offset="1"/></linearGradient><radialGradient id="radialGradient3084-992" cx="4.993" cy="43.5" r="2.5" fx="4.993" fy="43.5" gradientTransform="matrix(2.003784,0,0,1.4,-20.01187,-104.4)" gradientUnits="userSpaceOnUse" xlink:href="#linearGradient3688-464-309-276"/><linearGradient id="linearGradient3688-464-309-276"><stop style="stop-color:#181818;stop-opacity:1" id="stop3085" offset="0"/><stop style="stop-color:#181818;stop-opacity:0" id="stop3087" offset="1"/></linearGradient><linearGradient id="linearGradient3086-631" x1="25.058" x2="25.058" y1="47.028" y2="39.999" gradientUnits="userSpaceOnUse" xlink:href="#linearGradient3702-501-757-979"/><linearGradient id="linearGradient3702-501-757-979"><stop style="stop-color:#181818;stop-opacity:0" id="stop3091" offset="0"/><stop style="stop-color:#181818;stop-opacity:1" id="stop3093" offset=".5"/><stop style="stop-color:#181818;stop-opacity:0" id="stop3095" offset="1"/></linearGradient><linearGradient id="linearGradient4330"><stop style="stop-color:#f0c1ff;stop-opacity:1" id="stop4332" offset="0"/><stop style="stop-color:#c5a3f2;stop-opacity:1" id="stop4334" offset=".262"/><stop style="stop-color:#7a36b1;stop-opacity:1" id="stop4336" offset=".705"/><stop style="stop-color:#4c2d81;stop-opacity:1" id="stop4338" offset="1"/></linearGradient></defs><metadata id="metadata3445"/><g id="g2036" transform="matrix(0.55,0,0,0.3333336,-1.2000011,7.33331)" style="display:inline"><g id="g3712" transform="matrix(1.052632,0,0,1.285713,-1.263158,-13.42854)" style="opacity:.4"><rect id="rect2801" width="5" height="7" x="38" y="40" style="fill:url(#radialGradient3082-993);fill-opacity:1;stroke:none"/><rect id="rect3696" width="5" height="7" x="-10" y="-47" transform="scale(-1,-1)" style="fill:url(#radialGradient3084-992);fill-opacity:1;stroke:none"/><rect id="rect3700" width="28" height="7" x="10" y="40" style="fill:url(#linearGradient3086-631);fill-opacity:1;stroke:none"/></g></g><rect id="rect5505-21-9-4-3" width="18" height="18" x="3" y="3" rx=".5" ry=".5" style="color:#000;display:inline;overflow:visible;visibility:visible;fill:url(#radialGradient3242);fill-opacity:1;fill-rule:nonzero;stroke:none;stroke-width:1;marker:none;enable-background:accumulate"/><rect id="rect5505-21-9-4" width="19" height="19" x="2.5" y="2.5" rx="1" ry="1" style="color:#000;display:inline;overflow:visible;visibility:visible;opacity:.3;fill:none;stroke:#000;stroke-width:1;stroke-linecap:round;stroke-linejoin:round;stroke-miterlimit:4;stroke-dasharray:none;stroke-dashoffset:0;stroke-opacity:1;marker:none;enable-background:accumulate"/><rect id="rect6741-9" width="17" height="17" x="3.501" y="3.499" style="fill:none;stroke:url(#linearGradient3238);stroke-width:.99999988;stroke-linecap:round;stroke-linejoin:round;stroke-miterlimit:4;stroke-dasharray:none;stroke-dashoffset:0;stroke-opacity:1"/><path id="path4564-0" d="M 11.514015,3.825155 A 1.4329316,1.4303221 0 0 0 10.827669,4.023072 L 5.443663,7.128843 a 1.4329316,1.4303221 0 0 0 -0.686347,0.989583 1.4329316,1.4303221 0 0 0 -0.01525,0 A 1.4329316,1.4303221 0 0 0 4.26925,9.184132 L 4.23874,15.38045 a 1.4329316,1.4303221 0 0 0 0.488069,1.065705 1.4329316,1.4303221 0 0 0 0,0.01522 1.4329316,1.4303221 0 0 0 0.701599,1.020032 l 5.368753,3.075322 a 1.4329316,1.4303221 0 0 0 1.174416,0.106571 1.4329316,1.4303221 0 0 0 0.01525,0 1.4329316,1.4303221 0 0 0 1.220171,-0.09134 l 5.368754,-3.090547 a 1.4329316,1.4303221 0 0 0 0.686346,-0.974359 1.4329316,1.4303221 0 0 0 0.533826,-1.096155 l 0,-6.196317 A 1.4329316,1.4303221 0 0 0 19.307856,8.148878 1.4329316,1.4303221 0 0 0 18.606257,7.128845 L 13.222251,4.038299 A 1.4329316,1.4303221 0 0 0 12.047837,3.916504 1.4329316,1.4303221 0 0 0 11.514011,3.825154 Z" style="color:#000;display:inline;overflow:visible;visibility:visible;opacity:.05;fill:url(#linearGradient3235);fill-opacity:1;fill-rule:nonzero;stroke:none;stroke-width:1;marker:none;enable-background:accumulate"/><path id="path3501-4" d="m 13.151556,14.044686 a 4.317657,4.6282081 0 1 1 8.635314,0 4.317657,4.6282081 0 0 1 -8.635314,0 z" style="display:inline;overflow:visible;visibility:visible;opacity:.14117647;fill:url(#radialGradient3232);fill-opacity:1;fill-rule:evenodd;stroke:none;stroke-width:1;marker:none"/><path id="path3288-2-2" d="m 17.5,17.221611 -7,-5.673017 7,-5.6960218 0,3.6474278 6,0 0,4 -6,0 z" style="color:#000;display:block;overflow:visible;visibility:visible;fill:url(#linearGradient3270-1);fill-opacity:1;fill-rule:nonzero;stroke:none;stroke-width:.96392483;marker:none;enable-background:accumulate"/><path id="path3288-2-2-8" d="M 16.5,15.111422 12.065411,11.548594 16.5,7.9257189 16.5,10.5 l 6,0 0,2 -6,0 z" style="color:#000;display:block;overflow:visible;visibility:visible;opacity:.40100002;fill:none;stroke:url(#linearGradient3260);stroke-width:.96392483;stroke-linecap:butt;stroke-linejoin:miter;stroke-miterlimit:7;stroke-dasharray:none;stroke-dashoffset:0;stroke-opacity:1;marker:none;enable-background:accumulate"/><path id="path3288-2-2-80" d="m 17.5,17.221611 -7,-5.673017 7,-5.696022 0,3.6474278 6,0 0,4.0000002 -6,0 z" style="color:#000;display:inline;overflow:visible;visibility:visible;opacity:.5;fill:none;stroke:#6326b9;stroke-width:1;stroke-linecap:butt;stroke-linejoin:round;stroke-miterlimit:4;stroke-dasharray:none;stroke-dashoffset:0;stroke-opacity:1;marker:none;enable-background:accumulate;clip-rule:nonzero;isolation:auto;mix-blend-mode:normal;color-interpolation:sRGB;color-interpolation-filters:linearRGB;solid-color:#000;solid-opacity:1;fill-opacity:1;fill-rule:nonzero;filter-blend-mode:normal;filter-gaussianBlur-deviation:0;color-rendering:auto;image-rendering:auto;shape-rendering:auto;text-rendering:auto"/></svg>