<svg xmlns="http://www.w3.org/2000/svg" xmlns:svg="http://www.w3.org/2000/svg" xmlns:xlink="http://www.w3.org/1999/xlink" id="svg3828" width="24" height="24" version="1.1"><defs id="defs3830"><linearGradient id="linearGradient3977"><stop style="stop-color:#fff;stop-opacity:1" id="stop3979" offset="0"/><stop style="stop-color:#fff;stop-opacity:.23529412" id="stop3981" offset=".036"/><stop style="stop-color:#fff;stop-opacity:.15686275" id="stop3983" offset=".951"/><stop style="stop-color:#fff;stop-opacity:.39215687" id="stop3985" offset="1"/></linearGradient><linearGradient id="linearGradient3600-4"><stop style="stop-color:#f4f4f4;stop-opacity:1" id="stop3602-7" offset="0"/><stop style="stop-color:#dbdbdb;stop-opacity:1" id="stop3604-6" offset="1"/></linearGradient><linearGradient id="linearGradient5060"><stop style="stop-color:#000;stop-opacity:1" id="stop5062" offset="0"/><stop style="stop-color:#000;stop-opacity:0" id="stop5064" offset="1"/></linearGradient><linearGradient id="linearGradient5048"><stop style="stop-color:#000;stop-opacity:0" id="stop5050" offset="0"/><stop style="stop-color:#000;stop-opacity:1" id="stop5056" offset=".5"/><stop style="stop-color:#000;stop-opacity:0" id="stop5052" offset="1"/></linearGradient><linearGradient id="linearGradient3013" x1="24" x2="24" y1="5.564" y2="43" gradientTransform="matrix(0.40540511,0,0,0.51351351,2.2696871,-0.3243195)" gradientUnits="userSpaceOnUse" xlink:href="#linearGradient3977"/><linearGradient id="linearGradient3016" x1="25.132" x2="25.132" y1=".985" y2="47.013" gradientTransform="matrix(0.48571543,0,0,0.45629666,0.3428289,0.3488617)" gradientUnits="userSpaceOnUse" xlink:href="#linearGradient3600-4"/><radialGradient id="radialGradient3021" cx="605.714" cy="486.648" r="117.143" fx="605.714" fy="486.648" gradientTransform="matrix(0.01204859,0,0,0.0082353,13.238793,18.980564)" gradientUnits="userSpaceOnUse" xlink:href="#linearGradient5060"/><radialGradient id="radialGradient3024" cx="605.714" cy="486.648" r="117.143" fx="605.714" fy="486.648" gradientTransform="matrix(-0.01204859,0,0,0.0082353,10.761206,18.980564)" gradientUnits="userSpaceOnUse" xlink:href="#linearGradient5060"/><linearGradient id="linearGradient3027" x1="302.857" x2="302.857" y1="366.648" y2="609.505" gradientTransform="matrix(0.0352071,0,0,0.0082353,-0.724852,18.980547)" gradientUnits="userSpaceOnUse" xlink:href="#linearGradient5048"/><linearGradient id="linearGradient3037" x1="38.941" x2="20.576" y1="15.991" y2="15.991" gradientTransform="matrix(0,-0.42848511,-0.45965715,0,17.287134,22.634688)" gradientUnits="userSpaceOnUse" xlink:href="#linearGradient4087"/><linearGradient id="linearGradient4087"><stop style="stop-color:#fff;stop-opacity:1" id="stop4089" offset="0"/><stop style="stop-color:#fff;stop-opacity:.23529412" id="stop4091" offset=".512"/><stop style="stop-color:#fff;stop-opacity:.15686275" id="stop4093" offset=".585"/><stop style="stop-color:#fff;stop-opacity:.39215687" id="stop4095" offset="1"/></linearGradient><linearGradient id="linearGradient3040" x1="23.732" x2="23.732" y1="4.418" y2="42.04" gradientTransform="matrix(-0.39222363,0,0,0.36562471,17.986391,2.8539844)" gradientUnits="userSpaceOnUse" xlink:href="#linearGradient3846"/><linearGradient id="linearGradient3846"><stop style="stop-color:#fff3cb;stop-opacity:1" id="stop3848" offset="0"/><stop style="stop-color:#fdde76;stop-opacity:1" id="stop3850" offset=".262"/><stop style="stop-color:#f9c440;stop-opacity:1" id="stop3852" offset=".661"/><stop style="stop-color:#e48b20;stop-opacity:1" id="stop3854" offset="1"/></linearGradient><linearGradient id="linearGradient3042" x1="35.998" x2="35.998" y1="37.039" y2="4.004" gradientTransform="matrix(-0.39222363,0,0,0.36562471,17.986391,2.8539844)" gradientUnits="userSpaceOnUse" xlink:href="#linearGradient3856"/><linearGradient id="linearGradient3856"><stop style="stop-color:#b67926;stop-opacity:1" id="stop3858" offset="0"/><stop style="stop-color:#eab41a;stop-opacity:1" id="stop3860" offset="1"/></linearGradient><linearGradient id="linearGradient8662"><stop style="stop-color:#000;stop-opacity:1" id="stop8664" offset="0"/><stop style="stop-color:#000;stop-opacity:0" id="stop8666" offset="1"/></linearGradient><radialGradient id="radialGradient3087" cx="24.837" cy="36.421" r="15.645" fx="24.837" fy="36.421" gradientTransform="matrix(0.38351555,0,0,-0.25567694,0.456539,24.312047)" gradientUnits="userSpaceOnUse" xlink:href="#linearGradient8662"/></defs><metadata id="metadata3833"/><rect style="opacity:.15;fill:url(#linearGradient3027);fill-opacity:1;fill-rule:nonzero;stroke:none;stroke-width:1;marker:none;visibility:visible;display:inline;overflow:visible" id="rect2879" width="17" height="2" x="3.5" y="22"/><path style="opacity:.15;fill:url(#radialGradient3024);fill-opacity:1;fill-rule:nonzero;stroke:none;stroke-width:1;marker:none;visibility:visible;display:inline;overflow:visible" id="path2881" d="m 3.4999999,22.000085 c 0,0 0,1.999891 0,1.999891 C 2.8795275,24.003776 2,23.551901 2,22.999901 2,22.447902 2.6924,22.000085 3.4999999,22.000085 z"/><path style="opacity:.15;fill:url(#radialGradient3021);fill-opacity:1;fill-rule:nonzero;stroke:none;stroke-width:1;marker:none;visibility:visible;display:inline;overflow:visible" id="path2883" d="m 20.5,22.000085 c 0,0 0,1.999891 0,1.999891 0.620472,0.0038 1.5,-0.448075 1.5,-1.000075 0,-0.551999 -0.692402,-0.999816 -1.5,-0.999816 z"/><path style="fill:url(#linearGradient3016);fill-opacity:1;stroke:none;display:inline" id="path4160-3" d="m 3.4999601,1.4999569 c 3.8955809,0 17.0000589,0.00136 17.0000589,0.00136 l 2.1e-5,20.9987161 c 0,0 -11.3333862,0 -17.0000799,0 0,-7.000018 0,-14.000035 0,-21.0000538 z"/><path style="fill:none;stroke:url(#linearGradient3013);stroke-width:1;stroke-linecap:round;stroke-linejoin:miter;stroke-miterlimit:4;stroke-opacity:1;stroke-dasharray:none;stroke-dashoffset:0" id="rect6741-1" d="m 19.5,21.5 -15.0000004,0 0,-19 L 19.5,2.5 z"/><path style="opacity:.3;fill:none;stroke:#000;stroke-width:.99992186;stroke-linecap:butt;stroke-linejoin:round;stroke-miterlimit:4;stroke-opacity:1;stroke-dasharray:none;stroke-dashoffset:0;display:inline" id="path4160-3-1" d="m 3.4999601,1.4999569 c 3.8955809,0 17.0000589,0.00136 17.0000589,0.00136 l 2.1e-5,20.9987161 c 0,0 -11.3333862,0 -17.0000799,0 0,-7.000018 0,-14.000035 0,-21.0000538 z"/><path style="opacity:.14117647;fill:url(#radialGradient3087);fill-opacity:1;fill-rule:evenodd;stroke:none;stroke-width:1;marker:none;visibility:visible;display:inline;overflow:visible" id="path3501" d="M 15.981963,15 A 6.0000001,4.0000001 0 1 0 3.9819629,15 6.0000001,4.0000001 0 0 0 15.981963,15 z"/><path style="fill:url(#linearGradient3040);fill-opacity:1;fill-rule:nonzero;stroke:url(#linearGradient3042);stroke-width:.96392483;stroke-linecap:butt;stroke-linejoin:round;stroke-miterlimit:7;stroke-opacity:1;stroke-dasharray:none;stroke-dashoffset:0;marker:none;visibility:visible;display:block;overflow:visible" id="path3503" d="m 11.981962,17 c 4.980222,-3.367056 2.051119,-9.5507276 -3.5,-9.4999996 l 0,-3.000485 -7,5 7,4.9999996 0,-2.976351 c 3.580248,-0.139062 5.559516,3.12742 3,5.476836 z"/><path style="opacity:.8;fill:none;stroke:url(#linearGradient3037);stroke-width:.96392483;stroke-linecap:butt;stroke-linejoin:miter;stroke-miterlimit:7;stroke-opacity:1;stroke-dasharray:none;stroke-dashoffset:0;marker:none;visibility:visible;display:block;overflow:visible" id="path3505" d="M 12.938624,15.258273 C 14.695476,13.199411 13.163641,7.8236994 7.543561,8.5590324 l -0.0616,-2.197396 -4.369328,3.137879 4.369328,3.0644276 0,-2.059765 c 6.167442,-0.329165 5.981488,3.921804 5.456662,4.754095 z"/></svg>