<svg xmlns="http://www.w3.org/2000/svg" xmlns:svg="http://www.w3.org/2000/svg" xmlns:xlink="http://www.w3.org/1999/xlink" id="svg3828" width="24" height="24" version="1.1"><defs id="defs3830"><linearGradient id="linearGradient4417"><stop style="stop-color:#fff;stop-opacity:1" id="stop4419" offset="0"/><stop style="stop-color:#fff;stop-opacity:.23529412" id="stop4421" offset=".012"/><stop style="stop-color:#fff;stop-opacity:.15686275" id="stop4423" offset=".989"/><stop style="stop-color:#fff;stop-opacity:.39215687" id="stop4425" offset="1"/></linearGradient><linearGradient id="linearGradient4409"><stop style="stop-color:#000;stop-opacity:.239" id="stop4411" offset="0"/><stop style="stop-color:#000;stop-opacity:.318" id="stop4413" offset="1"/></linearGradient><linearGradient id="linearGradient3600-4"><stop id="stop3602-7" offset="0" style="stop-color:#f4f4f4;stop-opacity:1"/><stop id="stop3604-6" offset="1" style="stop-color:#dbdbdb;stop-opacity:1"/></linearGradient><linearGradient id="linearGradient5060"><stop id="stop5062" offset="0" style="stop-color:#000;stop-opacity:1"/><stop id="stop5064" offset="1" style="stop-color:#000;stop-opacity:0"/></linearGradient><linearGradient id="linearGradient5048"><stop id="stop5050" offset="0" style="stop-color:#000;stop-opacity:0"/><stop id="stop5056" offset=".5" style="stop-color:#000;stop-opacity:1"/><stop id="stop5052" offset="1" style="stop-color:#000;stop-opacity:0"/></linearGradient><linearGradient id="linearGradient3013" x1="24" x2="24" y1="6.583" y2="41.507" gradientTransform="matrix(0.40540511,0,0,0.51351351,2.2696871,-0.3243195)" gradientUnits="userSpaceOnUse" xlink:href="#linearGradient4417"/><linearGradient id="linearGradient3016" x1="25.132" x2="25.132" y1=".985" y2="47.013" gradientTransform="matrix(0.45714178,0,0,0.43456667,1.0285964,0.90372283)" gradientUnits="userSpaceOnUse" xlink:href="#linearGradient3600-4"/><radialGradient id="radialGradient3021" cx="605.714" cy="486.648" r="117.143" fx="605.714" fy="486.648" gradientTransform="matrix(0.01204859,0,0,0.0082353,13.238793,18.980564)" gradientUnits="userSpaceOnUse" xlink:href="#linearGradient5060"/><radialGradient id="radialGradient3024" cx="605.714" cy="486.648" r="117.143" fx="605.714" fy="486.648" gradientTransform="matrix(-0.01204859,0,0,0.0082353,10.761206,18.980564)" gradientUnits="userSpaceOnUse" xlink:href="#linearGradient5060"/><linearGradient id="linearGradient3027" x1="302.857" x2="302.857" y1="366.648" y2="609.505" gradientTransform="matrix(0.0352071,0,0,0.0082353,-0.724852,18.980547)" gradientUnits="userSpaceOnUse" xlink:href="#linearGradient5048"/><linearGradient id="linearGradient3022" x1="11.704" x2="11.704" y1="19.199" y2="12.501" gradientUnits="userSpaceOnUse" xlink:href="#linearGradient4299-652"/><linearGradient id="linearGradient4299-652"><stop id="stop3618" offset="0" style="stop-color:#fff;stop-opacity:1"/><stop id="stop3620" offset="1" style="stop-color:#fff;stop-opacity:0"/></linearGradient><linearGradient id="linearGradient4415" x1="16.57" x2="16.57" y1="1.607" y2="22.542" gradientUnits="userSpaceOnUse" xlink:href="#linearGradient4409"/><linearGradient id="linearGradient6451"><stop style="stop-color:#eeeeec;stop-opacity:1" id="stop6453" offset="0"/><stop style="stop-color:#fff;stop-opacity:1" id="stop6455" offset="1"/></linearGradient><linearGradient id="linearGradient3874" x1="21.478" x2="21.478" y1=".537" y2="6.575" gradientTransform="matrix(0.45000003,0,0,0.29999999,0.97499862,1.8500001)" gradientUnits="userSpaceOnUse" xlink:href="#linearGradient6451"/></defs><metadata id="metadata3833"/><rect id="rect2879" width="17" height="2" x="3.5" y="22" style="opacity:.15;fill:url(#linearGradient3027);fill-opacity:1;fill-rule:nonzero;stroke:none;stroke-width:1;marker:none;visibility:visible;display:inline;overflow:visible"/><path id="path2881" d="m 3.4999999,22.000085 c 0,0 0,1.999891 0,1.999891 C 2.8795275,24.003776 2,23.551901 2,22.999901 2,22.447902 2.6924,22.000085 3.4999999,22.000085 z" style="opacity:.15;fill:url(#radialGradient3024);fill-opacity:1;fill-rule:nonzero;stroke:none;stroke-width:1;marker:none;visibility:visible;display:inline;overflow:visible"/><path id="path2883" d="m 20.5,22.000085 c 0,0 0,1.999891 0,1.999891 0.620472,0.0038 1.5,-0.448075 1.5,-1.000075 0,-0.551999 -0.692402,-0.999816 -1.5,-0.999816 z" style="opacity:.15;fill:url(#radialGradient3021);fill-opacity:1;fill-rule:nonzero;stroke:none;stroke-width:1;marker:none;visibility:visible;display:inline;overflow:visible"/><path id="path4160-3" d="m 4,2 c 3.6664118,0 15.99998,0.0013 15.99998,0.0013 L 20,22 C 20,22 9.3333337,22 4,22 4,15.33334 4,8.6666817 4,2.0000212 Z" style="display:inline;fill:url(#linearGradient3016);fill-opacity:1;stroke:none"/><path id="rect6741-1" d="m 19.5,21.5 -15.0000004,0 0,-19 L 19.5,2.5 z" style="fill:none;stroke:url(#linearGradient3013);stroke-width:1;stroke-linecap:round;stroke-linejoin:miter;stroke-miterlimit:4;stroke-opacity:1;stroke-dasharray:none;stroke-dashoffset:0"/><path id="path4160-3-1" d="m 20.500019,6.0006688 2.1e-5,16.4993642 -17.0000799,0 0,-16.5007019" style="display:inline;opacity:1;fill:none;stroke:url(#linearGradient4415);stroke-width:.99992186;stroke-linecap:butt;stroke-linejoin:round;stroke-miterlimit:4;stroke-dasharray:none;stroke-dashoffset:0;stroke-opacity:1"/><path id="path3288-2-2" d="m 16.5,12.522385 -4.500001,5 -4.499999,-5 3,0 0,-5.0223848 3,0 0,5.0223848 z" style="color:#000;fill:#bebebe;fill-opacity:1;fill-rule:nonzero;stroke:#a0a0a0;stroke-width:1;stroke-linecap:round;stroke-linejoin:round;stroke-miterlimit:4;stroke-opacity:1;stroke-dasharray:none;stroke-dashoffset:0;marker:none;visibility:visible;display:inline;overflow:visible;enable-background:accumulate"/><path id="path3524" d="m 10.280875,6.4684452 c -0.5966543,0.112049 -0.9162257,0.736506 -0.84375,1.30311 0,0.898964 0,2.7982318 0,3.6971948 -0.5788649,0.0367 -2.2592394,-0.146354 -2.7090233,0.328895 -0.4664666,0.45279 -0.3538552,1.232121 0.1203581,1.631199 1.4721128,1.632101 2.9372057,3.270736 4.4137232,4.898737 0.474211,0.475926 1.303176,0.33271 1.665288,-0.205327 1.48182,-1.654007 2.97913,-3.295035 4.451232,-4.957185 C 17.89298,12.503914 17.336653,11.430097 16.5,11.46875 c -0.3125,0 -1.62492,0 -1.93742,0 -0.0045,-1.014919 0.009,-3.0307158 -0.0069,-4.0452728 -0.05174,-0.634617 -0.69724,-1.035839 -1.29626,-0.955032 -1.659293,4.8e-5 -1.319779,-6.5e-5 -2.978595,0 z" style="opacity:.6;color:#000;fill:none;stroke:url(#linearGradient3022);stroke-width:1;stroke-linecap:round;stroke-linejoin:miter;stroke-miterlimit:4;stroke-opacity:1;stroke-dasharray:none;stroke-dashoffset:0;marker:none;visibility:visible;display:inline;overflow:visible;enable-background:accumulate"/><rect id="rect5480" width="18" height="3" x="3" y="2" rx=".5" ry=".5" style="display:inline;fill:url(#linearGradient3874);fill-opacity:1;stroke:none"/><rect id="rect6467" width="6" height="1" x="4" y="3" style="display:inline;fill:#c8cdc3;fill-opacity:1;stroke:none"/><rect id="rect6469" width="1" height="2" x="11" y="2.5" style="display:inline;fill:#969696;fill-opacity:1;stroke:none"/><rect id="rect5480-5" width="19" height="4" x="2.5" y="1.5" rx="1" ry="1" style="display:inline;opacity:.3;fill:none;stroke:#000;stroke-width:1;stroke-linecap:butt;stroke-linejoin:miter;stroke-miterlimit:4;stroke-dasharray:none;stroke-dashoffset:0;stroke-opacity:1"/></svg>