<svg xmlns="http://www.w3.org/2000/svg" xmlns:svg="http://www.w3.org/2000/svg" id="svg7384" width="24" height="24" version="1.1"><metadata id="metadata90"/><title id="title9167">elementary Symbolic Icon Theme</title><path id="path8080" d="M 9.5,3 C 5.9219938,3 3,5.9219938 3,9.5 3,13.078006 5.9219938,16 9.5,16 c 1.423742,0 2.674813,-0.555343 3.748047,-1.337891 l 6.044922,6.044922 1.414062,-1.414062 -6.044922,-6.044922 C 15.444657,12.174813 16,10.923742 16,9.5 16,5.9219938 13.078006,3 9.5,3 Z m 0,2 C 11.997126,5 14,7.002874 14,9.5 14,11.997126 11.997126,14 9.5,14 7.002874,14 5,11.997126 5,9.5 5,7.002874 7.002874,5 9.5,5 Z" style="color:#000;font-style:normal;font-variant:normal;font-weight:400;font-stretch:normal;font-size:medium;line-height:normal;font-family:sans-serif;text-indent:0;text-align:start;text-decoration:none;text-decoration-line:none;text-decoration-style:solid;text-decoration-color:#000;letter-spacing:normal;word-spacing:normal;text-transform:none;direction:ltr;block-progression:tb;writing-mode:lr-tb;baseline-shift:baseline;text-anchor:start;white-space:normal;clip-rule:nonzero;display:inline;overflow:visible;visibility:visible;opacity:1;isolation:auto;mix-blend-mode:normal;color-interpolation:sRGB;color-interpolation-filters:linearRGB;solid-color:#000;solid-opacity:1;fill:#bebebe;fill-opacity:1;fill-rule:evenodd;stroke:none;stroke-width:2;stroke-linecap:square;stroke-linejoin:round;stroke-miterlimit:4;stroke-dasharray:none;stroke-dashoffset:0;stroke-opacity:1;color-rendering:auto;image-rendering:auto;shape-rendering:auto;text-rendering:auto;enable-background:accumulate"/></svg>