<svg xmlns="http://www.w3.org/2000/svg" xmlns:svg="http://www.w3.org/2000/svg" xmlns:xlink="http://www.w3.org/1999/xlink" id="svg3495" width="24" height="24" version="1.1"><defs id="defs3497"><linearGradient id="linearGradient3821"><stop style="stop-color:#555;stop-opacity:1" id="stop3823" offset="0"/><stop style="stop-color:#666;stop-opacity:1" id="stop3825" offset="1"/></linearGradient><linearGradient id="linearGradient3233" x1="12" x2="12" y1="22" y2="0" gradientTransform="translate(2,35)" gradientUnits="userSpaceOnUse" xlink:href="#linearGradient3821"/><linearGradient id="linearGradient3247" x1="12" x2="12" y1="22" y2="0" gradientTransform="translate(2,30)" gradientUnits="userSpaceOnUse" xlink:href="#linearGradient3821"/><linearGradient id="linearGradient3261" x1="12" x2="12" y1="22" y2="0" gradientTransform="translate(2,25)" gradientUnits="userSpaceOnUse" xlink:href="#linearGradient3821"/><linearGradient id="linearGradient3275" x1="12" x2="12" y1="22" y2="0" gradientTransform="translate(2,20)" gradientUnits="userSpaceOnUse" xlink:href="#linearGradient3821"/><linearGradient id="linearGradient3852" x1="23.732" x2="23.732" y1="4.418" y2="33.876" gradientTransform="matrix(0.36132509,0,0,0.33660657,-1.0097844,0.1354293)" gradientUnits="userSpaceOnUse" xlink:href="#linearGradient2867-449-88-871-390-598-476-591-434-148-57-177"/><linearGradient id="linearGradient2867-449-88-871-390-598-476-591-434-148-57-177"><stop id="stop3750" offset="0" style="stop-color:#90dbec;stop-opacity:1"/><stop id="stop3752" offset=".262" style="stop-color:#55c1ec;stop-opacity:1"/><stop id="stop3754" offset=".705" style="stop-color:#3689e6;stop-opacity:1"/><stop id="stop3756" offset="1" style="stop-color:#2b63a0;stop-opacity:1"/></linearGradient><linearGradient id="linearGradient3854" x1="35.998" x2="35.998" y1="37.039" y2="4.004" gradientTransform="matrix(0.36132509,0,0,0.33660657,-1.0097844,0.1354293)" gradientUnits="userSpaceOnUse" xlink:href="#linearGradient3707-319-631-407-324"/><linearGradient id="linearGradient3707-319-631-407-324"><stop id="stop3760" offset="0" style="stop-color:#185f9a;stop-opacity:1"/><stop id="stop3762" offset="1" style="stop-color:#599ec9;stop-opacity:1"/></linearGradient><linearGradient id="linearGradient3842" x1="38.941" x2="20.576" y1="15.991" y2="15.991" gradientTransform="matrix(0,-0.39447799,0.42344634,0,-0.3656134,18.346218)" gradientUnits="userSpaceOnUse" xlink:href="#linearGradient4087-5"/><linearGradient id="linearGradient4087-5"><stop id="stop4089-8" offset="0" style="stop-color:#fff;stop-opacity:1"/><stop id="stop4091-2" offset=".512" style="stop-color:#fff;stop-opacity:.23529412"/><stop id="stop4093-6" offset=".585" style="stop-color:#fff;stop-opacity:.15686275"/><stop id="stop4095-0" offset="1" style="stop-color:#fff;stop-opacity:.39215687"/></linearGradient></defs><metadata id="metadata3500"/><g id="layer1" transform="translate(0,-24)"><path style="fill:url(#linearGradient3233);fill-opacity:1;stroke:none;stroke-linejoin:round" id="rect3816" d="m 3.5,43.5 0,3 15,0 0,-3 z"/><path style="opacity:.61000001;fill:none;stroke:#000;stroke-width:1;stroke-linejoin:round;stroke-miterlimit:4;stroke-dasharray:none;stroke-opacity:1" id="path3833" d="m 3.5,43.5 0,3 15,0 0,-3 z"/><path style="opacity:.2;fill:#fff;fill-opacity:1;stroke:none;stroke-linejoin:round" id="path3835" d="m 4,44 0,2 1,0 0,-1 13,0 0,-1 z"/><path style="fill:url(#linearGradient3247);fill-opacity:1;stroke:none;stroke-linejoin:round" id="path3067" d="m 11.5,38.5 0,3 9,0 0,-3 z"/><path style="opacity:.61000001;fill:none;stroke:#000;stroke-width:1;stroke-linejoin:round;stroke-miterlimit:4;stroke-dasharray:none;stroke-opacity:1" id="path3069" d="m 11.5,38.5 0,3 9,0 0,-3 z"/><path style="opacity:.2;fill:#fff;fill-opacity:1;stroke:none;stroke-linejoin:round" id="path3071" d="m 12,39 0,2 1,0 0,-1 7,0 0,-1 z"/><path style="fill:url(#linearGradient3261);fill-opacity:1;stroke:none;stroke-linejoin:round" id="path3091" d="m 11.5,33.5 0,3 11,0 0,-3 z"/><path style="opacity:.61000001;fill:none;stroke:#000;stroke-width:1;stroke-linejoin:round;stroke-miterlimit:4;stroke-dasharray:none;stroke-opacity:1" id="path3093" d="m 11.5,33.5 0,3 11,0 0,-3 z"/><path style="opacity:.2;fill:#fff;fill-opacity:1;stroke:none;stroke-linejoin:round" id="path3095" d="m 12,34 0,2 1,0 0,-1 9,0 0,-1 z"/><path style="fill:url(#linearGradient3275);fill-opacity:1;stroke:none;stroke-linejoin:round" id="path3115" d="m 3.5,28.5 0,3 13,0 0,-3 z"/><path style="opacity:.61000001;fill:none;stroke:#000;stroke-width:1;stroke-linejoin:round;stroke-miterlimit:4;stroke-dasharray:none;stroke-opacity:1" id="path3117" d="m 3.5,28.5 0,3 13,0 0,-3 z"/><path style="opacity:.2;fill:#fff;fill-opacity:1;stroke:none;stroke-linejoin:round" id="path3119" d="m 4,29 0,2 1,0 0,-1 11,0 0,-1 z"/><g id="layer1-4" transform="matrix(0.86582369,0,0,0.87212229,-3.0688157,31.980547)"><path id="path3503-1" d="M 7.6306935,1.6503604 13.770007,6.2535311 7.6306935,10.856701 Z" style="display:block;overflow:visible;visibility:visible;fill:url(#linearGradient3852);fill-opacity:1;fill-rule:nonzero;stroke:url(#linearGradient3854);stroke-width:1.10927629;stroke-linecap:butt;stroke-linejoin:round;stroke-miterlimit:7;stroke-dasharray:none;stroke-dashoffset:0;stroke-opacity:1;marker:none"/><path id="path3505-3" d="M 8.7673456,3.8962199 11.866711,6.217699 8.8034384,8.5325184 Z" style="display:block;overflow:visible;visibility:visible;opacity:.5;fill:none;stroke:url(#linearGradient3842);stroke-width:1.10927629;stroke-linecap:butt;stroke-linejoin:miter;stroke-miterlimit:7;stroke-dasharray:none;stroke-dashoffset:0;stroke-opacity:1;marker:none"/></g></g></svg>