<svg xmlns="http://www.w3.org/2000/svg" xmlns:svg="http://www.w3.org/2000/svg" xmlns:xlink="http://www.w3.org/1999/xlink" id="svg3803" width="24" height="24" version="1.1"><defs id="defs3805"><linearGradient id="linearGradient3750" x1="144.459" x2="144.459" y1="-2.227" y2="42.42" gradientTransform="matrix(-0.2703533,0,0,0.27035337,54.200342,6.5708418)" gradientUnits="userSpaceOnUse" xlink:href="#linearGradient4873-275-174-730-0"/><linearGradient id="linearGradient4873-275-174-730-0"><stop id="stop3091-4" offset="0" style="stop-color:#fff;stop-opacity:1"/><stop id="stop3093-4" offset="1" style="stop-color:#fff;stop-opacity:0"/></linearGradient><linearGradient id="linearGradient3242-141-111-307-57-927"><stop id="stop3881" offset="0" style="stop-color:#fff;stop-opacity:1"/><stop id="stop3883" offset="1" style="stop-color:#b4b4b4;stop-opacity:1"/></linearGradient><radialGradient id="radialGradient3799" cx="20.573" cy="-35.522" r="20.397" fx="20.573" fy="-35.522" gradientTransform="matrix(0,0.64524082,0.85170617,0,44.313554,-8.274242)" gradientUnits="userSpaceOnUse" xlink:href="#linearGradient3242-141-111-307-57-927"/><radialGradient id="radialGradient3900-3" cx="65.297" cy="48.216" r="31" fx="65.297" fy="48.216" gradientTransform="matrix(0,0.52544994,-0.5716256,0,46.193389,-21.123812)" gradientUnits="userSpaceOnUse" xlink:href="#linearGradient3242-7-3-8-0-4-58-06"/><linearGradient id="linearGradient3242-7-3-8-0-4-58-06"><stop style="stop-color:#cdf87e;stop-opacity:1" id="stop3244-5-8-5-6-4-3-8" offset="0"/><stop style="stop-color:#a2e34f;stop-opacity:1" id="stop3246-9-5-1-5-3-0-7" offset=".262"/><stop style="stop-color:#68b723;stop-opacity:1" id="stop3248-7-2-0-7-5-35-9" offset=".661"/><stop style="stop-color:#1d7e0d;stop-opacity:1" id="stop3250-8-2-8-5-6-40-4" offset="1"/></linearGradient><linearGradient id="linearGradient3030-0" x1="24.139" x2="24.139" y1="10.631" y2="35.623" gradientTransform="matrix(0.2817955,0,0,0.2800956,12.196562,12.014885)" gradientUnits="userSpaceOnUse" xlink:href="#linearGradient4154-8"/><linearGradient id="linearGradient4154-8"><stop id="stop4156-3" offset="0" style="stop-color:#fff;stop-opacity:1"/><stop id="stop4158-5" offset="0" style="stop-color:#fff;stop-opacity:.23529412"/><stop id="stop4160-3" offset="1" style="stop-color:#fff;stop-opacity:.15686275"/><stop id="stop4162-9" offset="1" style="stop-color:#fff;stop-opacity:.39215687"/></linearGradient><linearGradient id="linearGradient3030-1" x1="24.139" x2="24.139" y1="21.342" y2="24.912" gradientTransform="matrix(0.2817955,0,0,0.2800956,12.178741,12.02218)" gradientUnits="userSpaceOnUse" xlink:href="#linearGradient4333"/><linearGradient id="linearGradient4333"><stop style="stop-color:#fff;stop-opacity:1" id="stop4335" offset="0"/><stop style="stop-color:#fff;stop-opacity:.23529412" id="stop4337" offset="0"/><stop style="stop-color:#fff;stop-opacity:.15686275" id="stop4339" offset="1"/><stop style="stop-color:#fff;stop-opacity:.39215687" id="stop4341" offset="1"/></linearGradient></defs><metadata id="metadata3808"/><path style="color:#000;display:inline;overflow:visible;visibility:visible;fill:url(#radialGradient3799);fill-opacity:1;fill-rule:nonzero;stroke:#000;stroke-width:1;stroke-linecap:round;stroke-linejoin:round;stroke-miterlimit:4;stroke-dasharray:none;stroke-dashoffset:0;stroke-opacity:.31333333;marker:none;enable-background:accumulate" id="path2396" d="m 14,5.5 c -4.692,0 -8.5,2.9120003 -8.5,6.5 0,0.550338 0.112625,1.083288 0.28125,1.59375 L 2.5,16.40625 7.875,16.5 c 1.547138,1.23217 3.716504,2 6.125,2 4.692,0 8.500001,-2.912 8.5,-6.5 0,-3.5879999 -3.808,-6.5000001 -8.5,-6.5 z"/><path style="color:#000;display:inline;overflow:visible;visibility:visible;opacity:.4;fill:none;stroke:url(#linearGradient3750);stroke-width:1;stroke-linecap:round;stroke-linejoin:round;stroke-miterlimit:4;stroke-dasharray:none;stroke-dashoffset:0;stroke-opacity:1;marker:none;enable-background:accumulate" id="path3811" d="m 14,6.46875 c 2.143173,0 4.058764,0.6883198 5.40625,1.71875 1.347486,1.03043 2.125,2.365346 2.125,3.8125 0,1.447153 -0.777514,2.78207 -2.125,3.8125 -1.347486,1.03043 -3.263077,1.71875 -5.40625,1.71875 -2.200123,0 -4.146962,-0.734915 -5.5,-1.8125 a 0.98052209,0.98052209 0 0 0 -0.59375,-0.1875 l -2.8125,-0.0625 1.3125,-1.125 a 0.98052209,0.98052209 0 0 0 0.3125,-1.0625 C 6.573094,12.840318 6.46875,12.416577 6.46875,12 c 0,-1.447153 0.777514,-2.78207 2.125,-3.8125 C 9.941236,7.1570698 11.856827,6.46875 14,6.46875 Z"/><g id="g4474"><path style="color:#000;display:inline;overflow:visible;visibility:visible;fill:url(#radialGradient3900-3);fill-opacity:1;fill-rule:nonzero;stroke:none;stroke-width:.98542744;marker:none;enable-background:accumulate" id="path2262" d="m 16.482179,16.507295 0,-3 4,0 0,3 3,0 0,4 -3,0 0,2.999991 -4,0 0,-2.999991 -2.989465,0 0,-4 2.989465,0 z"/><path style="display:inline;opacity:.5;fill:none;stroke:url(#linearGradient3030-0);stroke-width:1;stroke-linecap:butt;stroke-linejoin:miter;stroke-miterlimit:4;stroke-dasharray:none;stroke-opacity:1" id="path2272" d="m 17.5,18.004404 0,-3.504404 2,0 0,3.5 m 0,1 0,3.5 -2,0 0,-3.5"/><path style="color:#000;clip-rule:nonzero;display:inline;overflow:visible;visibility:visible;opacity:.5;isolation:auto;mix-blend-mode:normal;color-interpolation:sRGB;color-interpolation-filters:linearRGB;solid-color:#000;solid-opacity:1;fill:none;fill-opacity:1;fill-rule:nonzero;stroke:#0f5a00;stroke-width:1;stroke-linecap:round;stroke-linejoin:round;stroke-miterlimit:4;stroke-dasharray:none;stroke-dashoffset:0;stroke-opacity:1;marker:none;color-rendering:auto;image-rendering:auto;shape-rendering:auto;text-rendering:auto;enable-background:accumulate" id="path2262-2" d="m 16.482179,16.507295 0,-3 4,0 0,3 3,0 0,4 -3,0 0,2.999991 -4,0 0,-2.999991 -2.989465,0 0,-4 2.989465,0 z"/><path style="display:inline;opacity:.5;fill:none;stroke:url(#linearGradient3030-1);stroke-width:1;stroke-linecap:butt;stroke-linejoin:miter;stroke-miterlimit:4;stroke-dasharray:none;stroke-opacity:1" id="path2272-2" d="m 20,17.507295 2.482179,-0.0073 0,2 L 20,19.507295 m -3,0 -2.5,-0.0073 0,-2 2.5,0.0073"/></g></svg>