<svg xmlns="http://www.w3.org/2000/svg" xmlns:svg="http://www.w3.org/2000/svg" xmlns:xlink="http://www.w3.org/1999/xlink" id="svg4524" width="24" height="24" version="1.1"><defs id="defs4526"><linearGradient id="linearGradient2867-449-88-871-390-598-476-591-434-148-57-177-641-289-620-227-114-444-680-744-4-1-5"><stop style="stop-color:#737373;stop-opacity:1" id="stop5430-5-0-9" offset="0"/><stop style="stop-color:#636363;stop-opacity:1" id="stop5432-2-0-0" offset=".262"/><stop style="stop-color:#4b4b4b;stop-opacity:1" id="stop5434-9-6-8" offset=".705"/><stop style="stop-color:#3f3f3f;stop-opacity:1" id="stop5436-2-7-0" offset="1"/></linearGradient><radialGradient id="radialGradient4168" cx="12" cy="3" r="8" fx="12" fy="3" gradientTransform="matrix(1.5646867e-7,3.7500001,-3.8749999,1.625e-7,21.624999,-41)" gradientUnits="userSpaceOnUse" xlink:href="#linearGradient2867-449-88-871-390-598-476-591-434-148-57-177-641-289-620-227-114-444-680-744-4-1-5"/><clipPath id="clipPath4324" clipPathUnits="userSpaceOnUse"><path id="path4326" d="M 3,8 C 2.446,8 2,8.446 2,9 l 0,4 c 0,0.554 0.446,1 1,1 l 18,0 c 0.554,0 1,-0.446 1,-1 L 22,9 C 22,8.446 21.554,8 21,8 Z" style="fill:url(#radialGradient4328);fill-opacity:1;fill-rule:evenodd;stroke:none;stroke-width:1px;stroke-linecap:butt;stroke-linejoin:miter;stroke-opacity:1"/></clipPath><radialGradient id="radialGradient4328" cx="12" cy="3" r="8" fx="12" fy="3" gradientTransform="matrix(1.5646867e-7,3.7500001,-3.8749999,1.625e-7,21.624999,-42)" gradientUnits="userSpaceOnUse" xlink:href="#linearGradient2867-449-88-871-390-598-476-591-434-148-57-177-641-289-620-227-114-444-680-744-4-1-5"/></defs><metadata id="metadata4529"/><path id="path4197" d="m 3,10 c -0.554,0 -1,0.446 -1,1 l 0,4 c 0,0.554 0.446,1 1,1 l 18,0 c 0.554,0 1,-0.446 1,-1 l 0,-4 c 0,-0.554 -0.446,-1 -1,-1 z" clip-path="none" style="opacity:.35;fill:#fff;fill-opacity:1;fill-rule:evenodd;stroke:none;stroke-width:1px;stroke-linecap:butt;stroke-linejoin:miter;stroke-opacity:1"/><path style="fill:url(#radialGradient4168);fill-opacity:1;fill-rule:evenodd;stroke:none;stroke-width:1px;stroke-linecap:butt;stroke-linejoin:miter;stroke-opacity:1" id="rect3352" d="M 3,9 C 2.446,9 2,9.446 2,10 l 0,4 c 0,0.554 0.446,1 1,1 l 18,0 c 0.554,0 1,-0.446 1,-1 l 0,-4 C 22,9.446 21.554,9 21,9 Z" clip-path="none"/><path id="path4173" d="M 3,8 C 2.446,8 2,8.446 2,9 l 0,4 c 0,0.554 0.446,1 1,1 l 18,0 c 0.554,0 1,-0.446 1,-1 L 22,9 C 22,8.446 21.554,8 21,8 Z" clip-path="url(#clipPath4324)" transform="translate(0,1)" style="opacity:.1;fill:none;fill-opacity:1;fill-rule:evenodd;stroke:#000;stroke-width:2;stroke-linecap:butt;stroke-linejoin:miter;stroke-miterlimit:4;stroke-dasharray:none;stroke-opacity:1"/><path style="opacity:.05;fill:none;fill-opacity:1;fill-rule:evenodd;stroke:#000;stroke-width:4;stroke-linecap:butt;stroke-linejoin:miter;stroke-miterlimit:4;stroke-dasharray:none;stroke-opacity:1" id="path4330" d="M 3,8 C 2.446,8 2,8.446 2,9 l 0,4 c 0,0.554 0.446,1 1,1 l 18,0 c 0.554,0 1,-0.446 1,-1 L 22,9 C 22,8.446 21.554,8 21,8 Z" clip-path="url(#clipPath4324)" transform="translate(0,1)"/></svg>