<svg xmlns="http://www.w3.org/2000/svg" xmlns:svg="http://www.w3.org/2000/svg" xmlns:xlink="http://www.w3.org/1999/xlink" id="svg2" width="24" height="24" version="1.2"><defs id="defs4"><linearGradient id="linearGradient11527-6" x1="2035.165" x2="2035.165" y1="3208.074" y2="3241.997" gradientTransform="matrix(0.8047894,0,0,0.60165743,-1628.8199,-1928.0804)" gradientUnits="userSpaceOnUse" xlink:href="#linearGradient27416-1-5"/><linearGradient id="linearGradient27416-1-5"><stop style="stop-color:#55c1ec;stop-opacity:1" id="stop27420-2-2" offset="0"/><stop style="stop-color:#3689e6;stop-opacity:1" id="stop27422-3-2" offset="1"/></linearGradient><linearGradient id="linearGradient4011-0-8-3"><stop style="stop-color:#fff;stop-opacity:1" id="stop4013-2-3-6" offset="0"/><stop style="stop-color:#fff;stop-opacity:.23529412" id="stop4015-7-1-68" offset=".508"/><stop style="stop-color:#fff;stop-opacity:.15686275" id="stop4017-13-5-6" offset=".835"/><stop style="stop-color:#fff;stop-opacity:.39215687" id="stop4019-92-5-3" offset="1"/></linearGradient><linearGradient id="linearGradient12398" x1="71.204" x2="71.204" y1="6.238" y2="44.341" gradientTransform="matrix(0.5135135,0,0,0.5135135,-24.83614,-1.0212799)" gradientUnits="userSpaceOnUse" xlink:href="#linearGradient4011-0-8-3"/></defs><metadata id="metadata7"/><path style="opacity:.98999999;color:#000;fill:url(#linearGradient11527-6);fill-opacity:1;fill-rule:nonzero;stroke:none;stroke-width:.99999982;marker:none;visibility:visible;display:inline;overflow:visible;enable-background:accumulate" id="path2555-7-8-5-0" d="M 12,1.5000001 C 6.2064599,1.5000001 1.4999999,6.2064601 1.4999999,12 1.4999999,17.79354 6.2064599,22.5 12,22.5 17.79354,22.5 22.50001,17.79354 22.5,12 22.5,6.2064601 17.79354,1.5000001 12,1.5000001 z"/><path style="opacity:.5;color:#000;fill:none;stroke:#005485;stroke-width:.99999988;stroke-linecap:round;stroke-linejoin:round;stroke-miterlimit:4;stroke-opacity:1;stroke-dasharray:none;stroke-dashoffset:0;marker:none;visibility:visible;display:inline;overflow:visible;enable-background:accumulate" id="path2555-7-8-5" d="M 12,1.5000001 C 6.2064599,1.5000001 1.4999999,6.2064601 1.4999999,12 1.4999999,17.79354 6.2064599,22.5 12,22.5 17.79354,22.5 22.50001,17.79354 22.5,12 22.5,6.2064601 17.79354,1.5000001 12,1.5000001 z"/><path style="color:#000;fill:#2f78c7;fill-opacity:.99215686;fill-rule:nonzero;stroke:none;stroke-width:.84323651;marker:none;visibility:visible;display:inline;overflow:visible;enable-background:accumulate" id="path2922-6-6-0-9-4" d="m 15.98656,7.6245301 2.01342,1.81209 -6.76511,8.9395899 -5.2348901,-4.51006 1.73154,-2.29531 3.0604001,2.65772 5.19464,-6.6040299 z"/><path style="color:#000;fill:#fff;fill-opacity:1;fill-rule:nonzero;stroke:none;stroke-width:.84323651;marker:none;visibility:visible;display:inline;overflow:visible;enable-background:accumulate" id="path2922-6-6-0-9" d="m 15.98656,6.6241701 2.01342,1.81209 -6.76511,8.9395899 -5.2348901,-4.51006 1.73154,-2.29531 3.0604001,2.65772 5.19464,-6.6040299 z"/><path style="opacity:.5;color:#000;fill:none;stroke:url(#linearGradient12398);stroke-width:.99999988;stroke-linecap:round;stroke-linejoin:round;stroke-miterlimit:4;stroke-opacity:1;stroke-dasharray:none;stroke-dashoffset:0;marker:none;visibility:visible;display:inline;overflow:visible;enable-background:accumulate" id="path8655-6-0-9-5" d="m 21.49999,11.99966 c 0,5.24688 -4.25361,9.50034 -9.49988,9.50034 -5.2467501,0 -9.5001101,-4.25351 -9.5001101,-9.50034 0,-5.2466299 4.25336,-9.4996599 9.5001101,-9.4996599 5.24627,0 9.49988,4.25303 9.49988,9.4996599 l 0,0 z"/></svg>