<svg xmlns="http://www.w3.org/2000/svg" xmlns:svg="http://www.w3.org/2000/svg" id="svg7384" width="16" height="16" version="1.1"><metadata id="metadata90"/><title id="title9167">elementary Symbolic Icon Theme</title><g style="display:inline" id="layer9" label="status" transform="translate(-393.0002,443)"><path style="fill:#bebebe;fill-opacity:1;stroke:none" id="path6273" d="m 394.0002,-433.49658 c 9.7e-4,0.79399 0.0333,0.78072 1.03125,0.53125 l 4.96875,-1.625 0,4.5 -1.78125,1.21875 c -0.20883,0.13926 -0.21873,0.1227 -0.21875,0.34375 l 0,0.21875 c 0,0.42773 0.4375,0.28125 0.4375,0.28125 l 2.5625,-0.28125 2.5625,0.28125 c 0,0 0.43749,0.13986 0.4375,-0.25 l 0,-0.25 c 0,-0.21159 -0.009,-0.20422 -0.21875,-0.34375 l -1.78125,-1.21875 0,-4.5 4.9375,1.625 c 1.04691,0.26171 1.06251,0.2647 1.0625,-0.53125 0,-0.43199 -0.0117,-0.43388 -0.5,-0.71875 l -5.5,-3.6875 0,-3.09375 c 0,-0.554 -0.446,-1 -1,-1 -0.554,0 -1,0.446 -1,1 l 0,3.09375 -5.5,3.6875 c -0.45685,0.2665 -0.49822,0.28331 -0.5,0.65625 l 0,0.0625 z"/></g></svg>