<svg xmlns="http://www.w3.org/2000/svg" xmlns:svg="http://www.w3.org/2000/svg" id="svg7384" width="16" height="16.072" version="1.1"><metadata id="metadata90"/><title id="title9167">elementary Symbolic Icon Theme</title><g style="display:inline" id="layer9" transform="translate(-473.0004,402)"><path style="font-size:medium;font-style:normal;font-variant:normal;font-weight:400;font-stretch:normal;text-indent:0;text-align:start;text-decoration:none;line-height:normal;letter-spacing:normal;word-spacing:normal;text-transform:none;direction:ltr;block-progression:tb;writing-mode:lr-tb;text-anchor:start;baseline-shift:baseline;color:#000;fill:#bebebe;fill-opacity:1;stroke:none;stroke-width:1;marker:none;visibility:visible;display:inline;overflow:visible;enable-background:accumulate;font-family:Sans;-inkscape-font-specification:Sans" id="path59045" d="M 480.40625,-396 A 0.50005,0.50005 0 0 0 480,-395.5 l 0,2.5 -1.5,0 a 0.50005,0.50005 0 1 0 0,1 l 2,0 a 0.50005,0.50005 0 0 0 0.5,-0.5 l 0,-3 a 0.50005,0.50005 0 0 0 -0.59375,-0.5 z"/><path style="font-size:medium;font-style:normal;font-variant:normal;font-weight:400;font-stretch:normal;text-indent:0;text-align:start;text-decoration:none;line-height:normal;letter-spacing:normal;word-spacing:normal;text-transform:none;direction:ltr;block-progression:tb;writing-mode:lr-tb;text-anchor:start;baseline-shift:baseline;color:#000;fill:#bebebe;fill-opacity:1;stroke:none;stroke-width:2;marker:none;visibility:visible;display:inline;overflow:visible;enable-background:accumulate;font-family:Sans;-inkscape-font-specification:Sans" id="path59049" d="m 480.47488,-398.93748 c -3.5601,0 -6.44332,2.91421 -6.44332,6.4743 0,3.56009 2.88322,6.4743 6.44332,6.4743 3.56009,0 6.4743,-2.91421 6.4743,-6.4743 0,-3.56009 -2.91421,-6.4743 -6.4743,-6.4743 z m 0,1.98256 c 2.48864,0 4.49174,2.0031 4.49174,4.49174 0,2.48864 -2.0031,4.49174 -4.49174,4.49174 -2.48864,0 -4.46076,-2.0031 -4.46076,-4.49174 0,-2.48864 1.97212,-4.49174 4.46076,-4.49174 z"/><path style="color:#000;fill:#bebebe;fill-opacity:1;stroke:none;stroke-width:2;marker:none;visibility:visible;display:inline;overflow:visible;enable-background:accumulate" id="path59561" d="m 477.28165,-401 c -1.80617,0 -3.28125,1.47507 -3.28125,3.28125 0,0.40491 0.0842,0.76711 0.21875,1.125 1.20599,-1.82226 3.18396,-3.10226 5.46875,-3.34375 -0.59771,-0.64999 -1.4536,-1.0625 -2.40625,-1.0625 z m 6.4375,0 c -0.95265,0 -1.80854,0.41251 -2.40625,1.0625 2.28729,0.25122 4.27051,1.54101 5.46875,3.375 0.14145,-0.3658 0.21875,-0.74054 0.21875,-1.15625 0,-1.80618 -1.47508,-3.28125 -3.28125,-3.28125 z"/><path style="font-size:medium;font-style:normal;font-variant:normal;font-weight:400;font-stretch:normal;text-indent:0;text-align:start;text-decoration:none;line-height:normal;letter-spacing:normal;word-spacing:normal;text-transform:none;direction:ltr;block-progression:tb;writing-mode:lr-tb;text-anchor:start;baseline-shift:baseline;color:#000;fill:#bebebe;fill-opacity:1;fill-rule:nonzero;stroke:none;stroke-width:2;marker:none;visibility:visible;display:inline;overflow:visible;enable-background:accumulate;font-family:Sans;-inkscape-font-specification:Sans" id="path59570" d="m 476.90625,-389.09375 a 1.0001,1.0001 0 0 0 -0.46875,0.28125 l -1.125,1.09375 a 1.0001,1.0001 0 1 0 1.375,1.4375 l 1.125,-1.09375 a 1.0001,1.0001 0 0 0 -0.90625,-1.71875 z"/><path style="font-size:medium;font-style:normal;font-variant:normal;font-weight:400;font-stretch:normal;text-indent:0;text-align:start;text-decoration:none;line-height:normal;letter-spacing:normal;word-spacing:normal;text-transform:none;direction:ltr;block-progression:tb;writing-mode:lr-tb;text-anchor:start;baseline-shift:baseline;color:#000;fill:#bebebe;fill-opacity:1;fill-rule:nonzero;stroke:none;stroke-width:2;marker:none;visibility:visible;display:inline;overflow:visible;enable-background:accumulate;font-family:Sans;-inkscape-font-specification:Sans" id="path59572" d="m 483.9375,-389 a 1.0001,1.0001 0 0 0 -0.59375,1.65625 l 0.90625,1 a 1.0001,1.0001 0 1 0 1.5,-1.3125 l -0.90625,-1 A 1.0001,1.0001 0 0 0 483.9375,-389 z"/></g></svg>