<svg xmlns="http://www.w3.org/2000/svg" xmlns:svg="http://www.w3.org/2000/svg" id="svg7384" width="16" height="16" version="1.1"><metadata id="metadata90"/><title id="title9167">elementary Symbolic Icon Theme</title><g style="display:inline" id="layer9" transform="translate(-353.0002,562)"><path style="color:#bebebe;fill:#bebebe;fill-opacity:1;fill-rule:nonzero;stroke:none;stroke-width:1;marker:none;visibility:visible;display:inline;overflow:visible;enable-background:accumulate" id="rect2998-2" d="m 354.0002,-559 c -0.554,0 -1,0.446 -1,1 l 0,1 1,0 0,-0.5 c 0,-0.277 0.223,-0.5 0.5,-0.5 l 0.5,0 0,-1 -1,0 z m 3,0 0,1 2,0 0,-1 -2,0 z m 4,0 0,1 2,0 0,-1 -2,0 z m 4,0 0,1 0.5,0 c 0.277,0 0.5,0.223 0.5,0.5 l 0,0.5 1,0 0,-1 c 0,-0.554 -0.446,-1 -1,-1 l -1,0 z m -8,2 0,1 2,2 -2,2 0,1 1,0 2,-2 2,2 1,0 0,-1 -2,-2 2,-2 0,-1 -1,0 -2,2 -2,-2 -1,0 z m 10,1 0,1 0.5,0 c 0.277,0 0.5,0.223 0.5,0.5 l 0,1 c 0,0.277 -0.223,0.5 -0.5,0.5 l -0.5,0 0,1 1,0 c 0.554,0 1,-0.446 1,-1 l 0,-2 c 0,-0.554 -0.446,-1 -1,-1 l -1,0 z m 0,3 0,-2 -1,0 0,2 1,0 z m -14,-2 0,2 1,0 0,-2 -1,0 z m 0,4 0,1 c 0,0.554 0.446,1 1,1 l 1,0 0,-1 -0.5,0 c -0.277,0 -0.5,-0.223 -0.5,-0.5 l 0,-0.5 -1,0 z m 13,0 0,0.5 c 0,0.277 -0.223,0.5 -0.5,0.5 l -0.5,0 0,1 1,0 c 0.554,0 1,-0.446 1,-1 l 0,-1 -1,0 z m -9,1 0,1 2,0 0,-1 -2,0 z m 4,0 0,1 2,0 0,-1 -2,0 z"/></g></svg>