<svg xmlns="http://www.w3.org/2000/svg" xmlns:svg="http://www.w3.org/2000/svg" id="svg7384" width="16" height="16" version="1.1"><metadata id="metadata90"/><title id="title9167">elementary Symbolic Icon Theme</title><g style="display:inline" id="layer9" transform="translate(-313.0002,562)"><path style="color:#bebebe;fill:#bebebe;fill-opacity:1;fill-rule:nonzero;stroke:none;stroke-width:1;marker:none;visibility:visible;display:inline;overflow:visible;enable-background:accumulate" id="path13313" d="m 314.0002,-559 c -0.554,0 -1,0.446 -1,1 l 0,8 c 0,0.554 0.446,1 1,1 l 12,0 c 0.554,0 1,-0.446 1,-1 l 0,-2 1,0 c 0.554,0 1,-0.446 1,-1 l 0,-2 c 0,-0.554 -0.446,-1 -1,-1 l -1,0 0,-2 c 0,-0.554 -0.446,-1 -1,-1 z m 0.5,1 11,0 c 0.277,0 0.5,0.223 0.5,0.5 l 0,7 c 0,0.277 -0.223,0.5 -0.5,0.5 l -11,0 c -0.277,0 -0.5,-0.223 -0.5,-0.5 l 0,-7 c 0,-0.277 0.223,-0.5 0.5,-0.5 z m 0.75,1 c -0.1385,0 -0.25,0.1115 -0.25,0.25 l 0,5.5 c 0,0.1385 0.1115,0.25 0.25,0.25 l 4.5,0 c 0.1385,0 0.25,-0.1115 0.25,-0.25 l 0,-5.5 c 0,-0.1385 -0.1115,-0.25 -0.25,-0.25 z m 11.75,2 0.5,0 c 0.277,0 0.5,0.223 0.5,0.5 l 0,1 c 0,0.277 -0.223,0.5 -0.5,0.5 l -0.5,0 z"/></g></svg>