<svg xmlns="http://www.w3.org/2000/svg" xmlns:svg="http://www.w3.org/2000/svg" id="svg7384" width="16" height="16" version="1.1"><metadata id="metadata90"/><title id="title9167">elementary Symbolic Icon Theme</title><g style="display:inline" id="layer9" label="status" transform="translate(-453.0004,542)"><path style="color:#bebebe;fill:#bebebe;fill-opacity:1;fill-rule:nonzero;stroke:none;stroke-width:1;marker:none;visibility:visible;display:inline;overflow:visible;enable-background:accumulate" id="rect3206-0" d="m 454.0004,-539 c -0.554,0 -1,0.446 -1,1 l 0,8 c 0,0.554 0.446,1 1,1 l 12,0 c 0.554,0 1,-0.446 1,-1 l 0,-2 1,0 c 0.554,0 1,-0.446 1,-1 l 0,-2 c 0,-0.554 -0.446,-1 -1,-1 l -1,0 0,-2 c 0,-0.554 -0.446,-1 -1,-1 z m 0.5,1 11,0 c 0.277,0 0.5,0.223 0.5,0.5 l 0,7 c 0,0.277 -0.223,0.5 -0.5,0.5 l -11,0 c -0.277,0 -0.5,-0.223 -0.5,-0.5 l 0,-7 c 0,-0.277 0.223,-0.5 0.5,-0.5 z m 12.5,3 0.5,0 c 0.277,0 0.5,0.223 0.5,0.5 l 0,1 c 0,0.277 -0.223,0.5 -0.5,0.5 l -0.5,0 z"/><path style="opacity:.3;color:#bebebe;fill:#bebebe;fill-opacity:1;fill-rule:nonzero;stroke:none;stroke-width:1;marker:none;visibility:visible;display:inline;overflow:visible;enable-background:accumulate" id="rect3002" d="m 455.2504,-537 c -0.1385,0 -0.25,0.1115 -0.25,0.25 l 0,0.75 4,3 0.0625,-3 0.9375,0.78125 0,-1.53125 c 0,-0.1385 -0.1115,-0.25 -0.25,-0.25 z m -0.25,2 0,3.75 c 0,0.1385 0.1115,0.25 0.25,0.25 l 4.5,0 c 0.0104,0 0.0212,10e-4 0.0312,0 z"/><path style="color:#bebebe;fill:#bebebe;fill-opacity:1;fill-rule:nonzero;stroke:none;stroke-width:1;marker:none;visibility:visible;display:inline;overflow:visible;enable-background:accumulate" id="path3172-3" d="m 465.0004,-532 -5.9525,-5 -0.0475,3 -4,-2 6,5 0,-3 z"/></g></svg>