<svg xmlns="http://www.w3.org/2000/svg" xmlns:svg="http://www.w3.org/2000/svg" id="svg7384" width="16" height="16" version="1.1"><metadata id="metadata90"/><title id="title9167">elementary Symbolic Icon Theme</title><g style="display:inline" id="layer9" label="status" transform="translate(-633.00037,422)"><path style="font-size:medium;font-style:normal;font-variant:normal;font-weight:400;font-stretch:normal;text-indent:0;text-align:start;text-decoration:none;line-height:normal;letter-spacing:normal;word-spacing:normal;text-transform:none;direction:ltr;block-progression:tb;writing-mode:lr-tb;text-anchor:start;baseline-shift:baseline;color:#000;fill:#bebebe;fill-opacity:1;stroke:none;stroke-width:.99999988;marker:none;visibility:visible;display:inline;overflow:visible;enable-background:accumulate;font-family:Sans;-inkscape-font-specification:Sans" id="rect6132-8-2-8-0-0-0-10-0-6-0-6-2-0-5-7-3-3-7-8-4-0-2-5-3-6-7-8-6" d="m 636.5004,-420.99998 c -1.37635,0 -2.5,1.12365 -2.5,2.5 l 0,9 c 0,1.37635 1.12365,2.5 2.5,2.5 l 9,0 c 1.37635,0 2.5,-1.12365 2.5,-2.5 l 0,-9 c 0,-1.37635 -1.12365,-2.5 -2.5,-2.5 l -9,0 z m 0,1 9,0 c 0.83965,0 1.5,0.66035 1.5,1.5 l 0,0.9375 0,8.0625 c 0,0.83965 -0.66035,1.5 -1.5,1.5 l -9,0 c -0.83965,0 -1.5,-0.66035 -1.5,-1.5 l 0,-3.625 0,-5.375 c 0,-0.83965 0.66035,-1.5 1.5,-1.5 z m -1.5,6.875 5.25,4.5 6.75,-8.9375 -2,-1.8125 -5.21875,6.59375 -3.0625,-2.65625 -1.71875,2.3125 z"/></g></svg>