<svg xmlns="http://www.w3.org/2000/svg" xmlns:svg="http://www.w3.org/2000/svg" id="svg7384" width="16" height="16" version="1.1"><metadata id="metadata90"/><title id="title9167">elementary Symbolic Icon Theme</title><g style="display:inline" id="layer9" transform="translate(-313.00021,462)"><path style="color:#000;fill:#bebebe;fill-opacity:1;fill-rule:nonzero;stroke:none;stroke-width:1;marker:none;visibility:visible;display:inline;overflow:visible;enable-background:new" id="rect2988-8" d="m 320.7502,-460 c -0.1385,0 -0.25,0.1115 -0.25,0.25 l 0,1.5 c 0,0.1385 0.1115,0.25 0.25,0.25 l 0.5,0 c 0.1385,0 0.25,-0.1115 0.25,-0.25 l 0,-1.5 c 0,-0.1385 -0.1115,-0.25 -0.25,-0.25 l -0.5,0 z m -3.625,1.5 c -0.0639,0 -0.13853,0.0448 -0.1875,0.0937 l -0.34375,0.34375 c -0.0979,0.0979 -0.0979,0.24582 0,0.34375 l 1.0625,1.0625 c 0.0979,0.0979 0.24582,0.0979 0.34375,0 L 318.34395,-457 c 0.0979,-0.0979 0.0979,-0.24582 0,-0.34375 l -1.0625,-1.0625 c -0.049,-0.049 -0.0924,-0.0937 -0.15625,-0.0937 z m 7.75,0 c -0.0639,0 -0.10728,0.0448 -0.15625,0.0937 l -1.0625,1.0625 c -0.0979,0.0979 -0.0979,0.24582 0,0.34375 l 0.34375,0.34375 c 0.0979,0.0979 0.24582,0.0979 0.34375,0 l 1.0625,-1.0625 c 0.0979,-0.0979 0.0979,-0.24582 0,-0.34375 l -0.34375,-0.34375 c -0.049,-0.049 -0.1236,-0.0937 -0.1875,-0.0937 z m -3.875,1.5 c -1.65685,0 -3,1.34315 -3,3 0,1.65685 1.34315,3 3,3 1.65685,0 3,-1.34315 3,-3 0,-1.65685 -1.34315,-3 -3,-3 z m 0,1 c 1.10457,0 2,0.89543 2,2 0,1.10457 -0.89543,2 -2,2 -1.10457,0 -2,-0.89543 -2,-2 0,-1.10457 0.89543,-2 2,-2 z m -5.75,1.5 c -0.1385,0 -0.25,0.1115 -0.25,0.25 l 0,0.5 c 0,0.1385 0.1115,0.25 0.25,0.25 l 1.5,0 c 0.1385,0 0.25,-0.1115 0.25,-0.25 l 0,-0.5 c 0,-0.1385 -0.1115,-0.25 -0.25,-0.25 l -1.5,0 z m 10,0 c -0.1385,0 -0.25,0.1115 -0.25,0.25 l 0,0.5 c 0,0.1385 0.1115,0.25 0.25,0.25 l 1.5,0 c 0.1385,0 0.25,-0.1115 0.25,-0.25 l 0,-0.5 c 0,-0.1385 -0.1115,-0.25 -0.25,-0.25 l -1.5,0 z m -7.4375,3.09375 c -0.0639,0 -0.10728,0.0135 -0.15625,0.0625 l -1.0625,1.0625 c -0.0979,0.0979 -0.0979,0.24582 0,0.34375 l 0.34375,0.34375 c 0.0979,0.0979 0.24582,0.0979 0.34375,0 l 1.0625,-1.0625 c 0.0979,-0.0979 0.0979,-0.24582 0,-0.34375 l -0.34375,-0.34375 c -0.049,-0.049 -0.1236,-0.0625 -0.1875,-0.0625 z m 6.375,0 c -0.0639,0 -0.13853,0.0135 -0.1875,0.0625 L 323.65645,-451 c -0.0979,0.0979 -0.0979,0.24582 0,0.34375 l 1.0625,1.0625 c 0.0979,0.0979 0.24582,0.0979 0.34375,0 l 0.34375,-0.34375 c 0.0979,-0.0979 0.0979,-0.24582 0,-0.34375 l -1.0625,-1.0625 c -0.049,-0.049 -0.0923,-0.0625 -0.15625,-0.0625 z M 320.7502,-450 c -0.1385,0 -0.25,0.1115 -0.25,0.25 l 0,1.5 c 0,0.1385 0.1115,0.25 0.25,0.25 l 0.5,0 c 0.1385,0 0.25,-0.1115 0.25,-0.25 l 0,-1.5 c 0,-0.1385 -0.1115,-0.25 -0.25,-0.25 l -0.5,0 z"/></g></svg>