<svg xmlns="http://www.w3.org/2000/svg" xmlns:svg="http://www.w3.org/2000/svg" id="svg7384" width="16" height="16" version="1.1"><metadata id="metadata90"/><title id="title9167">elementary Symbolic Icon Theme</title><g style="display:inline" id="layer9" transform="translate(-433.0006,462)"><path style="fill:#bebebe;fill-opacity:1;stroke:none;display:inline" id="path5494" d="m 29,209 a 1,1 0 1 1 -2,0 1,1 0 1 1 2,0 z" transform="matrix(2.000025,0,0,2.000025,379.99972,-872.0052)"/><path style="fill:#bebebe;fill-opacity:1;stroke:none;display:inline" id="path5496" d="m 29,209 a 1,1 0 1 1 -2,0 1,1 0 1 1 2,0 z" transform="matrix(2,0,0,2,385.00045,-872)"/><path style="fill:#bebebe;fill-opacity:1;stroke:none;display:inline" id="path5498" d="m 29,209 a 1,1 0 1 1 -2,0 1,1 0 1 1 2,0 z" transform="matrix(2,0,0,2,390.0004,-872)"/></g></svg>