<svg xmlns="http://www.w3.org/2000/svg" xmlns:svg="http://www.w3.org/2000/svg" id="svg7384" width="16" height="16" version="1.1"><metadata id="metadata90"/><title id="title9167">elementary Symbolic Icon Theme</title><g style="display:inline" id="layer9" transform="translate(-333.0004,462)"><rect style="color:#000;fill:#bebebe;fill-opacity:1;fill-rule:nonzero;stroke:none;stroke-width:1;marker:none;visibility:visible;display:inline;overflow:visible;enable-background:new" id="rect2986-0" width="6" height="1" x="338" y="-452" rx=".25" ry=".25"/><rect style="color:#000;fill:#bebebe;fill-opacity:1;fill-rule:nonzero;stroke:none;stroke-width:1;marker:none;visibility:visible;display:inline;overflow:visible;enable-background:new" id="rect2988-8-5" width="1" height="2" x="340.5" y="-458" rx=".25" ry=".25"/><rect style="color:#000;fill:#bebebe;fill-opacity:1;fill-rule:nonzero;stroke:none;stroke-width:1;marker:none;visibility:visible;display:inline;overflow:visible;enable-background:new" id="rect2988-8-3" width="1" height="2" x="-348.282" y="-452.796" rx=".25" ry=".25" transform="matrix(0.25881905,0.96592583,-0.96592583,0.25881905,0,0)"/><rect style="color:#000;fill:#bebebe;fill-opacity:1;fill-rule:nonzero;stroke:none;stroke-width:1;marker:none;visibility:visible;display:inline;overflow:visible;enable-background:new" id="rect2988-8-1" width="1" height="2" x="523.797" y="205.966" rx=".25" ry=".25" transform="matrix(0.25881905,-0.96592583,0.96592583,0.25881905,0,0)"/><rect style="color:#000;fill:#bebebe;fill-opacity:1;fill-rule:nonzero;stroke:none;stroke-width:1;marker:none;visibility:visible;display:inline;overflow:visible;enable-background:new" id="rect2988-8-6" width="1" height="2" x="543.539" y="-161.77" rx=".25" ry=".25" transform="matrix(0.79851249,-0.60197824,0.60197824,0.79851249,0,0)"/><rect style="color:#000;fill:#bebebe;fill-opacity:1;fill-rule:nonzero;stroke:none;stroke-width:1;marker:none;visibility:visible;display:inline;overflow:visible;enable-background:new" id="rect2988-8-9" width="1" height="2" x="9.357" y="-572.233" rx=".25" ry=".25" transform="matrix(0.80831027,0.58875675,-0.58875675,0.80831027,0,0)"/></g></svg>