<svg xmlns="http://www.w3.org/2000/svg" xmlns:svg="http://www.w3.org/2000/svg" id="svg7384" width="16" height="16" version="1.1"><metadata id="metadata90"/><title id="title9167">elementary Symbolic Icon Theme</title><g style="display:inline" id="layer9" label="status" transform="translate(-393.00015,482)"><path style="color:#bebebe;fill:#bebebe;fill-opacity:1;fill-rule:nonzero;stroke:none;stroke-width:1;marker:none;visibility:visible;display:inline;overflow:visible;enable-background:accumulate" id="path7403" d="m 398.00015,-480 0,2 c 2.98103,0 6.02422,6 8,6 l 2,0 0,2 -2,0 c -2.99366,0 -5.99591,-6 -8,-6 l 0,2 -4,-3 z m 10,2 0,2 -2,0 c -0.58158,0 -1.26226,0.54756 -2,1.28125 -0.12045,-0.13122 -0.25181,-0.24972 -0.375,-0.375 -0.30725,-0.32527 -0.62752,-0.66346 -0.9375,-1 1.07195,-1.05469 2.18988,-1.90625 3.3125,-1.90625 l 2,0 z m -10,4 0,2 c 0.59135,0 1.29196,-0.54474 2.03125,-1.28125 0.42399,0.45527 0.85717,0.91598 1.28125,1.375 -1.0758,1.05469 -2.19461,1.90625 -3.3125,1.90625 l 0,2 -4,-3 4,-3 z"/></g></svg>