<svg xmlns="http://www.w3.org/2000/svg" xmlns:svg="http://www.w3.org/2000/svg" id="svg7384" width="16" height="16" version="1.1"><metadata id="metadata90"/><title id="title9167">elementary Symbolic Icon Theme</title><g id="layer9" label="status" transform="translate(-273.00015,482)" style="display:inline"><path id="rect3815" d="m 279.0002,-481 0,2 -1,0 c -2.77,0 -5,2.23 -5,5 0,2.77 2.23,5 5,5 l 0,-2 c -1.662,0 -3,-1.338 -3,-3 0,-1.662 1.338,-3 3,-3 l 1,0 0,2 4,-3 -4,-3 z m 5,2 0,2 c 1.662,0 3,1.338 3,3 0,1.662 -1.338,3 -3,3 l -1,0 0,-2 -4,3 4,3 0,-2 1,0 c 2.77,0 5,-2.23 5,-5 0,-2.77 -2.23,-5 -5,-5 z" style="color:#bebebe;fill:#bebebe;fill-opacity:1;fill-rule:nonzero;stroke:none;stroke-width:1;marker:none;visibility:visible;display:inline;overflow:visible;enable-background:accumulate;opacity:.35"/></g></svg>