<svg xmlns="http://www.w3.org/2000/svg" xmlns:svg="http://www.w3.org/2000/svg" id="svg7384" width="16" height="16" version="1.1"><metadata id="metadata90"/><title id="title9167">elementary Symbolic Icon Theme</title><g id="layer9" label="status" transform="translate(-273.0004,582)" style="display:inline"><path id="path8264" d="m 281.0004,-579 c -2.85342,0 -5.46832,1.11106 -7.5,2.9375 l 1.28125,1.4375 c 1.81172,-1.58845 3.73233,-2.375 6.21875,-2.375 2.48642,0 4.32027,0.73946 6.21875,2.40625 l 1.28125,-1.46875 c -2.03168,-1.82644 -4.64658,-2.9375 -7.5,-2.9375 z m 0,4 c -1.84789,0 -3.51419,0.75032 -4.875,1.875 l 1.34375,1.40625 c 0.90637,-0.64917 2.29864,-1.28125 3.46875,-1.28125 1.19842,0 2.67452,0.63427 3.59375,1.3125 l 1.375,-1.46875 C 284.54584,-574.28093 282.84829,-575 281.0004,-575 z m 0,4 c -0.88378,0 -1.7648,0.47731 -2.125,0.875 l 2.125,2.28125 2.125,-2.28125 c -0.3602,-0.41825 -1.24122,-0.875 -2.125,-0.875 z" style="color:#000;fill:#bebebe;fill-opacity:1;fill-rule:nonzero;stroke:none;stroke-width:1;marker:none;visibility:visible;display:inline;overflow:visible;enable-background:accumulate"/><path id="path8269" d="m 286.5002,-572.40316 c -0.92333,0 -1.66667,0.72897 -1.66667,1.6258 l 0,0.77539 c -0.46166,0 -0.83333,0.35698 -0.83333,0.80039 l 0,2.40119 c 0,0.44341 0.37167,0.80039 0.83333,0.80039 l 3.33334,0 c 0.46166,0 0.83333,-0.35698 0.83333,-0.80039 l 0,-2.40119 c 0,-0.44341 -0.37167,-0.80039 -0.83333,-0.80039 l 0,-0.77539 c 0,-0.89683 -0.74334,-1.6258 -1.66667,-1.6258 z m 0,0.80039 c 0.46167,0 0.83333,0.35407 0.83333,0.8004 l 0,0.80039 -1.66666,0 0,-0.80039 c 0,-0.44633 0.37166,-0.8004 0.83333,-0.8004 z" style="color:#000;fill:#bebebe;fill-opacity:1;fill-rule:nonzero;stroke:none;stroke-width:1;marker:none;visibility:visible;display:inline;overflow:visible;enable-background:accumulate"/></g></svg>