<svg xmlns="http://www.w3.org/2000/svg" xmlns:svg="http://www.w3.org/2000/svg" id="svg7384" width="16" height="16" version="1.1"><metadata id="metadata90"/><title id="title9167">elementary Symbolic Icon Theme</title><g style="display:inline" id="layer9" label="status" transform="translate(-473.0004,412)"><path style="color:#000;fill:#bebebe;fill-opacity:1;fill-rule:nonzero;stroke:none;stroke-width:1;marker:none;visibility:visible;display:inline;overflow:visible;enable-background:accumulate" id="path7436" d="m 478.0002,-409 0,4 2,0 0,1 -6,0 0,1 3,0 0,1 -2,0 0,4 5,0 0,-4 -2,0 0,-1 5,0 0,1 -2,0 0,4 2,0 0,-1 -1,0 0,-2 1.875,0 c 0.0305,-0.35511 0.12087,-0.69917 0.28125,-1 l -0.15625,0 0,-1 1.09375,0 c 0.41184,-0.25882 0.88851,-0.40625 1.40625,-0.40625 0.17069,0 0.33762,0.0314 0.5,0.0625 l 0,-0.65625 -6,0 0,-1 2,0 0,-4 -5,0 z m 1,1 3,0 0,2 -3,0 0,-2 z m -3,7 3,0 0,2 -3,0 0,-2 z m 9,2 0,1 1,0 0,-1 -0.15625,0 -0.1875,0 -0.65625,0 z"/><path style="color:#000;fill:#bebebe;fill-opacity:1;fill-rule:nonzero;stroke:none;stroke-width:1;marker:none;visibility:visible;display:inline;overflow:visible;enable-background:accumulate" id="rect2822-06" d="m 486.5004,-402.40315 c -0.92333,0 -1.66667,0.72897 -1.66667,1.6258 l 0,0.77538 c -0.46166,0 -0.83333,0.35698 -0.83333,0.80039 l 0,2.40119 c 0,0.44341 0.37167,0.80039 0.83333,0.80039 l 3.33334,0 c 0.46166,0 0.83333,-0.35698 0.83333,-0.80039 l 0,-2.40119 c 0,-0.44341 -0.37167,-0.80039 -0.83333,-0.80039 l 0,-0.77538 c 0,-0.89683 -0.74334,-1.6258 -1.66667,-1.6258 z m 0,0.80039 c 0.46167,0 0.83333,0.35407 0.83333,0.8004 l 0,0.80039 -1.66666,0 0,-0.80039 c 0,-0.44633 0.37166,-0.8004 0.83333,-0.8004 z"/></g></svg>