<svg xmlns="http://www.w3.org/2000/svg" xmlns:svg="http://www.w3.org/2000/svg" id="svg7384" width="16" height="16" version="1.1"><metadata id="metadata90"/><title id="title9167">elementary Symbolic Icon Theme</title><g style="display:inline" id="layer9" label="status" transform="translate(-373.0004,502)"><path style="opacity:.35;fill:#bebebe;fill-opacity:1;stroke:none" id="rect13687" d="m 386.5002,-499 c -0.277,0 -0.5,0.223 -0.5,0.5 l 0,6.5 0,4.5 c 0,0.277 0.223,0.5 0.5,0.5 l 1,0 c 0.277,0 0.5,-0.223 0.5,-0.5 l 0,-11 c 0,-0.277 -0.223,-0.5 -0.5,-0.5 l -1,0 z m -4,3 c -0.277,0 -0.5,0.223 -0.5,0.5 l 0,1.84375 c 0.18222,0.13143 0.35733,0.28794 0.5,0.46875 0.3683,-0.46676 0.86845,-0.8125 1.5,-0.8125 l 0,-1.5 c 0,-0.277 -0.223,-0.5 -0.5,-0.5 l -1,0 z m -3,5.1875 c -0.3683,0.46676 -0.86845,0.8125 -1.5,0.8125 l 0,2.5 c 0,0.277 0.223,0.5 0.5,0.5 l 1,0 c 0.277,0 0.5,-0.223 0.5,-0.5 l 0,-2.84375 c -0.18222,-0.13143 -0.35733,-0.28794 -0.5,-0.46875 z m 3,0 c -0.14267,0.18081 -0.31778,0.33732 -0.5,0.46875 l 0,2.84375 c 0,0.277 0.223,0.5 0.5,0.5 l 1,0 c 0.277,0 0.5,-0.223 0.5,-0.5 l 0,-2.5 c -0.63155,0 -1.1317,-0.34574 -1.5,-0.8125 z m -8,0.8125 c -0.277,0 -0.5,0.223 -0.5,0.5 l 0,2 c 0,0.277 0.223,0.5 0.5,0.5 l 1,0 c 0.277,0 0.5,-0.223 0.5,-0.5 l 0,-2 c 0,-0.277 -0.223,-0.5 -0.5,-0.5 l -1,0 z"/><path style="fill:#bebebe;fill-opacity:1;stroke:none" id="path13701" d="m 378.0002,-493 c -0.55228,0 -1,0.44772 -1,1 0,0.55228 0.44772,1 1,1 0.55228,0 1,-0.44772 1,-1 0,-0.55228 -0.44772,-1 -1,-1 z m 3,0 c -0.55228,0 -1,0.44772 -1,1 0,0.55228 0.44772,1 1,1 0.55228,0 1,-0.44772 1,-1 0,-0.55228 -0.44772,-1 -1,-1 z m 3,0 c -0.55228,0 -1,0.44772 -1,1 0,0.55228 0.44772,1 1,1 0.55228,0 1,-0.44772 1,-1 0,-0.55228 -0.44772,-1 -1,-1 z"/></g></svg>