<svg xmlns="http://www.w3.org/2000/svg" xmlns:svg="http://www.w3.org/2000/svg" id="svg3359" width="16" height="16" version="1.1" viewBox="0 0 16 16"><metadata id="metadata3364"/><g id="layer1" transform="translate(0,-1036.3621)"><path id="path13596" d="m 11,1047.3622 1.375,0 1.125,1.0938 1.09375,-1.0938 1.40625,0 0,1.4688 -1.09375,1.0625 1.09375,1.0625 0,1.4062 -1.4375,0 -1.0625,-1.0625 -1.0625,1.0625 -1.4375,0 0,-1.4062 1.0625,-1.0625 -1.0625,-1.0625 0,-1.4688 z" style="color:#bebebe;display:inline;overflow:visible;visibility:visible;fill:#bebebe;fill-opacity:1;stroke:none;stroke-width:2;marker:none"/><path id="path13598" d="m 4.9998,1039.3622 0,4 2,0 0,1 -6,0 0,1 3,0 0,1 -2,0 0,4 5,0 0,-4 -2,0 0,-1 5,0 0,1 1,0 0,-1 3,0 0,-1 -6,0 0,-1 2,0 0,-4 -5,0 z m 5,7 -2,0 0,4 2,0 0,-1 -1,0 0,-2 1,0 0,-1 z m -4,-6 3,0 0,2 -3,0 0,-2 z m -3,7 3,0 0,2 -3,0 0,-2 z" style="color:#000;display:inline;overflow:visible;visibility:visible;opacity:.35;fill:#bebebe;fill-opacity:1;fill-rule:nonzero;stroke:none;stroke-width:1;marker:none;enable-background:accumulate"/></g></svg>