<svg xmlns="http://www.w3.org/2000/svg" xmlns:svg="http://www.w3.org/2000/svg" id="svg7384" width="16" height="16" version="1.1"><metadata id="metadata90"/><title id="title9167">elementary Symbolic Icon Theme</title><g style="display:inline" id="layer9" transform="translate(-473.0004,602)"><path style="color:#000;fill:#bebebe;fill-opacity:1;fill-rule:nonzero;stroke:none;stroke-width:1;marker:none;visibility:visible;display:inline;overflow:visible;enable-background:accumulate" id="rect2986" d="m 478.0002,-599 0,4 2,0 0,1 -6,0 0,1 3,0 0,1 -2,0 0,4 5,0 0,-4 -2,0 0,-1 5,0 0,1 -2,0 0,4 5,0 0,-4 -2,0 0,-1 3,0 0,-1 -6,0 0,-1 2,0 0,-4 z m 1,1 3,0 0,2 -3,0 z m -3,7 3,0 0,2 -3,0 z m 6,0 3,0 0,2 -3,0 z"/></g></svg>