<svg xmlns="http://www.w3.org/2000/svg" xmlns:svg="http://www.w3.org/2000/svg" id="svg7384" width="16" height="16.01" version="1.1"><metadata id="metadata90"/><title id="title9167">elementary Symbolic Icon Theme</title><g style="display:inline" id="layer9" label="status" transform="translate(-513.00018,502.00693)"><path style="font-size:medium;font-style:normal;font-variant:normal;font-weight:400;font-stretch:normal;text-indent:0;text-align:start;text-decoration:none;line-height:normal;letter-spacing:normal;word-spacing:normal;text-transform:none;direction:ltr;block-progression:tb;writing-mode:lr-tb;text-anchor:start;baseline-shift:baseline;color:#000;fill:#bebebe;fill-opacity:1;stroke:none;stroke-width:1px;marker:none;visibility:visible;display:inline;overflow:visible;enable-background:accumulate;font-family:Sans;-inkscape-font-specification:Sans" id="path30920" d="m 516.9377,-502 c -0.36035,0.0469 -0.9375,0.25 -0.9375,1 l 0,2 c 0,0 -1,0 -1,1 l 0,3 -1,0 c 0,0 -1,0 -1,1 l 0,5.5 c 0,0.5 0.5,0.5 0.5,0.5 l 0.5,0 c 0,1 1,1 1,1 0,0 0,1 1,1 l 4.25,0 c -0.14912,-0.26687 -0.25,-0.55674 -0.25,-0.875 l 0,-0.125 -4,0 0,-1 4,0 0,-1 -6,0 0,-4.4375 c 0,-0.42187 0.37793,-0.53613 0.5625,-0.5625 0.0615,-0.009 0.0937,0 0.0937,0 l 1.34375,0 4.25,0 c 0.32427,-0.58035 0.93291,-1 1.625,-1 l -4.875,0 0,-6 8,0 0,6 2,0 0,-3 c 0,-1 -1,-1 -1,-1 l 0,-2 c 0,-1 -1,-1 -1.1875,-1 l -7.625,0 c -0.0469,0 -0.12988,-0.0156 -0.25,0 z m 5.0625,13 0,1 1,0 0,-1 -1,0 z m 5,0 0,1 0,1 0.15625,0 c 0.28125,-0.0469 0.84375,-0.25 0.84375,-1 l 0,-1 -1,0 z"/><path style="opacity:.5;fill:#bebebe;fill-opacity:1;stroke:none" id="path30922" d="m 516.0002,-494 0,4 4,0 0,-3.125 c 0,-0.31826 0.10088,-0.60813 0.25,-0.875 l -4.25,0 z m 6,1 0,3 1,0 0,-3 -1,0 z"/><path style="color:#bebebe;fill:#f57900;fill-opacity:1;fill-rule:nonzero;stroke:none;stroke-width:2;marker:none;visibility:visible;display:inline;overflow:visible" id="path10898" d="m 521.8752,-494 c -0.49245,0 -0.875,0.38256 -0.875,0.875 l 0,6.25 c 0,0.49244 0.38255,0.875 0.875,0.875 l 6.25,0 c 0.49245,0 0.875,-0.38256 0.875,-0.875 l 0,-6.25 c 0,-0.49244 -0.38255,-0.875 -0.875,-0.875 l -6.25,0 z m 2.125,1 2,0 0,4 -2,0 0,-4 z m 0,5 2,0 0,1 -2,0 0,-1 z" class="warning"/></g></svg>