<svg xmlns="http://www.w3.org/2000/svg" xmlns:svg="http://www.w3.org/2000/svg" id="svg7384" width="16" height="16" version="1.1"><metadata id="metadata90"/><title id="title9167">elementary Symbolic Icon Theme</title><g style="display:inline" id="layer9" transform="translate(-453.0002,462)"><rect style="color:#000;fill:#bebebe;fill-opacity:1;fill-rule:nonzero;stroke:none;stroke-width:1;marker:none;visibility:visible;display:inline;overflow:visible;enable-background:accumulate" id="rect3003-91" width="1" height="5" x="460.5" y="-462" rx=".5" ry=".5"/><rect style="opacity:.578;color:#000;fill:#bebebe;fill-opacity:1;fill-rule:nonzero;stroke:none;stroke-width:1;marker:none;visibility:visible;display:inline;overflow:visible;enable-background:accumulate" id="rect3003-08-7-0" width="1" height="5" x="453.5" y="453" rx=".5" ry=".5" transform="matrix(0,-1,1,0,0,0)"/><rect style="opacity:.33500001;color:#000;fill:#bebebe;fill-opacity:1;fill-rule:nonzero;stroke:none;stroke-width:1;marker:none;visibility:visible;display:inline;overflow:visible;enable-background:accumulate" id="rect3003-08-9" width="1" height="5" x="-461.5" y="446" rx=".5" ry=".5" transform="scale(-1,-1)"/><rect style="opacity:.18999999;color:#000;fill:#bebebe;fill-opacity:1;fill-rule:nonzero;stroke:none;stroke-width:1;marker:none;visibility:visible;display:inline;overflow:visible;enable-background:accumulate" id="rect3003-76-2" width="1" height="5" x="-454.5" y="-469" rx=".5" ry=".5" transform="matrix(0,1,-1,0,0,0)"/><rect style="opacity:.83300003;color:#000;fill:#bebebe;fill-opacity:1;fill-rule:nonzero;stroke:none;stroke-width:1;marker:none;visibility:visible;display:inline;overflow:visible;enable-background:accumulate" id="rect3003-9" width="1" height="5" x="625.738" y="-170.675" rx=".5" ry=".5" transform="matrix(0.8660254,-0.5,0.5,0.8660254,0,0)"/><rect style="opacity:.694;color:#000;fill:#bebebe;fill-opacity:1;fill-rule:nonzero;stroke:none;stroke-width:1;marker:none;visibility:visible;display:inline;overflow:visible;enable-background:accumulate" id="rect3003-9-8" width="1" height="5" x="623.176" y="164.238" rx=".5" ry=".5" transform="matrix(0.5,-0.8660254,0.8660254,0.5,0,0)"/><rect style="opacity:.48200001;color:#000;fill:#bebebe;fill-opacity:1;fill-rule:nonzero;stroke:none;stroke-width:1;marker:none;visibility:visible;display:inline;overflow:visible;enable-background:accumulate" id="rect3003-08-7-0-9" width="1" height="5" x="162.175" y="618.238" rx=".5" ry=".5" transform="matrix(-0.5,-0.8660254,0.8660254,-0.5,0,0)"/><rect style="opacity:.40200004;color:#000;fill:#bebebe;fill-opacity:1;fill-rule:nonzero;stroke:none;stroke-width:1;marker:none;visibility:visible;display:inline;overflow:visible;enable-background:accumulate" id="rect3003-08-7-0-7" width="1" height="5" x="-172.738" y="615.676" rx=".5" ry=".5" transform="matrix(-0.8660254,-0.5,0.5,-0.8660254,0,0)"/><rect style="opacity:.28000004;color:#000;fill:#bebebe;fill-opacity:1;fill-rule:nonzero;stroke:none;stroke-width:1;marker:none;visibility:visible;display:inline;overflow:visible;enable-background:accumulate" id="rect3003-08-7-0-5" width="1" height="5" x="-626.738" y="154.675" rx=".5" ry=".5" transform="matrix(-0.8660254,0.5,-0.5,-0.8660254,0,0)"/><rect style="opacity:.23000004;color:#000;fill:#bebebe;fill-opacity:1;fill-rule:nonzero;stroke:none;stroke-width:1;marker:none;visibility:visible;display:inline;overflow:visible;enable-background:accumulate" id="rect3003-08-7-0-0" width="1" height="5" x="-624.176" y="-180.238" rx=".5" ry=".5" transform="matrix(-0.5,0.8660254,-0.8660254,-0.5,0,0)"/><rect style="opacity:.16000001;color:#000;fill:#bebebe;fill-opacity:1;fill-rule:nonzero;stroke:none;stroke-width:1;marker:none;visibility:visible;display:inline;overflow:visible;enable-background:accumulate" id="rect3003-08-7-0-8" width="1" height="5" x="-163.175" y="-634.238" rx=".5" ry=".5" transform="matrix(0.5,0.8660254,-0.8660254,0.5,0,0)"/><rect style="opacity:.12999998;color:#000;fill:#bebebe;fill-opacity:1;fill-rule:nonzero;stroke:none;stroke-width:1;marker:none;visibility:visible;display:inline;overflow:visible;enable-background:accumulate" id="rect3003-08-7-0-07" width="1" height="5" x="171.738" y="-631.676" rx=".5" ry=".5" transform="matrix(0.8660254,0.5,-0.5,0.8660254,0,0)"/></g></svg>