<svg xmlns="http://www.w3.org/2000/svg" xmlns:svg="http://www.w3.org/2000/svg" id="svg7384" width="16" height="16" version="1.1"><metadata id="metadata90"/><title id="title9167">elementary Symbolic Icon Theme</title><g style="display:inline" id="layer9" label="status" transform="translate(-613.00035,402)"><path style="font-size:medium;font-style:normal;font-variant:normal;font-weight:400;font-stretch:normal;text-indent:0;text-align:start;text-decoration:none;line-height:normal;letter-spacing:normal;word-spacing:normal;text-transform:none;direction:ltr;block-progression:tb;writing-mode:lr-tb;text-anchor:start;baseline-shift:baseline;color:#bebebe;fill:#bebebe;fill-opacity:1;stroke:none;stroke-width:.99115044;marker:none;visibility:visible;display:inline;overflow:visible;enable-background:accumulate;font-family:Andale Mono;-inkscape-font-specification:Sans" id="path9587" d="m 620.96875,-400.9375 c -3.85777,0 -7,3.14223 -7,7 0,3.85777 3.14223,7 7,7 3.85776,0 7,-3.14223 7,-7 0,-3.85777 -3.14224,-7 -7,-7 z m 0,1 c 3.32116,0 6.03125,2.67883 6.03125,6 0,3.32117 -2.71009,6 -6.03125,6 -3.32117,0 -6,-2.67883 -6,-6 0,-3.32117 2.67883,-6 6,-6 z"/><path style="font-size:medium;font-style:normal;font-variant:normal;font-weight:400;font-stretch:normal;text-indent:0;text-align:start;text-decoration:none;line-height:normal;letter-spacing:normal;word-spacing:normal;text-transform:none;direction:ltr;block-progression:tb;writing-mode:lr-tb;text-anchor:start;baseline-shift:baseline;color:#000;fill:#bebebe;fill-opacity:1;stroke:none;stroke-width:2;marker:none;visibility:visible;display:inline;overflow:visible;enable-background:accumulate;font-family:Sans;-inkscape-font-specification:Sans" id="path16544-6" d="m 616.90625,-394.9375 0,2 1,0 6.125,0 1,0 0,-2 -1,0 -6.125,0 -1,0 z"/></g></svg>