<svg xmlns="http://www.w3.org/2000/svg" xmlns:svg="http://www.w3.org/2000/svg" id="svg7384" width="16.045" height="16.063" version="1.1"><metadata id="metadata90"/><title id="title9167">elementary Symbolic Icon Theme</title><g style="display:inline" id="layer9" transform="translate(-433.0004,422.0626)"><path style="font-size:medium;font-style:normal;font-variant:normal;font-weight:400;font-stretch:normal;text-indent:0;text-align:start;text-decoration:none;line-height:normal;letter-spacing:normal;word-spacing:normal;text-transform:none;direction:ltr;block-progression:tb;writing-mode:lr-tb;text-anchor:start;baseline-shift:baseline;color:#000;fill:#bebebe;fill-opacity:1;stroke:none;stroke-width:2;marker:none;visibility:visible;display:inline;overflow:visible;enable-background:new;font-family:Sans;-inkscape-font-specification:Sans" id="rect20667" d="m 439.3129,-422.0625 c -0.51427,6.7e-4 -1.02062,0.17688 -1.40625,0.5625 l -4.25,4.25 c -0.77127,0.77127 -0.75662,2.07334 0,2.84375 l 2.375,2.40625 2.84375,0 -3.8125,-3.84375 4.25,-4.21875 7.71875,7.78125 c 0.0152,0.0154 0.0435,0.0191 0.0312,0.0312 l -4.25,4.25 -3.8125,-3.84375 0,2.8125 2.375,2.40625 0.0312,0.0312 c 0.77124,0.77124 2.04126,0.77124 2.8125,0 l 4.25,-4.25 c 0.77125,-0.77125 0.76539,-2.04156 0,-2.8125 l -7.75,-7.84375 c -0.38574,-0.38831 -0.89198,-0.56317 -1.40625,-0.5625 z"/><path style="color:#bebebe;fill:#bebebe;fill-opacity:1;stroke:none;stroke-width:2;marker:none;visibility:visible;display:inline;overflow:visible" id="path3761-2-3-5-4-8-9-8-0-1-7-8-8-7" d="m 433.0004,-411 1.375,0 1.125,1.09375 1.09375,-1.09375 1.40625,0 0,1.46875 -1.09375,1.0625 1.09375,1.0625 0,1.40625 -1.4375,0 -1.0625,-1.0625 -1.0625,1.0625 -1.4375,0 0,-1.40625 1.0625,-1.0625 -1.0625,-1.0625 0,-1.46875 z"/></g></svg>