<svg xmlns="http://www.w3.org/2000/svg" xmlns:svg="http://www.w3.org/2000/svg" id="svg7384" width="16" height="16" version="1.1"><metadata id="metadata90"/><title id="title9167">elementary Symbolic Icon Theme</title><g style="display:inline" id="layer9" label="status" transform="translate(-533.0004,542)"><path style="color:#bebebe;fill:#bebebe;fill-opacity:1;fill-rule:nonzero;stroke:none;stroke-width:1;marker:none;visibility:visible;display:inline;overflow:visible;enable-background:accumulate" id="path35244" d="m 540.0004,-542 c -2.01566,0 -4,2.02594 -4,4 l 0,2 10,0 0,-2 c 0,-1.99486 -1.96353,-4 -4,-4 z m 0,2 2,0 c 1.15731,0 2,1.17009 2,2 l 0,2 -6,0 0,-2 c 0,-0.66713 0.80108,-2 2,-2 z"/><path style="color:#bebebe;fill:#bebebe;fill-opacity:1;fill-rule:nonzero;stroke:none;stroke-width:1;marker:none;visibility:visible;display:inline;overflow:visible;enable-background:accumulate" id="path35246" d="m 535.0004,-535 0,2.25 2.25,0 0,0.5 -2.25,0 0,1.25 0,0.25 2.25,0 0,0.5 -2.25,0 0,1.5 2.25,0 0,0.5 -2.25,0 0,0.25 0,0.5 c 0,0.831 0.669,1.5 1.5,1.5 l 9,0 c 0.831,0 1.5,-0.669 1.5,-1.5 l 0,-0.5 0,-0.25 -2.25,0 0,-0.5 2.25,0 0,-1.5 -2.25,0 0,-0.5 2.25,0 0,-0.25 0,-1.25 -2.25,0 0,-0.5 2.25,0 0,-2.25 z"/></g></svg>