<svg xmlns="http://www.w3.org/2000/svg" xmlns:svg="http://www.w3.org/2000/svg" id="svg7384" width="16" height="16" version="1.1"><metadata id="metadata90"/><title id="title9167">elementary Symbolic Icon Theme</title><g style="display:inline" id="layer9" label="status" transform="translate(-313.0004,382)"><path style="color:#fbc02d;fill:#fbc02d;fill-opacity:1;fill-rule:nonzero;stroke:none;stroke-width:1;marker:none;visibility:visible;display:inline;overflow:visible;enable-background:accumulate" id="path13515" d="m 321.0002,-381.5 -2,5.5 -5.5,0 4.25,3.5 -2,5.75 5.25,-2.5 5.25,2.5 -2,-5.75 4.25,-3.5 -5.5,0 -2,-5.5 z m 0,2.9375 1.0625,2.90625 A 0.98599047,0.98599047 0 0 0 323.0002,-375 l 2.75,0 -2.125,1.75 a 0.98599047,0.98599047 0 0 0 -0.3125,1.0625 l 1.21875,3.53125 -3.09375,-1.46875 a 0.98599047,0.98599047 0 0 0 -0.4375,-0.0937 l 0,-8.34375 z" class="warning"/></g></svg>