<svg xmlns="http://www.w3.org/2000/svg" xmlns:svg="http://www.w3.org/2000/svg" id="svg7384" width="16" height="16.002" version="1.1"><metadata id="metadata90"/><title id="title9167">elementary Symbolic Icon Theme</title><g style="display:inline" id="layer9" label="status" transform="translate(-413.03195,382.00195)"><path style="color:#000;fill:#bebebe;fill-opacity:1;fill-rule:nonzero;stroke:none;stroke-width:4;marker:none;visibility:visible;display:inline;overflow:visible;enable-background:accumulate" id="path30993" d="m 421.03145,-382 c -1.10457,0 -2,0.89543 -2,2 l -3,0 c -1,0 -1,1 -1,1 l 0,11 c 0,1 1,1 1,1 l 6.96875,0 0,-1 -6.96875,0 0,-11 3,0 0,2 c 0,0 -1,0 -1,1 l 1,0 4,0 1,0 c 0,-0.75 -0.5625,-0.95312 -0.84375,-1 l -0.15625,0 0,-2 3,0 -0.0312,7 1,0 0.0312,-7 c 0.004,-0.99999 -1,-1 -1,-1 l -3,0 c 0,-0.13807 -0.005,-0.27605 -0.0312,-0.40625 -0.18659,-0.91137 -1.0023,-1.59375 -1.9688,-1.59375 z m 0,1 c 0.41421,0 0.75444,0.26608 0.90625,0.625 0.0506,0.11964 0.0937,0.23693 0.0937,0.375 0,0.55228 -0.44771,1 -1,1 -0.55229,0 -1,-0.44772 -1,-1 0,-0.55228 0.44771,-1 1,-1 z"/><path style="color:#bebebe;fill:#bebebe;fill-opacity:1;stroke:none;stroke-width:2;marker:none;visibility:visible;display:inline;overflow:visible" id="path3761-2-3-5-4-8-9-8-9-9-0-6" d="m 424.0002,-371 1.375,0 1.125,1.09375 1.09375,-1.09375 1.40625,0 0,1.46875 -1.09375,1.0625 1.09375,1.0625 0,1.40625 -1.4375,0 -1.0625,-1.0625 -1.0625,1.0625 -1.4375,0 0,-1.40625 1.0625,-1.0625 -1.0625,-1.0625 0,-1.46875 z"/></g></svg>