<svg xmlns="http://www.w3.org/2000/svg" xmlns:svg="http://www.w3.org/2000/svg" id="svg7384" width="16" height="16" version="1.1"><metadata id="metadata90"/><title id="title9167">elementary Symbolic Icon Theme</title><g style="display:inline" id="layer9" label="status" transform="translate(-333.00015,402)"><path style="color:#bebebe;fill:#bebebe;fill-opacity:1;fill-rule:nonzero;stroke:none;stroke-width:1;marker:none;visibility:visible;display:inline;overflow:visible;enable-background:accumulate" id="path35492" d="m 338.0002,-400 c -2.77,0 -5,2.23 -5,5 0,2.77 2.23,5 5,5 l 3.34375,0 2.65625,3 0,-3 c 2.77,0 5,-2.23 5,-5 0,-2.77 -2.23,-5 -5,-5 l -6,0 z m 0,2 6,0 c 1.662,0 3,1.338 3,3 0,1.662 -1.338,3 -3,3 l -6,0 c -1.662,0 -3,-1.338 -3,-3 0,-1.662 1.338,-3 3,-3 z"/></g></svg>