<svg xmlns="http://www.w3.org/2000/svg" xmlns:svg="http://www.w3.org/2000/svg" id="svg7384" width="16" height="16" version="1.1"><metadata id="metadata90"/><title id="title9167">elementary Symbolic Icon Theme</title><g style="display:inline" id="layer9" label="status" transform="translate(-293.00015,402)"><path style="color:#bebebe;fill:#bebebe;fill-opacity:1;fill-rule:nonzero;stroke:none;stroke-width:1;marker:none;visibility:visible;display:inline;overflow:visible;enable-background:accumulate" id="path35476" d="m 298.0002,-400 c -2.77,0 -5,2.23 -5,5 0,2.77 2.23,5 5,5 l 3.34375,0 2.65625,3 0,-3 c 2.77,0 5,-2.23 5,-5 0,-2.77 -2.23,-5 -5,-5 l -6,0 z m 0,2 1,0 c 0.27614,0 0.53779,0.10029 0.71875,0.28125 l 1.28125,1.28125 1.28125,-1.28125 C 302.46241,-397.89971 302.72406,-398 303.0002,-398 l 1,0 0,1 c 0,0.27614 -0.10029,0.53779 -0.28125,0.71875 L 302.4377,-395 l 1.28125,1.28125 c 0.18096,0.18096 0.28125,0.44261 0.28125,0.71875 l 0,1 -1,0 c -0.27614,0 -0.53779,-0.10029 -0.71875,-0.28125 l -1.28125,-1.28125 -1.28125,1.28125 C 299.53799,-392.10029 299.27634,-392 299.0002,-392 l -1,0 0,-1 c 0,-0.27614 0.10029,-0.53779 0.28125,-0.71875 L 299.5627,-395 l -1.28125,-1.28125 c -0.18096,-0.18096 -0.28125,-0.44261 -0.28125,-0.71875 l 0,-1 z"/></g></svg>