<svg xmlns="http://www.w3.org/2000/svg" xmlns:svg="http://www.w3.org/2000/svg" id="svg7384" width="16" height="16" version="1.1"><metadata id="metadata90"/><title id="title9167">elementary Symbolic Icon Theme</title><g style="display:inline" id="layer9" label="status" transform="translate(-593.00018,482)"><path style="fill:#bebebe;fill-opacity:1;fill-rule:evenodd;stroke:none;stroke-width:4;marker:none;visibility:visible;display:inline;overflow:visible;enable-background:accumulate" id="path2397-54" d="m 602.00016,-480 c -1.1263,0 -2.08079,0.59376 -2.59375,1.46875 -0.28885,-0.20595 -0.6577,-0.3125 -1.0625,-0.3125 -0.92,0 -1.6875,0.61768 -1.6875,1.40625 0,0.1771 0.0562,0.34346 0.125,0.5 -1.04634,0.40073 -1.78125,1.32588 -1.78125,2.375 0,1.12709 0.85836,2.05728 2.03125,2.40625 -0.0159,-0.11379 -0.0312,-0.22559 -0.0312,-0.34375 0,-1.38071 1.11929,-2.5 2.5,-2.5 1.38071,0 2.5,1.11929 2.5,2.5 0,0.17259 -0.0292,0.33726 -0.0625,0.5 l 2.0625,0 c 1.662,0 3,-1.13793 3,-2.5625 0,-1.12838 -0.85624,-2.08952 -2.03125,-2.4375 0.003,-0.0488 0.0312,-0.10682 0.0312,-0.15625 0,-1.57714 -1.344,-2.84375 -3,-2.84375 z m -1,10.5 c 0,0.82843 0.67157,1.5 1.5,1.5 0.82843,0 1.5,-0.67157 1.5,-1.5 0,-0.82843 -0.67157,-1.5 -1.5,-1.5 -0.82843,0 -1.5,0.67157 -1.5,1.5 l 0,0 z m -3,-3 c 0,0.82843 0.67157,1.5 1.5,1.5 0.82843,0 1.5,-0.67157 1.5,-1.5 0,-0.82843 -0.67157,-1.5 -1.5,-1.5 -0.82843,0 -1.5,0.67157 -1.5,1.5 l 0,0 z m -1,5 c 0,0.82843 0.67157,1.5 1.5,1.5 0.82843,0 1.5,-0.67157 1.5,-1.5 0,-0.82843 -0.67157,-1.5 -1.5,-1.5 -0.82843,0 -1.5,0.67157 -1.5,1.5 l 0,0 z"/></g></svg>