<svg xmlns="http://www.w3.org/2000/svg" xmlns:svg="http://www.w3.org/2000/svg" id="svg7384" width="16" height="16" version="1.1"><metadata id="metadata90"/><title id="title9167">elementary Symbolic Icon Theme</title><g style="display:inline" id="layer13" transform="translate(-693.00043,604)"><path style="color:#bebebe;fill:#bebebe;fill-opacity:1;fill-rule:nonzero;stroke:none;stroke-width:1;marker:none;visibility:visible;display:inline;overflow:visible;enable-background:accumulate" id="rect3058" d="m 695.5002,-602 c -0.277,0 -0.5,0.223 -0.5,0.5 l 0,0.5 -0.5,0 c -0.277,0 -0.5,0.223 -0.5,0.5 l 0,2 c 0,-0.277 0.223,-0.5 0.5,-0.5 l 13,0 c 0.277,0 0.5,0.223 0.5,0.5 l 0,-2 c 0,-0.277 -0.223,-0.5 -0.5,-0.5 l -6.5,0 0,-0.5 c 0,-0.277 -0.223,-0.5 -0.5,-0.5 l -5,0 z m -1,4 c -0.277,0 -0.5,0.223 -0.5,0.5 l 0,7 c 0,0.277 0.223,0.5 0.5,0.5 l 13,0 c 0.277,0 0.5,-0.223 0.5,-0.5 l 0,-7 c 0,-0.277 -0.223,-0.5 -0.5,-0.5 l -13,0 z"/></g></svg>