<svg xmlns="http://www.w3.org/2000/svg" xmlns:svg="http://www.w3.org/2000/svg" id="svg7384" width="16" height="16" version="1.1"><metadata id="metadata90"/><title id="title9167">elementary Symbolic Icon Theme</title><g style="display:inline" id="layer13" transform="translate(-753.0004,604)"><path style="fill:#bebebe;fill-opacity:1;stroke:none;display:inline" id="path11106" d="m 759.0004,-592 0,2 -5.53125,0 c -0.26299,0 -0.46875,0.2057 -0.46875,0.4688 l 0,1.0624 c 0,0.263 0.20576,0.4688 0.46875,0.4688 4.35417,0 8.70833,0 13.0625,0 0.26299,0 0.46875,-0.2058 0.46875,-0.4688 l 0,-1.0624 c 0,-0.263 -0.20575,-0.4688 -0.46875,-0.4688 l -5.53125,0 0,-2 z"/><path style="font-size:medium;font-style:normal;font-variant:normal;font-weight:400;font-stretch:normal;text-indent:0;text-align:start;text-decoration:none;line-height:normal;letter-spacing:normal;word-spacing:normal;text-transform:none;direction:ltr;block-progression:tb;writing-mode:lr-tb;text-anchor:start;baseline-shift:baseline;color:#000;fill:#bebebe;fill-opacity:1;stroke:none;stroke-width:2;marker:none;visibility:visible;display:inline;overflow:visible;enable-background:accumulate;font-family:Sans;-inkscape-font-specification:Sans" id="rect11110" d="m 757,-604 c -1.0907,0 -2,0.9093 -2,2 l 0,8 c 0,1.0907 0.9093,2 2,2 l 6,0 c 1.0907,0 2,-0.9093 2,-2 l 0,-8 c 0,-1.0907 -0.9093,-2 -2,-2 l -6,0 z m 0,2 6,0 0,8 -6,0 0,-8 z"/><rect style="color:#000;fill:#bebebe;fill-opacity:1;stroke:none;stroke-width:2;marker:none;visibility:visible;display:inline;overflow:visible;enable-background:accumulate" id="rect11880" width="4" height="1" x="758" y="-601"/><rect style="color:#000;fill:#bebebe;fill-opacity:1;stroke:none;stroke-width:2;marker:none;visibility:visible;display:inline;overflow:visible;enable-background:accumulate" id="rect11882" width="1" height="1" x="761" y="-599"/></g></svg>