<svg xmlns="http://www.w3.org/2000/svg" xmlns:svg="http://www.w3.org/2000/svg" id="svg7384" width="16" height="16" version="1.1"><metadata id="metadata90"/><title id="title9167">elementary Symbolic Icon Theme</title><g style="display:inline" id="layer13" transform="translate(-732.9994,604)"><path style="color:#bebebe;fill:#bebebe;fill-opacity:1;fill-rule:nonzero;stroke:none;stroke-width:1;marker:none;visibility:visible;display:inline;overflow:visible;enable-background:accumulate" id="path14577" d="m 739.0004,-603 0,1 -3.5,0 c 0,0 -0.5,0 -0.5,0.5 l 0,1.5 12,0 0,-1.5 c 0,-0.5 -0.5,-0.5 -0.5,-0.5 l -3.5,0 0,-1 z m -2.03125,4 -0.96875,0 0,9 c 0,0 0,1 1,1 l 7.96875,0 c 0.0312,0 1.03125,0 1.03125,-1 l 0,-8 0,-1 z m 2.03125,2 1,0 0,6 -1,0 z m 3,0 1,0 0,6 -1,0 z"/></g></svg>