<svg xmlns="http://www.w3.org/2000/svg" xmlns:svg="http://www.w3.org/2000/svg" xmlns:xlink="http://www.w3.org/1999/xlink" id="svg4112" width="48" height="48" version="1.1"><defs id="defs4114"><linearGradient id="linearGradient3988" x1="24" x2="24" y1="5.564" y2="43" gradientTransform="matrix(0.89189189,0,0,1.1351351,2.5945999,-4.7432315)" gradientUnits="userSpaceOnUse" xlink:href="#linearGradient3977"/><linearGradient id="linearGradient3977"><stop style="stop-color:#fff;stop-opacity:1" id="stop3979" offset="0"/><stop style="stop-color:#fff;stop-opacity:.23529412" id="stop3981" offset=".036"/><stop style="stop-color:#fff;stop-opacity:.15686275" id="stop3983" offset=".951"/><stop style="stop-color:#fff;stop-opacity:.39215687" id="stop3985" offset="1"/></linearGradient><linearGradient id="linearGradient3322" x1="25.132" x2="25.132" y1=".985" y2="47.013" gradientTransform="matrix(1,0,0,0.9561695,-9.9999999e-8,-1.9149219)" gradientUnits="userSpaceOnUse" xlink:href="#linearGradient3600"/><linearGradient id="linearGradient3600"><stop style="stop-color:#f4f4f4;stop-opacity:1" id="stop3602" offset="0"/><stop style="stop-color:#dbdbdb;stop-opacity:1" id="stop3604" offset="1"/></linearGradient><linearGradient id="linearGradient3324" x1="-51.786" x2="-51.786" y1="50.786" y2="2.906" gradientTransform="matrix(0.8074968,0,0,0.8948322,59.410232,-2.9805532)" gradientUnits="userSpaceOnUse" xlink:href="#linearGradient3104"/><linearGradient id="linearGradient3104"><stop style="stop-color:#a0a0a0;stop-opacity:1" id="stop3106" offset="0"/><stop style="stop-color:#bebebe;stop-opacity:1" id="stop3108" offset="1"/></linearGradient><radialGradient id="radialGradient3327" cx="605.714" cy="486.648" r="117.143" fx="605.714" fy="486.648" gradientTransform="matrix(0.02303995,0,0,0.01470022,26.360882,37.040176)" gradientUnits="userSpaceOnUse" xlink:href="#linearGradient5060"/><linearGradient id="linearGradient5060"><stop style="stop-color:#000;stop-opacity:1" id="stop5062" offset="0"/><stop style="stop-color:#000;stop-opacity:0" id="stop5064" offset="1"/></linearGradient><radialGradient id="radialGradient3330" cx="605.714" cy="486.648" r="117.143" fx="605.714" fy="486.648" gradientTransform="matrix(-0.02303994,0,0,0.01470022,21.62311,37.040176)" gradientUnits="userSpaceOnUse" xlink:href="#linearGradient5060"/><linearGradient id="linearGradient5048"><stop style="stop-color:#000;stop-opacity:0" id="stop5050" offset="0"/><stop style="stop-color:#000;stop-opacity:1" id="stop5056" offset=".5"/><stop style="stop-color:#000;stop-opacity:0" id="stop5052" offset="1"/></linearGradient><linearGradient id="linearGradient4110" x1="302.857" x2="302.857" y1="366.648" y2="609.505" gradientTransform="matrix(0.06732488,0,0,0.01470022,-0.3411391,37.040146)" gradientUnits="userSpaceOnUse" xlink:href="#linearGradient5048"/></defs><metadata id="metadata4117"/><rect id="rect2879" width="32.508" height="3.57" x="7.738" y="42.43" style="display:inline;overflow:visible;visibility:visible;opacity:.3;fill:url(#linearGradient4110);fill-opacity:1;fill-rule:nonzero;stroke:none;stroke-width:1;marker:none"/><path id="path2881" d="m 7.7378475,42.430102 0,3.569856 C 6.5513473,46.006658 4.869468,45.200135 4.869468,44.2148 c 0,-0.985333 1.3240446,-1.784697 2.8683795,-1.784698 z" style="display:inline;overflow:visible;visibility:visible;opacity:.3;fill:url(#radialGradient3330);fill-opacity:1;fill-rule:nonzero;stroke:none;stroke-width:1;marker:none"/><path id="path2883" d="m 40.246148,42.430102 0,3.569856 c 1.1865,0.0067 2.86838,-0.799823 2.86838,-1.785158 0,-0.985333 -1.324045,-1.784697 -2.86838,-1.784698 z" style="display:inline;overflow:visible;visibility:visible;opacity:.3;fill:url(#radialGradient3327);fill-opacity:1;fill-rule:nonzero;stroke:none;stroke-width:1;marker:none"/><path id="path4160" d="M 6.4999609,0.49719893 C 14.520256,0.49719893 41.5,0.5 41.5,0.5 l 4.2e-5,44.002803 -35.0000811,0 z" style="display:inline;fill:url(#linearGradient3322);fill-opacity:1;stroke:url(#linearGradient3324);stroke-width:.99992186;stroke-linecap:butt;stroke-linejoin:round;stroke-miterlimit:4;stroke-dasharray:none;stroke-dashoffset:0;stroke-opacity:1"/><path id="path4313" d="m 10.083062,24.938645 0,-1.339484 7.956363,-3.268978 0,1.825844 -5.476723,2.120849 5.476723,2.144769 0,1.825844 z" style="font-style:normal;font-variant:normal;font-weight:700;font-stretch:normal;font-size:medium;line-height:125%;font-family:Loma;-inkscape-font-specification:'Loma Bold';letter-spacing:.81644732px;word-spacing:0;opacity:.2;fill:#fff;fill-opacity:1;stroke:none;stroke-width:1px;stroke-linecap:butt;stroke-linejoin:miter;stroke-opacity:1"/><path style="font-style:normal;font-variant:normal;font-weight:700;font-stretch:normal;font-size:medium;line-height:125%;font-family:Loma;-inkscape-font-specification:'Loma Bold';letter-spacing:.81644732px;word-spacing:0;opacity:.4;fill:#fff;fill-opacity:1;stroke:none;stroke-width:1px;stroke-linecap:butt;stroke-linejoin:miter;stroke-opacity:1" id="path4341" d="m 24.101562,18.058594 c -0.706948,0 -1.514914,0.162088 -2.099609,0.486328 -0.57938,0.32424 -1.033725,0.764146 -1.363281,1.322266 -0.32424,0.558117 -0.486328,1.172054 -0.486328,1.841796 l 0.05469,0.341797 1.853516,-0.02734 0.0059,-0.314454 c 0,-0.382709 0.04416,-0.926008 0.4375,-1.367187 0.398656,-0.441175 1.148022,-0.529297 1.621094,-0.529297 0.170093,0 0.347164,0.02693 0.533203,0.08008 0.191355,0.04784 0.387858,0.126657 0.589844,0.238281 0.201985,0.106308 0.368524,0.268396 0.496094,0.486329 0.132888,0.212617 0.199218,0.465465 0.199218,0.757812 0,0.138201 -0.01444,0.270868 -0.04102,0.398438 -0.02658,0.122254 -0.07847,0.279348 -0.158203,0.470703 -0.07973,0.191355 -0.216848,0.405337 -0.408203,0.644531 -0.18604,0.233878 -0.424449,0.486726 -0.716797,0.757812 -0.19667,0.180724 -0.353765,0.332824 -0.470703,0.455078 -0.111623,0.11694 -0.246788,0.286519 -0.40625,0.509766 -0.159463,0.217932 -0.28464,0.436365 -0.375,0.654297 -0.08505,0.217932 -0.158867,0.495207 -0.222657,0.830078 -0.05401,0.279024 -0.07961,0.58336 -0.08789,0.904297 l 1.923828,0 c 0.0098,-0.217202 0.02235,-0.434017 0.06836,-0.634766 0.05847,-0.255139 0.122306,-0.466625 0.191406,-0.636718 0.0691,-0.175409 0.179294,-0.369415 0.328125,-0.582032 0.148832,-0.212616 0.26456,-0.36721 0.34961,-0.46289 0.09036,-0.100993 0.232473,-0.253093 0.423828,-0.455078 0.196669,-0.207301 0.326835,-0.344963 0.390625,-0.414063 0.749473,-0.829204 1.123047,-1.632153 1.123047,-2.408203 0,-1.004613 -0.353598,-1.812556 -1.060547,-2.423828 -0.701635,-0.616588 -1.598384,-0.923828 -2.69336,-0.923828 z M 23,29 l 0,2 2,0 0,-2 z"/><path id="rect6741-1" d="m 40.5,43.5 -33,0 0,-41.9999999 33,0 z" style="fill:none;stroke:url(#linearGradient3988);stroke-width:1;stroke-linecap:round;stroke-linejoin:round;stroke-miterlimit:4;stroke-dasharray:none;stroke-dashoffset:0;stroke-opacity:1"/><path style="font-style:normal;font-variant:normal;font-weight:700;font-stretch:normal;font-size:medium;line-height:125%;font-family:Loma;-inkscape-font-specification:'Loma Bold';letter-spacing:.81644732px;word-spacing:0;fill:#b3b3b3;fill-opacity:1;stroke:none;stroke-width:1px;stroke-linecap:butt;stroke-linejoin:miter;stroke-opacity:1" id="path4304" d="m 10.083062,23.938645 0,-1.339484 7.956363,-3.268978 0,1.825844 -5.476723,2.120849 5.476723,2.144769 0,1.825844 z"/><path id="path4317" d="m 38.083061,24.938645 -8.00998,3.308844 0,-1.825844 5.354931,-2.144769 -5.354931,-2.120849 0,-1.825844 8.00998,3.268978 z" style="font-style:normal;font-variant:normal;font-weight:700;font-stretch:normal;font-size:medium;line-height:125%;font-family:Loma;-inkscape-font-specification:'Loma Bold';letter-spacing:.81644732px;word-spacing:0;opacity:.2;fill:#fff;fill-opacity:1;stroke:none;stroke-width:1px;stroke-linecap:butt;stroke-linejoin:miter;stroke-opacity:1"/><path id="path4306" d="m 24.101562,17.058594 c -0.706948,0 -1.514914,0.162088 -2.099609,0.486328 -0.57938,0.32424 -1.033725,0.764146 -1.363281,1.322266 -0.32424,0.558117 -0.486328,1.172054 -0.486328,1.841796 l 0.05469,0.341797 1.853516,-0.02734 0.0059,-0.314454 c 0,-0.382709 0.04416,-0.926008 0.4375,-1.367187 0.398656,-0.441175 1.148022,-0.529297 1.621094,-0.529297 0.170093,0 0.347164,0.02693 0.533203,0.08008 0.191355,0.04784 0.387858,0.126657 0.589844,0.238281 0.201985,0.106308 0.368524,0.268396 0.496094,0.486329 0.132888,0.212617 0.199218,0.465465 0.199218,0.757812 0,0.138201 -0.01444,0.270868 -0.04102,0.398438 -0.02658,0.122254 -0.07847,0.279348 -0.158203,0.470703 -0.07973,0.191355 -0.216848,0.405337 -0.408203,0.644531 -0.18604,0.233878 -0.424449,0.486726 -0.716797,0.757812 -0.19667,0.180724 -0.353765,0.332824 -0.470703,0.455078 -0.111623,0.11694 -0.246788,0.286519 -0.40625,0.509766 -0.159463,0.217932 -0.28464,0.436365 -0.375,0.654297 -0.08505,0.217932 -0.158867,0.495207 -0.222657,0.830078 -0.05401,0.279024 -0.07961,0.58336 -0.08789,0.904297 l 1.923828,0 c 0.0098,-0.217202 0.02235,-0.434017 0.06836,-0.634766 0.05847,-0.255139 0.122306,-0.466625 0.191406,-0.636718 0.0691,-0.175409 0.179294,-0.369415 0.328125,-0.582032 0.148832,-0.212616 0.26456,-0.36721 0.34961,-0.46289 0.09036,-0.100993 0.232473,-0.253093 0.423828,-0.455078 0.196669,-0.207301 0.326835,-0.344963 0.390625,-0.414063 0.749473,-0.829204 1.123047,-1.632153 1.123047,-2.408203 0,-1.004613 -0.353598,-1.812556 -1.060547,-2.423828 -0.701635,-0.616588 -1.598384,-0.923828 -2.69336,-0.923828 z M 23,28 l 0,2 2,0 0,-2 z" style="font-style:normal;font-variant:normal;font-weight:700;font-stretch:normal;font-size:medium;line-height:125%;font-family:Loma;-inkscape-font-specification:'Loma Bold';letter-spacing:.81644732px;word-spacing:0;fill:#949494;fill-opacity:1;stroke:none;stroke-width:1px;stroke-linecap:butt;stroke-linejoin:miter;stroke-opacity:1"/><path style="font-style:normal;font-variant:normal;font-weight:700;font-stretch:normal;font-size:medium;line-height:125%;font-family:Loma;-inkscape-font-specification:'Loma Bold';letter-spacing:.81644732px;word-spacing:0;fill:#b3b3b3;fill-opacity:1;stroke:none;stroke-width:1px;stroke-linecap:butt;stroke-linejoin:miter;stroke-opacity:1" id="path4308" d="m 38.083061,23.938645 -8.00998,3.308844 0,-1.825844 5.354931,-2.144769 -5.354931,-2.120849 0,-1.825844 8.00998,3.268978 z"/></svg>