<svg xmlns="http://www.w3.org/2000/svg" xmlns:svg="http://www.w3.org/2000/svg" xmlns:xlink="http://www.w3.org/1999/xlink" id="svg3102" width="48" height="48" version="1.1"><defs id="defs3104"><linearGradient id="linearGradient3988" x1="24" x2="24" y1="5.564" y2="43" gradientTransform="matrix(0.89189189,0,0,1.1351351,2.5945999,-4.7432314)" gradientUnits="userSpaceOnUse" xlink:href="#linearGradient3977"/><linearGradient id="linearGradient3977"><stop style="stop-color:#fff;stop-opacity:1" id="stop3979" offset="0"/><stop style="stop-color:#fff;stop-opacity:.23529412" id="stop3981" offset=".036"/><stop style="stop-color:#fff;stop-opacity:.15686275" id="stop3983" offset=".951"/><stop style="stop-color:#fff;stop-opacity:.39215687" id="stop3985" offset="1"/></linearGradient><radialGradient id="radialGradient4304" cx="7.806" cy="9.957" r="12.672" fx="7.276" fy="9.957" gradientTransform="matrix(-1.6167311e-7,6.6018651,-8.0922115,-1.9817022e-7,197.43864,-60.072946)" gradientUnits="userSpaceOnUse" xlink:href="#linearGradient2867-449-88-871-390-598-476-591-434-148-57-177-8-3"/><linearGradient id="linearGradient2867-449-88-871-390-598-476-591-434-148-57-177-8-3"><stop style="stop-color:#ffcd7d;stop-opacity:1" id="stop3750-1-0" offset="0"/><stop style="stop-color:#fc8f36;stop-opacity:1" id="stop3752-3-7" offset=".262"/><stop style="stop-color:#e23a0e;stop-opacity:1" id="stop3754-1-8" offset=".705"/><stop style="stop-color:#ac441f;stop-opacity:1" id="stop3756-1-6" offset="1"/></linearGradient><linearGradient id="linearGradient4306" x1="25" x2="25" y1="44.291" y2=".571" gradientTransform="translate(92.874353,-4.6076e-4)" gradientUnits="userSpaceOnUse" xlink:href="#linearGradient4039"/><linearGradient id="linearGradient4039"><stop style="stop-color:#ba3d12;stop-opacity:1" id="stop4041" offset="0"/><stop style="stop-color:#db6737;stop-opacity:1" id="stop4043" offset="1"/></linearGradient><radialGradient id="radialGradient3327" cx="605.714" cy="486.648" r="117.143" fx="605.714" fy="486.648" gradientTransform="matrix(0.02303995,0,0,0.01470022,26.360882,37.040176)" gradientUnits="userSpaceOnUse" xlink:href="#linearGradient5060"/><linearGradient id="linearGradient5060"><stop style="stop-color:#000;stop-opacity:1" id="stop5062" offset="0"/><stop style="stop-color:#000;stop-opacity:0" id="stop5064" offset="1"/></linearGradient><radialGradient id="radialGradient3330" cx="605.714" cy="486.648" r="117.143" fx="605.714" fy="486.648" gradientTransform="matrix(-0.02303994,0,0,0.01470022,21.62311,37.040176)" gradientUnits="userSpaceOnUse" xlink:href="#linearGradient5060"/><linearGradient id="linearGradient5048"><stop style="stop-color:#000;stop-opacity:0" id="stop5050" offset="0"/><stop style="stop-color:#000;stop-opacity:1" id="stop5056" offset=".5"/><stop style="stop-color:#000;stop-opacity:0" id="stop5052" offset="1"/></linearGradient><linearGradient id="linearGradient3100" x1="302.857" x2="302.857" y1="366.648" y2="609.505" gradientTransform="matrix(0.06732488,0,0,0.01470022,-0.3411391,37.040146)" gradientUnits="userSpaceOnUse" xlink:href="#linearGradient5048"/></defs><metadata id="metadata3107"/><g id="layer1"><rect style="opacity:.3;fill:url(#linearGradient3100);fill-opacity:1;fill-rule:nonzero;stroke:none;stroke-width:1;marker:none;visibility:visible;display:inline;overflow:visible" id="rect2879" width="32.508" height="3.57" x="7.738" y="42.43"/><path style="opacity:.3;fill:url(#radialGradient3330);fill-opacity:1;fill-rule:nonzero;stroke:none;stroke-width:1;marker:none;visibility:visible;display:inline;overflow:visible" id="path2881" d="m 7.7378475,42.430102 c 0,0 0,3.569856 0,3.569856 -1.1865002,0.0067 -2.8683795,-0.799823 -2.8683795,-1.785158 0,-0.985333 1.3240446,-1.784697 2.8683795,-1.784698 z"/><path style="opacity:.3;fill:url(#radialGradient3327);fill-opacity:1;fill-rule:nonzero;stroke:none;stroke-width:1;marker:none;visibility:visible;display:inline;overflow:visible" id="path2883" d="m 40.246148,42.430102 c 0,0 0,3.569856 0,3.569856 1.1865,0.0067 2.86838,-0.799823 2.86838,-1.785158 0,-0.985333 -1.324045,-1.784697 -2.86838,-1.784698 z"/><g id="layer1-3" transform="translate(-92.874352,-1e-6)"><path style="color:#000;fill:url(#radialGradient4304);fill-opacity:1;fill-rule:nonzero;stroke:url(#linearGradient4306);stroke-width:1;stroke-linecap:butt;stroke-linejoin:round;stroke-miterlimit:4;stroke-opacity:1;stroke-dasharray:none;stroke-dashoffset:0;marker:none;visibility:visible;display:inline;overflow:visible;enable-background:accumulate" id="path4160-62" d="m 99.374314,0.49719907 c 8.020296,0 35.000036,0.002801 35.000036,0.002801 l 4e-5,44.00280293 c 0,0 -23.33338,0 -35.000076,0 0,-14.668535 0,-29.33707 0,-44.005604 z"/></g><path style="opacity:.5;fill:none;stroke:url(#linearGradient3988);stroke-width:1;stroke-linecap:round;stroke-linejoin:round;stroke-miterlimit:4;stroke-opacity:1;stroke-dasharray:none;stroke-dashoffset:0" id="rect6741-1" d="m 40.5,43.5 -33,0 0,-41.9999998 33,0 z"/><path style="color:#000;fill:#fff;fill-opacity:1;fill-rule:nonzero;stroke:none;stroke-width:1;marker:none;visibility:visible;display:inline;overflow:visible;enable-background:accumulate" id="rect3029" d="m 30.332031,15.575062 c -2e-6,-0.335921 0.05078,-0.613264 0.152344,-0.832031 0.10156,-0.226545 0.238279,-0.406233 0.410156,-0.539063 0.179685,-0.140607 0.386716,-0.238263 0.621094,-0.292969 0.242184,-0.05467 0.49609,-0.08201 0.761719,-0.08203 0.265621,1.8e-5 0.51562,0.02736 0.75,0.08203 0.23437,0.05471 0.437495,0.152362 0.609375,0.292969 0.179682,0.13283 0.320307,0.312518 0.421875,0.539063 0.109369,0.218767 0.164057,0.49611 0.164062,0.832031 -5e-6,0.328141 -0.05469,0.605484 -0.164062,0.832031 -0.101568,0.226578 -0.242193,0.410172 -0.421875,0.550781 -0.17188,0.132828 -0.375005,0.230484 -0.609375,0.292969 -0.23438,0.0547 -0.484379,0.08205 -0.75,0.08203 -0.265629,1.5e-5 -0.519535,-0.02733 -0.761719,-0.08203 -0.234378,-0.06248 -0.441409,-0.160141 -0.621094,-0.292969 -0.171877,-0.140609 -0.308596,-0.324203 -0.410156,-0.550781 -0.101564,-0.226547 -0.152346,-0.50389 -0.152344,-0.832031 m 3.726563,16.488281 -3.574219,0 0,-13.101562 3.574219,0 0,13.101562 m -9.128907,0 -1.171875,-4.078125 -5.90625,0 -1.183593,4.078125 -3.667969,0 5.566406,-17.203125 4.441406,0 5.589844,17.203125 -3.667969,0 m -2.015625,-7.125 -1.101562,-3.75 c -0.04688,-0.140614 -0.117196,-0.371082 -0.210938,-0.691406 -0.09376,-0.320301 -0.195321,-0.671863 -0.304687,-1.054688 -0.101571,-0.390612 -0.199227,-0.781236 -0.292969,-1.171875 -0.09376,-0.390611 -0.160164,-0.722641 -0.199219,-0.996093 -0.03126,0.171889 -0.07423,0.375014 -0.128906,0.609375 -0.04688,0.234388 -0.105476,0.484388 -0.175781,0.75 -0.06251,0.257825 -0.128914,0.519544 -0.199219,0.785156 -0.07032,0.265637 -0.136726,0.515637 -0.199219,0.75 -0.06251,0.234386 -0.1211,0.441418 -0.175781,0.621094 -0.04688,0.179698 -0.08204,0.312511 -0.105469,0.398437 l -1.089843,3.75 4.183593,0"/></g></svg>