<svg xmlns="http://www.w3.org/2000/svg" xmlns:svg="http://www.w3.org/2000/svg" xmlns:xlink="http://www.w3.org/1999/xlink" id="svg4219" width="48" height="48" version="1.1"><defs id="defs4221"><linearGradient id="linearGradient3988" x1="24" x2="24" y1="5.564" y2="43" gradientTransform="matrix(0.89189189,0,0,1.1351351,2.5945999,-4.7432314)" gradientUnits="userSpaceOnUse" xlink:href="#linearGradient3977"/><linearGradient id="linearGradient3977"><stop style="stop-color:#fff;stop-opacity:1" id="stop3979" offset="0"/><stop style="stop-color:#fff;stop-opacity:.23529412" id="stop3981" offset=".036"/><stop style="stop-color:#fff;stop-opacity:.15686275" id="stop3983" offset=".951"/><stop style="stop-color:#fff;stop-opacity:.39215687" id="stop3985" offset="1"/></linearGradient><linearGradient id="linearGradient3322" x1="25.132" x2="25.132" y1=".985" y2="47.013" gradientTransform="matrix(1,0,0,0.9561695,-9.9999999e-8,-1.9149218)" gradientUnits="userSpaceOnUse" xlink:href="#linearGradient3600"/><linearGradient id="linearGradient3600"><stop style="stop-color:#f4f4f4;stop-opacity:1" id="stop3602" offset="0"/><stop style="stop-color:#dbdbdb;stop-opacity:1" id="stop3604" offset="1"/></linearGradient><linearGradient id="linearGradient3324" x1="-51.786" x2="-51.786" y1="50.786" y2="2.906" gradientTransform="matrix(0.8074968,0,0,0.8948322,59.410232,-2.9805531)" gradientUnits="userSpaceOnUse" xlink:href="#linearGradient3104"/><linearGradient id="linearGradient3104"><stop style="stop-color:#a0a0a0;stop-opacity:1" id="stop3106" offset="0"/><stop style="stop-color:#bebebe;stop-opacity:1" id="stop3108" offset="1"/></linearGradient><radialGradient id="radialGradient3327" cx="605.714" cy="486.648" r="117.143" fx="605.714" fy="486.648" gradientTransform="matrix(0.02303995,0,0,0.01470022,26.360882,37.040176)" gradientUnits="userSpaceOnUse" xlink:href="#linearGradient5060"/><linearGradient id="linearGradient5060"><stop style="stop-color:#000;stop-opacity:1" id="stop5062" offset="0"/><stop style="stop-color:#000;stop-opacity:0" id="stop5064" offset="1"/></linearGradient><radialGradient id="radialGradient3330" cx="605.714" cy="486.648" r="117.143" fx="605.714" fy="486.648" gradientTransform="matrix(-0.02303994,0,0,0.01470022,21.62311,37.040176)" gradientUnits="userSpaceOnUse" xlink:href="#linearGradient5060"/><linearGradient id="linearGradient5048"><stop style="stop-color:#000;stop-opacity:0" id="stop5050" offset="0"/><stop style="stop-color:#000;stop-opacity:1" id="stop5056" offset=".5"/><stop style="stop-color:#000;stop-opacity:0" id="stop5052" offset="1"/></linearGradient><linearGradient id="linearGradient4217" x1="302.857" x2="302.857" y1="366.648" y2="609.505" gradientTransform="matrix(0.06732488,0,0,0.01470022,-0.3411391,37.040146)" gradientUnits="userSpaceOnUse" xlink:href="#linearGradient5048"/></defs><metadata id="metadata4224"/><g id="layer1"><rect style="opacity:.3;fill:url(#linearGradient4217);fill-opacity:1;fill-rule:nonzero;stroke:none;stroke-width:1;marker:none;visibility:visible;display:inline;overflow:visible" id="rect2879" width="32.508" height="3.57" x="7.738" y="42.43"/><path style="opacity:.3;fill:url(#radialGradient3330);fill-opacity:1;fill-rule:nonzero;stroke:none;stroke-width:1;marker:none;visibility:visible;display:inline;overflow:visible" id="path2881" d="m 7.7378475,42.430102 c 0,0 0,3.569856 0,3.569856 -1.1865002,0.0067 -2.8683795,-0.799823 -2.8683795,-1.785158 0,-0.985333 1.3240446,-1.784697 2.8683795,-1.784698 z"/><path style="opacity:.3;fill:url(#radialGradient3327);fill-opacity:1;fill-rule:nonzero;stroke:none;stroke-width:1;marker:none;visibility:visible;display:inline;overflow:visible" id="path2883" d="m 40.246148,42.430102 c 0,0 0,3.569856 0,3.569856 1.1865,0.0067 2.86838,-0.799823 2.86838,-1.785158 0,-0.985333 -1.324045,-1.784697 -2.86838,-1.784698 z"/><path style="fill:url(#linearGradient3322);fill-opacity:1;stroke:url(#linearGradient3324);stroke-width:.99992186;stroke-linecap:butt;stroke-linejoin:round;stroke-miterlimit:4;stroke-opacity:1;stroke-dasharray:none;stroke-dashoffset:0;display:inline" id="path4160" d="M 6.4999609,0.497199 C 14.520256,0.497199 41.5,0.5 41.5,0.5 l 4.2e-5,44.002803 c 0,0 -23.333387,0 -35.0000811,0 0,-14.668535 0,-29.33707 0,-44.00560407 z"/><path style="fill:none;stroke:url(#linearGradient3988);stroke-width:1;stroke-linecap:round;stroke-linejoin:round;stroke-miterlimit:4;stroke-opacity:1;stroke-dasharray:none;stroke-dashoffset:0" id="rect6741-1" d="m 40.5,43.5 -33,0 0,-41.9999998 33,0 z"/><path style="opacity:.3;color:#000;fill:#fff;fill-opacity:1;fill-rule:nonzero;stroke:none;stroke-width:.98542744;marker:none;visibility:visible;display:inline;overflow:visible;enable-background:accumulate" id="rect3137-6-5-5-1" d="m 32,36 4,0 0,4 -4,0 z m -8,0 4,0 0,4 -4,0 z m -8,0 4,0 0,4 -4,0 z m 12,-4 4,0 0,4 -4,0 z m -8,0 4,0 0,4 -4,0 z m -8,0 4,0 0,4 -4,0 z m 20,-4 4,0 0,4 -4,0 z m -8,0 4,0 0,4 -4,0 z m -8,0 4,0 0,4 -4,0 z m 12,-4 4,0 0,4 -4,0 z m -8,0 4,0 0,4 -4,0 z m -8,0 4,0 0,4 -4,0 z m 20,-4 4,0 0,4 -4,0 z m -8,0 4,0 0,4 -4,0 z m -8,0 4,0 0,4 -4,0 z m 12,-4 4,0 0,4 -4,0 z m -8,0 4,0 0,4 -4,0 z m -8,0 4,0 0,4 -4,0 z m 20,-4 4,0 0,4 -4,0 z m -8,0 4,0 0,4 -4,0 z m -8,0 4,0 0,4 -4,0 z m 12,-3.9999999 4,0 L 32,12 28,12 z m -8,0 4,0 L 24,12 20,12 z m -8,0 4,0 L 16,12 12,12 z"/><path style="opacity:.2;color:#000;fill:#000;fill-opacity:1;fill-rule:nonzero;stroke:none;stroke-width:.98542744;marker:none;visibility:visible;display:inline;overflow:visible;enable-background:accumulate" id="rect3137-6-5-5" d="m 32,35 4,0 0,4 -4,0 z m -8,0 4,0 0,4 -4,0 z m -8,0 4,0 0,4 -4,0 z m 12,-4 4,0 0,4 -4,0 z m -8,0 4,0 0,4 -4,0 z m -8,0 4,0 0,4 -4,0 z m 20,-4 4,0 0,4 -4,0 z m -8,0 4,0 0,4 -4,0 z m -8,0 4,0 0,4 -4,0 z m 12,-4 4,0 0,4 -4,0 z m -8,0 4,0 0,4 -4,0 z m -8,0 4,0 0,4 -4,0 z m 20,-4 4,0 0,4 -4,0 z m -8,0 4,0 0,4 -4,0 z m -8,0 4,0 0,4 -4,0 z m 12,-4 4,0 0,4 -4,0 z m -8,0 4,0 0,4 -4,0 z m -8,0 4,0 0,4 -4,0 z m 20,-4 4,0 0,4 -4,0 z m -8,0 4,0 0,4 -4,0 z m -8,0 4,0 0,4 -4,0 z m 12,-3.9999999 4,0 L 32,11 28,11 z m -8,0 4,0 L 24,11 20,11 z m -8,0 4,0 L 16,11 12,11 z"/></g></svg>