<svg xmlns="http://www.w3.org/2000/svg" xmlns:svg="http://www.w3.org/2000/svg" xmlns:xlink="http://www.w3.org/1999/xlink" id="svg4093" width="48" height="48" version="1.1"><defs id="defs4095"><linearGradient id="linearGradient3161" x1="25" x2="25" y1="43" y2="14" gradientTransform="translate(0,-4.6093084e-4)" gradientUnits="userSpaceOnUse" xlink:href="#linearGradient3830"/><linearGradient id="linearGradient3830"><stop style="stop-color:#fff;stop-opacity:1" id="stop3832" offset="0"/><stop style="stop-color:#fff;stop-opacity:0" id="stop3834" offset="1"/></linearGradient><linearGradient id="linearGradient3164" x1="30" x2="30" y1="9.983" y2="28.585" gradientTransform="translate(0,-4.6093084e-4)" gradientUnits="userSpaceOnUse" xlink:href="#linearGradient3830"/><radialGradient id="radialGradient3167" cx="7.806" cy="9.957" r="12.672" fx="7.276" fy="9.957" gradientTransform="matrix(-1.6167311e-7,6.6018651,-8.0922115,-1.9817022e-7,104.56429,-60.072946)" gradientUnits="userSpaceOnUse" xlink:href="#linearGradient2867-449-88-871-390-598-476-591-434-148-57-177"/><linearGradient id="linearGradient2867-449-88-871-390-598-476-591-434-148-57-177"><stop style="stop-color:#90dbec;stop-opacity:1" id="stop3750" offset="0"/><stop style="stop-color:#55c1ec;stop-opacity:1" id="stop3752" offset=".262"/><stop style="stop-color:#3689e6;stop-opacity:1" id="stop3754" offset=".705"/><stop style="stop-color:#2b63a0;stop-opacity:1" id="stop3756" offset="1"/></linearGradient><linearGradient id="linearGradient3169" x1="25" x2="25" y1="47.935" y2=".918" gradientTransform="translate(0,-4.6093084e-4)" gradientUnits="userSpaceOnUse" xlink:href="#linearGradient3707-319-631-407-324"/><linearGradient id="linearGradient3707-319-631-407-324"><stop style="stop-color:#185f9a;stop-opacity:1" id="stop3760" offset="0"/><stop style="stop-color:#599ec9;stop-opacity:1" id="stop3762" offset="1"/></linearGradient><radialGradient id="radialGradient3172" cx="15.116" cy="63.965" r="12.289" fx="15.116" fy="63.965" gradientTransform="matrix(1.139227,0,0,0.4068666,6.7799989,7.7466159)" gradientUnits="userSpaceOnUse" xlink:href="#linearGradient4114-3"/><linearGradient id="linearGradient4114-3"><stop style="stop-color:#000;stop-opacity:1" id="stop4116-7" offset="0"/><stop style="stop-color:#000;stop-opacity:0" id="stop4118-4" offset="1"/></linearGradient><linearGradient id="linearGradient3243" x1="21.253" x2="21.253" y1="44.301" y2=".505" gradientTransform="translate(0,0.99953907)" gradientUnits="userSpaceOnUse" xlink:href="#linearGradient3104-5"/><linearGradient id="linearGradient3104-5"><stop style="stop-color:#aaa;stop-opacity:1" id="stop3106-2" offset="0"/><stop style="stop-color:#c8c8c8;stop-opacity:1" id="stop3108-5" offset="1"/></linearGradient><linearGradient id="linearGradient3988" x1="24" x2="24" y1="5.564" y2="43" gradientTransform="matrix(0.89189189,0,0,1.1351351,2.5945999,-4.7432314)" gradientUnits="userSpaceOnUse" xlink:href="#linearGradient3977"/><linearGradient id="linearGradient3977"><stop style="stop-color:#fff;stop-opacity:1" id="stop3979" offset="0"/><stop style="stop-color:#fff;stop-opacity:.23529412" id="stop3981" offset=".036"/><stop style="stop-color:#fff;stop-opacity:.15686275" id="stop3983" offset=".951"/><stop style="stop-color:#fff;stop-opacity:.39215687" id="stop3985" offset="1"/></linearGradient><linearGradient id="linearGradient3322" x1="25.132" x2="25.132" y1=".985" y2="47.013" gradientTransform="matrix(1,0,0,0.9561695,-9.9999999e-8,-1.9149218)" gradientUnits="userSpaceOnUse" xlink:href="#linearGradient3600"/><linearGradient id="linearGradient3600"><stop style="stop-color:#f4f4f4;stop-opacity:1" id="stop3602" offset="0"/><stop style="stop-color:#dbdbdb;stop-opacity:1" id="stop3604" offset="1"/></linearGradient><linearGradient id="linearGradient3324" x1="-51.786" x2="-51.786" y1="50.786" y2="2.906" gradientTransform="matrix(0.8074968,0,0,0.8948322,59.410232,-2.9805531)" gradientUnits="userSpaceOnUse" xlink:href="#linearGradient3104"/><linearGradient id="linearGradient3104"><stop style="stop-color:#a0a0a0;stop-opacity:1" id="stop3106" offset="0"/><stop style="stop-color:#bebebe;stop-opacity:1" id="stop3108" offset="1"/></linearGradient><radialGradient id="radialGradient3327" cx="605.714" cy="486.648" r="117.143" fx="605.714" fy="486.648" gradientTransform="matrix(0.02303995,0,0,0.01470022,26.360882,37.040176)" gradientUnits="userSpaceOnUse" xlink:href="#linearGradient5060"/><linearGradient id="linearGradient5060"><stop style="stop-color:#000;stop-opacity:1" id="stop5062" offset="0"/><stop style="stop-color:#000;stop-opacity:0" id="stop5064" offset="1"/></linearGradient><radialGradient id="radialGradient3330" cx="605.714" cy="486.648" r="117.143" fx="605.714" fy="486.648" gradientTransform="matrix(-0.02303994,0,0,0.01470022,21.62311,37.040176)" gradientUnits="userSpaceOnUse" xlink:href="#linearGradient5060"/><linearGradient id="linearGradient5048"><stop style="stop-color:#000;stop-opacity:0" id="stop5050" offset="0"/><stop style="stop-color:#000;stop-opacity:1" id="stop5056" offset=".5"/><stop style="stop-color:#000;stop-opacity:0" id="stop5052" offset="1"/></linearGradient><linearGradient id="linearGradient4091" x1="302.857" x2="302.857" y1="366.648" y2="609.505" gradientTransform="matrix(0.06732488,0,0,0.01470022,-0.3411391,37.040146)" gradientUnits="userSpaceOnUse" xlink:href="#linearGradient5048"/></defs><metadata id="metadata4098"/><g id="layer1"><rect style="opacity:.3;fill:url(#linearGradient4091);fill-opacity:1;fill-rule:nonzero;stroke:none;stroke-width:1;marker:none;visibility:visible;display:inline;overflow:visible" id="rect2879" width="32.508" height="3.57" x="7.738" y="42.43"/><path style="opacity:.3;fill:url(#radialGradient3330);fill-opacity:1;fill-rule:nonzero;stroke:none;stroke-width:1;marker:none;visibility:visible;display:inline;overflow:visible" id="path2881" d="m 7.7378475,42.430102 c 0,0 0,3.569856 0,3.569856 -1.1865002,0.0067 -2.8683795,-0.799823 -2.8683795,-1.785158 0,-0.985333 1.3240446,-1.784697 2.8683795,-1.784698 z"/><path style="opacity:.3;fill:url(#radialGradient3327);fill-opacity:1;fill-rule:nonzero;stroke:none;stroke-width:1;marker:none;visibility:visible;display:inline;overflow:visible" id="path2883" d="m 40.246148,42.430102 c 0,0 0,3.569856 0,3.569856 1.1865,0.0067 2.86838,-0.799823 2.86838,-1.785158 0,-0.985333 -1.324045,-1.784697 -2.86838,-1.784698 z"/><path style="fill:url(#linearGradient3322);fill-opacity:1;stroke:url(#linearGradient3324);stroke-width:.99992186;stroke-linecap:butt;stroke-linejoin:round;stroke-miterlimit:4;stroke-opacity:1;stroke-dasharray:none;stroke-dashoffset:0;display:inline" id="path4160" d="M 6.4999609,0.497199 C 14.520256,0.497199 41.5,0.5 41.5,0.5 l 4.2e-5,44.002803 c 0,0 -23.333387,0 -35.0000811,0 0,-14.668535 0,-29.33707 0,-44.00560407 z"/><path style="fill:none;stroke:url(#linearGradient3988);stroke-width:1;stroke-linecap:round;stroke-linejoin:round;stroke-miterlimit:4;stroke-opacity:1;stroke-dasharray:none;stroke-dashoffset:0" id="rect6741-1" d="m 40.5,43.5 -33,0 0,-41.9999998 33,0 z"/><path style="fill:url(#linearGradient3243);fill-opacity:1;stroke:none;display:inline" id="path4149" d="m 11,6.9995391 0,1 2.375,0 0,-1 z m 2.6875,0 0,1 2.25,0 0,-1 z m 2.5625,0 0,1 1.96875,0 0,-1 z m 2.28125,0 0,1 0.875,0 0,-1 z m 1.1875,0 0,1 1.9375,0 0,-1 z m 2.28125,0 0,1 5,0 0,-1 z m -11,2 0,1 3.78125,0 0,-1 z m 4.15625,0 0,1 1.8125,0 0,-1 z m 2.15625,0 0,1 0.84375,0 0,-1 z m 1.21875,0 0,1 1.625,0 0,-1 z m 2,0 0,1 1.625,0 0,-1 z m 1.96875,0 0,1 2.65625,0 0,-1 z m 3.03125,0 0,1 3.46875,0 0,-1 z M 11,10.999539 l 0,1 4.1875,0 0,-1 z m 4.5,0 0,1 4.5,0 0,-1 z m -4.5,2 0,1 2.3125,0 0,-1 z m 2.625,0 0,1 2.15625,0 0,-1 z m 2.46875,0 0,1 1.90625,0 0,-1 z m -5.09375,3 0,1 3.0625,0 0,-1 z m 3.40625,0 0,1 5.59375,0 0,-1 z m -3.40625,2 0,1 3.09375,0 0,-1 z m 3.4375,0 0,1 5.09375,0 0,-1 c -2.793015,2.815966 -6.719442,8.546423 -5.09375,0 z m 5.46875,0 0,1 1.90625,0 0,-1 z m 2.21875,0 0,1 1.90625,0 0,-1 z m 2.21875,0 0,1 2.75,0 0,-1 z m 3.09375,0 0,1 0.5625,0 0,-1 z m -16.4375,3 0,1 2.34375,0 0,-1 z m 0,2 0,1 1,0 0,-1 z m 0,2 0,1 2.75,0 0,-1 z m 9,0 0,1 2.34375,0 0,-1 z m 2.65625,0 0,1 2.1875,0 0,-1 z m 2.5,0 0,1 1.84375,0 0,-1 z m -14.15625,2 0,1 2.9375,0 0,-1 z m 9,0 0,1 1.875,0 0,-1 z m 2.1875,0 0,1 4.8125,0 0,-1 z m 5.125,0 0,1 3.6875,0 0,-1 z m -16.3125,2 0,1 2.53125,0 0,-1 z m 9,0 0,1 2.4375,0 0,-1 z m 2.78125,0 0,1 4.28125,0 0,-1 z m 4.59375,0 0,1 2.9375,0 0,-1 z M 11,31.155789 l 0,0.96875 2.21875,0 0,-0.96875 z m 2.5625,0 0,0.96875 2.125,0 0,-0.96875 z M 11,33.999539 l 0,1 4.28125,0 0,-1 z m 4.625,0 0,1 4.59375,0 0,-1 z m 11.75,0 0,1 2.96875,0 0,-1 z m 3.28125,0 0,1 1.15625,0 0,-1 z m 1.5,0 0,1 0.6875,0 0,-1 z m 1,0 0,1 1.84375,0 0,-1 z m -22.15625,2 0,1 3.6875,0 0,-1 z m 3.96875,0 0,1 1.78125,0 0,-1 z m 2.15625,0 0,1 0.8125,0 0,-1 z m 1.03125,0 0,1 1.625,0 0,-1 z m 1.875,0 0,1 1.625,0 0,-1 z m 2.125,0 0,1 2.59375,0 0,-1 z m 2.90625,0 0,1 3.375,0 0,-1 z m 3.84375,0 0,1 2.28125,0 0,-1 z m 2.5625,0 0,1 0.53125,0 0,-1 z m -20.46875,2 0,1 3.03125,0 0,-1 z m 3.34375,0 0,1 3.34375,0 0,-1 z m 5.59375,0 0,1 2.4375,0 0,-1 z m 2.75,0 0,1 2.25,0 0,-1 z m 2.59375,0 0,1 1.9375,0 0,-1 z m 2.25,0 0,1 3.09375,0 0,-1 z m 3.4375,0 0,1 5.03125,0 0,-1 z"/><path style="opacity:.3;fill:url(#radialGradient3172);fill-opacity:1;stroke:none;display:inline" id="path2917" d="M 38.000001,33.772005 C 38.001501,36.533817 31.733075,38.773 24,38.773 16.266925,38.773 9.9984609,36.533817 9.9999989,33.772005 9.9984589,31.010193 16.266925,28.77101 24,28.77101 c 7.733075,0 14.00154,2.239183 14.000001,5.000995 z"/><path style="fill:url(#radialGradient3167);fill-opacity:1;fill-rule:nonzero;stroke:url(#linearGradient3169);stroke-width:1;stroke-linecap:square;stroke-linejoin:round;stroke-miterlimit:4;stroke-opacity:1;stroke-dasharray:none;stroke-dashoffset:0;marker:none;visibility:visible;display:inline;overflow:visible;enable-background:accumulate" id="path3737" d="m 24,10.499539 c -6.9,0 -12.499999,5.6 -12.5,12.5 0,6.9 5.599999,12.499999 12.5,12.5 5.125438,0 10,-3.5 11.553499,-8 l -5.536003,0 c -1.331447,1.750621 -3.793958,3 -6.017496,3 -4.14,0 -7.5,-3.36 -7.5,-7.5 -2e-6,-4.14 3.36,-7.5 7.5,-7.5 2.667408,0 5.183494,1.900424 6.513248,4 l 4.949131,0 c -0.462379,-4.5 -5.960437,-9 -11.462379,-9 z"/><path style="opacity:.5;fill:none;stroke:url(#linearGradient3164);stroke-width:1;stroke-linecap:square;stroke-linejoin:miter;stroke-miterlimit:4;stroke-opacity:1;stroke-dasharray:none;stroke-dashoffset:0;marker:none;visibility:visible;display:inline;overflow:visible;enable-background:accumulate" id="path3838" d="m 34.125,17.937039 c -1.850043,-3.787458 -5.875951,-6.433675 -10.125,-6.375 -4.449315,-0.06217 -8.751065,2.759233 -10.485048,6.853654 -1.845338,4.107129 -0.950527,9.256661 2.202417,12.47864 2.140297,2.305678 5.28364,3.567885 8.406425,3.542411"/><path style="opacity:.5;fill:none;stroke:url(#linearGradient3161);stroke-width:1;stroke-linecap:square;stroke-linejoin:miter;stroke-miterlimit:4;stroke-opacity:1;stroke-dasharray:none;stroke-dashoffset:0;marker:none;visibility:visible;display:inline;overflow:visible;enable-background:accumulate" id="path3845" d="m 23.560696,14.448223 c -4.019671,0.132986 -7.611931,3.468568 -8.054149,7.463758 -0.566086,3.852928 1.888226,7.846435 5.555393,9.128804 3.010601,1.169689 7.32868,0.172164 9.361806,-2.549741 l 4.576254,0"/></g></svg>