<svg xmlns="http://www.w3.org/2000/svg" xmlns:svg="http://www.w3.org/2000/svg" xmlns:xlink="http://www.w3.org/1999/xlink" id="svg3901" width="48" height="48" version="1.1"><defs id="defs3903"><linearGradient id="linearGradient3029"><stop style="stop-color:#fff;stop-opacity:1" id="stop3031" offset="0"/><stop style="stop-color:#fff;stop-opacity:.23529412" id="stop3033" offset=".015"/><stop style="stop-color:#fff;stop-opacity:.15686275" id="stop3035" offset=".985"/><stop style="stop-color:#fff;stop-opacity:.39215687" id="stop3037" offset="1"/></linearGradient><linearGradient id="linearGradient3600"><stop style="stop-color:#f4f4f4;stop-opacity:1" id="stop3602" offset="0"/><stop style="stop-color:#dbdbdb;stop-opacity:1" id="stop3604" offset="1"/></linearGradient><linearGradient id="linearGradient5060"><stop style="stop-color:#000;stop-opacity:1" id="stop5062" offset="0"/><stop style="stop-color:#000;stop-opacity:0" id="stop5064" offset="1"/></linearGradient><linearGradient id="linearGradient5048"><stop style="stop-color:#000;stop-opacity:0" id="stop5050" offset="0"/><stop style="stop-color:#000;stop-opacity:1" id="stop5056" offset=".5"/><stop style="stop-color:#000;stop-opacity:0" id="stop5052" offset="1"/></linearGradient><linearGradient id="linearGradient3104-6"><stop id="stop3106-3" offset="0" style="stop-color:#000;stop-opacity:.31782946"/><stop id="stop3108-9" offset="1" style="stop-color:#000;stop-opacity:.24031007"/></linearGradient><linearGradient id="linearGradient3106" x1="24" x2="24" y1="5.564" y2="42.111" gradientTransform="matrix(0.89189189,0,0,1.1351351,2.5945999,-4.7432314)" gradientUnits="userSpaceOnUse" xlink:href="#linearGradient3029"/><linearGradient id="linearGradient3109" x1="25.132" x2="25.132" y1=".985" y2="47.013" gradientTransform="matrix(0.97142632,0,0,0.93431938,0.68576678,-1.3569996)" gradientUnits="userSpaceOnUse" xlink:href="#linearGradient3600"/><radialGradient id="radialGradient3112" cx="605.714" cy="486.648" r="117.143" fx="605.714" fy="486.648" gradientTransform="matrix(0.02303995,0,0,0.01470022,26.360882,37.040176)" gradientUnits="userSpaceOnUse" xlink:href="#linearGradient5060"/><radialGradient id="radialGradient3115" cx="605.714" cy="486.648" r="117.143" fx="605.714" fy="486.648" gradientTransform="matrix(-0.02303994,0,0,0.01470022,21.62311,37.040176)" gradientUnits="userSpaceOnUse" xlink:href="#linearGradient5060"/><linearGradient id="linearGradient3118" x1="302.857" x2="302.857" y1="366.648" y2="609.505" gradientTransform="matrix(0.06732488,0,0,0.01470022,-0.3411391,37.040146)" gradientUnits="userSpaceOnUse" xlink:href="#linearGradient5048"/><linearGradient id="linearGradient3170" x1="-51.786" x2="-51.786" y1="50.786" y2="2.906" gradientTransform="matrix(0.80749686,0,0,0.89471714,59.410232,-2.9773433)" gradientUnits="userSpaceOnUse" xlink:href="#linearGradient3104-6"/></defs><metadata id="metadata3906"/><rect id="rect2879" width="32.508" height="3.57" x="7.738" y="42.43" style="opacity:.3;fill:url(#linearGradient3118);fill-opacity:1;fill-rule:nonzero;stroke:none;stroke-width:1;marker:none;visibility:visible;display:inline;overflow:visible"/><path id="path2881" d="m 7.7378475,42.430102 0,3.569856 C 6.5513473,46.006658 4.869468,45.200135 4.869468,44.2148 c 0,-0.985333 1.3240446,-1.784697 2.8683795,-1.784698 z" style="display:inline;overflow:visible;visibility:visible;opacity:.3;fill:url(#radialGradient3115);fill-opacity:1;fill-rule:nonzero;stroke:none;stroke-width:1;marker:none"/><path id="path2883" d="m 40.246148,42.430102 0,3.569856 c 1.1865,0.0067 2.86838,-0.799823 2.86838,-1.785158 0,-0.985333 -1.324045,-1.784697 -2.86838,-1.784698 z" style="display:inline;overflow:visible;visibility:visible;opacity:.3;fill:url(#radialGradient3112);fill-opacity:1;fill-rule:nonzero;stroke:none;stroke-width:1;marker:none"/><path id="path4160" d="m 7,1.0000001 c 7.791126,0 33.999959,0.00274 33.999959,0.00274 L 41,44 7,44 Z" style="display:inline;fill:url(#linearGradient3109);fill-opacity:1;stroke:none"/><path id="rect6741-1" d="m 40.5,43.5 -33,0 0,-41.9999998 33,0 z" style="fill:none;stroke:url(#linearGradient3106);stroke-width:1;stroke-linecap:round;stroke-linejoin:miter;stroke-miterlimit:4;stroke-dasharray:none;stroke-dashoffset:0;stroke-opacity:1"/><path id="path4160-6-1" d="m 6.4999605,0.4999623 c 8.0202885,0 35.0000415,0.00298 35.0000415,0.00298 l 3.7e-5,43.9970957 -35.0000785,0 0,-43.9998923 z" style="display:inline;fill:none;stroke:url(#linearGradient3170);stroke-width:.99992192;stroke-linecap:butt;stroke-linejoin:round;stroke-miterlimit:4;stroke-dasharray:none;stroke-dashoffset:0;stroke-opacity:1"/><g id="g4235" transform="translate(0,-12.229793)"><path style="color:#000;font-style:normal;font-variant:normal;font-weight:600;font-stretch:normal;font-size:19px;line-height:125%;font-family:'Open Sans';-inkscape-font-specification:'Open Sans Semi-Bold';text-align:start;letter-spacing:0;word-spacing:0;writing-mode:lr-tb;text-anchor:start;display:inline;overflow:visible;visibility:visible;opacity:.4;fill:#fff;fill-opacity:1;fill-rule:nonzero;stroke:none;marker:none;enable-background:accumulate" id="path3873" d="m 19,28.229793 c -1.445369,1.4e-5 -2.211493,0.214124 -2.9375,0.65625 C 15.343145,29.322219 15,30.016479 15,30.948543 l 0,2.78125 c 0,0.555667 -0.2479,0.943915 -0.6875,1.21875 -0.432945,0.268875 -1.413312,0.437506 -2.3125,0.4375 l 0,1.6875 c 1.771732,4e-6 3,0.576183 3,1.6875 l 0,2.53125 c 0,1.021697 0.32727,1.79591 1,2.25 0.679383,0.46006 1.461383,0.675547 3,0.6875 l 0,-1.625 C 18.234018,42.592843 17.839687,42.449485 17.5,42.198543 17.1603,41.9476 17,41.59473 17,41.104793 l 0,-2.6875 c 0,-1.20094 -0.599714,-1.909901 -2.125,-2.125 l 0,-0.125 C 16.400286,35.93428 17,35.200044 17,34.011043 l 0,-2.65625 c 0,-0.489927 0.1603,-0.81752 0.5,-1.0625 0.346348,-0.250932 0.740679,-0.407615 1.5,-0.4375 l 0,-1.625 z m 10,0 0,1.625 c 0.759321,0.02989 1.153652,0.186568 1.5,0.4375 0.3397,0.24498 0.5,0.572573 0.5,1.0625 l 0,2.65625 c 0,1.189001 0.599714,1.923237 2.125,2.15625 l 0,0.125 C 31.599714,36.507392 31,37.216353 31,38.417293 l 0,2.6875 c 0,0.489937 -0.1603,0.842807 -0.5,1.09375 -0.339687,0.250942 -0.734018,0.3943 -1.5,0.40625 l 0,1.625 c 1.538617,-0.01195 2.320617,-0.22744 3,-0.6875 0.67273,-0.45409 1,-1.228303 1,-2.25 l 0,-2.53125 c 0,-1.111317 1.228268,-1.687496 3,-1.6875 l 0,-1.6875 c -0.899188,6e-6 -1.879555,-0.168625 -2.3125,-0.4375 C 33.2479,34.673708 33,34.28546 33,33.729793 l 0,-2.78125 c 0,-0.932064 -0.343145,-1.626324 -1.0625,-2.0625 C 31.211493,28.443917 30.445369,28.229807 29,28.229793 Z"/><path style="color:#000;font-style:normal;font-variant:normal;font-weight:600;font-stretch:normal;font-size:19px;line-height:125%;font-family:'Open Sans';-inkscape-font-specification:'Open Sans Semi-Bold';text-align:start;letter-spacing:0;word-spacing:0;writing-mode:lr-tb;text-anchor:start;display:inline;overflow:visible;visibility:visible;fill:#999;fill-opacity:1;fill-rule:nonzero;stroke:none;marker:none;enable-background:accumulate" id="path3873-9" d="m 19,27.229793 c -1.445369,1.4e-5 -2.211493,0.214124 -2.9375,0.65625 C 15.343145,28.322219 15,29.016479 15,29.948543 l 0,2.78125 c 0,0.555667 -0.2479,0.943915 -0.6875,1.21875 -0.432945,0.268875 -1.413312,0.437506 -2.3125,0.4375 l 0,1.6875 c 1.771732,4e-6 3,0.576183 3,1.6875 l 0,2.53125 c 0,1.021697 0.32727,1.79591 1,2.25 0.679383,0.46006 1.461383,0.675547 3,0.6875 l 0,-1.625 C 18.234018,41.592843 17.839687,41.449485 17.5,41.198543 17.1603,40.9476 17,40.59473 17,40.104793 l 0,-2.6875 c 0,-1.20094 -0.599714,-1.909901 -2.125,-2.125 l 0,-0.125 C 16.400286,34.93428 17,34.200044 17,33.011043 l 0,-2.65625 c 0,-0.489927 0.1603,-0.81752 0.5,-1.0625 0.346348,-0.250932 0.740679,-0.407615 1.5,-0.4375 l 0,-1.625 z m 10,0 0,1.625 c 0.759321,0.02989 1.153652,0.186568 1.5,0.4375 0.3397,0.24498 0.5,0.572573 0.5,1.0625 l 0,2.65625 c 0,1.189001 0.599714,1.923237 2.125,2.15625 l 0,0.125 C 31.599714,35.507392 31,36.216353 31,37.417293 l 0,2.6875 c 0,0.489937 -0.1603,0.842807 -0.5,1.09375 -0.339687,0.250942 -0.734018,0.3943 -1.5,0.40625 l 0,1.625 c 1.538617,-0.01195 2.320617,-0.22744 3,-0.6875 0.67273,-0.45409 1,-1.228303 1,-2.25 l 0,-2.53125 c 0,-1.111317 1.228268,-1.687496 3,-1.6875 l 0,-1.6875 c -0.899188,6e-6 -1.879555,-0.168625 -2.3125,-0.4375 C 33.2479,33.673708 33,33.28546 33,32.729793 l 0,-2.78125 c 0,-0.932064 -0.343145,-1.626324 -1.0625,-2.0625 C 31.211493,27.443917 30.445369,27.229807 29,27.229793 Z"/></g></svg>