<svg xmlns="http://www.w3.org/2000/svg" xmlns:svg="http://www.w3.org/2000/svg" xmlns:xlink="http://www.w3.org/1999/xlink" id="svg4168" width="48" height="48" version="1.1"><defs id="defs4170"><linearGradient id="linearGradient3058" x1="28.534" x2="16.887" y1="24.24" y2="13.664" gradientTransform="matrix(1.0501977,0,0,0.9932209,-1.681624,-0.76407796)" gradientUnits="userSpaceOnUse" xlink:href="#linearGradient4102"/><linearGradient id="linearGradient4102"><stop style="stop-color:#fda852;stop-opacity:1" id="stop4104" offset="0"/><stop style="stop-color:#fff;stop-opacity:0" id="stop4106" offset="1"/></linearGradient><linearGradient id="linearGradient3988" x1="24" x2="24" y1="5.564" y2="43" gradientTransform="matrix(0.89189189,0,0,1.1351351,2.5945999,-4.7432314)" gradientUnits="userSpaceOnUse" xlink:href="#linearGradient3977"/><linearGradient id="linearGradient3977"><stop style="stop-color:#fff;stop-opacity:1" id="stop3979" offset="0"/><stop style="stop-color:#fff;stop-opacity:.23529412" id="stop3981" offset=".036"/><stop style="stop-color:#fff;stop-opacity:.15686275" id="stop3983" offset=".951"/><stop style="stop-color:#fff;stop-opacity:.39215687" id="stop3985" offset="1"/></linearGradient><linearGradient id="linearGradient3322" x1="25.132" x2="25.132" y1=".985" y2="47.013" gradientTransform="matrix(1,0,0,0.9561695,-9.9999999e-8,-1.9149218)" gradientUnits="userSpaceOnUse" xlink:href="#linearGradient3600"/><linearGradient id="linearGradient3600"><stop style="stop-color:#f4f4f4;stop-opacity:1" id="stop3602" offset="0"/><stop style="stop-color:#dbdbdb;stop-opacity:1" id="stop3604" offset="1"/></linearGradient><linearGradient id="linearGradient3324" x1="-51.786" x2="-51.786" y1="50.786" y2="2.906" gradientTransform="matrix(0.8074968,0,0,0.8948322,59.410232,-2.9805531)" gradientUnits="userSpaceOnUse" xlink:href="#linearGradient3104"/><linearGradient id="linearGradient3104"><stop style="stop-color:#a0a0a0;stop-opacity:1" id="stop3106" offset="0"/><stop style="stop-color:#bebebe;stop-opacity:1" id="stop3108" offset="1"/></linearGradient><radialGradient id="radialGradient3327" cx="605.714" cy="486.648" r="117.143" fx="605.714" fy="486.648" gradientTransform="matrix(0.02303995,0,0,0.01470022,26.360882,37.040176)" gradientUnits="userSpaceOnUse" xlink:href="#linearGradient5060"/><linearGradient id="linearGradient5060"><stop style="stop-color:#000;stop-opacity:1" id="stop5062" offset="0"/><stop style="stop-color:#000;stop-opacity:0" id="stop5064" offset="1"/></linearGradient><radialGradient id="radialGradient3330" cx="605.714" cy="486.648" r="117.143" fx="605.714" fy="486.648" gradientTransform="matrix(-0.02303994,0,0,0.01470022,21.62311,37.040176)" gradientUnits="userSpaceOnUse" xlink:href="#linearGradient5060"/><linearGradient id="linearGradient5048"><stop style="stop-color:#000;stop-opacity:0" id="stop5050" offset="0"/><stop style="stop-color:#000;stop-opacity:1" id="stop5056" offset=".5"/><stop style="stop-color:#000;stop-opacity:0" id="stop5052" offset="1"/></linearGradient><linearGradient id="linearGradient4166" x1="302.857" x2="302.857" y1="366.648" y2="609.505" gradientTransform="matrix(0.06732488,0,0,0.01470022,-0.3411391,37.040146)" gradientUnits="userSpaceOnUse" xlink:href="#linearGradient5048"/><radialGradient id="radialGradient3907" cx="605.714" cy="486.648" r="117.143" fx="605.714" fy="486.648" gradientTransform="matrix(0.02303995,0,0,0.01470022,26.360882,36.963253)" gradientUnits="userSpaceOnUse" xlink:href="#linearGradient5060-3"/><linearGradient id="linearGradient5060-3"><stop style="stop-color:#000;stop-opacity:1" id="stop5062-5" offset="0"/><stop style="stop-color:#000;stop-opacity:0" id="stop5064-2" offset="1"/></linearGradient><linearGradient id="linearGradient3909" x1="42.784" x2="38.972" y1="32.537" y2="18.124" gradientTransform="matrix(1.3333334,0,0,-1.3333334,-16.166666,70.166667)" gradientUnits="userSpaceOnUse" xlink:href="#linearGradient3412"/><linearGradient id="linearGradient3412"><stop style="stop-color:#fcfcfc;stop-opacity:1" id="stop3414" offset="0"/><stop style="stop-color:#cbcdd9;stop-opacity:1" id="stop3416" offset="1"/></linearGradient><linearGradient id="linearGradient3911" x1="40.106" x2="33.811" y1="31.657" y2="18.354" gradientTransform="matrix(1.33,0,0,-1.33,-16.064999,70.028077)" gradientUnits="userSpaceOnUse" xlink:href="#linearGradient3428"/><linearGradient id="linearGradient3428"><stop style="stop-color:#fff;stop-opacity:1" id="stop3430" offset="0"/><stop style="stop-color:#fff;stop-opacity:0" id="stop3432" offset="1"/></linearGradient></defs><metadata id="metadata4173"/><g id="layer1"><rect style="opacity:.3;fill:url(#linearGradient4166);fill-opacity:1;fill-rule:nonzero;stroke:none;stroke-width:1;marker:none;visibility:visible;display:inline;overflow:visible" id="rect2879" width="32.508" height="3.57" x="7.738" y="42.43"/><path style="opacity:.3;fill:url(#radialGradient3330);fill-opacity:1;fill-rule:nonzero;stroke:none;stroke-width:1;marker:none;visibility:visible;display:inline;overflow:visible" id="path2881" d="m 7.7378475,42.430102 c 0,0 0,3.569856 0,3.569856 -1.1865002,0.0067 -2.8683795,-0.799823 -2.8683795,-1.785158 0,-0.985333 1.3240446,-1.784697 2.8683795,-1.784698 z"/><path style="opacity:.3;fill:url(#radialGradient3327);fill-opacity:1;fill-rule:nonzero;stroke:none;stroke-width:1;marker:none;visibility:visible;display:inline;overflow:visible" id="path2883" d="m 40.246148,42.430102 c 0,0 0,3.569856 0,3.569856 1.1865,0.0067 2.86838,-0.799823 2.86838,-1.785158 0,-0.985333 -1.324045,-1.784697 -2.86838,-1.784698 z"/><path style="fill:url(#linearGradient3322);fill-opacity:1;stroke:url(#linearGradient3324);stroke-width:.99992186;stroke-linecap:butt;stroke-linejoin:round;stroke-miterlimit:4;stroke-opacity:1;stroke-dasharray:none;stroke-dashoffset:0;display:inline" id="path4160" d="M 6.4999609,0.497199 C 14.520256,0.497199 41.5,0.5 41.5,0.5 l 4.2e-5,44.002803 c 0,0 -23.333387,0 -35.0000811,0 0,-14.668535 0,-29.33707 0,-44.00560407 z"/><path style="fill:none;stroke:url(#linearGradient3988);stroke-width:1;stroke-linecap:round;stroke-linejoin:round;stroke-miterlimit:4;stroke-opacity:1;stroke-dasharray:none;stroke-dashoffset:0" id="rect6741-1" d="m 40.5,43.5 -33,0 0,-41.9999998 33,0 z"/><path style="fill:url(#linearGradient3058);fill-opacity:1;fill-rule:evenodd;stroke:#ea541a;stroke-width:.99999982px;stroke-linecap:butt;stroke-linejoin:miter;stroke-opacity:1" id="path2783" d="m 15.493102,34.578022 c 4.386207,2.813793 13.962591,-0.950658 6.001067,-11.02474 C 13.604717,13.570396 29.332759,7.0228144 34,18.567721"/><path style="fill:#f37329;fill-opacity:1;stroke:#ea541a;stroke-width:1px;stroke-linecap:butt;stroke-linejoin:miter;stroke-opacity:1" id="path3571" d="M 14.438316,14.480986 29.568109,33.402047"/><path style="fill:#e6e6e6;fill-opacity:1;stroke:#ea541a;stroke-width:1;stroke-linecap:butt;stroke-miterlimit:4;stroke-opacity:1;stroke-dasharray:none" id="path3575" d="m 30.5,33.500001 c 3.72e-4,0.552547 -0.447453,1.000673 -1,1.000673 -0.552547,0 -1.000372,-0.448126 -1,-1.000673 -3.72e-4,-0.552548 0.447453,-1.000674 1,-1.000674 0.552547,0 1.000372,0.448126 1,1.000674 l 0,0 z M 15.5,14.5 c 3.72e-4,0.552548 -0.447453,1.000673 -1,1.000673 -0.552547,0 -1.000372,-0.448125 -1,-1.000673 -3.72e-4,-0.552548 0.447453,-1.000673 1,-1.000673 0.552547,0 1.000372,0.448125 1,1.000673 l 0,0 z"/><path style="fill:#ea541a;fill-opacity:1;stroke:none" id="rect3569" d="m 20,22 3,0 0,3 -3,0 z m 12,-5 3,0 0,3 -3,0 z m -19,16 3,0 0,3 -3,0 z"/></g><g id="g3896" transform="translate(-2.000001,0)"><path style="opacity:.3;fill:url(#radialGradient3907);fill-opacity:1;fill-rule:nonzero;stroke:none;stroke-width:1;marker:none;visibility:visible;display:inline;overflow:visible" id="path2883-9" d="m 40.246148,42.353179 c 0,0 0,3.569856 0,3.569856 1.1865,0.0067 2.86838,-0.799823 2.86838,-1.785158 0,-0.985333 -1.324045,-1.784697 -2.86838,-1.784698 z"/><path style="opacity:.8;fill:url(#linearGradient3909);fill-opacity:1;fill-rule:evenodd;stroke:#83899a;stroke-width:1;stroke-linecap:butt;stroke-linejoin:miter;stroke-miterlimit:4;stroke-opacity:1;stroke-dasharray:none" id="path3410" d="m 24.500001,45.5 20.000001,-20.000001 0,20.000001 -20.000001,0 z m 9.333333,-4.000001 6.666667,0 0,-6.666666 -6.666667,6.666666 z"/><path style="opacity:.4;fill:none;stroke:url(#linearGradient3911);stroke-width:1;stroke-linecap:butt;stroke-linejoin:miter;stroke-miterlimit:4;stroke-opacity:1;stroke-dasharray:none" id="path3424" d="m 27.450938,44.217765 15.79375,-15.793751 0,15.793751 -15.79375,0 z"/><path style="opacity:.6;fill:none;stroke:#83899a;stroke-width:1px;stroke-linecap:square;stroke-linejoin:miter;stroke-opacity:1" id="path3082" d="M 29.5,44.346154 29.5,45.5"/><path style="opacity:.6;fill:none;stroke:#83899a;stroke-width:1px;stroke-linecap:square;stroke-linejoin:miter;stroke-opacity:1" id="path3854" d="M 34.5,44.346154 34.5,45.5"/><path style="opacity:.6;fill:none;stroke:#83899a;stroke-width:1px;stroke-linecap:square;stroke-linejoin:miter;stroke-opacity:1" id="path3856" d="M 39.5,44.346154 39.5,45.5"/><path style="opacity:.6;fill:none;stroke:#83899a;stroke-width:1px;stroke-linecap:square;stroke-linejoin:miter;stroke-opacity:1" id="path3858" d="m 44.50049,35.423077 -1.00049,0"/><path style="opacity:.6;fill:none;stroke:#83899a;stroke-width:1px;stroke-linecap:square;stroke-linejoin:miter;stroke-opacity:1" id="path3860" d="m 44.50049,40.423077 -1.00049,0"/><path style="opacity:.6;fill:none;stroke:#83899a;stroke-width:1px;stroke-linecap:square;stroke-linejoin:miter;stroke-opacity:1" id="path3862" d="m 44.50049,30.423077 -1.00049,0"/></g></svg>