<svg xmlns="http://www.w3.org/2000/svg" xmlns:svg="http://www.w3.org/2000/svg" xmlns:xlink="http://www.w3.org/1999/xlink" id="svg4112" width="48" height="48" version="1.1"><defs id="defs4114"><linearGradient id="linearGradient3977"><stop style="stop-color:#fff;stop-opacity:1" id="stop3979" offset="0"/><stop style="stop-color:#fff;stop-opacity:.23529412" id="stop3981" offset=".036"/><stop style="stop-color:#fff;stop-opacity:.15686275" id="stop3983" offset=".951"/><stop style="stop-color:#fff;stop-opacity:.39215687" id="stop3985" offset="1"/></linearGradient><linearGradient id="linearGradient5060"><stop style="stop-color:#000;stop-opacity:1" id="stop5062" offset="0"/><stop style="stop-color:#000;stop-opacity:0" id="stop5064" offset="1"/></linearGradient><linearGradient id="linearGradient5048"><stop style="stop-color:#000;stop-opacity:0" id="stop5050" offset="0"/><stop style="stop-color:#000;stop-opacity:1" id="stop5056" offset=".5"/><stop style="stop-color:#000;stop-opacity:0" id="stop5052" offset="1"/></linearGradient><linearGradient id="linearGradient3242-7-3-8-0-4-58-06"><stop style="stop-color:#cdf87e;stop-opacity:1" id="stop3244-5-8-5-6-4-3-8" offset="0"/><stop style="stop-color:#a2e34f;stop-opacity:1" id="stop3246-9-5-1-5-3-0-7" offset=".262"/><stop style="stop-color:#68b723;stop-opacity:1" id="stop3248-7-2-0-7-5-35-9" offset=".661"/><stop style="stop-color:#1d7e0d;stop-opacity:1" id="stop3250-8-2-8-5-6-40-4" offset="1"/></linearGradient><radialGradient id="radialGradient3166" cx="11.789" cy="15.035" r="12.5" fx="11.789" fy="15.035" gradientTransform="matrix(0,5.7016975,-8.7110963,0,138.28319,-69.708283)" gradientUnits="userSpaceOnUse" xlink:href="#linearGradient3242-7-3-8-0-4-58-06"/><linearGradient id="linearGradient3169" x1="24" x2="24" y1="5.564" y2="43" gradientTransform="matrix(0.89189189,0,0,1.1351351,2.5945999,-4.7432315)" gradientUnits="userSpaceOnUse" xlink:href="#linearGradient3977"/><radialGradient id="radialGradient3180" cx="605.714" cy="486.648" r="117.143" fx="605.714" fy="486.648" gradientTransform="matrix(-0.02303994,0,0,0.01470022,21.62311,37.040176)" gradientUnits="userSpaceOnUse" xlink:href="#linearGradient5060"/><linearGradient id="linearGradient3183" x1="302.857" x2="302.857" y1="366.648" y2="609.505" gradientTransform="matrix(0.06732488,0,0,0.01470022,-0.3411391,37.040146)" gradientUnits="userSpaceOnUse" xlink:href="#linearGradient5048"/><linearGradient id="linearGradient3104-6"><stop style="stop-color:#000;stop-opacity:.31782946" id="stop3106-3" offset="0"/><stop style="stop-color:#000;stop-opacity:.24031007" id="stop3108-9" offset="1"/></linearGradient><linearGradient id="linearGradient3600-2"><stop style="stop-color:#f4f4f4;stop-opacity:1" id="stop3602-6" offset="0"/><stop style="stop-color:#dbdbdb;stop-opacity:1" id="stop3604-6" offset="1"/></linearGradient><linearGradient id="linearGradient4286" x1="-51.786" x2="-51.786" y1="50.786" y2="2.906" gradientTransform="matrix(0.80749686,0,0,0.89471714,59.410233,-2.9773424)" gradientUnits="userSpaceOnUse" xlink:href="#linearGradient3104-6"/><linearGradient id="linearGradient4292" x1="25.132" x2="25.132" y1=".985" y2="47.013" gradientTransform="matrix(0.97142632,0,0,0.93431938,0.68576796,-1.3569986)" gradientUnits="userSpaceOnUse" xlink:href="#linearGradient3600-2"/><radialGradient id="radialGradient3907" cx="605.714" cy="486.648" r="117.143" fx="605.714" fy="486.648" gradientTransform="matrix(0.02303995,0,0,0.01470022,26.360882,36.963253)" gradientUnits="userSpaceOnUse" xlink:href="#linearGradient5060-8"/><linearGradient id="linearGradient5060-8"><stop style="stop-color:#000;stop-opacity:1" id="stop5062-8" offset="0"/><stop style="stop-color:#000;stop-opacity:0" id="stop5064-6" offset="1"/></linearGradient><linearGradient id="linearGradient3909" x1="42.784" x2="38.972" y1="32.537" y2="18.124" gradientTransform="matrix(1.3333334,0,0,-1.3333334,-16.166666,70.166667)" gradientUnits="userSpaceOnUse" xlink:href="#linearGradient3412"/><linearGradient id="linearGradient3412"><stop style="stop-color:#fcfcfc;stop-opacity:1" id="stop3414" offset="0"/><stop style="stop-color:#cbcdd9;stop-opacity:1" id="stop3416" offset="1"/></linearGradient><linearGradient id="linearGradient3911" x1="40.106" x2="33.811" y1="31.657" y2="18.354" gradientTransform="matrix(1.33,0,0,-1.33,-16.064999,70.028077)" gradientUnits="userSpaceOnUse" xlink:href="#linearGradient3428"/><linearGradient id="linearGradient3428"><stop style="stop-color:#fff;stop-opacity:1" id="stop3430" offset="0"/><stop style="stop-color:#fff;stop-opacity:0" id="stop3432" offset="1"/></linearGradient><linearGradient id="linearGradient5060-0"><stop style="stop-color:#000;stop-opacity:1" id="stop5062-81" offset="0"/><stop style="stop-color:#000;stop-opacity:0" id="stop5064-3" offset="1"/></linearGradient><radialGradient id="radialGradient3091" cx="605.714" cy="486.648" r="117.143" fx="605.714" fy="486.648" gradientTransform="matrix(0.02303995,0,0,0.01470022,26.360882,37.040176)" gradientUnits="userSpaceOnUse" xlink:href="#linearGradient5060-0"/></defs><metadata id="metadata4117"/><rect style="opacity:.3;fill:url(#linearGradient3183);fill-opacity:1;fill-rule:nonzero;stroke:none;stroke-width:1;marker:none;visibility:visible;display:inline;overflow:visible" id="rect2879" width="32.508" height="3.57" x="7.738" y="42.43"/><path style="opacity:.3;fill:url(#radialGradient3180);fill-opacity:1;fill-rule:nonzero;stroke:none;stroke-width:1;marker:none;visibility:visible;display:inline;overflow:visible" id="path2881" d="m 7.7378475,42.430102 c 0,0 0,3.569856 0,3.569856 -1.1865002,0.0067 -2.8683795,-0.799823 -2.8683795,-1.785158 0,-0.985333 1.3240446,-1.784697 2.8683795,-1.784698 z"/><path style="fill:url(#linearGradient4292);fill-opacity:1;stroke:none;display:inline" id="path4160-2" d="m 7.000001,1.000001 c 7.791126,0 33.999959,0.00274 33.999959,0.00274 l 4.1e-5,42.99726 c 0,0 -22.666666,0 -34,0 0,-14.333334 0,-28.666667 0,-43.0000001 z"/><path style="fill:none;stroke:url(#linearGradient4286);stroke-width:.99992192;stroke-linecap:butt;stroke-linejoin:round;stroke-miterlimit:4;stroke-opacity:1;stroke-dasharray:none;stroke-dashoffset:0;display:inline" id="path4160-6-1" d="m 6.499961,0.49996324 c 8.020289,0 35.000042,0.00298 35.000042,0.00298 l 3.7e-5,43.99709576 c 0,0 -23.333385,0 -35.000079,0 0,-14.666738 0,-29.333326 0,-43.99989236 z"/><path style="fill:none;stroke:url(#linearGradient3169);stroke-width:1;stroke-linecap:round;stroke-linejoin:round;stroke-miterlimit:4;stroke-opacity:1;stroke-dasharray:none;stroke-dashoffset:0" id="rect6741-1" d="m 40.5,43.5 -33,0 0,-41.9999999 33,0 z"/><path style="fill:url(#radialGradient3166);fill-opacity:1;stroke:none;display:inline" id="path3897" d="m 11,11.055433 4.964235,0 0,28.944567 L 11,40 z M 16.035765,7 36,7 36,11 16.035765,10.94457 z"/><rect style="fill:#c4ec94;fill-opacity:1;stroke:none;display:inline" id="rect3775" width="5" height="5" x="11" y="6"/><path style="fill:none;stroke:#305d2c;stroke-width:.99999994;stroke-linecap:butt;stroke-linejoin:miter;stroke-miterlimit:4;stroke-opacity:.3241762;stroke-dasharray:none;display:inline" id="path3611" d="m 35.99999,36.5 -23.999995,0 m 23.999995,-5 -23.999995,0 m 24.000015,-5 -24.000005,0 m 23.999985,-5 -23.999995,0 m 23.999995,-5 -23.999995,0 M 25.5,7 l 0,32"/><path style="opacity:.2;fill:#fff;fill-rule:evenodd;stroke:#fff;stroke-width:.99999994;stroke-linecap:square;stroke-linejoin:round;stroke-miterlimit:4;stroke-opacity:1;stroke-dasharray:none;display:inline" id="path4743" d="M 12.499999,7.5312499 35.499998,7.494761"/><path style="opacity:.4;color:#000;fill:none;stroke:#0a3900;stroke-width:.99999994;stroke-linecap:round;stroke-linejoin:miter;stroke-miterlimit:4;stroke-opacity:1;stroke-dasharray:none;stroke-dashoffset:0;marker:none;visibility:visible;display:inline;overflow:visible;enable-background:accumulate" id="rect3580" d="m 11.5,6.5 25,0 0,33 -25,0 z m 24.999999,4 -24.999861,0 M 15.5,6.5021773 l 0,32.9956437"/><path style="opacity:.3;fill:url(#radialGradient3091);fill-opacity:1;fill-rule:nonzero;stroke:none;stroke-width:1;marker:none;visibility:visible;display:inline;overflow:visible" id="path2883" d="m 40.246148,42.430102 c 0,0 0,3.569856 0,3.569856 1.1865,0.0067 2.86838,-0.799823 2.86838,-1.785158 0,-0.985333 -1.324045,-1.784697 -2.86838,-1.784698 z"/><g id="g3896" transform="translate(-2.000001,0)"><path style="opacity:.3;fill:url(#radialGradient3907);fill-opacity:1;fill-rule:nonzero;stroke:none;stroke-width:1;marker:none;visibility:visible;display:inline;overflow:visible" id="path2883-1" d="m 40.246148,42.353179 c 0,0 0,3.569856 0,3.569856 1.1865,0.0067 2.86838,-0.799823 2.86838,-1.785158 0,-0.985333 -1.324045,-1.784697 -2.86838,-1.784698 z"/><path style="opacity:.8;fill:url(#linearGradient3909);fill-opacity:1;fill-rule:evenodd;stroke:#83899a;stroke-width:1;stroke-linecap:butt;stroke-linejoin:miter;stroke-miterlimit:4;stroke-opacity:1;stroke-dasharray:none" id="path3410" d="m 24.500001,45.5 20.000001,-20.000001 0,20.000001 -20.000001,0 z m 9.333333,-4.000001 6.666667,0 0,-6.666666 -6.666667,6.666666 z"/><path style="opacity:.4;fill:none;stroke:url(#linearGradient3911);stroke-width:1;stroke-linecap:butt;stroke-linejoin:miter;stroke-miterlimit:4;stroke-opacity:1;stroke-dasharray:none" id="path3424" d="m 27.450938,44.217765 15.79375,-15.793751 0,15.793751 -15.79375,0 z"/><path style="opacity:.6;fill:none;stroke:#83899a;stroke-width:1px;stroke-linecap:square;stroke-linejoin:miter;stroke-opacity:1" id="path3082" d="M 29.5,44.346154 29.5,45.5"/><path style="opacity:.6;fill:none;stroke:#83899a;stroke-width:1px;stroke-linecap:square;stroke-linejoin:miter;stroke-opacity:1" id="path3854" d="M 34.5,44.346154 34.5,45.5"/><path style="opacity:.6;fill:none;stroke:#83899a;stroke-width:1px;stroke-linecap:square;stroke-linejoin:miter;stroke-opacity:1" id="path3856" d="M 39.5,44.346154 39.5,45.5"/><path style="opacity:.6;fill:none;stroke:#83899a;stroke-width:1px;stroke-linecap:square;stroke-linejoin:miter;stroke-opacity:1" id="path3858" d="m 44.50049,35.423077 -1.00049,0"/><path style="opacity:.6;fill:none;stroke:#83899a;stroke-width:1px;stroke-linecap:square;stroke-linejoin:miter;stroke-opacity:1" id="path3860" d="m 44.50049,40.423077 -1.00049,0"/><path style="opacity:.6;fill:none;stroke:#83899a;stroke-width:1px;stroke-linecap:square;stroke-linejoin:miter;stroke-opacity:1" id="path3862" d="m 44.50049,30.423077 -1.00049,0"/></g></svg>