<svg xmlns="http://www.w3.org/2000/svg" xmlns:svg="http://www.w3.org/2000/svg" xmlns:xlink="http://www.w3.org/1999/xlink" id="svg3828" width="24" height="24" version="1.1"><defs id="defs3830"><linearGradient id="linearGradient3119" x1="24" x2="24" y1="5.564" y2="43" gradientTransform="matrix(0.40540511,0,0,0.51351351,2.2696871,7.6756805)" gradientUnits="userSpaceOnUse" xlink:href="#linearGradient3977"/><linearGradient id="linearGradient3977"><stop style="stop-color:#fff;stop-opacity:1" id="stop3979" offset="0"/><stop style="stop-color:#fff;stop-opacity:.23529412" id="stop3981" offset=".036"/><stop style="stop-color:#fff;stop-opacity:.15686275" id="stop3983" offset=".951"/><stop style="stop-color:#fff;stop-opacity:.39215687" id="stop3985" offset="1"/></linearGradient><linearGradient id="linearGradient3122" x1="25.132" x2="25.132" y1=".985" y2="47.013" gradientTransform="matrix(0.48571543,0,0,0.45629666,0.3428289,8.3488617)" gradientUnits="userSpaceOnUse" xlink:href="#linearGradient3600-4"/><linearGradient id="linearGradient3600-4"><stop style="stop-color:#f4f4f4;stop-opacity:1" id="stop3602-7" offset="0"/><stop style="stop-color:#dbdbdb;stop-opacity:1" id="stop3604-6" offset="1"/></linearGradient><linearGradient id="linearGradient3124" x1="-51.786" x2="-51.786" y1="50.786" y2="2.906" gradientTransform="matrix(0.39221364,0,0,0.42702571,29.199296,7.8403287)" gradientUnits="userSpaceOnUse" xlink:href="#linearGradient3104-5"/><linearGradient id="linearGradient3104-5"><stop style="stop-color:#a0a0a0;stop-opacity:1" id="stop3106-6" offset="0"/><stop style="stop-color:#bebebe;stop-opacity:1" id="stop3108-9" offset="1"/></linearGradient><radialGradient id="radialGradient3045" cx="605.714" cy="486.648" r="117.143" fx="605.714" fy="486.648" gradientTransform="matrix(0.01204859,0,0,0.0082353,13.238793,26.980564)" gradientUnits="userSpaceOnUse" xlink:href="#linearGradient5060"/><linearGradient id="linearGradient5060"><stop style="stop-color:#000;stop-opacity:1" id="stop5062" offset="0"/><stop style="stop-color:#000;stop-opacity:0" id="stop5064" offset="1"/></linearGradient><radialGradient id="radialGradient3048" cx="605.714" cy="486.648" r="117.143" fx="605.714" fy="486.648" gradientTransform="matrix(-0.01204859,0,0,0.0082353,10.761206,26.980564)" gradientUnits="userSpaceOnUse" xlink:href="#linearGradient5060"/><linearGradient id="linearGradient5048"><stop style="stop-color:#000;stop-opacity:0" id="stop5050" offset="0"/><stop style="stop-color:#000;stop-opacity:1" id="stop5056" offset=".5"/><stop style="stop-color:#000;stop-opacity:0" id="stop5052" offset="1"/></linearGradient><linearGradient id="linearGradient3826" x1="302.857" x2="302.857" y1="366.648" y2="609.505" gradientTransform="matrix(0.0352071,0,0,0.0082353,-0.724852,26.980547)" gradientUnits="userSpaceOnUse" xlink:href="#linearGradient5048"/><linearGradient id="linearGradient3772"><stop style="stop-color:#b4b4b4;stop-opacity:1" id="stop3774" offset="0"/><stop style="stop-color:#969696;stop-opacity:1" id="stop3776" offset="1"/></linearGradient><linearGradient id="linearGradient3263" x1="12.274" x2="35.391" y1="32.416" y2="14.203" gradientUnits="userSpaceOnUse"><stop style="stop-color:#dedbde;stop-opacity:1" id="stop3265" offset="0"/><stop style="stop-color:#e6e6e6;stop-opacity:1" id="stop3267" offset=".5"/><stop style="stop-color:#d2d2d2;stop-opacity:1" id="stop3269" offset="1"/></linearGradient><linearGradient id="linearGradient3320" x1="10.609" x2="9.73" y1="17.886" y2="20.613" gradientUnits="userSpaceOnUse" spreadMethod="reflect" xlink:href="#linearGradient3519"/><linearGradient id="linearGradient3318" x1="12.372" x2="14.609" y1="16.188" y2="13.462" gradientUnits="userSpaceOnUse" spreadMethod="reflect" xlink:href="#linearGradient3511"/><linearGradient id="linearGradient3316" x1="14.085" x2="16.994" y1="13.046" y2="10.732" gradientUnits="userSpaceOnUse" spreadMethod="reflect" xlink:href="#linearGradient3503"/><linearGradient id="linearGradient3314" x1="17.495" x2="21.047" y1="11.2" y2="9.796" gradientUnits="userSpaceOnUse" spreadMethod="reflect" xlink:href="#linearGradient3495"/><linearGradient id="linearGradient3312" x1="20.58" x2="24.274" y1="10.775" y2="9.862" gradientUnits="userSpaceOnUse" spreadMethod="reflect" xlink:href="#linearGradient3487"/><linearGradient id="linearGradient3519"><stop style="stop-color:#fcd9cd;stop-opacity:1" id="stop3521" offset="0"/><stop style="stop-color:#fcd9cd;stop-opacity:0" id="stop3523" offset="1"/></linearGradient><linearGradient id="linearGradient3309" x1="10.609" x2="9.73" y1="17.886" y2="20.613" gradientUnits="userSpaceOnUse" spreadMethod="reflect" xlink:href="#linearGradient3519"/><linearGradient id="linearGradient3511"><stop style="stop-color:#ebeec7;stop-opacity:1" id="stop3513" offset="0"/><stop style="stop-color:#ebeec7;stop-opacity:0" id="stop3515" offset="1"/></linearGradient><linearGradient id="linearGradient3307" x1="12.372" x2="14.609" y1="16.188" y2="13.462" gradientUnits="userSpaceOnUse" spreadMethod="reflect" xlink:href="#linearGradient3511"/><linearGradient id="linearGradient3503"><stop style="stop-color:#c4ebdd;stop-opacity:1" id="stop3505" offset="0"/><stop style="stop-color:#c4ebdd;stop-opacity:0" id="stop3507" offset="1"/></linearGradient><linearGradient id="linearGradient3305" x1="14.085" x2="16.994" y1="13.046" y2="10.732" gradientUnits="userSpaceOnUse" spreadMethod="reflect" xlink:href="#linearGradient3503"/><linearGradient id="linearGradient3495"><stop style="stop-color:#c1cbe4;stop-opacity:1" id="stop3497" offset="0"/><stop style="stop-color:#c1cbe4;stop-opacity:0" id="stop3499" offset="1"/></linearGradient><linearGradient id="linearGradient3303" x1="17.495" x2="21.047" y1="11.2" y2="9.796" gradientUnits="userSpaceOnUse" spreadMethod="reflect" xlink:href="#linearGradient3495"/><linearGradient id="linearGradient3487"><stop style="stop-color:#e6cde2;stop-opacity:1" id="stop3489" offset="0"/><stop style="stop-color:#e6cde2;stop-opacity:0" id="stop3491" offset="1"/></linearGradient><linearGradient id="linearGradient3301" x1="20.58" x2="24.274" y1="10.775" y2="9.862" gradientUnits="userSpaceOnUse" spreadMethod="reflect" xlink:href="#linearGradient3487"/><linearGradient id="linearGradient6036"><stop style="stop-color:#fff;stop-opacity:1" id="stop6038" offset="0"/><stop style="stop-color:#fff;stop-opacity:0" id="stop6040" offset="1"/></linearGradient><linearGradient id="linearGradient4011"><stop style="stop-color:#fff;stop-opacity:1" id="stop4013" offset="0"/><stop style="stop-color:#fff;stop-opacity:.23529412" id="stop4015" offset=".508"/><stop style="stop-color:#fff;stop-opacity:.15686275" id="stop4017" offset=".835"/><stop style="stop-color:#fff;stop-opacity:.39215687" id="stop4019" offset="1"/></linearGradient><linearGradient id="linearGradient3138" x1="71.204" x2="71.204" y1="6.238" y2="44.341" gradientTransform="matrix(0.29729729,0,0,0.29729732,-9.3261788,4.4613606)" gradientUnits="userSpaceOnUse" xlink:href="#linearGradient4011"/><linearGradient id="linearGradient3141" x1="18.776" x2="18.203" y1="4.038" y2="45.962" gradientTransform="matrix(0.15153326,0,0,-0.15153317,8.3106187,15.78833)" gradientUnits="userSpaceOnUse" xlink:href="#linearGradient6036"/><linearGradient id="linearGradient3156" x1="12.274" x2="35.391" y1="32.416" y2="14.203" gradientTransform="matrix(0,0.37143313,-0.37143313,0,20.580106,3.0856034)" gradientUnits="userSpaceOnUse" xlink:href="#linearGradient3263"/><linearGradient id="linearGradient3158" x1="-21.916" x2="-21.916" y1="3" y2="45.033" gradientTransform="matrix(0.31707422,0,0,0.31707422,20.327974,4.3902181)" gradientUnits="userSpaceOnUse" xlink:href="#linearGradient3772"/></defs><metadata id="metadata3833"/><g id="layer1" transform="translate(0,-8)"><rect style="opacity:.15;fill:url(#linearGradient3826);fill-opacity:1;fill-rule:nonzero;stroke:none;stroke-width:1;marker:none;visibility:visible;display:inline;overflow:visible" id="rect2879" width="17" height="2" x="3.5" y="30"/><path style="opacity:.15;fill:url(#radialGradient3048);fill-opacity:1;fill-rule:nonzero;stroke:none;stroke-width:1;marker:none;visibility:visible;display:inline;overflow:visible" id="path2881" d="m 3.4999999,30.000085 c 0,0 0,1.999891 0,1.999891 C 2.8795275,32.003776 2,31.551901 2,30.999901 2,30.447902 2.6924,30.000085 3.4999999,30.000085 z"/><path style="opacity:.15;fill:url(#radialGradient3045);fill-opacity:1;fill-rule:nonzero;stroke:none;stroke-width:1;marker:none;visibility:visible;display:inline;overflow:visible" id="path2883" d="m 20.5,30.000085 c 0,0 0,1.999891 0,1.999891 0.620472,0.0038 1.5,-0.448075 1.5,-1.000075 0,-0.551999 -0.692402,-0.999816 -1.5,-0.999816 z"/><path style="fill:url(#linearGradient3122);fill-opacity:1;stroke:url(#linearGradient3124);stroke-width:.99992186;stroke-linecap:butt;stroke-linejoin:round;stroke-miterlimit:4;stroke-opacity:1;stroke-dasharray:none;stroke-dashoffset:0;display:inline" id="path4160-3" d="m 3.4999601,9.4999569 c 3.8955809,0 17.0000589,0.00136 17.0000589,0.00136 l 2.1e-5,20.9987161 c 0,0 -11.3333862,0 -17.0000799,0 0,-7.000018 0,-14.000035 0,-21.0000538 z"/><path style="fill:none;stroke:url(#linearGradient3119);stroke-width:1;stroke-linecap:round;stroke-linejoin:miter;stroke-miterlimit:4;stroke-opacity:1;stroke-dasharray:none;stroke-dashoffset:0" id="rect6741-1" d="m 19.5,29.5 -15.0000004,0 0,-19 L 19.5,10.5 z"/></g><path style="fill:url(#linearGradient3156);fill-rule:nonzero;stroke:url(#linearGradient3158);stroke-width:.99999988;stroke-miterlimit:4;stroke-opacity:1" id="path2781" d="m 18.500023,12 c 0,-3.6029023 -2.897121,-6.5000222 -6.500024,-6.5000222 -3.6029022,0 -6.5000216,2.8971202 -6.5000216,6.5000222 -7e-7,3.602902 2.8971197,6.500022 6.5000216,6.500022 3.602902,-1e-6 6.500024,-2.89712 6.500024,-6.500022 z m -4.333349,0 c 0,1.121422 -0.86139,2.166674 -2.166675,2.166674 -1.305284,0 -2.1666732,-1.132311 -2.1666732,-2.166674 0,-1.063419 0.8969942,-2.1666742 2.1666732,-2.1666742 1.298717,0 2.166675,1.0448752 2.166675,2.1666742 z"/><g id="g3527" transform="matrix(0.29097525,0,0,0.29097525,4.9180092,4.7269383)"><path style="opacity:.8;fill:url(#linearGradient3312);fill-opacity:1;fill-rule:nonzero;stroke:none" id="path3296" d="M 15.856928,5.7307748 20.625,16.34375 C 21.660403,15.885186 22.795334,15.625 24,15.625 c 0.03206,0 0.06178,-3.6e-4 0.09375,0 L 24.10801,4.0047512 c -2.94215,-0.070687 -5.543041,0.6572865 -8.251083,1.7260236 l 10e-7,0 z" transform="matrix(0.9996011,0.02824295,-0.02824295,0.9996011,0.6924114,-0.6708346)"/><path style="opacity:.8;fill:url(#linearGradient3314);fill-opacity:1;fill-rule:nonzero;stroke:none" id="path3308" d="m 12.121471,7.9060109 6.931026,9.3601041 c 0.913109,-0.669755 1.965938,-1.167064 3.142629,-1.425169 0.03132,-0.0069 0.06026,-0.01359 0.09157,-0.02009 L 19.857174,4.426276 c -2.888973,0.5613244 -5.31953,1.8556038 -7.735703,3.4797349 l 0,0 z"/><path style="opacity:.8;fill:url(#linearGradient3316);fill-opacity:1;fill-rule:nonzero;stroke:none" id="path3310" d="m 8.2523933,11.646535 9.2137237,7.155818 c 0.70865,-0.883264 1.596891,-1.636119 2.666685,-2.18998 0.02847,-0.01474 0.05469,-0.02872 0.08325,-0.0431 L 14.86585,6.2506132 C 12.220599,7.5405321 10.165881,9.452393 8.2523933,11.646535 z"/><path style="opacity:.8;fill:url(#linearGradient3318);fill-opacity:1;fill-rule:nonzero;stroke:none" id="path3312" d="m 5.6328855,16.073974 c 7.1748065,2.242248 7.8502625,7.031463 12.7767855,1.754127 L 10.499985,9.1321388 C 8.2787249,11.062747 6.9132871,13.459349 5.6328855,16.073974 z"/><path style="opacity:.8;fill:url(#linearGradient3320);fill-opacity:1;fill-rule:nonzero;stroke:none" id="path3314" d="M 7.155289,13.193173 C 5.9722117,14.945185 5.2475768,16.829547 4.6301929,18.837116 L 15.96875,21.8125 C 16.184264,21.049497 16.486796,20.297733 16.9375,19.59375 16.95479,19.56675 16.98246,19.52673 17,19.5 L 7.155289,13.193173 z"/></g><g id="g3297" transform="matrix(-0.30402469,0,0,-0.30402469,19.287751,19.322233)"><path style="opacity:.8;fill:url(#linearGradient3301);fill-opacity:1;fill-rule:nonzero;stroke:none" id="path3299" d="M 15.856928,5.7307748 20.625,16.34375 C 21.660403,15.885186 22.795334,15.625 24,15.625 c 0.03206,0 0.06178,-3.6e-4 0.09375,0 L 24.10801,4.0047512 c -2.94215,-0.070687 -5.543041,0.6572865 -8.251083,1.7260236 l 10e-7,0 z" transform="matrix(0.9996011,0.02824295,-0.02824295,0.9996011,0.6924114,-0.6708346)"/><path style="opacity:.8;fill:url(#linearGradient3303);fill-opacity:1;fill-rule:nonzero;stroke:none" id="path3301" d="m 12.121471,7.9060109 6.931026,9.3601041 c 0.913109,-0.669755 1.965938,-1.167064 3.142629,-1.425169 0.03132,-0.0069 0.06026,-0.01359 0.09157,-0.02009 L 19.857174,4.426276 c -2.888973,0.5613244 -5.31953,1.8556038 -7.735703,3.4797349 l 0,0 z"/><path style="opacity:.8;fill:url(#linearGradient3305);fill-opacity:1;fill-rule:nonzero;stroke:none" id="path3303" d="m 8.2523933,11.646535 9.2137237,7.155818 c 0.70865,-0.883264 1.596891,-1.636119 2.666685,-2.18998 0.02847,-0.01474 0.05469,-0.02872 0.08325,-0.0431 L 14.86585,6.2506132 C 12.220599,7.5405321 10.165881,9.452393 8.2523933,11.646535 z"/><path style="opacity:.8;fill:url(#linearGradient3307);fill-opacity:1;fill-rule:nonzero;stroke:none" id="path3305" d="m 5.6328855,16.073974 c 7.1748065,2.242248 7.8502625,7.031463 12.7767855,1.754127 L 10.499985,9.1321388 C 8.2787249,11.062747 6.9132871,13.459349 5.6328855,16.073974 z"/><path style="opacity:.8;fill:url(#linearGradient3309);fill-opacity:1;fill-rule:nonzero;stroke:none" id="path3307" d="M 7.155289,13.193173 C 5.9722117,14.945185 5.2475768,16.829547 4.6301929,18.837116 L 15.96875,21.8125 C 16.184264,21.049497 16.486796,20.297733 16.9375,19.59375 16.95479,19.56675 16.98246,19.52673 17,19.5 L 7.155289,13.193173 z"/></g><path style="opacity:.4;fill:none;stroke:url(#linearGradient3141);stroke-width:1;stroke-miterlimit:4;stroke-opacity:1" id="path3281" d="m 12,14.999999 c -1.662856,0 -2.9999999,-1.337143 -2.9999999,-3 0,-1.662857 1.3371439,-2.9999979 2.9999999,-2.9999979 1.662857,0 3,1.3371409 3,2.9999979 0,1.662857 -1.337143,3 -3,3 l 0,0 0,0 0,0 z"/><path style="opacity:.55;color:#000;fill:none;stroke:url(#linearGradient3138);stroke-width:1;stroke-linecap:round;stroke-linejoin:round;stroke-miterlimit:4;stroke-opacity:1;stroke-dasharray:none;stroke-dashoffset:0;marker:none;visibility:visible;display:inline;overflow:visible;enable-background:accumulate" id="path8655" d="M 17.5,11.999806 C 17.5,15.03747 15.037386,17.5 12.00007,17.5 8.9624772,17.5 6.5000001,15.037441 6.5000001,11.999806 6.5000001,8.9622817 8.9624772,6.5 12.00007,6.5 15.037386,6.5 17.5,8.9622817 17.5,11.999806 l 0,0 z"/></svg>