<svg xmlns="http://www.w3.org/2000/svg" xmlns:svg="http://www.w3.org/2000/svg" xmlns:xlink="http://www.w3.org/1999/xlink" id="svg4204" width="24" height="24" version="1.1"><defs id="defs4206"><linearGradient id="linearGradient4120"><stop style="stop-color:#fff;stop-opacity:1" id="stop4122" offset="0"/><stop style="stop-color:#fff;stop-opacity:.23529412" id="stop4124" offset=".302"/><stop style="stop-color:#fff;stop-opacity:.15686275" id="stop4126" offset=".967"/><stop style="stop-color:#fff;stop-opacity:.39215687" id="stop4128" offset="1"/></linearGradient><linearGradient id="linearGradient3242-7-0"><stop style="stop-color:#eef87e;stop-opacity:1" id="stop3244-5-4" offset="0"/><stop style="stop-color:#cde34f;stop-opacity:1" id="stop3246-9-0" offset=".262"/><stop style="stop-color:#93b723;stop-opacity:1" id="stop3248-7-6" offset=".661"/><stop style="stop-color:#5a7e0d;stop-opacity:1" id="stop3250-8-5" offset="1"/></linearGradient><radialGradient id="radialGradient2476" cx="4.993" cy="43.5" r="2.5" fx="4.993" fy="43.5" gradientTransform="matrix(2.003784,0,0,1.4,27.98813,-17.4)" gradientUnits="userSpaceOnUse" xlink:href="#linearGradient3688"/><linearGradient id="linearGradient3688"><stop style="stop-color:#000;stop-opacity:1" id="stop3690" offset="0"/><stop style="stop-color:#000;stop-opacity:0" id="stop3692" offset="1"/></linearGradient><radialGradient id="radialGradient2478" cx="4.993" cy="43.5" r="2.5" fx="4.993" fy="43.5" gradientTransform="matrix(2.003784,0,0,1.4,-20.01187,-104.4)" gradientUnits="userSpaceOnUse" xlink:href="#linearGradient3688"/><linearGradient id="linearGradient2480" x1="25.058" x2="25.058" y1="47.028" y2="39.999" gradientUnits="userSpaceOnUse" xlink:href="#linearGradient3702"/><linearGradient id="linearGradient3702"><stop style="stop-color:#000;stop-opacity:0" id="stop3704" offset="0"/><stop style="stop-color:#000;stop-opacity:1" id="stop3710" offset=".5"/><stop style="stop-color:#000;stop-opacity:0" id="stop3706" offset="1"/></linearGradient><radialGradient id="radialGradient2470" cx="4.993" cy="43.5" r="2.5" fx="4.993" fy="43.5" gradientTransform="matrix(2.003784,0,0,1.4,27.98813,-17.4)" gradientUnits="userSpaceOnUse" xlink:href="#linearGradient3688"/><radialGradient id="radialGradient2472" cx="4.993" cy="43.5" r="2.5" fx="4.993" fy="43.5" gradientTransform="matrix(2.003784,0,0,1.4,-20.01187,-104.4)" gradientUnits="userSpaceOnUse" xlink:href="#linearGradient3688"/><linearGradient id="linearGradient4202" x1="25.058" x2="25.058" y1="47.028" y2="39.999" gradientUnits="userSpaceOnUse" xlink:href="#linearGradient3702"/><linearGradient id="linearGradient3020" x1="106.219" x2="106.219" y1="-26.17" y2="42.673" gradientTransform="matrix(0.2817955,0,0,0.2800956,-17.877221,9.2249195)" gradientUnits="userSpaceOnUse" xlink:href="#linearGradient4120"/><linearGradient id="linearGradient3024" x1="5.456" x2="5.456" y1="-9.222" y2="45.116" gradientTransform="translate(-0.00730163,0.00728608)" gradientUnits="userSpaceOnUse" xlink:href="#linearGradient3242-7-0"/></defs><metadata id="metadata4209"/><g style="opacity:.3" id="g3761" transform="matrix(0.20069987,0,0,0.23392131,10.93254,12.505698)"><rect style="fill:url(#radialGradient2470);fill-opacity:1;stroke:none" id="rect3763" width="5" height="7" x="38" y="40"/><rect style="fill:url(#radialGradient2472);fill-opacity:1;stroke:none" id="rect3765" width="5" height="7" x="-10" y="-47" transform="scale(-1,-1)"/><rect style="fill:url(#linearGradient4202);fill-opacity:1;stroke:none" id="rect3767" width="28" height="7" x="10" y="40"/></g><g style="opacity:.3" id="g3550" transform="matrix(0.21549635,0,0,0.23392131,0.20513135,12.505698)"><rect style="fill:url(#radialGradient2476);fill-opacity:1;stroke:none" id="rect3552" width="5" height="7" x="38" y="40"/><rect style="fill:url(#radialGradient2478);fill-opacity:1;stroke:none" id="rect3554" width="5" height="7" x="-10" y="-47" transform="scale(-1,-1)"/><rect style="fill:url(#linearGradient2480);fill-opacity:1;stroke:none" id="rect3556" width="28" height="7" x="10" y="40"/></g><path style="color:#000;fill:url(#linearGradient3024);fill-opacity:1;fill-rule:nonzero;stroke:none;stroke-width:.98542744;marker:none;visibility:visible;display:inline;overflow:visible;enable-background:accumulate" id="rect3021" d="m 10.492713,1.5072861 c -1.6568535,0 -2.9999993,1.3431462 -2.9999993,3.0000002 0,0.772386 0.3017558,1.468256 0.78125,2 l -4.78125,0 c -0.554,0 -1,0.446 -1,1 l 0,4.1874997 c 0.3164717,-0.113521 0.6444667,-0.1875 1,-0.1875 1.6568541,0 3,1.343146 3,3 0,1.656854 -1.3431459,3 -3,3 -0.3555333,0 -0.6835283,-0.07398 -1,-0.1875 l 0,4.1875 c 0,0.554 0.446,1 1,1 l 4.1875,0 c -0.1135214,-0.316472 -0.1875,-0.644467 -0.1875,-1 0,-1.656854 1.3431458,-3 2.9999993,-3 1.656854,0 3,1.343146 3,3 0,0.355533 -0.07398,0.683528 -0.1875,1 l 4.1875,0 c 0.554,0 1,-0.446 1,-1 l 0,-4.78125 c 0.531744,0.479494 1.227614,0.78125 2,0.78125 1.656854,0 3,-1.343146 3,-3 0,-1.656854 -1.343146,-3 -3,-3 -0.772386,0 -1.468256,0.301756 -2,0.78125 l 0,-4.7812497 c 0,-0.554 -0.446,-1 -1,-1 l -4.78125,0 c 0.479494,-0.531744 0.78125,-1.227614 0.78125,-2 0,-1.656854 -1.343146,-3.0000002 -3,-3.0000002 z"/><path style="opacity:.3;color:#000;fill:none;stroke:#000;stroke-width:.98542744;stroke-linecap:round;stroke-linejoin:round;stroke-miterlimit:4;stroke-opacity:1;stroke-dasharray:none;stroke-dashoffset:0;marker:none;visibility:visible;display:inline;overflow:visible;enable-background:accumulate" id="rect3021-1" d="m 10.492713,1.507286 c -1.6568535,0 -2.9999993,1.3431453 -2.9999993,3.0000003 0,0.772386 0.3017558,1.468256 0.78125,2 l -4.78125,0 c -0.554,0 -1,0.446 -1,1 l 0,4.1874997 c 0.3164717,-0.113521 0.6444667,-0.1875 1,-0.1875 1.6568541,0 3,1.343146 3,3 0,1.656854 -1.3431459,3 -3,3 -0.3555333,0 -0.6835283,-0.07398 -1,-0.1875 l 0,4.1875 c 0,0.554 0.446,1 1,1 l 4.1875,0 c -0.1135214,-0.316472 -0.1875,-0.644467 -0.1875,-1 0,-1.656854 1.3431458,-3 2.9999993,-3 1.656854,0 3,1.343146 3,3 0,0.355533 -0.07398,0.683528 -0.1875,1 l 4.1875,0 c 0.554,0 1,-0.446 1,-1 l 0,-4.78125 c 0.531744,0.479494 1.227614,0.78125 2,0.78125 1.656854,0 3,-1.343146 3,-3 0,-1.656854 -1.343146,-3 -3,-3 -0.772386,0 -1.468256,0.301756 -2,0.78125 l 0,-4.7812497 c 0,-0.554 -0.446,-1 -1,-1 l -4.78125,0 c 0.479494,-0.531744 0.78125,-1.227614 0.78125,-2 0,-1.656855 -1.343146,-3.0000003 -3,-3.0000003 z"/><path style="opacity:.5;color:#000;fill:none;stroke:url(#linearGradient3020);stroke-width:1;stroke-linecap:butt;stroke-linejoin:miter;stroke-miterlimit:4;stroke-opacity:1;stroke-dasharray:none;stroke-dashoffset:0;marker:none;visibility:visible;display:inline;overflow:visible;enable-background:accumulate" id="path4079" d="m 10.492698,2.4760361 c -1.1354033,0 -2.0312496,0.895846 -2.0312496,2.03125 0,0.5210852 0.023695,0.7564043 0.4426424,1.34375 0.7001975,0.9790907 -0.1335213,1.1915845 -0.6301424,1.625 l -4.78125,0 c -0.036156,0 -0.03125,-0.00491 -0.03125,0.03125 l 0,3.0312499 c 0.011198,-1.09e-4 0.020006,0 0.03125,0 2.1783043,0 3.96875,1.790446 3.96875,3.96875 0,2.178304 -1.7904458,3.96875 -3.96875,3.96875 -0.011244,0 -0.020052,1.09e-4 -0.03125,0 l 0,3.03125 c 0,0.03616 -0.00491,0.03125 0.03125,0.03125 l 3.03125,0 c -1.092e-4,-0.0112 0,-0.02001 0,-0.03125 0,-2.178304 1.7904459,-3.96875 3.9687496,-3.96875 2.178304,0 3.96875,1.790446 3.96875,3.96875 0,0.01124 1.09e-4,0.02005 0,0.03125 l 3.03125,0 c 0.03616,0 0.03125,0.0049 0.03125,-0.03125 l 0,-4.78125 c -0.01166,-0.752481 1.076105,-1.233607 1.625,-0.71875 0.370348,0.333957 0.822666,0.53125 1.34375,0.53125 1.135404,0 2.03125,-0.895846 2.03125,-2.03125 0,-1.135404 -0.895846,-2.03125 -2.03125,-2.03125 -0.521084,0 -0.973402,0.197293 -1.34375,0.53125 -0.548895,0.514857 -1.636659,0.03373 -1.625,-0.71875 l 0,-4.7812499 c 0,-0.036156 0.0049,-0.03125 -0.03125,-0.03125 l -4.78125,0 c -0.752481,0.011659 -1.233607,-1.0761054 -0.71875,-1.625 0.333957,-0.3703477 0.53125,-0.822665 0.53125,-1.34375 0,-1.1354041 -0.895846,-2.03125 -2.03125,-2.03125 z"/></svg>