<svg xmlns="http://www.w3.org/2000/svg" xmlns:svg="http://www.w3.org/2000/svg" xmlns:xlink="http://www.w3.org/1999/xlink" id="svg3828" width="24" height="24" version="1.1"><defs id="defs3830"><linearGradient id="linearGradient3119" x1="24" x2="24" y1="5.564" y2="43" gradientTransform="matrix(0.40540511,0,0,0.51351351,2.2696871,7.6756805)" gradientUnits="userSpaceOnUse" xlink:href="#linearGradient3977"/><linearGradient id="linearGradient3977"><stop style="stop-color:#fff;stop-opacity:1" id="stop3979" offset="0"/><stop style="stop-color:#fff;stop-opacity:.23529412" id="stop3981" offset=".036"/><stop style="stop-color:#fff;stop-opacity:.15686275" id="stop3983" offset=".951"/><stop style="stop-color:#fff;stop-opacity:.39215687" id="stop3985" offset="1"/></linearGradient><linearGradient id="linearGradient3122" x1="25.132" x2="25.132" y1=".985" y2="47.013" gradientTransform="matrix(0.48571543,0,0,0.45629666,0.3428289,8.3488617)" gradientUnits="userSpaceOnUse" xlink:href="#linearGradient3600-4"/><linearGradient id="linearGradient3600-4"><stop style="stop-color:#f4f4f4;stop-opacity:1" id="stop3602-7" offset="0"/><stop style="stop-color:#dbdbdb;stop-opacity:1" id="stop3604-6" offset="1"/></linearGradient><linearGradient id="linearGradient3124" x1="-51.786" x2="-51.786" y1="50.786" y2="2.906" gradientTransform="matrix(0.39221364,0,0,0.42702571,29.199296,7.8403287)" gradientUnits="userSpaceOnUse" xlink:href="#linearGradient3104-5"/><linearGradient id="linearGradient3104-5"><stop style="stop-color:#a0a0a0;stop-opacity:1" id="stop3106-6" offset="0"/><stop style="stop-color:#bebebe;stop-opacity:1" id="stop3108-9" offset="1"/></linearGradient><radialGradient id="radialGradient3045" cx="605.714" cy="486.648" r="117.143" fx="605.714" fy="486.648" gradientTransform="matrix(0.01204859,0,0,0.0082353,13.238793,26.980564)" gradientUnits="userSpaceOnUse" xlink:href="#linearGradient5060"/><linearGradient id="linearGradient5060"><stop style="stop-color:#000;stop-opacity:1" id="stop5062" offset="0"/><stop style="stop-color:#000;stop-opacity:0" id="stop5064" offset="1"/></linearGradient><radialGradient id="radialGradient3048" cx="605.714" cy="486.648" r="117.143" fx="605.714" fy="486.648" gradientTransform="matrix(-0.01204859,0,0,0.0082353,10.761206,26.980564)" gradientUnits="userSpaceOnUse" xlink:href="#linearGradient5060"/><linearGradient id="linearGradient5048"><stop style="stop-color:#000;stop-opacity:0" id="stop5050" offset="0"/><stop style="stop-color:#000;stop-opacity:1" id="stop5056" offset=".5"/><stop style="stop-color:#000;stop-opacity:0" id="stop5052" offset="1"/></linearGradient><linearGradient id="linearGradient3826" x1="302.857" x2="302.857" y1="366.648" y2="609.505" gradientTransform="matrix(0.0352071,0,0,0.0082353,-0.724852,26.980547)" gradientUnits="userSpaceOnUse" xlink:href="#linearGradient5048"/></defs><metadata id="metadata3833"/><g id="layer1" transform="translate(0,-8)"><rect style="opacity:.15;fill:url(#linearGradient3826);fill-opacity:1;fill-rule:nonzero;stroke:none;stroke-width:1;marker:none;visibility:visible;display:inline;overflow:visible" id="rect2879" width="17" height="2" x="3.5" y="30"/><path style="opacity:.15;fill:url(#radialGradient3048);fill-opacity:1;fill-rule:nonzero;stroke:none;stroke-width:1;marker:none;visibility:visible;display:inline;overflow:visible" id="path2881" d="m 3.4999999,30.000085 c 0,0 0,1.999891 0,1.999891 C 2.8795275,32.003776 2,31.551901 2,30.999901 2,30.447902 2.6924,30.000085 3.4999999,30.000085 z"/><path style="opacity:.15;fill:url(#radialGradient3045);fill-opacity:1;fill-rule:nonzero;stroke:none;stroke-width:1;marker:none;visibility:visible;display:inline;overflow:visible" id="path2883" d="m 20.5,30.000085 c 0,0 0,1.999891 0,1.999891 0.620472,0.0038 1.5,-0.448075 1.5,-1.000075 0,-0.551999 -0.692402,-0.999816 -1.5,-0.999816 z"/><path style="fill:url(#linearGradient3122);fill-opacity:1;stroke:url(#linearGradient3124);stroke-width:.99992186;stroke-linecap:butt;stroke-linejoin:round;stroke-miterlimit:4;stroke-opacity:1;stroke-dasharray:none;stroke-dashoffset:0;display:inline" id="path4160-3" d="m 3.4999601,9.4999569 c 3.8955809,0 17.0000589,0.00136 17.0000589,0.00136 l 2.1e-5,20.9987161 c 0,0 -11.3333862,0 -17.0000799,0 0,-7.000018 0,-14.000035 0,-21.0000538 z"/><path style="fill:none;stroke:url(#linearGradient3119);stroke-width:1;stroke-linecap:round;stroke-linejoin:miter;stroke-miterlimit:4;stroke-opacity:1;stroke-dasharray:none;stroke-dashoffset:0" id="rect6741-1" d="m 19.5,29.5 -15.0000004,0 0,-19 L 19.5,10.5 z"/></g><path style="font-size:40px;font-style:normal;font-variant:normal;font-weight:700;font-stretch:normal;text-align:start;line-height:100%;writing-mode:lr-tb;text-anchor:start;opacity:.4;fill:#000;fill-opacity:1;stroke:none;font-family:URW Palladio L;-inkscape-font-specification:URW Palladio L Bold" id="text3482" d="m 8.5,12.340691 c 0.166546,0.389874 0.354006,0.705896 0.753316,0.273779 0.495055,-0.25364 2.1538,-1.36542 1.987822,-0.276407 -0.531129,2.015157 -1.177632,4.009121 -1.671955,6.030485 -0.516886,1.106787 0.656861,2.107924 1.882338,1.388174 1.302603,-0.462411 2.423491,-1.215601 3.568602,-1.906538 -0.156242,-0.329962 -0.260381,-0.803951 -0.692095,-0.372436 -0.566865,0.221561 -1.804958,1.266137 -2.034973,0.404596 0.476161,-2.18205 1.358379,-4.283324 1.922307,-6.447977 C 14.734323,10.439065 13.886758,9.1814648 12.61805,10.004792 11.098105,10.574844 9.827033,11.506046 8.5,12.340691 z m 5.641005,-7.3389812 c -1.550793,-0.07087 -2.361601,2.081873 -0.887893,2.67096 1.195609,0.422236 2.497413,-0.633718 2.205331,-1.688858 -0.09064,-0.549421 -0.66347,-1.000584 -1.317438,-0.982102 l 0,0 z"/><path style="font-size:40px;font-style:normal;font-variant:normal;font-weight:700;font-stretch:normal;text-align:start;line-height:100%;writing-mode:lr-tb;text-anchor:start;opacity:.4;fill:#fff;fill-opacity:1;stroke:none;font-family:URW Palladio L;-inkscape-font-specification:URW Palladio L Bold" id="path3536" d="m 8.5,13.340691 c 0.166546,0.389873 0.354006,0.705896 0.753316,0.273778 0.495055,-0.25364 2.1538,-1.36542 1.987822,-0.276406 -0.531129,2.015157 -1.177632,4.009121 -1.671955,6.030484 -0.516886,1.106788 0.656861,2.107925 1.882338,1.388175 1.302603,-0.462411 2.423491,-1.215601 3.568602,-1.906538 -0.156242,-0.329963 -0.260381,-0.803952 -0.692095,-0.372437 -0.566865,0.221561 -1.804958,1.266138 -2.034973,0.404597 0.476161,-2.18205 1.358379,-4.283325 1.922307,-6.447977 C 14.734323,11.439065 13.886758,10.181465 12.61805,11.004792 11.098105,11.574844 9.827033,12.506046 8.5,13.340691 z m 5.641005,-7.3389822 c -1.550793,-0.07087 -2.361601,2.081873 -0.887893,2.670961 1.195609,0.422235 2.497413,-0.633718 2.205331,-1.688859 -0.09064,-0.54942 -0.66347,-1.000583 -1.317438,-0.982102 l 0,0 z"/></svg>