<svg xmlns="http://www.w3.org/2000/svg" xmlns:svg="http://www.w3.org/2000/svg" xmlns:xlink="http://www.w3.org/1999/xlink" id="svg2770" width="24" height="24" version="1.0"><metadata id="metadata103774"/><defs id="defs2772"><linearGradient id="linearGradient5048"><stop style="stop-color:#000;stop-opacity:0" id="stop5050" offset="0"/><stop style="stop-color:#000;stop-opacity:1" id="stop5056" offset=".5"/><stop style="stop-color:#000;stop-opacity:0" id="stop5052" offset="1"/></linearGradient><linearGradient id="linearGradient5060"><stop style="stop-color:#000;stop-opacity:1" id="stop5062" offset="0"/><stop style="stop-color:#000;stop-opacity:0" id="stop5064" offset="1"/></linearGradient><linearGradient id="linearGradient3104"><stop style="stop-color:#aaa;stop-opacity:1" id="stop3106" offset="0"/><stop style="stop-color:#c8c8c8;stop-opacity:1" id="stop3108" offset="1"/></linearGradient><linearGradient id="linearGradient3600"><stop style="stop-color:#f4f4f4;stop-opacity:1" id="stop3602" offset="0"/><stop style="stop-color:#dbdbdb;stop-opacity:1" id="stop3604" offset="1"/></linearGradient><linearGradient id="linearGradient3211"><stop style="stop-color:#fff;stop-opacity:1" id="stop3213" offset="0"/><stop style="stop-color:#fff;stop-opacity:0" id="stop3215" offset="1"/></linearGradient><linearGradient id="linearGradient4102"><stop style="stop-color:#fda852;stop-opacity:1" id="stop4104" offset="0"/><stop style="stop-color:#fff;stop-opacity:0" id="stop4106" offset="1"/></linearGradient><linearGradient id="linearGradient3064" x1="28.534" x2="16.887" y1="24.24" y2="13.664" gradientTransform="matrix(0.6594275,0,0,0.6465221,-4.0326729,-3.5947164)" gradientUnits="userSpaceOnUse" xlink:href="#linearGradient4102"/><linearGradient id="linearGradient3067" x1="24" x2="24" y1="2" y2="46.017" gradientTransform="matrix(0.4545444,0,0,0.4651153,1.0909345,0.3372293)" gradientUnits="userSpaceOnUse" xlink:href="#linearGradient3211"/><linearGradient id="linearGradient3073" x1="25.132" x2="25.132" y1=".985" y2="47.013" gradientTransform="matrix(0.4857154,0,0,0.4780255,0.3428305,-0.7059501)" gradientUnits="userSpaceOnUse" xlink:href="#linearGradient3600"/><linearGradient id="linearGradient3075" x1="-51.786" x2="-51.786" y1="50.786" y2="2.906" gradientTransform="matrix(0.3922135,0,0,0.4473607,29.199293,-1.2386997)" gradientUnits="userSpaceOnUse" xlink:href="#linearGradient3104"/><radialGradient id="radialGradient3078" cx="605.714" cy="486.648" r="117.143" fx="605.714" fy="486.648" gradientTransform="matrix(0.01204859,0,0,0.00823529,13.238794,18.980568)" gradientUnits="userSpaceOnUse" xlink:href="#linearGradient5060"/><radialGradient id="radialGradient3081" cx="605.714" cy="486.648" r="117.143" fx="605.714" fy="486.648" gradientTransform="matrix(-0.01204859,0,0,0.00823529,10.761206,18.980568)" gradientUnits="userSpaceOnUse" xlink:href="#linearGradient5060"/><linearGradient id="linearGradient3084" x1="302.857" x2="302.857" y1="366.648" y2="609.505" gradientTransform="matrix(0.0352071,0,0,0.00823529,-0.724852,18.980551)" gradientUnits="userSpaceOnUse" xlink:href="#linearGradient5048"/><radialGradient id="radialGradient3044" cx="605.714" cy="486.648" r="117.143" fx="605.714" fy="486.648" gradientTransform="matrix(-0.01472605,0,0,0.0095356,21.208141,18.688026)" gradientUnits="userSpaceOnUse" xlink:href="#linearGradient5060-2"/><linearGradient id="linearGradient5060-2"><stop style="stop-color:#000;stop-opacity:1" id="stop5062-3" offset="0"/><stop style="stop-color:#000;stop-opacity:0" id="stop5064-6" offset="1"/></linearGradient><linearGradient id="linearGradient3412"><stop style="stop-color:#fcfcfc;stop-opacity:1" id="stop3414" offset="0"/><stop style="stop-color:#cbcdd9;stop-opacity:1" id="stop3416" offset="1"/></linearGradient><linearGradient id="linearGradient4223" x1="33.877" x2="44.119" y1="19.948" y2="30.191" gradientTransform="matrix(0,0.61754391,-0.65185192,0,33.55926,-4.7561431)" gradientUnits="userSpaceOnUse" xlink:href="#linearGradient3412"/></defs><rect style="opacity:.15;fill:url(#linearGradient3084);fill-opacity:1;fill-rule:nonzero;stroke:none;stroke-width:1;marker:none;visibility:visible;display:inline;overflow:visible" id="rect2879" width="17" height="2" x="3.5" y="22"/><path style="opacity:.15;fill:url(#radialGradient3081);fill-opacity:1;fill-rule:nonzero;stroke:none;stroke-width:1;marker:none;visibility:visible;display:inline;overflow:visible" id="path2881" d="m 3.5,22.000086 c 0,0 0,1.999889 0,1.999889 C 2.8795275,24.00374 2,23.551901 2,22.999901 2,22.447902 2.6924,22.000086 3.5,22.000086 z"/><path style="opacity:.15;fill:url(#radialGradient3078);fill-opacity:1;fill-rule:nonzero;stroke:none;stroke-width:1;marker:none;visibility:visible;display:inline;overflow:visible" id="path2883" d="m 20.5,22.000086 c 0,0 0,1.999889 0,1.999889 0.620472,0.0038 1.5,-0.448074 1.5,-1.000074 0,-0.551999 -0.692401,-0.999815 -1.5,-0.999815 z"/><path style="fill:url(#linearGradient3073);fill-opacity:1;stroke:url(#linearGradient3075);stroke-width:.99992162;stroke-linecap:butt;stroke-linejoin:round;stroke-miterlimit:4;stroke-opacity:1;stroke-dasharray:none;stroke-dashoffset:0;display:inline" id="path4160" d="M 3.4999617,0.49996097 C 3.4626392,0.54279646 20.5,0.5 20.5,0.5 c 0,5.729157 3.9e-5,16.270881 3.9e-5,22.000039 -5.666693,0 -11.3333845,0 -17.0000773,0 0,-7.33336 0,-14.6667201 0,-22.00007803 z"/><path style="opacity:.6;fill:none;stroke:url(#linearGradient3067);stroke-width:.99999988;stroke-linecap:butt;stroke-linejoin:miter;stroke-miterlimit:4;stroke-opacity:1;stroke-dasharray:none;stroke-dashoffset:0;display:inline" id="path2435" d="m 19.500001,1 c 0,5.2083053 0,15.291693 0,20.5 -5,0 -9.9999998,0 -15.000001,0 0,-6.66667 0,-13.3333343 0,-20.0000001 3.4372614,0 11.062738,0 14.5,0"/><path style="fill:url(#linearGradient3064);fill-opacity:1;fill-rule:evenodd;stroke:#ea541a;stroke-width:1px;stroke-linecap:butt;stroke-linejoin:miter;stroke-opacity:1" id="path2783" d="m 6.751475,19.41069 c 2.7541345,1.831596 8.767223,-0.618817 3.768118,-7.176388 C 5.5657429,5.736093 15.441506,1.4740434 18.372104,8.9890263"/><rect style="fill:#ea541a;fill-opacity:1;stroke:none" id="rect3565" width="2" height="2" x="5" y="18"/><rect style="fill:#ea541a;fill-opacity:1;stroke:none" id="rect3567" width="2" height="2" x="17" y="8"/><path style="fill:none;stroke:#ea541a;stroke-width:1.00000012px;stroke-linecap:butt;stroke-linejoin:miter;stroke-opacity:1" id="path3571" d="M 6.0891664,6.3288278 15.589284,18.645207"/><path style="fill:#e6e6e6;fill-opacity:1;stroke:#ea541a;stroke-width:1.00000012;stroke-linecap:butt;stroke-miterlimit:4;stroke-opacity:1;stroke-dasharray:none" id="path3573" d="m 7.4999896,6.499961 c 3.72e-4,0.5521763 -0.4474529,0.9999999 -0.9999997,0.9999999 -0.5525469,0 -1.0003717,-0.4478236 -0.9999997,-0.9999999 -3.72e-4,-0.5521764 0.4474528,-1 0.9999997,-1 0.5525468,0 1.0003717,0.4478236 0.9999997,1 l 0,0 z"/><path style="fill:#e6e6e6;fill-opacity:1;stroke:#ea541a;stroke-width:1.00000012;stroke-linecap:butt;stroke-miterlimit:4;stroke-opacity:1;stroke-dasharray:none" id="path3575" d="m 16.499999,18.499961 c 3.73e-4,0.552177 -0.447452,1 -1,1 -0.552546,0 -1.000371,-0.447823 -0.999999,-1 -3.72e-4,-0.552175 0.447453,-1 0.999999,-1 0.552548,0 1.000373,0.447825 1,1 l 0,0 z"/><rect style="fill:#ea541a;fill-opacity:1;stroke:none" id="rect3569" width="2" height="2" x="9" y="11"/><g id="g4198"><path style="opacity:.15;fill:url(#radialGradient3044);fill-opacity:1;fill-rule:nonzero;stroke:none;stroke-width:1;marker:none;visibility:visible;display:inline;overflow:visible" id="path2883-8" d="m 12.333333,22.18431 c 0,0 0,2.315662 0,2.315662 C 11.574979,24.504372 10.5,23.981149 10.5,23.341991 c 0,-0.639157 0.846268,-1.157681 1.833333,-1.157681 z"/><path style="opacity:.8;fill:url(#linearGradient4223);fill-opacity:1;fill-rule:evenodd;stroke:#83899a;stroke-width:.99999994px;stroke-linecap:butt;stroke-linejoin:miter;stroke-opacity:1" id="path3410" d="M 21.499999,13 10.5,23.5 21.499999,23.500474 z M 19.5,17.8 l 0,3.7 -3.9,0 z"/></g></svg>