<svg xmlns="http://www.w3.org/2000/svg" xmlns:svg="http://www.w3.org/2000/svg" xmlns:xlink="http://www.w3.org/1999/xlink" id="svg6955" width="24" height="24" version="1.1"><defs id="defs6957"><linearGradient id="linearGradient3853"><stop id="stop3855" offset="0" style="stop-color:#000;stop-opacity:1"/><stop id="stop3857" offset="1" style="stop-color:#000;stop-opacity:0"/></linearGradient><linearGradient id="linearGradient4223"><stop id="stop4225" offset="0" style="stop-color:#cdf87e;stop-opacity:1"/><stop id="stop4227" offset=".262" style="stop-color:#a2e34f;stop-opacity:1"/><stop id="stop4229" offset=".661" style="stop-color:#68b723;stop-opacity:1"/><stop id="stop4231" offset="1" style="stop-color:#1d7e0d;stop-opacity:1"/></linearGradient><linearGradient id="linearGradient4546"><stop id="stop4548" offset="0" style="stop-color:#fff;stop-opacity:1"/><stop id="stop4550" offset=".333" style="stop-color:#fff;stop-opacity:.23529412"/><stop id="stop4552" offset=".951" style="stop-color:#fff;stop-opacity:.15686275"/><stop id="stop4554" offset="1" style="stop-color:#fff;stop-opacity:.39215687"/></linearGradient><linearGradient id="linearGradient4129"><stop id="stop4131" offset="0" style="stop-color:#90dbec;stop-opacity:1"/><stop id="stop4133" offset=".262" style="stop-color:#42baea;stop-opacity:1"/><stop id="stop4135" offset=".705" style="stop-color:#3689e6;stop-opacity:1"/><stop id="stop4137" offset="1" style="stop-color:#2b63a0;stop-opacity:1"/></linearGradient><linearGradient id="linearGradient3944" x1="16" x2="16" y1="12" y2="28" gradientUnits="userSpaceOnUse" xlink:href="#linearGradient4546"/><radialGradient id="radialGradient3950" cx="16.584" cy="5.825" r="13.5" fx="16.584" fy="5.825" gradientTransform="matrix(7.8155022e-8,3.4259259,4.4444444,-1.013903e-7,-13.88889,-55.814815)" gradientUnits="userSpaceOnUse" xlink:href="#linearGradient4223"/><radialGradient id="radialGradient3954" cx="16.876" cy="6.95" r="13.5" fx="16.876" fy="6.95" gradientTransform="matrix(-7.8155022e-8,3.4259259,-4.4444444,-1.013903e-7,45.88889,-48.814815)" gradientUnits="userSpaceOnUse" xlink:href="#linearGradient4129"/><clipPath id="clipPath3075" clipPathUnits="userSpaceOnUse"><path id="path3077" d="M 9.5,15 C 6.4443514,15 4,17.444351 4,20.5 l 0,1 C 4,24.555649 6.4443514,27 9.5,27 l 6,0 c 0.219638,0 0.431898,-0.0097 0.625,-0.03125 l 0.21875,-0.03125 0.1875,0.15625 c 0.904516,0.812057 2.163157,0.95166 3.34375,0.59375 -0.424928,-0.320003 -0.881722,-0.595637 -1.25,-1 L 18.25,26.28125 18.71875,25.9375 C 20.101099,24.936953 21,23.340469 21,21.5 l 0,-1 C 21,17.444351 18.555649,15 15.5,15 z" style="fill:#000;fill-opacity:1;stroke:none"/></clipPath><linearGradient id="linearGradient3081" x1="16" x2="16" y1="12" y2="28" gradientUnits="userSpaceOnUse" xlink:href="#linearGradient4546"/><radialGradient id="radialGradient3859" cx="13.5" cy="21.5" r="9.5" fx="13.5" fy="21.5" gradientTransform="matrix(1,0,0,0.26315789,0,15.842105)" gradientUnits="userSpaceOnUse" xlink:href="#linearGradient3853"/></defs><metadata id="metadata6960"/><path id="path3083" d="m 23,21.5 a 9.5,2.5 0 1 1 -19,0 9.5,2.5 0 1 1 19,0 z" transform="matrix(0.89473684,0,0,1.2,1.4210526,-4.8)" style="opacity:.2;fill:url(#radialGradient3859);fill-opacity:1;stroke:none"/><path style="fill:url(#radialGradient3950);fill-opacity:1;stroke:#067d00;stroke-opacity:.49803922" id="path3946" d="m 13.5,1.5 c 3.324,0 6,2.676 6,6 l 0,1 c 0,3.324 -2.676,6 -6,6 l -6,0 c -0.229086,0 -0.465233,-0.0065 -0.6875,-0.03125 -1.253055,1.124969 -3.150019,1.387664 -4.6875,0.5 C 2.09777,14.95303 2.08922,14.92251 2.0625,14.90625 2.782861,14.492545 3.424622,13.975506 4,13.34375 2.496476,12.255496 1.5,10.506048 1.5,8.5 l 0,-1 c 0,-3.324 2.676,-6 6,-6 z"/><path id="path3079" d="M 9.5,15 C 6.4443514,15 4,17.444351 4,20.5 l 0,1 C 4,24.555649 6.4443514,27 9.5,27 l 6,0 c 0.219638,0 0.431898,-0.0097 0.625,-0.03125 l 0.21875,-0.03125 0.1875,0.15625 c 0.904516,0.812057 2.163157,0.95166 3.34375,0.59375 -0.424928,-0.320003 -0.881722,-0.595637 -1.25,-1 L 18.25,26.28125 18.71875,25.9375 C 20.101099,24.936953 21,23.340469 21,21.5 l 0,-1 C 21,17.444351 18.555649,15 15.5,15 z" clip-path="url(#clipPath3075)" transform="matrix(-1,0,0,1,23,-13)" style="fill:none;stroke:url(#linearGradient3081);stroke-width:2;stroke-miterlimit:4;stroke-opacity:.49803922;stroke-dasharray:none"/><path id="rect3117" d="m 10.5,8.5 c -3.324,0 -6,2.676 -6,6 l 0,1 c 0,3.324 2.676,6 6,6 l 6,0 c 0.229086,0 0.465233,-0.0065 0.6875,-0.03125 1.253055,1.124969 3.150019,1.387664 4.6875,0.5 0.02723,-0.01572 0.03578,-0.04624 0.0625,-0.0625 C 21.217139,21.492545 20.575378,20.975506 20,20.34375 21.503524,19.255496 22.5,17.506048 22.5,15.5 l 0,-1 c 0,-3.324 -2.676,-6 -6,-6 z" style="fill:url(#radialGradient3954);fill-opacity:1;stroke:#00537d;stroke-opacity:.49803922"/><path style="fill:none;stroke:url(#linearGradient3944);stroke-width:2;stroke-miterlimit:4;stroke-opacity:.49803922;stroke-dasharray:none" id="path3930" d="M 9.5,15 C 6.4443514,15 4,17.444351 4,20.5 l 0,1 C 4,24.555649 6.4443514,27 9.5,27 l 6,0 c 0.219638,0 0.431898,-0.0097 0.625,-0.03125 l 0.21875,-0.03125 0.1875,0.15625 c 0.904516,0.812057 2.163157,0.95166 3.34375,0.59375 -0.424928,-0.320003 -0.881722,-0.595637 -1.25,-1 L 18.25,26.28125 18.71875,25.9375 C 20.101099,24.936953 21,23.340469 21,21.5 l 0,-1 C 21,17.444351 18.555649,15 15.5,15 z" clip-path="url(#clipPath3075)" transform="translate(1,-6)"/><g id="g3069" transform="translate(1,-1)"><path id="path3963" d="m 8,18 0,2 2,0 0,-2 -2,0 z m 3,0 0,2 2,0 0,-2 -2,0 z m 3,0 0,2 2,0 0,-2 -2,0 z" style="opacity:.4;fill:#fff;fill-opacity:.49803922;stroke:none"/><path style="fill:#00537d;fill-opacity:.49803922;stroke:none" id="rect3956" d="m 8,17 0,2 2,0 0,-2 -2,0 z m 3,0 0,2 2,0 0,-2 -2,0 z m 3,0 0,2 2,0 0,-2 -2,0 z"/></g></svg>