<svg xmlns="http://www.w3.org/2000/svg" xmlns:svg="http://www.w3.org/2000/svg" xmlns:xlink="http://www.w3.org/1999/xlink" id="svg3946" width="24" height="24" version="1.1"><defs id="defs3948"><linearGradient id="linearGradient3090" x1="71.204" x2="71.204" y1="6.238" y2="44.341" gradientTransform="matrix(0.5135135,0,0,0.5135135,-24.836132,-1.021284)" gradientUnits="userSpaceOnUse" xlink:href="#linearGradient4011"/><linearGradient id="linearGradient4011"><stop style="stop-color:#fff;stop-opacity:1" id="stop4013" offset="0"/><stop style="stop-color:#fff;stop-opacity:.23529412" id="stop4015" offset=".508"/><stop style="stop-color:#fff;stop-opacity:.15686275" id="stop4017" offset=".835"/><stop style="stop-color:#fff;stop-opacity:.39215687" id="stop4019" offset="1"/></linearGradient><linearGradient id="linearGradient3707-319-631-407-324-3-8"><stop style="stop-color:#185f9a;stop-opacity:1" id="stop3760-7-3" offset="0"/><stop style="stop-color:#599ec9;stop-opacity:1" id="stop3762-8-4" offset="1"/></linearGradient><radialGradient id="radialGradient3093" cx="6.069" cy="8.45" r="20" fx="6.069" fy="8.45" gradientTransform="matrix(0,1.1468756,-1.2132576,-3.1216191e-8,22.251804,-6.9430891)" gradientUnits="userSpaceOnUse" xlink:href="#linearGradient2867-449-88-871-390-598-476-591-434-148-57-177-3-8"/><linearGradient id="linearGradient2867-449-88-871-390-598-476-591-434-148-57-177-3-8"><stop style="stop-color:#90dbec;stop-opacity:1" id="stop3750-8-9" offset="0"/><stop style="stop-color:#42baea;stop-opacity:1" id="stop3752-3-2" offset=".262"/><stop style="stop-color:#3689e6;stop-opacity:1" id="stop3754-7-2" offset=".705"/><stop style="stop-color:#2b63a0;stop-opacity:1" id="stop3756-9-3" offset="1"/></linearGradient><linearGradient id="linearGradient3095" x1="24" x2="24" y1="44" y2="3.899" gradientTransform="matrix(0.53851149,0,0,0.53851149,-0.924275,-0.9242757)" gradientUnits="userSpaceOnUse" xlink:href="#linearGradient3707-319-631-407-324-3-8"/><linearGradient id="linearGradient8838"><stop style="stop-color:#000;stop-opacity:1" id="stop8840" offset="0"/><stop style="stop-color:#000;stop-opacity:0" id="stop8842" offset="1"/></linearGradient><radialGradient id="radialGradient3944" cx="62.625" cy="4.625" r="10.625" fx="62.625" fy="4.625" gradientTransform="matrix(1.1294118,0,0,0.2823525,-58.729414,19.694118)" gradientUnits="userSpaceOnUse" xlink:href="#linearGradient8838"/><radialGradient id="radialGradient3018" cx="99.157" cy="186.171" r="62.769" fx="99.157" fy="186.171" gradientTransform="matrix(0.27083381,0,0,0.08762273,8.331369,-28.288014)" gradientUnits="userSpaceOnUse" xlink:href="#linearGradient3820-7-2-1"/><linearGradient id="linearGradient3820-7-2-1"><stop style="stop-color:#3d3d3d;stop-opacity:1" id="stop3822-2-6-3" offset="0"/><stop style="stop-color:#686868;stop-opacity:.49803922" id="stop3864-8-7-7" offset=".5"/><stop style="stop-color:#686868;stop-opacity:0" id="stop3824-1-2-5" offset="1"/></linearGradient><radialGradient id="radialGradient3015" cx="3.972" cy="8.45" r="20" fx="3.972" fy="8.45" gradientTransform="matrix(0,2.4988347,-2.6434689,-6.8014435e-8,57.523255,-65.65571)" gradientUnits="userSpaceOnUse" xlink:href="#linearGradient2867-449-88-871-390-598-476-591-434-148-57-177-3-8"/><linearGradient id="linearGradient3012" x1="71.204" x2="71.204" y1="6.238" y2="44.341" gradientTransform="matrix(1.054054,0,0,1.054054,-40.42456,-56.203143)" gradientUnits="userSpaceOnUse" xlink:href="#linearGradient4011"/><linearGradient id="linearGradient3951" x1="27.925" x2="33.448" y1="15.149" y2="22.986" gradientTransform="matrix(0.51821762,0,0,0.51821762,-0.44769487,-0.54496864)" gradientUnits="userSpaceOnUse" xlink:href="#linearGradient4168"/><linearGradient id="linearGradient4168"><stop style="stop-color:#f8b17e;stop-opacity:1" id="stop4170" offset="0"/><stop style="stop-color:#e35d4f;stop-opacity:1" id="stop4172" offset=".232"/><stop style="stop-color:#c6262e;stop-opacity:1" id="stop4174" offset=".591"/><stop style="stop-color:#690b54;stop-opacity:1" id="stop4176" offset="1"/></linearGradient><linearGradient id="linearGradient3963-7" x1="21.014" x2="22.806" y1="25.434" y2="27.344" gradientTransform="matrix(0.51821762,0,0,0.51821762,-0.44769487,-0.54496864)" gradientUnits="userSpaceOnUse" xlink:href="#linearGradient3957-2"/><linearGradient id="linearGradient3957-2"><stop style="stop-color:#fff;stop-opacity:1" id="stop3959-62" offset="0"/><stop style="stop-color:#c1c1c1;stop-opacity:1" id="stop3961-5" offset="1"/></linearGradient><linearGradient id="linearGradient3963" x1="24" x2="24" y1="22" y2="26" gradientTransform="matrix(0.50000001,0,0,0.50000001,1.5e-7,9.9933987e-4)" gradientUnits="userSpaceOnUse" xlink:href="#linearGradient3957-2"/></defs><metadata id="metadata3951"/><path id="path8836" d="m 24,21 c 0,1.656854 -5.372583,3 -12,3 C 5.3725827,24 -2.5e-7,22.656854 -2.5e-7,21 -2.5e-7,19.343146 5.3725827,18 12,18 c 6.627417,0 12,1.343146 12,3 l 0,0 z" style="display:inline;overflow:visible;visibility:visible;opacity:.3;fill:url(#radialGradient3944);fill-opacity:1;fill-rule:evenodd;stroke:none;stroke-width:.99999988;marker:none"/><path id="path2555-7" d="M 12.000001,1.5 C 6.206464,1.5 1.4999999,6.206462 1.4999999,12 c 0,5.793538 4.7064641,10.500001 10.5000011,10.5 C 17.793536,22.5 22.500005,17.793538 22.5,12 22.5,6.206462 17.793536,1.5 12.000001,1.5 Z" style="color:#000;display:inline;overflow:visible;visibility:visible;fill:url(#radialGradient3093);fill-opacity:1;fill-rule:nonzero;stroke:url(#linearGradient3095);stroke-width:1;stroke-linecap:round;stroke-linejoin:round;stroke-miterlimit:4;stroke-dasharray:none;stroke-dashoffset:0;stroke-opacity:1;marker:none;enable-background:accumulate"/><path id="path8655-6" d="M 21.5,11.999663 C 21.5,17.246537 17.246391,21.5 12.000121,21.5 6.7533684,21.5 2.5,17.246489 2.5,11.999663 c 0,-5.24663 4.2533684,-9.499662 9.500121,-9.499662 5.24627,0 9.499879,4.253032 9.499879,9.499662 l 0,0 z" style="color:#000;display:inline;overflow:visible;visibility:visible;opacity:.5;fill:none;stroke:url(#linearGradient3090);stroke-width:.99999988;stroke-linecap:round;stroke-linejoin:round;stroke-miterlimit:4;stroke-dasharray:none;stroke-dashoffset:0;stroke-opacity:1;marker:none;enable-background:accumulate"/><path style="fill:url(#radialGradient3018);fill-opacity:1;stroke:none" id="path3818-0-5" d="m 52.18644,-11.975243 a 17,5.4999999 0 1 1 -33.999999,0 17,5.4999999 0 1 1 33.999999,0 z"/><path style="color:#000;display:inline;overflow:visible;visibility:visible;fill:url(#radialGradient3015);fill-opacity:1;fill-rule:nonzero;stroke:none;stroke-width:1;marker:none;enable-background:accumulate" id="path2555" d="m 35.186444,-49.975244 c -11.311193,0 -20.500003,9.188806 -20.500003,20.5 0,11.311194 9.18881,20.500005 20.500003,20.500002 11.311188,0 20.500008,-9.188808 20.499997,-20.500002 0,-11.311194 -9.188809,-20.5 -20.499997,-20.5 z"/><path style="color:#000;display:inline;overflow:visible;visibility:visible;opacity:.5;fill:none;stroke:url(#linearGradient3012);stroke-width:1;stroke-linecap:round;stroke-linejoin:round;stroke-miterlimit:4;stroke-dasharray:none;stroke-dashoffset:0;stroke-opacity:1;marker:none;enable-background:accumulate" id="path8655" d="m 54.686441,-29.475934 c 0,10.7699 -8.73109,19.50069 -19.499753,19.50069 -10.769649,0 -19.500247,-8.730889 -19.500247,-19.50069 0,-10.769402 8.730598,-19.499308 19.500247,-19.499308 10.768663,0 19.499753,8.729906 19.499753,19.499308 l 0,0 z"/><path style="color:#000;display:inline;overflow:visible;visibility:visible;opacity:.5;fill:#000;fill-opacity:0;fill-rule:nonzero;stroke:#00537d;stroke-width:1;stroke-linecap:round;stroke-linejoin:round;stroke-miterlimit:4;stroke-dasharray:none;stroke-dashoffset:0;stroke-opacity:1;marker:none;enable-background:accumulate" id="path2555-6" d="m 35.186444,-49.975244 c -11.311193,0 -20.500003,9.188806 -20.500003,20.5 0,11.311194 9.18881,20.500005 20.500003,20.500002 11.311188,0 20.500008,-9.188808 20.499997,-20.500002 0,-11.311194 -9.188809,-20.5 -20.499997,-20.5 z"/><path style="color:#000;display:inline;overflow:visible;visibility:visible;opacity:.05;fill:#000;fill-opacity:1;fill-rule:nonzero;stroke:none;stroke-width:1;marker:none;enable-background:accumulate" id="path4097" d="M 18.515831,5.3983397 A 0.41897759,0.41897759 0 0 0 18.3215,5.4955055 l -7.319824,5.8623365 a 0.41897759,0.41897759 0 0 0 -0.06478,0.06478 l -5.8623364,7.319823 a 0.41897759,0.41897759 0 0 0 0.5829949,0.582995 L 12.97738,13.463101 a 0.41897759,0.41897759 0 0 0 0.06478,-0.06478 L 18.904494,6.0785003 A 0.41897759,0.41897759 0 0 0 18.515831,5.3983397 Z"/><path style="color:#000;display:inline;overflow:visible;visibility:visible;opacity:.15;fill:#000;fill-opacity:1;fill-rule:nonzero;stroke:none;stroke-width:1;marker:none;enable-background:accumulate" id="path3022-96" d="M 18.580608,5.8195211 11.260784,11.681858 5.3984477,19.001682 12.718272,13.139345 18.580608,5.8195211 Z"/><path style="fill:url(#linearGradient3951);fill-opacity:1;stroke:none" id="path3022" d="m 11,11 2,2 5.585361,-7.7035792 z"/><path style="color:#000;display:inline;overflow:visible;visibility:visible;fill:url(#linearGradient3963-7);fill-opacity:1;fill-rule:nonzero;stroke:none;stroke-width:.75;marker:none;enable-background:accumulate" id="path3022-9" d="m 11,11 2,2 -7.6063054,5.488088 z"/><path style="color:#000;display:inline;overflow:visible;visibility:visible;opacity:.2;fill:#000;fill-opacity:1;fill-rule:nonzero;stroke:none;stroke-width:1.33333337;marker:none;enable-background:accumulate" id="path3955-1-5" d="m 13.25,12.25 a 1.25,1.25 0 0 1 -2.5,0 1.25,1.25 0 1 1 2.5,0 z"/><path style="color:#000;display:inline;overflow:visible;visibility:visible;opacity:.05;fill:#fff;fill-opacity:1;fill-rule:nonzero;stroke:none;stroke-width:1;marker:none;enable-background:accumulate" id="path3953" d="m 11.636384,12.271515 a 0.51821762,0.51821762 0 0 1 0.351822,-0.897477 l 0.0013,0.518216 z"/><path style="color:#000;display:inline;overflow:visible;visibility:visible;opacity:.2;fill:#000;fill-opacity:1;fill-rule:nonzero;stroke:none;stroke-width:1.33333337;marker:none;enable-background:accumulate" id="path3955-1" d="m 13,12.251 a 1,1 0 0 1 -1.999999,0 1,1 0 1 1 1.999999,0 z"/><path style="color:#000;display:inline;overflow:visible;visibility:visible;fill:url(#linearGradient3963);fill-opacity:1;fill-rule:nonzero;stroke:none;stroke-width:1;marker:none;enable-background:accumulate" id="path3955" d="m 13,12.001 a 1,1 0 0 1 -1.999999,0 1,1 0 1 1 1.999999,0 z"/></svg>