<svg xmlns="http://www.w3.org/2000/svg" xmlns:svg="http://www.w3.org/2000/svg" xmlns:xlink="http://www.w3.org/1999/xlink" id="svg3946" width="24" height="24" version="1.1"><defs id="defs3948"><linearGradient id="linearGradient3090" x1="71.204" x2="71.204" y1="6.238" y2="44.341" gradientTransform="matrix(0.5135135,0,0,0.5135135,-24.836132,-1.021284)" gradientUnits="userSpaceOnUse" xlink:href="#linearGradient4011"/><linearGradient id="linearGradient4011"><stop style="stop-color:#fff;stop-opacity:1" id="stop4013" offset="0"/><stop style="stop-color:#fff;stop-opacity:.23529412" id="stop4015" offset=".508"/><stop style="stop-color:#fff;stop-opacity:.15686275" id="stop4017" offset=".835"/><stop style="stop-color:#fff;stop-opacity:.39215687" id="stop4019" offset="1"/></linearGradient><linearGradient id="linearGradient3707-319-631-407-324-3-8"><stop style="stop-color:#185f9a;stop-opacity:1" id="stop3760-7-3" offset="0"/><stop style="stop-color:#599ec9;stop-opacity:1" id="stop3762-8-4" offset="1"/></linearGradient><radialGradient id="radialGradient3093" cx="6.069" cy="8.45" r="20" fx="6.069" fy="8.45" gradientTransform="matrix(0,1.1468756,-1.2132576,-3.1216191e-8,22.251804,-6.9430891)" gradientUnits="userSpaceOnUse" xlink:href="#linearGradient2867-449-88-871-390-598-476-591-434-148-57-177-3-8"/><linearGradient id="linearGradient2867-449-88-871-390-598-476-591-434-148-57-177-3-8"><stop style="stop-color:#90dbec;stop-opacity:1" id="stop3750-8-9" offset="0"/><stop style="stop-color:#42baea;stop-opacity:1" id="stop3752-3-2" offset=".262"/><stop style="stop-color:#3689e6;stop-opacity:1" id="stop3754-7-2" offset=".705"/><stop style="stop-color:#2b63a0;stop-opacity:1" id="stop3756-9-3" offset="1"/></linearGradient><linearGradient id="linearGradient3095" x1="24" x2="24" y1="44" y2="3.899" gradientTransform="matrix(0.53851149,0,0,0.53851149,-0.924275,-0.9242757)" gradientUnits="userSpaceOnUse" xlink:href="#linearGradient3707-319-631-407-324-3-8"/><linearGradient id="linearGradient8838"><stop style="stop-color:#000;stop-opacity:1" id="stop8840" offset="0"/><stop style="stop-color:#000;stop-opacity:0" id="stop8842" offset="1"/></linearGradient><radialGradient id="radialGradient3944" cx="62.625" cy="4.625" r="10.625" fx="62.625" fy="4.625" gradientTransform="matrix(1.1294118,0,0,0.2823525,-58.729414,19.694118)" gradientUnits="userSpaceOnUse" xlink:href="#linearGradient8838"/><linearGradient id="linearGradient3242-7-3-8-9-9"><stop style="stop-color:#eef87e;stop-opacity:1" id="stop3244-5-8-5-3-6" offset="0"/><stop style="stop-color:#cde34f;stop-opacity:1" id="stop3246-9-5-1-2-4" offset=".262"/><stop style="stop-color:#93b723;stop-opacity:1" id="stop3248-7-2-0-84-3" offset=".661"/><stop style="stop-color:#5a7e0d;stop-opacity:1" id="stop3250-8-2-8-3-37" offset="1"/></linearGradient><linearGradient id="linearGradient4311"><stop id="stop4313" offset="0" style="stop-color:#6d9700;stop-opacity:1"/><stop id="stop4315" offset="1" style="stop-color:#517100;stop-opacity:1"/></linearGradient><radialGradient id="radialGradient3456" cx="18.164" cy="8.45" r="20" fx="8.895" fy="8.599" gradientTransform="matrix(0,0.70728973,-0.65321479,0,17.753506,-0.92611429)" gradientUnits="userSpaceOnUse" xlink:href="#linearGradient3242-7-3-8-9-9"/><linearGradient id="linearGradient3458" x1="9" x2="10" y1="1" y2="16" gradientTransform="matrix(1.4062011,0,0,1.4000038,0.7027775,0.7999644)" gradientUnits="userSpaceOnUse" xlink:href="#linearGradient4311"/><linearGradient id="linearGradient6191-7-5" x1="-1085.959" x2="-474.685" y1="539.41" y2="375.619" gradientTransform="matrix(0.03514954,0,0,0.0295364,42.216519,-0.80058267)" gradientUnits="userSpaceOnUse" xlink:href="#XMLID_2_-8-6-1-4"/><radialGradient id="XMLID_2_-8-6-1-4" cx="299.448" cy="-290.592" r="17.153" fx="297.45" fy="-289.913" gradientTransform="matrix(0.8232,0.2312,0.2703,-0.9626,-96.2274,-315.3433)" gradientUnits="userSpaceOnUse"><stop style="stop-color:#000;stop-opacity:1" id="stop228-2-7-9-3" offset="0"/><stop style="stop-color:#000;stop-opacity:0" id="stop230-7-5-7-8" offset="1"/></radialGradient></defs><metadata id="metadata3951"/><path id="path8836" d="m 24,21 c 0,1.656854 -5.372583,3 -12,3 C 5.3725827,24 -2.5e-7,22.656854 -2.5e-7,21 -2.5e-7,19.343146 5.3725827,18 12,18 c 6.627417,0 12,1.343146 12,3 l 0,0 z" style="display:inline;overflow:visible;visibility:visible;opacity:.3;fill:url(#radialGradient3944);fill-opacity:1;fill-rule:evenodd;stroke:none;stroke-width:.99999988;marker:none"/><path id="path2555-7" d="m 12,1.5 c -0.01319,0 -0.02588,0.0019 -0.03906,0.00195 0.02607,-5.299e-4 0.05214,-1.99e-5 0.07812,0 C 12.025883,1.5019044 12.01319,1.5 12,1.5 Z m -0.03906,0.00195 c -0.0046,-1.44e-5 -0.0091,0 -0.01367,0 C 6.1782156,1.5307429 1.5,6.2242574 1.5,12 c 0,4.677796 3.0694416,8.642767 7.3007812,9.998047 C 7.184146,21.335714 5.9017587,19.99201 5.6464844,17.826172 5.3277774,15.122139 7.3910487,12.125015 11.947266,12.017578 L 12.210938,12 c 2.76556,0 5.01172,-2.2930283 5.011718,-5.1152344 C 17.039768,3.9796787 14.628011,1.5103964 11.960938,1.5019531 Z m 10.484374,9.4257809 c 0.03517,0.352659 0.05273,0.71024 0.05273,1.072266 0,0.362025 -0.01757,0.719608 -0.05273,1.072266 C 22.481198,12.719546 22.5,12.362096 22.5,12 c 0,-0.362096 -0.0188,-0.719546 -0.05469,-1.072266 z M 8.8535156,22.017578 c 0.016938,0.0053 0.033807,0.01038 0.050781,0.01563 -0.016459,-0.0064 -0.034389,-0.0091 -0.050781,-0.01563 z" style="color:#000;display:inline;overflow:visible;visibility:visible;fill:url(#radialGradient3093);fill-opacity:1;fill-rule:nonzero;stroke:url(#linearGradient3095);stroke-width:1;stroke-linecap:round;stroke-linejoin:round;stroke-miterlimit:4;stroke-dasharray:none;stroke-dashoffset:0;stroke-opacity:1;marker:none;enable-background:accumulate"/><path style="color:#000;display:inline;overflow:visible;visibility:visible;opacity:.5;fill:url(#linearGradient6191-7-5);fill-opacity:1;fill-rule:nonzero;stroke:none;stroke-width:1;marker:none;enable-background:accumulate" id="path6534-2" d="m 12.296875,2.0001173 -1.21875,0.14062 -1.3906249,0.34375 c 0.117597,-0.0389 0.237518,-0.0721 0.3593749,-0.10937 l -0.09375,-0.15625 c -0.29225,0.0588 -0.576881,0.12137 -0.859375,0.20312 -0.01421,0.004 -0.03267,0.0114 -0.04687,0.0156 -0.331787,0.0975 -0.65232,0.20049 -0.96875,0.32813 l -0.03125,0.0312 -0.0625,0.0156 c -0.0724,0.0301 -0.147236,0.0622 -0.21875,0.0937 l -0.140625,0.26562 -0.07813,-0.17187 c -0.06481,0.0304 -0.139095,0.0621 -0.203125,0.0937 l 0.03125,0.29687 -0.34375,0.26563 -0.1875,0.5 0.40625,0 0.15625,-0.32813 0.0625,-0.10937 c 0.181317,-0.12124 0.362208,-0.2583 0.546875,-0.375 l 0.421875,0.125 c 0.280148,0.17997 0.563366,0.36717 0.84375,0.54687 l 0.40625,-0.35937 -0.453125,-0.1875 -0.21875,-0.40625 -0.796875,-0.0781 -0.01563,-0.0781 0.34375,0.0625 0.1875,-0.1875 0.4375,-0.0781 c 0.101826,-0.0469 0.209709,-0.0869 0.3125,-0.125 l -0.28125,0.23438 0.9687499,0.625 0,0.375 -0.3749999,0.35937 0.4999999,0.9375 0.34375,-0.17187 0.4375,-0.625 c 0.604962,-0.17685 1.13213,-0.3804 1.703125,-0.625 l -0.03125,0.23437 0.296875,0.17188 0.5,-0.3125 -0.25,-0.28125 -0.34375,0.1875 -0.109375,-0.0312 c 0.02474,-0.0107 0.05332,-0.0204 0.07813,-0.0312 l 0.5,-1.21875 -1.09375,-0.40625 c -0.01435,-3.1e-4 -0.0169,2.5e-4 -0.03125,0 z m -4.8906249,1.82812 0.421875,0.26563 0.328125,0 0,-0.3125 -0.40625,-0.17188 z m -1.25,0 -0.171875,0.45313 c 0,0 -0.31008,0.0437 -0.390625,0.0625 -1.028636,0.89626 -3.110893,2.83183 -3.59375,6.4843697 0.01912,0.0847 0.34375,0.57813 0.34375,0.57813 l 0.78125,0.4375 0.796875,0.20312 0.328125,0.39063 0.53125,0.375 0.296875,-0.0469 0.21875,0.0937 0,0.0781 -0.28125,0.75 -0.234375,0.32813 0.0625,0.15625 -0.171875,0.60937 0.65625,1.15625 0.6875,0.54688 0.296875,0.42187 -0.03125,0.84375 0.21875,0.46875 -0.21875,0.92188 c -0.0036,0.0115 -0.01434,0.0476 0,0.0937 0.02896,0.0923 1.20679,0.70858 1.28125,0.65625 0.01826,-0.0131 0.01476,-0.0193 0.03125,-0.0312 -0.415848,-0.73996 -0.65625,-1.59057 -0.65625,-2.5 0,-1.44049 0.605009,-2.72565 1.5625,-3.65625 l -0.28125,-0.53125 -0.5625,-0.125 -0.296875,-0.75 -0.734375,0.0781 -0.640625,-0.4375 -0.6875,0.5625 0,0.0781 c -0.204062,-0.0557 -0.443297,-0.0662 -0.625,-0.17188 l -0.140625,-0.40625 0,-0.4375 -0.46875,0.0469 c 0.03751,-0.28075 0.08723,-0.56304 0.125,-0.84375 l -0.265625,0 -0.28125,0.32813 -0.25,0.10937 -0.375,-0.20312 -0.03125,-0.4375 0.07813,-0.46875 0.546875,-0.4218802 0.453125,0 0.09375,-0.23437 0.546875,0.125 0.421875,0.5000002 0.0625,-0.8281302 0.71875,-0.5468695 0.25,-0.59375 0.546875,-0.21875 0.28125,-0.40625 0.671875,-0.10938 0.359375,-0.48437 -1.03125,0 0.640625,-0.28125 0.453125,0 0.578125,-0.1875 0.109375,0.51562 0.25,-0.35937 -0.28125,-0.1875 0.0625,-0.21875 -0.234375,-0.20313 -0.25,-0.0625 0.0625,-0.26562 -0.1875,-0.35938 -0.453125,0.17188 0.07813,-0.32813 -0.53125,-0.28125 -0.40625,0.67188 0.04687,0.25 -0.421875,0.17187 -0.25,0.51563 -0.125,-0.48438 -0.703125,-0.28125 -0.125,-0.35937 0.953125,-0.51563 0.421875,-0.375 0.03125,-0.4375 -0.234375,-0.125 z m 9.6562499,0.1875 -0.07813,0.0469 0,0.26563 -0.734375,0.4375 0.140625,0.65625 0.421875,-0.28125 0.28125,0.28125 0.296875,0.17187 0.203125,-0.48437 -0.109375,-0.29688 0.0625,-0.10937 c -0.144385,-0.24524 -0.307969,-0.46699 -0.484375,-0.6875 z m -1.953125,0.625 0,0.28125 0.15625,0.15625 0,0.42188 -0.09375,0.53125 0.46875,-0.0781 0.34375,-0.32812 -0.3125,-0.26563 c -0.09884,-0.24887 -0.188792,-0.48004 -0.3125,-0.71875 z m -0.40625,0.54688 -0.28125,0.0781 0.07813,0.5 0.359375,-0.1875 z m 2.15625,0.28125 -0.265625,0.1875 0.109375,0.28125 -0.421875,0 -0.234375,0.35937 -0.28125,0.3125 L 14,6.7188673 l 0.296875,0.28125 0.07813,0.28125 -0.375,0 -0.5,0.26562 0,0.75 0.21875,0 0.21875,0.21875 0.484375,-0.21875 0.1875,-0.46875 0.34375,-0.20312 0.07813,-0.15625 0.578125,-0.15625 0.3125,0.34375 0.359375,0.17187 -0.203125,0.375 0.296875,-0.0781 0.15625,-0.375 -0.390625,-0.4375 0.171875,0 0.390625,0.3125 0.07813,0.40625 0.1875,0.20312 c 0.06674,-0.32557 0.109375,-0.67048 0.109375,-1.01562 -0.03765,-0.58595 -0.181018,-1.13945 -0.390625,-1.67188 l -0.484375,0.39063 -0.59375,-0.14063 z m -0.265625,2.98437 -0.734375,0.0781 -0.640625,0.15625 c -0.368204,0.3946895 -0.760875,0.8088395 -1.109375,1.2187495 l -0.40625,0.9375002 0.1875,0.20312 -0.34375,0.5 0.296875,0.65625 c 1.871176,-0.19617 3.446078,-1.42855 4.125,-3.1093702 l -0.15625,0.15625 -0.71875,-0.6718795 z"/><path id="path2555-1-1" d="m 11.946877,1.5010625 c 2.672512,0 5.092807,2.4740041 5.276009,5.3840688 2e-6,2.8222061 -2.343966,4.6607037 -5.109527,4.6607037 l -0.263802,0.01683 c -4.5562171,0.107437 -6.5226967,3.55914 -6.2039897,6.263173 0.4096728,3.475809 3.4641624,4.837894 6.3013097,4.656267 l 0,0.01683 c 0.08807,0.0022 0.1752,0 0.263802,0 5.676154,0 10.288218,-4.70652 10.288216,-10.498928 0,-5.7924105 -4.612062,-10.4989321 -10.288216,-10.4989321 -0.08861,0 -0.175732,-0.00224 -0.263802,-1.24e-5 z" style="color:#000;display:inline;overflow:visible;visibility:visible;fill:url(#radialGradient3456);fill-opacity:1;fill-rule:nonzero;stroke:url(#linearGradient3458);stroke-width:1;stroke-linejoin:round;stroke-opacity:1;marker:none;enable-background:accumulate"/><path id="path4273" d="M 6.9576164,18.827808 C 6.7572117,16.444897 6.9500332,15.233205 8.0629418,14.024688 9.8709037,12.061407 13.686053,13.354329 15.691708,11.593493 17.188609,10.27931 18.244551,9.9714047 18.22799,6.1826374" style="opacity:.2;fill:none;fill-rule:evenodd;stroke:#fff;stroke-width:1px;stroke-linecap:round;stroke-linejoin:miter;stroke-opacity:1"/><path id="path8655-6" d="M 21.5,11.999663 C 21.5,17.246537 17.246391,21.5 12.000121,21.5 6.7533684,21.5 2.5,17.246489 2.5,11.999663 c 0,-5.24663 4.2533684,-9.499662 9.500121,-9.499662 5.24627,0 9.499879,4.253032 9.499879,9.499662 l 0,0 z" style="color:#000;display:inline;overflow:visible;visibility:visible;opacity:.5;fill:none;stroke:url(#linearGradient3090);stroke-width:.99999988;stroke-linecap:round;stroke-linejoin:round;stroke-miterlimit:4;stroke-dasharray:none;stroke-dashoffset:0;stroke-opacity:1;marker:none;enable-background:accumulate"/></svg>