<svg xmlns="http://www.w3.org/2000/svg" xmlns:svg="http://www.w3.org/2000/svg" xmlns:xlink="http://www.w3.org/1999/xlink" id="svg3426" width="24" height="24" version="1.1"><defs id="defs3428"><linearGradient id="linearGradient3924"><stop style="stop-color:#fff;stop-opacity:1" id="stop3926" offset="0"/><stop style="stop-color:#fff;stop-opacity:.23529412" id="stop3928" offset=".063"/><stop style="stop-color:#fff;stop-opacity:.15686275" id="stop3930" offset=".951"/><stop style="stop-color:#fff;stop-opacity:.39215687" id="stop3932" offset="1"/></linearGradient><linearGradient id="linearGradient3688-166-749"><stop style="stop-color:#181818;stop-opacity:1" id="stop2883" offset="0"/><stop style="stop-color:#181818;stop-opacity:0" id="stop2885" offset="1"/></linearGradient><linearGradient id="linearGradient3688-464-309"><stop style="stop-color:#181818;stop-opacity:1" id="stop2889" offset="0"/><stop style="stop-color:#181818;stop-opacity:0" id="stop2891" offset="1"/></linearGradient><linearGradient id="linearGradient3702-501-757"><stop style="stop-color:#181818;stop-opacity:0" id="stop2895" offset="0"/><stop style="stop-color:#181818;stop-opacity:1" id="stop2897" offset=".5"/><stop style="stop-color:#181818;stop-opacity:0" id="stop2899" offset="1"/></linearGradient><radialGradient id="radialGradient3064" cx="4.993" cy="43.5" r="2.5" fx="4.993" fy="43.5" gradientTransform="matrix(2.003784,0,0,1.4,27.98813,-17.4)" gradientUnits="userSpaceOnUse" xlink:href="#linearGradient3688-166-749"/><radialGradient id="radialGradient3066" cx="4.993" cy="43.5" r="2.5" fx="4.993" fy="43.5" gradientTransform="matrix(2.003784,0,0,1.4,-20.01187,-104.4)" gradientUnits="userSpaceOnUse" xlink:href="#linearGradient3688-464-309"/><linearGradient id="linearGradient3068" x1="25.058" x2="25.058" y1="47.028" y2="39.999" gradientUnits="userSpaceOnUse" xlink:href="#linearGradient3702-501-757"/><linearGradient id="linearGradient3088" x1="24" x2="24" y1="5" y2="43" gradientTransform="matrix(0.45945947,0,0,0.45945947,0.9742203,0.9717328)" gradientUnits="userSpaceOnUse" xlink:href="#linearGradient3924"/><radialGradient id="radialGradient3091" cx="7.496" cy="8.45" r="20" fx="7.496" fy="8.45" gradientTransform="matrix(0,1.1385337,-1.2044328,-2.0976135e-8,22.177231,-5.7502893)" gradientUnits="userSpaceOnUse" xlink:href="#linearGradient4632-92-3-0-8-1-6"/><linearGradient id="linearGradient3866" x1="71.204" x2="71.204" y1="6.238" y2="44.341" gradientTransform="matrix(-0.12612572,0,0,0.12612572,24.549488,9.2956327)" gradientUnits="userSpaceOnUse" xlink:href="#linearGradient4011-9-9-70-61-7"/><linearGradient id="linearGradient4011-9-9-70-61-7"><stop style="stop-color:#fff;stop-opacity:1" id="stop4013-5-4-3-8-3" offset="0"/><stop id="stop4015-1-5-70-9-5" offset=".508" style="stop-color:#fff;stop-opacity:.23529412"/><stop style="stop-color:#fff;stop-opacity:.15686275" id="stop4017-7-0-13-0-1" offset=".835"/><stop style="stop-color:#fff;stop-opacity:.39215687" id="stop4019-1-12-7-0-7" offset="1"/></linearGradient><linearGradient id="linearGradient3869" x1="38.977" x2="38.977" y1="59.968" y2="8.093" gradientTransform="matrix(-0.12200399,0,0,0.12200399,19.406172,8.3456975)" gradientUnits="userSpaceOnUse" xlink:href="#linearGradient4215-8-4-07-7"/><linearGradient id="linearGradient4215-8-4-07-7"><stop id="stop4217-1-2-1-2" offset="0" style="stop-color:#e9e9e9;stop-opacity:1"/><stop id="stop4219-3-4-0-96" offset="1" style="stop-color:#fff;stop-opacity:1"/></linearGradient><linearGradient id="linearGradient3884" x1="30.271" x2="30.271" y1="10.029" y2="55.053" gradientTransform="matrix(0.38888771,0,0,0.4374987,-0.4423505,-1.5061266)" gradientUnits="userSpaceOnUse" xlink:href="#linearGradient27416-1-2"/><linearGradient id="linearGradient27416-1-2"><stop id="stop27420-2-0" offset="0" style="stop-color:#55c1ec;stop-opacity:1"/><stop id="stop27422-3-5" offset="1" style="stop-color:#3689e6;stop-opacity:1"/></linearGradient><linearGradient id="linearGradient4632-92-3-0-8-1-6"><stop style="stop-color:#fafafa;stop-opacity:1" id="stop4634-68-8-0-2-9-1" offset="0"/><stop style="stop-color:#e1e1e1;stop-opacity:1" id="stop4636-8-21-7-1-4-9" offset="1"/></linearGradient></defs><metadata id="metadata3431"/><g style="opacity:.4" id="g3712" transform="matrix(0.5789476,0,0,0.42857134,-1.894738,2.8571264)"><rect style="fill:url(#radialGradient3064);fill-opacity:1;stroke:none" id="rect2801" width="5" height="7" x="38" y="40"/><rect style="fill:url(#radialGradient3066);fill-opacity:1;stroke:none" id="rect3696" width="5" height="7" x="-10" y="-47" transform="scale(-1)"/><rect style="fill:url(#linearGradient3068);fill-opacity:1;stroke:none" id="rect3700" width="28" height="7" x="10" y="40"/></g><path id="rect5505-21" d="M 3.5 3 C 3.2143514 3 3 3.2143514 3 3.5 L 3 20.5 C 3 20.785649 3.2143514 21 3.5 21 L 20.5 21 C 20.785649 21 21 20.785649 21 20.5 L 21 3.5 C 21 3.2143514 20.785649 3 20.5 3 L 3.5 3 z" style="color:#000;fill:url(#radialGradient3091);fill-opacity:1;fill-rule:nonzero;stroke:none;stroke-width:1;stroke-linecap:round;stroke-linejoin:round;stroke-miterlimit:4;stroke-opacity:.23907104;stroke-dasharray:none;stroke-dashoffset:0;marker:none;visibility:visible;display:inline;overflow:visible;enable-background:accumulate"/><rect id="rect6741-9" width="17" height="17" x="3.501" y="3.499" style="opacity:.5;fill:none;stroke:url(#linearGradient3088);stroke-width:.99999988;stroke-linecap:round;stroke-linejoin:round;stroke-miterlimit:4;stroke-opacity:1;stroke-dasharray:none;stroke-dashoffset:0"/><path id="path4356-7-9" d="m 4.93578,4.9745759 a 0.44444569,0.44444569 0 0 1 -0.888891,0 0.44444569,0.44444569 0 1 1 0.888891,0 z" style="color:#000;display:inline;overflow:visible;visibility:visible;fill:#fff;fill-opacity:1;fill-rule:evenodd;stroke:none;stroke-width:.33830979;marker:none;enable-background:accumulate"/><path id="path4356-9" d="m 4.93578,4.5301309 a 0.44444569,0.44444569 0 0 1 -0.888891,0 0.44444569,0.44444569 0 1 1 0.888891,0 z" style="color:#000;display:inline;overflow:visible;visibility:visible;opacity:.3;fill:#000;fill-opacity:1;fill-rule:evenodd;stroke:none;stroke-width:.33830979;marker:none;enable-background:accumulate"/><path id="path4356-7-6-7" d="m 19.91606,4.9745759 a 0.44444561,0.44444561 0 0 1 -0.88889,0 0.44444561,0.44444561 0 1 1 0.88889,0 z" style="color:#000;display:inline;overflow:visible;visibility:visible;fill:#fff;fill-opacity:1;fill-rule:evenodd;stroke:none;stroke-width:.33830979;marker:none;enable-background:accumulate"/><path id="path4356-8-9" d="m 19.91606,4.5301309 a 0.44444561,0.44444561 0 0 1 -0.88889,0 0.44444561,0.44444561 0 1 1 0.88889,0 z" style="color:#000;display:inline;overflow:visible;visibility:visible;opacity:.3;fill:#000;fill-opacity:1;fill-rule:evenodd;stroke:none;stroke-width:.33830979;marker:none;enable-background:accumulate"/><path id="path4356-7-9-3" d="m 4.93578,19.992089 a 0.44444569,0.44444569 0 0 1 -0.888891,0 0.44444569,0.44444569 0 1 1 0.888891,0 z" style="color:#000;display:inline;overflow:visible;visibility:visible;fill:#fff;fill-opacity:1;fill-rule:evenodd;stroke:none;stroke-width:.33830979;marker:none;enable-background:accumulate"/><path id="path4356-9-1" d="m 4.93578,19.547643 a 0.44444569,0.44444569 0 0 1 -0.888891,0 0.44444569,0.44444569 0 1 1 0.888891,0 z" style="color:#000;display:inline;overflow:visible;visibility:visible;opacity:.3;fill:#000;fill-opacity:1;fill-rule:evenodd;stroke:none;stroke-width:.33830979;marker:none;enable-background:accumulate"/><path id="path4356-7-6-7-1" d="m 19.91606,19.992089 a 0.44444561,0.44444561 0 0 1 -0.88889,0 0.44444561,0.44444561 0 1 1 0.88889,0 z" style="color:#000;display:inline;overflow:visible;visibility:visible;fill:#fff;fill-opacity:1;fill-rule:evenodd;stroke:none;stroke-width:.33830979;marker:none;enable-background:accumulate"/><path id="path4356-8-9-8" d="m 19.91606,19.547643 a 0.44444561,0.44444561 0 0 1 -0.88889,0 0.44444561,0.44444561 0 1 1 0.88889,0 z" style="color:#000;display:inline;overflow:visible;visibility:visible;opacity:.3;fill:#000;fill-opacity:1;fill-rule:evenodd;stroke:none;stroke-width:.33830979;marker:none;enable-background:accumulate"/><path id="rect13708-6" d="m 8.5452698,8.993838 c -1.9150596,0 -3.4567864,1.541726 -3.4567864,3.456785 0,1.91506 1.5417268,3.456788 3.4567864,3.456788 l 6.9135732,0 c 1.915061,0 3.456787,-1.541728 3.456787,-3.456788 0,-1.915059 -1.541726,-3.456785 -3.456787,-3.456785 z" style="color:#000;display:inline;overflow:visible;visibility:visible;opacity:.2;fill:#fff;fill-opacity:1;stroke:none;stroke-width:1.55555081;marker:none;enable-background:accumulate"/><path id="rect13708" d="m 8.5020659,8.9938426 c -1.9389936,0 -3.4999886,1.5609954 -3.4999886,3.4999894 0,1.938993 1.560995,3.49999 3.4999886,3.49999 l 6.9999801,0 c 1.938994,0 3.499988,-1.560996 3.499988,-3.49999 0,-1.938994 -1.560994,-3.4999894 -3.499988,-3.4999894 z" style="color:#000;display:inline;overflow:visible;visibility:visible;fill:url(#linearGradient3884);fill-opacity:1;stroke:none;stroke-width:1.55555081;marker:none;enable-background:accumulate"/><path id="path5598" d="m 8.5019531,8.9929462 c -1.9389936,0 -3.5,1.5610048 -3.5,3.4999988 0,0.171373 0.025258,0.33535 0.048828,0.5 0.2431172,-1.698286 1.6835509,-2.9999988 3.451172,-2.9999988 l 6.9999999,0 c 1.767622,0 3.208055,1.3017128 3.451172,2.9999988 0.02357,-0.16465 0.04883,-0.328627 0.04883,-0.5 0,-1.938994 -1.561006,-3.4999988 -3.5,-3.4999988 l -6.9999999,0 z" style="color:#000;display:inline;overflow:visible;visibility:visible;opacity:.3;fill:#0e4774;fill-opacity:1;stroke:none;stroke-width:1.55555081;marker:none;enable-background:accumulate"/><path style="color:#000;display:inline;overflow:visible;visibility:visible;opacity:.15;fill:#000;fill-opacity:1;fill-rule:nonzero;stroke:none;stroke-width:1.55555081;marker:none;enable-background:accumulate" id="path2555-7-1-9-4-9" d="m 15.502045,9.9699661 c 1.931172,0 3.499989,1.5688109 3.499989,3.4999869 0,1.931173 -1.568817,3.499988 -3.499989,3.499988 -1.931177,0 -3.499993,-1.568815 -3.49999,-3.499988 0,-1.931176 1.568813,-3.4999869 3.49999,-3.4999869 z"/><path style="color:#000;display:inline;overflow:visible;visibility:visible;fill:url(#linearGradient3869);fill-opacity:1;fill-rule:nonzero;stroke:none;stroke-width:.77777541;marker:none;enable-background:accumulate" id="path2555-7-1-9-4" d="m 15.502045,9.3827311 c 1.716597,0 3.111102,1.3945029 3.111102,3.1111009 0,1.716601 -1.394505,3.111103 -3.111102,3.111103 -1.7166,0 -3.111105,-1.394502 -3.111102,-3.111103 0,-1.716598 1.394502,-3.1111009 3.111102,-3.1111009 z"/><path style="color:#000;display:inline;overflow:visible;visibility:visible;fill:none;stroke:url(#linearGradient3866);stroke-width:.77777541;stroke-linecap:round;stroke-linejoin:round;stroke-miterlimit:4;stroke-dasharray:none;stroke-dashoffset:0;stroke-opacity:1;marker:none;enable-background:accumulate" id="path8655-6-0-5-2" d="m 13.168718,12.493749 c 0,1.288704 1.044745,2.33341 2.333299,2.33341 1.28867,0 2.333354,-1.044719 2.333354,-2.33341 0,-1.288641 -1.044684,-2.333242 -2.333354,-2.333242 -1.288554,0 -2.333299,1.044601 -2.333299,2.333242 l 0,0 z"/><path style="color:#000;display:inline;overflow:visible;visibility:visible;opacity:.3;fill:none;stroke:#000;stroke-width:.77777541;stroke-linecap:round;stroke-linejoin:round;stroke-miterlimit:4;stroke-dasharray:none;stroke-dashoffset:0;stroke-opacity:1;marker:none;enable-background:accumulate" id="path2555-7-1-9-9-41" d="m 15.502046,9.3827319 c 1.716599,0 3.111101,1.3945021 3.111101,3.1111011 0,1.7166 -1.394502,3.111101 -3.111101,3.111101 -1.716601,0 -3.111106,-1.394501 -3.111103,-3.111101 0,-1.716599 1.394502,-3.1111011 3.111103,-3.1111011 z"/><path id="rect7183" d="M 3.5,2 C 2.6776486,2 2,2.6776486 2,3.5 l 0,17 C 2,21.322351 2.6776486,22 3.5,22 l 17,0 c 0.822351,0 1.5,-0.677649 1.5,-1.5 l 0,-17 C 22,2.6776486 21.322351,2 20.5,2 l -17,0 z m 0,1 17,0 C 20.785649,3 21,3.2143514 21,3.5 l 0,17 c 0,0.285649 -0.214351,0.5 -0.5,0.5 l -17,0 C 3.2143514,21 3,20.785649 3,20.5 L 3,3.5 C 3,3.2143514 3.2143514,3 3.5,3 Z" style="color:#000;font-style:normal;font-variant:normal;font-weight:400;font-stretch:normal;font-size:medium;line-height:normal;font-family:sans-serif;text-indent:0;text-align:start;text-decoration:none;text-decoration-line:none;text-decoration-style:solid;text-decoration-color:#000;letter-spacing:normal;word-spacing:normal;text-transform:none;direction:ltr;block-progression:tb;writing-mode:lr-tb;baseline-shift:baseline;text-anchor:start;white-space:normal;shape-padding:0;clip-rule:nonzero;display:inline;overflow:visible;visibility:visible;opacity:1;isolation:auto;mix-blend-mode:normal;color-interpolation:sRGB;color-interpolation-filters:linearRGB;solid-color:#000;solid-opacity:1;fill:#000;fill-opacity:.23907106;fill-rule:nonzero;stroke:none;stroke-width:1;stroke-linecap:round;stroke-linejoin:round;stroke-miterlimit:4;stroke-dasharray:none;stroke-dashoffset:0;stroke-opacity:1;marker:none;color-rendering:auto;image-rendering:auto;shape-rendering:auto;text-rendering:auto;enable-background:accumulate"/></svg>