<svg xmlns="http://www.w3.org/2000/svg" xmlns:svg="http://www.w3.org/2000/svg" xmlns:xlink="http://www.w3.org/1999/xlink" id="svg2526" width="32" height="32" version="1.0"><metadata id="metadata58"/><defs id="defs2528"><linearGradient id="linearGradient5060"><stop style="stop-color:#000;stop-opacity:1" id="stop5062" offset="0"/><stop style="stop-color:#000;stop-opacity:0" id="stop5064" offset="1"/></linearGradient><linearGradient id="linearGradient5048"><stop style="stop-color:#000;stop-opacity:0" id="stop5050" offset="0"/><stop style="stop-color:#000;stop-opacity:1" id="stop5056" offset=".5"/><stop style="stop-color:#000;stop-opacity:0" id="stop5052" offset="1"/></linearGradient><linearGradient id="linearGradient3188" x1="302.857" x2="302.857" y1="366.648" y2="609.505" gradientTransform="matrix(0.08139144,0,0,0.01235294,-6.1669741,38.470822)" gradientUnits="userSpaceOnUse" xlink:href="#linearGradient5048"/><radialGradient id="radialGradient3190" cx="605.714" cy="486.648" r="117.143" fx="605.714" fy="486.648" gradientTransform="matrix(-0.0289166,0,0,0.01235294,21.026894,38.470848)" gradientUnits="userSpaceOnUse" xlink:href="#linearGradient5060"/><radialGradient id="radialGradient3192" cx="605.714" cy="486.648" r="117.143" fx="605.714" fy="486.648" gradientTransform="matrix(0.02891661,0,0,0.01235294,25.473313,38.470848)" gradientUnits="userSpaceOnUse" xlink:href="#linearGradient5060"/><linearGradient id="linearGradient3462"><stop style="stop-color:#fff;stop-opacity:1" id="stop3464" offset="0"/><stop style="stop-color:#fff;stop-opacity:.23529412" id="stop3466" offset=".035"/><stop style="stop-color:#fff;stop-opacity:.15686275" id="stop3468" offset=".964"/><stop style="stop-color:#fff;stop-opacity:.39215687" id="stop3470" offset="1"/></linearGradient><linearGradient id="linearGradient3217" x1="40.29" x2="40.29" y1="5.414" y2="42.438" gradientTransform="matrix(0.75675677,0,0,0.62162162,-1.6621659,2.0810823)" gradientUnits="userSpaceOnUse" xlink:href="#linearGradient3462"/><radialGradient id="radialGradient3220" cx="7.118" cy="9.957" r="12.672" fx="7.118" fy="9.957" gradientTransform="matrix(0,5.8591313,-8.6317703,0,103.08675,-48.953548)" gradientUnits="userSpaceOnUse" xlink:href="#linearGradient2867-449-88-871-390-598-476-591-434-148-57-177-8-3-3-6-4-8-8-8-5"/><linearGradient id="linearGradient3680-6-6-6-3-7-4"><stop style="stop-color:#dcdcdc;stop-opacity:1" id="stop3682-4-6-1-3-7-0" offset="0"/><stop style="stop-color:#fff;stop-opacity:1" id="stop3684-8-5-8-0-2-5" offset="1"/></linearGradient><linearGradient id="linearGradient2867-449-88-871-390-598-476-591-434-148-57-177-8-3-3-6-4-8-8-8-5"><stop style="stop-color:#919caf;stop-opacity:1" id="stop3750-1-0-7-6-6-1-3-9-3" offset="0"/><stop style="stop-color:#68758e;stop-opacity:1" id="stop3752-3-7-4-0-32-8-923-0-7" offset=".262"/><stop style="stop-color:#485a6c;stop-opacity:1" id="stop3754-1-8-5-2-7-6-7-1-9" offset=".705"/><stop style="stop-color:#444c5c;stop-opacity:1" id="stop3756-1-6-2-6-6-1-96-6-0" offset="1"/></linearGradient><linearGradient id="linearGradient4565" x1="59.485" x2="59.485" y1="35" y2="-1" gradientTransform="matrix(0.74999988,0,0,0.50000016,-25.985981,4.499994)" gradientUnits="userSpaceOnUse" xlink:href="#linearGradient3680-6-6-6-3-7-4"/><linearGradient id="linearGradient4176" x1="59.485" x2="59.485" y1="35" y2="-1" gradientTransform="matrix(0.74999988,0,0,0.50000016,-25.985981,5.499994)" gradientUnits="userSpaceOnUse" xlink:href="#linearGradient3680-6-6-6-3-7-4"/></defs><g style="opacity:.4" id="g3257" transform="matrix(0.6666592,0,0,1.3333333,1.0001792,-30.333332)"><rect style="display:inline;overflow:visible;visibility:visible;fill:url(#linearGradient3188);fill-opacity:1;fill-rule:nonzero;stroke:none;stroke-width:1;marker:none" id="rect2879" width="39.3" height="3" x="3.6" y="43"/><path style="display:inline;overflow:visible;visibility:visible;fill:url(#radialGradient3190);fill-opacity:1;fill-rule:nonzero;stroke:none;stroke-width:1;marker:none" id="path2881" d="m 3.6,43.00013 c 0,0 0,2.999835 0,2.999835 C 2.1108662,46.005612 0,45.327854 0,44.499854 0,43.671856 1.6617608,43.000131 3.6,43.00013 Z"/><path style="display:inline;overflow:visible;visibility:visible;fill:url(#radialGradient3192);fill-opacity:1;fill-rule:nonzero;stroke:none;stroke-width:1;marker:none" id="path2883" d="m 42.900212,43.00013 c 0,0 0,2.999835 0,2.999835 1.489133,0.0056 3.6,-0.672111 3.6,-1.500111 0,-0.827998 -1.661761,-1.499723 -3.6,-1.499724 z"/></g><rect style="color:#000;display:inline;overflow:visible;visibility:visible;opacity:1;fill:url(#radialGradient3220);fill-opacity:1;fill-rule:nonzero;stroke:none;stroke-width:.99999994;marker:none;enable-background:accumulate" id="rect5505-21-3-8-5-2" width="30" height="25" x="1.5" y="4.5" rx="1.017" ry="1.064"/><path id="path3372" d="m 7,13 0,2 3,0 0,-2 z m 4,0 0,2 3,0 0,-2 z m 4,0 0,2 3,0 0,-2 z m 4,0 0,2 3,0 0,-2 z m 4,0 0,2 3,0 0,-2 z m -16,3 0,2 3,0 0,-2 z m 4,0 0,2 3,0 0,-2 z m 4,0 0,2 3,0 0,-2 z m 4,0 0,2 3,0 0,-2 z m 4,0 0,2 3,0 0,-2 z m -16,3 0,2 3,0 0,-2 z m 4,0 0,2 3,0 0,-2 z m 4,0 0,2 3,0 0,-2 z m 4,0 0,2 3,0 0,-2 z m 4,0 0,2 3,0 0,-2 z m -12,3 0,2 11,0 0,-2 z" style="color:#000;display:inline;overflow:visible;visibility:visible;opacity:.01050002;fill:#000;fill-opacity:1;fill-rule:nonzero;stroke:#000;stroke-width:2;stroke-linejoin:round;stroke-miterlimit:4;stroke-dasharray:none;stroke-opacity:1;marker:none;enable-background:accumulate"/><path id="path3374" d="m 7,12 0,2 3,0 0,-2 z m 4,0 0,2 3,0 0,-2 z m 4,0 0,2 3,0 0,-2 z m 4,0 0,2 3,0 0,-2 z m 4,0 0,2 3,0 0,-2 z m -16,3 0,2 3,0 0,-2 z m 4,0 0,2 3,0 0,-2 z m 4,0 0,2 3,0 0,-2 z m 4,0 0,2 3,0 0,-2 z m 4,0 0,2 3,0 0,-2 z m -16,3 0,2 3,0 0,-2 z m 4,0 0,2 3,0 0,-2 z m 4,0 0,2 3,0 0,-2 z m 4,0 0,2 3,0 0,-2 z m 4,0 0,2 3,0 0,-2 z m -12,3 0,2 11,0 0,-2 z" style="color:#000;display:inline;overflow:visible;visibility:visible;opacity:.07000002;fill:url(#linearGradient4176);fill-opacity:1;fill-rule:nonzero;stroke:#000;stroke-width:2;stroke-linejoin:round;stroke-miterlimit:4;stroke-dasharray:none;stroke-opacity:1;marker:none;enable-background:accumulate"/><rect style="opacity:.3;fill:none;stroke:url(#linearGradient3217);stroke-width:.99999982;stroke-linecap:round;stroke-linejoin:round;stroke-miterlimit:4;stroke-dasharray:none;stroke-dashoffset:0;stroke-opacity:1" id="rect6741-5-0-2-3" width="28" height="23" x="2.5" y="5.5"/><rect style="color:#000;display:inline;overflow:visible;visibility:visible;opacity:.5;fill:none;stroke:#1c2c38;stroke-width:1;stroke-linecap:round;stroke-linejoin:round;stroke-miterlimit:4;stroke-dasharray:none;stroke-dashoffset:0;stroke-opacity:1;marker:none;enable-background:accumulate" id="rect5505-21-3-8-9-1-1" width="30" height="25" x="1.5" y="4.5" rx="1.017" ry="1.064"/><path style="color:#000;display:inline;overflow:visible;visibility:visible;opacity:.15;fill:#000;fill-opacity:1;fill-rule:nonzero;stroke:none;stroke-width:1;marker:none;enable-background:accumulate" id="path4239-5" d="m 7,12 0,2 3,0 0,-2 z m 4,0 0,2 3,0 0,-2 z m 4,0 0,2 3,0 0,-2 z m 4,0 0,2 3,0 0,-2 z m 4,0 0,2 3,0 0,-2 z m -16,3 0,2 3,0 0,-2 z m 4,0 0,2 3,0 0,-2 z m 4,0 0,2 3,0 0,-2 z m 4,0 0,2 3,0 0,-2 z m 4,0 0,2 3,0 0,-2 z m -16,3 0,2 3,0 0,-2 z m 4,0 0,2 3,0 0,-2 z m 4,0 0,2 3,0 0,-2 z m 4,0 0,2 3,0 0,-2 z m 4,0 0,2 3,0 0,-2 z m -12,3 0,2 11,0 0,-2 z"/><path style="color:#000;display:inline;overflow:visible;visibility:visible;fill:url(#linearGradient4565);fill-opacity:1;fill-rule:nonzero;stroke:none;stroke-width:1;marker:none;enable-background:accumulate" id="path4239" d="m 7,11 0,2 3,0 0,-2 z m 4,0 0,2 3,0 0,-2 z m 4,0 0,2 3,0 0,-2 z m 4,0 0,2 3,0 0,-2 z m 4,0 0,2 3,0 0,-2 z m -16,3 0,2 3,0 0,-2 z m 4,0 0,2 3,0 0,-2 z m 4,0 0,2 3,0 0,-2 z m 4,0 0,2 3,0 0,-2 z m 4,0 0,2 3,0 0,-2 z m -16,3 0,2 3,0 0,-2 z m 4,0 0,2 3,0 0,-2 z m 4,0 0,2 3,0 0,-2 z m 4,0 0,2 3,0 0,-2 z m 4,0 0,2 3,0 0,-2 z m -12,3 0,2 11,0 0,-2 z"/></svg>