<svg xmlns="http://www.w3.org/2000/svg" xmlns:svg="http://www.w3.org/2000/svg" xmlns:xlink="http://www.w3.org/1999/xlink" id="svg4735" width="32" height="32" version="1.1"><defs id="defs4737"><linearGradient id="linearGradient3688-166-749-654"><stop style="stop-color:#181818;stop-opacity:1" id="stop3088" offset="0"/><stop style="stop-color:#181818;stop-opacity:0" id="stop3090" offset="1"/></linearGradient><linearGradient id="linearGradient3688-464-309-604"><stop style="stop-color:#181818;stop-opacity:1" id="stop3094" offset="0"/><stop style="stop-color:#181818;stop-opacity:0" id="stop3096" offset="1"/></linearGradient><linearGradient id="linearGradient3702-501-757-795"><stop style="stop-color:#181818;stop-opacity:0" id="stop3100" offset="0"/><stop style="stop-color:#181818;stop-opacity:1" id="stop3102" offset=".5"/><stop style="stop-color:#181818;stop-opacity:0" id="stop3104" offset="1"/></linearGradient><radialGradient id="radialGradient3163" cx="32" cy="4.342" r="27.5" fx="32" fy="4.342" gradientTransform="matrix(0,1.1089614,-1.1089613,0,20.815017,-32.521288)" gradientUnits="userSpaceOnUse" xlink:href="#linearGradient4632-92-3-0-8-1-7"/><linearGradient id="linearGradient4632-92-3-0-8-1-7"><stop style="stop-color:#fafafa;stop-opacity:1" id="stop4634-68-8-0-2-9-4" offset="0"/><stop style="stop-color:#e1e1e1;stop-opacity:1" id="stop4636-8-21-7-1-4-0" offset="1"/></linearGradient><linearGradient id="linearGradient3159" x1="16.806" x2="16.806" y1="20.62" y2="42.728" gradientTransform="matrix(1.1559522,0,0,1.1559522,-2.8718854,-20.613802)" gradientUnits="userSpaceOnUse" xlink:href="#linearGradient4035"/><linearGradient id="linearGradient4035"><stop style="stop-color:#fff;stop-opacity:1" id="stop4037" offset="0"/><stop style="stop-color:#fff;stop-opacity:.23529412" id="stop4039" offset=".056"/><stop style="stop-color:#fff;stop-opacity:.15686275" id="stop4041" offset=".944"/><stop style="stop-color:#fff;stop-opacity:.39215687" id="stop4043" offset="1"/></linearGradient><linearGradient id="linearGradient4830" x1="25.058" x2="25.058" y1="47.028" y2="39.999" gradientTransform="matrix(0.71428587,0,0,0.42857138,-1.1904689,1031.2194)" gradientUnits="userSpaceOnUse" xlink:href="#linearGradient3702-501-757-795"/><radialGradient id="radialGradient4833" cx="4.993" cy="43.5" r="2.5" fx="4.993" fy="43.5" gradientTransform="matrix(1.5819375,0,0,0.59999999,-13.851497,-1075.9622)" gradientUnits="userSpaceOnUse" xlink:href="#linearGradient3688-464-309-604"/><radialGradient id="radialGradient4836" cx="4.996" cy="43.5" r="2.5" fx="4.996" fy="43.5" gradientTransform="matrix(1.6030271,1.5809436e-7,-4.1092975e-8,0.60000462,17.990506,1023.7621)" gradientUnits="userSpaceOnUse" xlink:href="#linearGradient3688-166-749-654"/><linearGradient id="linearGradient12739"><stop style="stop-color:#fff;stop-opacity:1" id="stop12741" offset="0"/><stop style="stop-color:#fff;stop-opacity:0" id="stop12743" offset="1"/></linearGradient><linearGradient id="linearGradient3688-166-749-654-6"><stop style="stop-color:#181818;stop-opacity:1" id="stop3088-5" offset="0"/><stop style="stop-color:#181818;stop-opacity:0" id="stop3090-7" offset="1"/></linearGradient><linearGradient id="linearGradient12727"><stop style="stop-color:#181818;stop-opacity:0" id="stop12729" offset="0"/><stop style="stop-color:#181818;stop-opacity:0" id="stop12745" offset=".538"/><stop style="stop-color:#181818;stop-opacity:1" id="stop12731" offset="1"/></linearGradient><linearGradient id="linearGradient4632-92-3-0-8-1-7-6"><stop style="stop-color:#fafafa;stop-opacity:1" id="stop4634-68-8-0-2-9-4-8" offset="0"/><stop style="stop-color:#e1e1e1;stop-opacity:1" id="stop4636-8-21-7-1-4-0-7" offset="1"/></linearGradient><linearGradient id="linearGradient3878"><stop style="stop-color:#fff;stop-opacity:1" id="stop3880" offset="0"/><stop style="stop-color:#fff;stop-opacity:.23529412" id="stop3882" offset=".077"/><stop style="stop-color:#fff;stop-opacity:.15686275" id="stop3884" offset=".923"/><stop style="stop-color:#fff;stop-opacity:.39215687" id="stop3886" offset="1"/></linearGradient><linearGradient id="linearGradient4220-7"><stop style="stop-color:#7a8498;stop-opacity:1" id="stop4222-7" offset="0"/><stop style="stop-color:#34405c;stop-opacity:1" id="stop4224-0" offset="1"/></linearGradient><linearGradient id="linearGradient4967" x1="44.2" x2="53.8" y1="1037.505" y2="1037.505" gradientTransform="matrix(0.41666668,0,0,0.58333335,-0.4167,-628.2113)" gradientUnits="userSpaceOnUse" xlink:href="#linearGradient12739"/><radialGradient id="radialGradient4973" cx="51.91" cy="38.188" r="27.5" fx="51.91" fy="38.188" gradientTransform="matrix(0,0.2105263,-0.21052635,0,31.039586,11.0712)" gradientUnits="userSpaceOnUse" spreadMethod="pad" xlink:href="#linearGradient12727"/><linearGradient id="linearGradient4975" x1="30.5" x2="49.5" y1="30" y2="30" gradientTransform="matrix(0.57894738,0,0,0.57894738,-0.15789925,4.6312)" gradientUnits="userSpaceOnUse" xlink:href="#linearGradient4632-92-3-0-8-1-7-6"/><linearGradient id="linearGradient4977" x1="33.244" x2="66.732" y1="42.379" y2="42.379" gradientTransform="matrix(0,0.40372668,-0.40372667,0,40.110976,1.8185)" gradientUnits="userSpaceOnUse" xlink:href="#linearGradient3878"/><linearGradient id="linearGradient4985" x1="79.457" x2="79.457" y1="22.857" y2="50.057" gradientTransform="matrix(0.57189537,0,0,0.57189537,-22.441174,1.153)" gradientUnits="userSpaceOnUse" xlink:href="#linearGradient4220-7"/><linearGradient id="linearGradient5031" x1="32.14" x2="65.26" y1="29.5" y2="29.5" gradientTransform="matrix(0,0.37815125,0.37815125,0,18.727151,1.4664)" gradientUnits="userSpaceOnUse" xlink:href="#linearGradient3688-166-749-654-6"/><linearGradient id="linearGradient5545" x1="38.068" x2="53.632" y1="26.55" y2="26.55" gradientTransform="matrix(0,-1.1564626,1.1564626,0,-7.7040807,75.0238)" gradientUnits="userSpaceOnUse" xlink:href="#linearGradient3688-166-749-654"/><clipPath id="clipPath5549"><rect style="color:#000;fill:url(#linearGradient5553);fill-opacity:1;fill-rule:nonzero;stroke:none;stroke-width:.99999994;marker:none;visibility:visible;display:inline;overflow:visible;enable-background:accumulate" id="rect5551" width="11" height="11" x="17.5" y="1037.862" rx="25" ry="25"/></clipPath><linearGradient id="linearGradient5553" x1="30.5" x2="49.5" y1="30" y2="30" gradientTransform="matrix(0.57894738,0,0,0.57894738,-0.15789925,1025.9934)" gradientUnits="userSpaceOnUse" xlink:href="#linearGradient4632-92-3-0-8-1-7-6"/></defs><metadata id="metadata4740"/><g id="g4838" transform="translate(0,-1020.3622)"><rect style="opacity:.4;fill:url(#radialGradient4836);fill-opacity:1;stroke:none" id="rect2801" width="4" height="3" x="26" y="1048.362"/><rect style="opacity:.4;fill:url(#radialGradient4833);fill-opacity:1;stroke:none" id="rect3696" width="4" height="3" x="-6" y="-1051.362" transform="scale(-1,-1)"/><rect style="opacity:.4;fill:url(#linearGradient4830);fill-opacity:1;stroke:none" id="rect3700" width="20" height="3" x="6" y="1048.362"/></g><path style="opacity:.15;fill:none;stroke:url(#linearGradient5545);stroke-width:1;stroke-miterlimit:4;stroke-dasharray:none;stroke-opacity:1" id="path5035" d="m 23,13.499992 a 8.5,8.5 0 1 1 0,16.999999 8.5,8.5 0 1 1 0,-16.999999 z"/><rect style="color:#000;display:inline;overflow:visible;visibility:visible;fill:url(#radialGradient3163);fill-opacity:1;fill-rule:nonzero;stroke:none;stroke-width:.99999994;marker:none;enable-background:accumulate" id="rect5505-21-3-8-5-2" width="25.92" height="25.92" x="3.04" y="3.04" rx="1.62" ry="1.62"/><rect style="opacity:.3;fill:none;stroke:#000;stroke-width:1;stroke-opacity:1" id="rect3993" width="27" height="27" x="2.5" y="2.5" rx="2.16" ry="2.16"/><rect style="fill:none;stroke:url(#linearGradient3159);stroke-width:1.00000012;stroke-linecap:round;stroke-linejoin:round;stroke-miterlimit:4;stroke-dasharray:none;stroke-dashoffset:0;stroke-opacity:1" id="rect6741-5-0-2-3" width="25" height="25" x="3.5" y="3.5" rx="1.087" ry="1.087"/><g style="font-style:normal;font-variant:normal;font-weight:700;font-stretch:normal;font-size:16px;line-height:125%;font-family:'Open Sans';-inkscape-font-specification:'Open Sans Bold';text-align:center;letter-spacing:0;word-spacing:0;text-anchor:middle;opacity:.6;fill:#000;fill-opacity:1;stroke:none" id="text7620" transform="translate(0,-1021.3622)"><path id="path7921" d="m 14.683594,1043.0184 -0.828125,-2.7187 -4.1640627,0 -0.828125,2.7187 -2.6093751,0 4.0312498,-11.4687 2.960938,0 4.046875,11.4687 -2.609375,0 m -1.40625,-4.75 c -0.765632,-2.4635 -1.197923,-3.8567 -1.296875,-4.1797 -0.09376,-0.3229 -0.161464,-0.5781 -0.203125,-0.7656 -0.171881,0.6667 -0.664068,2.3151 -1.476563,4.9453 l 2.976563,0"/><path id="path7923" d="m 24.082031,1043.0184 -0.460937,-1.1875 -0.0625,0 c -0.401048,0.5052 -0.81511,0.8568 -1.242188,1.0547 -0.421879,0.1927 -0.973962,0.2891 -1.65625,0.2891 -0.838544,0 -1.500002,-0.2396 -1.984375,-0.7188 -0.479167,-0.4791 -0.71875,-1.1614 -0.71875,-2.0468 0,-0.9271 0.322916,-1.6094 0.96875,-2.0469 0.65104,-0.4427 1.630205,-0.6875 2.9375,-0.7344 l 1.515625,-0.047 0,-0.3828 c -6e-6,-0.8854 -0.45313,-1.3281 -1.359375,-1.3281 -0.69792,0 -1.518232,0.2109 -2.460937,0.6328 l -0.789063,-1.6094 c 1.005206,-0.526 2.119788,-0.789 3.34375,-0.789 1.171869,0 2.070306,0.2552 2.695313,0.7656 0.624992,0.5104 0.937491,1.2865 0.9375,2.3281 l 0,5.8203 -1.664063,0 m -0.703125,-4.0468 -0.921875,0.031 c -0.692713,0.021 -1.208337,0.1458 -1.546875,0.375 -0.338545,0.2292 -0.507815,0.5781 -0.507812,1.0469 -3e-6,0.6719 0.385413,1.0078 1.15625,1.0078 0.552078,0 0.992182,-0.1589 1.320312,-0.4766 0.333328,-0.3177 0.499994,-0.7395 0.5,-1.2656 l 0,-0.7187"/></g><path style="color:#000;display:inline;overflow:visible;visibility:visible;fill:url(#linearGradient4985);fill-opacity:1;fill-rule:nonzero;stroke:none;stroke-width:.79069769;marker:none;enable-background:accumulate" id="path4218" d="m 30.5,22.0027 a 7.5,7.5 0 0 1 -14.999999,0 7.5,7.5 0 1 1 14.999999,0 z"/><path style="opacity:.3;fill:none;stroke:#000;stroke-width:.99999994;stroke-miterlimit:4;stroke-dasharray:none;stroke-opacity:1" id="path7624" d="m 30.499999,22.0043 a 7.4999994,7.4993877 0 0 1 -14.999997,0 7.5000001,7.4993877 0 1 1 14.999997,0 z"/><path style="opacity:.3;fill:none;stroke:url(#linearGradient4977);stroke-width:.99999982;stroke-miterlimit:4;stroke-dasharray:none;stroke-opacity:1" id="path7681" d="m 22.999999,28.5 a 6.5,6.5 0 1 1 0,-13 6.5,6.5 0 0 1 0,13 z"/><rect style="color:#000;display:inline;overflow:visible;visibility:visible;fill:url(#linearGradient4975);fill-opacity:1;fill-rule:nonzero;stroke:none;stroke-width:.99999994;marker:none;enable-background:accumulate" id="rect8115" width="11" height="11" x="17.5" y="16.5" rx="25" ry="25"/><g style="font-style:normal;font-variant:normal;font-weight:700;font-stretch:normal;font-size:18px;line-height:125%;font-family:'Open Sans';-inkscape-font-specification:'Open Sans Bold';text-align:center;letter-spacing:0;word-spacing:0;text-anchor:middle;opacity:.6;fill:#000;fill-opacity:1;stroke:none" id="text4993" clip-path="url(#clipPath5549)" transform="translate(0,-1021.3622)"><path id="path7862" d="m 14.519043,1043.7255 -0.931641,-3.0586 -4.68457,0 -0.9316406,3.0586 -2.9355469,0 4.5351563,-12.9024 3.3310542,0 4.552735,12.9024 -2.935547,0 m -1.582031,-5.3438 c -0.861335,-2.7715 -1.347663,-4.3388 -1.458985,-4.7021 -0.105475,-0.3633 -0.181647,-0.6504 -0.228515,-0.8614 -0.193366,0.75 -0.747076,2.6045 -1.6611331,5.5635 l 3.3486331,0"/><path id="path7864" d="m 25.092285,1043.7255 -0.518555,-1.336 -0.07031,0 c -0.451179,0.5684 -0.916998,0.9639 -1.397461,1.1865 -0.474615,0.2168 -1.095708,0.3252 -1.863281,0.3252 -0.943362,0 -1.687502,-0.2695 -2.232422,-0.8085 -0.539064,-0.5391 -0.808595,-1.3067 -0.808594,-2.3028 -10e-7,-1.0429 0.36328,-1.8105 1.089844,-2.3027 0.732419,-0.4981 1.833981,-0.7734 3.304687,-0.8262 l 1.705079,-0.053 0,-0.4307 c -7e-6,-0.9961 -0.509772,-1.4941 -1.529297,-1.4941 -0.785161,0 -1.708012,0.2373 -2.768555,0.7119 l -0.887695,-1.8106 c 1.130856,-0.5917 2.384761,-0.8876 3.761718,-0.8877 1.318353,10e-5 2.329094,0.2872 3.032227,0.8614 0.703116,0.5742 1.054678,1.4472 1.054687,2.6191 l 0,6.5479 -1.87207,0 m -0.791015,-4.5528 -1.03711,0.035 c -0.779302,0.023 -1.359379,0.1641 -1.740234,0.4219 -0.380863,0.2578 -0.571293,0.6504 -0.571289,1.1777 -4e-6,0.7559 0.43359,1.1338 1.300781,1.1338 0.621088,0 1.116205,-0.1787 1.485352,-0.5361 0.374993,-0.3575 0.562493,-0.8321 0.5625,-1.4239 l 0,-0.8086"/></g><rect style="color:#000;display:inline;overflow:visible;visibility:visible;opacity:.4;fill:url(#radialGradient4973);fill-opacity:1;fill-rule:nonzero;stroke:none;stroke-width:.99999994;marker:none;enable-background:accumulate" id="rect12723" width="11" height="11" x="17.5" y="16.5" rx="25" ry="25"/><path style="opacity:.3;fill:none;stroke:#000;stroke-width:1.00000012;stroke-miterlimit:4;stroke-dasharray:none;stroke-opacity:1" id="path8113" d="m 28.5,22.0029 a 5.4999995,5.4995141 0 0 1 -10.999998,0 5.5,5.4995145 0 1 1 10.999998,0 z"/><path style="opacity:.15;fill:none;stroke:url(#linearGradient5031);stroke-width:.99999994;stroke-miterlimit:4;stroke-dasharray:none;stroke-opacity:1" id="path8123" d="m 23.000949,26.5 a 4.5000001,4.5000001 0 0 0 0,-9 4.5000001,4.5000001 0 1 0 0,9 z"/><rect style="color:#000;display:inline;overflow:visible;visibility:visible;opacity:.5;fill:url(#linearGradient4967);fill-opacity:1;fill-rule:nonzero;stroke:none;stroke-width:.99999994;marker:none;enable-background:accumulate" id="rect12733" width="4" height="6" x="18" y="-26" rx="25" ry="25" transform="matrix(0,1,-1,0,0,0)"/></svg>