<svg xmlns="http://www.w3.org/2000/svg" xmlns:svg="http://www.w3.org/2000/svg" xmlns:xlink="http://www.w3.org/1999/xlink" id="svg3810" width="16" height="16" version="1.1"><defs id="defs3812"><linearGradient id="linearGradient4589"><stop style="stop-color:#fff;stop-opacity:1" id="stop4591" offset="0"/><stop style="stop-color:#fff;stop-opacity:.23529412" id="stop4593" offset="0"/><stop style="stop-color:#fff;stop-opacity:.15686275" id="stop4595" offset="1"/><stop style="stop-color:#fff;stop-opacity:.39215687" id="stop4597" offset="1"/></linearGradient><linearGradient id="linearGradient3600"><stop style="stop-color:#f4f4f4;stop-opacity:1" id="stop3602" offset="0"/><stop style="stop-color:#dbdbdb;stop-opacity:1" id="stop3604" offset="1"/></linearGradient><linearGradient id="linearGradient3104-6-6-1"><stop style="stop-color:#000;stop-opacity:.31782946" id="stop3106-3-2" offset="0"/><stop style="stop-color:#000;stop-opacity:.24031007" id="stop3108-9-8-3" offset="1"/></linearGradient><linearGradient id="linearGradient4356"><stop style="stop-color:#fff;stop-opacity:1" id="stop4358" offset="0"/><stop style="stop-color:#fff;stop-opacity:.23529412" id="stop4360" offset=".01"/><stop style="stop-color:#fff;stop-opacity:.15686275" id="stop4362" offset=".983"/><stop style="stop-color:#fff;stop-opacity:.39215687" id="stop4364" offset="1"/></linearGradient><linearGradient id="linearGradient3679" x1="-51.786" x2="-51.786" y1="50.786" y2="2.906" gradientTransform="matrix(0.33196022,0,0,0.24401541,22.862892,1.5515839)" gradientUnits="userSpaceOnUse" xlink:href="#linearGradient3104-6-6-1"/><linearGradient id="linearGradient3695" x1="11.003" x2="11.003" y1="7.35" y2="40.65" gradientTransform="matrix(0.22297298,0,0,0.27027026,0.27364997,2.0135165)" gradientUnits="userSpaceOnUse" xlink:href="#linearGradient4356"/><linearGradient id="linearGradient3733" x1="24" x2="24" y1="7.35" y2="40.444" gradientTransform="matrix(0.35135134,0,0,0.27027025,-0.4324303,2.0135169)" gradientUnits="userSpaceOnUse" xlink:href="#linearGradient4589"/><linearGradient id="linearGradient3741" x1="25.132" x2="25.132" y1=".985" y2="47.013" gradientTransform="matrix(0.34285635,0,0,0.23901194,0.77144719,2.3970465)" gradientUnits="userSpaceOnUse" xlink:href="#linearGradient3600"/><radialGradient id="radialGradient3698-6" cx="6.73" cy="9.957" r="12.672" fx="6.2" fy="9.957" gradientTransform="matrix(0,3.0412936,-3.4225923,0,40.76625,-25.570651)" gradientUnits="userSpaceOnUse" xlink:href="#linearGradient2867-449-88-871-390-598-476-591-434-148-57-177-8-3-3-6-4-8-8-8-2-8-3"/><linearGradient id="linearGradient2867-449-88-871-390-598-476-591-434-148-57-177-8-3-3-6-4-8-8-8-2-8-3"><stop style="stop-color:#ffcd7d;stop-opacity:1" id="stop3750-1-0-7-6-6-1-3-9-9-0-0" offset="0"/><stop style="stop-color:#fc8f36;stop-opacity:1" id="stop3752-3-7-4-0-32-8-923-0-7-8-8" offset=".262"/><stop style="stop-color:#e23a0e;stop-opacity:1" id="stop3754-1-8-5-2-7-6-7-1-8-0-3" offset=".705"/><stop style="stop-color:#ac441f;stop-opacity:1" id="stop3756-1-6-2-6-6-1-96-6-1-1-0" offset="1"/></linearGradient><linearGradient id="linearGradient3412"><stop style="stop-color:#fcfcfc;stop-opacity:1" id="stop3414" offset="0"/><stop style="stop-color:#cbcdd9;stop-opacity:1" id="stop3416" offset="1"/></linearGradient><linearGradient id="linearGradient3040" x1="33.877" x2="44.119" y1="19.948" y2="30.191" gradientTransform="matrix(0,0.6,0.6,0,5.8976269,-12.49769)" gradientUnits="userSpaceOnUse" xlink:href="#linearGradient3412"/></defs><metadata id="metadata3815"/><path style="fill:url(#linearGradient3741);fill-opacity:1;stroke:none;display:inline" id="path4160" d="m 3,3 c 2.7498091,0 11.999985,6.996e-4 11.999985,6.996e-4 L 15,14 C 15,14 7,14 3,14 3,10.333334 3,6.6666664 3,3 z"/><path style="opacity:.4;color:#000;fill:#fff;fill-opacity:1;fill-rule:nonzero;stroke:none;stroke-width:.54960775;marker:none;visibility:visible;display:inline;overflow:visible;enable-background:accumulate" id="path3035-5" d="M 14,10 A 3,3 0 1 1 12.413036,7.3536196 L 11,10 z"/><path style="opacity:.15;color:#000;fill:#000;fill-opacity:1;fill-rule:nonzero;stroke:none;stroke-width:.99992186;marker:none;visibility:visible;display:inline;overflow:visible;enable-background:accumulate" id="path3035-0" d="M 14,9.0315169 A 3,3 0 1 1 12.413036,6.3851373 L 11,9.0315169 z"/><path style="opacity:.15;color:#000;fill:#000;fill-opacity:1;fill-rule:nonzero;stroke:none;stroke-width:.99992186;marker:none;visibility:visible;display:inline;overflow:visible;enable-background:accumulate" id="path3962" d="M 14,9.0315169 C 14,10.332224 13.053981,11.575721 11.800522,11.922707 11.771232,11.917607 11,9.0315169 11,9.0315169 z"/><path style="opacity:.15;color:#000;fill:#000;fill-opacity:1;fill-rule:nonzero;stroke:none;stroke-width:.99992186;marker:none;visibility:visible;display:inline;overflow:visible;enable-background:accumulate" id="path3964" d="M 14,9.0315169 C 14,10.332224 13.053981,11.575721 11.800522,11.922707 10.547062,12.269693 9.0964945,11.689634 8.4275622,10.574141 8.4222122,10.578941 11,9.0315169 11,9.0315169 z"/><path style="fill:none;stroke:url(#linearGradient3679);stroke-width:.9999218;stroke-linecap:butt;stroke-linejoin:round;stroke-miterlimit:4;stroke-opacity:1;stroke-dasharray:none;stroke-dashoffset:0;display:inline" id="path4160-6-1" d="m 3,14.500039 12.500039,0 0,-12.0000782 -12.500039,0"/><path style="fill:none;stroke:url(#linearGradient3733);stroke-width:1;stroke-linecap:round;stroke-linejoin:miter;stroke-miterlimit:4;stroke-opacity:1;stroke-dasharray:none;stroke-dashoffset:0" id="rect6741-1" d="m 14.5,13.5 -13.0000001,0 0,-10 L 14.5,3.5 z"/><path style="color:#000;fill:url(#radialGradient3698-6);fill-opacity:1;fill-rule:nonzero;stroke:none;stroke-width:.99999994;marker:none;visibility:visible;display:inline;overflow:visible;enable-background:accumulate" id="path4530-2" d="m 3,14.5 -2.37584979,0 c -0.23300037,-0.142087 -0.0558237,-0.424186 -0.11118465,-0.625336 0,-3.768571 0,-7.5371421 0,-11.305712 L 0.54546106,2.520152 0.62415076,2.5 l 0,0 L 3,2.5"/><path style="opacity:.4;color:#000;fill:none;stroke:#640000;stroke-width:1;stroke-linecap:butt;stroke-linejoin:round;stroke-miterlimit:4;stroke-opacity:1;stroke-dasharray:none;stroke-dashoffset:0;marker:none;visibility:visible;display:inline;overflow:visible;enable-background:accumulate" id="path4530" d="m 3,14.5 c -0.9586147,0 -1.4172301,0 -2.37584979,0 -0.23300037,-0.142086 -0.0558237,-0.424185 -0.11118465,-0.625336 0,-3.768571 0,-7.5371421 0,-11.305712 L 0.54546106,2.5201526 0.62415076,2.5 l 0,0 C 1.6218754,2.5 2.0022802,2.5 3,2.5"/><path style="opacity:.5;fill:none;stroke:url(#linearGradient3695);stroke-width:.99999994;stroke-linecap:square;stroke-linejoin:round;stroke-miterlimit:4;stroke-opacity:1;stroke-dasharray:none;stroke-dashoffset:0" id="rect6741-1-5" d="M 2.5000001,13.5 1.5,13.5 l 0,-10 1.0000001,0"/><g id="g4827" transform="translate(-24.951162,-3.6559055)"><path style="fill:none;stroke:#aaa;stroke-width:1px;stroke-linecap:butt;stroke-linejoin:miter;stroke-opacity:1" id="path4167" d="m 28.951162,11.155905 2,0"/><path style="fill:none;stroke:#aaa;stroke-width:1px;stroke-linecap:butt;stroke-linejoin:miter;stroke-opacity:1" id="path4169" d="m 28.945162,13.155905 1.006,0"/><path style="fill:none;stroke:#aaa;stroke-width:1px;stroke-linecap:butt;stroke-linejoin:miter;stroke-opacity:1" id="path4173" d="m 28.945169,15.181889 3.005993,0"/><path style="fill:none;stroke:#aaa;stroke-width:1px;stroke-linecap:butt;stroke-linejoin:miter;stroke-opacity:1" id="path4175" d="m 30.951162,13.155905 1,0"/><g id="g3082" transform="matrix(-1,0,0,1,57.448789,4.3535955)"><path style="opacity:.8;fill:url(#linearGradient3040);fill-opacity:1;fill-rule:evenodd;stroke:#83899a;stroke-width:1px;stroke-linecap:butt;stroke-linejoin:miter;stroke-opacity:1" id="path3410" d="m 16.997627,5.8023097 9,9.0000003 -9,0 0,-9.0000003 z m 2,5.0000003 0,2 2,0 -2,-2 z"/></g></g></svg>