<svg xmlns="http://www.w3.org/2000/svg" xmlns:svg="http://www.w3.org/2000/svg" xmlns:xlink="http://www.w3.org/1999/xlink" id="svg4017" width="64" height="64" version="1.1"><defs id="defs4019"><radialGradient id="radialGradient3153" cx="605.714" cy="486.648" r="117.143" fx="605.714" fy="486.648" gradientTransform="matrix(0.03132633,0,0,0.02058823,35.220859,1037.8136)" gradientUnits="userSpaceOnUse" xlink:href="#linearGradient5060"/><linearGradient id="linearGradient5060"><stop style="stop-color:#000;stop-opacity:1" id="stop5062" offset="0"/><stop style="stop-color:#000;stop-opacity:0" id="stop5064" offset="1"/></linearGradient><radialGradient id="radialGradient3156" cx="605.714" cy="486.648" r="117.143" fx="605.714" fy="486.648" gradientTransform="matrix(-0.03132632,0,0,0.02058823,28.779136,1037.8136)" gradientUnits="userSpaceOnUse" xlink:href="#linearGradient5060"/><linearGradient id="linearGradient5048"><stop style="stop-color:#000;stop-opacity:0" id="stop5050" offset="0"/><stop style="stop-color:#000;stop-opacity:1" id="stop5056" offset=".5"/><stop style="stop-color:#000;stop-opacity:0" id="stop5052" offset="1"/></linearGradient><linearGradient id="linearGradient4015" x1="302.857" x2="302.857" y1="366.648" y2="609.505" gradientTransform="matrix(0.09153846,0,0,0.02058823,-1.084616,1037.8136)" gradientUnits="userSpaceOnUse" xlink:href="#linearGradient5048"/><linearGradient id="linearGradient3104"><stop id="stop3106" offset="0" style="stop-color:#a0a0a0;stop-opacity:1"/><stop id="stop3108" offset="1" style="stop-color:#bebebe;stop-opacity:1"/></linearGradient><linearGradient id="linearGradient3600-9"><stop id="stop3602-3" offset="0" style="stop-color:#f4f4f4;stop-opacity:1"/><stop id="stop3604-7" offset="1" style="stop-color:#dbdbdb;stop-opacity:1"/></linearGradient><linearGradient id="linearGradient3977-4"><stop style="stop-color:#fff;stop-opacity:1" id="stop3979-7" offset="0"/><stop id="stop3981-6" offset=".036" style="stop-color:#fff;stop-opacity:.23529412"/><stop style="stop-color:#fff;stop-opacity:.15686275" id="stop3983-5" offset=".951"/><stop style="stop-color:#fff;stop-opacity:.39215687" id="stop3985-6" offset="1"/></linearGradient><linearGradient id="linearGradient3093" x1="24" x2="24" y1="5.564" y2="43" gradientTransform="matrix(1.2162162,0,0,1.5405376,2.8108184,981.38923)" gradientUnits="userSpaceOnUse" xlink:href="#linearGradient3977-4"/><linearGradient id="linearGradient3096" x1="25.132" x2="25.132" y1=".985" y2="47.013" gradientTransform="matrix(1.3428567,0,0,1.2819685,-0.22855506,985.62813)" gradientUnits="userSpaceOnUse" xlink:href="#linearGradient3600-9"/><linearGradient id="linearGradient3098" x1="-51.786" x2="-51.786" y1="50.786" y2="2.906" gradientTransform="matrix(1.0843525,0,0,1.1997316,79.550873,984.1994)" gradientUnits="userSpaceOnUse" xlink:href="#linearGradient3104"/></defs><metadata id="metadata4022"/><g id="layer1" transform="translate(0,-988.36218)"><rect id="rect2879" width="44.2" height="5" x="9.9" y="1045.362" style="opacity:.3;fill:url(#linearGradient4015);fill-opacity:1;fill-rule:nonzero;stroke:none;stroke-width:1;marker:none;visibility:visible;display:inline;overflow:visible"/><path id="path2881" d="m 9.9,1045.3624 c 0,0 0,4.9997 0,4.9997 -1.6132281,0.01 -3.9,-1.1202 -3.9,-2.5002 0,-1.38 1.8002408,-2.4995 3.9,-2.4995 z" style="opacity:.3;fill:url(#radialGradient3156);fill-opacity:1;fill-rule:nonzero;stroke:none;stroke-width:1;marker:none;visibility:visible;display:inline;overflow:visible"/><path id="path2883" d="m 54.099999,1045.3624 c 0,0 0,4.9997 0,4.9997 1.613228,0.01 3.900001,-1.1202 3.900001,-2.5002 0,-1.38 -1.800241,-2.4995 -3.900001,-2.4995 z" style="opacity:.3;fill:url(#radialGradient3153);fill-opacity:1;fill-rule:nonzero;stroke:none;stroke-width:1;marker:none;visibility:visible;display:inline;overflow:visible"/><path id="path4160-6" d="m 8.4999609,988.86214 c 10.7701071,0 47.0000371,0.004 47.0000371,0.004 l 5.6e-5,58.99606 c 0,0 -31.333395,0 -47.0000931,0 0,-19.6667 0,-39.3332 0,-58.99981 z" style="fill:url(#linearGradient3096);fill-opacity:1;stroke:url(#linearGradient3098);stroke-width:.99992186;stroke-linecap:butt;stroke-linejoin:round;stroke-miterlimit:4;stroke-opacity:1;stroke-dasharray:none;stroke-dashoffset:0;display:inline"/><path id="rect6741-1-8" d="m 54.499999,1046.8622 -44.9999992,0 0,-57.00004 44.9999992,0 z" style="fill:none;stroke:url(#linearGradient3093);stroke-width:1;stroke-linecap:round;stroke-linejoin:miter;stroke-miterlimit:4;stroke-opacity:1;stroke-dasharray:none;stroke-dashoffset:0"/><g id="g3025" transform="translate(1.0176952,-0.98867709)"><path id="rect3137-6-5-5-1" d="m 35,1038.3622 4,0 0,4 -4,0 z m -8,0 4,0 0,4 -4,0 z m -8,0 4,0 0,4 -4,0 z m 12,-4 4,0 0,4 -4,0 z m -8,0 4,0 0,4 -4,0 z m -8,0 4,0 0,4 -4,0 z m 20,-4 4,0 0,4 -4,0 z m -8,0 4,0 0,4 -4,0 z m -8,0 4,0 0,4 -4,0 z m 12,-4 4,0 0,4 -4,0 z m -8,0 4,0 0,4 -4,0 z m -8,0 4,0 0,4 -4,0 z m 20,-4 4,0 0,4 -4,0 z m -8,0 4,0 0,4 -4,0 z m -8,0 4,0 0,4 -4,0 z m 12,-4 4,0 0,4 -4,0 z m -8,0 4,0 0,4 -4,0 z m -8,0 4,0 0,4 -4,0 z m 20,-4 4,0 0,4 -4,0 z m -8,0 4,0 0,4 -4,0 z m -8,0 4,0 0,4 -4,0 z m 12,-4 4,0 0,4 -4,0 z m -8,0 4,0 0,4 -4,0 z m -8,0 4,0 0,4 -4,0 z" style="opacity:.3;color:#000;fill:#fff;fill-opacity:1;fill-rule:nonzero;stroke:none;stroke-width:.98542744;marker:none;visibility:visible;display:inline;overflow:visible;enable-background:accumulate"/><path id="rect3137-6-5-5" d="m 35,1037.3622 4,0 0,4 -4,0 z m -8,0 4,0 0,4 -4,0 z m -8,0 4,0 0,4 -4,0 z m 12,-4 4,0 0,4 -4,0 z m -8,0 4,0 0,4 -4,0 z m -8,0 4,0 0,4 -4,0 z m 20,-4 4,0 0,4 -4,0 z m -8,0 4,0 0,4 -4,0 z m -8,0 4,0 0,4 -4,0 z m 12,-4 4,0 0,4 -4,0 z m -8,0 4,0 0,4 -4,0 z m -8,0 4,0 0,4 -4,0 z m 20,-4 4,0 0,4 -4,0 z m -8,0 4,0 0,4 -4,0 z m -8,0 4,0 0,4 -4,0 z m 12,-4 4,0 0,4 -4,0 z m -8,0 4,0 0,4 -4,0 z m -8,0 4,0 0,4 -4,0 z m 20,-4 4,0 0,4 -4,0 z m -8,0 4,0 0,4 -4,0 z m -8,0 4,0 0,4 -4,0 z m 12,-4 4,0 0,4 -4,0 z m -8,0 4,0 0,4 -4,0 z m -8,0 4,0 0,4 -4,0 z" style="opacity:.2;color:#000;fill:#000;fill-opacity:1;fill-rule:nonzero;stroke:none;stroke-width:.98542744;marker:none;visibility:visible;display:inline;overflow:visible;enable-background:accumulate"/><path style="opacity:.3;color:#000;fill:#fff;fill-opacity:1;fill-rule:nonzero;stroke:none;stroke-width:.98542744;marker:none;visibility:visible;display:inline;overflow:visible;enable-background:accumulate" id="path3020" d="m 19,1010.3622 -4,0 z m 8,0 -4,0 z m 8,0 -4,0 z m -12,-4 -4,0 0,4 4,0 z m 8,0 -4,0 0,4 4,0 z m 8,0 -4,0 0,4 4,0 z m -20,-4 -4,0 0,4 4,0 z m 8,0 -4,0 0,4 4,0 z m 8,0 -4,0 0,4 4,0 z m -12,-4 -4,0 0,4 4,0 z m 8,0 -4,0 0,4 4,0 z m 8,0 -4,0 0,4 4,0 z"/><path style="opacity:.2;color:#000;fill:#000;fill-opacity:1;fill-rule:nonzero;stroke:none;stroke-width:.98542744;marker:none;visibility:visible;display:inline;overflow:visible;enable-background:accumulate" id="path3022" d="m 19,1009.3622 z m 8,0 -4,0 z m 8,0 -4,0 z m -12,-4 -4,0 0,4 4,0 z m 8,0 -4,0 0,4 4,0 z m 8,0 -4,0 0,4 4,0 z m -20,-4 -4,0 0,4 4,0 z m 8,0 -4,0 0,4 4,0 z m 8,0 -4,0 0,4 4,0 z m -12,-4 -4,0 0,4 4,0 z m 8,0 -4,0 0,4 4,0 z m 8,0 -4,0 0,4 4,0 z"/></g><path id="path3033" d="m 44.017696,1037.3732 4,0 0,4 -4,0 z m 4,-4 0,4 z m -8,0 4,0 0,4 -4,0 z m 4,-4 4,0 0,4 -4,0 z m 4,-4 0,4 z m -8,0 4,0 0,4 -4,0 z m 4,-4 4,0 0,4 -4,0 z m 4,-4 0,4 z m -8,0 4,0 0,4 -4,0 z m 4,-4 4,0 0,4 -4,0 z m 4,-4 0,4 z m -8,0 4,0 0,4 -4,0 z" style="opacity:.3;color:#000;fill:#fff;fill-opacity:1;fill-rule:nonzero;stroke:none;stroke-width:.98542744;marker:none;visibility:visible;display:inline;overflow:visible;enable-background:accumulate"/><path id="path3035" d="m 44.017696,1036.3732 4,0 0,4 -4,0 z m 4,-4 0,4 z m -8,0 4,0 0,4 -4,0 z m 4,-4 4,0 0,4 -4,0 z m 4,-4 0,4 z m -8,0 4,0 0,4 -4,0 z m 4,-4 4,0 0,4 -4,0 z m 4,-4 0,4 z m -8,0 4,0 0,4 -4,0 z m 4,-4 4,0 0,4 -4,0 z m 4,-4 0,4 z m -8,0 4,0 0,4 -4,0 z" style="opacity:.2;color:#000;fill:#000;fill-opacity:1;fill-rule:nonzero;stroke:none;stroke-width:.98542744;marker:none;visibility:visible;display:inline;overflow:visible;enable-background:accumulate"/><path style="opacity:.3;color:#000;fill:#fff;fill-opacity:1;fill-rule:nonzero;stroke:none;stroke-width:.98542744;marker:none;visibility:visible;display:inline;overflow:visible;enable-background:accumulate" id="path3037" d="m 44.017696,1009.3732 -4,0 z m 4,0 z m 0,-4 -4,0 0,4 4,0 z m -4,-4 -4,0 0,4 4,0 z m 4,0 0,4 z m 0,-3.99966 -4,0 0,3.99966 4,0 z"/><path style="opacity:.2;color:#000;fill:#000;fill-opacity:1;fill-rule:nonzero;stroke:none;stroke-width:.98542744;marker:none;visibility:visible;display:inline;overflow:visible;enable-background:accumulate" id="path3039" d="m 48.017696,1008.3732 z m 0,-4 -4,0 0,4 4,0 z m -4,-4 -4,0 0,4 4,0 z m 4,0 0,4 z m 0,-3.99966 -4,0 0,3.99966 4,0 z"/></g></svg>