<svg xmlns="http://www.w3.org/2000/svg" xmlns:svg="http://www.w3.org/2000/svg" xmlns:xlink="http://www.w3.org/1999/xlink" id="svg3950" width="64" height="64" version="1.1"><defs id="defs3952"><linearGradient id="linearGradient3977-4"><stop id="stop3979-7" offset="0" style="stop-color:#fff;stop-opacity:1"/><stop id="stop3981-6" offset=".012" style="stop-color:#fff;stop-opacity:.23529412"/><stop id="stop3983-5" offset=".988" style="stop-color:#fff;stop-opacity:.15686275"/><stop id="stop3985-6" offset="1" style="stop-color:#fff;stop-opacity:.39215687"/></linearGradient><linearGradient id="linearGradient2867-449-88-871-390-598-476-591-434-148-57-177-8-3"><stop id="stop3750-1-0" offset="0" style="stop-color:#90dbec;stop-opacity:1"/><stop id="stop3752-3-7" offset=".262" style="stop-color:#55c1ec;stop-opacity:1"/><stop id="stop3754-1-8" offset=".705" style="stop-color:#3689e6;stop-opacity:1"/><stop id="stop3756-1-6" offset="1" style="stop-color:#2b63a0;stop-opacity:1"/></linearGradient><linearGradient id="linearGradient5060"><stop id="stop5062" offset="0" style="stop-color:#000;stop-opacity:1"/><stop id="stop5064" offset="1" style="stop-color:#000;stop-opacity:0"/></linearGradient><linearGradient id="linearGradient5048"><stop id="stop5050" offset="0" style="stop-color:#000;stop-opacity:0"/><stop id="stop5056" offset=".5" style="stop-color:#000;stop-opacity:1"/><stop id="stop5052" offset="1" style="stop-color:#000;stop-opacity:0"/></linearGradient><linearGradient id="linearGradient3104" x1="24" x2="24" y1="5.864" y2="42.1" gradientTransform="matrix(1.2162162,0,0,1.5405376,2.8108184,-6.9729501)" gradientUnits="userSpaceOnUse" xlink:href="#linearGradient3977-4"/><radialGradient id="radialGradient3107" cx="7.806" cy="9.957" r="12.672" fx="7.276" fy="9.957" gradientTransform="matrix(-2.1710338e-7,8.8513721,-10.866659,-2.6569437e-7,140.18608,-80.708701)" gradientUnits="userSpaceOnUse" xlink:href="#linearGradient2867-449-88-871-390-598-476-591-434-148-57-177-8-3"/><radialGradient id="radialGradient3110" cx="605.714" cy="486.648" r="117.143" fx="605.714" fy="486.648" gradientTransform="matrix(0.03132633,0,0,0.02058823,35.220859,49.45142)" gradientUnits="userSpaceOnUse" xlink:href="#linearGradient5060"/><radialGradient id="radialGradient3113" cx="605.714" cy="486.648" r="117.143" fx="605.714" fy="486.648" gradientTransform="matrix(-0.03132632,0,0,0.02058823,28.779136,49.45142)" gradientUnits="userSpaceOnUse" xlink:href="#linearGradient5060"/><linearGradient id="linearGradient3116" x1="302.857" x2="302.857" y1="366.648" y2="609.505" gradientTransform="matrix(0.09153846,0,0,0.02058823,-1.084616,49.45142)" gradientUnits="userSpaceOnUse" xlink:href="#linearGradient5048"/></defs><metadata id="metadata3955"/><rect id="rect2879" width="44.2" height="5" x="9.9" y="57" style="opacity:.3;fill:url(#linearGradient3116);fill-opacity:1;fill-rule:nonzero;stroke:none;stroke-width:1;marker:none;visibility:visible;display:inline;overflow:visible"/><path id="path2881" d="m 9.9,57.00022 c 0,0 0,4.9997 0,4.9997 -1.6132281,0.01 -3.9,-1.1202 -3.9,-2.5002 0,-1.38 1.8002408,-2.4995 3.9,-2.4995 z" style="opacity:.3;fill:url(#radialGradient3113);fill-opacity:1;fill-rule:nonzero;stroke:none;stroke-width:1;marker:none;visibility:visible;display:inline;overflow:visible"/><path id="path2883" d="m 54.099999,57.00022 c 0,0 0,4.9997 0,4.9997 C 55.713227,62.00992 58,60.87972 58,59.49972 c 0,-1.38 -1.800241,-2.4995 -3.900001,-2.4995 z" style="opacity:.3;fill:url(#radialGradient3110);fill-opacity:1;fill-rule:nonzero;stroke:none;stroke-width:1;marker:none;visibility:visible;display:inline;overflow:visible"/><path id="path4160" d="m 8.5,0.5 c 10.770086,0 46.999939,0.003763 46.999939,0.003763 L 55.5,59.5 c 0,0 -31.333333,0 -47,0 0,-19.666667 0,-39.333327 0,-58.99999344 z" style="color:#000;fill:url(#radialGradient3107);fill-opacity:1;fill-rule:nonzero;stroke:none;stroke-width:1;marker:none;visibility:visible;display:inline;overflow:visible;enable-background:accumulate"/><path id="rect6741-1-8" d="m 54.499999,58.50002 -44.9999992,0 0,-57.0000401 44.9999992,0 z" style="opacity:.5;fill:none;stroke:url(#linearGradient3104);stroke-width:1;stroke-linecap:round;stroke-linejoin:miter;stroke-miterlimit:4;stroke-opacity:1;stroke-dasharray:none;stroke-dashoffset:0"/><path id="path4160-6-1" d="m 8.4999684,0.4998999 c 10.7700936,0 47.0000286,0.004 47.0000286,0.004 l 4.9e-5,58.9962201 c 0,0 -31.333384,0 -47.0000776,0 0,-19.6668 0,-39.3334 0,-58.9999701 z" style="opacity:.3;fill:none;stroke:#000;stroke-width:.9999218;stroke-linecap:butt;stroke-linejoin:round;stroke-miterlimit:4;stroke-opacity:1;stroke-dasharray:none;stroke-dashoffset:0;display:inline"/><path id="path4138" d="m 33.84375,17.03125 -17,3 A 0.97025541,0.97025541 0 0 0 16.03125,21 l 0,22 a 0.97025541,0.97025541 0 0 0 0.8125,0.96875 l 17,3 A 0.97025541,0.97025541 0 0 0 34.96875,46 l 0,-2.03125 a 0.97025541,0.97025541 0 0 0 0.03125,0 l 12,0 A 0.97025541,0.97025541 0 0 0 47.96875,43 l 0,-22 A 0.97025541,0.97025541 0 0 0 47,20.03125 l -12,0 a 0.97025541,0.97025541 0 0 0 -0.03125,0 l 0,-2.03125 a 0.97025541,0.97025541 0 0 0 -1.125,-0.96875 z M 25.40625,28.125 c 0.07415,-0.015 0.0563,0.0037 0.15625,0 0.03824,0.173252 0.0729,0.374279 0.125,0.625 0.07466,0.359327 0.159434,0.87867 0.25,1.34375 -0.05568,-0.112942 -0.07257,-0.260286 -0.53125,-0.34375 -0.157547,-0.02867 -0.301091,0.06454 -0.46875,0.125 0.0976,-0.421604 0.226789,-0.901845 0.3125,-1.21875 0.06299,-0.23288 0.10885,-0.384438 0.15625,-0.53125 z m 1.8125,6.65625 c 0.07128,0.09605 0.110993,0.186944 0.375,0.28125 0.234673,0.08383 0.500543,-0.07032 0.75,-0.1875 l -0.3125,1.46875 -0.25,0 c -0.09957,0 -0.160076,0.002 -0.25,0 -0.02342,-0.111438 -0.03435,-0.177908 -0.0625,-0.3125 -0.06741,-0.322286 -0.16174,-0.824783 -0.25,-1.25 z m -4.59375,0.125 c 0.07089,0.03973 0.15615,0.09373 0.15625,0.09375 2.93e-4,7.1e-5 0.530919,-0.03114 0.53125,-0.03125 4e-5,-1.4e-5 0.02376,-0.02714 0.03125,-0.03125 l -0.21875,1.15625 -0.09375,0 -0.1875,0 -0.21875,-1.1875 z" style="opacity:.15;color:#000;fill:#0974ae;fill-opacity:1;fill-rule:nonzero;stroke:none;stroke-width:1;marker:none;visibility:visible;display:inline;overflow:visible;enable-background:accumulate"/><path id="rect3139-6" d="m 34,18 -17,3 0,22 17,3 0,-28 z m 1,3 0,3 9,0 0,1 -9,0 0,2 9,0 0,1 -9,0 0,2 9,0 0,1 -9,0 0,2 9,0 0,1 -9,0 0,2 9,0 0,1 -9,0 0,2 9,0 0,1 -9,0 0,3 12,0 0,-22 -12,0 z m -5.875,5.90625 0.96875,0 c 0.888516,0 0.944766,0.05941 0.84375,0.5 -0.06014,0.26231 -0.569,2.593544 -1.125,5.1875 l -1,4.71875 -1.03125,0 c -0.562318,0 -1.020474,-0.03336 -1.03125,-0.0625 -0.01077,-0.02915 -0.333778,-1.572184 -0.71875,-3.4375 -0.384971,-1.865317 -0.750099,-3.268623 -0.8125,-3.09375 -0.0624,0.174874 -0.390694,1.708476 -0.71875,3.375 L 23.90625,37.125 22.96875,37.0625 22,37 21.21875,32.84375 C 20.782857,30.570395 20.371416,28.46472 20.3125,28.15625 20.21502,27.645893 20.28181,27.580196 20.96875,27.5 c 0.957124,-0.111739 0.998102,-0.01291 1.5625,3.65625 0.241118,1.56751 0.436041,2.873544 0.46875,2.90625 0.03271,0.03271 0.37635,-1.453704 0.75,-3.28125 0.37365,-1.827546 0.793459,-3.377261 0.9375,-3.46875 0.414556,-0.263308 1.579064,-0.19802 1.6875,0.09375 0.05416,0.145728 0.390228,1.72212 0.71875,3.5 0.549637,2.974508 0.935834,4.057874 0.9375,2.625 6.38e-4,-0.572275 0.43954,-3.304718 0.875,-5.5 l 0.21875,-1.125 z" style="opacity:.3;color:#000;fill:#0935ae;fill-opacity:1;fill-rule:nonzero;stroke:none;stroke-width:1;marker:none;visibility:visible;display:inline;overflow:visible;enable-background:accumulate"/><path id="rect3139" d="m 34,17 -17,3 0,22 17,3 0,-28 z m 1,3 0,3 9,0 0,1 -9,0 0,2 9,0 0,1 -9,0 0,2 9,0 0,1 -9,0 0,2 9,0 0,1 -9,0 0,2 9,0 0,1 -9,0 0,2 9,0 0,1 -9,0 0,3 12,0 0,-22 -12,0 z m -5.875,5.90625 0.96875,0 c 0.888516,0 0.944766,0.05941 0.84375,0.5 -0.06014,0.26231 -0.569,2.593544 -1.125,5.1875 l -1,4.71875 -1.03125,0 c -0.562318,0 -1.020474,-0.03336 -1.03125,-0.0625 -0.01077,-0.02915 -0.333778,-1.572184 -0.71875,-3.4375 -0.384971,-1.865317 -0.750099,-3.268623 -0.8125,-3.09375 -0.0624,0.174874 -0.390694,1.708476 -0.71875,3.375 L 23.90625,36.125 22.96875,36.0625 22,36 21.21875,31.84375 c -0.435893,-2.273355 -0.847334,-4.37903 -0.90625,-4.6875 -0.09748,-0.510357 -0.03069,-0.576054 0.65625,-0.65625 0.957124,-0.111739 0.998102,-0.01291 1.5625,3.65625 0.241118,1.56751 0.436041,2.873544 0.46875,2.90625 0.03271,0.03271 0.37635,-1.453704 0.75,-3.28125 0.37365,-1.827546 0.793459,-3.377261 0.9375,-3.46875 0.414556,-0.263308 1.579064,-0.19802 1.6875,0.09375 0.05416,0.145728 0.390228,1.72212 0.71875,3.5 0.549637,2.974508 0.935834,4.057874 0.9375,2.625 6.38e-4,-0.572275 0.43954,-3.304718 0.875,-5.5 l 0.21875,-1.125 z" style="color:#000;fill:#fff;fill-opacity:1;fill-rule:nonzero;stroke:none;stroke-width:.99999994;marker:none;visibility:visible;display:inline;overflow:visible;enable-background:accumulate"/></svg>