<svg xmlns="http://www.w3.org/2000/svg" xmlns:svg="http://www.w3.org/2000/svg" xmlns:xlink="http://www.w3.org/1999/xlink" id="svg3950" width="64" height="64" version="1.1"><defs id="defs3952"><linearGradient id="linearGradient3102" x1="24" x2="24" y1="5.864" y2="42.1" gradientTransform="matrix(1.2162162,0,0,1.5405376,2.8108184,-6.9729501)" gradientUnits="userSpaceOnUse" xlink:href="#linearGradient3977-4"/><linearGradient id="linearGradient3977-4"><stop style="stop-color:#fff;stop-opacity:1" id="stop3979-7" offset="0"/><stop style="stop-color:#fff;stop-opacity:.23529412" id="stop3981-6" offset=".012"/><stop style="stop-color:#fff;stop-opacity:.15686275" id="stop3983-5" offset=".988"/><stop style="stop-color:#fff;stop-opacity:.39215687" id="stop3985-6" offset="1"/></linearGradient><radialGradient id="radialGradient3124" cx="7.806" cy="9.957" r="12.672" fx="7.276" fy="9.957" gradientTransform="matrix(-2.1710338e-7,8.8513721,-10.866659,-2.6569437e-7,140.18608,-80.708701)" gradientUnits="userSpaceOnUse" xlink:href="#linearGradient2867-449-88-871-390-598-476-591-434-148-57-177-8-3"/><linearGradient id="linearGradient2867-449-88-871-390-598-476-591-434-148-57-177-8-3"><stop style="stop-color:#90dbec;stop-opacity:1" id="stop3750-1-0" offset="0"/><stop style="stop-color:#55c1ec;stop-opacity:1" id="stop3752-3-7" offset=".262"/><stop style="stop-color:#3689e6;stop-opacity:1" id="stop3754-1-8" offset=".705"/><stop style="stop-color:#2b63a0;stop-opacity:1" id="stop3756-1-6" offset="1"/></linearGradient><radialGradient id="radialGradient3108" cx="605.714" cy="486.648" r="117.143" fx="605.714" fy="486.648" gradientTransform="matrix(0.03132633,0,0,0.02058823,35.220859,49.45142)" gradientUnits="userSpaceOnUse" xlink:href="#linearGradient5060"/><linearGradient id="linearGradient5060"><stop style="stop-color:#000;stop-opacity:1" id="stop5062" offset="0"/><stop style="stop-color:#000;stop-opacity:0" id="stop5064" offset="1"/></linearGradient><radialGradient id="radialGradient3111" cx="605.714" cy="486.648" r="117.143" fx="605.714" fy="486.648" gradientTransform="matrix(-0.03132632,0,0,0.02058823,28.779136,49.45142)" gradientUnits="userSpaceOnUse" xlink:href="#linearGradient5060"/><linearGradient id="linearGradient5048"><stop style="stop-color:#000;stop-opacity:0" id="stop5050" offset="0"/><stop style="stop-color:#000;stop-opacity:1" id="stop5056" offset=".5"/><stop style="stop-color:#000;stop-opacity:0" id="stop5052" offset="1"/></linearGradient><linearGradient id="linearGradient3948" x1="302.857" x2="302.857" y1="366.648" y2="609.505" gradientTransform="matrix(0.09153846,0,0,0.02058823,-1.084616,49.45142)" gradientUnits="userSpaceOnUse" xlink:href="#linearGradient5048"/></defs><metadata id="metadata3955"/><g id="layer1"><rect style="opacity:.3;fill:url(#linearGradient3948);fill-opacity:1;fill-rule:nonzero;stroke:none;stroke-width:1;marker:none;visibility:visible;display:inline;overflow:visible" id="rect2879" width="44.2" height="5" x="9.9" y="57"/><path style="opacity:.3;fill:url(#radialGradient3111);fill-opacity:1;fill-rule:nonzero;stroke:none;stroke-width:1;marker:none;visibility:visible;display:inline;overflow:visible" id="path2881" d="m 9.9,57.00022 c 0,0 0,4.9997 0,4.9997 -1.6132281,0.01 -3.9,-1.1202 -3.9,-2.5002 0,-1.38 1.8002408,-2.4995 3.9,-2.4995 z"/><path style="opacity:.3;fill:url(#radialGradient3108);fill-opacity:1;fill-rule:nonzero;stroke:none;stroke-width:1;marker:none;visibility:visible;display:inline;overflow:visible" id="path2883" d="m 54.099999,57.00022 c 0,0 0,4.9997 0,4.9997 C 55.713227,62.00992 58,60.87972 58,59.49972 c 0,-1.38 -1.800241,-2.4995 -3.900001,-2.4995 z"/><path style="color:#000;fill:url(#radialGradient3124);fill-opacity:1;fill-rule:nonzero;stroke:none;stroke-width:1;marker:none;visibility:visible;display:inline;overflow:visible;enable-background:accumulate" id="path4160" d="m 8.5,0.5 c 10.770086,0 46.999939,0.003763 46.999939,0.003763 L 55.5,59.5 c 0,0 -31.333333,0 -47,0 0,-19.666667 0,-39.333327 0,-58.99999344 z"/><path style="opacity:.5;fill:none;stroke:url(#linearGradient3102);stroke-width:1;stroke-linecap:round;stroke-linejoin:miter;stroke-miterlimit:4;stroke-opacity:1;stroke-dasharray:none;stroke-dashoffset:0" id="rect6741-1-8" d="m 54.499999,58.50002 -44.9999992,0 0,-57.0000401 44.9999992,0 z"/><path style="opacity:.3;fill:none;stroke:#000;stroke-width:.9999218;stroke-linecap:butt;stroke-linejoin:round;stroke-miterlimit:4;stroke-opacity:1;stroke-dasharray:none;stroke-dashoffset:0;display:inline" id="path4160-6-1" d="m 8.4999684,0.4998999 c 10.7700936,0 47.0000286,0.004 47.0000286,0.004 l 4.9e-5,58.9962201 c 0,0 -31.333384,0 -47.0000776,0 0,-19.6668 0,-39.3334 0,-58.9999701 z"/><path style="color:#000;fill:#fff;fill-opacity:1;fill-rule:nonzero;stroke:none;stroke-width:1.70000005;marker:none;visibility:visible;display:inline;overflow:visible;enable-background:accumulate" id="rect3005-5-8-6-8" d="m 32,19.999971 c -6.07513,0 -11,4.92487 -11,11 0,6.07513 4.92487,11 11,11 6.07513,0 11,-4.92487 11,-11 0,-6.07513 -4.92487,-11 -11,-11 z m 0,2 c 4.97056,0 9,4.02944 9,9 0,4.97056 -4.02944,9 -9,9 -4.97056,0 -9,-4.02944 -9,-9 0,-4.97056 4.02944,-9 9,-9 z m -1,4 0,5 -4,0 5,5 5,-5 -4,0 0,-5 -2,0 z"/></g></svg>