<svg xmlns="http://www.w3.org/2000/svg" xmlns:svg="http://www.w3.org/2000/svg" xmlns:xlink="http://www.w3.org/1999/xlink" id="svg6534" width="64" height="64" version="1.1"><defs id="defs6536"><linearGradient id="linearGradient5522" x1="24" x2="24" y1="6.053" y2="42.158" gradientTransform="matrix(1.4324324,0,0,1.4362832,-2.3783747,-2.4707828)" gradientUnits="userSpaceOnUse" xlink:href="#linearGradient3924-45"/><linearGradient id="linearGradient3924-45"><stop id="stop3124" offset="0" style="stop-color:#fff;stop-opacity:1"/><stop id="stop3126" offset=".013" style="stop-color:#fff;stop-opacity:.23529412"/><stop id="stop3128" offset="1" style="stop-color:#fff;stop-opacity:.15686275"/><stop id="stop3130" offset="1" style="stop-color:#fff;stop-opacity:.39215687"/></linearGradient><linearGradient id="linearGradient3095-1" x1="-51.786" x2="-51.786" y1="50.786" y2="2.906" gradientTransform="matrix(1.0843523,0,0,1.1997367,79.550855,-2.16287)" gradientUnits="userSpaceOnUse" xlink:href="#linearGradient3104-6-2"/><linearGradient id="linearGradient3104-6-2"><stop id="stop3106-3-4" offset="0" style="stop-color:#000;stop-opacity:.31782946"/><stop id="stop3108-9-9" offset="1" style="stop-color:#000;stop-opacity:.24031007"/></linearGradient><linearGradient id="linearGradient5519" x1="16.626" x2="20.055" y1="15.298" y2="24.628" gradientTransform="matrix(1.1723404,0,0,1.8434143,3.8089875,-5.5299721)" gradientUnits="userSpaceOnUse" xlink:href="#linearGradient8265-821-176-38-919-66-249-7-7"/><linearGradient id="linearGradient8265-821-176-38-919-66-249-7-7"><stop id="stop2687-1-9" offset="0" style="stop-color:#fff;stop-opacity:1"/><stop id="stop2689-5-4" offset="1" style="stop-color:#fff;stop-opacity:0"/></linearGradient><linearGradient id="linearGradient3101-2" x1="25.132" x2="25.132" y1=".985" y2="47.013" gradientTransform="matrix(1.2903867,0,0,1.2373259,1.0307192,0.405807)" gradientUnits="userSpaceOnUse" xlink:href="#linearGradient3600-9-9"/><linearGradient id="linearGradient3600-9-9"><stop id="stop3602-3-7" offset="0" style="stop-color:#f4f4f4;stop-opacity:1"/><stop id="stop3604-7-3" offset="1" style="stop-color:#dbdbdb;stop-opacity:1"/></linearGradient><radialGradient id="radialGradient2873-966-168-714" cx="4.993" cy="43.5" r="2.5" fx="4.993" fy="43.5" gradientTransform="matrix(2.003784,0,0,1.4,27.98813,-17.4)" gradientUnits="userSpaceOnUse" xlink:href="#linearGradient3688-166-749-654"/><linearGradient id="linearGradient3688-166-749-654"><stop id="stop3088" offset="0" style="stop-color:#181818;stop-opacity:1"/><stop id="stop3090" offset="1" style="stop-color:#181818;stop-opacity:0"/></linearGradient><radialGradient id="radialGradient2875-742-326-419" cx="4.993" cy="43.5" r="2.5" fx="4.993" fy="43.5" gradientTransform="matrix(2.003784,0,0,1.4,-20.01187,-104.4)" gradientUnits="userSpaceOnUse" xlink:href="#linearGradient3688-464-309-604"/><linearGradient id="linearGradient3688-464-309-604"><stop id="stop3094" offset="0" style="stop-color:#181818;stop-opacity:1"/><stop id="stop3096" offset="1" style="stop-color:#181818;stop-opacity:0"/></linearGradient><linearGradient id="linearGradient2877-634-617-908" x1="25.058" x2="25.058" y1="47.028" y2="39.999" gradientUnits="userSpaceOnUse" xlink:href="#linearGradient3702-501-757-795"/><linearGradient id="linearGradient3702-501-757-795"><stop id="stop3100" offset="0" style="stop-color:#181818;stop-opacity:0"/><stop id="stop3102" offset=".5" style="stop-color:#181818;stop-opacity:1"/><stop id="stop3104" offset="1" style="stop-color:#181818;stop-opacity:0"/></linearGradient></defs><metadata id="metadata6539"/><g id="layer1"><g id="g2036" transform="matrix(1.5000021,0,0,0.5555561,-4.0000114,35.888881)" style="display:inline"><g id="g3712" transform="matrix(1.052632,0,0,1.285713,-1.263158,-13.42854)" style="opacity:.4"><rect id="rect2801" width="5" height="7" x="38" y="40" style="fill:url(#radialGradient2873-966-168-714);fill-opacity:1;stroke:none"/><rect id="rect3696" width="5" height="7" x="-10" y="-47" transform="scale(-1,-1)" style="fill:url(#radialGradient2875-742-326-419);fill-opacity:1;stroke:none"/><rect id="rect3700" width="28" height="7" x="10" y="40" style="fill:url(#linearGradient2877-634-617-908);fill-opacity:1;stroke:none"/></g></g><rect id="rect5505-21-8" width="54" height="54" x="5" y="5" style="color:#000;fill:url(#linearGradient3101-2);fill-opacity:1;fill-rule:nonzero;stroke:none;stroke-width:.99999994;marker:none;visibility:visible;display:inline;overflow:visible;enable-background:accumulate"/><path id="path3333" d="M 5,4.9999999 5.017966,39 C 6.5714146,38.965765 57.820897,26.466881 59,25.865671 L 59,4.9999999 z" style="opacity:.4;fill:url(#linearGradient5519);fill-opacity:1;fill-rule:evenodd;stroke:none"/><path id="path7249-8-0-3-4" d="m 33.500729,9.9873841 c -1.310996,-0.1696929 -1.49383,1.0583119 -1.356921,2.0360749 -0.01241,9.732985 0.0248,19.474893 -0.01859,29.202307 -0.320421,0.33478 -0.935311,-0.215808 -1.343538,-0.07291 -4.44734,-0.27111 -9.306459,2.953788 -9.751065,7.607796 -0.52399,3.700212 3.385608,6.744662 6.871983,6.169162 4.392618,-0.466712 7.66086,-4.899351 7.088107,-9.276245 0.01241,-7.706335 -0.0248,-15.421598 0.01859,-23.122367 0.299436,-0.342951 0.910426,0.387242 1.225874,0.423064 3.532765,2.090339 6.657779,5.53738 6.868736,9.830079 0.23193,3.354326 -0.783586,6.636476 -1.926349,9.746131 3.828929,-4.713331 5.054657,-11.589144 2.393968,-17.156292 -1.360758,-3.23165 -4.430441,-5.223189 -6.147683,-8.224835 C 36.155672,15.143454 35.190508,12.904138 34.888532,10.53602 34.639906,10.0422 33.985009,9.9820672 33.500729,9.9873841 z" style="opacity:.3;color:#000;fill:#fff;fill-opacity:1;fill-rule:nonzero;stroke:none;marker:none;visibility:visible;display:inline;overflow:visible;enable-background:accumulate"/><path id="path7249-8-0-3" d="m 33.500729,9.0015205 c -1.525356,0 -1.491434,1.0085275 -1.491434,2.0360745 l -0.01859,29.202307 c -0.320421,0.33478 -0.800798,-0.215808 -1.209025,-0.07291 -4.44734,-0.27111 -9.306459,2.953788 -9.751065,7.607796 -0.52399,3.700212 3.385608,6.744662 6.871983,6.169162 4.392618,-0.466712 7.66086,-4.899351 7.088107,-9.276245 0.01241,-7.706335 -0.0248,-15.421598 0.01859,-23.122367 0.299436,-0.342951 0.910426,0.387242 1.225874,0.423064 3.532765,2.090339 6.657779,5.53738 6.868736,9.830079 0.23193,3.354326 -0.783586,6.636476 -1.926349,9.746131 C 45.006485,36.831281 46.232213,29.955468 43.571524,24.38832 42.210766,21.15667 39.141083,19.165131 37.423841,16.163485 36.155672,14.15759 35.190508,11.918274 34.888532,9.5501565 34.639906,9.0563365 33.985009,8.996204 33.500729,9.0015205 z" style="opacity:.2;color:#000;fill:#000;fill-opacity:1;fill-rule:nonzero;stroke:none;marker:none;visibility:visible;display:inline;overflow:visible;enable-background:accumulate"/><rect id="rect5505-21-8-6" width="55" height="55" x="4.5" y="4.5" style="color:#000;fill:none;stroke:url(#linearGradient3095-1);stroke-width:.9999218;stroke-linecap:butt;stroke-linejoin:round;stroke-miterlimit:4;stroke-opacity:1;stroke-dasharray:none;stroke-dashoffset:0;marker:none;visibility:visible;display:inline;overflow:visible;enable-background:accumulate"/><rect id="rect6741" width="53" height="53.142" x="5.5" y="5.429" style="fill:none;stroke:url(#linearGradient5522);stroke-width:1;stroke-linecap:round;stroke-linejoin:miter;stroke-miterlimit:4;stroke-opacity:1;stroke-dasharray:none;stroke-dashoffset:0"/></g></svg>