<svg xmlns="http://www.w3.org/2000/svg" xmlns:svg="http://www.w3.org/2000/svg" xmlns:xlink="http://www.w3.org/1999/xlink" id="svg3950" width="64" height="64" version="1.1"><defs id="defs3952"><linearGradient id="linearGradient3977-4"><stop style="stop-color:#fff;stop-opacity:1" id="stop3979-7" offset="0"/><stop style="stop-color:#fff;stop-opacity:.23529412" id="stop3981-6" offset=".012"/><stop style="stop-color:#fff;stop-opacity:.15686275" id="stop3983-5" offset=".988"/><stop style="stop-color:#fff;stop-opacity:.39215687" id="stop3985-6" offset="1"/></linearGradient><linearGradient id="linearGradient2867-449-88-871-390-598-476-591-434-148-57-177-8-3"><stop style="stop-color:#90dbec;stop-opacity:1" id="stop3750-1-0" offset="0"/><stop style="stop-color:#55c1ec;stop-opacity:1" id="stop3752-3-7" offset=".262"/><stop style="stop-color:#3689e6;stop-opacity:1" id="stop3754-1-8" offset=".705"/><stop style="stop-color:#2b63a0;stop-opacity:1" id="stop3756-1-6" offset="1"/></linearGradient><linearGradient id="linearGradient5060"><stop style="stop-color:#000;stop-opacity:1" id="stop5062" offset="0"/><stop style="stop-color:#000;stop-opacity:0" id="stop5064" offset="1"/></linearGradient><linearGradient id="linearGradient5048"><stop style="stop-color:#000;stop-opacity:0" id="stop5050" offset="0"/><stop style="stop-color:#000;stop-opacity:1" id="stop5056" offset=".5"/><stop style="stop-color:#000;stop-opacity:0" id="stop5052" offset="1"/></linearGradient><linearGradient id="linearGradient3104" x1="24" x2="24" y1="5.864" y2="42.1" gradientTransform="matrix(1.2162162,0,0,1.5405376,2.8108184,-6.9729501)" gradientUnits="userSpaceOnUse" xlink:href="#linearGradient3977-4"/><radialGradient id="radialGradient3107" cx="7.806" cy="9.957" r="12.672" fx="7.276" fy="9.957" gradientTransform="matrix(-2.1710338e-7,8.8513721,-10.866659,-2.6569437e-7,140.18608,-80.708701)" gradientUnits="userSpaceOnUse" xlink:href="#linearGradient2867-449-88-871-390-598-476-591-434-148-57-177-8-3"/><radialGradient id="radialGradient3110" cx="605.714" cy="486.648" r="117.143" fx="605.714" fy="486.648" gradientTransform="matrix(0.03132633,0,0,0.02058823,35.220859,49.45142)" gradientUnits="userSpaceOnUse" xlink:href="#linearGradient5060"/><radialGradient id="radialGradient3113" cx="605.714" cy="486.648" r="117.143" fx="605.714" fy="486.648" gradientTransform="matrix(-0.03132632,0,0,0.02058823,28.779136,49.45142)" gradientUnits="userSpaceOnUse" xlink:href="#linearGradient5060"/><linearGradient id="linearGradient3116" x1="302.857" x2="302.857" y1="366.648" y2="609.505" gradientTransform="matrix(0.09153846,0,0,0.02058823,-1.084616,49.45142)" gradientUnits="userSpaceOnUse" xlink:href="#linearGradient5048"/></defs><metadata id="metadata3955"/><rect style="opacity:.3;fill:url(#linearGradient3116);fill-opacity:1;fill-rule:nonzero;stroke:none;stroke-width:1;marker:none;visibility:visible;display:inline;overflow:visible" id="rect2879" width="44.2" height="5" x="9.9" y="57"/><path style="opacity:.3;fill:url(#radialGradient3113);fill-opacity:1;fill-rule:nonzero;stroke:none;stroke-width:1;marker:none;visibility:visible;display:inline;overflow:visible" id="path2881" d="m 9.9,57.00022 c 0,0 0,4.9997 0,4.9997 -1.6132281,0.01 -3.9,-1.1202 -3.9,-2.5002 0,-1.38 1.8002408,-2.4995 3.9,-2.4995 z"/><path style="opacity:.3;fill:url(#radialGradient3110);fill-opacity:1;fill-rule:nonzero;stroke:none;stroke-width:1;marker:none;visibility:visible;display:inline;overflow:visible" id="path2883" d="m 54.099999,57.00022 c 0,0 0,4.9997 0,4.9997 C 55.713227,62.00992 58,60.87972 58,59.49972 c 0,-1.38 -1.800241,-2.4995 -3.900001,-2.4995 z"/><path style="color:#000;fill:url(#radialGradient3107);fill-opacity:1;fill-rule:nonzero;stroke:none;stroke-width:1;marker:none;visibility:visible;display:inline;overflow:visible;enable-background:accumulate" id="path4160" d="m 8.5,0.5 c 10.770086,0 46.999939,0.003763 46.999939,0.003763 L 55.5,59.5 c 0,0 -31.333333,0 -47,0 0,-19.666667 0,-39.333327 0,-58.99999344 z"/><path style="opacity:.5;fill:none;stroke:url(#linearGradient3104);stroke-width:1;stroke-linecap:round;stroke-linejoin:miter;stroke-miterlimit:4;stroke-opacity:1;stroke-dasharray:none;stroke-dashoffset:0" id="rect6741-1-8" d="m 54.499999,58.50002 -44.9999992,0 0,-57.0000401 44.9999992,0 z"/><path style="opacity:.3;fill:none;stroke:#000;stroke-width:.9999218;stroke-linecap:butt;stroke-linejoin:round;stroke-miterlimit:4;stroke-opacity:1;stroke-dasharray:none;stroke-dashoffset:0;display:inline" id="path4160-6-1" d="m 8.4999684,0.4998999 c 10.7700936,0 47.0000286,0.004 47.0000286,0.004 l 4.9e-5,58.9962201 c 0,0 -31.333384,0 -47.0000776,0 0,-19.6668 0,-39.3334 0,-58.9999701 z"/><path style="fill:#fff;stroke:none" id="path3879" d="m 23.30045,19.835768 c -1.768608,0.01431 -3.995395,0.139502 -6.378556,0.545534 l 0,22.618698 5.371416,0 0,-8.183017 c 0,0 10.583776,0.98201 10.784796,-6.756234 0,0 1.396085,-8.315445 -9.777656,-8.224981 z m 0.545535,4.028563 c 3.259105,0.01222 4.112099,1.167942 4.196419,3.31517 0,4.502295 -5.749094,3.399099 -5.749094,3.399099 l 0,-6.630341 c 0.568916,-0.04366 1.087088,-0.08566 1.552675,-0.08393 z m 16.756672,1.972317 c -1.304404,0.05905 -2.590511,0.362178 -3.734813,1.00714 -2.120113,1.250062 -2.384882,4.300688 -1.216962,6.294629 1.459472,2.154367 4.266828,2.463973 6.252664,3.944633 1.00809,0.669319 0.489029,2.367549 -0.671427,2.475887 -2.138274,0.349892 -4.288436,-0.423294 -6.210699,-1.300889 l 0,3.063385 c -0.266599,0.907629 0.848251,0.93019 1.468746,1.174998 2.308858,0.560101 4.809605,0.644383 7.091948,-0.08393 2.01604,-0.593506 3.465877,-2.602916 3.357135,-4.699989 -7.02e-4,-0.561616 -0.107415,-1.104093 -0.293749,-1.636604 -0.794365,-2.20212 -3.260294,-2.920146 -5.161595,-3.860706 -1.208157,-0.309449 -2.986719,-1.820653 -1.384819,-2.853563 1.800312,-0.564942 3.661654,0.276948 5.287488,1.00714 l 1.174997,-2.811601 c 0.393046,-0.883784 -1.512449,-0.870525 -2.098209,-1.258926 -1.23493,-0.348022 -2.5563,-0.52065 -3.860705,-0.461604 z"/></svg>