<svg xmlns="http://www.w3.org/2000/svg" xmlns:svg="http://www.w3.org/2000/svg" xmlns:xlink="http://www.w3.org/1999/xlink" id="svg4017" width="64" height="64" version="1.1"><defs id="defs4019"><radialGradient id="radialGradient3153" cx="605.714" cy="486.648" r="117.143" fx="605.714" fy="486.648" gradientTransform="matrix(0.03132633,0,0,0.02058823,35.220859,1037.8136)" gradientUnits="userSpaceOnUse" xlink:href="#linearGradient5060"/><linearGradient id="linearGradient5060"><stop style="stop-color:#000;stop-opacity:1" id="stop5062" offset="0"/><stop style="stop-color:#000;stop-opacity:0" id="stop5064" offset="1"/></linearGradient><radialGradient id="radialGradient3156" cx="605.714" cy="486.648" r="117.143" fx="605.714" fy="486.648" gradientTransform="matrix(-0.03132632,0,0,0.02058823,28.779136,1037.8136)" gradientUnits="userSpaceOnUse" xlink:href="#linearGradient5060"/><linearGradient id="linearGradient5048"><stop style="stop-color:#000;stop-opacity:0" id="stop5050" offset="0"/><stop style="stop-color:#000;stop-opacity:1" id="stop5056" offset=".5"/><stop style="stop-color:#000;stop-opacity:0" id="stop5052" offset="1"/></linearGradient><linearGradient id="linearGradient4015" x1="302.857" x2="302.857" y1="366.648" y2="609.505" gradientTransform="matrix(0.09153846,0,0,0.02058823,-1.084616,1037.8136)" gradientUnits="userSpaceOnUse" xlink:href="#linearGradient5048"/><linearGradient id="linearGradient3104"><stop id="stop3106" offset="0" style="stop-color:#a0a0a0;stop-opacity:1"/><stop id="stop3108" offset="1" style="stop-color:#bebebe;stop-opacity:1"/></linearGradient><linearGradient id="linearGradient3600-9"><stop id="stop3602-3" offset="0" style="stop-color:#f4f4f4;stop-opacity:1"/><stop id="stop3604-7" offset="1" style="stop-color:#dbdbdb;stop-opacity:1"/></linearGradient><linearGradient id="linearGradient3977-4"><stop style="stop-color:#fff;stop-opacity:1" id="stop3979-7" offset="0"/><stop id="stop3981-6" offset=".036" style="stop-color:#fff;stop-opacity:.23529412"/><stop style="stop-color:#fff;stop-opacity:.15686275" id="stop3983-5" offset=".951"/><stop style="stop-color:#fff;stop-opacity:.39215687" id="stop3985-6" offset="1"/></linearGradient><linearGradient id="linearGradient3093" x1="24" x2="24" y1="5.564" y2="43" gradientTransform="matrix(1.2162162,0,0,1.5405376,2.8108184,981.38923)" gradientUnits="userSpaceOnUse" xlink:href="#linearGradient3977-4"/><linearGradient id="linearGradient3096" x1="25.132" x2="25.132" y1=".985" y2="47.013" gradientTransform="matrix(1.3428567,0,0,1.2819685,-0.22855506,985.62813)" gradientUnits="userSpaceOnUse" xlink:href="#linearGradient3600-9"/><linearGradient id="linearGradient3098" x1="-51.786" x2="-51.786" y1="50.786" y2="2.906" gradientTransform="matrix(1.0843525,0,0,1.1997316,79.550873,984.1994)" gradientUnits="userSpaceOnUse" xlink:href="#linearGradient3104"/></defs><metadata id="metadata4022"/><g id="layer1" transform="translate(0,-988.36218)"><rect id="rect2879" width="44.2" height="5" x="9.9" y="1045.362" style="opacity:.3;fill:url(#linearGradient4015);fill-opacity:1;fill-rule:nonzero;stroke:none;stroke-width:1;marker:none;visibility:visible;display:inline;overflow:visible"/><path id="path2881" d="m 9.9,1045.3624 c 0,0 0,4.9997 0,4.9997 -1.6132281,0.01 -3.9,-1.1202 -3.9,-2.5002 0,-1.38 1.8002408,-2.4995 3.9,-2.4995 z" style="opacity:.3;fill:url(#radialGradient3156);fill-opacity:1;fill-rule:nonzero;stroke:none;stroke-width:1;marker:none;visibility:visible;display:inline;overflow:visible"/><path id="path2883" d="m 54.099999,1045.3624 c 0,0 0,4.9997 0,4.9997 1.613228,0.01 3.900001,-1.1202 3.900001,-2.5002 0,-1.38 -1.800241,-2.4995 -3.900001,-2.4995 z" style="opacity:.3;fill:url(#radialGradient3153);fill-opacity:1;fill-rule:nonzero;stroke:none;stroke-width:1;marker:none;visibility:visible;display:inline;overflow:visible"/><path id="path4160-6" d="m 8.4999609,988.86214 c 10.7701071,0 47.0000371,0.004 47.0000371,0.004 l 5.6e-5,58.99606 c 0,0 -31.333395,0 -47.0000931,0 0,-19.6667 0,-39.3332 0,-58.99981 z" style="fill:url(#linearGradient3096);fill-opacity:1;stroke:url(#linearGradient3098);stroke-width:.99992186;stroke-linecap:butt;stroke-linejoin:round;stroke-miterlimit:4;stroke-opacity:1;stroke-dasharray:none;stroke-dashoffset:0;display:inline"/><path id="rect6741-1-8" d="m 54.499999,1046.8622 -44.9999992,0 0,-57.00004 44.9999992,0 z" style="fill:none;stroke:url(#linearGradient3093);stroke-width:1;stroke-linecap:round;stroke-linejoin:miter;stroke-miterlimit:4;stroke-opacity:1;stroke-dasharray:none;stroke-dashoffset:0"/><path style="font-size:40px;font-style:normal;font-variant:normal;font-weight:700;font-stretch:normal;text-align:start;line-height:100%;writing-mode:lr-tb;text-anchor:start;opacity:.4;fill:#fff;fill-opacity:1;stroke:none;font-family:URW Palladio L;-inkscape-font-specification:URW Palladio L Bold" id="path3536" d="m 25.49511,1019.4587 c 0.274093,0.7452 0.582604,1.3492 1.239767,0.5233 0.814734,-0.4846 3.544605,-2.6096 3.271448,-0.5282 -0.874104,3.8513 -1.93808,7.662 -2.751613,11.5253 -0.850662,2.1151 1.081027,4.0285 3.09785,2.6529 2.143753,-0.8837 3.988448,-2.3232 5.873011,-3.6438 -0.257137,-0.6305 -0.428522,-1.5364 -1.139014,-0.7117 -0.932915,0.4234 -2.9705,2.4199 -3.349047,0.7733 0.78364,-4.1703 2.235546,-8.1861 3.163629,-12.3232 0.854076,-1.9022 -0.5408,-4.3056 -2.628768,-2.7322 -2.501443,1.0896 -4.593305,2.8692 -6.777263,4.4643 z m 9.283659,-14.0259 c -2.552212,-0.1355 -3.886595,3.9788 -1.461246,5.1048 1.967666,0.8068 4.110104,-1.2113 3.629411,-3.2278 -0.149175,-1.0501 -1.091902,-1.9123 -2.168165,-1.877 l 0,0 z"/><path style="font-size:40px;font-style:normal;font-variant:normal;font-weight:700;font-stretch:normal;text-align:start;line-height:100%;writing-mode:lr-tb;text-anchor:start;color:#000;fill:#999;fill-opacity:1;fill-rule:nonzero;stroke:none;marker:none;visibility:visible;display:inline;overflow:visible;enable-background:accumulate;font-family:URW Palladio L;-inkscape-font-specification:URW Palladio L Bold" id="text3482" d="m 25.49511,1018.397 c 0.274093,0.7452 0.582604,1.3491 1.239767,0.5233 0.814734,-0.4849 3.544605,-2.6095 3.271448,-0.5284 -0.874104,3.8513 -1.93808,7.6621 -2.751613,11.5254 -0.850662,2.1151 1.081027,4.0285 3.09785,2.6531 2.143753,-0.8839 3.988448,-2.3234 5.873011,-3.6439 -0.257137,-0.6305 -0.428522,-1.5365 -1.139014,-0.7118 -0.932915,0.4234 -2.9705,2.4199 -3.349047,0.7734 0.78364,-4.1704 2.235546,-8.1862 3.163629,-12.3233 0.854076,-1.9021 -0.5408,-4.3055 -2.628768,-2.7321 -2.501443,1.0896 -4.593305,2.8692 -6.777263,4.4643 z m 9.283659,-14.026 c -2.552212,-0.1356 -3.886595,3.9788 -1.461246,5.1046 1.967666,0.807 4.110104,-1.2111 3.629411,-3.2276 -0.149175,-1.0501 -1.091902,-1.9124 -2.168165,-1.877 l 0,0 z"/></g></svg>