<svg xmlns="http://www.w3.org/2000/svg" xmlns:svg="http://www.w3.org/2000/svg" xmlns:xlink="http://www.w3.org/1999/xlink" id="svg3130" width="64" height="64" version="1.1"><defs id="defs3132"><linearGradient id="linearGradient3104-6"><stop style="stop-color:#000;stop-opacity:.31782946" id="stop3106-3" offset="0"/><stop style="stop-color:#000;stop-opacity:.24031007" id="stop3108-9" offset="1"/></linearGradient><linearGradient id="linearGradient3977-4"><stop style="stop-color:#fff;stop-opacity:1" id="stop3979-7" offset="0"/><stop style="stop-color:#fff;stop-opacity:.23529412" id="stop3981-6" offset=".012"/><stop style="stop-color:#fff;stop-opacity:.15686275" id="stop3983-5" offset=".988"/><stop style="stop-color:#fff;stop-opacity:.39215687" id="stop3985-6" offset="1"/></linearGradient><linearGradient id="linearGradient3600-9"><stop style="stop-color:#f4f4f4;stop-opacity:1" id="stop3602-3" offset="0"/><stop style="stop-color:#dbdbdb;stop-opacity:1" id="stop3604-7" offset="1"/></linearGradient><linearGradient id="linearGradient5060"><stop style="stop-color:#000;stop-opacity:1" id="stop5062" offset="0"/><stop style="stop-color:#000;stop-opacity:0" id="stop5064" offset="1"/></linearGradient><linearGradient id="linearGradient5048"><stop style="stop-color:#000;stop-opacity:0" id="stop5050" offset="0"/><stop style="stop-color:#000;stop-opacity:1" id="stop5056" offset=".5"/><stop style="stop-color:#000;stop-opacity:0" id="stop5052" offset="1"/></linearGradient><linearGradient id="linearGradient3018" x1="-51.786" x2="-51.786" y1="50.786" y2="2.906" gradientTransform="matrix(1.0843523,0,0,1.1997367,79.550862,-4.1628601)" gradientUnits="userSpaceOnUse" xlink:href="#linearGradient3104-6"/><linearGradient id="linearGradient3021" x1="24" x2="24" y1="5.864" y2="42.1" gradientTransform="matrix(1.2162162,0,0,1.5405376,2.8108184,-6.9729501)" gradientUnits="userSpaceOnUse" xlink:href="#linearGradient3977-4"/><linearGradient id="linearGradient3024" x1="25.132" x2="25.132" y1=".985" y2="47.013" gradientTransform="matrix(1.3142827,0,0,1.2602393,0.4572141,-2.1793201)" gradientUnits="userSpaceOnUse" xlink:href="#linearGradient3600-9"/><radialGradient id="radialGradient3027" cx="605.714" cy="486.648" r="117.143" fx="605.714" fy="486.648" gradientTransform="matrix(0.03132633,0,0,0.02058823,35.220859,49.45142)" gradientUnits="userSpaceOnUse" xlink:href="#linearGradient5060"/><radialGradient id="radialGradient3030" cx="605.714" cy="486.648" r="117.143" fx="605.714" fy="486.648" gradientTransform="matrix(-0.03132632,0,0,0.02058823,28.779136,49.45142)" gradientUnits="userSpaceOnUse" xlink:href="#linearGradient5060"/><linearGradient id="linearGradient3033" x1="302.857" x2="302.857" y1="366.648" y2="609.505" gradientTransform="matrix(0.09153846,0,0,0.02058823,-1.084616,49.45142)" gradientUnits="userSpaceOnUse" xlink:href="#linearGradient5048"/></defs><metadata id="metadata3135"/><rect id="rect2879" width="44.2" height="5" x="9.9" y="57" style="opacity:.3;fill:url(#linearGradient3033);fill-opacity:1;fill-rule:nonzero;stroke:none;stroke-width:1;marker:none;visibility:visible;display:inline;overflow:visible"/><path id="path2881" d="m 9.9,57.00022 c 0,0 0,4.9997 0,4.9997 -1.6132281,0.01 -3.9,-1.1202 -3.9,-2.5002 0,-1.38 1.8002408,-2.4995 3.9,-2.4995 z" style="opacity:.3;fill:url(#radialGradient3030);fill-opacity:1;fill-rule:nonzero;stroke:none;stroke-width:1;marker:none;visibility:visible;display:inline;overflow:visible"/><path id="path2883" d="m 54.099999,57.00022 c 0,0 0,4.9997 0,4.9997 C 55.713227,62.00992 58,60.87972 58,59.49972 c 0,-1.38 -1.800241,-2.4995 -3.900001,-2.4995 z" style="opacity:.3;fill:url(#radialGradient3027);fill-opacity:1;fill-rule:nonzero;stroke:none;stroke-width:1;marker:none;visibility:visible;display:inline;overflow:visible"/><path id="path4160-6" d="m 9,0.9998799 c 10.540935,0 45.999945,0.004 45.999945,0.004 L 55,59.00002 c 0,0 -30.666666,0 -46,0 0,-19.3334 0,-38.6665 0,-57.9998201 z" style="fill:url(#linearGradient3024);fill-opacity:1;stroke:none;display:inline"/><path id="rect6741-1-8" d="m 54.499999,58.50002 -44.9999992,0 0,-57.0000401 44.9999992,0 z" style="fill:none;stroke:url(#linearGradient3021);stroke-width:1;stroke-linecap:round;stroke-linejoin:miter;stroke-miterlimit:4;stroke-opacity:1;stroke-dasharray:none;stroke-dashoffset:0"/><path id="path4160-6-1" d="m 8.4999684,0.4998999 c 10.7700936,0 47.0000286,0.004 47.0000286,0.004 l 4.9e-5,58.9962201 c 0,0 -31.333384,0 -47.0000776,0 0,-19.6668 0,-39.3334 0,-58.9999701 z" style="fill:none;stroke:url(#linearGradient3018);stroke-width:.9999218;stroke-linecap:butt;stroke-linejoin:round;stroke-miterlimit:4;stroke-opacity:1;stroke-dasharray:none;stroke-dashoffset:0;display:inline"/><path id="path3873" d="m 27,23 c -1.445369,1.4e-5 -2.211493,0.214124 -2.9375,0.65625 C 23.343145,24.092426 23,24.786686 23,25.71875 L 23,28.5 c 0,0.555667 -0.2479,0.943915 -0.6875,1.21875 -0.432945,0.268875 -1.413312,0.437506 -2.3125,0.4375 l 0,1.6875 c 1.771732,4e-6 3,0.576183 3,1.6875 l 0,2.53125 c 0,1.021697 0.32727,1.79591 1,2.25 0.679383,0.46006 1.461383,0.675547 3,0.6875 l 0,-1.625 C 26.234018,37.363049 25.839687,37.219692 25.5,36.96875 25.1603,36.717807 25,36.364937 25,35.875 l 0,-2.6875 c 0,-1.20094 -0.599714,-1.909901 -2.125,-2.125 l 0,-0.125 C 24.400286,30.704487 25,29.970251 25,28.78125 L 25,26.125 c 0,-0.489927 0.1603,-0.81752 0.5,-1.0625 0.346348,-0.250932 0.740679,-0.407615 1.5,-0.4375 L 27,23 z m 10,0 0,1.625 c 0.759321,0.02989 1.153652,0.186568 1.5,0.4375 0.3397,0.24498 0.5,0.572573 0.5,1.0625 l 0,2.65625 c 0,1.189001 0.599714,1.923237 2.125,2.15625 l 0,0.125 C 39.599714,31.277599 39,31.98656 39,33.1875 l 0,2.6875 c 0,0.489937 -0.1603,0.842807 -0.5,1.09375 -0.339687,0.250942 -0.734018,0.3943 -1.5,0.40625 L 37,39 c 1.538617,-0.01195 2.320617,-0.22744 3,-0.6875 0.67273,-0.45409 1,-1.228303 1,-2.25 l 0,-2.53125 c 0,-1.111317 1.228268,-1.687496 3,-1.6875 l 0,-1.6875 c -0.899188,6e-6 -1.879555,-0.168625 -2.3125,-0.4375 C 41.2479,29.443915 41,29.055667 41,28.5 l 0,-2.78125 C 41,24.786686 40.656855,24.092426 39.9375,23.65625 39.211493,23.214124 38.445369,23.000014 37,23 z" style="font-size:19px;font-style:normal;font-variant:normal;font-weight:600;font-stretch:normal;text-align:start;line-height:125%;letter-spacing:0;word-spacing:0;writing-mode:lr-tb;text-anchor:start;color:#000;fill:#fff;fill-opacity:1;fill-rule:nonzero;stroke:none;marker:none;visibility:visible;display:inline;overflow:visible;enable-background:accumulate;font-family:Open Sans;-inkscape-font-specification:Open Sans Semi-Bold;opacity:.40000000000000002"/><path id="path3873-9" d="m 27,22 c -1.445369,1.4e-5 -2.211493,0.214124 -2.9375,0.65625 C 23.343145,23.092426 23,23.786686 23,24.71875 L 23,27.5 c 0,0.555667 -0.2479,0.943915 -0.6875,1.21875 -0.432945,0.268875 -1.413312,0.437506 -2.3125,0.4375 l 0,1.6875 c 1.771732,4e-6 3,0.576183 3,1.6875 l 0,2.53125 c 0,1.021697 0.32727,1.79591 1,2.25 0.679383,0.46006 1.461383,0.675547 3,0.6875 l 0,-1.625 C 26.234018,36.363049 25.839687,36.219692 25.5,35.96875 25.1603,35.717807 25,35.364937 25,34.875 l 0,-2.6875 c 0,-1.20094 -0.599714,-1.909901 -2.125,-2.125 l 0,-0.125 C 24.400286,29.704487 25,28.970251 25,27.78125 L 25,25.125 c 0,-0.489927 0.1603,-0.81752 0.5,-1.0625 0.346348,-0.250932 0.740679,-0.407615 1.5,-0.4375 L 27,22 z m 10,0 0,1.625 c 0.759321,0.02989 1.153652,0.186568 1.5,0.4375 0.3397,0.24498 0.5,0.572573 0.5,1.0625 l 0,2.65625 c 0,1.189001 0.599714,1.923237 2.125,2.15625 l 0,0.125 C 39.599714,30.277599 39,30.98656 39,32.1875 l 0,2.6875 c 0,0.489937 -0.1603,0.842807 -0.5,1.09375 -0.339687,0.250942 -0.734018,0.3943 -1.5,0.40625 L 37,38 c 1.538617,-0.01195 2.320617,-0.22744 3,-0.6875 0.67273,-0.45409 1,-1.228303 1,-2.25 l 0,-2.53125 c 0,-1.111317 1.228268,-1.687496 3,-1.6875 l 0,-1.6875 c -0.899188,6e-6 -1.879555,-0.168625 -2.3125,-0.4375 C 41.2479,28.443915 41,28.055667 41,27.5 l 0,-2.78125 C 41,23.786686 40.656855,23.092426 39.9375,22.65625 39.211493,22.214124 38.445369,22.000014 37,22 z" style="font-size:19px;font-style:normal;font-variant:normal;font-weight:600;font-stretch:normal;text-align:start;line-height:125%;letter-spacing:0;word-spacing:0;writing-mode:lr-tb;text-anchor:start;color:#000;fill:#999;fill-opacity:1;fill-rule:nonzero;stroke:none;marker:none;visibility:visible;display:inline;overflow:visible;enable-background:accumulate;font-family:Open Sans;-inkscape-font-specification:Open Sans Semi-Bold"/></svg>