<svg xmlns="http://www.w3.org/2000/svg" xmlns:svg="http://www.w3.org/2000/svg" xmlns:xlink="http://www.w3.org/1999/xlink" id="svg4017" width="64" height="64" version="1.1"><defs id="defs4019"><radialGradient id="radialGradient3153" cx="605.714" cy="486.648" r="117.143" fx="605.714" fy="486.648" gradientTransform="matrix(0.03132633,0,0,0.02058823,35.220859,1037.8136)" gradientUnits="userSpaceOnUse" xlink:href="#linearGradient5060"/><linearGradient id="linearGradient5060"><stop style="stop-color:#000;stop-opacity:1" id="stop5062" offset="0"/><stop style="stop-color:#000;stop-opacity:0" id="stop5064" offset="1"/></linearGradient><radialGradient id="radialGradient3156" cx="605.714" cy="486.648" r="117.143" fx="605.714" fy="486.648" gradientTransform="matrix(-0.03132632,0,0,0.02058823,28.779136,1037.8136)" gradientUnits="userSpaceOnUse" xlink:href="#linearGradient5060"/><linearGradient id="linearGradient5048"><stop style="stop-color:#000;stop-opacity:0" id="stop5050" offset="0"/><stop style="stop-color:#000;stop-opacity:1" id="stop5056" offset=".5"/><stop style="stop-color:#000;stop-opacity:0" id="stop5052" offset="1"/></linearGradient><linearGradient id="linearGradient4015" x1="302.857" x2="302.857" y1="366.648" y2="609.505" gradientTransform="matrix(0.09153846,0,0,0.02058823,-1.084616,1037.8136)" gradientUnits="userSpaceOnUse" xlink:href="#linearGradient5048"/><linearGradient id="linearGradient3104"><stop id="stop3106" offset="0" style="stop-color:#a0a0a0;stop-opacity:1"/><stop id="stop3108" offset="1" style="stop-color:#bebebe;stop-opacity:1"/></linearGradient><linearGradient id="linearGradient3600-9"><stop id="stop3602-3" offset="0" style="stop-color:#f4f4f4;stop-opacity:1"/><stop id="stop3604-7" offset="1" style="stop-color:#dbdbdb;stop-opacity:1"/></linearGradient><linearGradient id="linearGradient3977-4"><stop style="stop-color:#fff;stop-opacity:1" id="stop3979-7" offset="0"/><stop id="stop3981-6" offset=".036" style="stop-color:#fff;stop-opacity:.23529412"/><stop style="stop-color:#fff;stop-opacity:.15686275" id="stop3983-5" offset=".951"/><stop style="stop-color:#fff;stop-opacity:.39215687" id="stop3985-6" offset="1"/></linearGradient><linearGradient id="linearGradient3093" x1="24" x2="24" y1="5.564" y2="43" gradientTransform="matrix(1.2162162,0,0,1.5405376,2.8108184,981.38923)" gradientUnits="userSpaceOnUse" xlink:href="#linearGradient3977-4"/><linearGradient id="linearGradient3096" x1="25.132" x2="25.132" y1=".985" y2="47.013" gradientTransform="matrix(1.3428567,0,0,1.2819685,-0.22855506,985.62813)" gradientUnits="userSpaceOnUse" xlink:href="#linearGradient3600-9"/><linearGradient id="linearGradient3098" x1="-51.786" x2="-51.786" y1="50.786" y2="2.906" gradientTransform="matrix(1.0843525,0,0,1.1997316,79.550873,984.1994)" gradientUnits="userSpaceOnUse" xlink:href="#linearGradient3104"/><linearGradient id="linearGradient2946-687" x1="-22.607" x2="-22.57" y1="14.214" y2="18.246" gradientTransform="matrix(1.0224066,0,0,0.99211017,53.494527,1019.2604)" gradientUnits="userSpaceOnUse" xlink:href="#linearGradient3993-315-354"/><linearGradient id="linearGradient3993-315-354"><stop id="stop3319" offset="0" style="stop-color:#cdcdcd;stop-opacity:1"/><stop id="stop3321" offset="1" style="stop-color:#7c7c7c;stop-opacity:1"/></linearGradient><linearGradient id="linearGradient2948-223" x1="-14.177" x2="-14.177" y1="18.246" y2="14.214" gradientTransform="matrix(1.0224066,0,0,0.99211017,53.494527,1019.2604)" gradientUnits="userSpaceOnUse" xlink:href="#linearGradient2490-640-254"/><linearGradient id="linearGradient2490-640-254"><stop id="stop3325" offset="0" style="stop-color:#4b4b4b;stop-opacity:1"/><stop id="stop3327" offset="1" style="stop-color:#909090;stop-opacity:1"/></linearGradient><linearGradient id="linearGradient2953-130" x1="-22.607" x2="-22.57" y1="14.214" y2="18.246" gradientTransform="matrix(1.0224066,0,0,0.99211017,53.494527,1019.2604)" gradientUnits="userSpaceOnUse" xlink:href="#linearGradient2264-2-33-205"/><linearGradient id="linearGradient2264-2-33-205"><stop id="stop3295" offset="0" style="stop-color:#d4d4d4;stop-opacity:1"/><stop id="stop3297" offset="1" style="stop-color:#939393;stop-opacity:1"/></linearGradient><linearGradient id="linearGradient2955-550" x1="-14.177" x2="-14.177" y1="18.246" y2="14.214" gradientTransform="matrix(1.0224066,0,0,0.99211017,53.494527,1019.2604)" gradientUnits="userSpaceOnUse" xlink:href="#linearGradient3926-5-5-666"/><linearGradient id="linearGradient3926-5-5-666"><stop id="stop3301" offset="0" style="stop-color:#6f6f6f;stop-opacity:1"/><stop id="stop3303" offset="1" style="stop-color:#818181;stop-opacity:1"/></linearGradient><linearGradient id="linearGradient4168"><stop id="stop4170" offset="0" style="stop-color:#f8cd70;stop-opacity:1"/><stop id="stop4172" offset="1" style="stop-color:#d99a11;stop-opacity:1"/></linearGradient><linearGradient id="linearGradient4093"><stop id="stop4095" offset="0" style="stop-color:#bb5e12;stop-opacity:1"/><stop id="stop4097" offset="1" style="stop-color:#cd8033;stop-opacity:1"/></linearGradient><linearGradient id="linearGradient2264-2-6"><stop id="stop2266-4-0" offset="0" style="stop-color:#d7e866;stop-opacity:1"/><stop id="stop2268-7-33" offset="1" style="stop-color:#8cab2a;stop-opacity:1"/></linearGradient><linearGradient id="linearGradient3926-5-18"><stop id="stop3928-4-7" offset="0" style="stop-color:#5d8430;stop-opacity:1"/><stop id="stop3930-8-0" offset="1" style="stop-color:#6d9a38;stop-opacity:1"/></linearGradient><linearGradient id="linearGradient3517" x1="-22.607" x2="-22.57" y1="14.214" y2="18.246" gradientTransform="matrix(1.0224066,0,0,0.99211017,55.494527,1013.2604)" gradientUnits="userSpaceOnUse" xlink:href="#linearGradient2264-2-3-9-6"/><linearGradient id="linearGradient2264-2-3-9-6"><stop id="stop2266-4-8-7-4" offset="0" style="stop-color:#d7e866;stop-opacity:1"/><stop id="stop2268-7-3-4-0" offset="1" style="stop-color:#8cab2a;stop-opacity:1"/></linearGradient><linearGradient id="linearGradient3519" x1="-14.177" x2="-14.177" y1="18.246" y2="14.214" gradientTransform="matrix(1.0224066,0,0,0.99211017,55.494527,1013.2604)" gradientUnits="userSpaceOnUse" xlink:href="#linearGradient3926-5-9-1-5"/><linearGradient id="linearGradient3926-5-9-1-5"><stop id="stop3928-4-3-7-4" offset="0" style="stop-color:#5d8430;stop-opacity:1"/><stop id="stop3930-8-7-0-6" offset="1" style="stop-color:#6d9a38;stop-opacity:1"/></linearGradient><linearGradient id="linearGradient3521" x1="-22.607" x2="-22.57" y1="14.214" y2="18.246" gradientTransform="matrix(1.0224066,0,0,0.99211017,55.494527,1013.2604)" gradientUnits="userSpaceOnUse" xlink:href="#linearGradient2264-2-39"/><linearGradient id="linearGradient2264-2-39"><stop id="stop2266-4-9" offset="0" style="stop-color:#d7e866;stop-opacity:1"/><stop id="stop2268-7-5" offset="1" style="stop-color:#8cab2a;stop-opacity:1"/></linearGradient><linearGradient id="linearGradient3523" x1="-14.177" x2="-14.177" y1="18.246" y2="14.214" gradientTransform="matrix(1.0224066,0,0,0.99211017,55.494527,1013.2604)" gradientUnits="userSpaceOnUse" xlink:href="#linearGradient3926-5-1"/><linearGradient id="linearGradient3926-5-1"><stop id="stop3928-4-30" offset="0" style="stop-color:#5d8430;stop-opacity:1"/><stop id="stop3930-8-9" offset="1" style="stop-color:#6d9a38;stop-opacity:1"/></linearGradient><linearGradient id="linearGradient2985-308" x1="-22.607" x2="-22.57" y1="14.214" y2="18.246" gradientTransform="matrix(1.0224066,0,0,0.99211017,53.494527,1007.2604)" gradientUnits="userSpaceOnUse" xlink:href="#linearGradient3993-979-651"/><linearGradient id="linearGradient3993-979-651"><stop id="stop3307" offset="0" style="stop-color:#cdcdcd;stop-opacity:1"/><stop id="stop3309" offset="1" style="stop-color:#7c7c7c;stop-opacity:1"/></linearGradient><linearGradient id="linearGradient2987-383" x1="-14.177" x2="-14.177" y1="18.246" y2="14.214" gradientTransform="matrix(1.0224066,0,0,0.99211017,53.494527,1007.2604)" gradientUnits="userSpaceOnUse" xlink:href="#linearGradient2490-892-765"/><linearGradient id="linearGradient2490-892-765"><stop id="stop3313" offset="0" style="stop-color:#4b4b4b;stop-opacity:1"/><stop id="stop3315" offset="1" style="stop-color:#909090;stop-opacity:1"/></linearGradient><linearGradient id="linearGradient2264-2-853"><stop id="stop3283" offset="0" style="stop-color:#d4d4d4;stop-opacity:1"/><stop id="stop3285" offset="1" style="stop-color:#939393;stop-opacity:1"/></linearGradient><linearGradient id="linearGradient3926-5-617"><stop id="stop3289" offset="0" style="stop-color:#6f6f6f;stop-opacity:1"/><stop id="stop3291" offset="1" style="stop-color:#818181;stop-opacity:1"/></linearGradient><linearGradient id="linearGradient3190" x1="-22.607" x2="-22.57" y1="14.214" y2="18.246" gradientTransform="matrix(1.0224066,0,0,0.99211017,53.494527,1007.2604)" gradientUnits="userSpaceOnUse" xlink:href="#linearGradient2264-2-853"/><linearGradient id="linearGradient3192" x1="-14.177" x2="-14.177" y1="18.246" y2="14.214" gradientTransform="matrix(1.0224066,0,0,0.99211017,53.494527,1007.2604)" gradientUnits="userSpaceOnUse" xlink:href="#linearGradient3926-5-617"/><linearGradient id="linearGradient3202" x1="-22.607" x2="-22.57" y1="14.214" y2="18.246" gradientTransform="matrix(1.0224066,0,0,0.99211017,53.494527,983.26032)" gradientUnits="userSpaceOnUse" xlink:href="#linearGradient2264-2-853"/><linearGradient id="linearGradient3204" x1="-14.177" x2="-14.177" y1="18.246" y2="14.214" gradientTransform="matrix(1.0224066,0,0,0.99211017,53.494527,983.26032)" gradientUnits="userSpaceOnUse" xlink:href="#linearGradient3926-5-617"/><linearGradient id="linearGradient3206" x1="-22.607" x2="-22.57" y1="14.214" y2="18.246" gradientTransform="matrix(1.0224066,0,0,0.99211017,53.494527,983.26032)" gradientUnits="userSpaceOnUse" xlink:href="#linearGradient3993-979-651"/><linearGradient id="linearGradient3208" x1="-14.177" x2="-14.177" y1="18.246" y2="14.214" gradientTransform="matrix(1.0224066,0,0,0.99211017,53.494527,983.26032)" gradientUnits="userSpaceOnUse" xlink:href="#linearGradient2490-892-765"/><linearGradient id="linearGradient3220" x1="-22.607" x2="-22.57" y1="14.214" y2="18.246" gradientTransform="matrix(1.0224066,0,0,0.99211017,55.494527,989.26036)" gradientUnits="userSpaceOnUse" xlink:href="#linearGradient2264-2-39"/><linearGradient id="linearGradient3222" x1="-14.177" x2="-14.177" y1="18.246" y2="14.214" gradientTransform="matrix(1.0224066,0,0,0.99211017,55.494527,989.26036)" gradientUnits="userSpaceOnUse" xlink:href="#linearGradient3926-5-1"/><linearGradient id="linearGradient3224" x1="-22.607" x2="-22.57" y1="14.214" y2="18.246" gradientTransform="matrix(1.0224066,0,0,0.99211017,55.494527,989.26036)" gradientUnits="userSpaceOnUse" xlink:href="#linearGradient2264-2-3-9-6"/><linearGradient id="linearGradient3226" x1="-14.177" x2="-14.177" y1="18.246" y2="14.214" gradientTransform="matrix(1.0224066,0,0,0.99211017,55.494527,989.26036)" gradientUnits="userSpaceOnUse" xlink:href="#linearGradient3926-5-9-1-5"/><linearGradient id="linearGradient3256" x1="-22.607" x2="-22.57" y1="14.214" y2="18.246" gradientTransform="matrix(1.0224066,0,0,0.99211017,55.494527,1001.2604)" gradientUnits="userSpaceOnUse" xlink:href="#linearGradient2264-2-39"/><linearGradient id="linearGradient3258" x1="-14.177" x2="-14.177" y1="18.246" y2="14.214" gradientTransform="matrix(1.0224066,0,0,0.99211017,55.494527,1001.2604)" gradientUnits="userSpaceOnUse" xlink:href="#linearGradient3926-5-1"/><linearGradient id="linearGradient3260" x1="-22.607" x2="-22.57" y1="14.214" y2="18.246" gradientTransform="matrix(1.0224066,0,0,0.99211017,55.494527,1001.2604)" gradientUnits="userSpaceOnUse" xlink:href="#linearGradient2264-2-3-9-6"/><linearGradient id="linearGradient3262" x1="-14.177" x2="-14.177" y1="18.246" y2="14.214" gradientTransform="matrix(1.0224066,0,0,0.99211017,55.494527,1001.2604)" gradientUnits="userSpaceOnUse" xlink:href="#linearGradient3926-5-9-1-5"/><linearGradient id="linearGradient3274" x1="-22.607" x2="-22.57" y1="14.214" y2="18.246" gradientTransform="matrix(1.0224066,0,0,0.99211017,57.494527,995.26036)" gradientUnits="userSpaceOnUse" xlink:href="#linearGradient2264-2-6"/><linearGradient id="linearGradient3276" x1="-14.177" x2="-14.177" y1="18.246" y2="14.214" gradientTransform="matrix(1.0224066,0,0,0.99211017,57.494527,995.26036)" gradientUnits="userSpaceOnUse" xlink:href="#linearGradient3926-5-18"/><linearGradient id="linearGradient3278" x1="-22.607" x2="-22.57" y1="14.214" y2="18.246" gradientTransform="matrix(1.0224066,0,0,0.99211017,57.494527,995.26036)" gradientUnits="userSpaceOnUse" xlink:href="#linearGradient4168"/><linearGradient id="linearGradient3280" x1="-14.177" x2="-14.177" y1="18.246" y2="14.214" gradientTransform="matrix(1.0224066,0,0,0.99211017,57.494527,995.26036)" gradientUnits="userSpaceOnUse" xlink:href="#linearGradient4093"/></defs><metadata id="metadata4022"/><g id="layer1" transform="translate(0,-988.36218)"><rect id="rect2879" width="44.2" height="5" x="9.9" y="1045.362" style="opacity:.3;fill:url(#linearGradient4015);fill-opacity:1;fill-rule:nonzero;stroke:none;stroke-width:1;marker:none;visibility:visible;display:inline;overflow:visible"/><path id="path2881" d="m 9.9,1045.3624 c 0,0 0,4.9997 0,4.9997 -1.6132281,0.01 -3.9,-1.1202 -3.9,-2.5002 0,-1.38 1.8002408,-2.4995 3.9,-2.4995 z" style="opacity:.3;fill:url(#radialGradient3156);fill-opacity:1;fill-rule:nonzero;stroke:none;stroke-width:1;marker:none;visibility:visible;display:inline;overflow:visible"/><path id="path2883" d="m 54.099999,1045.3624 c 0,0 0,4.9997 0,4.9997 1.613228,0.01 3.900001,-1.1202 3.900001,-2.5002 0,-1.38 -1.800241,-2.4995 -3.900001,-2.4995 z" style="opacity:.3;fill:url(#radialGradient3153);fill-opacity:1;fill-rule:nonzero;stroke:none;stroke-width:1;marker:none;visibility:visible;display:inline;overflow:visible"/><path id="path4160-6" d="m 8.4999609,988.86214 c 10.7701071,0 47.0000371,0.004 47.0000371,0.004 l 5.6e-5,58.99606 c 0,0 -31.333395,0 -47.0000931,0 0,-19.6667 0,-39.3332 0,-58.99981 z" style="fill:url(#linearGradient3096);fill-opacity:1;stroke:url(#linearGradient3098);stroke-width:.99992186;stroke-linecap:butt;stroke-linejoin:round;stroke-miterlimit:4;stroke-opacity:1;stroke-dasharray:none;stroke-dashoffset:0;display:inline"/><path id="rect6741-1-8" d="m 54.499999,1046.8622 -44.9999992,0 0,-57.00004 44.9999992,0 z" style="fill:none;stroke:url(#linearGradient3093);stroke-width:1;stroke-linecap:round;stroke-linejoin:miter;stroke-miterlimit:4;stroke-opacity:1;stroke-dasharray:none;stroke-dashoffset:0"/><path id="path4098" d="m 24.921252,1021.8625 c -0.228953,0.016 -0.424256,0.1935 -0.421216,0.3837 l 0,2.2323 c -0.0025,0.2014 0.220083,0.3856 0.463338,0.3836 l 17.073273,0 c 0.243254,0 0.465752,-0.1822 0.463336,-0.3836 l 0,-2.2323 c 0.0025,-0.2014 -0.220082,-0.3857 -0.463336,-0.3837 l -17.073273,0 c -0.01403,-5e-4 -0.02809,-5e-4 -0.04212,0 z" style="color:#000;fill:url(#linearGradient3190);fill-opacity:1;fill-rule:nonzero;stroke:url(#linearGradient3192);stroke-width:.99999994;stroke-linecap:square;stroke-linejoin:miter;stroke-miterlimit:4;stroke-opacity:1;stroke-dasharray:none;stroke-dashoffset:0;marker:none;visibility:visible;display:inline;overflow:visible;enable-background:accumulate"/><path id="path4106" d="m 24.444654,1022.3627 c -0.241673,0.021 -0.447826,0.2579 -0.444616,0.5115 l 0,2.9764 c -0.0026,0.2685 0.232309,0.5142 0.489078,0.5115 l 18.021786,0 c 0.256768,0 0.491628,-0.243 0.489078,-0.5115 l 0,-2.9764 c 0.0026,-0.2685 -0.23231,-0.5142 -0.489078,-0.5115 l -18.021786,0 c -0.01481,-7e-4 -0.02965,-7e-4 -0.04446,0 z m -4.979507,0 c -0.252811,0.021 -0.468465,0.2579 -0.465108,0.5115 l 0,2.9764 c -0.0027,0.2685 0.243016,0.5142 0.511619,0.5115 l 2.9767,0 c 0.268604,0 0.514288,-0.243 0.511621,-0.5115 l 0,-2.9764 c 0.0027,-0.2685 -0.243017,-0.5142 -0.511621,-0.5115 l -2.9767,0 c -0.01549,-7e-4 -0.03101,-7e-4 -0.04651,0 z" style="opacity:.15;fill:#000;fill-opacity:1;stroke:none;display:inline"/><path id="path4373" d="m 25.000001,1022.8621 17.000001,0" style="opacity:.4;fill:none;stroke:#fff;stroke-width:1px;stroke-linecap:butt;stroke-linejoin:miter;stroke-opacity:1"/><path id="rect4432" d="m 20.000001,1021.8621 2,0 c 0.277,0 0.5,0.223 0.5,0.5 l 0,2 c 0,0.277 -0.223,0.5 -0.5,0.5 l -2,0 c -0.277,0 -0.5,-0.223 -0.5,-0.5 l 0,-2 c 0,-0.277 0.223,-0.5 0.5,-0.5 z m 4.921251,4e-4 c -0.228953,0.016 -0.424256,0.1935 -0.421216,0.3837 l 0,2.2323 c -0.0025,0.2014 0.220083,0.3856 0.463338,0.3836 l 17.073273,0 c 0.243254,0 0.465752,-0.1822 0.463336,-0.3836 l 0,-2.2323 c 0.0025,-0.2014 -0.220082,-0.3857 -0.463336,-0.3837 l -17.073273,0 c -0.01403,-5e-4 -0.02809,-5e-4 -0.04212,0 z" style="color:#000;fill:url(#linearGradient2985-308);fill-opacity:1;fill-rule:nonzero;stroke:url(#linearGradient2987-383);stroke-width:.99999994;stroke-linecap:square;stroke-linejoin:miter;stroke-miterlimit:4;stroke-opacity:1;stroke-dashoffset:0;marker:none;visibility:visible;display:inline;overflow:visible;enable-background:accumulate"/><path id="path4373-7-4" d="m 20.000001,1022.8621 1.999516,0 m 3.000484,0 17.000001,0" style="opacity:.4;fill:none;stroke:#fff;stroke-width:1px;stroke-linecap:butt;stroke-linejoin:miter;stroke-opacity:1"/><path id="path4098-9" d="m 26.921252,1027.8625 c -0.228953,0.016 -0.424256,0.1935 -0.421216,0.3837 l 0,2.2323 c -0.0025,0.2014 0.220083,0.3856 0.463338,0.3836 l 17.073273,0 c 0.243254,0 0.465752,-0.1822 0.463336,-0.3836 l 0,-2.2323 c 0.0025,-0.2014 -0.220082,-0.3857 -0.463336,-0.3837 l -17.073273,0 c -0.01403,-5e-4 -0.02809,-5e-4 -0.04212,0 z" style="color:#000;fill:url(#linearGradient3521);fill-opacity:1;fill-rule:nonzero;stroke:url(#linearGradient3523);stroke-width:.99999994;stroke-linecap:square;stroke-linejoin:miter;stroke-miterlimit:4;stroke-opacity:1;stroke-dasharray:none;stroke-dashoffset:0;marker:none;visibility:visible;display:inline;overflow:visible;enable-background:accumulate"/><path id="path4106-1" d="m 26.444654,1028.3627 c -0.241673,0.021 -0.447826,0.2579 -0.444616,0.5115 l 0,2.9764 c -0.0026,0.2685 0.232309,0.5142 0.489078,0.5115 l 18.021786,0 c 0.256768,0 0.491628,-0.243 0.489078,-0.5115 l 0,-2.9764 c 0.0026,-0.2685 -0.23231,-0.5142 -0.489078,-0.5115 l -18.021786,0 c -0.01481,-7e-4 -0.02965,-7e-4 -0.04446,0 z m -4.979507,0 c -0.252811,0.021 -0.468465,0.2579 -0.465108,0.5115 l 0,2.9764 c -0.0027,0.2685 0.243016,0.5142 0.511619,0.5115 l 2.9767,0 c 0.268604,0 0.514288,-0.243 0.511621,-0.5115 l 0,-2.9764 c 0.0027,-0.2685 -0.243017,-0.5142 -0.511621,-0.5115 l -2.9767,0 c -0.01549,-7e-4 -0.03101,-7e-4 -0.04651,0 z" style="opacity:.15;fill:#000;fill-opacity:1;stroke:none;display:inline"/><path id="path4373-3" d="m 27.000001,1028.8621 17.000001,0" style="opacity:.4;fill:none;stroke:#fff;stroke-width:1px;stroke-linecap:butt;stroke-linejoin:miter;stroke-opacity:1"/><path id="rect4432-4" d="m 22.000001,1027.8621 2,0 c 0.277,0 0.5,0.223 0.5,0.5 l 0,2 c 0,0.277 -0.223,0.5 -0.5,0.5 l -2,0 c -0.277,0 -0.5,-0.223 -0.5,-0.5 l 0,-2 c 0,-0.277 0.223,-0.5 0.5,-0.5 z m 4.921251,4e-4 c -0.228953,0.016 -0.424256,0.1935 -0.421216,0.3837 l 0,2.2323 c -0.0025,0.2014 0.220083,0.3856 0.463338,0.3836 l 17.073273,0 c 0.243254,0 0.465752,-0.1822 0.463336,-0.3836 l 0,-2.2323 c 0.0025,-0.2014 -0.220082,-0.3857 -0.463336,-0.3837 l -17.073273,0 c -0.01403,-5e-4 -0.02809,-5e-4 -0.04212,0 z" style="color:#000;fill:url(#linearGradient3517);fill-opacity:1;fill-rule:nonzero;stroke:url(#linearGradient3519);stroke-width:.99999994;stroke-linecap:square;stroke-linejoin:miter;stroke-miterlimit:4;stroke-opacity:1;stroke-dashoffset:0;marker:none;visibility:visible;display:inline;overflow:visible;enable-background:accumulate"/><path id="path4373-7-4-5" d="m 22.000001,1028.8621 1.999516,0 m 3.000484,0 17.000001,0" style="opacity:.4;fill:none;stroke:#fff;stroke-width:1px;stroke-linecap:butt;stroke-linejoin:miter;stroke-opacity:1"/><path id="path4098-2" d="m 24.921252,1033.8626 c -0.228953,0.016 -0.424256,0.1934 -0.421216,0.3836 l 0,2.2323 c -0.0025,0.2014 0.220083,0.3857 0.463338,0.3837 l 17.073273,0 c 0.243254,0 0.465752,-0.1823 0.463336,-0.3837 l 0,-2.2323 c 0.0025,-0.2014 -0.220082,-0.3856 -0.463336,-0.3836 l -17.073273,0 c -0.01403,-6e-4 -0.02809,-6e-4 -0.04212,0 z" style="color:#000;fill:url(#linearGradient2953-130);fill-opacity:1;fill-rule:nonzero;stroke:url(#linearGradient2955-550);stroke-width:.99999994;stroke-linecap:square;stroke-linejoin:miter;stroke-miterlimit:4;stroke-opacity:1;stroke-dasharray:none;stroke-dashoffset:0;marker:none;visibility:visible;display:inline;overflow:visible;enable-background:accumulate"/><path id="path4106-9" d="m 24.444654,1034.3627 c -0.241673,0.021 -0.447826,0.258 -0.444616,0.5116 l 0,2.9763 c -0.0026,0.2686 0.232309,0.5142 0.489078,0.5116 l 18.021786,0 c 0.256768,0 0.491628,-0.243 0.489078,-0.5116 l 0,-2.9763 c 0.0026,-0.2686 -0.23231,-0.5143 -0.489078,-0.5116 l -18.021786,0 c -0.01481,-7e-4 -0.02965,-7e-4 -0.04446,0 z m -4.979507,0 c -0.252811,0.021 -0.468465,0.258 -0.465108,0.5116 l 0,2.9763 c -0.0027,0.2686 0.243016,0.5142 0.511619,0.5116 l 2.9767,0 c 0.268604,0 0.514288,-0.243 0.511621,-0.5116 l 0,-2.9763 c 0.0027,-0.2686 -0.243017,-0.5143 -0.511621,-0.5116 l -2.9767,0 c -0.01549,-7e-4 -0.03101,-7e-4 -0.04651,0 z" style="opacity:.15;fill:#000;fill-opacity:1;stroke:none;display:inline"/><path id="path4373-2" d="m 25.000001,1034.8622 17.000001,0" style="opacity:.4;fill:none;stroke:#fff;stroke-width:1px;stroke-linecap:butt;stroke-linejoin:miter;stroke-opacity:1"/><path id="rect4432-8" d="m 20.000001,1033.8622 2,0 c 0.277,0 0.5,0.223 0.5,0.5 l 0,2 c 0,0.277 -0.223,0.5 -0.5,0.5 l -2,0 c -0.277,0 -0.5,-0.223 -0.5,-0.5 l 0,-2 c 0,-0.277 0.223,-0.5 0.5,-0.5 z m 4.921251,4e-4 c -0.228953,0.016 -0.424256,0.1934 -0.421216,0.3836 l 0,2.2323 c -0.0025,0.2014 0.220083,0.3857 0.463338,0.3837 l 17.073273,0 c 0.243254,0 0.465752,-0.1823 0.463336,-0.3837 l 0,-2.2323 c 0.0025,-0.2014 -0.220082,-0.3856 -0.463336,-0.3836 l -17.073273,0 c -0.01403,-6e-4 -0.02809,-6e-4 -0.04212,0 z" style="color:#000;fill:url(#linearGradient2946-687);fill-opacity:1;fill-rule:nonzero;stroke:url(#linearGradient2948-223);stroke-width:.99999994;stroke-linecap:square;stroke-linejoin:miter;stroke-miterlimit:4;stroke-opacity:1;stroke-dashoffset:0;marker:none;visibility:visible;display:inline;overflow:visible;enable-background:accumulate"/><path id="path4373-7-4-1" d="m 20.000001,1034.8622 1.999516,0 m 3.000484,0 17.000001,0" style="opacity:.4;fill:none;stroke:#fff;stroke-width:1px;stroke-linecap:butt;stroke-linejoin:miter;stroke-opacity:1"/><path style="color:#000;fill:url(#linearGradient3202);fill-opacity:1;fill-rule:nonzero;stroke:url(#linearGradient3204);stroke-width:.99999994;stroke-linecap:square;stroke-linejoin:miter;stroke-miterlimit:4;stroke-opacity:1;stroke-dasharray:none;stroke-dashoffset:0;marker:none;visibility:visible;display:inline;overflow:visible;enable-background:accumulate" id="path3192" d="m 24.921252,997.86246 c -0.228953,0.016 -0.424256,0.19354 -0.421216,0.38374 l 0,2.2323 c -0.0025,0.2014 0.220083,0.3856 0.463338,0.3836 l 17.073273,0 c 0.243254,0 0.465752,-0.1822 0.463336,-0.3836 l 0,-2.2323 c 0.0025,-0.2014 -0.220082,-0.38574 -0.463336,-0.38374 l -17.073273,0 c -0.01403,-5e-4 -0.02809,-5e-4 -0.04212,0 z"/><path style="opacity:.15;fill:#000;fill-opacity:1;stroke:none;display:inline" id="path3194" d="m 24.444654,998.3627 c -0.241673,0.021 -0.447826,0.2579 -0.444616,0.5115 l 0,2.9764 c -0.0026,0.2685 0.232309,0.5142 0.489078,0.5115 l 18.021786,0 c 0.256768,0 0.491628,-0.243 0.489078,-0.5115 l 0,-2.9764 c 0.0026,-0.2685 -0.23231,-0.5142 -0.489078,-0.5115 l -18.021786,0 c -0.01481,-7e-4 -0.02965,-7e-4 -0.04446,0 z m -4.979507,0 c -0.252811,0.021 -0.468465,0.2579 -0.465108,0.5115 l 0,2.9764 c -0.0027,0.2685 0.243016,0.5142 0.511619,0.5115 l 2.9767,0 c 0.268604,0 0.514288,-0.243 0.511621,-0.5115 l 0,-2.9764 c 0.0027,-0.2685 -0.243017,-0.5142 -0.511621,-0.5115 l -2.9767,0 c -0.01549,-7e-4 -0.03101,-7e-4 -0.04651,0 z"/><path style="opacity:.4;fill:none;stroke:#fff;stroke-width:1px;stroke-linecap:butt;stroke-linejoin:miter;stroke-opacity:1" id="path3196" d="m 25.000001,998.8621 17.000001,0"/><path style="color:#000;fill:url(#linearGradient3206);fill-opacity:1;fill-rule:nonzero;stroke:url(#linearGradient3208);stroke-width:.99999994;stroke-linecap:square;stroke-linejoin:miter;stroke-miterlimit:4;stroke-opacity:1;stroke-dashoffset:0;marker:none;visibility:visible;display:inline;overflow:visible;enable-background:accumulate" id="path3198" d="m 20.000001,997.86206 2,0 c 0.277,0 0.5,0.22304 0.5,0.50004 l 0,2 c 0,0.277 -0.223,0.5 -0.5,0.5 l -2,0 c -0.277,0 -0.5,-0.223 -0.5,-0.5 l 0,-2 c 0,-0.277 0.223,-0.50004 0.5,-0.50004 z m 4.921251,4e-4 c -0.228953,0.016 -0.424256,0.19354 -0.421216,0.38374 l 0,2.2323 c -0.0025,0.2014 0.220083,0.3856 0.463338,0.3836 l 17.073273,0 c 0.243254,0 0.465752,-0.1822 0.463336,-0.3836 l 0,-2.2323 c 0.0025,-0.2014 -0.220082,-0.38574 -0.463336,-0.38374 l -17.073273,0 c -0.01403,-5e-4 -0.02809,-5e-4 -0.04212,0 z"/><path style="opacity:.4;fill:none;stroke:#fff;stroke-width:1px;stroke-linecap:butt;stroke-linejoin:miter;stroke-opacity:1" id="path3200" d="m 20.000001,998.8621 1.999516,0 m 3.000484,0 17.000001,0"/><path style="color:#000;fill:url(#linearGradient3220);fill-opacity:1;fill-rule:nonzero;stroke:url(#linearGradient3222);stroke-width:.99999994;stroke-linecap:square;stroke-linejoin:miter;stroke-miterlimit:4;stroke-opacity:1;stroke-dasharray:none;stroke-dashoffset:0;marker:none;visibility:visible;display:inline;overflow:visible;enable-background:accumulate" id="path3210" d="m 26.921252,1003.8625 c -0.228953,0.016 -0.424256,0.1935 -0.421216,0.3837 l 0,2.2323 c -0.0025,0.2014 0.220083,0.3856 0.463338,0.3836 l 17.073273,0 c 0.243254,0 0.465752,-0.1822 0.463336,-0.3836 l 0,-2.2323 c 0.0025,-0.2014 -0.220082,-0.3857 -0.463336,-0.3837 l -17.073273,0 c -0.01403,-5e-4 -0.02809,-5e-4 -0.04212,0 z"/><path style="opacity:.15;fill:#000;fill-opacity:1;stroke:none;display:inline" id="path3212" d="m 26.444654,1004.3627 c -0.241673,0.021 -0.447826,0.2579 -0.444616,0.5115 l 0,2.9764 c -0.0026,0.2685 0.232309,0.5142 0.489078,0.5115 l 18.021786,0 c 0.256768,0 0.491628,-0.243 0.489078,-0.5115 l 0,-2.9764 c 0.0026,-0.2685 -0.23231,-0.5142 -0.489078,-0.5115 l -18.021786,0 c -0.01481,-7e-4 -0.02965,-7e-4 -0.04446,0 z m -4.979507,0 c -0.252811,0.021 -0.468465,0.2579 -0.465108,0.5115 l 0,2.9764 c -0.0027,0.2685 0.243016,0.5142 0.511619,0.5115 l 2.9767,0 c 0.268604,0 0.514288,-0.243 0.511621,-0.5115 l 0,-2.9764 c 0.0027,-0.2685 -0.243017,-0.5142 -0.511621,-0.5115 l -2.9767,0 c -0.01549,-7e-4 -0.03101,-7e-4 -0.04651,0 z"/><path style="opacity:.4;fill:none;stroke:#fff;stroke-width:1px;stroke-linecap:butt;stroke-linejoin:miter;stroke-opacity:1" id="path3214" d="m 27.000001,1004.8621 17.000001,0"/><path style="color:#000;fill:url(#linearGradient3224);fill-opacity:1;fill-rule:nonzero;stroke:url(#linearGradient3226);stroke-width:.99999994;stroke-linecap:square;stroke-linejoin:miter;stroke-miterlimit:4;stroke-opacity:1;stroke-dashoffset:0;marker:none;visibility:visible;display:inline;overflow:visible;enable-background:accumulate" id="path3216" d="m 22.000001,1003.8621 2,0 c 0.277,0 0.5,0.223 0.5,0.5 l 0,2 c 0,0.277 -0.223,0.5 -0.5,0.5 l -2,0 c -0.277,0 -0.5,-0.223 -0.5,-0.5 l 0,-2 c 0,-0.277 0.223,-0.5 0.5,-0.5 z m 4.921251,4e-4 c -0.228953,0.016 -0.424256,0.1935 -0.421216,0.3837 l 0,2.2323 c -0.0025,0.2014 0.220083,0.3856 0.463338,0.3836 l 17.073273,0 c 0.243254,0 0.465752,-0.1822 0.463336,-0.3836 l 0,-2.2323 c 0.0025,-0.2014 -0.220082,-0.3857 -0.463336,-0.3837 l -17.073273,0 c -0.01403,-5e-4 -0.02809,-5e-4 -0.04212,0 z"/><path style="opacity:.4;fill:none;stroke:#fff;stroke-width:1px;stroke-linecap:butt;stroke-linejoin:miter;stroke-opacity:1" id="path3218" d="m 22.000001,1004.8621 1.999516,0 m 3.000484,0 17.000001,0"/><path style="color:#000;fill:url(#linearGradient3256);fill-opacity:1;fill-rule:nonzero;stroke:url(#linearGradient3258);stroke-width:.99999994;stroke-linecap:square;stroke-linejoin:miter;stroke-miterlimit:4;stroke-opacity:1;stroke-dasharray:none;stroke-dashoffset:0;marker:none;visibility:visible;display:inline;overflow:visible;enable-background:accumulate" id="path3246" d="m 26.921252,1015.8625 c -0.228953,0.016 -0.424256,0.1935 -0.421216,0.3837 l 0,2.2323 c -0.0025,0.2014 0.220083,0.3856 0.463338,0.3836 l 17.073273,0 c 0.243254,0 0.465752,-0.1822 0.463336,-0.3836 l 0,-2.2323 c 0.0025,-0.2014 -0.220082,-0.3857 -0.463336,-0.3837 l -17.073273,0 c -0.01403,-5e-4 -0.02809,-5e-4 -0.04212,0 z"/><path style="opacity:.15;fill:#000;fill-opacity:1;stroke:none;display:inline" id="path3248" d="m 26.444654,1016.3627 c -0.241673,0.021 -0.447826,0.2579 -0.444616,0.5115 l 0,2.9764 c -0.0026,0.2685 0.232309,0.5142 0.489078,0.5115 l 18.021786,0 c 0.256768,0 0.491628,-0.243 0.489078,-0.5115 l 0,-2.9764 c 0.0026,-0.2685 -0.23231,-0.5142 -0.489078,-0.5115 l -18.021786,0 c -0.01481,-7e-4 -0.02965,-7e-4 -0.04446,0 z m -4.979507,0 c -0.252811,0.021 -0.468465,0.2579 -0.465108,0.5115 l 0,2.9764 c -0.0027,0.2685 0.243016,0.5142 0.511619,0.5115 l 2.9767,0 c 0.268604,0 0.514288,-0.243 0.511621,-0.5115 l 0,-2.9764 c 0.0027,-0.2685 -0.243017,-0.5142 -0.511621,-0.5115 l -2.9767,0 c -0.01549,-7e-4 -0.03101,-7e-4 -0.04651,0 z"/><path style="opacity:.4;fill:none;stroke:#fff;stroke-width:1px;stroke-linecap:butt;stroke-linejoin:miter;stroke-opacity:1" id="path3250" d="m 27.000001,1016.8621 17.000001,0"/><path style="color:#000;fill:url(#linearGradient3260);fill-opacity:1;fill-rule:nonzero;stroke:url(#linearGradient3262);stroke-width:.99999994;stroke-linecap:square;stroke-linejoin:miter;stroke-miterlimit:4;stroke-opacity:1;stroke-dashoffset:0;marker:none;visibility:visible;display:inline;overflow:visible;enable-background:accumulate" id="path3252" d="m 22.000001,1015.8621 2,0 c 0.277,0 0.5,0.223 0.5,0.5 l 0,2 c 0,0.277 -0.223,0.5 -0.5,0.5 l -2,0 c -0.277,0 -0.5,-0.223 -0.5,-0.5 l 0,-2 c 0,-0.277 0.223,-0.5 0.5,-0.5 z m 4.921251,4e-4 c -0.228953,0.016 -0.424256,0.1935 -0.421216,0.3837 l 0,2.2323 c -0.0025,0.2014 0.220083,0.3856 0.463338,0.3836 l 17.073273,0 c 0.243254,0 0.465752,-0.1822 0.463336,-0.3836 l 0,-2.2323 c 0.0025,-0.2014 -0.220082,-0.3857 -0.463336,-0.3837 l -17.073273,0 c -0.01403,-5e-4 -0.02809,-5e-4 -0.04212,0 z"/><path style="opacity:.4;fill:none;stroke:#fff;stroke-width:1px;stroke-linecap:butt;stroke-linejoin:miter;stroke-opacity:1" id="path3254" d="m 22.000001,1016.8621 1.999516,0 m 3.000484,0 17.000001,0"/><path style="color:#000;fill:url(#linearGradient3274);fill-opacity:1;fill-rule:nonzero;stroke:url(#linearGradient3276);stroke-width:.99999994;stroke-linecap:square;stroke-linejoin:miter;stroke-miterlimit:4;stroke-opacity:1;stroke-dasharray:none;stroke-dashoffset:0;marker:none;visibility:visible;display:inline;overflow:visible;enable-background:accumulate" id="path3264" d="m 28.921252,1009.8626 c -0.228953,0.016 -0.424256,0.1934 -0.421216,0.3836 l 0,2.2323 c -0.0025,0.2014 0.220083,0.3857 0.463338,0.3837 l 17.073273,0 c 0.243254,0 0.465752,-0.1823 0.463336,-0.3837 l 0,-2.2323 c 0.0025,-0.2014 -0.220082,-0.3856 -0.463336,-0.3836 l -17.073273,0 c -0.01403,-6e-4 -0.02809,-6e-4 -0.04212,0 z"/><path style="opacity:.15;fill:#000;fill-opacity:1;stroke:none;display:inline" id="path3266" d="m 28.444654,1010.3627 c -0.241673,0.021 -0.447826,0.258 -0.444616,0.5116 l 0,2.9763 c -0.0026,0.2686 0.232309,0.5142 0.489078,0.5116 l 18.021786,0 c 0.256768,0 0.491628,-0.243 0.489078,-0.5116 l 0,-2.9763 c 0.0026,-0.2686 -0.23231,-0.5143 -0.489078,-0.5116 l -18.021786,0 c -0.01481,-7e-4 -0.02965,-7e-4 -0.04446,0 z m -4.979507,0 c -0.252811,0.021 -0.468465,0.258 -0.465108,0.5116 l 0,2.9763 c -0.0027,0.2686 0.243016,0.5142 0.511619,0.5116 l 2.9767,0 c 0.268604,0 0.514288,-0.243 0.511621,-0.5116 l 0,-2.9763 c 0.0027,-0.2686 -0.243017,-0.5143 -0.511621,-0.5116 l -2.9767,0 c -0.01549,-7e-4 -0.03101,-7e-4 -0.04651,0 z"/><path style="opacity:.4;fill:none;stroke:#fff;stroke-width:1px;stroke-linecap:butt;stroke-linejoin:miter;stroke-opacity:1" id="path3268" d="m 29.000001,1010.8622 17.000001,0"/><path style="color:#000;fill:url(#linearGradient3278);fill-opacity:1;fill-rule:nonzero;stroke:url(#linearGradient3280);stroke-width:.99999994;stroke-linecap:square;stroke-linejoin:miter;stroke-miterlimit:4;stroke-opacity:1;stroke-dashoffset:0;marker:none;visibility:visible;display:inline;overflow:visible;enable-background:accumulate" id="path3270" d="m 24.000001,1009.8622 2,0 c 0.277,0 0.5,0.223 0.5,0.5 l 0,2 c 0,0.277 -0.223,0.5 -0.5,0.5 l -2,0 c -0.277,0 -0.5,-0.223 -0.5,-0.5 l 0,-2 c 0,-0.277 0.223,-0.5 0.5,-0.5 z m 4.921251,4e-4 c -0.228953,0.016 -0.424256,0.1934 -0.421216,0.3836 l 0,2.2323 c -0.0025,0.2014 0.220083,0.3857 0.463338,0.3837 l 17.073273,0 c 0.243254,0 0.465752,-0.1823 0.463336,-0.3837 l 0,-2.2323 c 0.0025,-0.2014 -0.220082,-0.3856 -0.463336,-0.3836 l -17.073273,0 c -0.01403,-6e-4 -0.02809,-6e-4 -0.04212,0 z"/><path style="opacity:.4;fill:none;stroke:#fff;stroke-width:1px;stroke-linecap:butt;stroke-linejoin:miter;stroke-opacity:1" id="path3272" d="m 24.000001,1010.8622 1.999516,0 m 3.000484,0 17.000001,0"/></g></svg>