<svg xmlns="http://www.w3.org/2000/svg" xmlns:svg="http://www.w3.org/2000/svg" xmlns:xlink="http://www.w3.org/1999/xlink" id="svg4132" width="64" height="64" version="1.1"><defs id="defs4134"><linearGradient id="linearGradient5031"><stop style="stop-color:#a3a3a3;stop-opacity:1" id="stop5033" offset="0"/><stop style="stop-color:#bababa;stop-opacity:1" id="stop5035" offset="1"/></linearGradient><linearGradient id="linearGradient3104-6"><stop style="stop-color:#000;stop-opacity:.31782946" id="stop3106-3" offset="0"/><stop style="stop-color:#000;stop-opacity:.24031007" id="stop3108-9" offset="1"/></linearGradient><linearGradient id="linearGradient3977-4"><stop style="stop-color:#fff;stop-opacity:1" id="stop3979-7" offset="0"/><stop style="stop-color:#fff;stop-opacity:.23529412" id="stop3981-6" offset=".012"/><stop style="stop-color:#fff;stop-opacity:.15686275" id="stop3983-5" offset=".988"/><stop style="stop-color:#fff;stop-opacity:.39215687" id="stop3985-6" offset="1"/></linearGradient><linearGradient id="linearGradient3600-9"><stop style="stop-color:#f4f4f4;stop-opacity:1" id="stop3602-3" offset="0"/><stop style="stop-color:#dbdbdb;stop-opacity:1" id="stop3604-7" offset="1"/></linearGradient><linearGradient id="linearGradient5060"><stop style="stop-color:#000;stop-opacity:1" id="stop5062" offset="0"/><stop style="stop-color:#000;stop-opacity:0" id="stop5064" offset="1"/></linearGradient><linearGradient id="linearGradient5048"><stop style="stop-color:#000;stop-opacity:0" id="stop5050" offset="0"/><stop style="stop-color:#000;stop-opacity:1" id="stop5056" offset=".5"/><stop style="stop-color:#000;stop-opacity:0" id="stop5052" offset="1"/></linearGradient><linearGradient id="linearGradient3041" x1="25" x2="25" y1="43" y2="14" gradientTransform="translate(8,7.999539)" gradientUnits="userSpaceOnUse" xlink:href="#linearGradient3830"/><linearGradient id="linearGradient3830"><stop style="stop-color:#fff;stop-opacity:1" id="stop3832" offset="0"/><stop style="stop-color:#fff;stop-opacity:0" id="stop3834" offset="1"/></linearGradient><linearGradient id="linearGradient3044" x1="30" x2="30" y1="9.983" y2="28.585" gradientTransform="translate(8,7.999539)" gradientUnits="userSpaceOnUse" xlink:href="#linearGradient3830"/><radialGradient id="radialGradient3047" cx="7.806" cy="9.957" r="12.672" fx="7.276" fy="9.957" gradientTransform="matrix(-1.6167311e-7,6.6018651,-8.0922115,-1.9817022e-7,112.56429,-52.072946)" gradientUnits="userSpaceOnUse" xlink:href="#linearGradient2867-449-88-871-390-598-476-591-434-148-57-177"/><linearGradient id="linearGradient2867-449-88-871-390-598-476-591-434-148-57-177"><stop style="stop-color:#90dbec;stop-opacity:1" id="stop3750" offset="0"/><stop style="stop-color:#55c1ec;stop-opacity:1" id="stop3752" offset=".262"/><stop style="stop-color:#3689e6;stop-opacity:1" id="stop3754" offset=".705"/><stop style="stop-color:#2b63a0;stop-opacity:1" id="stop3756" offset="1"/></linearGradient><linearGradient id="linearGradient3049" x1="25" x2="25" y1="47.935" y2=".918" gradientTransform="translate(8,7.999539)" gradientUnits="userSpaceOnUse" xlink:href="#linearGradient3707-319-631-407-324"/><linearGradient id="linearGradient3707-319-631-407-324"><stop style="stop-color:#185f9a;stop-opacity:1" id="stop3760" offset="0"/><stop style="stop-color:#599ec9;stop-opacity:1" id="stop3762" offset="1"/></linearGradient><linearGradient id="linearGradient4114-3"><stop style="stop-color:#000;stop-opacity:1" id="stop4116-7" offset="0"/><stop style="stop-color:#000;stop-opacity:0" id="stop4118-4" offset="1"/></linearGradient><radialGradient id="radialGradient3113" cx="15.116" cy="63.965" r="12.289" fx="15.116" fy="63.965" gradientTransform="matrix(1.139227,0,0,0.4068666,14.779999,15.746616)" gradientUnits="userSpaceOnUse" xlink:href="#linearGradient4114-3"/><linearGradient id="linearGradient3091" x1="-51.786" x2="-51.786" y1="50.786" y2="2.906" gradientTransform="matrix(1.0843523,0,0,1.1997367,79.550862,-4.1628601)" gradientUnits="userSpaceOnUse" xlink:href="#linearGradient3104-6"/><linearGradient id="linearGradient3094" x1="24" x2="24" y1="5.864" y2="42.1" gradientTransform="matrix(1.2162162,0,0,1.5405376,2.8108184,-6.9729501)" gradientUnits="userSpaceOnUse" xlink:href="#linearGradient3977-4"/><linearGradient id="linearGradient3097" x1="25.132" x2="25.132" y1=".985" y2="47.013" gradientTransform="matrix(1.3142827,0,0,1.2602393,0.4572141,-2.1793201)" gradientUnits="userSpaceOnUse" xlink:href="#linearGradient3600-9"/><radialGradient id="radialGradient3100" cx="605.714" cy="486.648" r="117.143" fx="605.714" fy="486.648" gradientTransform="matrix(0.03132633,0,0,0.02058823,35.220859,49.45142)" gradientUnits="userSpaceOnUse" xlink:href="#linearGradient5060"/><radialGradient id="radialGradient3103" cx="605.714" cy="486.648" r="117.143" fx="605.714" fy="486.648" gradientTransform="matrix(-0.03132632,0,0,0.02058823,28.779136,49.45142)" gradientUnits="userSpaceOnUse" xlink:href="#linearGradient5060"/><linearGradient id="linearGradient3106" x1="302.857" x2="302.857" y1="366.648" y2="609.505" gradientTransform="matrix(0.09153846,0,0,0.02058823,-1.084616,49.45142)" gradientUnits="userSpaceOnUse" xlink:href="#linearGradient5048"/><linearGradient id="linearGradient3113" x1="22.104" x2="22.104" y1="40.124" y2="10.035" gradientTransform="matrix(0.8937486,0,0,1.931724,6.298629,-14.712219)" gradientUnits="userSpaceOnUse" xlink:href="#linearGradient5031"/></defs><metadata id="metadata4137"/><rect style="opacity:.3;fill:url(#linearGradient3106);fill-opacity:1;fill-rule:nonzero;stroke:none;stroke-width:1;marker:none;visibility:visible;display:inline;overflow:visible" id="rect2879" width="44.2" height="5" x="9.9" y="57"/><path style="opacity:.3;fill:url(#radialGradient3103);fill-opacity:1;fill-rule:nonzero;stroke:none;stroke-width:1;marker:none;visibility:visible;display:inline;overflow:visible" id="path2881" d="m 9.9,57.00022 c 0,0 0,4.9997 0,4.9997 -1.6132281,0.01 -3.9,-1.1202 -3.9,-2.5002 0,-1.38 1.8002408,-2.4995 3.9,-2.4995 z"/><path style="opacity:.3;fill:url(#radialGradient3100);fill-opacity:1;fill-rule:nonzero;stroke:none;stroke-width:1;marker:none;visibility:visible;display:inline;overflow:visible" id="path2883" d="m 54.099999,57.00022 c 0,0 0,4.9997 0,4.9997 C 55.713227,62.00992 58,60.87972 58,59.49972 c 0,-1.38 -1.800241,-2.4995 -3.900001,-2.4995 z"/><path style="fill:url(#linearGradient3097);fill-opacity:1;stroke:none;display:inline" id="path4160-6" d="m 9,0.9998799 c 10.540935,0 45.999945,0.004 45.999945,0.004 L 55,59.00002 c 0,0 -30.666666,0 -46,0 0,-19.3334 0,-38.6665 0,-57.9998201 z"/><path style="fill:url(#linearGradient3113);fill-opacity:1;stroke:none;display:inline" id="path4007" d="m 15,9 0,1 3.1875,0 0,-1 z m 3.59375,0 0,1 3.03125,0 0,-1 z m 3.46875,0 0,1 2.625,0 0,-1 z m 3.0625,0 0,1 1.15625,0 0,-1 z m 1.59375,0 0,1 2.59375,0 0,-1 z m 3.0625,0 0,1 6.71875,0 0,-1 z M 15,12 l 0,1 5.0625,0 0,-1 z m 5.59375,0 0,1 L 23,13 23,12 z m 2.875,0 0,1 1.15625,0 0,-1 z m 1.65625,0 0,1 2.15625,0 0,-1 z m 2.6875,0 0,1 2.15625,0 0,-1 z m 2.625,0 0,1 3.5625,0 0,-1 z m 4.0625,0 0,1 4.65625,0 0,-1 z m -19.5,3 0,1 5.625,0 0,-1 z m 6.03125,0 0,1 6.0625,0 0,-1 z M 15,18 l 0,1 3.09375,0 0,-1 z m 3.53125,0 0,1 2.875,0 0,-1 z m 3.3125,0 0,1 2.5625,0 0,-1 z M 15,21 l 0,1 4.125,0 0,-1 z m 4.5625,0 0,1 7.53125,0 0,-1 z M 15,24 l 0,1 4.15625,0 0,-1 z m 4.625,0 0,1 6.84375,0 0,-1 z m 7.34375,0 0,1 2.5625,0 0,-1 z m 2.96875,0 0,1 2.5625,0 0,-1 z m 2.96875,0 0,1 3.71875,0 0,-1 z M 15,27 l 0,1 3.15625,0 0,-1 z m 3.6875,0 0,1 3.03125,0 0,-1 z M 15,30 l 0,1 1.34375,0 0,-1 z m 0,3 0,1 3.6875,0 0,-1 z m 12.09375,0 0,1 3.125,0 0,-1 z m 3.5625,0 0,1 2.9375,0 0,-1 z M 34,33 l 0,1 2.5,0 0,-1 z m -19,3 0,1 3.9375,0 0,-1 z m 4.40625,0 0,1 3.65625,0 0,-1 z m 7.6875,0 0,1 2.5,0 0,-1 z m 2.9375,0 0,1 6.46875,0 0,-1 z m 6.875,0 0,1 4.9375,0 0,-1 z M 15,39 l 0,1 3.40625,0 0,-1 z m 3.9375,0 0,1 2.78125,0 0,-1 z M 15,42 l 0,1 2.96875,0 0,-1 z m 3.4375,0 0,1 2.84375,0 0,-1 z m 18.625,0 0,1 0.78125,0 0,-1 z m 1.1875,0 0,1 4.75,0 0,-1 z M 15,45 l 0,1 5.75,0 0,-1 z m 6.21875,0 0,1 6.15625,0 0,-1 z m 6.625,0 0,1 2.4375,0 0,-1 z m 2.90625,0 0,1 5.78125,0 0,-1 z m 6.25,0 0,1 3.96875,0 0,-1 z m 4.40625,0 0,1 1.53125,0 0,-1 z m 2,0 0,1 0.9375,0 0,-1 z m 1.34375,0 0,1 2.46875,0 0,-1 z M 15,48 l 0,1 4.9375,0 0,-1 z m 5.34375,0 0,1 2.375,0 0,-1 z m 2.875,0 0,1 1.09375,0 0,-1 z m 1.40625,0 0,1 2.15625,0 0,-1 z m 2.5,0 0,1 2.1875,0 0,-1 z m 2.84375,0 0,1 3.5,0 0,-1 z m 3.90625,0 0,1 4.53125,0 0,-1 z m 5.15625,0 0,1 3.0625,0 0,-1 z m 3.46875,0 0,1 0.6875,0 0,-1 z m -27.5,3 0,1 4.0625,0 0,-1 z m 4.5,0 0,1 4.46875,0 0,-1 z m 7.5,0 0,1 3.28125,0 0,-1 z m 3.6875,0 0,1 3.03125,0 0,-1 z m 3.5,0 0,1 2.59375,0 0,-1 z m 3,0 0,1 4.15625,0 0,-1 z m 4.625,0 0,1 6.75,0 0,-1 z"/><path style="fill:none;stroke:url(#linearGradient3094);stroke-width:1;stroke-linecap:round;stroke-linejoin:miter;stroke-miterlimit:4;stroke-opacity:1;stroke-dasharray:none;stroke-dashoffset:0" id="rect6741-1-8" d="m 54.499999,58.50002 -44.9999992,0 0,-57.0000401 44.9999992,0 z"/><path style="fill:none;stroke:url(#linearGradient3091);stroke-width:.9999218;stroke-linecap:butt;stroke-linejoin:round;stroke-miterlimit:4;stroke-opacity:1;stroke-dasharray:none;stroke-dashoffset:0;display:inline" id="path4160-6-1" d="m 8.4999684,0.4998999 c 10.7700936,0 47.0000286,0.004 47.0000286,0.004 l 4.9e-5,58.9962201 c 0,0 -31.333384,0 -47.0000776,0 0,-19.6668 0,-39.3334 0,-58.9999701 z"/><path style="opacity:.3;fill:url(#radialGradient3113);fill-opacity:1;stroke:none;display:inline" id="path2917" d="M 46.000001,41.772005 C 46.001501,44.533817 39.733075,46.773 32,46.773 24.266925,46.773 17.998461,44.533817 17.999999,41.772005 17.998459,39.010193 24.266925,36.77101 32,36.77101 c 7.733075,0 14.00154,2.239183 14.000001,5.000995 z"/><path style="fill:url(#radialGradient3047);fill-opacity:1;fill-rule:nonzero;stroke:url(#linearGradient3049);stroke-width:1;stroke-linecap:square;stroke-linejoin:round;stroke-miterlimit:4;stroke-opacity:1;stroke-dasharray:none;stroke-dashoffset:0;marker:none;visibility:visible;display:inline;overflow:visible;enable-background:accumulate" id="path3737" d="m 32,18.499539 c -6.9,0 -12.499999,5.6 -12.5,12.5 0,6.9 5.599999,12.499999 12.5,12.5 5.125438,0 10,-3.5 11.553499,-8 l -5.536003,0 c -1.331447,1.750621 -3.793958,3 -6.017496,3 -4.14,0 -7.5,-3.36 -7.5,-7.5 -2e-6,-4.14 3.36,-7.5 7.5,-7.5 2.667408,0 5.183494,1.900424 6.513248,4 l 4.949131,0 c -0.462379,-4.5 -5.960437,-9 -11.462379,-9 z"/><path style="opacity:.5;fill:none;stroke:url(#linearGradient3044);stroke-width:1;stroke-linecap:square;stroke-linejoin:miter;stroke-miterlimit:4;stroke-opacity:1;stroke-dasharray:none;stroke-dashoffset:0;marker:none;visibility:visible;display:inline;overflow:visible;enable-background:accumulate" id="path3838" d="m 42.125,25.937039 c -1.850043,-3.787458 -5.875951,-6.433675 -10.125,-6.375 -4.449315,-0.06217 -8.751065,2.759233 -10.485048,6.853654 -1.845338,4.107129 -0.950527,9.256661 2.202417,12.47864 2.140297,2.305678 5.28364,3.567885 8.406425,3.542411"/><path style="opacity:.5;fill:none;stroke:url(#linearGradient3041);stroke-width:1;stroke-linecap:square;stroke-linejoin:miter;stroke-miterlimit:4;stroke-opacity:1;stroke-dasharray:none;stroke-dashoffset:0;marker:none;visibility:visible;display:inline;overflow:visible;enable-background:accumulate" id="path3845" d="m 31.560696,22.448223 c -4.019671,0.132986 -7.611931,3.468568 -8.054149,7.463758 -0.566086,3.852928 1.888226,7.846435 5.555393,9.128804 3.010601,1.169689 7.32868,0.172164 9.361806,-2.549741 l 4.576254,0"/></svg>