<svg xmlns="http://www.w3.org/2000/svg" xmlns:svg="http://www.w3.org/2000/svg" xmlns:xlink="http://www.w3.org/1999/xlink" id="svg4017" width="64" height="64" version="1.1"><defs id="defs4019"><radialGradient id="radialGradient3153" cx="605.714" cy="486.648" r="117.143" fx="605.714" fy="486.648" gradientTransform="matrix(0.03132633,0,0,0.02058823,35.220859,1037.8136)" gradientUnits="userSpaceOnUse" xlink:href="#linearGradient5060"/><linearGradient id="linearGradient5060"><stop style="stop-color:#000;stop-opacity:1" id="stop5062" offset="0"/><stop style="stop-color:#000;stop-opacity:0" id="stop5064" offset="1"/></linearGradient><radialGradient id="radialGradient3156" cx="605.714" cy="486.648" r="117.143" fx="605.714" fy="486.648" gradientTransform="matrix(-0.03132632,0,0,0.02058823,28.779136,1037.8136)" gradientUnits="userSpaceOnUse" xlink:href="#linearGradient5060"/><linearGradient id="linearGradient5048"><stop style="stop-color:#000;stop-opacity:0" id="stop5050" offset="0"/><stop style="stop-color:#000;stop-opacity:1" id="stop5056" offset=".5"/><stop style="stop-color:#000;stop-opacity:0" id="stop5052" offset="1"/></linearGradient><linearGradient id="linearGradient4015" x1="302.857" x2="302.857" y1="366.648" y2="609.505" gradientTransform="matrix(0.09153846,0,0,0.02058823,-1.084616,1037.8136)" gradientUnits="userSpaceOnUse" xlink:href="#linearGradient5048"/><linearGradient id="linearGradient3104"><stop id="stop3106" offset="0" style="stop-color:#a0a0a0;stop-opacity:1"/><stop id="stop3108" offset="1" style="stop-color:#bebebe;stop-opacity:1"/></linearGradient><linearGradient id="linearGradient3600-9"><stop id="stop3602-3" offset="0" style="stop-color:#f4f4f4;stop-opacity:1"/><stop id="stop3604-7" offset="1" style="stop-color:#dbdbdb;stop-opacity:1"/></linearGradient><linearGradient id="linearGradient3977-4"><stop style="stop-color:#fff;stop-opacity:1" id="stop3979-7" offset="0"/><stop id="stop3981-6" offset=".036" style="stop-color:#fff;stop-opacity:.23529412"/><stop style="stop-color:#fff;stop-opacity:.15686275" id="stop3983-5" offset=".951"/><stop style="stop-color:#fff;stop-opacity:.39215687" id="stop3985-6" offset="1"/></linearGradient><linearGradient id="linearGradient3093" x1="24" x2="24" y1="5.564" y2="43" gradientTransform="matrix(1.2162162,0,0,1.5405376,2.8108184,981.38923)" gradientUnits="userSpaceOnUse" xlink:href="#linearGradient3977-4"/><linearGradient id="linearGradient3096" x1="25.132" x2="25.132" y1=".985" y2="47.013" gradientTransform="matrix(1.3428567,0,0,1.2819685,-0.22855506,985.62813)" gradientUnits="userSpaceOnUse" xlink:href="#linearGradient3600-9"/><linearGradient id="linearGradient3098" x1="-51.786" x2="-51.786" y1="50.786" y2="2.906" gradientTransform="matrix(1.0843525,0,0,1.1997316,79.550873,984.1994)" gradientUnits="userSpaceOnUse" xlink:href="#linearGradient3104"/></defs><metadata id="metadata4022"/><g id="layer1" transform="translate(0,-988.36218)"><rect id="rect2879" width="44.2" height="5" x="9.9" y="1045.362" style="opacity:.3;fill:url(#linearGradient4015);fill-opacity:1;fill-rule:nonzero;stroke:none;stroke-width:1;marker:none;visibility:visible;display:inline;overflow:visible"/><path id="path2881" d="m 9.9,1045.3624 c 0,0 0,4.9997 0,4.9997 -1.6132281,0.01 -3.9,-1.1202 -3.9,-2.5002 0,-1.38 1.8002408,-2.4995 3.9,-2.4995 z" style="opacity:.3;fill:url(#radialGradient3156);fill-opacity:1;fill-rule:nonzero;stroke:none;stroke-width:1;marker:none;visibility:visible;display:inline;overflow:visible"/><path id="path2883" d="m 54.099999,1045.3624 c 0,0 0,4.9997 0,4.9997 1.613228,0.01 3.900001,-1.1202 3.900001,-2.5002 0,-1.38 -1.800241,-2.4995 -3.900001,-2.4995 z" style="opacity:.3;fill:url(#radialGradient3153);fill-opacity:1;fill-rule:nonzero;stroke:none;stroke-width:1;marker:none;visibility:visible;display:inline;overflow:visible"/><path id="path4160-6" d="m 8.4999609,988.86214 c 10.7701071,0 47.0000371,0.004 47.0000371,0.004 l 5.6e-5,58.99606 c 0,0 -31.333395,0 -47.0000931,0 0,-19.6667 0,-39.3332 0,-58.99981 z" style="fill:url(#linearGradient3096);fill-opacity:1;stroke:url(#linearGradient3098);stroke-width:.99992186;stroke-linecap:butt;stroke-linejoin:round;stroke-miterlimit:4;stroke-opacity:1;stroke-dasharray:none;stroke-dashoffset:0;display:inline"/><path id="rect6741-1-8" d="m 54.499999,1046.8622 -44.9999992,0 0,-57.00004 44.9999992,0 z" style="fill:none;stroke:url(#linearGradient3093);stroke-width:1;stroke-linecap:round;stroke-linejoin:miter;stroke-miterlimit:4;stroke-opacity:1;stroke-dasharray:none;stroke-dashoffset:0"/><path style="font-size:72px;font-style:normal;font-weight:700;opacity:.4;fill:#fff;fill-opacity:1;stroke:none;font-family:Standard Symbols L" id="path3298" d="m 33.180199,1027.2038 c -0.08566,-3.0576 0.599375,-6.026 3.488169,-8.1286 3.051304,-2.3778 5.989954,-5.3529 5.679401,-8.8598 -0.06781,-3.3822 -4.008466,-6.0324 -8.254238,-6.4134 -4.775804,-0.6616 -10.554496,0.9744 -12.154836,4.7041 -0.811656,1.814 -0.05898,5.0685 2.664923,5.0685 1.593218,0 2.324992,-1.0291 2.44521,-1.9706 0.09096,-0.7123 -0.201489,-1.3484 -0.374197,-1.9368 -0.196791,-0.6705 0.643293,-1.9699 1.558259,-2.4993 0.76456,-0.4423 1.564484,-0.5907 1.682397,-0.619 2.745747,-0.6599 5.482862,0.7977 6.624834,2.5718 1.141974,1.774 -0.114995,4.4648 -1.922222,7.0816 -1.80723,2.6169 -3.74671,5.5889 -3.738962,8.7458 0,1.2019 -0.107087,1.6101 -0.03099,2.0964 0.06078,0.3885 1.347147,0.3415 2.33226,0.1593 z m -1.253073,4.1155 c -2.625368,-0.1426 -4.442488,2.8337 -2.865296,4.7299 1.408507,2.0936 5.357634,1.5768 6.034513,-0.794 0.70371,-1.8437 -0.989778,-3.9667 -3.169216,-3.9359 l -10e-7,0 z"/><path style="font-size:72px;font-style:normal;font-weight:700;opacity:1;fill:#999;fill-opacity:1;stroke:none;font-family:Standard Symbols L;color:#000;fill-rule:nonzero;stroke-width:1;marker:none;visibility:visible;display:inline;overflow:visible;enable-background:accumulate" id="path9053" d="m 33.180199,1025.9075 c -0.08566,-3.0576 0.599375,-6.026 3.488169,-8.1286 3.051304,-2.3778 5.989954,-5.3529 5.679401,-8.8598 -0.06781,-3.3822 -4.008466,-6.0324 -8.254238,-6.4134 -4.775804,-0.6616 -10.554496,0.9744 -12.154836,4.7041 -0.811656,1.814 -0.05898,5.0685 2.664923,5.0685 1.593218,0 2.324992,-1.0291 2.44521,-1.9706 0.09096,-0.7123 -0.201489,-1.3484 -0.374197,-1.9368 -0.196791,-0.6705 0.643293,-1.9699 1.558259,-2.4993 0.76456,-0.4423 1.564484,-0.5907 1.682397,-0.619 2.745747,-0.6599 5.482862,0.7977 6.624834,2.5718 1.141974,1.774 -0.114995,4.4648 -1.922222,7.0817 -1.80723,2.6168 -3.74671,5.5888 -3.738962,8.7457 0,1.2019 -0.107087,1.6101 -0.03099,2.0964 0.06078,0.3885 1.347147,0.3415 2.33226,0.1593 z m -1.253073,4.1155 c -2.625368,-0.1426 -4.442488,2.8337 -2.865296,4.7299 1.408507,2.0936 5.357634,1.5768 6.034513,-0.794 0.70371,-1.8437 -0.989778,-3.9667 -3.169216,-3.9359 l -10e-7,0 z"/></g></svg>