<svg xmlns="http://www.w3.org/2000/svg" xmlns:svg="http://www.w3.org/2000/svg" xmlns:xlink="http://www.w3.org/1999/xlink" id="svg2453" width="64" height="64" version="1.0"><metadata id="metadata35"/><defs id="defs2455"><linearGradient id="linearGradient3462"><stop id="stop3464" offset="0" style="stop-color:#fff;stop-opacity:1"/><stop id="stop3466" offset=".035" style="stop-color:#fff;stop-opacity:.23529412"/><stop id="stop3468" offset=".964" style="stop-color:#fff;stop-opacity:.15686275"/><stop id="stop3470" offset="1" style="stop-color:#fff;stop-opacity:.39215687"/></linearGradient><linearGradient id="linearGradient5060-2"><stop id="stop5062-3" offset="0" style="stop-color:#000;stop-opacity:1"/><stop id="stop5064-1" offset="1" style="stop-color:#000;stop-opacity:0"/></linearGradient><linearGradient id="linearGradient5048-8"><stop id="stop5050-4" offset="0" style="stop-color:#000;stop-opacity:0"/><stop id="stop5056-5" offset=".5" style="stop-color:#000;stop-opacity:1"/><stop id="stop5052-1" offset="1" style="stop-color:#000;stop-opacity:0"/></linearGradient><radialGradient id="radialGradient3175" cx="605.714" cy="486.648" r="117.143" fx="605.714" fy="486.648" gradientTransform="matrix(-0.03212956,0,0,0.02058823,23.863217,48.451416)" gradientUnits="userSpaceOnUse" xlink:href="#linearGradient5060-2"/><linearGradient id="linearGradient3178" x1="302.857" x2="302.857" y1="366.648" y2="609.505" gradientTransform="matrix(0.11390532,0,0,0.02058823,-9.1686406,48.451416)" gradientUnits="userSpaceOnUse" xlink:href="#linearGradient5048-8"/><linearGradient id="linearGradient2867-449-88-871-390-598-476-591-434-148-57-177-8-3-3-6-4-8-8-8-5-7"><stop style="stop-color:#505050;stop-opacity:1" id="stop3750-1-0-7-6-6-1-3-9-3-9" offset="0"/><stop style="stop-color:#2b2b2b;stop-opacity:1" id="stop3752-3-7-4-0-32-8-923-0-7-0" offset=".262"/><stop style="stop-color:#0a0a0a;stop-opacity:1" id="stop3754-1-8-5-2-7-6-7-1-9-1" offset=".705"/><stop style="stop-color:#000;stop-opacity:1" id="stop3756-1-6-2-6-6-1-96-6-0-1" offset="1"/></linearGradient><linearGradient id="linearGradient3133" x1="40.29" x2="40.29" y1="5.414" y2="42.438" gradientTransform="matrix(1.5405405,0,0,1.2162162,-4.9729751,5.8820652)" gradientUnits="userSpaceOnUse" xlink:href="#linearGradient3462"/><radialGradient id="radialGradient3136" cx="7.118" cy="9.957" r="12.672" fx="7.118" fy="9.957" gradientTransform="matrix(0,11.015167,-16.975815,0,202.28727,-88.992668)" gradientUnits="userSpaceOnUse" xlink:href="#linearGradient2867-449-88-871-390-598-476-591-434-148-57-177-8-3-3-6-4-8-8-8-5-7"/></defs><rect id="rect2879-0" width="55" height="5" x="4.5" y="56" style="opacity:.3;fill:url(#linearGradient3178);fill-opacity:1;fill-rule:nonzero;stroke:none;stroke-width:1;marker:none;visibility:visible;display:inline;overflow:visible"/><path id="path2881-4" d="m 4.5,56.000216 c 0,0 0,4.9997 0,4.9997 -1.654593,0.01 -4,-1.1202 -4,-2.5002 0,-1.38 1.8464008,-2.4995 4,-2.4995 z" style="opacity:.3;fill:url(#radialGradient3175);fill-opacity:1;fill-rule:nonzero;stroke:none;stroke-width:1;marker:none;visibility:visible;display:inline;overflow:visible"/><rect id="rect5505-21-3-8-5-2" width="59" height="47" x="2.5" y="11.5" rx="2" ry="2" style="opacity:.9;color:#000;fill:url(#radialGradient3136);fill-opacity:1;fill-rule:nonzero;stroke:none;stroke-width:.99999994;marker:none;visibility:visible;display:inline;overflow:visible;enable-background:accumulate"/><rect id="rect6741-5-0-2-3" width="57" height="45" x="3.5" y="12.571" rx="1" ry="1" style="opacity:.29999999999999999;fill:none;stroke:url(#linearGradient3133);stroke-width:1;stroke-linecap:round;stroke-linejoin:round;stroke-miterlimit:4;stroke-opacity:1;stroke-dasharray:none;stroke-dashoffset:0"/><rect id="rect5505-21-3-8-9-1-1" width="59" height="47" x="2.5" y="11.5" rx="2" ry="2" style="opacity:.7;color:#000;fill:none;stroke:#000;stroke-width:1;stroke-linecap:round;stroke-linejoin:round;stroke-miterlimit:4;stroke-opacity:1;stroke-dasharray:none;stroke-dashoffset:0;marker:none;visibility:visible;display:inline;overflow:visible;enable-background:accumulate"/><path id="path3399" d="M 25.75,29 C 25.3345,29 25,29.3345 25,29.75 l 0,13.5 c 0,0.4155 0.3345,0.75 0.75,0.75 l 12.5,0 C 38.6655,44 39,43.6655 39,43.25 l 0,-13.5 C 39,29.3345 38.6655,29 38.25,29 l -12.5,0 z m 0.25,1 1,0 0,1 -1,0 0,-1 z m 2.5,0 7,0 c 0.277,0 0.5,0.223 0.5,0.5 l 0,5 c 0,0.277 -0.223,0.5 -0.5,0.5 l -7,0 C 28.223,36 28,35.777 28,35.5 l 0,-5 C 28,30.223 28.223,30 28.5,30 Z m 8.5,0 1,0 0,1 -1,0 0,-1 z m -11,2 1,0 0,1 -1,0 0,-1 z m 11,0 1,0 0,1 -1,0 0,-1 z m -11,2 1,0 0,1 -1,0 0,-1 z m 11,0 1,0 0,1 -1,0 0,-1 z m -11,2 1,0 0,1 -1,0 0,-1 z m 11,0 1,0 0,1 -1,0 0,-1 z m -8.5,1 7,0 c 0.277,0 0.5,0.223 0.5,0.5 l 0,5 c 0,0.277 -0.223,0.5 -0.5,0.5 l -7,0 C 28.223,43 28,42.777 28,42.5 l 0,-5 C 28,37.223 28.223,37 28.5,37 Z m -2.5,1 1,0 0,1 -1,0 0,-1 z m 11,0 1,0 0,1 -1,0 0,-1 z m -11,2 1,0 0,1 -1,0 0,-1 z m 11,0 1,0 0,1 -1,0 0,-1 z m -11,2 1,0 0,1 -1,0 0,-1 z m 11,0 1,0 0,1 -1,0 0,-1 z" style="color:#000;display:inline;overflow:visible;visibility:visible;opacity:.15;fill:#000;fill-opacity:1;fill-rule:nonzero;stroke:#000;stroke-width:2;marker:none;enable-background:accumulate;stroke-opacity:1;stroke-miterlimit:4;stroke-dasharray:none"/><path style="color:#000;display:inline;overflow:visible;visibility:visible;opacity:.15;fill:#000;fill-opacity:1;fill-rule:nonzero;stroke:none;stroke-width:1;marker:none;enable-background:accumulate" id="path3397" d="M 25.75,29 C 25.3345,29 25,29.3345 25,29.75 l 0,13.5 c 0,0.4155 0.3345,0.75 0.75,0.75 l 12.5,0 C 38.6655,44 39,43.6655 39,43.25 l 0,-13.5 C 39,29.3345 38.6655,29 38.25,29 l -12.5,0 z m 0.25,1 1,0 0,1 -1,0 0,-1 z m 2.5,0 7,0 c 0.277,0 0.5,0.223 0.5,0.5 l 0,5 c 0,0.277 -0.223,0.5 -0.5,0.5 l -7,0 C 28.223,36 28,35.777 28,35.5 l 0,-5 C 28,30.223 28.223,30 28.5,30 Z m 8.5,0 1,0 0,1 -1,0 0,-1 z m -11,2 1,0 0,1 -1,0 0,-1 z m 11,0 1,0 0,1 -1,0 0,-1 z m -11,2 1,0 0,1 -1,0 0,-1 z m 11,0 1,0 0,1 -1,0 0,-1 z m -11,2 1,0 0,1 -1,0 0,-1 z m 11,0 1,0 0,1 -1,0 0,-1 z m -8.5,1 7,0 c 0.277,0 0.5,0.223 0.5,0.5 l 0,5 c 0,0.277 -0.223,0.5 -0.5,0.5 l -7,0 C 28.223,43 28,42.777 28,42.5 l 0,-5 C 28,37.223 28.223,37 28.5,37 Z m -2.5,1 1,0 0,1 -1,0 0,-1 z m 11,0 1,0 0,1 -1,0 0,-1 z m -11,2 1,0 0,1 -1,0 0,-1 z m 11,0 1,0 0,1 -1,0 0,-1 z m -11,2 1,0 0,1 -1,0 0,-1 z m 11,0 1,0 0,1 -1,0 0,-1 z"/><path id="rect3032-8" d="M 25.75,28 C 25.3345,28 25,28.3345 25,28.75 l 0,13.5 c 0,0.4155 0.3345,0.75 0.75,0.75 l 12.5,0 C 38.6655,43 39,42.6655 39,42.25 l 0,-13.5 C 39,28.3345 38.6655,28 38.25,28 l -12.5,0 z m 0.25,1 1,0 0,1 -1,0 0,-1 z m 2.5,0 7,0 c 0.277,0 0.5,0.223 0.5,0.5 l 0,5 c 0,0.277 -0.223,0.5 -0.5,0.5 l -7,0 C 28.223,35 28,34.777 28,34.5 l 0,-5 C 28,29.223 28.223,29 28.5,29 Z m 8.5,0 1,0 0,1 -1,0 0,-1 z m -11,2 1,0 0,1 -1,0 0,-1 z m 11,0 1,0 0,1 -1,0 0,-1 z m -11,2 1,0 0,1 -1,0 0,-1 z m 11,0 1,0 0,1 -1,0 0,-1 z m -11,2 1,0 0,1 -1,0 0,-1 z m 11,0 1,0 0,1 -1,0 0,-1 z m -8.5,1 7,0 c 0.277,0 0.5,0.223 0.5,0.5 l 0,5 c 0,0.277 -0.223,0.5 -0.5,0.5 l -7,0 C 28.223,42 28,41.777 28,41.5 l 0,-5 C 28,36.223 28.223,36 28.5,36 Z m -2.5,1 1,0 0,1 -1,0 0,-1 z m 11,0 1,0 0,1 -1,0 0,-1 z m -11,2 1,0 0,1 -1,0 0,-1 z m 11,0 1,0 0,1 -1,0 0,-1 z m -11,2 1,0 0,1 -1,0 0,-1 z m 11,0 1,0 0,1 -1,0 0,-1 z" style="color:#000;display:inline;overflow:visible;visibility:visible;fill:#fff;fill-opacity:1;fill-rule:nonzero;stroke:none;stroke-width:1;marker:none;enable-background:accumulate;opacity:1"/></svg>