<svg xmlns="http://www.w3.org/2000/svg" xmlns:svg="http://www.w3.org/2000/svg" xmlns:xlink="http://www.w3.org/1999/xlink" id="svg4017" width="64" height="64" version="1.1"><defs id="defs4019"><radialGradient id="radialGradient3153" cx="605.714" cy="486.648" r="117.143" fx="605.714" fy="486.648" gradientTransform="matrix(0.03132633,0,0,0.02058823,35.220859,1037.8136)" gradientUnits="userSpaceOnUse" xlink:href="#linearGradient5060"/><linearGradient id="linearGradient5060"><stop style="stop-color:#000;stop-opacity:1" id="stop5062" offset="0"/><stop style="stop-color:#000;stop-opacity:0" id="stop5064" offset="1"/></linearGradient><radialGradient id="radialGradient3156" cx="605.714" cy="486.648" r="117.143" fx="605.714" fy="486.648" gradientTransform="matrix(-0.03132632,0,0,0.02058823,28.779136,1037.8136)" gradientUnits="userSpaceOnUse" xlink:href="#linearGradient5060"/><linearGradient id="linearGradient5048"><stop style="stop-color:#000;stop-opacity:0" id="stop5050" offset="0"/><stop style="stop-color:#000;stop-opacity:1" id="stop5056" offset=".5"/><stop style="stop-color:#000;stop-opacity:0" id="stop5052" offset="1"/></linearGradient><linearGradient id="linearGradient4015" x1="302.857" x2="302.857" y1="366.648" y2="609.505" gradientTransform="matrix(0.09153846,0,0,0.02058823,-1.084616,1037.8136)" gradientUnits="userSpaceOnUse" xlink:href="#linearGradient5048"/><linearGradient id="linearGradient3104"><stop id="stop3106" offset="0" style="stop-color:#a0a0a0;stop-opacity:1"/><stop id="stop3108" offset="1" style="stop-color:#bebebe;stop-opacity:1"/></linearGradient><linearGradient id="linearGradient3600-9"><stop id="stop3602-3" offset="0" style="stop-color:#f4f4f4;stop-opacity:1"/><stop id="stop3604-7" offset="1" style="stop-color:#dbdbdb;stop-opacity:1"/></linearGradient><linearGradient id="linearGradient3977-4"><stop style="stop-color:#fff;stop-opacity:1" id="stop3979-7" offset="0"/><stop id="stop3981-6" offset=".036" style="stop-color:#fff;stop-opacity:.23529412"/><stop style="stop-color:#fff;stop-opacity:.15686275" id="stop3983-5" offset=".951"/><stop style="stop-color:#fff;stop-opacity:.39215687" id="stop3985-6" offset="1"/></linearGradient><linearGradient id="linearGradient3093" x1="24" x2="24" y1="5.564" y2="43" gradientTransform="matrix(1.2162162,0,0,1.5405376,2.8108184,981.38923)" gradientUnits="userSpaceOnUse" xlink:href="#linearGradient3977-4"/><linearGradient id="linearGradient3096" x1="25.132" x2="25.132" y1=".985" y2="47.013" gradientTransform="matrix(1.3428567,0,0,1.2819685,-0.22855506,985.62813)" gradientUnits="userSpaceOnUse" xlink:href="#linearGradient3600-9"/><linearGradient id="linearGradient3098" x1="-51.786" x2="-51.786" y1="50.786" y2="2.906" gradientTransform="matrix(1.0843525,0,0,1.1997316,79.550873,984.1994)" gradientUnits="userSpaceOnUse" xlink:href="#linearGradient3104"/><linearGradient id="linearGradient4102"><stop style="stop-color:#fda852;stop-opacity:1" id="stop4104" offset="0"/><stop style="stop-color:#fff;stop-opacity:0" id="stop4106" offset="1"/></linearGradient><linearGradient id="linearGradient3060" x1="28.534" x2="16.887" y1="24.24" y2="13.664" gradientTransform="matrix(1.450273,0,0,1.3700541,-3.4650991,983.91855)" gradientUnits="userSpaceOnUse" xlink:href="#linearGradient4102"/><radialGradient id="radialGradient3155" cx="605.714" cy="486.648" r="117.143" fx="605.714" fy="486.648" gradientTransform="matrix(0.04016195,0,0,0.02225161,48.013776,1032.7998)" gradientUnits="userSpaceOnUse" xlink:href="#linearGradient5060-5"/><linearGradient id="linearGradient5060-5"><stop style="stop-color:#000;stop-opacity:1" id="stop5062-5" offset="0"/><stop style="stop-color:#000;stop-opacity:0" id="stop5064-3" offset="1"/></linearGradient><radialGradient id="radialGradient3157" cx="7" cy="39.465" r="3.5" fx="7" fy="39.465" gradientTransform="matrix(0,-1.000001,1.142856,0,-41.10259,45.50001)" gradientUnits="userSpaceOnUse" xlink:href="#linearGradient22122"/><linearGradient id="linearGradient22122"><stop style="stop-color:#000;stop-opacity:1" id="stop22124" offset="0"/><stop style="stop-color:#000;stop-opacity:0" id="stop22126" offset="1"/></linearGradient><radialGradient id="radialGradient3159" cx="7" cy="39.465" r="3.5" fx="7" fy="39.465" gradientTransform="matrix(0,-1.000001,1.142856,0,-89.10259,-31.49999)" gradientUnits="userSpaceOnUse" xlink:href="#linearGradient22122"/><linearGradient id="linearGradient3161" x1="18.142" x2="18.142" y1="35" y2="42.041" gradientUnits="userSpaceOnUse" xlink:href="#linearGradient22140"/><linearGradient id="linearGradient22140"><stop style="stop-color:#000;stop-opacity:0" id="stop22142" offset="0"/><stop style="stop-color:#000;stop-opacity:1" id="stop22148" offset=".5"/><stop style="stop-color:#000;stop-opacity:0" id="stop22144" offset="1"/></linearGradient><linearGradient id="linearGradient3163" x1="30.739" x2="45.903" y1="35.285" y2="50.736" gradientTransform="matrix(0,2.7038931,-2.6535314,0,169.84848,922.24617)" gradientUnits="userSpaceOnUse" xlink:href="#linearGradient3412"/><linearGradient id="linearGradient3412"><stop style="stop-color:#f0f0f1;stop-opacity:1" id="stop3414" offset="0"/><stop style="stop-color:#cbcdd9;stop-opacity:1" id="stop3416" offset="1"/></linearGradient><linearGradient id="linearGradient6240"><stop style="stop-color:#fff;stop-opacity:1" id="stop6242" offset="0"/><stop style="stop-color:#fff;stop-opacity:0" id="stop6244" offset="1"/></linearGradient><linearGradient id="linearGradient3238" x1="75.78" x2="75.78" y1="86" y2="127.036" gradientTransform="matrix(-1,0,0,1,133.21779,919.36222)" gradientUnits="userSpaceOnUse" xlink:href="#linearGradient6240"/></defs><metadata id="metadata4022"/><g id="layer1" transform="translate(0,-988.36218)"><rect id="rect2879" width="44.2" height="5" x="9.9" y="1045.362" style="opacity:.3;fill:url(#linearGradient4015);fill-opacity:1;fill-rule:nonzero;stroke:none;stroke-width:1;marker:none;visibility:visible;display:inline;overflow:visible"/><path id="path2881" d="m 9.9,1045.3624 c 0,0 0,4.9997 0,4.9997 -1.6132281,0.01 -3.9,-1.1202 -3.9,-2.5002 0,-1.38 1.8002408,-2.4995 3.9,-2.4995 z" style="opacity:.3;fill:url(#radialGradient3156);fill-opacity:1;fill-rule:nonzero;stroke:none;stroke-width:1;marker:none;visibility:visible;display:inline;overflow:visible"/><path id="path2883" d="m 54.099999,1045.3624 c 0,0 0,4.9997 0,4.9997 1.613228,0.01 3.900001,-1.1202 3.900001,-2.5002 0,-1.38 -1.800241,-2.4995 -3.900001,-2.4995 z" style="opacity:.3;fill:url(#radialGradient3153);fill-opacity:1;fill-rule:nonzero;stroke:none;stroke-width:1;marker:none;visibility:visible;display:inline;overflow:visible"/><path id="path4160-6" d="m 8.4999609,988.86214 c 10.7701071,0 47.0000371,0.004 47.0000371,0.004 l 5.6e-5,58.99606 c 0,0 -31.333395,0 -47.0000931,0 0,-19.6667 0,-39.3332 0,-58.99981 z" style="fill:url(#linearGradient3096);fill-opacity:1;stroke:url(#linearGradient3098);stroke-width:.99992186;stroke-linecap:butt;stroke-linejoin:round;stroke-miterlimit:4;stroke-opacity:1;stroke-dasharray:none;stroke-dashoffset:0;display:inline"/><path id="rect6741-1-8" d="m 54.499999,1046.8622 -44.9999992,0 0,-57.00004 44.9999992,0 z" style="fill:none;stroke:url(#linearGradient3093);stroke-width:1;stroke-linecap:round;stroke-linejoin:miter;stroke-miterlimit:4;stroke-opacity:1;stroke-dasharray:none;stroke-dashoffset:0"/><path id="path2783" d="m 20.25238,1032.6696 c 6.057143,3.8813 19.281673,-1.3114 8.287188,-15.2075 -10.894958,-13.7704 10.824719,-22.80225 17.269957,-6.8771" style="fill:url(#linearGradient3060);fill-opacity:1;fill-rule:evenodd;stroke:#ea541a;stroke-width:.99999982px;stroke-linecap:butt;stroke-linejoin:miter;stroke-opacity:1"/><path id="path3571" d="m 18.795771,1004.9477 20.893524,26.0998" style="fill:#f37329;fill-opacity:1;stroke:#ea541a;stroke-width:1px;stroke-linecap:butt;stroke-linejoin:miter;stroke-opacity:1"/><path id="path3575" d="m 40.976192,1031.1825 c 5.13e-4,0.7623 -0.617912,1.3804 -1.380953,1.3804 -0.763041,0 -1.381466,-0.6181 -1.380952,-1.3804 -5.14e-4,-0.7621 0.617911,-1.3802 1.380952,-1.3802 0.763041,0 1.381466,0.6181 1.380953,1.3802 l 0,0 z M 20.261906,1004.974 c 5.13e-4,0.7621 -0.617912,1.3802 -1.380953,1.3802 -0.763041,0 -1.381466,-0.6181 -1.380952,-1.3802 -5.14e-4,-0.7623 0.617911,-1.3804 1.380952,-1.3804 0.763041,0 1.381466,0.6181 1.380953,1.3804 l 0,0 z" style="fill:#e6e6e6;fill-opacity:1;stroke:#ea541a;stroke-width:1;stroke-linecap:butt;stroke-miterlimit:4;stroke-opacity:1;stroke-dasharray:none"/><path id="rect3569" d="m 27,1015.4111 4,0 0,4 -4,0 z m 16,-7 4,3e-4 0,3.9997 -4,-3e-4 z m -26,22 4,0 0,4 -4,0 z" style="fill:#ea541a;fill-opacity:1;stroke:none"/><g id="g3138" transform="translate(-15.217778,5.000036)"><path style="opacity:.15;fill:url(#radialGradient3155);fill-opacity:1;fill-rule:nonzero;stroke:none;stroke-width:1;marker:none;visibility:visible;display:inline;overflow:visible" id="path2881-3" d="m 72.217794,1040.9585 c 0,0 0,5.4036 0,5.4036 2.068242,0.01 5,-1.2107 5,-2.7022 0,-1.4915 -2.308,-2.7014 -5,-2.7014 z"/><g style="opacity:.3" id="g22150" transform="matrix(-0.916667,0,0,0.714282,78.217794,1017.3623)"><rect style="fill:url(#radialGradient3157);fill-opacity:1;stroke:none" id="rect22120" width="4" height="7" x="0" y="35"/><rect style="fill:url(#radialGradient3159);fill-opacity:1;stroke:none" id="rect22134" width="4" height="7" x="-48" y="-42" transform="scale(-1,-1)"/><rect style="fill:url(#linearGradient3161);fill-opacity:1;stroke:none" id="rect22138" width="40" height="7" x="4" y="35"/></g><path style="opacity:.8;fill:url(#linearGradient3163);fill-opacity:1;fill-rule:evenodd;stroke:#83899a;stroke-width:1px;stroke-linecap:butt;stroke-linejoin:miter;stroke-miterlimit:4;stroke-opacity:1;stroke-dasharray:none;stroke-dashoffset:0;marker:none;visibility:visible;display:inline;overflow:visible;enable-background:accumulate" id="path2993" d="m 75.717796,1005.8622 -39.999999,40 39.999999,0 0,-40 z m -7.999996,18.6666 0,13.3334 -13.500006,0 13.500006,-13.3334 z"/><path style="opacity:.3;fill:none;stroke:#fff;stroke-width:1px;stroke-linecap:round;stroke-linejoin:miter;stroke-opacity:1" id="path3101" d="m 70.717794,1044.8622 0,-1"/><path style="opacity:.3;fill:none;stroke:#fff;stroke-width:1px;stroke-linecap:round;stroke-linejoin:miter;stroke-opacity:1" id="path3103" d="m 64.717794,1044.8622 0,-1"/><path style="opacity:.3;fill:none;stroke:#fff;stroke-width:1px;stroke-linecap:round;stroke-linejoin:miter;stroke-opacity:1" id="path3105" d="m 58.717794,1044.8622 0,-0.9881"/><path style="opacity:.3;fill:none;stroke:#fff;stroke-width:1px;stroke-linecap:round;stroke-linejoin:miter;stroke-opacity:1" id="path3107" d="m 52.717794,1044.8622 0,-1"/><path style="opacity:.3;fill:none;stroke:#fff;stroke-width:1px;stroke-linecap:round;stroke-linejoin:miter;stroke-opacity:1" id="path3109" d="m 46.717794,1044.8622 0,-1"/><path style="opacity:.75;fill:none;stroke:#83899a;stroke-width:1.00000012px;stroke-linecap:round;stroke-linejoin:miter;stroke-opacity:1" id="path3091" d="m 69.717794,1045.8622 0,-2 m -6,2 0,-2 m -6,2 0,-1.9762 m -6,1.9762 0,-2 m -6,2 0,-2"/><path style="opacity:.5;fill:none;stroke:url(#linearGradient3238);stroke-width:1px;stroke-linecap:butt;stroke-linejoin:miter;stroke-miterlimit:4;stroke-opacity:1;stroke-dasharray:none;stroke-dashoffset:0;marker:none;visibility:visible;display:inline;overflow:visible;enable-background:accumulate" id="path3934" d="m 74.717794,1008.2997 c 0,0 0,36.5625 0,36.5625 0,0 -36.5625,0 -36.5625,0 0,0 36.5625,-36.5625 36.5625,-36.5625 z m -6,13.5625 c 0,0 -17,17 -17,17 0,0 17,0 17,0 0,0 0,-17 0,-17 z"/></g></g></svg>