<svg xmlns="http://www.w3.org/2000/svg" xmlns:svg="http://www.w3.org/2000/svg" xmlns:xlink="http://www.w3.org/1999/xlink" id="svg4954" width="64" height="64" version="1.1"><defs id="defs4956"><linearGradient id="linearGradient4356"><stop style="stop-color:#fff;stop-opacity:1" id="stop4358" offset="0"/><stop style="stop-color:#fff;stop-opacity:.23529412" id="stop4360" offset=".01"/><stop style="stop-color:#fff;stop-opacity:.15686275" id="stop4362" offset=".983"/><stop style="stop-color:#fff;stop-opacity:.39215687" id="stop4364" offset="1"/></linearGradient><linearGradient id="linearGradient3600-3-2-2"><stop style="stop-color:#f4f4f4;stop-opacity:1" id="stop3602-1-25-9" offset="0"/><stop style="stop-color:#dbdbdb;stop-opacity:1" id="stop3604-4-2-0" offset="1"/></linearGradient><linearGradient id="linearGradient3600-3-2-2-6-5-8-7"><stop style="stop-color:#f4f4f4;stop-opacity:1" id="stop3602-1-25-9-9-6-5-6" offset="0"/><stop style="stop-color:#dbdbdb;stop-opacity:1" id="stop3604-4-2-0-2-4-2-1" offset="1"/></linearGradient><linearGradient id="linearGradient3104-9-7-3-9-2-6-2"><stop style="stop-color:#aaa;stop-opacity:1" id="stop3106-1-5-9-3-1-7-1" offset="0"/><stop style="stop-color:#c8c8c8;stop-opacity:1" id="stop3108-1-5-5-7-2-4-5" offset="1"/></linearGradient><linearGradient id="linearGradient3211-8-8-0-0-9"><stop style="stop-color:#fff;stop-opacity:1" id="stop3213-0-0-8-1-1" offset="0"/><stop style="stop-color:#fff;stop-opacity:0" id="stop3215-1-8-0-6-4" offset="1"/></linearGradient><linearGradient id="linearGradient3600-3-2-2-6-8"><stop style="stop-color:#f4f4f4;stop-opacity:1" id="stop3602-1-25-9-9-7" offset="0"/><stop style="stop-color:#dbdbdb;stop-opacity:1" id="stop3604-4-2-0-2-0" offset="1"/></linearGradient><linearGradient id="linearGradient3104-9-7-3-9-6"><stop style="stop-color:#aaa;stop-opacity:1" id="stop3106-1-5-9-3-2" offset="0"/><stop style="stop-color:#c8c8c8;stop-opacity:1" id="stop3108-1-5-5-7-4" offset="1"/></linearGradient><linearGradient id="linearGradient3211-8-8-9"><stop style="stop-color:#fff;stop-opacity:1" id="stop3213-0-0-3" offset="0"/><stop style="stop-color:#fff;stop-opacity:0" id="stop3215-1-8-9" offset="1"/></linearGradient><linearGradient id="linearGradient3104-5"><stop style="stop-color:#aaa;stop-opacity:1" id="stop3106-9" offset="0"/><stop style="stop-color:#c8c8c8;stop-opacity:1" id="stop3108-9" offset="1"/></linearGradient><linearGradient id="linearGradient3091" x1="22.004" x2="22.004" y1="63.218" y2="25.647" gradientTransform="matrix(1.3394176,0,0,-1.9826305,-4.3543329,109.86293)" gradientUnits="userSpaceOnUse" xlink:href="#linearGradient3104-5"/><linearGradient id="linearGradient3076" x1="24" x2="24" y1="5.947" y2="41.755" gradientTransform="matrix(0.89189189,0,0,1.054054,-0.40540014,8.7027135)" gradientUnits="userSpaceOnUse" xlink:href="#linearGradient4356"/><linearGradient id="linearGradient3917" x1="25.132" x2="25.132" y1="15.285" y2="37.546" gradientTransform="matrix(1.456847,0,0,1.4786648,-1.1924073,-0.77586567)" gradientUnits="userSpaceOnUse" xlink:href="#linearGradient3600-3-2-2"/><linearGradient id="linearGradient3928" x1="24" x2="24" y1="14.203" y2="35.721" gradientTransform="matrix(2.1170825,0,0,1.1675323,-10.354736,0.0319621)" gradientUnits="userSpaceOnUse" xlink:href="#linearGradient3211-8-8-9"/><linearGradient id="linearGradient3931" x1="25.132" x2="25.132" y1="15.285" y2="37.546" gradientTransform="matrix(2.0328317,0,0,1.1210596,-9.6861059,-0.52865063)" gradientUnits="userSpaceOnUse" xlink:href="#linearGradient3600-3-2-2-6-8"/><linearGradient id="linearGradient3933" x1="-51.786" x2="-51.786" y1="41.798" y2="17.555" gradientTransform="matrix(1.6415049,0,0,1.0491448,111.08489,-1.7780482)" gradientUnits="userSpaceOnUse" xlink:href="#linearGradient3104-9-7-3-9-6"/><linearGradient id="linearGradient3936" x1="24" x2="24" y1="14.203" y2="35.721" gradientTransform="matrix(2.9929997,0,0,0.11114027,-27.91011,7.1953799)" gradientUnits="userSpaceOnUse" xlink:href="#linearGradient3211-8-8-0-0-9"/><linearGradient id="linearGradient3939" x1="25.132" x2="25.132" y1="15.285" y2="37.546" gradientTransform="matrix(2.6847692,0,0,0.1535966,-23.167729,5.8101858)" gradientUnits="userSpaceOnUse" xlink:href="#linearGradient3600-3-2-2-6-5-8-7"/><linearGradient id="linearGradient3941" x1="-51.786" x2="-51.786" y1="41.798" y2="17.555" gradientTransform="matrix(2.1679425,0,0,0.14374353,136.33503,5.6390056)" gradientUnits="userSpaceOnUse" xlink:href="#linearGradient3104-9-7-3-9-2-6-2"/><linearGradient id="linearGradient3968" x1="22.004" x2="22.004" y1="63.218" y2="25.647" gradientTransform="matrix(1.3394176,0,0,-1.9826305,-4.3543329,125.86293)" gradientUnits="userSpaceOnUse" xlink:href="#linearGradient3104-5"/><linearGradient id="linearGradient3702-501-757-795"><stop style="stop-color:#181818;stop-opacity:0" id="stop3100" offset="0"/><stop style="stop-color:#181818;stop-opacity:1" id="stop3102" offset=".5"/><stop style="stop-color:#181818;stop-opacity:0" id="stop3104" offset="1"/></linearGradient><linearGradient id="linearGradient3688-464-309-604"><stop style="stop-color:#181818;stop-opacity:1" id="stop3094" offset="0"/><stop style="stop-color:#181818;stop-opacity:0" id="stop3096" offset="1"/></linearGradient><linearGradient id="linearGradient3688-166-749-654"><stop style="stop-color:#181818;stop-opacity:1" id="stop3088" offset="0"/><stop style="stop-color:#181818;stop-opacity:0" id="stop3090" offset="1"/></linearGradient><radialGradient id="radialGradient4172" cx="4.993" cy="43.5" r="2.5" fx="4.993" fy="43.5" gradientTransform="matrix(2.003784,0,0,1.4,27.98813,-17.4)" gradientUnits="userSpaceOnUse" xlink:href="#linearGradient3688-166-749-654"/><radialGradient id="radialGradient4174" cx="4.993" cy="43.5" r="2.5" fx="4.993" fy="43.5" gradientTransform="matrix(2.003784,0,0,1.4,-20.01187,-104.4)" gradientUnits="userSpaceOnUse" xlink:href="#linearGradient3688-464-309-604"/><linearGradient id="linearGradient4176" x1="25.058" x2="25.058" y1="47.028" y2="39.999" gradientUnits="userSpaceOnUse" xlink:href="#linearGradient3702-501-757-795"/><linearGradient id="linearGradient4180" x1="22.004" x2="22.004" y1="63.218" y2="25.647" gradientTransform="matrix(1.3394176,0,0,-1.9826305,6.8331671,109.86293)" gradientUnits="userSpaceOnUse" xlink:href="#linearGradient3104-5"/><linearGradient id="linearGradient4185" x1="22.004" x2="22.004" y1="63.218" y2="25.647" gradientTransform="matrix(1.3394176,0,0,1.9826305,7.6456671,-34.862932)" gradientUnits="userSpaceOnUse" xlink:href="#linearGradient3104-5"/><radialGradient id="radialGradient4173-5" cx="6.73" cy="9.957" r="12.672" fx="6.2" fy="9.957" gradientTransform="matrix(0,10.228133,-12.55688,0,151.01469,-80.173359)" gradientUnits="userSpaceOnUse" xlink:href="#linearGradient2867-449-88-871-390-598-476-591-434-148-57-177-8-3-3-6-4-8-8-8-2-8"/><linearGradient id="linearGradient2867-449-88-871-390-598-476-591-434-148-57-177-8-3-3-6-4-8-8-8-2-8"><stop style="stop-color:#ffcd7d;stop-opacity:1" id="stop3750-1-0-7-6-6-1-3-9-9-0" offset="0"/><stop style="stop-color:#fc8f36;stop-opacity:1" id="stop3752-3-7-4-0-32-8-923-0-7-8" offset=".262"/><stop style="stop-color:#e23a0e;stop-opacity:1" id="stop3754-1-8-5-2-7-6-7-1-8-0" offset=".705"/><stop style="stop-color:#ac441f;stop-opacity:1" id="stop3756-1-6-2-6-6-1-96-6-1-1" offset="1"/></linearGradient><linearGradient id="linearGradient3076-9" x1="24" x2="24" y1="5.947" y2="41.755" gradientTransform="matrix(0.89189189,0,0,1.054054,-0.40540014,8.7027135)" gradientUnits="userSpaceOnUse" xlink:href="#linearGradient4356-5"/><linearGradient id="linearGradient4356-5"><stop style="stop-color:#fff;stop-opacity:1" id="stop4358-6" offset="0"/><stop style="stop-color:#fff;stop-opacity:.23529412" id="stop4360-9" offset=".01"/><stop style="stop-color:#fff;stop-opacity:.15686275" id="stop4362-4" offset=".983"/><stop style="stop-color:#fff;stop-opacity:.39215687" id="stop4364-6" offset="1"/></linearGradient><linearGradient id="linearGradient3104-6-6-1"><stop style="stop-color:#000;stop-opacity:.31782946" id="stop3106-3-2" offset="0"/><stop style="stop-color:#000;stop-opacity:.24031007" id="stop3108-9-8-3" offset="1"/></linearGradient><linearGradient id="linearGradient4420" x1="-51.786" x2="-51.786" y1="50.786" y2="2.906" gradientTransform="matrix(1.3150653,0,0,0.83371382,89.668048,10.259733)" gradientUnits="userSpaceOnUse" xlink:href="#linearGradient3104-6-6-1"/><linearGradient id="linearGradient5060-5"><stop style="stop-color:#000;stop-opacity:1" id="stop5062-5" offset="0"/><stop style="stop-color:#000;stop-opacity:0" id="stop5064-3" offset="1"/></linearGradient><linearGradient id="linearGradient22122"><stop style="stop-color:#000;stop-opacity:1" id="stop22124" offset="0"/><stop style="stop-color:#000;stop-opacity:0" id="stop22126" offset="1"/></linearGradient><linearGradient id="linearGradient22140"><stop style="stop-color:#000;stop-opacity:0" id="stop22142" offset="0"/><stop style="stop-color:#000;stop-opacity:1" id="stop22148" offset=".5"/><stop style="stop-color:#000;stop-opacity:0" id="stop22144" offset="1"/></linearGradient><linearGradient id="linearGradient3412"><stop style="stop-color:#f0f0f1;stop-opacity:1" id="stop3414" offset="0"/><stop style="stop-color:#cbcdd9;stop-opacity:1" id="stop3416" offset="1"/></linearGradient><linearGradient id="linearGradient6240"><stop style="stop-color:#fff;stop-opacity:1" id="stop6242" offset="0"/><stop style="stop-color:#fff;stop-opacity:0" id="stop6244" offset="1"/></linearGradient><radialGradient id="radialGradient3479" cx="605.714" cy="486.648" r="117.143" fx="605.714" fy="486.648" gradientTransform="matrix(0.04016195,0,0,0.02225161,48.013776,1032.7998)" gradientUnits="userSpaceOnUse" xlink:href="#linearGradient5060-5"/><radialGradient id="radialGradient3481" cx="7" cy="39.465" r="3.5" fx="7" fy="39.465" gradientTransform="matrix(0,-1.000001,1.142856,0,-41.10259,45.50001)" gradientUnits="userSpaceOnUse" xlink:href="#linearGradient22122"/><radialGradient id="radialGradient3483" cx="7" cy="39.465" r="3.5" fx="7" fy="39.465" gradientTransform="matrix(0,-1.000001,1.142856,0,-89.10259,-31.49999)" gradientUnits="userSpaceOnUse" xlink:href="#linearGradient22122"/><linearGradient id="linearGradient3485" x1="18.142" x2="18.142" y1="35" y2="42.041" gradientUnits="userSpaceOnUse" xlink:href="#linearGradient22140"/><linearGradient id="linearGradient3487" x1="30.739" x2="45.903" y1="35.285" y2="50.736" gradientTransform="matrix(0,2.7038931,-2.6535314,0,169.84848,922.24617)" gradientUnits="userSpaceOnUse" xlink:href="#linearGradient3412"/><linearGradient id="linearGradient3489" x1="75.78" x2="75.78" y1="86" y2="127.036" gradientTransform="matrix(-1,0,0,1,133.21779,919.36222)" gradientUnits="userSpaceOnUse" xlink:href="#linearGradient6240"/></defs><metadata id="metadata4959"/><g style="opacity:.3" id="g3712" transform="matrix(1.6842106,0,0,0.7142857,-8.4210536,23.428572)"><rect style="fill:url(#radialGradient4172);fill-opacity:1;stroke:none" id="rect2801" width="5" height="7" x="38" y="40"/><rect style="fill:url(#radialGradient4174);fill-opacity:1;stroke:none" id="rect3696" width="5" height="7" x="-10" y="-47" transform="scale(-1,-1)"/><rect style="fill:url(#linearGradient4176);fill-opacity:1;stroke:none" id="rect3700" width="28" height="7" x="10" y="40"/></g><path style="opacity:.5;color:#000;fill:url(#linearGradient3939);fill-opacity:1;fill-rule:nonzero;stroke:url(#linearGradient3941);stroke-width:.99992168;stroke-linecap:butt;stroke-linejoin:round;stroke-miterlimit:4;stroke-opacity:1;stroke-dashoffset:0;marker:none;visibility:visible;display:inline;overflow:visible;enable-background:accumulate" id="rect4964-4-4" d="m 14.499961,7.4999612 35.000079,0 0,4.0000778 -35.000079,0 z"/><path style="opacity:.3;color:#000;fill:none;stroke:url(#linearGradient3936);stroke-width:.99992162;stroke-linecap:butt;stroke-linejoin:round;stroke-miterlimit:4;stroke-opacity:1;stroke-dashoffset:0;marker:none;visibility:visible;display:inline;overflow:visible;enable-background:accumulate" id="rect4964-1-6-5" d="m 15.499961,8.4999993 33.000078,0 0,2.5000397 -33.000078,0 z"/><path style="opacity:.75;color:#000;fill:url(#linearGradient3931);fill-opacity:1;fill-rule:nonzero;stroke:url(#linearGradient3933);stroke-width:.99992186;stroke-linecap:butt;stroke-linejoin:round;stroke-miterlimit:4;stroke-opacity:1;stroke-dashoffset:0;marker:none;visibility:visible;display:inline;overflow:visible;enable-background:accumulate" id="rect4964-4" d="m 8.499961,10.499961 47.000079,0.0675 0,30.432581 -46.7341017,0 z"/><path style="opacity:.45;color:#000;fill:none;stroke:url(#linearGradient3928);stroke-width:.9999218;stroke-linecap:butt;stroke-linejoin:round;stroke-miterlimit:4;stroke-opacity:1;stroke-dashoffset:0;marker:none;visibility:visible;display:inline;overflow:visible;enable-background:accumulate" id="rect4964-1-6" d="m 9.4999609,11.499965 45.0000801,0.03138 -0.221054,28.468694 -44.4140201,0 z"/><rect style="color:#000;fill:url(#linearGradient3917);fill-opacity:1;fill-rule:nonzero;stroke:none;stroke-width:.99992186;marker:none;visibility:visible;display:inline;overflow:visible;enable-background:accumulate" id="rect4964" width="51" height="40" x="9" y="14"/><rect style="color:#000;fill:none;stroke:url(#linearGradient3076-9);stroke-width:.99999994;stroke-linecap:square;stroke-linejoin:round;stroke-miterlimit:4;stroke-opacity:1;stroke-dasharray:none;stroke-dashoffset:0;marker:none;visibility:visible;display:inline;overflow:visible;enable-background:accumulate" id="rect4964-1" width="55" height="39" x="4.5" y="14.5"/><path style="opacity:.4;color:#000;fill:#fff;fill-opacity:1;fill-rule:nonzero;stroke:none;stroke-width:.54960775;marker:none;visibility:visible;display:inline;overflow:visible;enable-background:accumulate" id="path3035-5" d="m 55,37.999998 a 10,10 0 1 1 -5.289881,-8.821267 l -4.710118,8.821267 z"/><path style="opacity:.15;color:#000;fill:#000;fill-opacity:1;fill-rule:nonzero;stroke:none;stroke-width:.99992186;marker:none;visibility:visible;display:inline;overflow:visible;enable-background:accumulate" id="path3035" d="M 55,36.84188 A 10,10 0 1 1 49.710119,28.020613 L 45.000001,36.84188 z"/><path style="font-size:medium;font-style:normal;font-variant:normal;font-weight:400;font-stretch:normal;text-indent:0;text-align:start;text-decoration:none;line-height:normal;letter-spacing:normal;word-spacing:normal;text-transform:none;direction:ltr;block-progression:tb;writing-mode:lr-tb;text-anchor:start;baseline-shift:baseline;color:#000;fill:url(#linearGradient3091);fill-opacity:1;stroke:none;stroke-width:.99999994px;marker:none;visibility:visible;display:inline;overflow:visible;enable-background:accumulate;font-family:Sans;-inkscape-font-specification:Sans" id="path3475-4" d="m 14,39.999999 0,-1 2.21875,0 0,1 z m 2.65625,0 0,-1 6.34375,0 0,1 z m -2.65625,-4 0,-1 2.96875,0 0,1 z m 3.71875,0 0,-1 2.34375,0 0,1 z m 2.9375,0 0,-1 1.1875,0 0,1 z m 1.8125,0 0,-1 2.15625,0 0,1 z m -8.46875,-4 0,-1 3.28125,0 0,1 z m 3.875,0 0,-1 1.65625,0 0,1 z m 2.21875,0 0,-1 3.71875,0 0,1 z m -6.09375,-4 0,-1 3.28125,0 0,1 z m 3.90625,0 0,-1 2.34375,0 0,1 z m 2.9375,0 0,-1 3.6875,0 0,1 z"/><path style="color:#000;fill:url(#radialGradient4173-5);fill-opacity:1;fill-rule:nonzero;stroke:none;stroke-width:.99999994;marker:none;visibility:visible;display:inline;overflow:visible;enable-background:accumulate" id="path4530" d="m 9.035786,54.5 c 0,0 -3.5542086,0 -5.3085786,0 -0.426414,-0.485462 -0.102163,-1.449298 -0.203479,-2.136563 0,-12.875954 0,-25.751906 0,-38.627855 l 0.05947,-0.166735 0.14401,-0.06885 0,0 c 1.825936,0 5.2370056,0 5.2370056,0"/><path style="opacity:.5;fill:none;stroke:url(#linearGradient3076);stroke-width:.99999994;stroke-linecap:square;stroke-linejoin:round;stroke-miterlimit:4;stroke-opacity:1;stroke-dasharray:none;stroke-dashoffset:0" id="rect6741-1-5" d="m 8.5,53.499998 -4,0 0,-38.999999 4,0"/><path style="font-size:medium;font-style:normal;font-variant:normal;font-weight:400;font-stretch:normal;text-indent:0;text-align:start;text-decoration:none;line-height:normal;letter-spacing:normal;word-spacing:normal;text-transform:none;direction:ltr;block-progression:tb;writing-mode:lr-tb;text-anchor:start;baseline-shift:baseline;opacity:.28000004;color:#000;fill:#000;fill-opacity:1;stroke:none;stroke-width:1px;marker:none;visibility:visible;display:inline;overflow:visible;enable-background:accumulate;font-family:Sans;-inkscape-font-specification:Sans" id="path3925" d="m 37,18 0,1 0.984375,-1e-6 0,-1 z m 1.640625,-1e-6 0,1 2.640625,0 0,-1 z m 3.359375,0 0,1 3,1e-6 0,-1 z m -19.75,0 0,1 5.734375,0 0,-1 z m 6.390625,0 0,1 2.640625,0 0,-1 z m 3.359375,0 0,1 3.75,0 0,-1 z"/><path style="opacity:.15;color:#000;fill:#000;fill-opacity:1;fill-rule:nonzero;stroke:none;stroke-width:.99992186;marker:none;visibility:visible;display:inline;overflow:visible;enable-background:accumulate" id="path3962" d="m 55,36.84188 c 10e-7,4.335689 -3.153395,8.480681 -7.331593,9.637301 -0.09762,-0.01695 -2.668406,-9.637301 -2.668406,-9.637301 z"/><path style="opacity:.15;color:#000;fill:#000;fill-opacity:1;fill-rule:nonzero;stroke:none;stroke-width:.99992186;marker:none;visibility:visible;display:inline;overflow:visible;enable-background:accumulate" id="path3964" d="m 55,36.84188 c 10e-7,4.335689 -3.153395,8.480681 -7.331593,9.637301 -4.178198,1.15662 -9.013426,-0.776912 -11.243199,-4.495223 -0.01769,0.01604 8.574793,-5.142078 8.574793,-5.142078 z"/><path style="font-size:medium;font-style:normal;font-variant:normal;font-weight:400;font-stretch:normal;text-indent:0;text-align:start;text-decoration:none;line-height:normal;letter-spacing:normal;word-spacing:normal;text-transform:none;direction:ltr;block-progression:tb;writing-mode:lr-tb;text-anchor:start;baseline-shift:baseline;color:#000;fill:url(#linearGradient3968);fill-opacity:1;stroke:none;stroke-width:.99999994px;marker:none;visibility:visible;display:inline;overflow:visible;enable-background:accumulate;font-family:Sans;-inkscape-font-specification:Sans" id="path3966" d="m 14,47.999999 0,-1 3.28125,0 0,1 z m 3.875,0 0,-1 1.65625,0 0,1 z m 2.21875,0 0,-1 3.71875,0 0,1 z m -6.09375,-4 0,-1 3.28125,0 0,1 z m 3.90625,0 0,-1 2.34375,0 0,1 z m 2.9375,0 0,-1 3.6875,0 0,1 z"/><path style="font-size:medium;font-style:normal;font-variant:normal;font-weight:400;font-stretch:normal;text-indent:0;text-align:start;text-decoration:none;line-height:normal;letter-spacing:normal;word-spacing:normal;text-transform:none;direction:ltr;block-progression:tb;writing-mode:lr-tb;text-anchor:start;baseline-shift:baseline;color:#000;fill:url(#linearGradient4180);fill-opacity:1;stroke:none;stroke-width:.99999994px;marker:none;visibility:visible;display:inline;overflow:visible;enable-background:accumulate;font-family:Sans;-inkscape-font-specification:Sans" id="path4178" d="m 25.1875,40 0,-1 2.21875,0 0,1 z m 0,-4 0,-1 2.96875,0 0,1 z m -0.90625,-4 0,-1 2.71875,0 0,1 z m 1.375,-4 0,-1 2.34375,0 0,1 z"/><path style="font-size:medium;font-style:normal;font-variant:normal;font-weight:400;font-stretch:normal;text-indent:0;text-align:start;text-decoration:none;line-height:normal;letter-spacing:normal;word-spacing:normal;text-transform:none;direction:ltr;block-progression:tb;writing-mode:lr-tb;text-anchor:start;baseline-shift:baseline;color:#000;fill:url(#linearGradient4185);fill-opacity:1;stroke:none;stroke-width:.99999994px;marker:none;visibility:visible;display:inline;overflow:visible;enable-background:accumulate;font-family:Sans;-inkscape-font-specification:Sans" id="path4183" d="m 25,43 0,1 3.28125,0 0,-1 z m 3.875,0 0,1 1.65625,0 0,-1 z m -4.15625,4 0,1 L 28,48 28,47 z m 3.90625,0 0,1 2.34375,0 0,-1 z m 2.9375,0 0,1 3.6875,0 0,-1 z"/><path style="opacity:.4;color:#000;fill:none;stroke:#640000;stroke-width:1;stroke-linecap:butt;stroke-linejoin:round;stroke-miterlimit:4;stroke-opacity:1;stroke-dasharray:none;stroke-dashoffset:0;marker:none;visibility:visible;display:inline;overflow:visible;enable-background:accumulate" id="path4530-3" d="m 9.035786,54.5 c -1.754361,0 -3.5542086,0 -5.3085786,0 -0.426414,-0.485462 -0.102163,-1.449298 -0.203479,-2.136563 0,-12.875954 0,-25.751906 0,-38.627855 l 0.05947,-0.166735 0.14401,-0.06885 0,0 c 1.825936,0 3.4110786,0 5.2370056,0"/><path style="fill:none;stroke:url(#linearGradient4420);stroke-width:.9999218;stroke-linecap:butt;stroke-linejoin:round;stroke-miterlimit:4;stroke-opacity:1;stroke-dasharray:none;stroke-dashoffset:0;display:inline" id="path4160-6-1" d="m 9,54.5 51.5,0 0,-41 -51.5,0"/><g id="g3138" transform="translate(-13.217778,-983.36214)"><path style="opacity:.15;fill:url(#radialGradient3479);fill-opacity:1;fill-rule:nonzero;stroke:none;stroke-width:1;marker:none;visibility:visible;display:inline;overflow:visible" id="path2881-3" d="m 72.217794,1040.9585 c 0,0 0,5.4036 0,5.4036 2.068242,0.01 5,-1.2107 5,-2.7022 0,-1.4915 -2.308,-2.7014 -5,-2.7014 z"/><g style="opacity:.3" id="g22150" transform="matrix(-0.916667,0,0,0.714282,78.217794,1017.3623)"><rect style="fill:url(#radialGradient3481);fill-opacity:1;stroke:none" id="rect22120" width="4" height="7" x="0" y="35"/><rect style="fill:url(#radialGradient3483);fill-opacity:1;stroke:none" id="rect22134" width="4" height="7" x="-48" y="-42" transform="scale(-1,-1)"/><rect style="fill:url(#linearGradient3485);fill-opacity:1;stroke:none" id="rect22138" width="40" height="7" x="4" y="35"/></g><path style="opacity:.8;fill:url(#linearGradient3487);fill-opacity:1;fill-rule:evenodd;stroke:#83899a;stroke-width:1px;stroke-linecap:butt;stroke-linejoin:miter;stroke-miterlimit:4;stroke-opacity:1;stroke-dasharray:none;stroke-dashoffset:0;marker:none;visibility:visible;display:inline;overflow:visible;enable-background:accumulate" id="path2993" d="m 75.717796,1005.8622 -39.999999,40 39.999999,0 0,-40 z m -7.999996,18.6666 0,13.3334 -13.500006,0 13.500006,-13.3334 z"/><path style="opacity:.3;fill:none;stroke:#fff;stroke-width:1px;stroke-linecap:round;stroke-linejoin:miter;stroke-opacity:1" id="path3101" d="m 70.717794,1044.8622 0,-1"/><path style="opacity:.3;fill:none;stroke:#fff;stroke-width:1px;stroke-linecap:round;stroke-linejoin:miter;stroke-opacity:1" id="path3103" d="m 64.717794,1044.8622 0,-1"/><path style="opacity:.3;fill:none;stroke:#fff;stroke-width:1px;stroke-linecap:round;stroke-linejoin:miter;stroke-opacity:1" id="path3105" d="m 58.717794,1044.8622 0,-0.9881"/><path style="opacity:.3;fill:none;stroke:#fff;stroke-width:1px;stroke-linecap:round;stroke-linejoin:miter;stroke-opacity:1" id="path3107" d="m 52.717794,1044.8622 0,-1"/><path style="opacity:.3;fill:none;stroke:#fff;stroke-width:1px;stroke-linecap:round;stroke-linejoin:miter;stroke-opacity:1" id="path3109" d="m 46.717794,1044.8622 0,-1"/><path style="opacity:.75;fill:none;stroke:#83899a;stroke-width:1.00000012px;stroke-linecap:round;stroke-linejoin:miter;stroke-opacity:1" id="path3091" d="m 69.717794,1045.8622 0,-2 m -6,2 0,-2 m -6,2 0,-1.9762 m -6,1.9762 0,-2 m -6,2 0,-2"/><path style="opacity:.5;fill:none;stroke:url(#linearGradient3489);stroke-width:1px;stroke-linecap:butt;stroke-linejoin:miter;stroke-miterlimit:4;stroke-opacity:1;stroke-dasharray:none;stroke-dashoffset:0;marker:none;visibility:visible;display:inline;overflow:visible;enable-background:accumulate" id="path3934" d="m 74.717794,1008.2997 c 0,0 0,36.5625 0,36.5625 0,0 -36.5625,0 -36.5625,0 0,0 36.5625,-36.5625 36.5625,-36.5625 z m -6,13.5625 c 0,0 -17,17 -17,17 0,0 17,0 17,0 0,0 0,-17 0,-17 z"/></g></svg>