<svg xmlns="http://www.w3.org/2000/svg" xmlns:svg="http://www.w3.org/2000/svg" xmlns:xlink="http://www.w3.org/1999/xlink" id="svg3935" width="16" height="16" version="1.1"><defs id="defs3937"><linearGradient id="linearGradient3707-319-631-407-324-3-8"><stop style="stop-color:#185f9a;stop-opacity:1" id="stop3760-7-3" offset="0"/><stop style="stop-color:#599ec9;stop-opacity:1" id="stop3762-8-4" offset="1"/></linearGradient><linearGradient id="linearGradient3071" x1="71.204" x2="71.204" y1="6.238" y2="44.341" gradientTransform="matrix(0.35135136,0,0,0.35135136,-17.203671,-0.90930013)" gradientUnits="userSpaceOnUse" xlink:href="#linearGradient4011"/><linearGradient id="linearGradient4011"><stop style="stop-color:#fff;stop-opacity:1" id="stop4013" offset="0"/><stop id="stop4015" offset=".508" style="stop-color:#fff;stop-opacity:.23529412"/><stop style="stop-color:#fff;stop-opacity:.15686275" id="stop4017" offset=".835"/><stop style="stop-color:#fff;stop-opacity:.39215687" id="stop4019" offset="1"/></linearGradient><linearGradient id="linearGradient2867-449-88-871-390-598-476-591-434-148-57-177-3-8"><stop style="stop-color:#90dbec;stop-opacity:1" id="stop3750-8-9" offset="0"/><stop style="stop-color:#55c1ec;stop-opacity:1" id="stop3752-3-2" offset=".262"/><stop style="stop-color:#3689e6;stop-opacity:1" id="stop3754-7-2" offset=".705"/><stop style="stop-color:#2b63a0;stop-opacity:1" id="stop3756-9-3" offset="1"/></linearGradient><radialGradient id="radialGradient3931" cx="5.78" cy="8.45" r="20" fx="5.78" fy="8.45" gradientTransform="matrix(0,0.89892574,-0.95095622,-1.6561642e-8,16.035401,-6.0146846)" gradientUnits="userSpaceOnUse" xlink:href="#linearGradient2867-449-88-871-390-598-476-591-434-148-57-177-3-8"/><linearGradient id="linearGradient3933" x1="24" x2="24" y1="44" y2="3.899" gradientTransform="matrix(0.38465107,0,0,0.38465106,-1.231625,-1.2316257)" gradientUnits="userSpaceOnUse" xlink:href="#linearGradient3707-319-631-407-324-3-8"/><linearGradient id="linearGradient3132" x1="24" x2="24" y1="22" y2="26" gradientTransform="matrix(0.49999981,0,0,0.49999981,-3.9999942,-3.9991006)" gradientUnits="userSpaceOnUse" xlink:href="#linearGradient3957"/><linearGradient id="linearGradient3957"><stop style="stop-color:#fff;stop-opacity:1" id="stop3959" offset="0"/><stop style="stop-color:#c1c1c1;stop-opacity:1" id="stop3961" offset="1"/></linearGradient><linearGradient id="linearGradient3138" x1="21.014" x2="22.806" y1="25.434" y2="27.344" gradientTransform="matrix(0.36121768,0,0,0.36121768,-0.66908965,-0.7800466)" gradientUnits="userSpaceOnUse" xlink:href="#linearGradient3957"/><linearGradient id="linearGradient3141" x1="27.925" x2="33.448" y1="15.149" y2="22.986" gradientTransform="matrix(0.36121768,0,0,0.36121768,-0.66908965,-0.7800466)" gradientUnits="userSpaceOnUse" xlink:href="#linearGradient4168"/><linearGradient id="linearGradient4168"><stop style="stop-color:#f8b17e;stop-opacity:1" id="stop4170" offset="0"/><stop style="stop-color:#e35d4f;stop-opacity:1" id="stop4172" offset=".232"/><stop style="stop-color:#c6262e;stop-opacity:1" id="stop4174" offset=".591"/><stop style="stop-color:#690b54;stop-opacity:1" id="stop4176" offset="1"/></linearGradient></defs><metadata id="metadata3940"/><g id="layer1"><path id="path2555-7" d="m 8.000001,0.49999997 c -4.138241,0 -7.50000103,3.36175853 -7.50000103,7.49999993 C 0.49999997,12.138242 3.86176,15.500001 8.000001,15.5 12.13824,15.5 15.500004,12.138242 15.5,7.9999999 15.5,3.8617585 12.13824,0.49999997 8.000001,0.49999997 z" style="color:#000;fill:url(#radialGradient3931);fill-opacity:1;fill-rule:nonzero;stroke:url(#linearGradient3933);stroke-width:.99999994000000003;stroke-linecap:round;stroke-linejoin:round;stroke-miterlimit:4;stroke-opacity:1;stroke-dasharray:none;stroke-dashoffset:0;marker:none;visibility:visible;display:inline;overflow:visible;enable-background:accumulate"/><path id="path8655-6" d="M 14.5,7.999769 C 14.5,11.589737 11.589636,14.5 8.0000824,14.5 4.4101993,14.5 1.5,11.589703 1.5,7.999769 1.5,4.4099697 4.4101993,1.5000003 8.0000824,1.5000003 11.589636,1.5000003 14.5,4.4099697 14.5,7.999769 l 0,0 z" style="opacity:.5;color:#000;fill:none;stroke:url(#linearGradient3071);stroke-width:.99999994;stroke-linecap:round;stroke-linejoin:round;stroke-miterlimit:4;stroke-opacity:1;stroke-dasharray:none;stroke-dashoffset:0;marker:none;visibility:visible;display:inline;overflow:visible;enable-background:accumulate"/><path id="path3166" d="m 24.935547,6.8496094 a 1.1520853,1.1520853 0 0 0 -0.654297,0.25 l -10,7.9999996 a 1.1520853,1.1520853 0 0 0 -0.181641,0.181641 l -7.9999996,10 A 1.1520853,1.1520853 0 0 0 7.71875,26.900391 l 10,-8 a 1.1520853,1.1520853 0 0 0 0.181641,-0.181641 l 8,-10 A 1.1520853,1.1520853 0 0 0 24.935547,6.8496094 Z" transform="matrix(0.51068707,0,0,0.51068707,-0.17085765,-0.28181571)" style="color:#000;display:inline;overflow:visible;visibility:visible;opacity:.05;fill:#000;fill-opacity:1;fill-rule:nonzero;stroke:none;stroke-width:1;marker:none;enable-background:accumulate"/><path style="color:#000;display:inline;overflow:visible;visibility:visible;opacity:.15;fill:#000;fill-opacity:1;fill-rule:nonzero;stroke:none;stroke-width:1;marker:none;enable-background:accumulate" id="path3022-96" d="M 12.597685,3.8024664 7.4954854,7.8887412 3.4092114,12.990941 9.2226311,9.4535418 Z"/><path style="fill:url(#linearGradient3141);fill-opacity:1;stroke:none" id="path3022" d="M 7,7 9,9 12.597685,3.2916272 Z"/><path style="color:#000;display:inline;overflow:visible;visibility:visible;fill:url(#linearGradient3138);fill-opacity:1;fill-rule:nonzero;stroke:none;stroke-width:.75;marker:none;enable-background:accumulate" id="path3022-9" d="M 7,7 9,9 3.4025844,12.486728 Z"/><path style="color:#000;display:inline;overflow:visible;visibility:visible;opacity:.2;fill:#000;fill-opacity:1;fill-rule:nonzero;stroke:none;stroke-width:1.33333337;marker:none;enable-background:accumulate" id="path3955-1-5" d="m 9.2499998,8.2507071 a 1.25,1.25 0 0 1 -2.4999996,0 1.25,1.25 0 1 1 2.4999996,0 z"/><path style="color:#000;display:inline;overflow:visible;visibility:visible;opacity:.05;fill:#fff;fill-opacity:1;fill-rule:nonzero;stroke:none;stroke-width:1;marker:none;enable-background:accumulate" id="path3953" d="m 7.7539794,8.153537 a 0.36121768,0.36121768 0 0 1 0.245234,-0.6255763 l 9.2e-4,0.3612166 z"/><path style="color:#000;display:inline;overflow:visible;visibility:visible;opacity:.2;fill:#000;fill-opacity:1;fill-rule:nonzero;stroke:none;stroke-width:1.33333337;marker:none;enable-background:accumulate" id="path3955-1" d="m 8.9999996,8.2508944 a 1,1 0 0 1 -1.9999992,0 1,1 0 1 1 1.9999992,0 z"/><path style="color:#000;display:inline;overflow:visible;visibility:visible;fill:url(#linearGradient3132);fill-opacity:1;fill-rule:nonzero;stroke:none;stroke-width:1;marker:none;enable-background:accumulate" id="path3955" d="m 8.9999996,8.0008944 a 1,1 0 0 1 -1.9999992,0 1,1 0 1 1 1.9999992,0 z"/></g></svg>